<?xml version="1.0" standalone="no"?>
<!DOCTYPE svg PUBLIC "-//W3C//DTD SVG 1.1//EN" "http://www.w3.org/Graphics/SVG/1.1/DTD/svg11.dtd" >
<svg xmlns="http://www.w3.org/2000/svg" xmlns:xlink="http://www.w3.org/1999/xlink" version="1.1">
<metadata>
Created by FontForge 20170731 at Tue Sep 11 14:36:42 2012
 By Aleksey,,,
(URW)++,Copyright 2006 by (URW)++ Design &#38; Development
</metadata>
<defs>
<font id="NeuzeitGroExt-Bla" horiz-adv-x="1024" >
  <font-face 
    font-family="NeuzeitGroExt-Bla"
    font-weight="400"
    font-stretch="normal"
    units-per-em="2048"
    panose-1="0 0 0 0 0 0 0 0 0 0"
    ascent="1619"
    descent="-429"
    x-height="1010"
    cap-height="1365"
    bbox="-348 -512 1745 1782"
    underline-thickness="166"
    underline-position="-289"
    unicode-range="U+0020-FB02"
  />
<missing-glyph horiz-adv-x="512" 
d="M51 0v1365h410v-1365h-410zM410 51v1263h-308v-1263h308z" />
    <glyph glyph-name=".notdef" horiz-adv-x="512" 
d="M51 0v1365h410v-1365h-410zM410 51v1263h-308v-1263h308z" />
    <glyph glyph-name=".null" horiz-adv-x="0" 
 />
    <glyph glyph-name="nonmarkingreturn" horiz-adv-x="682" 
 />
    <glyph glyph-name="space" unicode=" " horiz-adv-x="512" 
 />
    <glyph glyph-name="exclam" unicode="!" horiz-adv-x="576" 
d="M158 1365h273l-20 -976h-232zM294 256q58 0 99 -40q40 -41 40 -98t-40 -98q-41 -40 -99 -40t-97 40q-40 42 -40 99q0 55 40 97q39 40 97 40z" />
    <glyph glyph-name="quotedbl" unicode="&#x22;" horiz-adv-x="683" 
d="M111 760h-43l48 407q11 91 34 120q36 44 95 44q50 0 76 -31q21 -26 21 -58q0 -42 -32 -103zM425 760h-43l48 407q11 91 34 120q36 44 95 44q50 0 76 -31q21 -26 21 -58q0 -42 -32 -103z" />
    <glyph glyph-name="numbersign" unicode="#" horiz-adv-x="1079" 
d="M497 973h184l54 307h218l-54 -307h116l-36 -205h-116l-40 -232h116l-36 -205h-116l-54 -307h-205l54 307h-198l-54 -307h-205l54 307h-116l36 205h116l41 232h-116l36 205h116l54 307h204zM461 768l-41 -232h198l41 232h-198z" />
    <glyph glyph-name="dollar" unicode="$" horiz-adv-x="888" 
d="M484 1115v-334q83 -56 134 -93q203 -151 203 -360q0 -152 -104 -253q-91 -90 -233 -101v-124h-93v124q-127 10 -199 54q-114 69 -137 231l221 68q11 -73 47 -107q23 -21 68 -32v342q-84 54 -145 102q-91 73 -137 154q-45 79 -45 186q0 132 72 224q85 108 255 126v106h93
v-105q106 -10 165 -43q117 -66 148 -223l-219 -70q-10 57 -34 88q-17 23 -60 40zM391 1114q-46 -18 -63 -38q-26 -29 -26 -77q0 -82 89 -151v266zM484 185q33 8 52 26q38 37 38 91q0 85 -90 163v-280z" />
    <glyph glyph-name="percent" unicode="%" horiz-adv-x="1215" 
d="M287 1345q243 0 243 -339q0 -340 -242 -340q-137 0 -196 102q-48 84 -48 242q0 335 243 335zM287 1195q-38 0 -53 -41q-13 -36 -13 -148q0 -123 17 -157q15 -32 49 -32q38 0 53 41q13 36 13 147q0 124 -17 158q-15 32 -49 32zM908 1356h151l-751 -1383h-151zM929 662
q243 0 243 -339t-242 -339q-137 0 -196 101q-48 85 -48 243q0 334 243 334zM929 512q-38 0 -53 -41q-13 -36 -13 -147q0 -122 17 -157q15 -32 49 -32q38 0 53 41q13 36 13 146q0 124 -17 159q-15 31 -49 31z" />
    <glyph glyph-name="ampersand" unicode="&#x26;" horiz-adv-x="1102" 
d="M896 512l151 -159l-139 -141l130 -212h-254l-43 77q-156 -97 -277 -97q-158 0 -265 122q-90 103 -90 247q0 242 252 368q-19 30 -28 45q-41 61 -58 98q-27 57 -27 132q0 139 97 222q87 76 204 76q128 0 212 -86q77 -77 77 -186q0 -137 -123 -264q-28 -29 -83 -75
l172 -289zM528 844q105 97 105 165q0 36 -26 63q-24 26 -58 26q-35 0 -66 -25q-30 -24 -30 -68q0 -41 25 -81zM458 560q-111 -86 -111 -191q0 -69 42 -119q46 -54 108 -54t136 58z" />
    <glyph glyph-name="quotesingle" unicode="'" horiz-adv-x="683" 
d="M288 760h-43l48 407q11 91 34 120q36 44 95 44q50 0 76 -31q21 -26 21 -58q0 -42 -32 -103z" />
    <glyph glyph-name="parenleft" unicode="(" horiz-adv-x="586" 
d="M354 1427l171 -174q-80 -107 -111 -206q-30 -93 -48 -223q-21 -156 -21 -293q0 -277 69 -486q33 -102 111 -206l-171 -174q-99 115 -159 269q-106 270 -106 612q0 343 106 612q60 153 159 269z" />
    <glyph glyph-name="parenright" unicode=")" horiz-adv-x="586" 
d="M231 -335l-170 174q80 108 111 206q30 93 48 223q21 156 21 293q0 278 -69 486q-34 102 -111 206l170 174q100 -115 160 -269q106 -269 106 -612t-106 -612q-60 -152 -160 -269z" />
    <glyph glyph-name="asterisk" unicode="*" horiz-adv-x="923" 
d="M546 1372l-18 -197l192 83l52 -165l-201 -50l140 -144l-149 -102l-102 184l-110 -184l-140 102l133 144l-193 41l51 174l189 -83l-14 197h170z" />
    <glyph glyph-name="plus" unicode="+" horiz-adv-x="887" 
d="M335 543h-294v218h294v294h218v-294h294v-218h-294v-294h-218v294z" />
    <glyph glyph-name="comma" unicode="," horiz-adv-x="485" 
d="M168 246h242l-158 -430h-211z" />
    <glyph glyph-name="hyphen" unicode="-" horiz-adv-x="546" 
d="M68 621h410v-232h-410v232z" />
    <glyph glyph-name="period" unicode="." horiz-adv-x="485" 
d="M241 256q58 0 99 -40q40 -41 40 -98t-40 -98q-41 -40 -99 -40t-97 40q-40 42 -40 99q0 55 40 97q39 40 97 40z" />
    <glyph glyph-name="slash" unicode="/" horiz-adv-x="567" 
d="M314 1393h212l-273 -1420h-212z" />
    <glyph glyph-name="zero" unicode="0" horiz-adv-x="887" 
d="M444 1331q140 0 235 -103q140 -152 140 -576q0 -307 -76 -479q-41 -93 -122 -148q-76 -52 -176 -52q-142 0 -236 103q-140 151 -140 585q0 670 375 670zM443 1099q-69 0 -94 -104q-21 -84 -21 -344q0 -282 27 -365q27 -81 90 -81q69 0 94 104q21 84 21 339q0 288 -27 370
q-27 81 -90 81z" />
    <glyph glyph-name="one" unicode="1" horiz-adv-x="888" 
d="M587 1318v-1318h-259v960q-59 -50 -146 -86v219q199 84 324 225h81z" />
    <glyph glyph-name="two" unicode="2" horiz-adv-x="888" 
d="M758 239v-239h-721l376 685q69 126 90 190q20 64 20 113q0 51 -23 80q-24 31 -65 31q-94 0 -94 -152v-49h-253v49q0 134 33 202q51 103 168 151q74 31 156 31q152 0 254 -89q100 -87 100 -253q0 -180 -151 -430l-193 -320h303z" />
    <glyph glyph-name="three" unicode="3" horiz-adv-x="887" 
d="M111 1304h724l-306 -465q68 0 107 -16q158 -67 158 -356q0 -236 -107 -365t-281 -129q-152 0 -247 94q-69 69 -86 158q-12 66 -12 156v43h251v-69q0 -82 17 -117q24 -46 77 -46q124 0 124 252q0 209 -107 209q-48 0 -98 -51l-116 126l236 337h-334v239z" />
    <glyph glyph-name="four" unicode="4" horiz-adv-x="888" 
d="M718 1304v-861h105v-225h-105v-218h-259v218h-399v232l399 854h259zM459 443v499l-224 -499h224z" />
    <glyph glyph-name="five" unicode="5" horiz-adv-x="888" 
d="M721 1304v-239h-399v-246q75 72 181 72q147 0 219 -139q56 -109 56 -285q0 -245 -100 -371q-98 -124 -281 -124q-212 0 -289 144q-40 77 -49 203l250 57q0 -90 18 -132q20 -50 76 -50q49 0 74 42q36 62 36 227q0 207 -120 207q-58 0 -84 -73h-204v707h616z" />
    <glyph glyph-name="six" unicode="6" horiz-adv-x="888" 
d="M774 1304l-318 -474q56 20 97 20q131 0 207 -137q59 -104 59 -265q0 -231 -110 -357q-104 -118 -280 -118q-169 0 -259 118q-91 118 -91 322q0 166 57 314q36 96 125 234l219 343h294zM449 640q-43 0 -69 -40q-41 -63 -41 -184q0 -122 41 -185q27 -40 70 -40t69 40
q41 64 41 181q0 126 -41 188q-27 40 -70 40z" />
    <glyph glyph-name="seven" unicode="7" horiz-adv-x="888" 
d="M106 1304h686l-380 -1304h-275l325 1072h-356v232z" />
    <glyph glyph-name="eight" unicode="8" horiz-adv-x="888" 
d="M254 724q-157 56 -157 262q0 152 82 244q90 101 260 101q169 0 259 -101q82 -92 82 -244q0 -206 -158 -262q90 -33 131 -91q60 -85 60 -239q0 -198 -97 -309q-98 -112 -277 -112q-180 0 -278 112q-97 111 -97 309q0 154 59 239q41 58 131 91zM438 1133q-93 0 -93 -165
q0 -166 94 -166q93 0 93 162q0 98 -28 137q-23 32 -66 32zM438 607q-50 0 -76 -40q-39 -61 -39 -172t39 -172q26 -40 77 -40t76 40q39 63 39 170q0 113 -39 174q-26 40 -77 40z" />
    <glyph glyph-name="nine" unicode="9" horiz-adv-x="888" 
d="M114 0l318 474q-58 -20 -98 -20q-130 0 -207 137q-59 104 -59 265q0 232 110 357q105 118 280 118q169 0 260 -118t91 -322q0 -166 -57 -314q-36 -94 -125 -234l-219 -343h-294zM437 1113q-42 0 -69 -40q-41 -63 -41 -181q0 -125 41 -188q27 -40 70 -40t70 40
q41 63 41 184q0 124 -41 185q-28 40 -71 40z" />
    <glyph glyph-name="colon" unicode=":" horiz-adv-x="485" 
d="M241 256q58 0 99 -40q40 -41 40 -98t-40 -98q-41 -40 -99 -40t-97 40q-40 42 -40 99q0 55 40 97q39 40 97 40zM241 1006q58 0 99 -40q40 -41 40 -98t-40 -98q-41 -40 -99 -40t-97 40q-40 42 -40 99q0 55 40 97q39 40 97 40z" />
    <glyph glyph-name="semicolon" unicode=";" horiz-adv-x="485" 
d="M168 246h242l-158 -430h-211zM279 1006q58 0 99 -40q40 -41 40 -98t-40 -98q-41 -40 -99 -40t-97 40q-40 42 -40 99q0 55 40 97q39 40 97 40z" />
    <glyph glyph-name="less" unicode="&#x3c;" 
d="M955 1255v-274l-596 -298l596 -299v-273l-887 457v231z" />
    <glyph glyph-name="equal" unicode="=" horiz-adv-x="887" 
d="M41 952h806v-218h-806v218zM41 570h806v-218h-806v218z" />
    <glyph glyph-name="greater" unicode="&#x3e;" 
d="M69 1255l887 -456v-231l-887 -457v273l595 299l-595 298v274z" />
    <glyph glyph-name="question" unicode="?" horiz-adv-x="792" 
d="M273 941h-231q-1 29 -1 44q0 177 86 280q95 114 269 114q169 0 257 -110q71 -88 71 -235q0 -102 -42 -193q-35 -74 -107 -181q-83 -123 -103 -183q-12 -36 -20 -88h-240q7 99 40 176q32 72 79 143l72 108q63 95 63 214q0 135 -84 135q-76 0 -97 -91q-12 -49 -12 -133z
M334 256q58 0 99 -40q40 -41 40 -98t-40 -98q-41 -40 -99 -40t-97 40q-40 42 -40 99q0 55 40 97q40 40 97 40z" />
    <glyph glyph-name="at" unicode="@" horiz-adv-x="1473" 
d="M1085 1002l-110 -474q-13 -56 -13 -64q0 -35 32 -35q85 0 153 81q103 125 103 319q0 186 -123 296q-129 114 -328 114q-247 0 -409 -172q-167 -177 -167 -443q0 -234 144 -367q147 -137 372 -137q189 0 361 102q29 17 83 55l56 -114q-69 -54 -117 -83
q-175 -107 -390 -107q-280 0 -464 168q-200 182 -200 484q0 323 203 541q211 226 527 226q245 0 413 -141q193 -161 193 -424q0 -208 -115 -366q-122 -169 -310 -169q-134 0 -157 100q-41 -45 -66 -62q-59 -40 -134 -40q-125 0 -190 97q-46 70 -46 185q0 188 101 321
q47 63 114 101q70 41 145 41q105 0 162 -96l28 63h149zM866 779q-21 112 -112 112q-79 0 -130 -81q-68 -107 -68 -248q0 -60 23 -92q27 -37 70 -37q74 0 128 65q34 40 51 116z" />
    <glyph glyph-name="A" unicode="A" horiz-adv-x="985" 
d="M629 212h-278l-41 -212h-269l310 1372h294l299 -1372h-281zM589 430l-94 621l-109 -621h203z" />
    <glyph glyph-name="B" unicode="B" horiz-adv-x="989" 
d="M123 1365h362q167 0 270 -65q129 -81 129 -264q0 -249 -240 -300q90 -24 143 -63q120 -89 120 -276q0 -143 -68 -241q-109 -156 -395 -156h-321v1365zM389 819h55q77 0 124 46q50 47 50 125q0 89 -63 136q-45 34 -111 34h-55v-341zM389 212h55q99 0 151 65q39 49 39 136
q0 100 -51 150q-53 51 -139 51h-55v-402z" />
    <glyph glyph-name="C" unicode="C" horiz-adv-x="881" 
d="M826 1033l-235 -63q-23 204 -106 204q-56 0 -88 -75q-42 -97 -42 -439q0 -320 42 -408q29 -61 77 -61q60 0 89 83q19 55 28 165l235 -90q-12 -97 -51 -176q-103 -207 -315 -207q-133 0 -228 89q-102 97 -134 309q-16 108 -16 296q0 236 23 362q34 195 136 287
q99 90 240 90q160 0 253 -110q73 -85 92 -256z" />
    <glyph glyph-name="D" unicode="D" horiz-adv-x="988" 
d="M123 1365h303q170 0 265 -59q215 -133 215 -602q0 -386 -133 -562q-108 -142 -318 -142h-332v1365zM389 212h27q96 0 150 66q42 51 57 175q10 77 10 230q0 214 -25 308q-42 162 -192 162h-27v-941z" />
    <glyph glyph-name="E" unicode="E" horiz-adv-x="800" 
d="M123 1365h575v-225h-309v-324h309v-222h-309v-369h309v-225h-575v1365z" />
    <glyph glyph-name="F" unicode="F" horiz-adv-x="800" 
d="M123 1365h588v-225h-322v-324h322v-222h-322v-594h-266v1365z" />
    <glyph glyph-name="G" unicode="G" horiz-adv-x="989" 
d="M477 816h431v-139q0 -241 -25 -356q-42 -192 -157 -280q-98 -75 -228 -75q-144 0 -250 92q-166 143 -166 602q0 377 103 563q53 94 161 142q76 34 169 34q173 0 272 -99q67 -68 90 -193l-242 -88q-23 155 -122 155q-67 0 -107 -78q-51 -101 -51 -409q0 -346 51 -431
q39 -65 98 -65q65 0 102 80q24 53 28 190q1 18 1 137h-158v218z" />
    <glyph glyph-name="H" unicode="H" horiz-adv-x="990" 
d="M389 1365v-536h212v536h266v-1365h-266v607h-212v-607h-266v1365h266z" />
    <glyph glyph-name="I" unicode="I" horiz-adv-x="512" 
d="M389 1365v-1365h-266v1365h266z" />
    <glyph glyph-name="J" unicode="J" horiz-adv-x="759" 
d="M643 1365v-963q0 -151 -13 -207q-29 -127 -141 -187q-79 -42 -174 -42q-172 0 -273 117l153 204q24 -55 46 -79q19 -19 48 -19q50 0 72 53q16 38 16 150v973h266z" />
    <glyph glyph-name="K" unicode="K" horiz-adv-x="984" 
d="M123 1365h266v-583l260 583h280l-280 -617l287 -748h-303l-244 709v-709h-266v1365z" />
    <glyph glyph-name="L" unicode="L" horiz-adv-x="800" 
d="M123 1365h266v-1140h309v-225h-575v1365z" />
    <glyph glyph-name="M" unicode="M" horiz-adv-x="1278" 
d="M123 1365h300l219 -864l221 864h292v-1365h-246v833l-167 -669h-209l-164 669v-833h-246v1365z" />
    <glyph glyph-name="N" unicode="N" horiz-adv-x="1009" 
d="M123 1365h278l239 -832v832h246v-1365h-274l-243 779v-779h-246v1365z" />
    <glyph glyph-name="O" unicode="O" horiz-adv-x="984" 
d="M492 1399q186 0 281 -127q86 -117 109 -271q21 -146 21 -332q0 -276 -49 -419q-97 -284 -359 -284q-190 0 -283 127q-86 119 -109 271q-21 143 -21 319q0 290 48 433q97 283 362 283zM492 1168q-77 0 -108 -99q-29 -95 -29 -386q0 -315 37 -407q31 -76 102 -76
q76 0 107 99q29 95 29 379q0 322 -37 414q-31 76 -101 76z" />
    <glyph glyph-name="P" unicode="P" horiz-adv-x="898" 
d="M123 1365h294q228 0 331 -131q88 -113 88 -331q0 -238 -121 -358q-102 -101 -298 -101h-28v-444h-266v1365zM389 659q76 -1 112 31q62 56 62 213q0 165 -69 218q-34 26 -105 26v-488z" />
    <glyph glyph-name="Q" unicode="Q" horiz-adv-x="984" 
d="M596 -21q-53 -13 -104 -13q-186 0 -280 127q-86 118 -109 271q-21 145 -21 318q0 291 49 433q97 284 362 284q186 0 280 -127q87 -118 109 -271q21 -146 21 -311q0 -318 -59 -466q-21 -53 -53 -104l117 -171l-198 -133zM492 1168q-77 0 -108 -99q-29 -95 -29 -386
q0 -315 37 -407q31 -76 102 -76q76 0 107 99q29 95 29 379q0 322 -37 414q-31 76 -101 76z" />
    <glyph glyph-name="R" unicode="R" horiz-adv-x="989" 
d="M123 1365h331q224 0 328 -94q113 -102 113 -303q0 -184 -118 -285q-46 -39 -105 -57l256 -626h-302l-237 626v-626h-266v1365zM389 780h45q184 0 184 183q0 184 -184 184h-45v-367z" />
    <glyph glyph-name="S" unicode="S" horiz-adv-x="888" 
d="M814 1079l-228 -80q-23 175 -131 175q-52 0 -84 -35q-31 -33 -31 -87q0 -67 57 -133q23 -26 89 -82l127 -106q104 -88 153 -166q54 -87 54 -203q0 -126 -61 -227q-51 -85 -142 -128q-88 -41 -192 -41q-189 0 -297 132q-66 82 -87 215l245 59q32 -173 149 -173q49 0 82 35
q36 38 36 96q0 66 -58 132q-32 36 -85 81l-134 112q-71 59 -133 143q-72 95 -72 231q0 187 123 289q98 81 255 81q201 0 293 -137q49 -72 72 -183z" />
    <glyph glyph-name="T" unicode="T" horiz-adv-x="799" 
d="M744 1365v-225h-211v-1140h-266v1140h-212v225h689z" />
    <glyph glyph-name="U" unicode="U" horiz-adv-x="984" 
d="M602 1365h266v-985q0 -148 -40 -225q-97 -189 -333 -189q-184 0 -288 114q-55 61 -73 131q-18 72 -18 169v985h266v-985q0 -91 17 -122q30 -56 93 -56t93 56q17 31 17 122v985z" />
    <glyph glyph-name="V" unicode="V" horiz-adv-x="887" 
d="M48 1365h286l107 -935l138 935h260l-260 -1365h-278z" />
    <glyph glyph-name="W" unicode="W" horiz-adv-x="1397" 
d="M48 1365h258l137 -993l135 993h263l116 -993l135 993h258l-241 -1365h-276l-130 1030l-137 -1030h-275z" />
    <glyph glyph-name="X" unicode="X" horiz-adv-x="985" 
d="M70 1365h293l129 -437l155 437h276l-268 -642l276 -723h-284l-155 514l-164 -514h-273l273 723z" />
    <glyph glyph-name="Y" unicode="Y" horiz-adv-x="995" 
d="M48 1365h292l160 -537l165 537h281l-316 -824v-541h-266v541z" />
    <glyph glyph-name="Z" unicode="Z" horiz-adv-x="799" 
d="M67 1365h704l-383 -1147h331v-218h-678l384 1147h-358v218z" />
    <glyph glyph-name="bracketleft" unicode="[" horiz-adv-x="590" 
d="M529 1393v-184h-153v-1325h153v-184h-392v1693h392z" />
    <glyph glyph-name="backslash" unicode="\" horiz-adv-x="567" 
d="M41 1393h212l273 -1420h-212z" />
    <glyph glyph-name="bracketright" unicode="]" horiz-adv-x="590" 
d="M61 -300v184h153v1325h-153v184h392v-1693h-392z" />
    <glyph glyph-name="asciicircum" unicode="^" 
d="M283 728h-245l321 644h306l321 -644h-246l-229 458z" />
    <glyph glyph-name="underscore" unicode="_" 
d="M0 -123h1024v-166h-1024v166z" />
    <glyph glyph-name="grave" unicode="`" 
d="M471 1365l135 -252h-157l-246 252h268z" />
    <glyph glyph-name="a" unicode="a" horiz-adv-x="900" 
d="M790 1010v-1010h-242v184q-38 -115 -94 -168q-45 -43 -115 -43q-120 0 -188 131q-36 71 -55 205q-14 99 -14 195q0 131 22 254q30 169 116 238q52 42 111 42q135 0 217 -212v184h242zM442 799q-101 0 -101 -297t102 -297q106 0 106 295q0 175 -31 240q-27 59 -76 59z" />
    <glyph glyph-name="b" unicode="b" horiz-adv-x="913" 
d="M123 1365h253v-526q41 95 85 144q48 54 119 54q126 0 195 -153q29 -66 44 -189q13 -100 13 -191q0 -141 -26 -267q-56 -264 -231 -264q-73 0 -115 43q-48 48 -95 168v-184h-242v1365zM471 799q-107 0 -107 -295q0 -299 108 -299q101 0 101 297t-102 297z" />
    <glyph glyph-name="c" unicode="c" horiz-adv-x="792" 
d="M737 756l-218 -53q-26 129 -84 129q-53 0 -74 -75q-22 -76 -22 -261q0 -189 19 -248q20 -63 73 -63q41 0 62 43q14 29 26 97l218 -62q-28 -121 -76 -183q-43 -56 -116 -84q-61 -23 -128 -23q-104 0 -185 58q-97 70 -129 216q-21 97 -21 262q0 184 27 281q40 140 131 200
q71 47 187 47q184 0 258 -129q33 -55 52 -152z" />
    <glyph glyph-name="d" unicode="d" horiz-adv-x="913" 
d="M790 1365v-1365h-242v184q-46 -119 -95 -168q-42 -43 -114 -43q-121 0 -189 131q-36 71 -55 205q-14 99 -14 195q0 131 22 254q30 170 115 238q53 42 113 42q72 0 121 -54q43 -49 85 -145v526h253zM441 799q-101 0 -101 -297t102 -297q107 0 107 295q0 299 -108 299z" />
    <glyph glyph-name="e" unicode="e" horiz-adv-x="893" 
d="M811 451h-482q-1 -280 115 -280q71 0 102 84q10 30 19 70l226 -54q-68 -298 -349 -298q-131 0 -218 69q-142 112 -142 454q0 245 80 382q94 159 288 159q159 0 253 -103q109 -119 109 -426q0 -16 -1 -57zM568 619q-2 90 -19 143q-24 77 -100 77q-77 0 -101 -77
q-16 -53 -19 -143h239z" />
    <glyph glyph-name="f" unicode="f" horiz-adv-x="583" 
d="M519 1010v-201h-107v-809h-253v809h-102v201h102q1 159 42 236q65 123 245 123q22 0 73 -4v-219q-70 1 -89 -27q-18 -25 -18 -109h107z" />
    <glyph glyph-name="g" unicode="g" horiz-adv-x="897" 
d="M546 1010h242v-906q0 -169 -19 -235q-35 -123 -151 -187q-94 -51 -209 -51q-208 0 -313 165l193 122q37 -86 117 -86q98 0 121 105q12 56 12 184v79q-28 -79 -61 -128q-57 -82 -148 -82q-152 0 -209 189q-39 129 -39 309q0 239 59 392q33 86 100 131q39 26 94 26
q145 0 211 -212v185zM442 798q-100 0 -100 -297q0 -296 101 -296q106 0 106 294q0 174 -31 241q-27 58 -76 58z" />
    <glyph glyph-name="h" unicode="h" horiz-adv-x="905" 
d="M376 1365v-491q43 69 74 100q66 63 154 63q100 0 152 -76q40 -59 40 -167v-794h-253v669q0 75 -16 101q-21 35 -67 35q-42 0 -64 -32q-20 -30 -20 -104v-669h-253v1365h253z" />
    <glyph glyph-name="i" unicode="i" horiz-adv-x="471" 
d="M110 1010h253v-1010h-253v1010zM235 1393q58 0 99 -41q40 -40 40 -97t-40 -98q-41 -40 -99 -40t-97 40q-40 42 -40 100q0 54 40 95t97 41z" />
    <glyph glyph-name="j" unicode="j" horiz-adv-x="471" 
d="M362 1010v-1043q0 -115 -25 -171q-68 -151 -261 -151q-52 0 -115 13v210q39 -12 66 -12q56 0 74 52q8 22 8 92v1010h253zM235 1393q58 0 99 -41q40 -40 40 -97t-40 -98q-41 -40 -99 -40t-97 40q-40 42 -40 100q0 54 40 95t97 41z" />
    <glyph glyph-name="k" unicode="k" horiz-adv-x="900" 
d="M123 1365h253v-819l210 464h264l-226 -478l243 -532h-281l-210 474v-474h-253v1365z" />
    <glyph glyph-name="l" unicode="l" horiz-adv-x="498" 
d="M123 1365h253v-1365h-253v1365z" />
    <glyph glyph-name="m" unicode="m" horiz-adv-x="1307" 
d="M109 1010h243v-145q32 69 62 102q65 70 173 70q109 0 155 -78q22 -36 36 -94q28 59 55 92q64 80 175 80q86 0 138 -52q43 -44 50 -127q2 -21 2 -88v-770h-253v677q0 87 -31 117q-18 17 -48 17q-86 0 -86 -134v-677h-253v695q0 118 -78 118q-47 0 -71 -38q-16 -25 -16 -98
v-677h-253v1010z" />
    <glyph glyph-name="n" unicode="n" horiz-adv-x="891" 
d="M351 1010v-145q46 73 79 105q69 67 160 67q100 0 152 -76q40 -59 40 -167v-794h-253v669q0 75 -16 101q-21 35 -67 35q-42 0 -64 -32q-20 -30 -20 -104v-669h-253v1010h242z" />
    <glyph glyph-name="o" unicode="o" horiz-adv-x="901" 
d="M451 1037q103 0 186 -52q183 -116 183 -487q0 -258 -104 -400q-53 -72 -144 -105q-57 -20 -121 -20q-103 0 -186 52q-183 115 -183 480q0 267 104 407q93 125 265 125zM449 829q-49 0 -76 -60q-32 -69 -32 -266q0 -148 20 -232q23 -93 92 -93q49 0 76 60q32 69 32 262
q0 156 -20 236q-24 93 -92 93z" />
    <glyph glyph-name="p" unicode="p" horiz-adv-x="913" 
d="M164 -355v1365h242v-184q47 120 95 168q42 43 113 43q122 0 190 -131q36 -72 55 -205q14 -98 14 -196q0 -130 -22 -253q-30 -169 -115 -238q-53 -42 -113 -42q-72 0 -121 54q-44 50 -85 145v-526h-253zM512 805q-107 0 -107 -295q0 -299 108 -299q101 0 101 297t-102 297
z" />
    <glyph glyph-name="q" unicode="q" horiz-adv-x="913" 
d="M831 -355h-253v526q-41 -95 -85 -144q-48 -54 -119 -54q-126 0 -195 153q-29 66 -44 189q-13 100 -13 191q0 141 26 267q56 264 230 264q74 0 116 -43q48 -47 95 -168v184h242v-1365zM482 805q-101 0 -101 -297t102 -297q107 0 107 295q0 299 -108 299z" />
    <glyph glyph-name="r" unicode="r" horiz-adv-x="686" 
d="M109 1010h253v-208q78 230 269 232v-279q-43 7 -74 7q-101 0 -153 -67q-42 -56 -42 -163v-527h-253v1005z" />
    <glyph glyph-name="s" unicode="s" horiz-adv-x="757" 
d="M695 845l-184 -119q-22 113 -112 113q-45 0 -71 -27q-19 -20 -19 -51q0 -36 19 -60q19 -25 60 -51q146 -96 181 -123q88 -71 116 -142q18 -47 18 -102q0 -156 -112 -242q-89 -68 -220 -68q-141 0 -230 75q-49 41 -86 120l195 128q32 -125 121 -125q43 0 69 29
q22 24 22 56q0 46 -53 94q-32 28 -136 99q-131 90 -166 153q-31 56 -31 129q0 148 99 233q85 73 219 73q149 0 233 -89q32 -34 68 -103z" />
    <glyph glyph-name="t" unicode="t" horiz-adv-x="581" 
d="M507 1010v-201h-103v-499q0 -61 15 -79q16 -20 63 -20q7 0 25 1v-212q-59 -7 -119 -7q-101 0 -144 21q-54 27 -77 93q-16 49 -16 164v538h-96v201h96v232h253v-232h103z" />
    <glyph glyph-name="u" unicode="u" horiz-adv-x="894" 
d="M109 1010h253v-695q0 -129 85 -129q84 0 84 129v695h253v-654q0 -185 -86 -282q-90 -101 -251 -101q-162 0 -252 101q-86 97 -86 282v654z" />
    <glyph glyph-name="v" unicode="v" horiz-adv-x="887" 
d="M34 1010h273l137 -749l150 749h259l-278 -1010h-261z" />
    <glyph glyph-name="w" unicode="w" horiz-adv-x="1287" 
d="M41 1010h258l112 -674l107 674h252l86 -674l140 674h250l-274 -1010h-219l-115 721l-129 -721h-227z" />
    <glyph glyph-name="x" unicode="x" horiz-adv-x="881" 
d="M41 1010h278l119 -324l111 324h277l-246 -493l260 -517h-279l-123 343l-133 -343h-264l250 517z" />
    <glyph glyph-name="y" unicode="y" horiz-adv-x="867" 
d="M41 1010h274l117 -685l136 685h258l-369 -1365h-255l105 380z" />
    <glyph glyph-name="z" unicode="z" horiz-adv-x="773" 
d="M79 1010h639l-342 -805h313v-205h-648v34l335 771h-297v205z" />
    <glyph glyph-name="braceleft" unicode="{" horiz-adv-x="597" 
d="M286 546q60 -37 80 -92q15 -40 15 -110v-315q0 -67 11 -88q16 -33 55 -43q30 -7 74 -8v-189q-39 -2 -79 -2q-124 0 -166 12q-134 39 -134 232v365q0 79 -25 111q-24 30 -69 41v183q48 11 70 42q24 32 24 99v376q0 118 53 173q35 36 93 50q39 9 154 9q45 0 79 -1v-189
q-82 -2 -109 -25q-25 -22 -28 -60q-3 -25 -3 -51v-321q0 -91 -29 -139q-18 -31 -66 -60z" />
    <glyph glyph-name="bar" unicode="|" 
d="M374 1365h277v-1706h-277v1706z" />
    <glyph glyph-name="braceright" unicode="}" horiz-adv-x="597" 
d="M312 546q-61 37 -81 92q-15 40 -15 110v315q0 66 -11 88q-16 32 -55 42q-29 8 -74 9v189q34 1 79 1q124 0 166 -12q134 -39 134 -232v-364q0 -80 25 -112q24 -29 69 -40v-183q-48 -12 -70 -42q-24 -32 -24 -99v-376q0 -119 -53 -173q-35 -37 -93 -51q-39 -9 -154 -9
q-40 0 -79 2v189q82 2 109 25q25 21 28 59q3 26 3 51v322q0 91 29 139q18 30 67 60z" />
    <glyph glyph-name="asciitilde" unicode="~" horiz-adv-x="1365" 
d="M327 1143l-136 112q39 93 86 154q87 114 211 114q73 0 227 -69q128 -57 174 -57q81 0 154 132l136 -112q-46 -107 -92 -163q-87 -108 -206 -108q-45 0 -108 24q-31 12 -106 44q-141 60 -188 60q-57 0 -99 -51q-24 -29 -53 -80z" />
    <glyph glyph-name="uni00A0" unicode="&#xa0;" horiz-adv-x="512" 
 />
    <glyph glyph-name="exclamdown" unicode="&#xa1;" horiz-adv-x="576" 
d="M431 -355h-273l21 976h232zM296 1031q57 0 97 -40q40 -42 40 -99q0 -55 -40 -97q-39 -40 -97 -40t-99 40q-40 41 -40 98q0 58 40 98q42 40 99 40z" />
    <glyph glyph-name="cent" unicode="&#xa2;" horiz-adv-x="887" 
d="M507 -24v-126h-93v125q-104 14 -174 80q-72 67 -100 192q-21 97 -21 263q0 208 38 313q58 159 184 198q29 9 73 14v120h93v-119q109 -12 167 -66q70 -65 100 -214l-218 -53q-26 130 -84 130q-53 0 -74 -75q-22 -76 -22 -262q0 -189 19 -249q21 -63 73 -63q40 0 62 44
q14 29 26 97l218 -62q-35 -155 -110 -220q-58 -50 -157 -67z" />
    <glyph glyph-name="sterling" unicode="&#xa3;" horiz-adv-x="887" 
d="M798 721v-123h-238q7 -39 7 -57q0 -118 -134 -229q51 -1 83 -13q14 -6 98 -61q53 -34 96 -34q57 0 134 61v-232q-98 -60 -192 -60q-69 0 -165 69q-95 68 -140 68q-68 0 -77 -110h-226q5 132 53 204q44 66 158 116q69 81 69 164q0 60 -37 114h-193v123h133q-33 51 -51 89
q-35 71 -35 163q0 171 107 264q100 87 251 87q135 0 228 -71q92 -69 111 -215q6 -46 6 -116h-234q1 23 1 35q0 38 -9 68q-11 38 -42 62q-25 18 -56 18q-49 0 -84 -40q-25 -29 -25 -79q0 -56 33 -118q35 -65 86 -147h284z" />
    <glyph glyph-name="currency" unicode="&#xa4;" horiz-adv-x="1050" 
d="M182 872l-86 86l154 154l84 -83q92 48 187 48q103 0 195 -49l85 84l154 -154l-84 -85q49 -92 49 -190t-49 -191l84 -85l-154 -154l-85 85q-91 -50 -195 -50q-95 0 -187 49l-84 -84l-154 154l86 86q-51 99 -51 189q0 92 51 190zM524 887q-85 0 -143 -60q-60 -62 -60 -143
q0 -85 60 -147q58 -60 144 -60t146 60t60 145q0 86 -60 145q-62 60 -147 60z" />
    <glyph glyph-name="yen" unicode="&#xa5;" horiz-adv-x="887" 
d="M690 816h122v-123h-173l-62 -150h221v-123h-222v-420h-266v420h-221v123h220l-62 150h-172v123h121l-202 488h292l160 -476l165 476h282z" />
    <glyph glyph-name="brokenbar" unicode="&#xa6;" 
d="M374 1365h277v-712h-277v712zM374 314h277v-655h-277v655z" />
    <glyph glyph-name="section" unicode="&#xa7;" horiz-adv-x="895" 
d="M768 1226l-168 -127q-45 87 -112 87q-29 0 -50.5 -19t-21.5 -45q0 -51 69 -119l177 -177q97 -97 132 -175q39 -85 39 -174q0 -101 -45 -179q-56 -94 -188 -106q120 -106 120 -222q0 -118 -95 -199q-86 -72 -217 -72q-114 0 -201 71q-52 43 -85 103l177 125
q45 -95 119 -95q32 0 54 25q15 16 15 40q0 37 -24 69q-16 21 -43 49l-221 230q-138 143 -138 323q0 129 66 200q55 59 135 62h37q-113 89 -113 224q0 100 65 173q84 94 233 94q128 0 209 -76q37 -34 75 -90zM367 732q-29 0 -53 -24q-25 -25 -25 -56q0 -69 97 -178
q88 -100 147 -100q23 0 43 18q27 25 27 67q0 48 -45 109q-120 164 -191 164z" />
    <glyph glyph-name="dieresis" unicode="&#xa8;" 
d="M347 1379q52 0 88 -36t36 -87t-36 -87t-88 -36q-51 0 -86 36q-36 38 -36 88q0 49 36 86q35 36 86 36zM675 1379q52 0 88 -36t36 -87q0 -50 -36 -87q-36 -36 -88 -36q-51 0 -86 36q-36 38 -36 88q0 49 36 86q35 36 86 36z" />
    <glyph glyph-name="copyright" unicode="&#xa9;" horiz-adv-x="1529" 
d="M1006 884l-162 -40q-13 121 -60 121q-31 0 -49 -40q-26 -55 -26 -255q0 -188 26 -238q16 -32 42 -32q41 0 55 66q8 34 12 82l162 -58q-6 -45 -18 -76q-61 -161 -221 -161q-86 0 -147 54q-66 58 -87 186q-10 65 -10 176q0 200 37 297q27 69 89 109q57 37 132 37
q117 0 177 -82q38 -51 48 -146zM759 1379q293 0 498 -204q98 -98 151 -227q53 -128 53 -265q0 -197 -102 -364q-103 -168 -278 -257q-150 -76 -320 -76q-292 0 -489 204q-99 103 -154 243q-50 127 -50 257q0 174 100 346q99 173 268 264q147 79 323 79zM760 1236
q-230 0 -387 -162q-79 -82 -123 -193q-39 -101 -39 -192q0 -150 79 -287q80 -138 213 -210q116 -63 258 -63q233 0 395 162q162 163 162 392q0 155 -81 289q-80 131 -221 203q-118 61 -256 61z" />
    <glyph glyph-name="ordfeminine" unicode="&#xaa;" horiz-adv-x="567" 
d="M505 1156v-610h-166v78q-21 -42 -37 -58q-37 -36 -90 -36q-77 0 -122 80q-45 81 -45 240q0 168 47 246q46 76 116 76q76 0 131 -99v83h166zM279 1017q-57 0 -57 -168q0 -169 56 -169q61 0 61 167q0 170 -60 170z" />
    <glyph glyph-name="guillemotleft" unicode="&#xab;" horiz-adv-x="795" 
d="M385 253h-214l-103 286l103 287h214l-94 -287zM713 253h-215l-102 286l102 287h215l-94 -287z" />
    <glyph glyph-name="logicalnot" unicode="&#xac;" 
d="M687 0v348h-619v241h887v-589h-268z" />
    <glyph glyph-name="uni00AD" unicode="&#xad;" horiz-adv-x="546" 
d="M68 621h410v-232h-410v232z" />
    <glyph glyph-name="registered" unicode="&#xae;" horiz-adv-x="1529" 
d="M529 1092h215q285 0 285 -239q0 -112 -77 -175q-25 -21 -61 -33l162 -372h-205l-138 341v-341h-181v819zM710 747h21q110 0 110 101t-110 101h-21v-202zM759 1379q293 0 498 -204q98 -98 151 -227q53 -128 53 -265q0 -197 -102 -364q-103 -168 -278 -257
q-150 -76 -320 -76q-292 0 -489 204q-99 103 -154 243q-50 127 -50 257q0 174 100 346q99 173 268 264q147 79 323 79zM760 1236q-230 0 -387 -162q-79 -82 -123 -193q-39 -101 -39 -192q0 -150 79 -287q80 -138 213 -210q116 -63 258 -63q233 0 395 162q162 163 162 392
q0 155 -81 289q-80 131 -221 203q-118 61 -256 61z" />
    <glyph glyph-name="macron" unicode="&#xaf;" 
d="M233 1290h558v-143h-558v143z" />
    <glyph glyph-name="degree" unicode="&#xb0;" horiz-adv-x="888" 
d="M442 1331q133 0 227 -93q93 -93 93 -225t-93 -225t-227 -93q-133 0 -223 93q-93 97 -93 228q0 79 45 158q46 80 123 121q67 36 148 36zM442 1150q-56 0 -95 -40q-40 -42 -40 -96q0 -56 40 -98q39 -40 96 -40t97 40t40 97q0 58 -40 97q-41 40 -98 40z" />
    <glyph glyph-name="plusminus" unicode="&#xb1;" horiz-adv-x="887" 
d="M335 570h-294v218h294v280h218v-280h294v-218h-294v-280h-218v280zM41 218h806v-218h-806v218z" />
    <glyph glyph-name="twosuperior" unicode="&#xb2;" horiz-adv-x="573" 
d="M492 701v-155h-473l243 415q69 117 69 176q0 58 -48 58q-53 0 -53 -83v-36h-174v36q0 81 22 122q33 63 109 92q48 19 101 19q98 0 165 -54q65 -52 65 -155q0 -107 -96 -256l-115 -179h185z" />
    <glyph glyph-name="threesuperior" unicode="&#xb3;" horiz-adv-x="574" 
d="M71 1329h476l-193 -274q161 -10 161 -225q0 -144 -70 -222t-182 -78q-98 0 -160 58q-45 41 -56 96q-8 39 -8 94v32h172v-47q0 -90 52 -90q72 0 72 146q0 112 -62 112q-27 0 -61 -32l-82 83l144 192h-203v155z" />
    <glyph glyph-name="acute" unicode="&#xb4;" 
d="M554 1365h268l-247 -252h-156z" />
    <glyph glyph-name="mu" unicode="&#xb5;" horiz-adv-x="894" 
d="M273 13l10 -313h-174l16 507q-16 69 -16 149v654h253v-695q0 -129 85 -129q84 0 84 129v695h253v-654q0 -187 -86 -282q-92 -101 -250 -101q-96 0 -175 40z" />
    <glyph glyph-name="paragraph" unicode="&#xb6;" horiz-adv-x="1165" 
d="M647 1140v-1399h-234v884q-317 23 -317 383q0 185 91 280q53 56 127 69q48 8 115 8h586v-1624h-234v1399h-134z" />
    <glyph glyph-name="periodcentered" unicode="&#xb7;" horiz-adv-x="485" 
d="M241 643q58 0 99 -40q40 -41 40 -98t-40 -98q-41 -40 -99 -40t-97 40q-40 42 -40 100q0 54 40 96q39 40 97 40z" />
    <glyph glyph-name="cedilla" unicode="&#xb8;" 
d="M636 -109q-5 -67 -22 -104l-68 -149h-157l37 149q3 11 7 82q-1 7 -7 22h210z" />
    <glyph glyph-name="onesuperior" unicode="&#xb9;" horiz-adv-x="573" 
d="M384 1337v-791h-177v559q-34 -24 -92 -47v144q8 3 21 8q108 43 187 127h61z" />
    <glyph glyph-name="ordmasculine" unicode="&#xba;" horiz-adv-x="568" 
d="M284 1172q111 0 172 -76q67 -84 67 -250q0 -155 -67 -239q-60 -77 -172 -77t-172 77q-67 85 -67 244q0 161 67 245q61 76 172 76zM284 1035q-37 0 -50 -50q-12 -48 -12 -136q0 -185 62 -185t62 183q0 93 -12 138q-14 50 -50 50z" />
    <glyph glyph-name="guillemotright" unicode="&#xbb;" horiz-adv-x="795" 
d="M410 826h214l103 -286l-103 -287h-214l94 287zM82 826h215l102 -286l-102 -287h-215l94 287z" />
    <glyph glyph-name="onequarter" unicode="&#xbc;" horiz-adv-x="1352" 
d="M384 1337v-791h-177v559q-34 -24 -92 -47v144q8 3 21 8q108 43 187 127h61zM977 1356h150l-751 -1383h-150zM1245 783v-507h66v-147h-66v-129h-177v129h-251v146l254 508h174zM1068 276v257l-123 -257h123z" />
    <glyph glyph-name="onehalf" unicode="&#xbd;" horiz-adv-x="1352" 
d="M384 1337v-791h-177v559q-34 -24 -92 -47v144q8 3 21 8q108 43 187 127h61zM977 1356h150l-751 -1383h-150zM1270 155v-155h-473l243 415q69 117 69 175q0 59 -48 59q-53 0 -53 -83v-36h-174v36q0 81 22 122q33 63 110 92q47 19 101 19q97 0 164 -54q65 -53 65 -155
q0 -107 -96 -256l-115 -179h185z" />
    <glyph glyph-name="threequarters" unicode="&#xbe;" horiz-adv-x="1352" 
d="M71 1329h476l-193 -274q161 -10 161 -225q0 -144 -70 -222t-182 -78q-98 0 -160 58q-45 41 -56 96q-8 39 -8 94v32h172v-47q0 -90 52 -90q72 0 72 146q0 112 -62 112q-27 0 -61 -32l-82 83l144 192h-203v155zM976 1356h150l-751 -1383h-150zM1245 783v-507h66v-147h-66
v-129h-177v129h-251v146l253 508h175zM1068 276v257l-124 -257h124z" />
    <glyph glyph-name="questiondown" unicode="&#xbf;" horiz-adv-x="792" 
d="M519 69h231q1 -32 1 -45q0 -176 -86 -279q-95 -114 -269 -114q-169 0 -257 110q-71 87 -71 235q0 102 42 193q35 74 107 181q83 123 103 183q12 35 20 88h240q-7 -99 -41 -176q-31 -72 -78 -143l-72 -109q-63 -94 -63 -213q0 -135 84 -135q75 0 96 91q12 49 13 133z
M458 1031q57 0 97 -40q40 -42 40 -99q0 -55 -40 -97q-39 -40 -97 -40t-99 40q-40 41 -40 98q0 58 40 98q42 40 99 40z" />
    <glyph glyph-name="Agrave" unicode="&#xc0;" horiz-adv-x="985" 
d="M629 212h-278l-41 -212h-269l310 1372h294l299 -1372h-281zM589 430l-94 621l-109 -621h203zM451 1693l135 -253h-156l-247 253h268z" />
    <glyph glyph-name="Aacute" unicode="&#xc1;" horiz-adv-x="985" 
d="M629 212h-278l-41 -212h-269l310 1372h294l299 -1372h-281zM589 430l-94 621l-109 -621h203zM534 1693h268l-246 -253h-157z" />
    <glyph glyph-name="Acircumflex" unicode="&#xc2;" horiz-adv-x="985" 
d="M629 212h-278l-41 -212h-269l310 1372h294l299 -1372h-281zM589 430l-94 621l-109 -621h203zM369 1693h247l151 -253h-179l-95 140l-96 -140h-179z" />
    <glyph glyph-name="Atilde" unicode="&#xc3;" horiz-adv-x="985" 
d="M629 212h-278l-41 -212h-269l310 1372h294l299 -1372h-281zM589 430l-94 621l-109 -621h203zM646 1693h114q1 -15 1 -19q0 -105 -50 -169q-39 -48 -105 -48q-39 0 -73 15l-68 28q-47 20 -69 20q-19 0 -35 -18q-17 -20 -19 -57h-117q0 78 21 131q16 42 56 70q37 26 82 26
q51 0 161 -40q37 -13 52 -13q43 0 49 74z" />
    <glyph glyph-name="Adieresis" unicode="&#xc4;" horiz-adv-x="985" 
d="M629 212h-278l-41 -212h-269l310 1372h294l299 -1372h-281zM589 430l-94 621l-109 -621h203zM328 1707q52 0 88 -36t36 -87t-36 -87t-88 -36q-51 0 -86 36q-36 38 -36 88q0 48 36 86q35 36 86 36zM656 1707q52 0 88 -36t36 -87t-36 -87t-88 -36q-51 0 -86 36
q-36 37 -36 88q0 49 36 86q35 36 86 36z" />
    <glyph glyph-name="Aring" unicode="&#xc5;" horiz-adv-x="985" 
d="M629 212h-278l-41 -212h-269l310 1372h294l299 -1372h-281zM589 430l-94 621l-109 -621h203zM492 1782q76 0 129 -53t53 -128t-53 -128t-129 -53t-127 53q-53 55 -53 130q0 71 53 126q51 53 127 53zM492 1700q-41 0 -69 -29q-29 -30 -29 -69q0 -41 29 -71q28 -29 69 -29
q42 0 71 29t29 70q0 42 -29 70q-30 29 -71 29z" />
    <glyph glyph-name="AE" unicode="&#xc6;" horiz-adv-x="1308" 
d="M1205 1365v-225h-308v-324h308v-222h-308v-369h308v-225h-574v208h-264l-55 -208h-271l399 1365h765zM631 416v775l-210 -775h210z" />
    <glyph glyph-name="Ccedilla" unicode="&#xc7;" horiz-adv-x="881" 
d="M826 1033l-235 -63q-23 204 -106 204q-56 0 -88 -75q-42 -97 -42 -439q0 -320 42 -408q29 -61 77 -61q60 0 89 83q19 55 28 165l235 -90q-12 -97 -51 -176q-103 -207 -315 -207q-133 0 -228 89q-102 97 -134 309q-16 108 -16 296q0 236 23 362q34 195 136 287
q99 90 240 90q160 0 253 -110q73 -85 92 -256zM564 -55q-5 -67 -22 -104l-68 -148h-157l37 148q3 11 5 40q2 42 2 43q-1 6 -7 21h210z" />
    <glyph glyph-name="Egrave" unicode="&#xc8;" horiz-adv-x="800" 
d="M123 1365h575v-225h-309v-324h309v-222h-309v-369h309v-225h-575v1365zM359 1693l135 -253h-157l-246 253h268z" />
    <glyph glyph-name="Eacute" unicode="&#xc9;" horiz-adv-x="800" 
d="M123 1365h575v-225h-309v-324h309v-222h-309v-369h309v-225h-575v1365zM442 1693h268l-247 -253h-156z" />
    <glyph glyph-name="Ecircumflex" unicode="&#xca;" horiz-adv-x="800" 
d="M123 1365h575v-225h-309v-324h309v-222h-309v-369h309v-225h-575v1365zM283 1693h248l150 -253h-179l-95 140l-96 -140h-179z" />
    <glyph glyph-name="Edieresis" unicode="&#xcb;" horiz-adv-x="800" 
d="M123 1365h575v-225h-309v-324h309v-222h-309v-369h309v-225h-575v1365zM246 1707q52 0 88 -36t36 -87t-36 -87t-88 -36q-51 0 -86 36q-36 37 -36 88q0 49 36 86q35 36 86 36zM573 1707q52 0 88 -36t36 -87t-36 -87t-88 -36q-51 0 -86 36q-36 37 -36 88q0 49 36 86
q35 36 86 36z" />
    <glyph glyph-name="Igrave" unicode="&#xcc;" horiz-adv-x="512" 
d="M388 1365v-1365h-266v1365h266zM214 1693l135 -253h-157l-246 253h268z" />
    <glyph glyph-name="Iacute" unicode="&#xcd;" horiz-adv-x="512" 
d="M389 1365v-1365h-266v1365h266zM298 1693h268l-247 -253h-156z" />
    <glyph glyph-name="Icircumflex" unicode="&#xce;" horiz-adv-x="512" 
d="M388 1365v-1365h-266v1365h266zM132 1693h247l151 -253h-179l-95 140l-96 -140h-179z" />
    <glyph glyph-name="Idieresis" unicode="&#xcf;" horiz-adv-x="512" 
d="M389 1365v-1365h-266v1365h266zM119 1707q52 0 88 -36t36 -87t-36 -87t-88 -36q-51 0 -86 36q-36 37 -36 88q0 49 36 86q35 36 86 36zM392 1707q52 0 88 -36t36 -87t-36 -87t-88 -36q-51 0 -86 36q-36 37 -36 88q0 49 36 86q35 36 86 36z" />
    <glyph glyph-name="Eth" unicode="&#xd0;" horiz-adv-x="988" 
d="M123 595h-109v192h109v578h303q170 0 265 -59q215 -133 215 -603q0 -385 -133 -561q-108 -142 -318 -142h-332v595zM389 595v-384h27q96 0 150 66q42 51 57 175q10 77 10 230q0 215 -25 309q-42 162 -192 162h-27v-366h130v-192h-130z" />
    <glyph glyph-name="Ntilde" unicode="&#xd1;" horiz-adv-x="1009" 
d="M123 1365h278l239 -832v832h246v-1365h-274l-243 779v-779h-246v1365zM658 1693h114q0 -98 -28 -153q-42 -83 -127 -83q-38 0 -73 15l-68 28q-47 20 -68 20q-22 0 -37 -20.5t-18 -54.5h-116q-1 78 20 131q17 42 57 70q37 26 81 26q52 0 162 -40q37 -13 52 -13q43 0 49 74
z" />
    <glyph glyph-name="Ograve" unicode="&#xd2;" horiz-adv-x="984" 
d="M492 1399q186 0 281 -127q86 -117 109 -271q21 -146 21 -332q0 -276 -49 -419q-97 -284 -359 -284q-190 0 -283 127q-86 119 -109 271q-21 143 -21 319q0 290 48 433q97 283 362 283zM492 1168q-77 0 -108 -99q-29 -95 -29 -386q0 -315 37 -407q31 -76 102 -76
q76 0 107 99q29 95 29 379q0 322 -37 414q-31 76 -101 76zM451 1693l135 -253h-157l-246 253h268z" />
    <glyph glyph-name="Oacute" unicode="&#xd3;" horiz-adv-x="984" 
d="M492 1399q186 0 281 -127q86 -117 109 -271q21 -146 21 -332q0 -276 -49 -419q-97 -284 -359 -284q-190 0 -283 127q-86 119 -109 271q-21 143 -21 319q0 290 48 433q97 283 362 283zM492 1168q-77 0 -108 -99q-29 -95 -29 -386q0 -315 37 -407q31 -76 102 -76
q76 0 107 99q29 95 29 379q0 322 -37 414q-31 76 -101 76zM534 1693h268l-247 -253h-156z" />
    <glyph glyph-name="Ocircumflex" unicode="&#xd4;" horiz-adv-x="984" 
d="M492 1399q186 0 281 -127q86 -117 109 -271q21 -146 21 -332q0 -276 -49 -419q-97 -284 -359 -284q-190 0 -283 127q-86 119 -109 271q-21 143 -21 319q0 290 48 433q97 283 362 283zM492 1168q-77 0 -108 -99q-29 -95 -29 -386q0 -315 37 -407q31 -76 102 -76
q76 0 107 99q29 95 29 379q0 322 -37 414q-31 76 -101 76zM369 1693h247l151 -253h-179l-96 140l-95 -140h-179z" />
    <glyph glyph-name="Otilde" unicode="&#xd5;" horiz-adv-x="984" 
d="M492 1399q186 0 281 -127q86 -117 109 -271q21 -146 21 -332q0 -276 -49 -419q-97 -284 -359 -284q-190 0 -283 127q-86 119 -109 271q-21 143 -21 319q0 290 48 433q97 283 362 283zM492 1168q-77 0 -108 -99q-29 -95 -29 -386q0 -315 37 -407q31 -76 102 -76
q76 0 107 99q29 95 29 379q0 322 -37 414q-31 76 -101 76zM645 1693h115v-19q0 -106 -50 -169q-39 -48 -105 -48q-39 0 -73 15l-68 28q-47 20 -68 20q-23 0 -38 -20.5t-17 -54.5h-116q-1 78 20 131q17 42 56 70q37 26 82 26q51 0 162 -40q37 -13 52 -13q42 0 48 74z" />
    <glyph glyph-name="Odieresis" unicode="&#xd6;" horiz-adv-x="984" 
d="M492 1399q186 0 281 -127q86 -117 109 -271q21 -146 21 -332q0 -276 -49 -419q-97 -284 -359 -284q-190 0 -283 127q-86 119 -109 271q-21 143 -21 319q0 290 48 433q97 283 362 283zM492 1168q-77 0 -108 -99q-29 -95 -29 -386q0 -315 37 -407q31 -76 102 -76
q76 0 107 99q29 95 29 379q0 322 -37 414q-31 76 -101 76zM328 1707q52 0 88 -36t36 -87t-36 -87t-88 -36q-51 0 -86 36q-36 37 -36 88q0 49 36 86q35 36 86 36zM655 1707q52 0 88 -36t36 -87t-36 -87t-88 -36q-51 0 -86 36q-36 37 -36 88q0 49 36 86q35 36 86 36z" />
    <glyph glyph-name="multiply" unicode="&#xd7;" horiz-adv-x="887" 
d="M443 497l-227 -227l-154 155l227 227l-227 226l154 155l227 -227l227 227l155 -155l-227 -226l227 -227l-155 -155z" />
    <glyph glyph-name="Oslash" unicode="&#xd8;" horiz-adv-x="984" 
d="M815 1206q33 -63 51 -128q37 -136 37 -396q0 -289 -49 -432q-97 -284 -361 -284q-163 0 -261 103l-64 -125l-86 44l88 171q-33 63 -51 128q-37 136 -37 396q0 289 49 432q97 284 361 284q163 0 260 -103l64 126l86 -44zM374 345q24 -145 120 -145q76 0 107 99
q29 95 29 387q0 75 -3 153zM611 1021q-25 147 -120 147q-76 0 -107 -99q-29 -95 -29 -396q0 -82 3 -147z" />
    <glyph glyph-name="Ugrave" unicode="&#xd9;" horiz-adv-x="984" 
d="M602 1365h266v-985q0 -148 -40 -225q-97 -189 -333 -189q-184 0 -288 114q-55 61 -73 131q-18 72 -18 169v985h266v-985q0 -91 17 -122q30 -56 93 -56t93 56q17 31 17 122v985zM451 1693l135 -253h-157l-246 253h268z" />
    <glyph glyph-name="Uacute" unicode="&#xda;" horiz-adv-x="984" 
d="M602 1365h266v-985q0 -148 -40 -225q-97 -189 -333 -189q-184 0 -288 114q-55 61 -73 131q-18 72 -18 169v985h266v-985q0 -91 17 -122q30 -56 93 -56t93 56q17 31 17 122v985zM534 1693h268l-247 -253h-156z" />
    <glyph glyph-name="Ucircumflex" unicode="&#xdb;" horiz-adv-x="984" 
d="M602 1365h266v-985q0 -148 -40 -225q-97 -189 -333 -189q-184 0 -288 114q-55 61 -73 131q-18 72 -18 169v985h266v-985q0 -91 17 -122q30 -56 93 -56t93 56q17 31 17 122v985zM369 1693h247l151 -253h-179l-96 140l-95 -140h-179z" />
    <glyph glyph-name="Udieresis" unicode="&#xdc;" horiz-adv-x="984" 
d="M602 1365h266v-985q0 -148 -40 -225q-97 -189 -333 -189q-184 0 -288 114q-55 61 -73 131q-18 72 -18 169v985h266v-985q0 -91 17 -122q30 -56 93 -56t93 56q17 31 17 122v985zM327 1707q52 0 88 -36t36 -87t-36 -87t-88 -36q-51 0 -86 36q-36 37 -36 88q0 49 36 86
q35 36 86 36zM655 1707q52 0 88 -36t36 -87t-36 -87t-88 -36q-51 0 -86 36q-36 37 -36 88q0 49 36 86q35 36 86 36z" />
    <glyph glyph-name="Yacute" unicode="&#xdd;" horiz-adv-x="995" 
d="M48 1365h292l160 -537l165 537h281l-316 -824v-541h-266v541zM539 1693h268l-246 -253h-157z" />
    <glyph glyph-name="Thorn" unicode="&#xde;" horiz-adv-x="898" 
d="M389 1143h28q228 0 331 -131q88 -113 88 -330q0 -239 -121 -359q-102 -101 -298 -101h-28v-222h-266v1365h266v-222zM389 437q76 0 112 31q62 56 62 213q0 165 -69 218q-34 26 -105 26v-488z" />
    <glyph glyph-name="germandbls" unicode="&#xdf;" horiz-adv-x="902" 
d="M109 0v1019q0 160 71 249q82 104 255 104q161 0 252 -87q93 -87 93 -236q0 -124 -63 -194q-21 -23 -58 -51q85 -41 120 -125q34 -84 34 -227q0 -248 -101 -370q-61 -74 -153 -94q-27 -5 -70 -8l-52 236q37 0 57 10q35 18 50 78q10 42 10 136q0 149 -40 203q-22 30 -66 30
q-10 0 -23 -1v198q48 0 72 18q41 30 41 128q0 151 -97 151q-79 0 -79 -107v-1060h-253z" />
    <glyph glyph-name="agrave" unicode="&#xe0;" horiz-adv-x="900" 
d="M790 1010v-1010h-242v184q-38 -115 -94 -168q-45 -43 -115 -43q-120 0 -188 131q-36 71 -55 205q-14 99 -14 195q0 131 22 254q30 169 116 238q52 42 111 42q135 0 217 -212v184h242zM442 799q-101 0 -101 -297t102 -297q106 0 106 295q0 175 -31 240q-27 59 -76 59z
M408 1365l135 -252h-156l-247 252h268z" />
    <glyph glyph-name="aacute" unicode="&#xe1;" horiz-adv-x="900" 
d="M790 1010v-1010h-242v184q-38 -115 -94 -168q-45 -43 -115 -43q-120 0 -188 131q-36 71 -55 205q-14 99 -14 195q0 131 22 254q30 169 116 238q52 42 111 42q135 0 217 -212v184h242zM442 799q-101 0 -101 -297t102 -297q106 0 106 295q0 175 -31 240q-27 59 -76 59z
M491 1365h268l-246 -252h-156z" />
    <glyph glyph-name="acircumflex" unicode="&#xe2;" horiz-adv-x="900" 
d="M790 1010v-1010h-242v184q-38 -115 -94 -168q-45 -43 -115 -43q-120 0 -188 131q-36 71 -55 205q-14 99 -14 195q0 131 22 254q30 169 116 238q52 42 111 42q135 0 217 -212v184h242zM442 799q-101 0 -101 -297t102 -297q106 0 106 295q0 175 -31 240q-27 59 -76 59z
M326 1365h248l150 -252h-179l-95 139l-96 -139h-179z" />
    <glyph glyph-name="atilde" unicode="&#xe3;" horiz-adv-x="900" 
d="M790 1010v-1010h-242v184q-38 -115 -94 -168q-45 -43 -115 -43q-120 0 -188 131q-36 71 -55 205q-14 99 -14 195q0 131 22 254q30 169 116 238q52 42 111 42q135 0 217 -212v184h242zM442 799q-101 0 -101 -297t102 -297q106 0 106 295q0 175 -31 240q-27 59 -76 59z
M603 1365h114q1 -14 1 -19q0 -105 -50 -169q-39 -48 -105 -48q-39 0 -73 14l-68 29q-47 20 -69 20q-19 0 -35 -18q-17 -20 -19 -57h-117q0 78 21 131q17 42 56 70q37 26 82 26q51 0 162 -40q36 -13 52 -13q42 0 48 74z" />
    <glyph glyph-name="adieresis" unicode="&#xe4;" horiz-adv-x="900" 
d="M790 1010v-1010h-242v184q-38 -115 -94 -168q-45 -43 -115 -43q-120 0 -188 131q-36 71 -55 205q-14 99 -14 195q0 131 22 254q30 169 116 238q52 42 111 42q135 0 217 -212v184h242zM442 799q-101 0 -101 -297t102 -297q106 0 106 295q0 175 -31 240q-27 59 -76 59z
M285 1379q52 0 88 -36t36 -87t-36 -87t-88 -36q-51 0 -86 36q-36 38 -36 88q0 49 36 86q35 36 86 36zM613 1379q52 0 88 -36t36 -87q0 -50 -36 -87q-36 -36 -88 -36q-51 0 -86 36q-36 38 -36 88q0 49 36 86q35 36 86 36z" />
    <glyph glyph-name="aring" unicode="&#xe5;" horiz-adv-x="900" 
d="M790 1010v-1010h-242v184q-38 -115 -94 -168q-45 -43 -115 -43q-120 0 -188 131q-36 71 -55 205q-14 99 -14 195q0 131 22 254q30 169 116 238q52 42 111 42q135 0 217 -212v184h242zM442 799q-101 0 -101 -297t102 -297q106 0 106 295q0 175 -31 240q-27 59 -76 59z
M448 1454q77 0 130 -53t53 -128t-53 -128t-129 -53t-127 53q-53 55 -53 130q0 71 53 126q51 53 126 53zM449 1372q-41 0 -69 -29q-29 -30 -29 -69q0 -41 29 -71q28 -29 69 -29q42 0 71 29t29 70q0 42 -29 70q-30 29 -71 29z" />
    <glyph glyph-name="ae" unicode="&#xe6;" horiz-adv-x="1295" 
d="M548 1010h198v-142q31 67 64 104q57 65 144 65q70 0 130 -46q78 -59 109 -199q20 -90 20 -260q0 -18 -1 -80h-448q1 -67 1 -102q1 -181 100 -181q51 0 76 42q20 33 34 107l220 -55q-29 -111 -57 -164q-33 -61 -94 -96q-52 -30 -114 -30q-120 0 -184 124v-97h-198v184
q-38 -115 -94 -168q-44 -43 -115 -43q-120 0 -188 131q-36 72 -55 205q-14 99 -14 196q0 130 22 253q30 169 116 238q52 42 111 42q135 0 217 -212v184zM548 465v74q-5 99 -15 154q-20 106 -91 106q-101 0 -101 -297t102 -297q70 0 90 106q10 55 15 154zM975 601
q-3 146 -34 195q-27 43 -72 43q-51 0 -78 -56q-25 -49 -27 -182h211z" />
    <glyph glyph-name="ccedilla" unicode="&#xe7;" horiz-adv-x="792" 
d="M737 756l-218 -53q-26 129 -84 129q-53 0 -74 -75q-22 -76 -22 -261q0 -189 19 -248q20 -63 73 -63q41 0 62 43q14 29 26 97l218 -62q-28 -121 -76 -183q-43 -56 -116 -84q-61 -23 -128 -23q-104 0 -185 58q-97 70 -129 216q-21 97 -21 262q0 184 27 281q40 140 131 200
q71 47 187 47q184 0 258 -129q33 -55 52 -152zM519 -109q-4 -67 -21 -104l-69 -149h-157l38 149q2 10 6 82q-1 7 -6 22h209z" />
    <glyph glyph-name="egrave" unicode="&#xe8;" horiz-adv-x="893" 
d="M811 451h-482q-1 -280 115 -280q71 0 102 84q10 30 19 70l226 -54q-68 -298 -349 -298q-131 0 -218 69q-142 112 -142 454q0 245 80 382q94 159 288 159q159 0 253 -103q109 -119 109 -426q0 -16 -1 -57zM568 619q-2 90 -19 143q-24 77 -100 77q-77 0 -101 -77
q-16 -53 -19 -143h239zM405 1365l135 -252h-156l-247 252h268z" />
    <glyph glyph-name="eacute" unicode="&#xe9;" horiz-adv-x="893" 
d="M811 451h-482q-1 -280 115 -280q71 0 102 84q10 30 19 70l226 -54q-68 -298 -349 -298q-131 0 -218 69q-142 112 -142 454q0 245 80 382q94 159 288 159q159 0 253 -103q109 -119 109 -426q0 -16 -1 -57zM568 619q-2 90 -19 143q-24 77 -100 77q-77 0 -101 -77
q-16 -53 -19 -143h239zM488 1365h268l-246 -252h-156z" />
    <glyph glyph-name="ecircumflex" unicode="&#xea;" horiz-adv-x="893" 
d="M811 451h-482q-1 -280 115 -280q71 0 102 84q10 30 19 70l226 -54q-68 -298 -349 -298q-131 0 -218 69q-142 112 -142 454q0 245 80 382q94 159 288 159q159 0 253 -103q109 -119 109 -426q0 -16 -1 -57zM568 619q-2 90 -19 143q-24 77 -100 77q-77 0 -101 -77
q-16 -53 -19 -143h239zM323 1365h248l150 -252h-179l-95 139l-96 -139h-179z" />
    <glyph glyph-name="edieresis" unicode="&#xeb;" horiz-adv-x="893" 
d="M811 451h-482q-1 -280 115 -280q71 0 102 84q10 30 19 70l226 -54q-68 -298 -349 -298q-131 0 -218 69q-142 112 -142 454q0 245 80 382q94 159 288 159q159 0 253 -103q109 -119 109 -426q0 -16 -1 -57zM568 619q-2 90 -19 143q-24 77 -100 77q-77 0 -101 -77
q-16 -53 -19 -143h239zM282 1379q52 0 88 -36t36 -87q0 -50 -36 -87q-36 -36 -88 -36q-51 0 -86 36q-36 38 -36 88q0 49 36 86q35 36 86 36zM610 1379q52 0 88 -36t36 -87q0 -50 -36 -87q-36 -36 -87 -36q-52 0 -87 36q-36 38 -36 88q0 49 36 86q35 36 86 36z" />
    <glyph glyph-name="igrave" unicode="&#xec;" horiz-adv-x="498" 
d="M123 1010h253v-1010h-253v1010zM208 1365l135 -252h-157l-246 252h268z" />
    <glyph glyph-name="iacute" unicode="&#xed;" horiz-adv-x="498" 
d="M123 1010h253v-1010h-253v1010zM291 1365h268l-246 -252h-157z" />
    <glyph glyph-name="icircumflex" unicode="&#xee;" horiz-adv-x="498" 
d="M123 1010h253v-1010h-253v1010zM126 1365h247l151 -252h-179l-95 139l-96 -139h-179z" />
    <glyph glyph-name="idieresis" unicode="&#xef;" horiz-adv-x="498" 
d="M123 1010h253v-1010h-253v1010zM112 1379q52 0 88 -36t36 -87t-36 -87t-88 -36q-51 0 -86 36q-36 38 -36 88q0 49 36 86q35 36 86 36zM385 1379q52 0 88 -36t36 -87q0 -50 -36 -87q-36 -36 -88 -36q-51 0 -86 36q-36 38 -36 88q0 49 36 86q35 36 86 36z" />
    <glyph glyph-name="eth" unicode="&#xf0;" horiz-adv-x="901" 
d="M419 1304l127 61l89 -154l-120 -57l124 -193q86 -133 126 -235q55 -137 55 -294q0 -228 -104 -350q-93 -109 -265 -109q-171 0 -265 109q-104 120 -104 355q0 227 104 354q55 68 144 92q32 8 60 8h22l-111 161l-136 -65l-89 154l123 59l-113 165h294zM451 692
q-66 0 -90 -74q-20 -63 -20 -183t20 -183q24 -74 90 -74t90 74q20 64 20 180q0 126 -20 186q-25 74 -90 74z" />
    <glyph glyph-name="ntilde" unicode="&#xf1;" horiz-adv-x="891" 
d="M351 1010v-145q46 73 79 105q69 67 160 67q100 0 152 -76q40 -59 40 -167v-794h-253v669q0 75 -16 101q-21 35 -67 35q-42 0 -64 -32q-20 -30 -20 -104v-669h-253v1010h242zM598 1365h115v-19q0 -106 -50 -169q-39 -48 -105 -48q-39 0 -73 14l-68 29q-46 20 -68 20
q-23 0 -38 -20.5t-17 -54.5h-116q-1 78 20 131q17 42 56 70q37 26 82 26q52 0 162 -40q36 -13 52 -13q42 0 48 74z" />
    <glyph glyph-name="ograve" unicode="&#xf2;" horiz-adv-x="901" 
d="M451 1037q103 0 186 -52q183 -116 183 -487q0 -258 -104 -400q-53 -72 -144 -105q-57 -20 -121 -20q-103 0 -186 52q-183 115 -183 480q0 267 104 407q93 125 265 125zM449 829q-49 0 -76 -60q-32 -69 -32 -266q0 -148 20 -232q23 -93 92 -93q49 0 76 60q32 69 32 262
q0 156 -20 236q-24 93 -92 93zM409 1365l135 -252h-156l-247 252h268z" />
    <glyph glyph-name="oacute" unicode="&#xf3;" horiz-adv-x="901" 
d="M451 1037q103 0 186 -52q183 -116 183 -487q0 -258 -104 -400q-53 -72 -144 -105q-57 -20 -121 -20q-103 0 -186 52q-183 115 -183 480q0 267 104 407q93 125 265 125zM449 829q-49 0 -76 -60q-32 -69 -32 -266q0 -148 20 -232q23 -93 92 -93q49 0 76 60q32 69 32 262
q0 156 -20 236q-24 93 -92 93zM492 1365h268l-246 -252h-156z" />
    <glyph glyph-name="ocircumflex" unicode="&#xf4;" horiz-adv-x="901" 
d="M451 1037q103 0 186 -52q183 -116 183 -487q0 -258 -104 -400q-53 -72 -144 -105q-57 -20 -121 -20q-103 0 -186 52q-183 115 -183 480q0 267 104 407q93 125 265 125zM449 829q-49 0 -76 -60q-32 -69 -32 -266q0 -148 20 -232q23 -93 92 -93q49 0 76 60q32 69 32 262
q0 156 -20 236q-24 93 -92 93zM327 1365h247l151 -252h-179l-95 139l-96 -139h-179z" />
    <glyph glyph-name="otilde" unicode="&#xf5;" horiz-adv-x="901" 
d="M451 1037q103 0 186 -52q183 -116 183 -487q0 -258 -104 -400q-53 -72 -144 -105q-57 -20 -121 -20q-103 0 -186 52q-183 115 -183 480q0 267 104 407q93 125 265 125zM449 829q-49 0 -76 -60q-32 -69 -32 -266q0 -148 20 -232q23 -93 92 -93q49 0 76 60q32 69 32 262
q0 156 -20 236q-24 93 -92 93zM604 1365h114q1 -15 1 -19q0 -105 -50 -169q-39 -48 -105 -48q-39 0 -73 14l-68 29q-47 20 -69 20q-19 0 -35 -18q-17 -20 -19 -57h-117q0 78 21 131q17 42 56 70q37 26 82 26q51 0 161 -40q37 -13 52 -13q43 0 49 74z" />
    <glyph glyph-name="odieresis" unicode="&#xf6;" horiz-adv-x="901" 
d="M451 1037q103 0 186 -52q183 -116 183 -487q0 -258 -104 -400q-53 -72 -144 -105q-57 -20 -121 -20q-103 0 -186 52q-183 115 -183 480q0 267 104 407q93 125 265 125zM449 829q-49 0 -76 -60q-32 -69 -32 -266q0 -148 20 -232q23 -93 92 -93q49 0 76 60q32 69 32 262
q0 156 -20 236q-24 93 -92 93zM286 1379q52 0 88 -36t36 -87q0 -50 -36 -87q-36 -36 -88 -36q-51 0 -86 36q-36 38 -36 88q0 49 36 86q35 36 86 36zM614 1379q52 0 88 -36t36 -87q0 -50 -36 -87q-36 -36 -88 -36q-51 0 -86 36q-36 38 -36 88q0 49 36 86q35 36 86 36z" />
    <glyph glyph-name="divide" unicode="&#xf7;" horiz-adv-x="887" 
d="M41 761h806v-218h-806v218zM443 1131q58 0 99 -41q40 -40 40 -97t-40 -98q-41 -40 -98 -40q-59 0 -98 40q-40 42 -40 100q0 54 40 95t97 41zM443 449q58 0 99 -40q40 -41 40 -98t-40 -98q-41 -40 -98 -40q-59 0 -98 40q-40 42 -40 100q0 54 40 96q40 40 97 40z" />
    <glyph glyph-name="oslash" unicode="&#xf8;" horiz-adv-x="902" 
d="M214 66l-82 -125l-76 51l101 152q-75 145 -75 362q0 264 104 406q53 72 144 105q57 20 120 20q142 0 238 -92l82 124l76 -51l-101 -152q75 -145 75 -362q0 -264 -104 -406q-53 -72 -144 -105q-56 -20 -120 -20q-141 0 -238 93zM359 284q22 -106 94 -106q49 0 76 60
q32 69 32 267q0 37 -2 80zM543 725q-23 104 -94 104q-49 0 -76 -60q-32 -69 -32 -265q0 -37 2 -79z" />
    <glyph glyph-name="ugrave" unicode="&#xf9;" horiz-adv-x="894" 
d="M109 1010h253v-695q0 -129 85 -129q84 0 84 129v695h253v-654q0 -185 -86 -282q-90 -101 -251 -101q-162 0 -252 101q-86 97 -86 282v654zM405 1365l135 -252h-156l-247 252h268z" />
    <glyph glyph-name="uacute" unicode="&#xfa;" horiz-adv-x="894" 
d="M109 1010h253v-695q0 -129 85 -129q84 0 84 129v695h253v-654q0 -185 -86 -282q-90 -101 -251 -101q-162 0 -252 101q-86 97 -86 282v654zM488 1365h268l-246 -252h-157z" />
    <glyph glyph-name="ucircumflex" unicode="&#xfb;" horiz-adv-x="894" 
d="M109 1010h253v-695q0 -129 85 -129q84 0 84 129v695h253v-654q0 -185 -86 -282q-90 -101 -251 -101q-162 0 -252 101q-86 97 -86 282v654zM323 1365h247l151 -252h-179l-95 139l-96 -139h-179z" />
    <glyph glyph-name="udieresis" unicode="&#xfc;" horiz-adv-x="894" 
d="M109 1010h253v-695q0 -129 85 -129q84 0 84 129v695h253v-654q0 -185 -86 -282q-90 -101 -251 -101q-162 0 -252 101q-86 97 -86 282v654zM282 1379q52 0 88 -36t36 -87q0 -50 -36 -87q-36 -36 -88 -36q-51 0 -86 36q-36 38 -36 88q0 49 36 86q35 36 86 36zM610 1379
q52 0 88 -36t36 -87q0 -50 -36 -87q-36 -36 -88 -36q-51 0 -86 36q-36 38 -36 88q0 49 36 86q35 36 86 36z" />
    <glyph glyph-name="yacute" unicode="&#xfd;" horiz-adv-x="867" 
d="M41 1010h274l117 -685l136 685h258l-369 -1365h-255l105 380zM475 1365h268l-246 -252h-157z" />
    <glyph glyph-name="thorn" unicode="&#xfe;" horiz-adv-x="913" 
d="M164 -355v1720h242v-539q47 120 95 168q42 43 113 43q122 0 190 -131q36 -72 55 -205q14 -98 14 -196q0 -130 -22 -253q-30 -169 -115 -238q-53 -42 -113 -42q-72 0 -121 54q-44 50 -85 145v-526h-253zM512 805q-107 0 -107 -295q0 -299 108 -299q101 0 101 297t-102 297
z" />
    <glyph glyph-name="ydieresis" unicode="&#xff;" horiz-adv-x="867" 
d="M41 1010h274l117 -685l136 685h258l-369 -1365h-255l105 380zM269 1379q52 0 88 -36t36 -87q0 -50 -36 -87q-36 -36 -88 -36q-51 0 -86 36q-36 38 -36 88q0 49 36 86q35 36 86 36zM597 1379q52 0 88 -36t36 -87q0 -50 -36 -87q-36 -36 -87 -36q-52 0 -87 36
q-36 38 -36 88q0 49 36 86q35 36 86 36z" />
    <glyph glyph-name="Amacron" unicode="&#x100;" horiz-adv-x="985" 
d="M629 212h-278l-41 -212h-269l310 1372h294l299 -1372h-281zM589 430l-94 621l-109 -621h203zM214 1618h558v-143h-558v143z" />
    <glyph glyph-name="amacron" unicode="&#x101;" horiz-adv-x="900" 
d="M790 1010v-1010h-242v184q-38 -115 -94 -168q-45 -43 -115 -43q-120 0 -188 131q-36 71 -55 205q-14 99 -14 195q0 131 22 254q30 169 116 238q52 42 111 42q135 0 217 -212v184h242zM442 799q-101 0 -101 -297t102 -297q106 0 106 295q0 175 -31 240q-27 59 -76 59z
M171 1290h558v-143h-558v143z" />
    <glyph glyph-name="Abreve" unicode="&#x102;" horiz-adv-x="985" 
d="M629 212h-278l-41 -212h-269l310 1372h294l299 -1372h-281zM589 430l-94 621l-109 -621h203zM633 1720h138q1 -74 -30 -133q-73 -140 -248 -140q-176 0 -249 140q-31 59 -30 133h139q30 -117 140 -117t140 117z" />
    <glyph glyph-name="abreve" unicode="&#x103;" horiz-adv-x="900" 
d="M790 1010v-1010h-242v184q-38 -115 -94 -168q-45 -43 -115 -43q-120 0 -188 131q-36 71 -55 205q-14 99 -14 195q0 131 22 254q30 169 116 238q52 42 111 42q135 0 217 -212v184h242zM442 799q-101 0 -101 -297t102 -297q106 0 106 295q0 175 -31 240q-27 59 -76 59z
M590 1393h138q1 -75 -29 -133q-73 -141 -249 -141t-249 141q-30 58 -30 133h139q29 -118 140 -118t140 118z" />
    <glyph glyph-name="Aogonek" unicode="&#x104;" horiz-adv-x="985" 
d="M944 0q-100 -81 -100 -145q0 -69 79 -69q26 0 59 11l14 -122q-53 -18 -105 -18q-82 0 -129 39q-55 45 -55 117q0 105 105 187h-149l-34 212h-278l-41 -212h-269l310 1372h294zM589 430l-94 621l-109 -621h203z" />
    <glyph glyph-name="aogonek" unicode="&#x105;" horiz-adv-x="900" 
d="M790 0q-100 -81 -100 -145q0 -69 79 -69q26 0 58 11l14 -122q-52 -18 -105 -18q-81 0 -128 39q-55 45 -55 117q0 105 105 187h-110v184q-38 -115 -94 -168q-45 -43 -115 -43q-120 0 -188 131q-36 71 -55 205q-14 99 -14 195q0 131 22 254q30 169 116 238q52 42 111 42
q135 0 217 -212v184h242v-1010zM442 799q-101 0 -101 -297t102 -297q106 0 106 295q0 175 -31 240q-27 59 -76 59z" />
    <glyph glyph-name="Cacute" unicode="&#x106;" horiz-adv-x="881" 
d="M826 1033l-235 -63q-23 204 -106 204q-56 0 -88 -75q-42 -97 -42 -439q0 -320 42 -408q29 -61 77 -61q60 0 89 83q19 55 28 165l235 -90q-12 -97 -51 -176q-103 -207 -315 -207q-133 0 -228 89q-102 97 -134 309q-16 108 -16 296q0 236 23 362q34 195 136 287
q99 90 240 90q160 0 253 -110q73 -85 92 -256zM509 1693h268l-246 -253h-157z" />
    <glyph glyph-name="cacute" unicode="&#x107;" horiz-adv-x="792" 
d="M737 756l-218 -53q-26 129 -84 129q-53 0 -74 -75q-22 -76 -22 -261q0 -189 19 -248q20 -63 73 -63q41 0 62 43q14 29 26 97l218 -62q-28 -121 -76 -183q-43 -56 -116 -84q-61 -23 -128 -23q-104 0 -185 58q-97 70 -129 216q-21 97 -21 262q0 184 27 281q40 140 131 200
q71 47 187 47q184 0 258 -129q33 -55 52 -152zM465 1365h268l-247 -252h-156z" />
    <glyph glyph-name="cdotaccent" unicode="&#x10b;" horiz-adv-x="792" 
d="M737 756l-218 -53q-26 129 -84 129q-53 0 -74 -75q-22 -76 -22 -261q0 -189 19 -248q20 -63 73 -63q41 0 62 43q14 29 26 97l218 -62q-28 -121 -76 -183q-43 -56 -116 -84q-61 -23 -128 -23q-104 0 -185 58q-97 70 -129 216q-21 97 -21 262q0 184 27 281q40 140 131 200
q71 47 187 47q184 0 258 -129q33 -55 52 -152zM429 1379q52 0 88 -36t36 -87q0 -50 -36 -87q-36 -36 -88 -36q-51 0 -86 36q-36 38 -36 88q0 49 36 86q35 36 86 36z" />
    <glyph glyph-name="Ccaron" unicode="&#x10c;" horiz-adv-x="881" 
d="M826 1033l-235 -63q-23 204 -106 204q-56 0 -88 -75q-42 -97 -42 -439q0 -320 42 -408q29 -61 77 -61q60 0 89 83q19 55 28 165l235 -90q-12 -97 -51 -176q-103 -207 -315 -207q-133 0 -228 89q-102 97 -134 309q-16 108 -16 296q0 236 23 362q34 195 136 287
q99 90 240 90q160 0 253 -110q73 -85 92 -256zM598 1440h-247l-151 253h179l96 -140l95 140h179z" />
    <glyph glyph-name="ccaron" unicode="&#x10d;" horiz-adv-x="792" 
d="M737 756l-218 -53q-26 129 -84 129q-53 0 -74 -75q-22 -76 -22 -261q0 -189 19 -248q20 -63 73 -63q41 0 62 43q14 29 26 97l218 -62q-28 -121 -76 -183q-43 -56 -116 -84q-61 -23 -128 -23q-104 0 -185 58q-97 70 -129 216q-21 97 -21 262q0 184 27 281q40 140 131 200
q71 47 187 47q184 0 258 -129q33 -55 52 -152zM547 1113h-247l-151 252h179l95 -139l96 139h179z" />
    <glyph glyph-name="Dcaron" unicode="&#x10e;" horiz-adv-x="988" 
d="M123 1365h303q170 0 265 -59q215 -133 215 -602q0 -386 -133 -562q-108 -142 -318 -142h-332v1365zM389 212h27q96 0 150 66q42 51 57 175q10 77 10 230q0 214 -25 308q-42 162 -192 162h-27v-941zM590 1440h-247l-151 253h179l96 -140l95 140h179z" />
    <glyph glyph-name="dcaron" unicode="&#x10f;" horiz-adv-x="1161" 
d="M790 1365v-1365h-242v184q-42 -117 -94 -168q-42 -43 -114 -43q-121 0 -189 131q-36 71 -55 205q-14 99 -14 195q0 131 22 254q30 170 115 238q53 42 113 42q72 0 121 -54q43 -49 85 -145v526h252zM442 799q-101 0 -101 -297t102 -297q106 0 106 295q0 175 -31 240
q-27 59 -76 59zM922 1365h239l-139 -386h-207z" />
    <glyph glyph-name="Dcroat" unicode="&#x110;" horiz-adv-x="988" 
d="M123 595h-109v192h109v578h303q170 0 265 -59q215 -133 215 -603q0 -385 -133 -561q-108 -142 -318 -142h-332v595zM389 595v-384h27q96 0 150 66q42 51 57 175q10 77 10 230q0 215 -25 309q-42 162 -192 162h-27v-366h130v-192h-130z" />
    <glyph glyph-name="dcroat" unicode="&#x111;" horiz-adv-x="913" 
d="M790 1259h64v-194h-64v-1065h-242v184q-46 -119 -94 -168q-42 -43 -114 -43q-121 0 -189 131q-36 71 -55 205q-14 98 -14 191q0 265 73 384q69 112 179 112q95 0 163 -91q16 -22 40 -66v226h-150v194h150v106h253v-106zM442 757q-101 0 -101 -259q0 -293 101 -293
q107 0 107 290q0 154 -32 212q-27 50 -75 50z" />
    <glyph glyph-name="Emacron" unicode="&#x112;" horiz-adv-x="800" 
d="M123 1365h575v-225h-309v-324h309v-222h-309v-369h309v-225h-575v1365zM134 1618h559v-143h-559v143z" />
    <glyph glyph-name="emacron" unicode="&#x113;" horiz-adv-x="893" 
d="M811 451h-482q-1 -280 115 -280q71 0 102 84q10 30 19 70l226 -54q-68 -298 -349 -298q-131 0 -218 69q-142 112 -142 454q0 245 80 382q94 159 288 159q159 0 253 -103q109 -119 109 -426q0 -16 -1 -57zM568 619q-2 90 -19 143q-24 77 -100 77q-77 0 -101 -77
q-16 -53 -19 -143h239zM168 1290h558v-143h-558v143z" />
    <glyph glyph-name="Ebreve" unicode="&#x114;" horiz-adv-x="800" 
d="M123 1365h575v-225h-309v-324h309v-222h-309v-369h309v-225h-575v1365zM554 1720h138q1 -74 -30 -133q-73 -140 -248 -140q-176 0 -249 140q-30 59 -30 133h139q30 -117 140 -117t140 117z" />
    <glyph glyph-name="ebreve" unicode="&#x115;" horiz-adv-x="893" 
d="M811 451h-482q-1 -280 115 -280q71 0 102 84q10 30 19 70l226 -54q-68 -298 -349 -298q-131 0 -218 69q-142 112 -142 454q0 245 80 382q94 159 288 159q159 0 253 -103q109 -119 109 -426q0 -16 -1 -57zM568 619q-2 90 -19 143q-24 77 -100 77q-77 0 -101 -77
q-16 -53 -19 -143h239zM587 1393h138q1 -75 -29 -133q-73 -141 -249 -141t-249 141q-30 58 -30 133h139q29 -118 140 -118t140 118z" />
    <glyph glyph-name="Edotaccent" unicode="&#x116;" horiz-adv-x="800" 
d="M123 1365h575v-225h-309v-324h309v-222h-309v-369h309v-225h-575v1365zM413 1707q52 0 88 -36t36 -87t-36 -87t-88 -36q-51 0 -86 36q-36 38 -36 88q0 48 36 86q35 36 86 36z" />
    <glyph glyph-name="edotaccent" unicode="&#x117;" horiz-adv-x="893" 
d="M811 451h-482q-1 -280 115 -280q71 0 102 84q10 30 19 70l226 -54q-68 -298 -349 -298q-131 0 -218 69q-142 112 -142 454q0 245 80 382q94 159 288 159q159 0 253 -103q109 -119 109 -426q0 -16 -1 -57zM568 619q-2 90 -19 143q-24 77 -100 77q-77 0 -101 -77
q-16 -53 -19 -143h239zM446 1379q52 0 88 -36t36 -87q0 -50 -36 -87q-36 -36 -88 -36q-51 0 -86 36q-36 38 -36 88q0 49 36 86q35 36 86 36z" />
    <glyph glyph-name="Eogonek" unicode="&#x118;" horiz-adv-x="800" 
d="M698 1365v-225h-309v-324h309v-222h-309v-369h309v-225q-101 -82 -101 -145q0 -69 80 -69q26 0 58 11l14 -122q-52 -18 -105 -18q-82 0 -129 39q-55 45 -55 117q0 104 105 187h-442v1365h575z" />
    <glyph glyph-name="eogonek" unicode="&#x119;" horiz-adv-x="893" 
d="M811 451h-482q-1 -280 115 -280q71 0 102 84q10 30 19 70l226 -54q-14 -59 -33 -102q-22 -48 -73 -122q-63 -91 -84 -134q-15 -32 -15 -59q0 -68 79 -68q27 0 59 11l14 -122q-52 -18 -105 -18q-82 0 -129 39q-55 45 -55 117q0 88 84 169q-50 -9 -89 -9q-133 0 -220 69
q-142 112 -142 454q0 246 80 382q94 159 288 159q159 0 253 -103q109 -119 109 -426q0 -16 -1 -57zM568 619q-2 90 -19 143q-24 77 -100 77q-77 0 -101 -77q-16 -53 -19 -143h239z" />
    <glyph glyph-name="Ecaron" unicode="&#x11a;" horiz-adv-x="800" 
d="M123 1365h575v-225h-309v-324h309v-222h-309v-369h309v-225h-575v1365zM531 1440h-248l-151 253h179l96 -140l95 140h179z" />
    <glyph glyph-name="ecaron" unicode="&#x11b;" horiz-adv-x="893" 
d="M811 451h-482q-1 -280 115 -280q71 0 102 84q10 30 19 70l226 -54q-68 -298 -349 -298q-131 0 -218 69q-142 112 -142 454q0 245 80 382q94 159 288 159q159 0 253 -103q109 -119 109 -426q0 -16 -1 -57zM568 619q-2 90 -19 143q-24 77 -100 77q-77 0 -101 -77
q-16 -53 -19 -143h239zM571 1113h-248l-151 252h179l96 -139l95 139h179z" />
    <glyph glyph-name="Gbreve" unicode="&#x11e;" horiz-adv-x="989" 
d="M477 816h431v-139q0 -241 -25 -356q-42 -192 -157 -280q-98 -75 -228 -75q-144 0 -250 92q-166 143 -166 602q0 377 103 563q53 94 161 142q76 34 169 34q173 0 272 -99q67 -68 90 -193l-242 -88q-23 155 -122 155q-67 0 -107 -78q-51 -101 -51 -409q0 -346 51 -431
q39 -65 98 -65q65 0 102 80q24 53 28 190q1 18 1 137h-158v218zM649 1720h138q1 -74 -30 -133q-73 -140 -248 -140q-176 0 -249 140q-31 59 -30 133h138q30 -117 141 -117q110 0 140 117z" />
    <glyph glyph-name="gbreve" unicode="&#x11f;" horiz-adv-x="897" 
d="M546 1010h242v-906q0 -169 -19 -235q-35 -123 -151 -187q-94 -51 -209 -51q-208 0 -313 165l193 122q37 -86 117 -86q98 0 121 105q12 56 12 184v79q-28 -79 -61 -128q-57 -82 -148 -82q-152 0 -209 189q-39 129 -39 309q0 239 59 392q33 86 100 131q39 26 94 26
q145 0 211 -212v185zM442 798q-100 0 -100 -297q0 -296 101 -296q106 0 106 294q0 174 -31 241q-27 58 -76 58zM589 1393h138q1 -75 -30 -133q-73 -141 -248 -141q-176 0 -249 141q-31 58 -30 133h138q30 -118 141 -118q110 0 140 118z" />
    <glyph glyph-name="Gcommaaccent" unicode="&#x122;" horiz-adv-x="989" 
d="M477 816h431v-139q0 -241 -25 -356q-42 -192 -157 -280q-98 -75 -228 -75q-144 0 -250 92q-166 143 -166 602q0 377 103 563q53 94 161 142q76 34 169 34q173 0 272 -99q67 -68 90 -193l-242 -88q-23 155 -122 155q-67 0 -107 -78q-51 -101 -51 -409q0 -346 51 -431
q39 -65 98 -65q65 0 102 80q24 53 28 190q1 18 1 137h-158v218zM400 -109h239l-139 -386h-207z" />
    <glyph glyph-name="gcommaaccent" unicode="&#x123;" horiz-adv-x="897" 
d="M546 1010h242v-906q0 -169 -19 -235q-35 -123 -151 -187q-94 -51 -209 -51q-208 0 -313 165l193 122q37 -86 117 -86q98 0 121 105q12 56 12 184v79q-28 -79 -61 -128q-57 -82 -148 -82q-152 0 -209 189q-39 129 -39 309q0 239 59 392q33 86 100 131q39 26 94 26
q145 0 211 -212v185zM442 798q-100 0 -100 -297q0 -296 101 -296q106 0 106 294q0 174 -31 241q-27 58 -76 58zM595 1116h-239l139 386h207z" />
    <glyph glyph-name="Imacron" unicode="&#x12a;" horiz-adv-x="512" 
d="M389 1365v-1365h-266v1365h266zM4 1618h504v-143h-504v143z" />
    <glyph glyph-name="imacron" unicode="&#x12b;" horiz-adv-x="498" 
d="M123 1010h253v-1010h-253v1010zM11 1290h477v-143h-477v143z" />
    <glyph glyph-name="Iogonek" unicode="&#x12e;" horiz-adv-x="512" 
d="M389 1365v-1365q-100 -83 -100 -145q0 -69 79 -69q26 0 58 11l14 -122q-52 -18 -105 -18q-81 0 -128 39q-55 45 -55 117q0 104 105 187h-134v1365h266z" />
    <glyph glyph-name="iogonek" unicode="&#x12f;" horiz-adv-x="471" 
d="M110 1010h253v-1010q-101 -81 -101 -145q0 -69 80 -69q26 0 58 11l14 -122q-52 -18 -105 -18q-81 0 -129 39q-55 45 -55 117q0 104 105 187h-120v1010zM235 1393q58 0 99 -41q40 -40 40 -97t-40 -98q-41 -40 -99 -40t-97 40q-40 42 -40 100q0 54 40 95t97 41z" />
    <glyph glyph-name="Idotaccent" unicode="&#x130;" horiz-adv-x="512" 
d="M389 1365v-1365h-266v1365h266zM255 1707q52 0 88 -36t36 -87t-36 -87t-88 -36q-51 0 -86 36q-36 37 -36 88q0 49 36 86q35 36 86 36z" />
    <glyph glyph-name="dotlessi" unicode="&#x131;" horiz-adv-x="498" 
d="M123 1010h253v-1010h-253v1010z" />
    <glyph glyph-name="Kcommaaccent" unicode="&#x136;" horiz-adv-x="984" 
d="M123 1365h266v-583l260 583h280l-280 -617l287 -748h-303l-244 709v-709h-266v1365zM397 -109h239l-139 -386h-206z" />
    <glyph glyph-name="kcommaaccent" unicode="&#x137;" horiz-adv-x="900" 
d="M123 1365h253v-819l210 464h264l-226 -478l243 -532h-281l-210 474v-474h-253v1365zM356 -109h238l-138 -386h-207z" />
    <glyph glyph-name="Lacute" unicode="&#x139;" horiz-adv-x="800" 
d="M123 1365h266v-1140h309v-225h-575v1365zM346 1693h268l-246 -253h-157z" />
    <glyph glyph-name="lacute" unicode="&#x13a;" horiz-adv-x="498" 
d="M123 1365h253v-1365h-253v1365zM291 1693h268l-246 -253h-157z" />
    <glyph glyph-name="Lcommaaccent" unicode="&#x13b;" horiz-adv-x="800" 
d="M123 1365h266v-1140h309v-225h-575v1365zM305 -109h239l-139 -386h-206z" />
    <glyph glyph-name="lcommaaccent" unicode="&#x13c;" horiz-adv-x="498" 
d="M123 1365h253v-1365h-253v1365zM155 -109h238l-138 -386h-207z" />
    <glyph glyph-name="Lcaron" unicode="&#x13d;" horiz-adv-x="800" 
d="M123 1365h266v-1140h309v-225h-575v1365zM538 1365h238l-139 -386h-206z" />
    <glyph glyph-name="lcaron" unicode="&#x13e;" horiz-adv-x="748" 
d="M123 1365h253v-1365h-253v1365zM510 1365h238l-138 -386h-207z" />
    <glyph glyph-name="Lslash" unicode="&#x141;" horiz-adv-x="800" 
d="M388 843l139 83v-215l-139 -83v-403h309v-225h-575v469l-106 -64v215l106 64v681h266v-522z" />
    <glyph glyph-name="lslash" unicode="&#x142;" horiz-adv-x="498" 
d="M376 849l117 70v-215l-117 -70v-634h-253v483l-117 -71v216l117 70v667h253v-516z" />
    <glyph glyph-name="Nacute" unicode="&#x143;" horiz-adv-x="1009" 
d="M123 1365h278l239 -832v832h246v-1365h-274l-243 779v-779h-246v1365zM546 1693h268l-246 -253h-157z" />
    <glyph glyph-name="nacute" unicode="&#x144;" horiz-adv-x="891" 
d="M351 1010v-145q46 73 79 105q69 67 160 67q100 0 152 -76q40 -59 40 -167v-794h-253v669q0 75 -16 101q-21 35 -67 35q-42 0 -64 -32q-20 -30 -20 -104v-669h-253v1010h242zM487 1365h268l-247 -252h-156z" />
    <glyph glyph-name="Ncommaaccent" unicode="&#x145;" horiz-adv-x="1009" 
d="M123 1365h278l239 -832v832h246v-1365h-274l-243 779v-779h-246v1365zM410 -109h239l-139 -386h-207z" />
    <glyph glyph-name="ncommaaccent" unicode="&#x146;" horiz-adv-x="891" 
d="M351 1010v-145q46 73 79 105q69 67 160 67q100 0 152 -76q40 -59 40 -167v-794h-253v669q0 75 -16 101q-21 35 -67 35q-42 0 -64 -32q-20 -30 -20 -104v-669h-253v1010h242zM351 -109h238l-138 -386h-207z" />
    <glyph glyph-name="Ncaron" unicode="&#x147;" horiz-adv-x="1009" 
d="M123 1365h278l239 -832v832h246v-1365h-274l-243 779v-779h-246v1365zM628 1440h-247l-151 253h179l95 -140l96 140h179z" />
    <glyph glyph-name="ncaron" unicode="&#x148;" horiz-adv-x="891" 
d="M351 1010v-145q46 73 79 105q69 67 160 67q100 0 152 -76q40 -59 40 -167v-794h-253v669q0 75 -16 101q-21 35 -67 35q-42 0 -64 -32q-20 -30 -20 -104v-669h-253v1010h242zM569 1113h-247l-151 252h179l95 -139l96 139h179z" />
    <glyph glyph-name="Omacron" unicode="&#x14c;" horiz-adv-x="984" 
d="M492 1399q186 0 281 -127q86 -117 109 -271q21 -146 21 -332q0 -276 -49 -419q-97 -284 -359 -284q-190 0 -283 127q-86 119 -109 271q-21 143 -21 319q0 290 48 433q97 283 362 283zM492 1168q-77 0 -108 -99q-29 -95 -29 -386q0 -315 37 -407q31 -76 102 -76
q76 0 107 99q29 95 29 379q0 322 -37 414q-31 76 -101 76zM213 1618h558v-143h-558v143z" />
    <glyph glyph-name="omacron" unicode="&#x14d;" horiz-adv-x="901" 
d="M451 1037q103 0 186 -52q183 -116 183 -487q0 -258 -104 -400q-53 -72 -144 -105q-57 -20 -121 -20q-103 0 -186 52q-183 115 -183 480q0 267 104 407q93 125 265 125zM449 829q-49 0 -76 -60q-32 -69 -32 -266q0 -148 20 -232q23 -93 92 -93q49 0 76 60q32 69 32 262
q0 156 -20 236q-24 93 -92 93zM172 1290h558v-143h-558v143z" />
    <glyph glyph-name="Ohungarumlaut" unicode="&#x150;" horiz-adv-x="985" 
d="M492 1399q186 0 281 -127q86 -117 109 -271q21 -146 21 -332q0 -276 -49 -419q-97 -284 -359 -284q-190 0 -283 127q-86 119 -109 271q-21 143 -21 319q0 290 48 433q97 283 362 283zM492 1168q-77 0 -108 -99q-29 -95 -29 -386q0 -315 37 -407q31 -76 102 -76
q76 0 107 99q29 95 29 379q0 322 -37 414q-31 76 -101 76zM397 1693h241l-233 -253h-143zM684 1693h241l-233 -253h-143z" />
    <glyph glyph-name="ohungarumlaut" unicode="&#x151;" horiz-adv-x="902" 
d="M451 1037q103 0 186 -52q183 -116 183 -487q0 -258 -104 -400q-53 -72 -144 -105q-57 -20 -121 -20q-103 0 -186 52q-183 115 -183 480q0 267 104 407q93 125 265 125zM449 829q-49 0 -76 -60q-32 -69 -32 -266q0 -148 20 -232q23 -93 92 -93q49 0 76 60q32 69 32 262
q0 156 -20 236q-24 93 -92 93zM356 1365h240l-232 -252h-143zM643 1365h240l-232 -252h-143z" />
    <glyph glyph-name="OE" unicode="&#x152;" horiz-adv-x="1317" 
d="M1215 1365v-225h-309v-324h309v-222h-309v-369h309v-225h-461q-61 0 -176 -18q-59 -9 -110 -9q-193 0 -295 185q-50 90 -74 262q-17 119 -17 250q0 290 58 447q65 180 194 241q72 34 172 34q54 0 141 -15q66 -12 154 -12h414zM640 457v445q0 268 -127 268
q-81 0 -121 -111q-38 -109 -38 -380q0 -297 49 -405q39 -85 112 -85q125 0 125 268z" />
    <glyph glyph-name="oe" unicode="&#x153;" horiz-adv-x="1293" 
d="M1217 451h-447q0 -100 13 -171q21 -110 96 -110q55 0 84 59q16 31 29 96l205 -54q-21 -98 -65 -164q-87 -135 -257 -135q-147 0 -232 109q-84 -108 -222 -108q-93 0 -170 53q-169 115 -169 480q0 263 96 406q48 71 134 105q52 20 109 20q147 0 229 -118q32 42 58 62
q72 56 178 56q146 0 233 -103q100 -120 100 -424q0 -16 -2 -59zM437 829q-46 0 -72 -60q-30 -69 -30 -265q0 -214 37 -282q24 -44 66 -44q47 0 72 60q30 69 30 262q0 218 -37 285q-24 44 -66 44zM982 601q-3 146 -34 195q-28 43 -72 43q-51 0 -79 -56q-24 -49 -27 -182h212z
" />
    <glyph glyph-name="Racute" unicode="&#x154;" horiz-adv-x="989" 
d="M123 1365h331q224 0 328 -94q113 -102 113 -303q0 -184 -118 -285q-46 -39 -105 -57l256 -626h-302l-237 626v-626h-266v1365zM389 780h45q184 0 184 183q0 184 -184 184h-45v-367zM509 1693h268l-246 -253h-157z" />
    <glyph glyph-name="racute" unicode="&#x155;" horiz-adv-x="686" 
d="M109 1010h253v-208q78 230 269 232v-279q-43 7 -74 7q-101 0 -153 -67q-42 -56 -42 -163v-527h-253v1005zM384 1365h268l-246 -252h-157z" />
    <glyph glyph-name="Rcommaaccent" unicode="&#x156;" horiz-adv-x="989" 
d="M123 1365h331q224 0 328 -94q113 -102 113 -303q0 -184 -118 -285q-46 -39 -105 -57l256 -626h-302l-237 626v-626h-266v1365zM389 780h45q184 0 184 183q0 184 -184 184h-45v-367zM400 -109h239l-139 -386h-207z" />
    <glyph glyph-name="rcommaaccent" unicode="&#x157;" horiz-adv-x="686" 
d="M109 1010h253v-208q78 230 269 232v-279q-43 7 -74 7q-101 0 -153 -67q-42 -56 -42 -163v-527h-253v1005zM248 -109h239l-139 -386h-207z" />
    <glyph glyph-name="Rcaron" unicode="&#x158;" horiz-adv-x="989" 
d="M123 1365h331q224 0 328 -94q113 -102 113 -303q0 -184 -118 -285q-46 -39 -105 -57l256 -626h-302l-237 626v-626h-266v1365zM389 780h45q184 0 184 183q0 184 -184 184h-45v-367zM591 1440h-247l-151 253h179l95 -140l96 140h179z" />
    <glyph glyph-name="rcaron" unicode="&#x159;" horiz-adv-x="686" 
d="M110 1010h253v-208q77 230 269 232v-279q-44 7 -74 7q-195 0 -195 -230v-527h-253v1005zM494 1113h-247l-151 252h179l95 -139l96 139h179z" />
    <glyph glyph-name="Sacute" unicode="&#x15a;" horiz-adv-x="888" 
d="M814 1079l-228 -80q-23 175 -131 175q-52 0 -84 -35q-31 -33 -31 -87q0 -67 57 -133q23 -26 89 -82l127 -106q104 -88 153 -166q54 -87 54 -203q0 -126 -61 -227q-51 -85 -142 -128q-88 -41 -192 -41q-189 0 -297 132q-66 82 -87 215l245 59q32 -173 149 -173q49 0 82 35
q36 38 36 96q0 66 -58 132q-32 36 -85 81l-134 112q-71 59 -133 143q-72 95 -72 231q0 187 123 289q98 81 255 81q201 0 293 -137q49 -72 72 -183zM486 1693h268l-247 -253h-156z" />
    <glyph glyph-name="sacute" unicode="&#x15b;" horiz-adv-x="757" 
d="M695 845l-184 -119q-22 113 -112 113q-45 0 -71 -27q-19 -20 -19 -51q0 -36 19 -60q19 -25 60 -51q146 -96 181 -123q88 -71 116 -142q18 -47 18 -102q0 -156 -112 -242q-89 -68 -220 -68q-141 0 -230 75q-49 41 -86 120l195 128q32 -125 121 -125q43 0 69 29
q22 24 22 56q0 46 -53 94q-32 28 -136 99q-131 90 -166 153q-31 56 -31 129q0 148 99 233q85 73 219 73q149 0 233 -89q32 -34 68 -103zM421 1365h268l-247 -252h-156z" />
    <glyph glyph-name="scircumflex" unicode="&#x15d;" horiz-adv-x="757" 
d="M695 845l-184 -119q-22 113 -112 113q-45 0 -71 -27q-19 -20 -19 -51q0 -36 19 -60q19 -25 60 -51q146 -96 181 -123q88 -71 116 -142q18 -47 18 -102q0 -156 -112 -242q-89 -68 -220 -68q-141 0 -230 75q-49 41 -86 120l195 128q32 -125 121 -125q43 0 69 29
q22 24 22 56q0 46 -53 94q-32 28 -136 99q-131 90 -166 153q-31 56 -31 129q0 148 99 233q85 73 219 73q149 0 233 -89q32 -34 68 -103zM255 1365h248l151 -252h-179l-96 139l-95 -139h-179z" />
    <glyph glyph-name="Scedilla" unicode="&#x15e;" horiz-adv-x="888" 
d="M814 1079l-228 -80q-23 175 -131 175q-52 0 -84 -35q-31 -33 -31 -87q0 -67 57 -133q23 -26 89 -82l127 -106q104 -88 153 -166q54 -87 54 -203q0 -126 -61 -227q-51 -85 -142 -128q-88 -41 -192 -41q-189 0 -297 132q-66 82 -87 215l245 59q32 -173 149 -173q49 0 82 35
q36 38 36 96q0 66 -58 132q-32 36 -85 81l-134 112q-71 59 -133 143q-72 95 -72 231q0 187 123 289q98 81 255 81q201 0 293 -137q49 -72 72 -183zM540 -109q-4 -67 -21 -104l-69 -149h-157l38 149q2 10 6 82q-1 7 -6 22h209z" />
    <glyph glyph-name="scedilla" unicode="&#x15f;" horiz-adv-x="757" 
d="M695 845l-184 -119q-22 113 -112 113q-45 0 -71 -27q-19 -20 -19 -51q0 -36 19 -60q19 -25 60 -51q146 -96 181 -123q88 -71 116 -142q18 -47 18 -102q0 -156 -112 -242q-89 -68 -220 -68q-141 0 -230 75q-49 41 -86 120l195 128q32 -125 121 -125q43 0 69 29
q22 24 22 56q0 46 -53 94q-32 28 -136 99q-131 90 -166 153q-31 56 -31 129q0 148 99 233q85 73 219 73q149 0 233 -89q32 -34 68 -103zM503 -109q-5 -67 -22 -104l-68 -149h-157l37 149q3 11 5 40q2 40 2 42q-1 7 -7 22h210z" />
    <glyph glyph-name="Scaron" unicode="&#x160;" horiz-adv-x="888" 
d="M814 1079l-228 -80q-23 175 -131 175q-52 0 -84 -35q-31 -33 -31 -87q0 -67 57 -133q23 -26 89 -82l127 -106q104 -88 153 -166q54 -87 54 -203q0 -126 -61 -227q-51 -85 -142 -128q-88 -41 -192 -41q-189 0 -297 132q-66 82 -87 215l245 59q32 -173 149 -173q49 0 82 35
q36 38 36 96q0 66 -58 132q-32 36 -85 81l-134 112q-71 59 -133 143q-72 95 -72 231q0 187 123 289q98 81 255 81q201 0 293 -137q49 -72 72 -183zM568 1440h-248l-150 253h179l95 -140l96 140h179z" />
    <glyph glyph-name="scaron" unicode="&#x161;" horiz-adv-x="757" 
d="M695 845l-184 -119q-22 113 -112 113q-45 0 -71 -27q-19 -20 -19 -51q0 -36 19 -60q19 -25 60 -51q146 -96 181 -123q88 -71 116 -142q18 -47 18 -102q0 -156 -112 -242q-89 -68 -220 -68q-141 0 -230 75q-49 41 -86 120l195 128q32 -125 121 -125q43 0 69 29
q22 24 22 56q0 46 -53 94q-32 28 -136 99q-131 90 -166 153q-31 56 -31 129q0 148 99 233q85 73 219 73q149 0 233 -89q32 -34 68 -103zM503 1113h-248l-150 252h179l95 -139l96 139h179z" />
    <glyph glyph-name="Tcommaaccent" unicode="&#x162;" horiz-adv-x="799" 
d="M744 1365v-225h-211v-1140h-266v1140h-212v225h689zM305 -109h239l-139 -386h-207z" />
    <glyph glyph-name="tcommaaccent" unicode="&#x163;" horiz-adv-x="581" 
d="M507 1010v-201h-103v-499q0 -61 15 -79q16 -20 63 -20q7 0 25 1v-212q-59 -7 -119 -7q-101 0 -144 21q-54 27 -77 93q-16 49 -16 164v538h-96v201h96v232h253v-232h103zM196 -109h239l-139 -386h-206z" />
    <glyph glyph-name="Tcaron" unicode="&#x164;" horiz-adv-x="799" 
d="M744 1365v-225h-211v-1140h-266v1140h-212v225h689zM523 1440h-247l-151 253h179l96 -140l95 140h179z" />
    <glyph glyph-name="tcaron" unicode="&#x165;" horiz-adv-x="749" 
d="M507 1010v-201h-103v-499q0 -61 15 -79q16 -20 63 -20q7 0 25 1v-212q-59 -7 -119 -7q-101 0 -144 21q-54 27 -77 93q-16 49 -16 164v538h-96v201h96v232h253v-232h103zM510 1365h239l-111 -307h-212z" />
    <glyph glyph-name="Umacron" unicode="&#x16a;" horiz-adv-x="984" 
d="M602 1365h266v-985q0 -148 -40 -225q-97 -189 -333 -189q-184 0 -288 114q-55 61 -73 131q-18 72 -18 169v985h266v-985q0 -91 17 -122q30 -56 93 -56t93 56q17 31 17 122v985zM213 1618h558v-143h-558v143z" />
    <glyph glyph-name="umacron" unicode="&#x16b;" horiz-adv-x="894" 
d="M109 1010h253v-695q0 -129 85 -129q84 0 84 129v695h253v-654q0 -185 -86 -282q-90 -101 -251 -101q-162 0 -252 101q-86 97 -86 282v654zM167 1290h559v-143h-559v143z" />
    <glyph glyph-name="Uring" unicode="&#x16e;" horiz-adv-x="984" 
d="M602 1365h266v-985q0 -148 -40 -225q-97 -189 -333 -189q-184 0 -288 114q-55 61 -73 131q-18 72 -18 169v985h266v-985q0 -91 17 -122q30 -56 93 -56t93 56q17 31 17 122v985zM491 1782q76 0 129 -53t53 -128t-53 -128t-129 -53t-127 53q-53 55 -53 130q0 71 53 126
q51 53 127 53zM491 1700q-41 0 -69 -29q-29 -30 -29 -69q0 -41 29 -71q28 -29 69 -29q42 0 71 29t29 70q0 42 -29 70q-30 29 -71 29z" />
    <glyph glyph-name="uring" unicode="&#x16f;" horiz-adv-x="894" 
d="M109 1010h253v-695q0 -129 85 -129q84 0 84 129v695h253v-654q0 -185 -86 -282q-90 -101 -251 -101q-162 0 -252 101q-86 97 -86 282v654zM446 1454q76 0 129 -53t53 -128t-53 -128t-129 -53t-127 53q-53 55 -53 130q0 71 53 126q51 53 127 53zM446 1372q-41 0 -69 -29
q-29 -30 -29 -69q0 -41 29 -71q28 -29 69 -29q42 0 71 29t29 70q0 42 -29 70q-30 29 -71 29z" />
    <glyph glyph-name="Uhungarumlaut" unicode="&#x170;" horiz-adv-x="985" 
d="M602 1365h266v-985q0 -148 -40 -225q-97 -189 -333 -189q-184 0 -288 114q-55 61 -73 131q-18 72 -18 169v985h266v-985q0 -91 17 -122q30 -56 93 -56t93 56q17 31 17 122v985zM397 1693h241l-233 -253h-143zM684 1693h241l-233 -253h-143z" />
    <glyph glyph-name="uhungarumlaut" unicode="&#x171;" horiz-adv-x="894" 
d="M109 1010h253v-695q0 -129 85 -129q84 0 84 129v695h253v-654q0 -185 -86 -282q-90 -101 -251 -101q-162 0 -252 101q-86 97 -86 282v654zM352 1365h240l-232 -252h-143zM638 1365h241l-233 -252h-142z" />
    <glyph glyph-name="Uogonek" unicode="&#x172;" horiz-adv-x="984" 
d="M116 1365h266v-985q0 -91 17 -122q30 -56 93 -56t93 56q17 31 17 122v985h266v-985q0 -153 -47 -237q-37 -67 -130 -189q-46 -61 -46 -100q0 -68 79 -68q26 0 59 11l14 -122q-53 -18 -105 -18q-82 0 -129 39q-55 45 -55 116q0 78 75 161q-48 -7 -88 -7q-184 0 -288 114
q-55 61 -73 131q-18 72 -18 169v985z" />
    <glyph glyph-name="uogonek" unicode="&#x173;" horiz-adv-x="894" 
d="M109 1010h253v-695q0 -129 85 -129q84 0 84 129v695h253v-654q0 -102 -26 -186q-14 -47 -83 -144q-90 -126 -90 -172q0 -29 19 -48q21 -20 61 -20q26 0 58 11l14 -122q-52 -18 -105 -18q-81 0 -129 39q-54 45 -54 117q0 89 83 169q-46 -9 -86 -9q-161 0 -251 101
q-86 97 -86 282v654z" />
    <glyph glyph-name="Ydieresis" unicode="&#x178;" horiz-adv-x="995" 
d="M48 1365h292l160 -537l165 537h281l-316 -824v-541h-266v541zM333 1707q52 0 88 -36t36 -87t-36 -87t-88 -36q-51 0 -86 36q-36 37 -36 88q0 49 36 86q35 36 86 36zM660 1707q52 0 88 -36t36 -87t-36 -87t-88 -36q-51 0 -86 36q-36 37 -36 88q0 49 36 86q35 36 86 36z
" />
    <glyph glyph-name="Zacute" unicode="&#x179;" horiz-adv-x="799" 
d="M67 1365h704l-383 -1147h331v-218h-678l384 1147h-358v218zM441 1693h268l-247 -253h-156z" />
    <glyph glyph-name="zacute" unicode="&#x17a;" horiz-adv-x="773" 
d="M79 1010h639l-342 -805h313v-205h-648v34l335 771h-297v205zM428 1365h268l-247 -252h-156z" />
    <glyph glyph-name="Zdotaccent" unicode="&#x17b;" horiz-adv-x="799" 
d="M67 1365h704l-383 -1147h331v-218h-678l384 1147h-358v218zM412 1707q52 0 88 -36t36 -87t-36 -87t-88 -36q-51 0 -86 36q-36 37 -36 88q0 49 36 86q35 36 86 36z" />
    <glyph glyph-name="zdotaccent" unicode="&#x17c;" horiz-adv-x="773" 
d="M79 1010h639l-342 -805h313v-205h-648v34l335 771h-297v205zM386 1379q52 0 88 -36t36 -87q0 -50 -36 -87q-36 -36 -88 -36q-51 0 -86 36q-36 38 -36 88q0 49 36 86q35 36 86 36z" />
    <glyph glyph-name="Zcaron" unicode="&#x17d;" horiz-adv-x="799" 
d="M67 1365h704l-383 -1147h331v-218h-678l384 1147h-358v218zM537 1440h-248l-151 253h179l96 -140l95 140h179z" />
    <glyph glyph-name="zcaron" unicode="&#x17e;" horiz-adv-x="773" 
d="M79 1010h639l-342 -805h313v-205h-648v34l335 771h-297v205zM510 1113h-247l-151 252h179l95 -139l96 139h179z" />
    <glyph glyph-name="florin" unicode="&#x192;" horiz-adv-x="887" 
d="M762 1333l-28 -173q-21 2 -31 2q-39 0 -62 -22q-29 -29 -39 -104l-11 -85h135l-21 -170h-132l-72 -666q-15 -136 -37 -186q-60 -140 -251 -140q-43 0 -87 9l17 181q29 -4 43 -4q40 0 53 23q12 21 25 117l71 666h-130l21 170h130l15 104q15 101 33.5 149t58.5 87
q59 58 176 58q53 0 123 -16z" />
    <glyph glyph-name="uni01D3" unicode="&#x1d3;" horiz-adv-x="984" 
d="M602 1365h266v-985q0 -148 -40 -225q-97 -189 -333 -189q-184 0 -288 114q-55 61 -73 131q-18 72 -18 169v985h266v-985q0 -91 17 -122q30 -56 93 -56t93 56q17 31 17 122v985zM616 1440h-247l-151 253h179l95 -140l96 140h179z" />
    <glyph glyph-name="uni01D4" unicode="&#x1d4;" horiz-adv-x="894" 
d="M109 1010h253v-695q0 -129 85 -129q84 0 84 129v695h253v-654q0 -185 -86 -282q-90 -101 -251 -101q-162 0 -252 101q-86 97 -86 282v654zM570 1113h-247l-151 252h179l96 -139l95 139h179z" />
    <glyph glyph-name="Scommaaccent" unicode="&#x218;" horiz-adv-x="888" 
d="M814 1079l-228 -80q-23 175 -131 175q-52 0 -84 -35q-31 -33 -31 -87q0 -67 57 -133q23 -26 89 -82l127 -106q104 -88 153 -166q54 -87 54 -203q0 -126 -61 -227q-51 -85 -142 -128q-88 -41 -192 -41q-189 0 -297 132q-66 82 -87 215l245 59q32 -173 149 -173q49 0 82 35
q36 38 36 96q0 66 -58 132q-32 36 -85 81l-134 112q-71 59 -133 143q-72 95 -72 231q0 187 123 289q98 81 255 81q201 0 293 -137q49 -72 72 -183zM350 -109h238l-138 -386h-207z" />
    <glyph glyph-name="scommaaccent" unicode="&#x219;" horiz-adv-x="757" 
d="M695 845l-184 -119q-22 113 -112 113q-45 0 -71 -27q-19 -20 -19 -51q0 -36 19 -60q19 -25 60 -51q146 -96 181 -123q88 -71 116 -142q18 -47 18 -102q0 -156 -112 -242q-89 -68 -220 -68q-141 0 -230 75q-49 41 -86 120l195 128q32 -125 121 -125q43 0 69 29
q22 24 22 56q0 46 -53 94q-32 28 -136 99q-131 90 -166 153q-31 56 -31 129q0 148 99 233q85 73 219 73q149 0 233 -89q32 -34 68 -103zM285 -109h238l-139 -386h-206z" />
    <glyph glyph-name="uni021A" unicode="&#x21a;" horiz-adv-x="799" 
d="M744 1365v-225h-211v-1140h-266v1140h-212v225h689zM305 -109h239l-139 -386h-207z" />
    <glyph glyph-name="uni021B" unicode="&#x21b;" horiz-adv-x="581" 
d="M507 1010v-201h-103v-499q0 -61 15 -79q16 -20 63 -20q7 0 25 1v-212q-59 -7 -119 -7q-101 0 -144 21q-54 27 -77 93q-16 49 -16 164v538h-96v201h96v232h253v-232h103zM196 -109h239l-139 -386h-206z" />
    <glyph glyph-name="afii57929" unicode="&#x2bc;" horiz-adv-x="485" 
d="M175 1365h238l-138 -386h-207z" />
    <glyph glyph-name="circumflex" unicode="&#x2c6;" 
d="M389 1365h247l151 -252h-179l-95 139l-96 -139h-179z" />
    <glyph glyph-name="caron" unicode="&#x2c7;" 
d="M636 1113h-247l-151 252h179l95 -139l96 139h179z" />
    <glyph glyph-name="uni02C9" unicode="&#x2c9;" 
d="M233 1290h558v-143h-558v143z" />
    <glyph glyph-name="breve" unicode="&#x2d8;" 
d="M654 1393h138q1 -75 -30 -133q-73 -141 -248 -141q-176 0 -249 141q-31 58 -30 133h138q30 -118 141 -118q110 0 140 118z" />
    <glyph glyph-name="dotaccent" unicode="&#x2d9;" 
d="M511 1379q52 0 88 -36t36 -87t-36 -87t-88 -36q-51 0 -86 36q-36 38 -36 88q0 49 36 86q35 36 86 36z" />
    <glyph glyph-name="ring" unicode="&#x2da;" 
d="M511 1454q76 0 129 -53t53 -128t-53 -128t-129 -53t-127 53q-53 55 -53 130q0 71 53 126q51 53 127 53zM511 1372q-41 0 -69 -29q-29 -30 -29 -69q0 -41 29 -71q28 -29 69 -29q42 0 71 29t29 70q0 42 -29 70q-30 29 -71 29z" />
    <glyph glyph-name="ogonek" unicode="&#x2db;" horiz-adv-x="922" 
d="M514 0h132q-100 -81 -100 -145q0 -69 79 -69q26 0 59 11l14 -122q-53 -18 -105 -18q-82 0 -129 39q-55 45 -55 117q0 105 105 187z" />
    <glyph glyph-name="tilde" unicode="&#x2dc;" 
d="M666 1365h114q-1 -101 -28 -153q-42 -83 -126 -83q-40 0 -74 14l-67 29q-47 20 -69 20q-19 0 -35 -18q-17 -20 -19 -57h-117q-1 78 20 131q17 42 57 70q37 26 82 26q51 0 161 -40q37 -13 52 -13q43 0 49 74z" />
    <glyph glyph-name="hungarumlaut" unicode="&#x2dd;" 
d="M417 1365h240l-232 -252h-143zM704 1365h240l-232 -252h-143z" />
    <glyph glyph-name="uni0387" unicode="&#x387;" horiz-adv-x="485" 
d="M241 643q58 0 99 -40q40 -41 40 -98t-40 -98q-41 -40 -99 -40t-97 40q-40 42 -40 100q0 54 40 96q39 40 97 40z" />
    <glyph glyph-name="uni2011" unicode="&#x2011;" horiz-adv-x="546" 
d="M68 621h410v-232h-410v232z" />
    <glyph glyph-name="figuredash" unicode="&#x2012;" horiz-adv-x="806" 
d="M68 608h669v-205h-669v205z" />
    <glyph glyph-name="endash" unicode="&#x2013;" horiz-adv-x="806" 
d="M68 608h669v-205h-669v205z" />
    <glyph glyph-name="emdash" unicode="&#x2014;" horiz-adv-x="1215" 
d="M68 608h1079v-205h-1079v205z" />
    <glyph glyph-name="afii00208" unicode="&#x2015;" horiz-adv-x="1215" 
d="M68 608h1079v-205h-1079v205z" />
    <glyph glyph-name="quoteleft" unicode="&#x2018;" horiz-adv-x="485" 
d="M307 979h-239l139 386h206z" />
    <glyph glyph-name="quoteright" unicode="&#x2019;" horiz-adv-x="485" 
d="M175 1365h238l-138 -386h-207z" />
    <glyph glyph-name="quotesinglbase" unicode="&#x201a;" horiz-adv-x="485" 
d="M175 222h238l-138 -386h-207z" />
    <glyph glyph-name="quotedblleft" unicode="&#x201c;" horiz-adv-x="812" 
d="M634 979h-238l138 386h207zM307 979h-239l139 386h206z" />
    <glyph glyph-name="quotedblright" unicode="&#x201d;" horiz-adv-x="812" 
d="M175 1365h238l-138 -386h-207zM502 1365h239l-139 -386h-206z" />
    <glyph glyph-name="quotedblbase" unicode="&#x201e;" horiz-adv-x="812" 
d="M175 222h238l-138 -386h-207zM502 222h239l-139 -386h-206z" />
    <glyph glyph-name="dagger" unicode="&#x2020;" horiz-adv-x="867" 
d="M566 1017h219v-218h-219v-963h-266v963h-218v218h218v348h266v-348z" />
    <glyph glyph-name="daggerdbl" unicode="&#x2021;" horiz-adv-x="867" 
d="M566 1017h219v-218h-219v-397h219v-218h-219v-348h-266v348h-218v218h218v397h-218v218h218v348h266v-348z" />
    <glyph glyph-name="bullet" unicode="&#x2022;" horiz-adv-x="1365" 
d="M689 978q113 0 196 -83q84 -83 84 -201t-84 -201q-82 -83 -200 -83t-200 83q-84 83 -84 200q0 121 84 202q85 83 204 83z" />
    <glyph glyph-name="ellipsis" unicode="&#x2026;" horiz-adv-x="1655" 
d="M275 256q58 0 99 -40q40 -41 40 -98t-40 -98q-41 -40 -99 -40t-97 40q-40 42 -40 99q0 55 40 97q39 40 97 40zM827 256q58 0 99 -40q40 -41 40 -98t-40 -98q-41 -40 -99 -40t-97 40q-40 42 -40 99q0 55 40 97q39 40 97 40zM1378 256q58 0 99 -40q40 -41 40 -98t-40 -98
q-41 -40 -99 -40t-97 40q-40 42 -40 99q0 55 40 97q40 40 97 40z" />
    <glyph glyph-name="perthousand" unicode="&#x2030;" horiz-adv-x="1789" 
d="M287 1345q243 0 243 -339q0 -340 -242 -340q-137 0 -196 102q-48 84 -48 242q0 335 243 335zM287 1195q-38 0 -53 -41q-13 -36 -13 -148q0 -123 17 -157q15 -32 49 -32q38 0 53 41q13 36 13 147q0 124 -17 158q-15 32 -49 32zM908 1356h151l-751 -1383h-151zM929 662
q243 0 243 -339t-242 -339q-137 0 -196 101q-48 85 -48 243q0 334 243 334zM929 512q-38 0 -53 -41q-13 -36 -13 -147q0 -122 17 -157q15 -32 49 -32q38 0 53 41q13 36 13 146q0 124 -17 159q-15 31 -49 31zM1502 662q243 0 243 -339t-242 -339q-137 0 -196 101
q-48 85 -48 243q0 334 243 334zM1502 512q-38 0 -53 -41q-13 -36 -13 -147q0 -123 17 -158q15 -31 49 -31q38 0 53 41q13 36 13 146q0 124 -17 159q-15 31 -49 31z" />
    <glyph glyph-name="guilsinglleft" unicode="&#x2039;" horiz-adv-x="468" 
d="M385 253h-214l-103 286l103 287h214l-94 -287z" />
    <glyph glyph-name="guilsinglright" unicode="&#x203a;" horiz-adv-x="468" 
d="M82 826h215l102 -286l-102 -287h-215l94 287z" />
    <glyph glyph-name="fraction" unicode="&#x2044;" horiz-adv-x="205" 
d="M403 1356h150l-751 -1383h-150z" />
    <glyph glyph-name="zerosuperior" unicode="&#x2070;" horiz-adv-x="574" 
d="M287 1345q243 0 243 -408q0 -407 -242 -407q-244 0 -244 413q0 402 243 402zM287 1195q-39 0 -53 -56q-13 -49 -13 -201q0 -166 17 -213q15 -44 49 -44q38 0 53 56q13 49 13 199q0 168 -17 215q-15 44 -49 44z" />
    <glyph glyph-name="foursuperior" unicode="&#x2074;" horiz-adv-x="573" 
d="M466 1329v-507h67v-147h-67v-129h-177v129h-251v146l254 508h174zM289 822v257l-123 -257h123z" />
    <glyph glyph-name="fivesuperior" unicode="&#x2075;" horiz-adv-x="573" 
d="M468 1329v-155h-252v-123q50 34 106 34q98 0 146 -85q36 -66 36 -171q0 -147 -64 -223t-184 -76q-212 0 -219 217l171 37q0 -42 4 -62q9 -47 49 -47q62 0 62 151q0 115 -69 115q-33 0 -49 -42h-139v430h402z" />
    <glyph glyph-name="sixsuperior" unicode="&#x2076;" horiz-adv-x="573" 
d="M508 1329l-196 -274q24 6 42 6q88 0 138 -83q38 -64 38 -161q0 -139 -71 -215q-68 -72 -181 -72q-109 0 -169 72q-59 71 -59 194q0 100 36 188q24 59 80 140l140 205h202zM290 924q-23 0 -38 -21q-25 -35 -25 -105t25 -105q14 -21 38 -21t38 21q25 35 25 103
q0 128 -63 128z" />
    <glyph glyph-name="sevensuperior" unicode="&#x2077;" horiz-adv-x="573" 
d="M67 1329h448l-244 -783h-187l205 633h-222v150z" />
    <glyph glyph-name="eightsuperior" unicode="&#x2078;" horiz-adv-x="574" 
d="M148 980q-86 38 -86 155q0 93 54 149q59 61 168 61t168 -61q54 -56 54 -149q0 -117 -86 -155q46 -20 67 -50q39 -52 39 -145q0 -121 -63 -187q-64 -68 -180 -68q-114 0 -179 68q-63 67 -63 187q0 92 39 145q22 30 68 50zM284 1215q-52 0 -52 -92q0 -90 52 -90t52 89
q0 93 -52 93zM283 904q-65 0 -65 -119q0 -118 65 -118q66 0 66 117q0 120 -66 120z" />
    <glyph glyph-name="ninesuperior" unicode="&#x2079;" horiz-adv-x="574" 
d="M65 546l197 274q-25 -6 -42 -6q-89 0 -139 83q-38 64 -38 161q0 139 71 215q68 72 181 72q110 0 169 -72q59 -71 59 -194q0 -100 -36 -188q-23 -57 -80 -140l-140 -205h-202zM283 1203q-23 0 -38 -21q-25 -35 -25 -103q0 -128 63 -128q24 0 38 21q25 35 25 105
q0 71 -25 105q-15 21 -38 21z" />
    <glyph glyph-name="zeroinferior" unicode="&#x2080;" horiz-adv-x="574" 
d="M287 799q243 0 243 -408q0 -407 -242 -407q-244 0 -244 413q0 402 243 402zM287 649q-39 0 -53 -56q-13 -49 -13 -201q0 -166 17 -213q15 -44 49 -44q38 0 53 56q13 49 13 199q0 168 -17 215q-15 44 -49 44z" />
    <glyph glyph-name="oneinferior" unicode="&#x2081;" horiz-adv-x="573" 
d="M384 791v-791h-177v559q-34 -24 -92 -47v144q8 3 21 8q108 43 187 127h61z" />
    <glyph glyph-name="twoinferior" unicode="&#x2082;" horiz-adv-x="573" 
d="M492 155v-155h-473l243 415q69 117 69 175q0 59 -48 59q-53 0 -53 -83v-36h-174v36q0 81 22 122q33 63 109 92q48 19 101 19q98 0 165 -54q65 -53 65 -155q0 -107 -96 -256l-115 -179h185z" />
    <glyph glyph-name="threeinferior" unicode="&#x2083;" horiz-adv-x="574" 
d="M71 783h476l-193 -274q161 -10 161 -225q0 -144 -70 -222t-182 -78q-98 0 -160 58q-45 41 -56 96q-8 39 -8 94v32h172v-47q0 -90 52 -90q72 0 72 146q0 112 -62 112q-27 0 -61 -32l-82 83l144 192h-203v155z" />
    <glyph glyph-name="fourinferior" unicode="&#x2084;" horiz-adv-x="573" 
d="M466 783v-507h67v-147h-67v-129h-177v129h-251v146l254 508h174zM289 276v257l-123 -257h123z" />
    <glyph glyph-name="fiveinferior" unicode="&#x2085;" horiz-adv-x="573" 
d="M468 783v-155h-252v-123q50 34 106 34q98 0 146 -85q36 -65 36 -171q0 -147 -64 -223t-184 -76q-212 0 -219 217l171 37q0 -42 4 -62q9 -47 49 -47q62 0 62 151q0 115 -69 115q-33 0 -49 -42h-139v430h402z" />
    <glyph glyph-name="sixinferior" unicode="&#x2086;" horiz-adv-x="573" 
d="M508 783l-196 -274q25 6 42 6q88 0 138 -83q38 -64 38 -161q0 -139 -71 -215q-68 -72 -181 -72q-109 0 -169 72q-59 71 -59 194q0 100 36 188q24 59 80 140l140 205h202zM290 378q-23 0 -38 -21q-25 -35 -25 -105t25 -105q14 -21 38 -21t38 21q25 35 25 103
q0 128 -63 128z" />
    <glyph glyph-name="seveninferior" unicode="&#x2087;" horiz-adv-x="573" 
d="M67 783h448l-244 -783h-187l205 633h-222v150z" />
    <glyph glyph-name="eightinferior" unicode="&#x2088;" horiz-adv-x="574" 
d="M148 434q-86 38 -86 155q0 93 54 149q59 61 168 61t168 -61q54 -56 54 -149q0 -117 -86 -155q46 -20 67 -50q39 -52 39 -144q0 -121 -63 -188q-64 -68 -180 -68q-114 0 -179 68q-63 67 -63 188q0 92 39 144q21 30 68 50zM284 669q-52 0 -52 -92q0 -90 52 -90t52 89
q0 93 -52 93zM283 358q-65 0 -65 -119q0 -118 65 -118q66 0 66 117q0 120 -66 120z" />
    <glyph glyph-name="nineinferior" unicode="&#x2089;" horiz-adv-x="574" 
d="M65 0l197 274q-25 -6 -42 -6q-89 0 -139 83q-38 64 -38 161q0 139 71 215q68 72 181 72q110 0 169 -72q59 -71 59 -194q0 -100 -36 -188q-23 -57 -80 -140l-140 -205h-202zM283 657q-23 0 -38 -21q-25 -35 -25 -103q0 -128 63 -128q24 0 38 21q25 35 25 105q0 71 -25 105
q-15 21 -38 21z" />
    <glyph glyph-name="franc" unicode="&#x20a3;" horiz-adv-x="1486" 
d="M123 1365h588v-225h-322v-324h322v-222h-322v-594h-266v1365zM909 1010h253v-208q78 230 269 232v-279q-44 7 -74 7q-101 0 -153 -67q-42 -56 -42 -163v-527h-253v1005z" />
    <glyph glyph-name="peseta" unicode="&#x20a7;" horiz-adv-x="1633" 
d="M117 1304h280q219 0 317 -125q84 -108 84 -316q0 -439 -401 -439h-26v-424h-254v1304zM371 629q58 0 87 16q79 45 79 218q0 172 -79 217q-29 15 -87 15v-466zM1114 610v-133h-64v-287q0 -34 7 -42q8 -10 33 -10q10 0 24 1v-138q-42 -5 -81 -5q-92 0 -124 34t-32 137v310
h-61v133h61v137h173v-137h64zM1601 503l-129 -79q-15 72 -66 72q-50 0 -50 -41q0 -30 47 -58q122 -75 157 -110q45 -45 45 -113q0 -96 -74 -149q-57 -41 -142 -41q-146 0 -209 125l136 83q22 -78 74 -78q23 0 38 15q12 12 12 28q0 25 -31 51q-19 16 -85 58q-84 54 -107 92
q-21 36 -21 81q0 90 65 142q55 45 142 45q118 0 174 -82q9 -13 24 -41z" />
    <glyph glyph-name="Euro" unicode="&#x20ac;" horiz-adv-x="1032" 
d="M221 547h-152l68 266h85q7 157 29 255q37 159 127 241q100 90 240 90q160 0 253 -110q73 -85 92 -256l-235 -63q-23 204 -107 204q-33 0 -54 -24q-42 -47 -58 -156q-9 -68 -14 -181h252l-68 -266h-185v-7q9 -221 40 -288q29 -61 79 -61q58 0 87 83q19 55 28 165l235 -90
q-12 -97 -51 -176q-103 -207 -315 -207q-159 0 -257 120q-110 134 -119 461z" />
    <glyph glyph-name="afii61248" unicode="&#x2105;" horiz-adv-x="485" 
d="M241 790q58 0 99 -40q40 -41 40 -98t-40 -98q-41 -40 -99 -40t-97 40q-40 42 -40 99q0 55 40 97q39 40 97 40z" />
    <glyph glyph-name="trademark" unicode="&#x2122;" horiz-adv-x="1308" 
d="M476 1365v-147h-134v-672h-181v672h-133v147h448zM574 1365h201l133 -490l134 490h196v-819h-168v447l-93 -350h-143l-92 349v-446h-168v819z" />
    <glyph glyph-name="uni2126" unicode="&#x2126;" horiz-adv-x="1365" 
d="M57 0v227h307q-313 188 -313 524q0 282 197 474q178 174 433 174q262 0 442 -177q192 -189 192 -471q0 -223 -131 -376q-70 -80 -182 -148h307v-227h-547v210q118 63 181 153q108 152 108 343q0 198 -110 335q-102 129 -256 129q-156 0 -261 -129q-109 -133 -109 -336
q0 -341 289 -495v-210h-547z" />
    <glyph glyph-name="partialdiff" unicode="&#x2202;" 
d="M139 1158l30 203q188 -23 328 -76q182 -70 308 -220q177 -212 177 -542q0 -246 -121 -388q-135 -158 -360 -158q-212 0 -340 150q-55 63 -86 146q-33 88 -33 177q0 143 80 258q70 101 188 146q78 30 163 30q106 0 169 -43q8 -6 64 -50q7 -5 21 -16q-8 16 -11 23
q-52 107 -74 132q-157 182 -503 228zM520 690q-89 0 -154 -56q-87 -76 -87 -197q0 -110 74 -185q67 -67 162 -67q84 0 147 59q82 75 82 199q0 115 -72 184q-65 63 -152 63z" />
    <glyph glyph-name="emptyset" unicode="&#x2205;" horiz-adv-x="1266" 
d="M907 1125q45 -31 77 -64q146 -147 146 -351q0 -205 -146 -352q-144 -145 -351 -145q-87 0 -172 31l-110 -217l-100 52l110 215q-45 31 -78 64q-146 148 -146 352q0 205 146 351q144 145 351 145q85 0 174 -31l110 217l98 -51zM854 1022l-341 -675q62 -20 119 -20
q160 0 271 112q113 113 113 271q0 156 -113 270q-20 21 -49 42zM413 397l343 675q-62 20 -121 20q-160 0 -271 -112q-113 -113 -113 -270q0 -191 162 -313z" />
    <glyph glyph-name="Delta" unicode="&#x2206;" horiz-adv-x="1315" 
d="M16 0l505 1365h270l508 -1365h-1283zM350 227h610l-302 862z" />
    <glyph glyph-name="product" unicode="&#x220f;" horiz-adv-x="1365" 
d="M43 1536h1280v-210h-148v-1628h148v-210h-521v210h139v1628h-516v-1628h137v-210h-519v210h150v1628h-150v210z" />
    <glyph glyph-name="summation" unicode="&#x2211;" horiz-adv-x="1365" 
d="M1260 1536v-509h-236l-27 269h-636l499 -750l-497 -818h652l16 276h248v-516h-1210v277l483 780l-483 716v275h1191z" />
    <glyph glyph-name="minus" unicode="&#x2212;" horiz-adv-x="887" 
d="M41 761h806v-218h-806v218z" />
    <glyph glyph-name="radical" unicode="&#x221a;" horiz-adv-x="1365" 
d="M1365 1693v-216h-357l-395 -1477h-300l-136 544h-177v216h326l65 -235q14 -51 49 -288h14q10 58 32 168q34 169 46 220q9 39 74 283l211 785h548z" />
    <glyph glyph-name="infinity" unicode="&#x221e;" horiz-adv-x="1365" 
d="M687 575q-48 -61 -90 -100q-106 -100 -244 -100q-143 0 -234 98q-82 88 -82 225q0 140 88 228q91 90 227 90q181 0 327 -199q147 198 334 198q152 0 242 -105q74 -86 74 -214q0 -141 -87 -229q-90 -91 -228 -91q-131 0 -238 99q-42 39 -89 100zM774 696
q105 -157 215 -157q64 0 107 43q45 45 45 114q0 73 -50 117q-43 39 -104 39q-88 0 -164 -90q-18 -21 -35 -46zM592 695q-102 158 -217 158q-64 0 -106 -43q-44 -44 -44 -114q0 -75 49 -119q44 -38 104 -38q89 0 165 89q11 13 30.5 39.5t18.5 27.5z" />
    <glyph glyph-name="integral" unicode="&#x222b;" 
d="M120 -491l45 246q51 -20 85 -20q85 0 109 65q13 33 13 217v943q0 118 2 204q4 164 71 247q100 125 293 125q60 0 165 -21l-45 -246q-50 20 -88 20q-73 0 -101 -54q-17 -35 -17 -144v-1099q0 -192 -18 -265q-24 -99 -117 -167q-97 -70 -279 -70q-46 0 -95 14q-13 3 -23 5z
" />
    <glyph glyph-name="approxequal" unicode="&#x2248;" 
d="M154 713l-136 95q43 99 85 153q89 115 213 115q69 0 221 -69q83 -38 109 -46q39 -14 71 -14q56 0 99 44q26 27 54 73l136 -95q-49 -110 -94 -166q-86 -104 -202 -104q-46 0 -110 24q-33 13 -101 42q-144 63 -194 63q-53 0 -95 -42q-26 -26 -56 -73zM154 290l-136 95
q43 100 85 154q89 115 213 115q69 0 221 -67q133 -59 180 -59q57 0 99 43q26 25 54 71l136 -95q-49 -111 -94 -166q-86 -104 -202 -104q-46 0 -110 24q-32 12 -101 42q-143 62 -193 62q-54 0 -96 -42q-26 -26 -56 -73z" />
    <glyph glyph-name="notequal" unicode="&#x2260;" horiz-adv-x="887" 
d="M705 952h142v-218h-244l-77 -164h321v-218h-422l-93 -197l-198 92l49 105h-142v218h244l77 164h-321v218h423l92 197l198 -92z" />
    <glyph glyph-name="lessequal" unicode="&#x2264;" 
d="M955 1297v-257l-587 -201l587 -199v-257l-887 341v232zM955 327v-241h-887v241h887z" />
    <glyph glyph-name="greaterequal" unicode="&#x2265;" 
d="M68 1297l887 -341v-232l-887 -341v257l587 199l-587 201v257zM68 327h887v-241h-887v241z" />
    <glyph glyph-name="dotmath" unicode="&#x22c5;" horiz-adv-x="485" 
d="M241 643q58 0 99 -40q40 -41 40 -98t-40 -98q-41 -40 -99 -40t-97 40q-40 42 -40 100q0 54 40 96q39 40 97 40z" />
    <glyph glyph-name="lozenge" unicode="&#x25ca;" horiz-adv-x="1365" 
d="M683 1419l532 -736l-532 -736l-532 736zM683 1237l-404 -554l404 -555l403 555z" />
    <glyph glyph-name="fi" unicode="&#xfb01;" horiz-adv-x="1054" 
d="M519 1010v-201h-107v-809h-253v809h-102v201h102q1 159 42 236q65 123 245 123q22 0 73 -4v-219q-70 1 -89 -27q-18 -25 -18 -109h107zM692 1010h253v-1010h-253v1010zM818 1393q58 0 99 -41q40 -40 40 -97t-40 -98q-41 -40 -99 -40q-57 0 -96 40q-41 42 -41 100
q0 54 41 95q39 41 96 41z" />
    <glyph glyph-name="fl" unicode="&#xfb02;" horiz-adv-x="1082" 
d="M519 1010v-201h-107v-809h-253v809h-102v201h102q1 159 42 236q65 123 245 123q22 0 73 -4v-219q-70 1 -89 -27q-18 -25 -18 -109h107zM706 1365h253v-1365h-253v1365z" />
    <glyph glyph-name="glyph1" horiz-adv-x="0" 
 />
    <glyph glyph-name="glyph2" horiz-adv-x="512" 
 />
    <glyph glyph-name="glyph155" horiz-adv-x="512" 
 />
    <glyph glyph-name="glyph172" horiz-adv-x="887" 
 />
    <glyph glyph-name="glyph210" horiz-adv-x="512" 
 />
    <glyph glyph-name="Caron" 
d="M636 1440h-247l-151 253h179l95 -140l96 140h179z" />
    <glyph glyph-name="Circumflex" 
d="M389 1693h247l151 -253h-179l-95 140l-96 -140h-179z" />
    <glyph glyph-name="Grave" 
d="M471 1693l135 -253h-157l-246 253h268z" />
    <glyph glyph-name="Acute" 
d="M554 1693h268l-247 -253h-156z" />
    <glyph glyph-name="Ring" 
d="M511 1782q76 0 129 -53t53 -128t-53 -128t-129 -53t-127 53q-53 55 -53 130q0 71 53 126q51 53 127 53zM511 1700q-41 0 -69 -29q-29 -30 -29 -69q0 -41 29 -71q28 -29 69 -29q42 0 71 29t29 70q0 42 -29 70q-30 29 -71 29z" />
    <glyph glyph-name="Dotaccent" 
d="M511 1707q52 0 88 -36t36 -87t-36 -87t-88 -36q-51 0 -86 36q-36 37 -36 88q0 49 36 86q35 36 86 36z" />
    <glyph glyph-name="Dieresis" 
d="M347 1707q52 0 88 -36t36 -87t-36 -87t-88 -36q-51 0 -86 36q-36 37 -36 88q0 49 36 86q35 36 86 36zM675 1707q52 0 88 -36t36 -87t-36 -87t-88 -36q-51 0 -86 36q-36 37 -36 88q0 49 36 86q35 36 86 36z" />
    <glyph glyph-name="Cedilla" 
d="M636 -109q-5 -67 -22 -104l-68 -149h-157l37 149q3 11 7 82q-1 7 -7 22h210z" />
    <glyph glyph-name="Ogonek" horiz-adv-x="922" 
d="M514 0h132q-100 -81 -100 -145q0 -69 79 -69q26 0 59 11l14 -122q-53 -18 -105 -18q-82 0 -129 39q-55 45 -55 117q0 105 105 187z" />
    <glyph glyph-name="Macron" 
d="M233 1618h558v-143h-558v143z" />
    <glyph glyph-name="commaaccent.sc" 
d="M418 -109h238l-138 -386h-207z" />
    <glyph glyph-name="Comma.high" 
d="M691 1365h238l-138 -386h-207z" />
    <glyph glyph-name="Dieresis.alt" 
d="M375 1707q52 0 88 -36t36 -87t-36 -87t-88 -36q-51 0 -86 36q-36 37 -36 88q0 49 36 86q35 36 86 36zM648 1707q52 0 88 -36t36 -87t-36 -87t-88 -36q-51 0 -86 36q-36 37 -36 88q0 49 36 86q35 36 86 36z" />
    <glyph glyph-name="commareversed" 
d="M659 1116h-239l139 386h206z" />
    <glyph glyph-name="dieresis.alt" 
d="M375 1379q52 0 88 -36t36 -87t-36 -87t-88 -36q-51 0 -86 36q-36 38 -36 88q0 49 36 86q35 36 86 36zM648 1379q52 0 88 -36t36 -87q0 -50 -36 -87q-36 -36 -88 -36q-51 0 -86 36q-36 38 -36 88q0 49 36 86q35 36 86 36z" />
    <glyph glyph-name="comma.high" 
d="M691 1365h238l-138 -386h-207z" />
    <glyph glyph-name="commasuperior" horiz-adv-x="360" 
d="M128 704h167l-104 -267h-147z" />
    <glyph glyph-name="periodsuperior" horiz-adv-x="360" 
d="M176 716q38 0 65 -27q27 -26 27 -64t-27 -65q-26 -26 -64 -26q-39 0 -64 26q-27 28 -27 66q0 36 27 63q26 27 63 27z" />
    <glyph glyph-name="Hungarumlaut" 
d="M417 1693h240l-232 -253h-143zM704 1693h240l-232 -253h-143z" />
    <glyph glyph-name="commaaccent" 
d="M418 -109h238l-138 -386h-207z" />
    <glyph glyph-name="Tilde" 
d="M666 1693h114q-1 -101 -28 -153q-42 -83 -126 -83q-39 0 -74 15l-67 28q-48 20 -69 20q-19 0 -35 -18q-17 -20 -19 -57h-117q-1 78 20 131q17 42 57 70q37 26 82 26q51 0 161 -40q37 -13 52 -13q43 0 49 74z" />
    <glyph glyph-name="Breve" 
d="M654 1720h138q1 -74 -30 -133q-73 -140 -248 -140q-176 0 -249 140q-31 59 -30 133h138q30 -117 141 -117q110 0 140 117z" />
  </font>
</defs>
</svg>
