<?xml version="1.0" standalone="no"?>
<!DOCTYPE svg PUBLIC "-//W3C//DTD SVG 1.1//EN" "http://www.w3.org/Graphics/SVG/1.1/DTD/svg11.dtd" >
<svg xmlns="http://www.w3.org/2000/svg" xmlns:xlink="http://www.w3.org/1999/xlink" version="1.1">
<metadata>
Created by FontForge 20170731 at Tue Apr 19 23:18:43 2011
 By Aleksey,,,
(URW)++,Copyright 2006 by (URW)++ Design &#38; Development
</metadata>
<defs>
<font id="NeuzeitGro-Lig" horiz-adv-x="1024" >
  <font-face 
    font-family="NeuzeitGro-Lig"
    font-weight="400"
    font-stretch="normal"
    units-per-em="2048"
    panose-1="0 0 0 0 0 0 0 0 0 0"
    ascent="1514"
    descent="-534"
    x-height="942"
    cap-height="1365"
    bbox="-382 -513 1930 1756"
    underline-thickness="79"
    underline-position="-235"
    unicode-range="U+0020-FB04"
  />
<missing-glyph horiz-adv-x="614" 
d="M61 0v1365h492v-1365h-492zM492 61v1243h-370v-1243h370z" />
    <glyph glyph-name=".notdef" horiz-adv-x="614" 
d="M61 0v1365h492v-1365h-492zM492 61v1243h-370v-1243h370z" />
    <glyph glyph-name=".null" horiz-adv-x="0" 
 />
    <glyph glyph-name="nonmarkingreturn" horiz-adv-x="682" 
 />
    <glyph glyph-name="space" unicode=" " horiz-adv-x="614" 
 />
    <glyph glyph-name="exclam" unicode="!" horiz-adv-x="495" 
d="M301 1365v-1085h-106v1085h106zM248 157q36 0 60 -25q23 -24 23 -60q0 -38 -30 -63q-22 -19 -54 -19q-36 0 -60 25q-23 24 -23 58q0 40 30 65q22 19 54 19z" />
    <glyph glyph-name="quotedbl" unicode="&#x22;" horiz-adv-x="607" 
d="M216 819h-86l-15 546h116zM478 819h-86l-14 546h115z" />
    <glyph glyph-name="numbersign" unicode="#" 
d="M893 586l-2 -85h-216l-62 -446h-85l61 446h-182l-62 -446h-88l61 446h-229l2 85h239l27 198h-222l2 86h232l58 413h90l-57 -413h180l60 413h83l-56 -413h209l-2 -86h-219l-27 -198h205zM634 789h-191l-30 -208h192z" />
    <glyph glyph-name="dollar" unicode="$" 
d="M531 1223v-493q146 -60 205 -98q69 -45 113 -127q39 -75 39 -160q0 -175 -148 -276q-82 -56 -209 -69v-196h-77v196q-119 8 -203 66q-137 95 -137 243q0 16 2 45h93q0 -80 32 -132q69 -112 213 -125v552q-137 53 -196 92q-59 40 -97 110q-37 69 -37 148q0 120 79 211
q81 92 251 119v147h77v-147q89 -14 140 -39q184 -90 188 -294h-101q-9 54 -19 82q-22 62 -98 108q-42 25 -110 37zM454 1223q-82 -11 -131 -43q-96 -62 -96 -178q0 -171 227 -240v461zM531 97q89 6 145 43q44 30 71 76q36 58 36 124q0 122 -105 200q-54 40 -147 75v-518z
" />
    <glyph glyph-name="percent" unicode="%" horiz-adv-x="1179" 
d="M488 1123v-224q0 -91 -29 -137q-21 -34 -65 -54q-46 -21 -98 -21q-76 0 -127 39q-62 47 -62 116l1 58l-1 223q-1 97 17 139q23 52 79 79q44 22 96 22q85 0 141 -53q38 -35 44 -76q4 -24 4 -111zM175 1122v-191q0 -77 5 -95q12 -43 54 -65q29 -15 64 -15q73 0 105 54
q17 29 17 111v223q0 149 -118 149q-69 0 -102 -39q-21 -24 -23 -55q-2 -23 -2 -77zM1073 436v-225q0 -90 -29 -136q-21 -34 -66 -54.5t-98 -20.5q-76 0 -127 39q-62 46 -62 116v57v224q-1 96 17 139q23 52 79 79q44 22 97 22q86 0 141 -53q37 -36 44 -76q4 -24 4 -111z
M759 435v-191q0 -77 5 -95q12 -43 54 -65q30 -15 65 -15q73 0 105 54q17 29 17 110v224q0 149 -119 149q-69 0 -102 -39q-20 -24 -23 -55q-2 -24 -2 -77zM1097 1336l-955 -1349l-60 44l955 1347z" />
    <glyph glyph-name="ampersand" unicode="&#x26;" horiz-adv-x="1179" 
d="M915 278l210 -280h-108l-153 215q-93 -98 -155 -147q-111 -89 -235 -89q-167 0 -280 126q-99 112 -99 260q0 162 136 279q78 66 205 143q-61 82 -80 113q-47 76 -47 149q0 94 65 160q74 76 185 76q100 0 170 -66q69 -66 69 -163q0 -77 -49 -148q-29 -44 -104 -97
q-8 -6 -72 -49l291 -402q90 95 189 197l72 -67q-107 -103 -210 -210zM519 836q79 50 110 77q65 57 65 140q0 65 -41 100q-39 32 -96 32q-75 0 -115 -49q-28 -34 -28 -87q0 -60 28 -108q10 -16 77 -105zM492 708q-27 -18 -41 -27q-157 -106 -199 -165q-54 -77 -54 -164
q0 -103 69 -183q80 -93 200 -93q101 0 182 66q43 34 153 150z" />
    <glyph glyph-name="quotesingle" unicode="'" horiz-adv-x="347" 
d="M218 819h-88l-15 546h118z" />
    <glyph glyph-name="parenleft" unicode="(" horiz-adv-x="588" 
d="M520 -412l-65 -72q-359 411 -359 925q0 367 176 693q74 137 183 262l65 -74q-102 -123 -164 -236q-73 -137 -115 -298q-45 -171 -45 -335q0 -308 151 -609q71 -140 173 -256z" />
    <glyph glyph-name="parenright" unicode=")" horiz-adv-x="588" 
d="M68 1324l64 72q360 -412 360 -926q0 -367 -176 -693q-74 -136 -184 -261l-64 74q103 122 164 236q73 136 115 297q45 171 45 336q0 308 -151 608q-71 140 -173 257z" />
    <glyph glyph-name="asterisk" unicode="*" horiz-adv-x="874" 
d="M435 983l-158 -210l-60 45l159 209l-253 79l22 74l253 -74v255h76v-255l255 74l23 -74l-256 -79l153 -209l-57 -45z" />
    <glyph glyph-name="plus" unicode="+" 
d="M56 719h421v390h68v-390h422v-66h-422v-390h-68v390h-421v66z" />
    <glyph glyph-name="comma" unicode="," horiz-adv-x="440" 
d="M305 129l-220 -483l-79 32l201 491z" />
    <glyph glyph-name="hyphen" unicode="-" horiz-adv-x="410" 
d="M410 543v-96h-410v96h410z" />
    <glyph glyph-name="period" unicode="." horiz-adv-x="440" 
d="M221 157q36 0 60 -25q23 -24 23 -60q0 -38 -30 -63q-22 -19 -54 -19q-36 0 -60 25q-23 24 -23 58q0 40 30 65q22 19 54 19z" />
    <glyph glyph-name="slash" unicode="/" horiz-adv-x="810" 
d="M722 1365l-691 -1816h-108l691 1816h108z" />
    <glyph glyph-name="zero" unicode="0" 
d="M906 958v-549q0 -149 -34 -227q-46 -107 -155 -159q-91 -44 -207 -44q-200 0 -308 121q-59 66 -72 144q-11 72 -11 203v455q0 176 26 245q82 214 364 214q188 0 298 -101q65 -60 83 -137q16 -64 16 -165zM228 898v-451q0 -102 4 -143.5t16 -67.5q36 -81 124 -122
q65 -30 142 -30q101 0 176 49q73 48 95 142q12 52 12 134v544q0 118 -36 175q-82 128 -248 128q-159 0 -236 -113q-34 -51 -41 -105q-8 -54 -8 -140z" />
    <glyph glyph-name="one" unicode="1" 
d="M554 1169l-329 -235v110l438 321v-1365h-109v1169z" />
    <glyph glyph-name="two" unicode="2" 
d="M307 108h530v-108h-733l474 656q104 144 146 220q45 84 45 158q0 115 -90 177q-73 51 -172 51q-111 0 -178 -62t-69 -206h-111q23 368 366 368q180 0 281 -108q83 -88 83 -216q0 -99 -44 -184q-38 -74 -105 -165z" />
    <glyph glyph-name="three" unicode="3" 
d="M684 1229h-520v109h745l-415 -512q25 1 38 1q125 0 234 -81q76 -57 118 -147q39 -85 39 -182q0 -145 -79 -257q-62 -87 -160 -135q-96 -46 -213 -46q-192 0 -317 128q-63 65 -92 164l102 35q28 -78 74 -127q89 -95 225 -95q153 0 254 103q90 93 90 221q0 89 -48 168
q-88 146 -303 146q-70 0 -125 -22q-22 -10 -61 -31l-23 26z" />
    <glyph glyph-name="four" unicode="4" 
d="M651 322h-568v80l677 987v-959h178v-108h-178v-322h-109v322zM651 430v642l-443 -642h443z" />
    <glyph glyph-name="five" unicode="5" 
d="M287 1230v-396q109 41 213 41q168 0 284 -100q149 -129 149 -343q0 -210 -141 -338q-127 -115 -320 -115q-162 0 -282 96q-58 47 -90 103q-12 21 -30 66l110 40q40 -81 70 -113q82 -86 223 -86q156 0 257 113q87 98 87 237q0 146 -94 240q-95 95 -251 95q-112 0 -197 -53
q-38 -24 -97 -84v705h538v-108h-429z" />
    <glyph glyph-name="six" unicode="6" 
d="M713 1338l-351 -551q85 34 165 34q175 0 291 -112q127 -122 127 -299q0 -176 -124 -302q-128 -131 -310 -131q-120 0 -223 63t-158 169q-50 95 -50 210q0 73 25 136q17 45 56 108l416 675h136zM516 723q-150 0 -247 -111q-73 -84 -73 -198q0 -92 49 -176
q92 -156 268 -156q156 0 246 120q71 94 71 203q0 132 -91 224q-94 94 -223 94z" />
    <glyph glyph-name="seven" unicode="7" 
d="M755 1230h-568v108h733l-545 -1338h-125z" />
    <glyph glyph-name="eight" unicode="8" 
d="M636 753q80 -20 119 -44q84 -51 130 -138q43 -82 43 -187q0 -188 -127 -302q-117 -105 -292 -105q-130 0 -236 64q-88 53 -134 145q-43 85 -43 186q0 177 115 289q60 59 179 92q-106 34 -157 89q-77 86 -77 204q0 142 109 232q100 83 250 83q162 0 263 -96
q92 -88 92 -218q0 -127 -86 -214q-48 -48 -148 -80zM515 1262q-127 0 -197 -78q-50 -57 -50 -135q0 -116 91 -180q71 -50 153 -50q115 0 190 86q56 66 56 140q0 91 -83 162q-64 55 -160 55zM517 689q-144 0 -234 -110q-71 -86 -71 -193q0 -129 94 -220q86 -84 205 -84
q128 0 220 96q81 85 81 208q0 125 -87 214q-89 89 -208 89z" />
    <glyph glyph-name="nine" unicode="9" 
d="M663 551q-90 -36 -166 -36q-169 0 -288 113q-128 122 -128 302q0 178 125 303q129 128 313 128q183 0 309 -129q115 -117 115 -296q0 -128 -66 -238l-421 -698h-137zM518 1256q-158 0 -253 -123q-68 -89 -68 -198q0 -151 113 -247q86 -72 201 -72q153 0 248 116
q68 82 68 202q0 146 -97 237q-91 85 -212 85z" />
    <glyph glyph-name="colon" unicode=":" horiz-adv-x="440" 
d="M221 157q36 0 60 -25q23 -24 23 -60q0 -38 -30 -63q-22 -19 -54 -19q-36 0 -60 25q-23 24 -23 58q0 40 30 65q22 19 54 19zM221 703q36 0 60 -25q23 -24 23 -60q0 -38 -30 -63q-22 -19 -54 -19q-36 0 -60 25q-23 24 -23 58q0 40 30 65q22 19 54 19z" />
    <glyph glyph-name="semicolon" unicode=";" horiz-adv-x="440" 
d="M305 129l-220 -483l-79 32l201 491zM227 703q36 0 60 -25q23 -24 23 -60q0 -38 -30 -63q-22 -19 -54 -19q-36 0 -60 25q-23 24 -23 58q0 40 30 65q22 19 54 19z" />
    <glyph glyph-name="less" unicode="&#x3c;" 
d="M955 1137v-111l-768 -341l768 -343v-109l-887 403v98z" />
    <glyph glyph-name="equal" unicode="=" 
d="M56 859h912v-65h-912v65zM56 577h912v-65h-912v65z" />
    <glyph glyph-name="greater" unicode="&#x3e;" 
d="M69 233v110l768 342l-768 342v110l887 -404v-97z" />
    <glyph glyph-name="question" unicode="?" horiz-adv-x="849" 
d="M401 283h-95q2 105 2 141q1 107 18 155q27 82 147 174q90 69 118 112q48 71 48 160q0 101 -58 173q-66 83 -178 83q-88 0 -155 -58q-69 -60 -69 -152q0 -11 1 -35h-102q0 105 39 178q86 162 281 162q175 0 276 -132q71 -93 71 -215q0 -132 -85 -235q-44 -54 -130 -119
q-69 -53 -90 -84q-26 -38 -33 -88q-6 -35 -6 -112v-108zM360 157q36 0 60 -25q23 -24 23 -60q0 -38 -30 -63q-22 -19 -54 -19q-36 0 -60 25q-23 24 -23 58q0 40 30 65q22 19 54 19z" />
    <glyph glyph-name="at" unicode="@" horiz-adv-x="1599" 
d="M1364 368h82q-41 -108 -129 -195q-95 -94 -218 -146q-129 -54 -270 -54q-270 0 -469 184q-104 96 -162 225q-61 138 -61 292q0 298 209 503q95 93 219 145q128 53 264 53q169 0 323 -80q169 -87 250 -243q61 -116 61 -257q0 -210 -130 -363q-83 -99 -199 -145
q-64 -26 -128 -26q-59 0 -108 33q-37 25 -48 74q-109 -107 -233 -107q-99 0 -164 82q-58 71 -58 183q0 204 122 376q65 91 157 143q73 41 159 41q111 0 165 -65q15 -19 25 -48l27 86h159l-186 -542q-40 -116 -40 -154q0 -40 46 -40q64 0 135 47q130 85 185 237q33 92 33 187
q0 207 -161 351q-167 149 -391 149q-245 0 -423 -170q-188 -182 -188 -449q0 -279 198 -460q177 -162 413 -162q171 0 323 92q126 77 211 223zM868 536l111 323q6 18 6 40q0 63 -35 102q-29 33 -77 33q-103 0 -193 -152q-53 -90 -94 -213q-45 -135 -45 -239q0 -49 29 -82
q30 -33 79 -33q73 0 125 58q63 71 94 163z" />
    <glyph glyph-name="A" unicode="A" horiz-adv-x="1212" 
d="M936 358h-659l-145 -358h-118l537 1365h127l520 -1365h-129zM894 464l-284 746l-291 -746h575z" />
    <glyph glyph-name="B" unicode="B" horiz-adv-x="1106" 
d="M743 697q98 -18 152 -59q122 -90 122 -269q0 -139 -77 -233q-75 -92 -208 -120q-76 -16 -224 -16h-324v1365h357q173 0 284 -81q130 -94 130 -279q0 -132 -73 -216q-42 -49 -139 -92zM300 1261v-525h206q165 0 241 58q99 74 99 214q0 113 -68 181q-52 51 -145 65
q-49 7 -168 7h-165zM300 632v-528h191q159 0 219 16q193 52 193 249q0 142 -94 208q-80 55 -246 55h-263z" />
    <glyph glyph-name="C" unicode="C" horiz-adv-x="1287" 
d="M1146 295l86 -75q-81 -109 -170 -161q-143 -83 -323 -83q-286 0 -463 199q-93 105 -141 255q-39 122 -39 251q0 194 85 364q79 159 222 250q147 94 334 94q298 0 495 -242l-86 -71q-79 86 -133 123q-124 84 -276 84q-146 0 -267 -79q-121 -78 -184 -209
q-70 -147 -70 -315q0 -183 79 -332q63 -117 185 -191q122 -75 263 -75q151 0 273 84q61 42 130 129z" />
    <glyph glyph-name="D" unicode="D" horiz-adv-x="1265" 
d="M184 0v1365h350q272 0 443 -156q191 -176 191 -499q0 -363 -215 -553q-177 -157 -474 -157h-295zM300 1261v-1157h64q273 0 376 42q309 127 309 564q0 207 -75 329q-134 222 -446 222h-228z" />
    <glyph glyph-name="E" unicode="E" horiz-adv-x="980" 
d="M300 1261v-518h570v-104h-570v-535h570v-104h-686v1365h686v-104h-570z" />
    <glyph glyph-name="F" unicode="F" horiz-adv-x="923" 
d="M300 1261v-518h561v-104h-561v-639h-116v1365h677v-104h-561z" />
    <glyph glyph-name="G" unicode="G" horiz-adv-x="1479" 
d="M749 724h635q1 -58 1 -83q0 -188 -72 -329q-74 -143 -203 -231q-155 -105 -354 -105q-194 0 -351 99q-145 90 -220 234q-88 168 -88 369q0 165 60 314q74 182 224 286q159 111 378 111q298 0 489 -241l-85 -71q-73 79 -119 113q-127 93 -288 93q-167 0 -306 -102
q-125 -92 -183 -235q-51 -124 -51 -263q0 -173 76 -320q61 -118 175 -194q129 -86 279 -86q185 0 340 127q143 117 176 298q8 41 10 112h-523v104z" />
    <glyph glyph-name="H" unicode="H" horiz-adv-x="1343" 
d="M300 627v-627h-116v1365h116v-634h742v634h116v-1365h-116v627h-742z" />
    <glyph glyph-name="I" unicode="I" horiz-adv-x="485" 
d="M300 1365v-1365h-116v1365h116z" />
    <glyph glyph-name="J" unicode="J" horiz-adv-x="755" 
d="M598 1365v-974q0 -202 -129 -304q-112 -88 -339 -88q-30 0 -82 1v99q65 -5 101 -5q160 0 240 73q57 52 77 133q16 64 16 199v762h-434v104h550z" />
    <glyph glyph-name="K" unicode="K" horiz-adv-x="1080" 
d="M300 641v-641h-116v1365h116v-648l606 648h143l-635 -685l635 -680h-160z" />
    <glyph glyph-name="L" unicode="L" horiz-adv-x="850" 
d="M300 116h495v-116h-611v1365h116v-1249z" />
    <glyph glyph-name="M" unicode="M" horiz-adv-x="1674" 
d="M300 1078v-1078h-116v1365h94l557 -1126l564 1126h91v-1365h-116v1077l-539 -1077z" />
    <glyph glyph-name="N" unicode="N" horiz-adv-x="1390" 
d="M300 1136v-1136h-116v1365h95l811 -1120v1120h116v-1365h-88z" />
    <glyph glyph-name="O" unicode="O" horiz-adv-x="1497" 
d="M753 1389q180 0 336 -101q311 -200 311 -622q0 -201 -88 -362q-84 -156 -260 -250q-146 -78 -304 -78q-196 0 -364 115q-287 196 -287 584q0 328 201 524q193 190 455 190zM751 1282q-257 0 -414 -210q-120 -160 -120 -390q0 -256 144 -425q148 -175 385 -175
q133 0 249 63q146 80 213 215q73 146 73 312q0 293 -165 455q-87 86 -199 125q-87 30 -166 30z" />
    <glyph glyph-name="P" unicode="P" horiz-adv-x="1065" 
d="M300 549v-549h-116v1365h328q242 0 362 -97q136 -110 136 -308q0 -158 -87 -267q-64 -81 -158 -113q-88 -31 -234 -31h-231zM300 653h208q115 0 189 24q92 29 146 110q51 74 51 170q0 144 -106 228q-74 59 -205 72q-45 4 -112 4h-171v-608z" />
    <glyph glyph-name="Q" unicode="Q" horiz-adv-x="1510" 
d="M1429 56l-79 -78l-157 171q-98 -83 -176 -117q-129 -56 -263 -56q-175 0 -332 93q-321 191 -321 609q0 328 196 520q195 191 457 191q169 0 320 -86q159 -91 241 -238q93 -169 93 -382q0 -167 -55 -305q-25 -62 -88 -147zM1089 416l97 -104q48 82 68 145q32 101 32 218
q0 307 -183 471q-153 137 -349 137q-156 0 -290 -91q-244 -165 -244 -508q0 -164 65 -306q61 -135 189 -217q124 -79 280 -79q131 0 242 59q50 26 121 90l-102 115z" />
    <glyph glyph-name="R" unicode="R" horiz-adv-x="1122" 
d="M300 590v-590h-116v1365h349q145 0 258 -60q91 -48 140 -147q39 -80 39 -177q0 -207 -160 -317q-103 -71 -274 -74h-78l612 -590h-159zM300 681h196q167 0 257 69q99 76 99 225q0 286 -327 286h-225v-580z" />
    <glyph glyph-name="S" unicode="S" horiz-adv-x="972" 
d="M86 349h107q7 -99 39 -155q65 -114 229 -114q111 0 196 57q109 73 109 222q0 99 -61 157q-64 62 -243 119q-153 50 -199 78q-171 101 -171 302q0 176 122 284q101 90 262 90q180 0 282 -112q92 -102 95 -231v-33h-114q-2 105 -35 159q-32 53 -93 82q-63 31 -136 31
q-119 0 -194 -77q-73 -76 -73 -187q0 -114 75 -173q42 -33 105 -58t146 -53q143 -49 201 -91q145 -103 145 -286q0 -118 -63 -215q-111 -169 -345 -169q-198 0 -297 110q-90 101 -90 231q0 13 1 32z" />
    <glyph glyph-name="T" unicode="T" horiz-adv-x="888" 
d="M502 1261v-1261h-116v1261h-359v104h834v-104h-359z" />
    <glyph glyph-name="U" unicode="U" horiz-adv-x="1301" 
d="M273 1365v-818q0 -196 42 -281q48 -98 166 -148q85 -36 164 -36q100 0 199 56q116 65 155 176q23 67 23 239v812h122v-818q0 -205 -44 -302q-63 -137 -199 -209q-112 -60 -249 -60q-165 0 -292 84q-139 91 -181 239q-22 76 -22 248v818h116z" />
    <glyph glyph-name="V" unicode="V" horiz-adv-x="1109" 
d="M550 191l421 1174h125l-496 -1365h-100l-486 1365h124z" />
    <glyph glyph-name="W" unicode="W" horiz-adv-x="1766" 
d="M1276 225l359 1140h118l-435 -1365h-84l-347 1165l-347 -1165h-87l-439 1365h123l360 -1140l343 1140h102z" />
    <glyph glyph-name="X" unicode="X" horiz-adv-x="1100" 
d="M553 580l-391 -580h-148l471 682l-471 683h148l391 -586l395 586h138l-464 -683l464 -682h-138z" />
    <glyph glyph-name="Y" unicode="Y" horiz-adv-x="1054" 
d="M589 600v-600h-116v600l-480 765h138l397 -643l394 643h139z" />
    <glyph glyph-name="Z" unicode="Z" horiz-adv-x="1090" 
d="M231 104h755v-104h-959l845 1261h-752v104h957z" />
    <glyph glyph-name="bracketleft" unicode="[" horiz-adv-x="588" 
d="M171 1365h273v-75h-177v-1666h177v-75h-273v1816z" />
    <glyph glyph-name="backslash" unicode="\" horiz-adv-x="810" 
d="M89 1365h108l691 -1816h-109z" />
    <glyph glyph-name="bracketright" unicode="]" horiz-adv-x="588" 
d="M416 1365v-1816h-273v75h177v1666h-177v75h273z" />
    <glyph glyph-name="asciicircum" unicode="^" 
d="M185 783h-109l372 584h128l373 -584h-111l-328 508z" />
    <glyph glyph-name="underscore" unicode="_" 
d="M0 -156h1024v-79h-1024v79z" />
    <glyph glyph-name="grave" unicode="`" 
d="M404 1338l169 -263h-87l-225 263h143z" />
    <glyph glyph-name="a" unicode="a" horiz-adv-x="1148" 
d="M875 768v174h102v-942h-102v208q-139 -225 -352 -225q-191 0 -318 141q-118 130 -118 347q0 246 152 381q121 107 282 107q127 0 232 -67q63 -40 122 -124zM529 862q-163 0 -251 -121q-85 -117 -85 -276q0 -183 110 -292q93 -93 221 -93q160 0 266 136q46 60 69 143
q19 67 19 127q0 175 -100 275q-100 101 -249 101z" />
    <glyph glyph-name="b" unicode="b" horiz-adv-x="1140" 
d="M273 182v-182h-102v1365h102v-609q65 94 139 142q96 61 208 61q224 0 342 -172q91 -134 91 -320q0 -225 -132 -359q-122 -125 -300 -125q-125 0 -228 72q-61 42 -120 127zM614 862q-155 0 -255 -117q-88 -102 -88 -271q0 -185 97 -292q92 -102 241 -102q169 0 259 123
q79 107 79 261q0 168 -94 288q-87 110 -239 110z" />
    <glyph glyph-name="c" unicode="c" horiz-adv-x="923" 
d="M804 196l64 -74q-69 -67 -135 -96q-94 -43 -202 -43q-198 0 -323 139q-121 134 -121 348q0 146 64 266q66 122 195 182q90 41 196 41q192 0 326 -134l-64 -69q-117 106 -263 106q-166 0 -265 -122q-83 -103 -83 -265q0 -203 116 -309q95 -86 224 -86q157 0 271 116z" />
    <glyph glyph-name="d" unicode="d" horiz-adv-x="1140" 
d="M867 780v585h102v-1365h-102v182q-61 -84 -120 -126q-102 -73 -226 -73q-191 0 -315 139q-63 71 -95 179q-23 80 -23 166q0 138 58 257q52 108 150 172q99 63 219 63q104 0 200 -46q81 -40 152 -133zM534 862q-173 0 -266 -137q-74 -109 -74 -260q0 -182 102 -290
q89 -95 226 -95q148 0 248 108q51 55 77 144q21 74 21 141q0 182 -98 288q-93 101 -236 101z" />
    <glyph glyph-name="e" unicode="e" horiz-adv-x="1087" 
d="M1008 427h-811q11 -119 66 -197q105 -150 285 -150q117 0 223 78q59 43 94 105l85 -45q-37 -74 -111 -133q-126 -102 -288 -102q-143 0 -259 74q-101 66 -152 170q-53 109 -53 239q0 213 125 350q133 143 338 143q239 0 370 -184q92 -128 92 -283q0 -20 -4 -65zM899 523
q-6 110 -55 184q-45 67 -116 107q-83 48 -180 48q-128 0 -224 -81q-83 -70 -110 -187q-6 -24 -12 -71h697z" />
    <glyph glyph-name="f" unicode="f" horiz-adv-x="503" 
d="M287 846v-846h-103v846h-141v96h141v166q0 125 60 189q66 70 165 70q13 0 37 -2v-87q-82 -11 -107 -29q-53 -36 -53 -141v-166h160v-96h-159z" />
    <glyph glyph-name="g" unicode="g" horiz-adv-x="1146" 
d="M873 757v185h102v-987q0 -206 -122 -322q-120 -115 -325 -115q-259 0 -392 165l77 75q57 -61 90 -83q42 -27 115 -44q57 -13 114 -13q117 0 208 54q83 48 113 135q20 60 20 148v252q-63 -103 -121 -147q-101 -77 -235 -77q-188 0 -314 147q-116 135 -116 340
q0 150 69 278q114 211 366 211q112 0 204 -55q74 -44 147 -147zM537 862q-157 0 -257 -118q-87 -102 -87 -269q0 -201 124 -311q95 -84 213 -84q153 0 261 128q46 53 63 142q14 76 14 128q0 101 -20 164q-28 89 -109 150q-92 70 -202 70z" />
    <glyph glyph-name="h" unicode="h" horiz-adv-x="1018" 
d="M273 1365v-569q60 76 117 111q85 52 180 52q88 0 164 -43q75 -43 101 -124q19 -58 19 -153v-639h-102v646q0 216 -194 216q-132 0 -218 -103q-42 -50 -55 -99q-12 -45 -12 -113v-547h-102v1365h102z" />
    <glyph glyph-name="i" unicode="i" horiz-adv-x="444" 
d="M272 942v-942h-102v942h102zM223 1283q34 0 57 -26q19 -23 19 -52q0 -33 -25 -56q-22 -20 -52 -20q-35 0 -58 26q-19 22 -19 51q0 33 25 57q21 20 53 20z" />
    <glyph glyph-name="j" unicode="j" horiz-adv-x="444" 
d="M273 942v-1076q0 -122 -31 -186q-40 -79 -116 -123q-66 -37 -140 -37q-10 0 -31 1v98h13q58 0 114 39q89 63 89 208v1076h102zM223 1283q34 0 57 -26q19 -23 19 -52q0 -33 -25 -56q-22 -20 -52 -20q-35 0 -58 26q-19 22 -19 51q0 33 25 57q22 20 53 20z" />
    <glyph glyph-name="k" unicode="k" horiz-adv-x="877" 
d="M273 435v-435h-102v1365h102v-862l436 439h140l-470 -465l469 -477h-140z" />
    <glyph glyph-name="l" unicode="l" horiz-adv-x="444" 
d="M273 0h-102v1365h102v-1365z" />
    <glyph glyph-name="m" unicode="m" horiz-adv-x="1559" 
d="M173 942h100v-137q51 72 104 106q74 48 167 48q107 0 177 -57q45 -36 76 -121q49 86 109 125q82 53 197 53q173 0 244 -105q37 -54 43 -116q5 -53 5 -142v-596h-102v565q0 124 -5 149q-31 148 -211 148q-127 0 -190 -88q-53 -74 -53 -209v-565h-102v565q0 116 -16 166
q-41 131 -190 131q-117 0 -187 -84q-66 -79 -66 -213v-565h-102z" />
    <glyph glyph-name="n" unicode="n" horiz-adv-x="1018" 
d="M171 942h102v-142q128 159 294 159q127 0 208 -74q55 -51 69 -119q10 -45 10 -111v-655h-102v609q0 138 -40 191q-49 63 -158 63q-120 0 -206 -87q-41 -42 -58 -85t-17 -114v-577h-102v942z" />
    <glyph glyph-name="o" unicode="o" horiz-adv-x="1100" 
d="M552 959q218 0 356 -167q104 -126 104 -322q0 -113 -47 -218q-60 -134 -191 -209q-105 -60 -228 -60q-135 0 -248 70q-211 132 -211 421q0 230 137 359q134 126 328 126zM551 862q-170 0 -273 -123q-85 -102 -85 -270q0 -179 100 -283q103 -106 258 -106q176 0 277 135
q78 106 78 256q0 187 -106 291q-103 100 -249 100z" />
    <glyph glyph-name="p" unicode="p" horiz-adv-x="1144" 
d="M171 942h102v-201q62 102 123 147q97 71 237 71q182 0 299 -118q128 -130 128 -354q0 -227 -119 -365q-119 -139 -310 -139q-110 0 -207 49q-56 29 -91 65q-25 25 -60 72v-620h-102v1393zM622 862q-188 0 -284 -157q-64 -104 -64 -250q0 -188 109 -286q98 -89 232 -89
q182 0 272 144q65 104 65 254q0 180 -87 277q-52 57 -125 84q-60 23 -118 23z" />
    <glyph glyph-name="q" unicode="q" horiz-adv-x="1139" 
d="M866 942h102v-1393h-102v637q-65 -94 -131 -138q-100 -65 -220 -65q-132 0 -240 72q-188 127 -188 424q0 221 115 345q125 135 324 135q121 0 214 -64q69 -48 126 -141v188zM528 862q-170 0 -264 -139q-71 -105 -71 -253q0 -191 109 -301q88 -89 223 -89q164 0 258 123
q42 54 61 140q15 64 15 121q0 195 -97 297q-96 101 -234 101z" />
    <glyph glyph-name="r" unicode="r" horiz-adv-x="634" 
d="M171 942h102v-169q40 86 88 123q80 63 191 63q19 0 41 -1v-99h-34q-117 0 -193 -82q-56 -60 -77 -136q-16 -54 -16 -150v-491h-102v942z" />
    <glyph glyph-name="s" unicode="s" horiz-adv-x="833" 
d="M729 693h-107q0 53 -19 83q-53 89 -192 89q-98 0 -154 -46q-52 -41 -52 -114q0 -86 77 -129q40 -23 146 -49q127 -32 182 -65q71 -43 105 -116q23 -52 23 -105q0 -128 -110 -205q-77 -53 -212 -53q-307 0 -338 280h104q6 -70 45 -113q66 -74 193 -74q97 0 152 44
q60 48 60 120t-62 121q-44 34 -173 65q-153 36 -219 95q-79 72 -79 180q0 128 109 203q80 55 205 55q171 0 258 -103q53 -64 58 -163z" />
    <glyph glyph-name="t" unicode="t" horiz-adv-x="505" 
d="M280 846v-697q0 -37 16 -48q13 -8 52 -8h86v-93h-111q-75 0 -109 29q-36 31 -36 101v716h-143v96h143v318h102v-318h154v-96h-154z" />
    <glyph glyph-name="u" unicode="u" horiz-adv-x="962" 
d="M719 942h103v-608q0 -127 -39 -190q-45 -74 -125 -117q-81 -44 -176 -44q-151 0 -251 99q-92 91 -92 252v608h102v-608q0 -123 73 -192q66 -62 166 -62q117 0 188 78q51 56 51 176v608z" />
    <glyph glyph-name="v" unicode="v" horiz-adv-x="859" 
d="M733 942h105l-360 -942h-111l-347 942h107l298 -802z" />
    <glyph glyph-name="w" unicode="w" horiz-adv-x="1379" 
d="M1252 942h106l-348 -942h-77l-243 787l-256 -787h-81l-333 942h105l267 -755l246 755h104l235 -755z" />
    <glyph glyph-name="x" unicode="x" horiz-adv-x="877" 
d="M436 387l-292 -387h-130l357 468l-357 474h130l292 -396l303 396h125l-364 -474l342 -468h-125z" />
    <glyph glyph-name="y" unicode="y" horiz-adv-x="863" 
d="M414 171l315 771h113l-578 -1410h-113l207 502l-338 908h108z" />
    <glyph glyph-name="z" unicode="z" horiz-adv-x="801" 
d="M238 96h469v-96h-655l539 846h-477v96h657z" />
    <glyph glyph-name="braceleft" unicode="{" 
d="M424 506q64 -33 90 -93q20 -49 20 -139v-354q0 -92 22 -132q26 -49 85 -67q26 -9 85 -11v-89q-93 1 -148 13q-106 22 -136 135q-16 60 -16 159v340q0 105 -36 150q-27 32 -83 50v80q55 17 85 55q34 41 34 141v377q0 164 78 225q48 37 139 45q45 4 83 4v-93
q-94 -5 -135 -36q-57 -43 -57 -164v-370q0 -98 -26 -149q-22 -46 -84 -77z" />
    <glyph glyph-name="bar" unicode="|" 
d="M457 1365h109v-1706h-109v1706z" />
    <glyph glyph-name="braceright" unicode="}" 
d="M600 510q-64 33 -90 93q-20 49 -20 139v354q0 91 -22 131q-26 50 -85 68q-29 9 -85 11v89q87 0 148 -13q106 -21 136 -135q16 -61 16 -159v-340q0 -106 36 -150q26 -31 83 -50v-80q-55 -17 -86 -55q-33 -42 -33 -141v-378q0 -136 -52 -199q-41 -50 -102 -62
q-61 -13 -126 -13q-6 0 -20 1v93q94 5 135 35q57 43 57 165v370q0 97 26 149q23 46 84 77z" />
    <glyph glyph-name="asciitilde" unicode="~" horiz-adv-x="1365" 
d="M258 1208l-64 48q107 213 268 213q79 0 240 -84q103 -54 140 -64q33 -10 62 -10q73 0 129 57q37 38 74 105l65 -48q-102 -213 -277 -213q-44 0 -111 26q-25 9 -152 75q-110 57 -174 57q-69 0 -122 -54q-38 -38 -78 -108z" />
    <glyph glyph-name="uni00A0" unicode="&#xa0;" horiz-adv-x="614" 
 />
    <glyph glyph-name="exclamdown" unicode="&#xa1;" horiz-adv-x="495" 
d="M195 -416v1085h106v-1085h-106zM248 959q36 0 60 -25q23 -24 23 -58q0 -40 -30 -65q-22 -19 -54 -19q-36 0 -60 25q-23 24 -23 60q0 38 30 63q22 19 54 19z" />
    <glyph glyph-name="cent" unicode="&#xa2;" 
d="M597 1071v-785q71 4 125 31q55 28 108 82l64 -71q-66 -65 -125 -93q-63 -30 -172 -44v-158h-77v158q-140 24 -229 89q-177 129 -177 387q0 182 87 313q84 125 227 168q32 10 92 20v166h77v-166q188 -15 297 -143l-64 -69q-49 47 -99 75q-59 32 -134 40zM520 1071
q-104 -15 -171 -70q-133 -110 -133 -321q0 -219 145 -331q64 -50 159 -63v785z" />
    <glyph glyph-name="sterling" unicode="&#xa3;" 
d="M413 730h317v-88h-246q102 -105 102 -213q0 -118 -119 -239q39 -12 107 -44q107 -50 151 -50q62 0 94 50q15 24 18 68h110q-7 -77 -40 -126q-30 -44 -81 -74q-54 -31 -106 -31q-62 0 -209 70q-124 59 -172 59q-102 0 -103 -112h-111q0 70 34 121q62 94 162 94q9 0 29 -1
q126 96 126 204q0 76 -61 154q-20 25 -65 70h-225v88h147q-55 69 -75 109q-37 73 -37 159q0 155 109 256q116 108 278 108q104 0 192 -50q114 -66 145 -179q10 -38 12 -99h-107q1 16 1 27q0 78 -77 139q-80 62 -179 62q-123 0 -198 -91q-63 -75 -63 -163q0 -118 140 -278z
" />
    <glyph glyph-name="currency" unicode="&#xa4;" horiz-adv-x="1390" 
d="M157 223l181 186q-106 135 -106 293q0 119 63 225q16 26 45 65l-189 185l62 62l186 -186q52 38 90 58q96 51 206 51q149 0 293 -109l188 186l62 -62l-186 -185q106 -139 106 -293q0 -147 -105 -290l186 -185l-61 -62l-186 185q-135 -107 -292 -107q-147 0 -298 107
l-184 -185zM700 1068q-156 0 -263 -109q-105 -107 -105 -258t106 -258q107 -107 257 -107t257 107q106 107 106 258q0 154 -105 259q-110 108 -253 108z" />
    <glyph glyph-name="yen" unicode="&#xa5;" 
d="M317 860l-253 478h130l323 -627l312 627h131l-249 -478h208v-89l-253 1l-96 -184v-15h308v-89h-308v-484h-109v484h-315v89h315v15l-97 183h-259v89h212z" />
    <glyph glyph-name="brokenbar" unicode="&#xa6;" 
d="M457 1365h109v-672h-109v672zM457 314h109v-655h-109v655z" />
    <glyph glyph-name="section" unicode="&#xa7;" 
d="M844 1112h-106q-7 68 -42 108q-66 75 -168 75q-87 0 -149 -56q-59 -54 -59 -137q0 -81 60 -139q47 -45 91 -59l127 -40q129 -41 202 -121q94 -103 94 -256q0 -228 -219 -325q66 -50 97 -89q58 -73 58 -174q0 -137 -93 -228q-96 -95 -247 -95q-172 0 -274 115
q-91 102 -91 219q0 11 1 28h104q3 -81 30 -134q32 -62 97 -97q63 -35 137 -35q112 0 177 74q55 61 55 146t-70 147q-43 39 -85 54q-36 14 -141 40q-153 37 -229 132q-74 93 -74 219q0 267 248 359q-62 33 -100 87q-56 81 -56 176q0 122 93 208q87 79 208 79q119 0 212 -68
q103 -76 112 -213zM514 769q-117 0 -211 -92q-72 -71 -72 -180q0 -128 85 -208q74 -69 195 -69t195 69q85 80 85 208q0 108 -72 180q-43 42 -100 67t-105 25z" />
    <glyph glyph-name="dieresis" unicode="&#xa8;" 
d="M315 1277q33 0 55 -24q19 -20 19 -52q0 -35 -25 -56q-20 -18 -50 -18q-34 0 -56 24q-19 20 -19 51q0 36 24 57q21 18 52 18zM710 1277q33 0 55 -24q19 -20 19 -52q0 -35 -25 -56q-20 -18 -50 -18q-35 0 -56 24q-19 20 -19 51q0 36 24 57q21 18 52 18z" />
    <glyph glyph-name="copyright" unicode="&#xa9;" horiz-adv-x="1612" 
d="M1187 606q-10 -124 -83 -213q-106 -129 -290 -129q-193 0 -304 140q-89 110 -89 279q0 183 105 300q112 123 293 123q166 0 269 -105q74 -75 85 -173h-64q-17 76 -68 126q-85 84 -223 84q-155 0 -244 -114q-75 -96 -75 -241q0 -142 68 -232q91 -119 248 -119
q150 0 239 104q55 64 69 170h64zM816 1387q189 0 359 -104t259 -281q77 -151 77 -320q0 -198 -104 -367q-103 -170 -280 -260q-151 -77 -320 -77q-198 0 -368 104q-169 103 -260 280q-77 152 -77 319q0 200 104 370q101 167 282 259q150 77 328 77zM815 1326
q-271 0 -458 -188q-90 -90 -139 -209t-49 -248q0 -179 95 -335q94 -155 254 -237q136 -70 289 -70q180 0 333 95t235 257q69 137 69 292q0 181 -94 336q-91 153 -254 237q-134 70 -281 70z" />
    <glyph glyph-name="ordfeminine" unicode="&#xaa;" horiz-adv-x="747" 
d="M552 1030v86h80v-570h-80v103q-83 -113 -209 -113q-122 0 -203 84q-76 80 -76 211q0 149 98 231q77 64 179 64q132 0 211 -96zM346 1055q-97 0 -149 -69q-51 -67 -51 -159q0 -104 65 -167q56 -53 132 -53q96 0 158 78q53 66 53 155q0 100 -59 157q-60 58 -149 58z" />
    <glyph glyph-name="guillemotleft" unicode="&#xab;" horiz-adv-x="843" 
d="M194 478l213 -337h-99l-212 337l212 353h99zM522 478l212 -337h-98l-212 337l212 353h98z" />
    <glyph glyph-name="logicalnot" unicode="&#xac;" 
d="M848 0v462h-780v97h887v-559h-107z" />
    <glyph glyph-name="uni00AD" unicode="&#xad;" horiz-adv-x="410" 
d="M410 543v-96h-410v96h410z" />
    <glyph glyph-name="registered" unicode="&#xae;" horiz-adv-x="1612" 
d="M503 1079h340q120 0 186 -40q97 -59 97 -180q0 -145 -152 -199q70 -20 101 -62q27 -37 34 -98q2 -19 5 -97q3 -55 7 -87q3 -22 16 -48h-76q-15 24 -21 148q-6 101 -20 135q-33 80 -211 80h-230v-363h-76v811zM579 1023v-337h230q240 0 240 170q0 167 -221 167h-249z
M815 1387q189 0 360 -104q170 -104 259 -281q77 -151 77 -320q0 -198 -104 -368q-103 -169 -280 -259q-151 -77 -320 -77q-198 0 -368 104q-169 103 -260 280q-77 151 -77 319q0 199 104 370q101 167 281 260q150 76 328 76zM814 1326q-270 0 -457 -187q-90 -91 -139 -210
t-49 -248q0 -180 95 -335q94 -155 254 -237q136 -70 289 -70q263 0 450 188q187 189 187 455q0 182 -94 337q-91 153 -254 237q-135 70 -282 70z" />
    <glyph glyph-name="macron" unicode="&#xaf;" 
d="M785 1247v-83h-546v83h546z" />
    <glyph glyph-name="degree" unicode="&#xb0;" 
d="M514 1352q114 0 197 -85q79 -81 79 -195q0 -115 -81 -197q-81 -81 -195 -81q-125 0 -209 91q-72 79 -72 190q0 129 94 208q83 69 187 69zM509 1292q-82 0 -143 -57q-72 -67 -72 -162q0 -81 54 -144q64 -75 164 -75q86 0 150 62q67 64 67 153q0 94 -63 157q-66 66 -157 66
z" />
    <glyph glyph-name="plusminus" unicode="&#xb1;" 
d="M56 748h421v390h68v-390h422v-66h-422v-386h-68v386h-421v66zM56 202h912v-66h-912v66z" />
    <glyph glyph-name="twosuperior" unicode="&#xb2;" horiz-adv-x="669" 
d="M224 615h320v-80h-479l304 398q64 84 89 129q27 47 27 89q0 64 -53 98q-42 28 -101 28q-97 0 -130 -67q-14 -30 -15 -91h-85q14 233 235 233q115 0 180 -66q54 -54 54 -133q0 -60 -28 -112q-24 -44 -66 -98z" />
    <glyph glyph-name="threesuperior" unicode="&#xb3;" horiz-adv-x="669" 
d="M423 1258h-313v80h488l-257 -300q54 0 102 -20q79 -33 120 -102q34 -59 34 -128q0 -134 -107 -211q-75 -54 -182 -54q-122 0 -202 78q-42 41 -61 107l78 25q49 -132 181 -132q92 0 151 58q54 52 54 124q0 79 -59 129q-55 47 -151 47q-55 0 -117 -33l-23 26z" />
    <glyph glyph-name="acute" unicode="&#xb4;" 
d="M621 1338h143l-226 -263h-86z" />
    <glyph glyph-name="mu" unicode="&#xb5;" 
d="M119 -337v1320h97v-572q0 -113 15 -164q33 -107 135 -160q62 -32 133 -32q149 0 233 121q77 109 77 259v548h97v-983h-97v207q-39 -98 -92 -149q-89 -87 -221 -87q-122 0 -206 72q-36 29 -74 90v-470h-97z" />
    <glyph glyph-name="paragraph" unicode="&#xb6;" 
d="M489 -215v846h-32q-120 0 -210 55q-74 45 -118 124q-47 85 -47 185q0 129 73 228q104 142 345 142h348v-1580h-96v1512h-166v-1512h-97z" />
    <glyph glyph-name="periodcentered" unicode="&#xb7;" horiz-adv-x="440" 
d="M221 578q36 0 60 -25q23 -24 23 -60q0 -38 -30 -63q-22 -19 -54 -19q-36 0 -60 25q-23 24 -23 58q0 40 30 65q22 19 54 19z" />
    <glyph glyph-name="cedilla" unicode="&#xb8;" 
d="M402 -442l-44 59q94 61 139 125q41 59 68 156l102 -36q-53 -112 -101 -171q-54 -67 -164 -133z" />
    <glyph glyph-name="onesuperior" unicode="&#xb9;" horiz-adv-x="669" 
d="M353 1215l-204 -138v84l288 200v-826h-84v680z" />
    <glyph glyph-name="ordmasculine" unicode="&#xba;" horiz-adv-x="717" 
d="M361 1126q137 0 226 -100q67 -76 67 -196q0 -131 -94 -217q-85 -77 -203 -77q-139 0 -226 98q-67 75 -67 199q0 139 88 217q85 76 209 76zM360 1055q-102 0 -163 -71q-51 -58 -51 -154q0 -103 60 -162q60 -61 154 -61q106 0 165 77q47 61 47 147q0 107 -63 167
q-62 57 -149 57z" />
    <glyph glyph-name="guillemotright" unicode="&#xbb;" horiz-adv-x="843" 
d="M649 507l-212 337h98l212 -337l-212 -352h-98zM321 507l-212 337h98l213 -337l-213 -352h-98z" />
    <glyph glyph-name="onequarter" unicode="&#xbc;" horiz-adv-x="1589" 
d="M353 1215l-204 -138v84l288 200v-826h-84v680zM1302 1322l-955 -1348l-60 43l955 1347zM1333 190h-352v58l436 603v-581h110v-80h-110v-190h-84v190zM1333 270v345l-250 -345h250z" />
    <glyph glyph-name="onehalf" unicode="&#xbd;" horiz-adv-x="1589" 
d="M353 1215l-204 -138v84l288 200v-826h-84v680zM1302 1322l-955 -1348l-60 43l955 1347zM1144 80h320v-80h-479l304 399q64 84 89 127q27 47 27 89q0 64 -53 98q-42 28 -101 28q-97 0 -130 -67q-14 -30 -15 -90h-85q14 233 235 233q115 0 180 -66q54 -54 54 -133
q0 -60 -28 -112q-24 -44 -66 -98z" />
    <glyph glyph-name="threequarters" unicode="&#xbe;" horiz-adv-x="1589" 
d="M423 1258h-313v80h488l-257 -300q54 0 102 -20q79 -33 120 -102q34 -59 34 -128q0 -134 -107 -211q-75 -54 -182 -54q-122 0 -202 78q-42 41 -61 107l78 25q49 -132 181 -132q92 0 151 58q54 52 54 124q0 79 -59 129q-55 47 -151 47q-55 0 -117 -33l-23 26zM1302 1322
l-955 -1348l-60 43l955 1347zM1332 190h-352v58l436 603v-581h111v-80h-111v-190h-84v190zM1332 270v345l-250 -345h250z" />
    <glyph glyph-name="questiondown" unicode="&#xbf;" horiz-adv-x="849" 
d="M448 666h95q-2 -105 -2 -141q-1 -107 -17 -155q-28 -82 -148 -174q-90 -69 -118 -111q-48 -72 -48 -160q0 -101 58 -174q66 -83 178 -83q88 0 155 58q69 60 69 152q0 11 -1 35h102q0 -105 -39 -178q-86 -162 -281 -162q-175 0 -276 132q-71 94 -71 216q0 132 85 234
q44 54 130 120q53 40 75.5 65.5t35.5 58.5q18 48 18 159v108zM490 959q36 0 60 -25q23 -24 23 -58q0 -40 -30 -65q-22 -19 -54 -19q-36 0 -60 25q-23 24 -23 60q0 38 30 63q22 19 54 19z" />
    <glyph glyph-name="Agrave" unicode="&#xc0;" horiz-adv-x="1212" 
d="M936 358h-659l-145 -358h-118l537 1365h127l520 -1365h-129zM894 464l-284 746l-291 -746h575zM496 1730l175 -266h-93l-228 266h146z" />
    <glyph glyph-name="Aacute" unicode="&#xc1;" horiz-adv-x="1212" 
d="M936 358h-659l-145 -358h-118l537 1365h127l520 -1365h-129zM894 464l-284 746l-291 -746h575zM717 1730h146l-228 -266h-94z" />
    <glyph glyph-name="Acircumflex" unicode="&#xc2;" horiz-adv-x="1212" 
d="M936 358h-659l-145 -358h-118l537 1365h127l520 -1365h-129zM894 464l-284 746l-291 -746h575zM607 1649l-150 -185h-112l218 271h94l210 -271h-109z" />
    <glyph glyph-name="Atilde" unicode="&#xc3;" horiz-adv-x="1212" 
d="M936 358h-659l-145 -358h-118l537 1365h127l520 -1365h-129zM894 464l-284 746l-291 -746h575zM851 1688l81 -56q-99 -139 -193 -139q-34 0 -80 19q-9 4 -61 36q-63 37 -97 37q-67 0 -112 -97l-81 45q47 79 76 108q51 49 107 49q50 0 150 -57q71 -41 102 -42q26 -1 58 26
q27 23 50 71z" />
    <glyph glyph-name="Adieresis" unicode="&#xc4;" horiz-adv-x="1212" 
d="M936 358h-659l-145 -358h-118l537 1365h127l520 -1365h-129zM894 464l-284 746l-291 -746h575zM402 1679q36 0 60 -25q24 -24 24 -61q0 -39 -30 -64q-23 -19 -55 -19q-36 0 -60 25q-24 24 -24 59q0 41 30 66q23 19 55 19zM811 1679q36 0 60 -25q24 -24 24 -61
q0 -39 -30 -64q-23 -19 -54 -19q-37 0 -61 25t-24 59q0 41 30 66q23 19 55 19z" />
    <glyph glyph-name="Aring" unicode="&#xc5;" horiz-adv-x="1212" 
d="M936 358h-659l-145 -358h-118l537 1365h127l520 -1365h-129zM894 464l-284 746l-291 -746h575zM608 1756q64 0 108 -47q41 -42 41 -107q0 -68 -52 -112q-43 -36 -98 -36q-66 0 -110 46q-41 43 -41 105q0 71 52 115q42 36 100 36zM608 1706q-52 0 -80 -37q-22 -29 -22 -64
q0 -41 28 -72q27 -29 73 -29q51 0 78 37q22 29 22 62q0 43 -28 74q-27 29 -71 29z" />
    <glyph glyph-name="AE" unicode="&#xc6;" horiz-adv-x="1624" 
d="M956 639v-535h565v-104h-681v379h-509l-214 -379h-122l777 1365h749v-104h-565v-518h565v-104h-565zM840 483v804l-452 -804h452z" />
    <glyph glyph-name="Ccedilla" unicode="&#xc7;" horiz-adv-x="1287" 
d="M1146 295l86 -75q-81 -109 -170 -161q-143 -83 -323 -83q-286 0 -463 199q-93 105 -141 255q-39 122 -39 251q0 194 85 364q79 159 222 250q147 94 334 94q298 0 495 -242l-86 -71q-79 86 -133 123q-124 84 -276 84q-146 0 -267 -79q-121 -78 -184 -209
q-70 -147 -70 -315q0 -183 79 -332q63 -117 185 -191q122 -75 263 -75q151 0 273 84q61 42 130 129zM588 -424l-68 55q85 67 123 127q30 47 52 128l114 -45q-29 -79 -77 -138q-51 -62 -144 -127z" />
    <glyph glyph-name="Egrave" unicode="&#xc8;" horiz-adv-x="980" 
d="M300 1261v-518h570v-104h-570v-535h570v-104h-686v1365h686v-104h-570zM379 1730l176 -266h-94l-228 266h146z" />
    <glyph glyph-name="Eacute" unicode="&#xc9;" horiz-adv-x="980" 
d="M300 1261v-518h570v-104h-570v-535h570v-104h-686v1365h686v-104h-570zM600 1730h146l-228 -266h-94z" />
    <glyph glyph-name="Ecircumflex" unicode="&#xca;" horiz-adv-x="980" 
d="M300 1261v-518h570v-104h-570v-535h570v-104h-686v1365h686v-104h-570zM490 1649l-150 -185h-111l217 271h94l211 -271h-109z" />
    <glyph glyph-name="Edieresis" unicode="&#xcb;" horiz-adv-x="980" 
d="M300 1261v-518h570v-104h-570v-535h570v-104h-686v1365h686v-104h-570zM285 1679q36 0 60 -25q24 -24 24 -61q0 -39 -30 -64q-23 -19 -55 -19q-36 0 -60 25q-24 24 -24 59q0 41 30 66q23 19 55 19zM695 1679q36 0 60 -25q24 -24 24 -61q0 -39 -30 -64q-23 -19 -55 -19
q-36 0 -60 25q-24 24 -24 59q0 41 30 66q23 19 55 19z" />
    <glyph glyph-name="Igrave" unicode="&#xcc;" horiz-adv-x="485" 
d="M300 1365v-1365h-116v1365h116zM132 1730l175 -266h-93l-228 266h146z" />
    <glyph glyph-name="Iacute" unicode="&#xcd;" horiz-adv-x="485" 
d="M300 1365v-1365h-116v1365h116zM353 1730h145l-227 -266h-94z" />
    <glyph glyph-name="Icircumflex" unicode="&#xce;" horiz-adv-x="485" 
d="M300 1365v-1365h-116v1365h116zM243 1649l-150 -185h-112l218 271h94l210 -271h-109z" />
    <glyph glyph-name="Idieresis" unicode="&#xcf;" horiz-adv-x="485" 
d="M300 1365v-1365h-116v1365h116zM106 1679q36 0 60 -25q24 -24 24 -61q0 -39 -30 -64q-23 -19 -54 -19q-37 0 -61 25t-24 59q0 41 30 66q23 19 55 19zM379 1679q36 0 60 -25q24 -24 24 -61q0 -39 -30 -64q-23 -19 -55 -19q-36 0 -60 25q-24 24 -24 59q0 41 30 66
q23 19 55 19z" />
    <glyph glyph-name="Eth" unicode="&#xd0;" horiz-adv-x="1265" 
d="M184 743v622h350q272 0 443 -156q191 -176 191 -499q0 -362 -215 -553q-177 -157 -475 -157h-294v646h-164v97h164zM300 743h380v-97h-380v-542h64q273 0 376 42q309 127 309 564q0 207 -75 330q-135 221 -447 221h-227v-518z" />
    <glyph glyph-name="Ntilde" unicode="&#xd1;" horiz-adv-x="1390" 
d="M300 1136v-1136h-116v1365h95l811 -1120v1120h116v-1365h-88zM940 1688l81 -56q-100 -139 -193 -139q-34 0 -80 19q-10 4 -62 36q-62 37 -97 37q-67 0 -112 -97l-80 45q47 79 76 108q51 49 106 49q50 0 150 -57q71 -41 103 -42q25 -1 57 26q28 23 51 71z" />
    <glyph glyph-name="Ograve" unicode="&#xd2;" horiz-adv-x="1497" 
d="M753 1389q180 0 336 -101q311 -200 311 -622q0 -201 -88 -362q-84 -156 -260 -250q-146 -78 -304 -78q-196 0 -364 115q-287 196 -287 584q0 328 201 524q193 190 455 190zM751 1282q-257 0 -414 -210q-120 -160 -120 -390q0 -256 144 -425q148 -175 385 -175
q133 0 249 63q146 80 213 215q73 146 73 312q0 293 -165 455q-87 86 -199 125q-87 30 -166 30zM638 1730l176 -266h-94l-228 266h146z" />
    <glyph glyph-name="Oacute" unicode="&#xd3;" horiz-adv-x="1497" 
d="M753 1389q180 0 336 -101q311 -200 311 -622q0 -201 -88 -362q-84 -156 -260 -250q-146 -78 -304 -78q-196 0 -364 115q-287 196 -287 584q0 328 201 524q193 190 455 190zM751 1282q-257 0 -414 -210q-120 -160 -120 -390q0 -256 144 -425q148 -175 385 -175
q133 0 249 63q146 80 213 215q73 146 73 312q0 293 -165 455q-87 86 -199 125q-87 30 -166 30zM859 1730h146l-228 -266h-94z" />
    <glyph glyph-name="Ocircumflex" unicode="&#xd4;" horiz-adv-x="1497" 
d="M753 1389q180 0 336 -101q311 -200 311 -622q0 -201 -88 -362q-84 -156 -260 -250q-146 -78 -304 -78q-196 0 -364 115q-287 196 -287 584q0 328 201 524q193 190 455 190zM751 1282q-257 0 -414 -210q-120 -160 -120 -390q0 -256 144 -425q148 -175 385 -175
q133 0 249 63q146 80 213 215q73 146 73 312q0 293 -165 455q-87 86 -199 125q-87 30 -166 30zM749 1649l-150 -185h-112l218 271h94l211 -271h-109z" />
    <glyph glyph-name="Otilde" unicode="&#xd5;" horiz-adv-x="1497" 
d="M753 1389q180 0 336 -101q311 -200 311 -622q0 -201 -88 -362q-84 -156 -260 -250q-146 -78 -304 -78q-196 0 -364 115q-287 196 -287 584q0 328 201 524q193 190 455 190zM751 1282q-257 0 -414 -210q-120 -160 -120 -390q0 -256 144 -425q148 -175 385 -175
q133 0 249 63q146 80 213 215q73 146 73 312q0 293 -165 455q-87 86 -199 125q-87 30 -166 30zM993 1688l81 -56q-99 -139 -192 -139q-34 0 -81 19q-9 4 -61 36q-62 37 -97 37q-67 0 -112 -97l-81 45q47 79 77 108q50 49 106 49q50 0 150 -57q71 -41 102 -42q26 -1 58 26
q27 23 50 71z" />
    <glyph glyph-name="Odieresis" unicode="&#xd6;" horiz-adv-x="1497" 
d="M753 1389q180 0 336 -101q311 -200 311 -622q0 -201 -88 -362q-84 -156 -260 -250q-146 -78 -304 -78q-196 0 -364 115q-287 196 -287 584q0 328 201 524q193 190 455 190zM751 1282q-257 0 -414 -210q-120 -160 -120 -390q0 -256 144 -425q148 -175 385 -175
q133 0 249 63q146 80 213 215q73 146 73 312q0 293 -165 455q-87 86 -199 125q-87 30 -166 30zM544 1679q36 0 60 -25q24 -24 24 -61q0 -39 -30 -64q-23 -19 -55 -19q-36 0 -60 25q-24 24 -24 59q0 41 30 66q23 19 55 19zM953 1679q36 0 60 -25q24 -24 24 -61q0 -39 -30 -64
q-23 -19 -54 -19q-37 0 -61 25t-24 59q0 41 30 66q23 19 55 19z" />
    <glyph glyph-name="multiply" unicode="&#xd7;" 
d="M182 1063l330 -331l331 332l47 -48l-331 -331l331 -330l-47 -47l-330 331l-331 -331l-48 47l332 331l-331 330z" />
    <glyph glyph-name="Oslash" unicode="&#xd8;" horiz-adv-x="1492" 
d="M314 150l-156 -174l-49 45l158 175q-73 88 -106 159q-64 136 -64 321q0 314 179 504q107 114 251 168q109 42 222 42q232 0 436 -173l143 159l50 -44l-146 -163q80 -107 112 -189q52 -131 52 -295q0 -327 -194 -519q-192 -190 -460 -190q-151 0 -275 64q-61 32 -153 110z
M387 230q162 -148 353 -148q166 0 296 89q127 86 184 226q56 136 56 293q0 149 -46 264q-21 53 -74 129zM1110 1134q-170 150 -360 150q-164 0 -296 -92q-238 -165 -238 -507q0 -173 62 -302q21 -45 64 -103z" />
    <glyph glyph-name="Ugrave" unicode="&#xd9;" horiz-adv-x="1301" 
d="M273 1365v-818q0 -196 42 -281q48 -98 166 -148q85 -36 164 -36q100 0 199 56q116 65 155 176q23 67 23 239v812h122v-818q0 -205 -44 -302q-63 -137 -199 -209q-112 -60 -249 -60q-165 0 -292 84q-139 91 -181 239q-22 76 -22 248v818h116zM540 1730l176 -266h-94
l-228 266h146z" />
    <glyph glyph-name="Uacute" unicode="&#xda;" horiz-adv-x="1301" 
d="M273 1365v-818q0 -196 42 -281q48 -98 166 -148q85 -36 164 -36q100 0 199 56q116 65 155 176q23 67 23 239v812h122v-818q0 -205 -44 -302q-63 -137 -199 -209q-112 -60 -249 -60q-165 0 -292 84q-139 91 -181 239q-22 76 -22 248v818h116zM761 1730h146l-228 -266h-94z
" />
    <glyph glyph-name="Ucircumflex" unicode="&#xdb;" horiz-adv-x="1301" 
d="M273 1365v-818q0 -196 42 -281q48 -98 166 -148q85 -36 164 -36q100 0 199 56q116 65 155 176q23 67 23 239v812h122v-818q0 -205 -44 -302q-63 -137 -199 -209q-112 -60 -249 -60q-165 0 -292 84q-139 91 -181 239q-22 76 -22 248v818h116zM651 1649l-150 -185h-111
l217 271h94l211 -271h-109z" />
    <glyph glyph-name="Udieresis" unicode="&#xdc;" horiz-adv-x="1301" 
d="M273 1365v-818q0 -196 42 -281q48 -98 166 -148q85 -36 164 -36q100 0 199 56q116 65 155 176q23 67 23 239v812h122v-818q0 -205 -44 -302q-63 -137 -199 -209q-112 -60 -249 -60q-165 0 -292 84q-139 91 -181 239q-22 76 -22 248v818h116zM446 1679q36 0 60 -25
q24 -24 24 -61q0 -39 -30 -64q-23 -19 -55 -19q-36 0 -60 25q-24 24 -24 59q0 41 30 66q23 19 55 19zM855 1679q36 0 60 -25q24 -24 24 -61q0 -39 -30 -64q-23 -19 -54 -19q-37 0 -61 25t-24 59q0 41 30 66q23 19 55 19z" />
    <glyph glyph-name="Yacute" unicode="&#xdd;" horiz-adv-x="1054" 
d="M589 600v-600h-116v600l-480 765h138l397 -643l394 643h139zM638 1730h145l-227 -266h-94z" />
    <glyph glyph-name="Thorn" unicode="&#xde;" horiz-adv-x="1062" 
d="M287 365v-365h-116v1365h116v-184h212q242 0 362 -97q136 -110 136 -308q0 -102 -39 -187.5t-110 -139.5q-58 -45 -122 -61q-91 -23 -208 -23h-231zM287 469h208q115 0 189 24q92 29 146 110q51 74 51 170q0 144 -106 228q-74 59 -205 72q-45 4 -112 4h-171v-608z" />
    <glyph glyph-name="germandbls" unicode="&#xdf;" horiz-adv-x="976" 
d="M177 846h-116v96h116v123q0 142 78 218q86 84 241 84q143 0 222 -76q89 -86 89 -218q0 -66 -31 -138q-29 -64 -80 -100q-26 -18 -81 -43q104 -23 158 -73q115 -105 115 -299q0 -129 -51 -240q-48 -103 -145 -155q-80 -42 -170 -42q-87 0 -152 40l37 84q81 -30 127 -30
q100 0 169 82q79 94 79 253q0 317 -300 317v106q91 12 134 44q35 26 58 72q27 54 27 115q0 89 -59 148q-58 58 -149 58q-112 0 -172 -68q-42 -47 -42 -139v-1065h-102v846z" />
    <glyph glyph-name="agrave" unicode="&#xe0;" horiz-adv-x="1148" 
d="M875 768v174h102v-942h-102v208q-139 -225 -352 -225q-191 0 -318 141q-118 130 -118 347q0 246 152 381q121 107 282 107q127 0 232 -67q63 -40 122 -124zM529 862q-163 0 -251 -121q-85 -117 -85 -276q0 -183 110 -292q93 -93 221 -93q160 0 266 136q46 60 69 143
q19 67 19 127q0 175 -100 275q-100 101 -249 101zM465 1338l169 -263h-86l-226 263h143z" />
    <glyph glyph-name="aacute" unicode="&#xe1;" horiz-adv-x="1148" 
d="M875 768v174h102v-942h-102v208q-139 -225 -352 -225q-191 0 -318 141q-118 130 -118 347q0 246 152 381q121 107 282 107q127 0 232 -67q63 -40 122 -124zM529 862q-163 0 -251 -121q-85 -117 -85 -276q0 -183 110 -292q93 -93 221 -93q160 0 266 136q46 60 69 143
q19 67 19 127q0 175 -100 275q-100 101 -249 101zM682 1338h143l-225 -263h-86z" />
    <glyph glyph-name="acircumflex" unicode="&#xe2;" horiz-adv-x="1148" 
d="M875 768v174h102v-942h-102v208q-139 -225 -352 -225q-191 0 -318 141q-118 130 -118 347q0 246 152 381q121 107 282 107q127 0 232 -67q63 -40 122 -124zM529 862q-163 0 -251 -121q-85 -117 -85 -276q0 -183 110 -292q93 -93 221 -93q160 0 266 136q46 60 69 143
q19 67 19 127q0 175 -100 275q-100 101 -249 101zM571 1260l-151 -185h-109l214 267h99l213 -267h-111z" />
    <glyph glyph-name="atilde" unicode="&#xe3;" horiz-adv-x="1148" 
d="M875 768v174h102v-942h-102v208q-139 -225 -352 -225q-191 0 -318 141q-118 130 -118 347q0 246 152 381q121 107 282 107q127 0 232 -67q63 -40 122 -124zM529 862q-163 0 -251 -121q-85 -117 -85 -276q0 -183 110 -292q93 -93 221 -93q160 0 266 136q46 60 69 143
q19 67 19 127q0 175 -100 275q-100 101 -249 101zM827 1293l70 -51q-92 -143 -183 -143q-39 0 -93 32q-20 12 -79 50q-49 31 -79 31q-65 0 -114 -87l-71 61q92 126 185 126q53 0 110 -36q36 -23 82 -54q33 -24 60 -24q61 0 112 95z" />
    <glyph glyph-name="adieresis" unicode="&#xe4;" horiz-adv-x="1148" 
d="M875 768v174h102v-942h-102v208q-139 -225 -352 -225q-191 0 -318 141q-118 130 -118 347q0 246 152 381q121 107 282 107q127 0 232 -67q63 -40 122 -124zM529 862q-163 0 -251 -121q-85 -117 -85 -276q0 -183 110 -292q93 -93 221 -93q160 0 266 136q46 60 69 143
q19 67 19 127q0 175 -100 275q-100 101 -249 101zM376 1277q33 0 55 -24q19 -20 19 -52q0 -35 -25 -56q-20 -18 -50 -18q-35 0 -56 24q-19 20 -19 51q0 36 24 57q21 18 52 18zM772 1277q33 0 55 -24q19 -20 19 -52q0 -34 -25 -56q-20 -18 -50 -18q-34 0 -56 24
q-19 20 -19 51q0 35 25 57q20 18 51 18z" />
    <glyph glyph-name="aring" unicode="&#xe5;" horiz-adv-x="1148" 
d="M875 768v174h102v-942h-102v208q-139 -225 -352 -225q-191 0 -318 141q-118 130 -118 347q0 246 152 381q121 107 282 107q127 0 232 -67q63 -40 122 -124zM529 862q-163 0 -251 -121q-85 -117 -85 -276q0 -183 110 -292q93 -93 221 -93q160 0 266 136q46 60 69 143
q19 67 19 127q0 175 -100 275q-100 101 -249 101zM534 1365q63 0 108 -46q41 -43 41 -108q0 -68 -52 -112q-42 -36 -98 -36q-66 0 -110 46q-41 43 -41 105q0 71 52 115q42 36 100 36zM533 1315q-51 0 -79 -37q-22 -29 -22 -64q0 -42 28 -72q27 -29 73 -29q50 0 78 37
q22 29 22 63q0 42 -28 73q-27 29 -72 29z" />
    <glyph glyph-name="ae" unicode="&#xe6;" horiz-adv-x="1879" 
d="M1661 263l80 -44q-123 -236 -411 -236q-125 0 -220 60q-55 34 -87 75q-15 20 -39 64v-182h-102v205q-133 -222 -355 -222q-198 0 -328 147q-112 128 -112 342q0 217 119 349q124 138 315 138q146 0 257 -80q47 -34 104 -113v176h102v-176q45 72 84 103q111 90 274 90
q252 0 383 -209q78 -124 78 -266q0 -21 -1 -57h-819q12 -87 32 -134q46 -109 150 -167q81 -46 167 -46q124 0 234 80q47 35 95 103zM1693 523q-13 107 -57 177q-103 162 -296 162q-132 0 -232 -82q-83 -68 -110 -171q-8 -30 -15 -86h710zM537 862q-191 0 -279 -151
q-65 -111 -65 -248q0 -175 102 -281q100 -102 238 -102q161 0 263 131q46 60 69 144q19 66 19 126q0 180 -104 284q-98 97 -243 97z" />
    <glyph glyph-name="ccedilla" unicode="&#xe7;" horiz-adv-x="923" 
d="M804 196l64 -74q-69 -67 -135 -96q-94 -43 -202 -43q-198 0 -323 139q-121 134 -121 348q0 146 64 266q66 122 195 182q90 41 196 41q192 0 326 -134l-64 -69q-117 106 -263 106q-166 0 -265 -122q-83 -103 -83 -265q0 -203 116 -309q95 -86 224 -86q157 0 271 116z
M367 -442l-44 59q94 61 139 125q41 59 68 156l102 -36q-53 -112 -101 -171q-54 -67 -164 -133z" />
    <glyph glyph-name="egrave" unicode="&#xe8;" horiz-adv-x="1087" 
d="M1008 427h-811q11 -119 66 -197q105 -150 285 -150q117 0 223 78q59 43 94 105l85 -45q-37 -74 -111 -133q-126 -102 -288 -102q-143 0 -259 74q-101 66 -152 170q-53 109 -53 239q0 213 125 350q133 143 338 143q239 0 370 -184q92 -128 92 -283q0 -20 -4 -65zM899 523
q-6 110 -55 184q-45 67 -116 107q-83 48 -180 48q-128 0 -224 -81q-83 -70 -110 -187q-6 -24 -12 -71h697zM435 1338l169 -263h-87l-225 263h143z" />
    <glyph glyph-name="eacute" unicode="&#xe9;" horiz-adv-x="1087" 
d="M1008 427h-811q11 -119 66 -197q105 -150 285 -150q117 0 223 78q59 43 94 105l85 -45q-37 -74 -111 -133q-126 -102 -288 -102q-143 0 -259 74q-101 66 -152 170q-53 109 -53 239q0 213 125 350q133 143 338 143q239 0 370 -184q92 -128 92 -283q0 -20 -4 -65zM899 523
q-6 110 -55 184q-45 67 -116 107q-83 48 -180 48q-128 0 -224 -81q-83 -70 -110 -187q-6 -24 -12 -71h697zM652 1338h143l-226 -263h-86z" />
    <glyph glyph-name="ecircumflex" unicode="&#xea;" horiz-adv-x="1087" 
d="M1008 427h-811q11 -119 66 -197q105 -150 285 -150q117 0 223 78q59 43 94 105l85 -45q-37 -74 -111 -133q-126 -102 -288 -102q-143 0 -259 74q-101 66 -152 170q-53 109 -53 239q0 213 125 350q133 143 338 143q239 0 370 -184q92 -128 92 -283q0 -20 -4 -65zM899 523
q-6 110 -55 184q-45 67 -116 107q-83 48 -180 48q-128 0 -224 -81q-83 -70 -110 -187q-6 -24 -12 -71h697zM541 1260l-152 -185h-108l213 267h99l213 -267h-110z" />
    <glyph glyph-name="edieresis" unicode="&#xeb;" horiz-adv-x="1087" 
d="M1008 427h-811q11 -119 66 -197q105 -150 285 -150q117 0 223 78q59 43 94 105l85 -45q-37 -74 -111 -133q-126 -102 -288 -102q-143 0 -259 74q-101 66 -152 170q-53 109 -53 239q0 213 125 350q133 143 338 143q239 0 370 -184q92 -128 92 -283q0 -20 -4 -65zM899 523
q-6 110 -55 184q-45 67 -116 107q-83 48 -180 48q-128 0 -224 -81q-83 -70 -110 -187q-6 -24 -12 -71h697zM347 1277q33 0 55 -24q19 -20 19 -52q0 -34 -25 -56q-20 -18 -50 -18q-34 0 -56 24q-19 20 -19 51q0 36 25 57q20 18 51 18zM742 1277q33 0 55 -24q19 -20 19 -52
q0 -34 -25 -56q-20 -18 -50 -18q-34 0 -56 24q-19 20 -19 51q0 36 25 57q20 18 51 18z" />
    <glyph glyph-name="igrave" unicode="&#xec;" horiz-adv-x="444" 
d="M274 942v-942h-102v942h102zM114 1338l169 -263h-87l-225 263h143z" />
    <glyph glyph-name="iacute" unicode="&#xed;" horiz-adv-x="444" 
d="M273 942v-942h-102v942h102zM331 1338h143l-226 -263h-86z" />
    <glyph glyph-name="icircumflex" unicode="&#xee;" horiz-adv-x="444" 
d="M272 942v-942h-102v942h102zM219 1260l-151 -185h-109l214 267h99l213 -267h-111z" />
    <glyph glyph-name="idieresis" unicode="&#xef;" horiz-adv-x="444" 
d="M272 942v-942h-102v942h102zM100 1277q33 0 55 -24q19 -20 19 -52q0 -35 -25 -56q-20 -18 -50 -18q-34 0 -56 24q-19 20 -19 51q0 36 24 57q21 18 52 18zM345 1277q33 0 55 -24q19 -20 19 -52q0 -34 -25 -56q-20 -18 -50 -18q-34 0 -56 24q-19 20 -19 51q0 35 25 57
q20 18 51 18z" />
    <glyph glyph-name="eth" unicode="&#xf0;" horiz-adv-x="1102" 
d="M376 1129l194 110q-102 95 -203 154l47 55q114 -56 236 -166l210 115l38 -65l-189 -105q93 -97 163 -218q143 -247 143 -493q0 -252 -133 -391q-135 -142 -337 -142q-132 0 -241 66q-217 132 -217 423q0 225 130 352q139 136 335 136q139 0 272 -88q-66 171 -200 309
l-212 -119zM547 863q-185 0 -283 -146q-70 -103 -70 -244q0 -184 102 -289q101 -104 252 -104q177 0 275 127q86 113 86 272q0 182 -115 289q-102 95 -247 95z" />
    <glyph glyph-name="ntilde" unicode="&#xf1;" horiz-adv-x="1018" 
d="M171 942h102v-142q128 159 294 159q127 0 208 -74q55 -51 69 -119q10 -45 10 -111v-655h-102v609q0 138 -40 191q-49 63 -158 63q-120 0 -206 -87q-41 -42 -58 -85t-17 -114v-577h-102v942zM762 1293l71 -51q-93 -143 -184 -143q-38 0 -92 32q-20 12 -79 50
q-49 31 -80 31q-64 0 -113 -87l-72 61q93 126 185 126q53 0 111 -36q35 -23 81 -54q34 -24 60 -24q61 0 112 95z" />
    <glyph glyph-name="ograve" unicode="&#xf2;" horiz-adv-x="1100" 
d="M552 959q218 0 356 -167q104 -126 104 -322q0 -113 -47 -218q-60 -134 -191 -209q-105 -60 -228 -60q-135 0 -248 70q-211 132 -211 421q0 230 137 359q134 126 328 126zM551 862q-170 0 -273 -123q-85 -102 -85 -270q0 -179 100 -283q103 -106 258 -106q176 0 277 135
q78 106 78 256q0 187 -106 291q-103 100 -249 100zM441 1338l169 -263h-87l-225 263h143z" />
    <glyph glyph-name="oacute" unicode="&#xf3;" horiz-adv-x="1100" 
d="M552 959q218 0 356 -167q104 -126 104 -322q0 -113 -47 -218q-60 -134 -191 -209q-105 -60 -228 -60q-135 0 -248 70q-211 132 -211 421q0 230 137 359q134 126 328 126zM551 862q-170 0 -273 -123q-85 -102 -85 -270q0 -179 100 -283q103 -106 258 -106q176 0 277 135
q78 106 78 256q0 187 -106 291q-103 100 -249 100zM658 1338h143l-225 -263h-87z" />
    <glyph glyph-name="ocircumflex" unicode="&#xf4;" horiz-adv-x="1100" 
d="M552 959q218 0 356 -167q104 -126 104 -322q0 -113 -47 -218q-60 -134 -191 -209q-105 -60 -228 -60q-135 0 -248 70q-211 132 -211 421q0 230 137 359q134 126 328 126zM551 862q-170 0 -273 -123q-85 -102 -85 -270q0 -179 100 -283q103 -106 258 -106q176 0 277 135
q78 106 78 256q0 187 -106 291q-103 100 -249 100zM547 1260l-151 -185h-109l213 267h100l212 -267h-110z" />
    <glyph glyph-name="otilde" unicode="&#xf5;" horiz-adv-x="1100" 
d="M552 959q218 0 356 -167q104 -126 104 -322q0 -113 -47 -218q-60 -134 -191 -209q-105 -60 -228 -60q-135 0 -248 70q-211 132 -211 421q0 230 137 359q134 126 328 126zM551 862q-170 0 -273 -123q-85 -102 -85 -270q0 -179 100 -283q103 -106 258 -106q176 0 277 135
q78 106 78 256q0 187 -106 291q-103 100 -249 100zM803 1293l70 -51q-92 -143 -183 -143q-39 0 -93 32q-20 12 -79 50q-49 31 -80 31q-64 0 -113 -87l-72 61q93 126 185 126q53 0 111 -36q36 -23 81 -54q34 -24 60 -24q62 0 113 95z" />
    <glyph glyph-name="odieresis" unicode="&#xf6;" horiz-adv-x="1100" 
d="M552 959q218 0 356 -167q104 -126 104 -322q0 -113 -47 -218q-60 -134 -191 -209q-105 -60 -228 -60q-135 0 -248 70q-211 132 -211 421q0 230 137 359q134 126 328 126zM551 862q-170 0 -273 -123q-85 -102 -85 -270q0 -179 100 -283q103 -106 258 -106q176 0 277 135
q78 106 78 256q0 187 -106 291q-103 100 -249 100zM353 1277q33 0 55 -24q19 -20 19 -52q0 -34 -25 -56q-20 -18 -50 -18q-34 0 -56 24q-19 20 -19 51q0 36 25 57q20 18 51 18zM748 1277q33 0 55 -24q19 -20 19 -52q0 -34 -25 -56q-20 -18 -50 -18q-34 0 -56 24
q-19 20 -19 51q0 36 25 57q20 18 51 18z" />
    <glyph glyph-name="divide" unicode="&#xf7;" 
d="M56 719h912v-66h-912v66zM513 1140q27 0 47 -20q21 -20 21 -49t-21 -49q-20 -20 -48 -20t-48 20q-21 20 -21 49t21 49q20 20 49 20zM513 369q28 0 49 -21q19 -19 19 -48t-21 -49q-20 -20 -48 -20t-48 20q-21 20 -21 49t20 48q21 21 50 21z" />
    <glyph glyph-name="oslash" unicode="&#xf8;" horiz-adv-x="1099" 
d="M246 92l-108 -121l-55 48l114 123q-52 72 -73 126q-36 92 -36 203q0 234 141 364q135 124 317 124q170 0 300 -104l130 141l49 -49l-128 -140q56 -72 79 -129q36 -90 36 -200q0 -155 -72 -279q-60 -103 -170 -160q-106 -56 -233 -56q-161 0 -291 109zM317 171
q97 -91 234 -91q151 0 255 111q100 107 100 286q0 85 -28 158q-15 37 -52 94zM775 779q-98 83 -230 83q-169 0 -270 -129q-81 -103 -81 -263q0 -93 29 -166q14 -34 46 -81z" />
    <glyph glyph-name="ugrave" unicode="&#xf9;" horiz-adv-x="962" 
d="M719 942h103v-608q0 -127 -39 -190q-45 -74 -125 -117q-81 -44 -176 -44q-151 0 -251 99q-92 91 -92 252v608h102v-608q0 -123 73 -192q66 -62 166 -62q117 0 188 78q51 56 51 176v608zM372 1338l169 -263h-86l-226 263h143z" />
    <glyph glyph-name="uacute" unicode="&#xfa;" horiz-adv-x="962" 
d="M719 942h103v-608q0 -127 -39 -190q-45 -74 -125 -117q-81 -44 -176 -44q-151 0 -251 99q-92 91 -92 252v608h102v-608q0 -123 73 -192q66 -62 166 -62q117 0 188 78q51 56 51 176v608zM589 1338h143l-225 -263h-87z" />
    <glyph glyph-name="ucircumflex" unicode="&#xfb;" horiz-adv-x="962" 
d="M719 942h103v-608q0 -127 -39 -190q-45 -74 -125 -117q-81 -44 -176 -44q-151 0 -251 99q-92 91 -92 252v608h102v-608q0 -123 73 -192q66 -62 166 -62q117 0 188 78q51 56 51 176v608zM478 1260l-151 -185h-109l214 267h99l212 -267h-110z" />
    <glyph glyph-name="udieresis" unicode="&#xfc;" horiz-adv-x="962" 
d="M719 942h103v-608q0 -127 -39 -190q-45 -74 -125 -117q-81 -44 -176 -44q-151 0 -251 99q-92 91 -92 252v608h102v-608q0 -123 73 -192q66 -62 166 -62q117 0 188 78q51 56 51 176v608zM284 1277q33 0 55 -24q19 -20 19 -52q0 -34 -25 -56q-20 -18 -50 -18q-34 0 -56 24
q-19 20 -19 51q0 36 25 57q20 18 51 18zM679 1277q33 0 55 -24q19 -20 19 -52q0 -34 -25 -56q-20 -18 -50 -18q-34 0 -56 24q-19 20 -19 51q0 35 25 57q20 18 51 18z" />
    <glyph glyph-name="yacute" unicode="&#xfd;" horiz-adv-x="863" 
d="M414 171l315 771h113l-578 -1410h-113l207 502l-338 908h108zM540 1338h143l-226 -263h-86z" />
    <glyph glyph-name="thorn" unicode="&#xfe;" horiz-adv-x="1140" 
d="M164 1365h102v-624q62 102 123 147q97 71 237 71q182 0 299 -118q128 -130 128 -354q0 -227 -119 -365q-119 -139 -310 -139q-110 0 -207 49q-56 29 -91 65q-25 25 -60 72v-620h-102v1816zM615 862q-188 0 -284 -157q-64 -104 -64 -250q0 -188 109 -286q98 -89 232 -89
q182 0 272 144q65 104 65 254q0 180 -87 277q-52 57 -125 84q-60 23 -118 23z" />
    <glyph glyph-name="ydieresis" unicode="&#xff;" horiz-adv-x="863" 
d="M414 171l315 771h113l-578 -1410h-113l207 502l-338 908h108zM235 1277q33 0 55 -24q19 -20 19 -52q0 -35 -25 -56q-20 -18 -50 -18q-35 0 -56 24q-19 20 -19 51q0 36 24 57q21 18 52 18zM630 1277q33 0 55 -24q19 -20 19 -52q0 -35 -25 -56q-20 -18 -50 -18
q-34 0 -56 24q-19 20 -19 51q0 36 25 57q20 18 51 18z" />
    <glyph glyph-name="Amacron" unicode="&#x100;" horiz-adv-x="1212" 
d="M936 358h-659l-145 -358h-118l537 1365h127l520 -1365h-129zM894 464l-284 746l-291 -746h575zM893 1636v-90h-573v90h573z" />
    <glyph glyph-name="amacron" unicode="&#x101;" horiz-adv-x="1148" 
d="M875 768v174h102v-942h-102v208q-139 -225 -352 -225q-191 0 -318 141q-118 130 -118 347q0 246 152 381q121 107 282 107q127 0 232 -67q63 -40 122 -124zM529 862q-163 0 -251 -121q-85 -117 -85 -276q0 -183 110 -292q93 -93 221 -93q160 0 266 136q46 60 69 143
q19 67 19 127q0 175 -100 275q-100 101 -249 101zM847 1247v-83h-546v83h546z" />
    <glyph glyph-name="Abreve" unicode="&#x102;" horiz-adv-x="1212" 
d="M936 358h-659l-145 -358h-118l537 1365h127l520 -1365h-129zM894 464l-284 746l-291 -746h575zM308 1697h107q52 -112 191 -112q140 0 192 112h107q-14 -61 -54 -105q-88 -97 -245 -97q-156 0 -244 97q-40 44 -54 105z" />
    <glyph glyph-name="abreve" unicode="&#x103;" horiz-adv-x="1148" 
d="M875 768v174h102v-942h-102v208q-139 -225 -352 -225q-191 0 -318 141q-118 130 -118 347q0 246 152 381q121 107 282 107q127 0 232 -67q63 -40 122 -124zM529 862q-163 0 -251 -121q-85 -117 -85 -276q0 -183 110 -292q93 -93 221 -93q160 0 266 136q46 60 69 143
q19 67 19 127q0 175 -100 275q-100 101 -249 101zM288 1294h101q51 -118 185 -118t185 118h101q-14 -61 -52 -105q-84 -97 -234 -97t-235 97q-38 44 -51 105z" />
    <glyph glyph-name="Aogonek" unicode="&#x104;" horiz-adv-x="1236" 
d="M1216 0q-115 -80 -115 -163q0 -50 43 -84q36 -28 96 -28q42 0 99 22l1 -63q-65 -24 -117 -24q-89 0 -143 48q-50 44 -50 111q0 101 122 181h-49l-160 403h-647l-162 -403h-114l550 1365h107zM915 487l-252 637q-20 49 -39 126q-25 -79 -43 -123l-257 -640h591z" />
    <glyph glyph-name="aogonek" unicode="&#x105;" horiz-adv-x="1011" 
d="M937 0q-104 -72 -104 -156q0 -49 42 -83q37 -29 97 -29q40 0 97 21l1 -60q-66 -23 -116 -23q-87 0 -141 46q-50 43 -50 113q0 94 105 171h-43q-29 29 -35 46q-8 20 -8 108q0 15 1 62q-45 -93 -98 -143q-107 -100 -281 -100q-150 0 -237 65q-98 72 -98 214q0 187 176 256
q86 34 297 50q142 11 176 24q44 17 54 46q8 25 8 71q0 78 -23 127q-25 51 -95 82q-64 29 -151 29q-262 0 -289 -255h-95q11 157 107 239q102 87 283 87q202 0 301 -104q49 -53 59 -140q3 -28 3 -75l-1 -239v-160l-1 -64q0 -121 6 -153q5 -25 25 -46q5 -5 28 -27zM780 554
q-31 -32 -64 -42q-32 -10 -252 -27q-151 -12 -220 -68q-71 -57 -71 -165q0 -95 66 -152q67 -57 190 -57q180 0 277 132q74 100 74 217v162z" />
    <glyph glyph-name="Cacute" unicode="&#x106;" horiz-adv-x="1287" 
d="M1146 295l86 -75q-81 -109 -170 -161q-143 -83 -323 -83q-286 0 -463 199q-93 105 -141 255q-39 122 -39 251q0 194 85 364q79 159 222 250q147 94 334 94q298 0 495 -242l-86 -71q-79 86 -133 123q-124 84 -276 84q-146 0 -267 -79q-121 -78 -184 -209
q-70 -147 -70 -315q0 -183 79 -332q63 -117 185 -191q122 -75 263 -75q151 0 273 84q61 42 130 129zM754 1730h146l-228 -266h-94z" />
    <glyph glyph-name="cacute" unicode="&#x107;" horiz-adv-x="923" 
d="M804 196l64 -74q-69 -67 -135 -96q-94 -43 -202 -43q-198 0 -323 139q-121 134 -121 348q0 146 64 266q66 122 195 182q90 41 196 41q192 0 326 -134l-64 -69q-117 106 -263 106q-166 0 -265 -122q-83 -103 -83 -265q0 -203 116 -309q95 -86 224 -86q157 0 271 116z
M570 1338h143l-226 -263h-86z" />
    <glyph glyph-name="Ccircumflex" unicode="&#x108;" horiz-adv-x="1287" 
d="M1146 295l86 -75q-81 -109 -170 -161q-143 -83 -323 -83q-286 0 -463 199q-93 105 -141 255q-39 122 -39 251q0 194 85 364q79 159 222 250q147 94 334 94q298 0 495 -242l-86 -71q-79 86 -133 123q-124 84 -276 84q-146 0 -267 -79q-121 -78 -184 -209
q-70 -147 -70 -315q0 -183 79 -332q63 -117 185 -191q122 -75 263 -75q151 0 273 84q61 42 130 129zM644 1649l-150 -185h-112l218 271h94l211 -271h-110z" />
    <glyph glyph-name="Cdotaccent" unicode="&#x10a;" horiz-adv-x="1287" 
d="M1146 295l86 -75q-81 -109 -170 -161q-143 -83 -323 -83q-286 0 -463 199q-93 105 -141 255q-39 122 -39 251q0 194 85 364q79 159 222 250q147 94 334 94q298 0 495 -242l-86 -71q-79 86 -133 123q-124 84 -276 84q-146 0 -267 -79q-121 -78 -184 -209
q-70 -147 -70 -315q0 -183 79 -332q63 -117 185 -191q122 -75 263 -75q151 0 273 84q61 42 130 129zM644 1679q36 0 60 -25q24 -24 24 -61q0 -39 -30 -64q-23 -19 -55 -19q-36 0 -60 25q-24 24 -24 59q0 41 30 66q23 19 55 19z" />
    <glyph glyph-name="cdotaccent" unicode="&#x10b;" horiz-adv-x="923" 
d="M804 196l64 -74q-69 -67 -135 -96q-94 -43 -202 -43q-198 0 -323 139q-121 134 -121 348q0 146 64 266q66 122 195 182q90 41 196 41q192 0 326 -134l-64 -69q-117 106 -263 106q-166 0 -265 -122q-83 -103 -83 -265q0 -203 116 -309q95 -86 224 -86q157 0 271 116z
M462 1277q33 0 55 -24q19 -20 19 -52q0 -34 -25 -56q-20 -18 -50 -18q-34 0 -56 24q-19 20 -19 51q0 36 25 57q20 18 51 18z" />
    <glyph glyph-name="Ccaron" unicode="&#x10c;" horiz-adv-x="1287" 
d="M1146 295l86 -75q-81 -109 -170 -161q-143 -83 -323 -83q-286 0 -463 199q-93 105 -141 255q-39 122 -39 251q0 194 85 364q79 159 222 250q147 94 334 94q298 0 495 -242l-86 -71q-79 86 -133 123q-124 84 -276 84q-146 0 -267 -79q-121 -78 -184 -209
q-70 -147 -70 -315q0 -183 79 -332q63 -117 185 -191q122 -75 263 -75q151 0 273 84q61 42 130 129zM643 1550l150 185h112l-218 -271h-94l-211 271h109z" />
    <glyph glyph-name="ccaron" unicode="&#x10d;" horiz-adv-x="923" 
d="M804 196l64 -74q-69 -67 -135 -96q-94 -43 -202 -43q-198 0 -323 139q-121 134 -121 348q0 146 64 266q66 122 195 182q90 41 196 41q192 0 326 -134l-64 -69q-117 106 -263 106q-166 0 -265 -122q-83 -103 -83 -265q0 -203 116 -309q95 -86 224 -86q157 0 271 116z
M464 1157l151 185h109l-214 -267h-99l-212 267h110z" />
    <glyph glyph-name="Dcaron" unicode="&#x10e;" horiz-adv-x="1265" 
d="M184 0v1365h350q272 0 443 -156q191 -176 191 -499q0 -363 -215 -553q-177 -157 -474 -157h-295zM300 1261v-1157h64q273 0 376 42q309 127 309 564q0 207 -75 329q-134 222 -446 222h-228zM632 1550l150 185h112l-218 -271h-94l-211 271h109z" />
    <glyph glyph-name="dcaron" unicode="&#x10f;" horiz-adv-x="1440" 
d="M867 780v585h102v-1365h-102v182q-61 -84 -120 -126q-102 -73 -226 -73q-191 0 -315 139q-63 71 -95 179q-23 80 -23 166q0 138 58 257q52 108 150 172q99 63 219 63q104 0 200 -46q81 -40 152 -133zM534 862q-173 0 -266 -137q-74 -109 -74 -260q0 -182 102 -290
q89 -95 226 -95q148 0 248 108q51 55 77 144q21 74 21 141q0 182 -98 288q-93 101 -236 101zM1355 1346l-201 -411l-80 36l192 421z" />
    <glyph glyph-name="Dcroat" unicode="&#x110;" horiz-adv-x="1265" 
d="M184 743v622h350q272 0 443 -156q191 -176 191 -499q0 -362 -215 -553q-177 -157 -475 -157h-294v646h-164v97h164zM300 743h380v-97h-380v-542h64q273 0 376 42q309 127 309 564q0 207 -75 330q-135 221 -447 221h-227v-518z" />
    <glyph glyph-name="dcroat" unicode="&#x111;" horiz-adv-x="1140" 
d="M867 1173v192h102v-192h164v-89h-164v-1084h-102v182q-61 -84 -121 -126q-102 -73 -226 -73q-191 0 -315 139q-63 71 -95 179q-23 80 -23 166q0 138 58 257q52 108 150 172q99 63 219 63q104 0 200 -47q82 -39 153 -132v304h-313v89h313zM533 862q-173 0 -266 -137
q-74 -109 -74 -260q0 -182 102 -290q89 -95 226 -95q149 0 249 108q51 55 76 144q22 74 22 141q0 182 -98 288q-93 101 -237 101z" />
    <glyph glyph-name="Emacron" unicode="&#x112;" horiz-adv-x="980" 
d="M300 1261v-518h570v-104h-570v-535h570v-104h-686v1365h686v-104h-570zM814 1636v-90h-574v90h574z" />
    <glyph glyph-name="emacron" unicode="&#x113;" horiz-adv-x="1087" 
d="M1008 427h-811q11 -119 66 -197q105 -150 285 -150q117 0 223 78q59 43 94 105l85 -45q-37 -74 -111 -133q-126 -102 -288 -102q-143 0 -259 74q-101 66 -152 170q-53 109 -53 239q0 213 125 350q133 143 338 143q239 0 370 -184q92 -128 92 -283q0 -20 -4 -65zM899 523
q-6 110 -55 184q-45 67 -116 107q-83 48 -180 48q-128 0 -224 -81q-83 -70 -110 -187q-6 -24 -12 -71h697zM816 1247v-83h-546v83h546z" />
    <glyph glyph-name="Ebreve" unicode="&#x114;" horiz-adv-x="980" 
d="M300 1261v-518h570v-104h-570v-535h570v-104h-686v1365h686v-104h-570zM191 1697h107q52 -112 192 -112q139 0 191 112h107q-14 -61 -54 -105q-88 -97 -244 -97q-157 0 -245 97q-40 44 -54 105z" />
    <glyph glyph-name="Edotaccent" unicode="&#x116;" horiz-adv-x="980" 
d="M300 1261v-518h570v-104h-570v-535h570v-104h-686v1365h686v-104h-570zM490 1679q36 0 60 -25q24 -24 24 -61q0 -39 -30 -64q-23 -19 -54 -19q-37 0 -61 25q-24 24 -24 59q0 41 30 66q23 19 55 19z" />
    <glyph glyph-name="edotaccent" unicode="&#x117;" horiz-adv-x="1087" 
d="M1008 427h-811q11 -119 66 -197q105 -150 285 -150q117 0 223 78q59 43 94 105l85 -45q-37 -74 -111 -133q-126 -102 -288 -102q-143 0 -259 74q-101 66 -152 170q-53 109 -53 239q0 213 125 350q133 143 338 143q239 0 370 -184q92 -128 92 -283q0 -20 -4 -65zM899 523
q-6 110 -55 184q-45 67 -116 107q-83 48 -180 48q-128 0 -224 -81q-83 -70 -110 -187q-6 -24 -12 -71h697zM544 1277q33 0 55 -24q19 -20 19 -52q0 -34 -25 -56q-20 -18 -50 -18q-34 0 -56 24q-19 20 -19 51q0 36 25 57q20 18 51 18z" />
    <glyph glyph-name="Eogonek" unicode="&#x118;" horiz-adv-x="1153" 
d="M1096 0q-116 -82 -116 -163q0 -50 42 -83q36 -29 97 -29q42 0 99 22l-2 -63q-65 -24 -117 -24q-89 0 -144 48q-50 44 -50 111q0 98 118 181h-888v1365h950v-91h-841v-519h787v-88h-787v-573h852v-94z" />
    <glyph glyph-name="eogonek" unicode="&#x119;" horiz-adv-x="1059" 
d="M526 -26q-79 -66 -79 -138q0 -48 42 -81q38 -30 98 -30q39 0 97 21l1 -60q-66 -23 -115 -23q-88 0 -142 46q-50 43 -50 113q0 82 86 156q-119 19 -201 84q-183 142 -183 424q0 235 131 380q127 142 328 142q159 0 271 -91q174 -141 174 -417q0 -5 -1 -23h-802
q1 -114 34 -201q40 -105 120 -164q87 -66 205 -66q158 0 254 113q55 65 79 178h98q-22 -133 -106 -226q-101 -112 -248 -133q-38 -5 -91 -4zM882 542q-4 144 -61 237q-97 155 -280 155q-135 0 -232 -87q-108 -97 -128 -305h701z" />
    <glyph glyph-name="Ecaron" unicode="&#x11a;" horiz-adv-x="980" 
d="M300 1261v-518h570v-104h-570v-535h570v-104h-686v1365h686v-104h-570zM489 1550l150 185h112l-218 -271h-94l-210 271h109z" />
    <glyph glyph-name="ecaron" unicode="&#x11b;" horiz-adv-x="1087" 
d="M1008 427h-811q11 -119 66 -197q105 -150 285 -150q117 0 223 78q59 43 94 105l85 -45q-37 -74 -111 -133q-126 -102 -288 -102q-143 0 -259 74q-101 66 -152 170q-53 109 -53 239q0 213 125 350q133 143 338 143q239 0 370 -184q92 -128 92 -283q0 -20 -4 -65zM899 523
q-6 110 -55 184q-45 67 -116 107q-83 48 -180 48q-128 0 -224 -81q-83 -70 -110 -187q-6 -24 -12 -71h697zM546 1157l151 185h109l-214 -267h-99l-212 267h110z" />
    <glyph glyph-name="Gcircumflex" unicode="&#x11c;" horiz-adv-x="1479" 
d="M749 724h635q1 -58 1 -83q0 -188 -72 -329q-74 -143 -203 -231q-155 -105 -354 -105q-194 0 -351 99q-145 90 -220 234q-88 168 -88 369q0 165 60 314q74 182 224 286q159 111 378 111q298 0 489 -241l-85 -71q-73 79 -119 113q-127 93 -288 93q-167 0 -306 -102
q-125 -92 -183 -235q-51 -124 -51 -263q0 -173 76 -320q61 -118 175 -194q129 -86 279 -86q185 0 340 127q143 117 176 298q8 41 10 112h-523v104zM740 1649l-150 -185h-112l218 271h94l211 -271h-110z" />
    <glyph glyph-name="gcircumflex" unicode="&#x11d;" horiz-adv-x="1146" 
d="M873 757v185h102v-987q0 -206 -122 -322q-120 -115 -325 -115q-259 0 -392 165l77 75q57 -61 90 -83q42 -27 115 -44q57 -13 114 -13q117 0 208 54q83 48 113 135q20 60 20 148v252q-63 -103 -121 -147q-101 -77 -235 -77q-188 0 -314 147q-116 135 -116 340
q0 150 69 278q114 211 366 211q112 0 204 -55q74 -44 147 -147zM537 862q-157 0 -257 -118q-87 -102 -87 -269q0 -201 124 -311q95 -84 213 -84q153 0 261 128q46 53 63 142q14 76 14 128q0 101 -20 164q-28 89 -109 150q-92 70 -202 70zM570 1260l-151 -185h-109l214 267
h99l213 -267h-111z" />
    <glyph glyph-name="Gbreve" unicode="&#x11e;" horiz-adv-x="1479" 
d="M749 724h635q1 -58 1 -83q0 -188 -72 -329q-74 -143 -203 -231q-155 -105 -354 -105q-194 0 -351 99q-145 90 -220 234q-88 168 -88 369q0 165 60 314q74 182 224 286q159 111 378 111q298 0 489 -241l-85 -71q-73 79 -119 113q-127 93 -288 93q-167 0 -306 -102
q-125 -92 -183 -235q-51 -124 -51 -263q0 -173 76 -320q61 -118 175 -194q129 -86 279 -86q185 0 340 127q143 117 176 298q8 41 10 112h-523v104zM441 1697h107q52 -112 191 -112q140 0 192 112h107q-14 -61 -54 -105q-88 -97 -245 -97q-156 0 -244 97q-40 44 -54 105z" />
    <glyph glyph-name="gbreve" unicode="&#x11f;" horiz-adv-x="1146" 
d="M873 757v185h102v-987q0 -206 -122 -322q-120 -115 -325 -115q-259 0 -392 165l77 75q57 -61 90 -83q42 -27 115 -44q57 -13 114 -13q117 0 208 54q83 48 113 135q20 60 20 148v252q-63 -103 -121 -147q-101 -77 -235 -77q-188 0 -314 147q-116 135 -116 340
q0 150 69 278q114 211 366 211q112 0 204 -55q74 -44 147 -147zM537 862q-157 0 -257 -118q-87 -102 -87 -269q0 -201 124 -311q95 -84 213 -84q153 0 261 128q46 53 63 142q14 76 14 128q0 101 -20 164q-28 89 -109 150q-92 70 -202 70zM287 1294h101q51 -118 185 -118
t185 118h101q-14 -61 -52 -105q-84 -97 -234 -97t-235 97q-38 44 -51 105z" />
    <glyph glyph-name="Gdotaccent" unicode="&#x120;" horiz-adv-x="1479" 
d="M749 724h635q1 -58 1 -83q0 -188 -72 -329q-74 -143 -203 -231q-155 -105 -354 -105q-194 0 -351 99q-145 90 -220 234q-88 168 -88 369q0 165 60 314q74 182 224 286q159 111 378 111q298 0 489 -241l-85 -71q-73 79 -119 113q-127 93 -288 93q-167 0 -306 -102
q-125 -92 -183 -235q-51 -124 -51 -263q0 -173 76 -320q61 -118 175 -194q129 -86 279 -86q185 0 340 127q143 117 176 298q8 41 10 112h-523v104zM740 1679q36 0 60 -25q24 -24 24 -61q0 -39 -30 -64q-23 -19 -54 -19q-37 0 -61 25t-24 59q0 41 30 66q23 19 55 19z" />
    <glyph glyph-name="gdotaccent" unicode="&#x121;" horiz-adv-x="1146" 
d="M873 757v185h102v-987q0 -206 -122 -322q-120 -115 -325 -115q-259 0 -392 165l77 75q57 -61 90 -83q42 -27 115 -44q57 -13 114 -13q117 0 208 54q83 48 113 135q20 60 20 148v252q-63 -103 -121 -147q-101 -77 -235 -77q-188 0 -314 147q-116 135 -116 340
q0 150 69 278q114 211 366 211q112 0 204 -55q74 -44 147 -147zM537 862q-157 0 -257 -118q-87 -102 -87 -269q0 -201 124 -311q95 -84 213 -84q153 0 261 128q46 53 63 142q14 76 14 128q0 101 -20 164q-28 89 -109 150q-92 70 -202 70zM574 1277q33 0 55 -24
q19 -20 19 -52q0 -35 -25 -56q-20 -18 -50 -18q-34 0 -56 24q-19 20 -19 51q0 36 25 57q20 18 51 18z" />
    <glyph glyph-name="Gcommaaccent" unicode="&#x122;" horiz-adv-x="1479" 
d="M749 724h635q1 -58 1 -83q0 -188 -72 -329q-74 -143 -203 -231q-155 -105 -354 -105q-194 0 -351 99q-145 90 -220 234q-88 168 -88 369q0 165 60 314q74 182 224 286q159 111 378 111q298 0 489 -241l-85 -71q-73 79 -119 113q-127 93 -288 93q-167 0 -306 -102
q-125 -92 -183 -235q-51 -124 -51 -263q0 -173 76 -320q61 -118 175 -194q129 -86 279 -86q185 0 340 127q143 117 176 298q8 41 10 112h-523v104zM784 -85v-148q0 -182 -121 -221v57q66 30 67 144h-42v168h96z" />
    <glyph glyph-name="gcommaaccent" unicode="&#x123;" horiz-adv-x="1146" 
d="M873 757v185h102v-987q0 -206 -122 -322q-120 -115 -325 -115q-259 0 -392 165l77 75q57 -61 90 -83q42 -27 115 -44q57 -13 114 -13q117 0 208 54q83 48 113 135q20 60 20 148v252q-63 -103 -121 -147q-101 -77 -235 -77q-188 0 -314 147q-116 135 -116 340
q0 150 69 278q114 211 366 211q112 0 204 -55q74 -44 147 -147zM537 862q-157 0 -257 -118q-87 -102 -87 -269q0 -201 124 -311q95 -84 213 -84q153 0 261 128q46 53 63 142q14 76 14 128q0 101 -20 164q-28 89 -109 150q-92 70 -202 70zM457 1167l201 411l80 -36l-192 -421
z" />
    <glyph glyph-name="Hcircumflex" unicode="&#x124;" horiz-adv-x="1343" 
d="M300 627v-627h-116v1365h116v-634h742v634h116v-1365h-116v627h-742zM672 1649l-150 -185h-112l218 271h94l210 -271h-109z" />
    <glyph glyph-name="Hbar" unicode="&#x126;" horiz-adv-x="1341" 
d="M1206 1109h147v-72h-147v-1037h-110v666h-852v-666h-109v1037h-148v72h148v256h109v-256h852v256h110v-256zM244 1037v-283h852v283h-852z" />
    <glyph glyph-name="hbar" unicode="&#x127;" horiz-adv-x="1073" 
d="M234 1192h318v-71h-318v-373q40 103 93 156q102 104 257 104q189 0 291 -138q66 -90 66 -247v-623h-102v604q0 143 -58 214q-83 104 -225 104q-166 0 -257 -141q-65 -101 -65 -269v-512h-102v1121h-158v71h158v173h102v-173z" />
    <glyph glyph-name="Imacron" unicode="&#x12a;" horiz-adv-x="485" 
d="M301 1365v-1365h-116v1365h116zM529 1636v-90h-573v90h573z" />
    <glyph glyph-name="imacron" unicode="&#x12b;" horiz-adv-x="444" 
d="M273 942v-942h-102v942h102zM495 1247v-83h-546v83h546z" />
    <glyph glyph-name="ibreve" unicode="&#x12d;" horiz-adv-x="444" 
d="M273 942v-942h-102v942h102zM-64 1294h101q51 -118 185 -118t185 118h101q-13 -61 -52 -105q-84 -97 -234 -97t-234 97q-38 44 -52 105z" />
    <glyph glyph-name="Iogonek" unicode="&#x12e;" horiz-adv-x="485" 
d="M300 1365v-1365h-116v1365h116zM524 0h97q-72 -54 -98 -84q-44 -51 -44 -98q0 -37 25 -65q32 -37 99 -37q30 0 79 13l20 -81q-57 -21 -108 -21q-112 0 -170 65q-41 45 -41 101q0 120 141 207z" />
    <glyph glyph-name="iogonek" unicode="&#x12f;" horiz-adv-x="444" 
d="M273 942v-942h-102v942h102zM224 1283q34 0 57 -26q19 -23 19 -52q0 -33 -25 -56q-22 -20 -52 -20q-35 0 -58 26q-19 22 -19 51q0 33 25 57q22 20 53 20zM204 0h97q-142 -97 -142 -184q0 -54 47 -82q31 -19 77 -19q31 0 78 14l21 -81q-57 -21 -109 -21q-93 0 -150 47
q-60 49 -60 119q0 120 141 207z" />
    <glyph glyph-name="Idotaccent" unicode="&#x130;" horiz-adv-x="485" 
d="M301 1365v-1365h-116v1365h116zM243 1679q36 0 60 -25q24 -24 24 -61q0 -39 -30 -64q-23 -19 -54 -19q-37 0 -61 25t-24 59q0 41 30 66q23 19 55 19z" />
    <glyph glyph-name="dotlessi" unicode="&#x131;" horiz-adv-x="444" 
d="M273 942v-942h-102v942h102z" />
    <glyph glyph-name="IJ" unicode="&#x132;" horiz-adv-x="1239" 
d="M300 1365v-1365h-116v1365h116zM1082 1365v-974q0 -202 -129 -304q-112 -88 -339 -88q-30 0 -82 1v99q65 -5 101 -5q160 0 240 73q57 52 77 133q16 65 16 199v762h-434v104h550z" />
    <glyph glyph-name="ij" unicode="&#x133;" horiz-adv-x="887" 
d="M272 942v-942h-102v942h102zM223 1283q34 0 57 -26q19 -23 19 -52q0 -33 -25 -56q-22 -20 -52 -20q-35 0 -58 26q-19 22 -19 51q0 33 25 57q21 20 53 20zM716 942v-1076q0 -122 -31 -186q-40 -79 -116 -123q-66 -37 -140 -37q-10 0 -31 1v98h13q58 0 114 39q89 63 89 208
v1076h102zM666 1283q34 0 57 -26q19 -23 19 -52q0 -33 -25 -56q-22 -20 -52 -20q-35 0 -58 26q-19 22 -19 51q0 33 25 57q22 20 53 20z" />
    <glyph glyph-name="Kcommaaccent" unicode="&#x136;" horiz-adv-x="1080" 
d="M300 641v-641h-116v1365h116v-648l606 648h143l-635 -685l635 -680h-160zM584 -85v-148q0 -182 -121 -221v57q66 30 67 144h-42v168h96z" />
    <glyph glyph-name="kcommaaccent" unicode="&#x137;" horiz-adv-x="877" 
d="M273 435v-435h-102v1365h102v-862l436 439h140l-470 -465l469 -477h-140zM483 -112v-114q0 -100 -41 -149q-34 -41 -87 -68v60q8 8 41 37q25 22 30 99h-40v135h97z" />
    <glyph glyph-name="kgreenlandic" unicode="&#x138;" horiz-adv-x="967" 
d="M943 984l-449 -407l491 -577h-124l-436 510l-190 -171v-339h-103v984h103v-531l582 531h126z" />
    <glyph glyph-name="Lacute" unicode="&#x139;" horiz-adv-x="850" 
d="M300 116h495v-116h-611v1365h116v-1249zM535 1730h146l-228 -266h-94z" />
    <glyph glyph-name="lacute" unicode="&#x13a;" horiz-adv-x="444" 
d="M273 0h-102v1365h102v-1365zM333 1730h145l-227 -266h-94z" />
    <glyph glyph-name="Lcommaaccent" unicode="&#x13b;" horiz-adv-x="850" 
d="M300 116h495v-116h-611v1365h116v-1249zM470 -85v-148q0 -182 -121 -221v57q66 30 67 144h-42v168h96z" />
    <glyph glyph-name="lcommaaccent" unicode="&#x13c;" horiz-adv-x="444" 
d="M272 0h-102v1365h102v-1365zM266 -112v-114q0 -100 -41 -149q-34 -41 -87 -68v60q8 8 41 37q25 22 30 99h-40v135h97z" />
    <glyph glyph-name="Lcaron" unicode="&#x13d;" horiz-adv-x="850" 
d="M300 116h495v-116h-611v1365h116v-1249zM831 1346l-200 -411l-81 36l192 421z" />
    <glyph glyph-name="lcaron" unicode="&#x13e;" horiz-adv-x="880" 
d="M273 0h-102v1365h102v-1365zM796 1346l-201 -411l-80 36l192 421z" />
    <glyph glyph-name="Ldot" unicode="&#x13f;" horiz-adv-x="850" 
d="M300 116h495v-116h-611v1365h116v-1249zM698 787q39 0 65 -27q25 -26 25 -65q0 -42 -32 -69q-25 -20 -59 -20q-39 0 -65 27q-25 26 -25 63q0 44 32 71q25 20 59 20z" />
    <glyph glyph-name="ldot" unicode="&#x140;" horiz-adv-x="625" 
d="M273 0h-102v1365h102v-1365zM535 787q38 0 65 -27q25 -26 25 -65q0 -42 -32 -69q-25 -20 -59 -20q-39 0 -65 27q-25 26 -25 63q0 44 32 71q25 20 59 20z" />
    <glyph glyph-name="Lslash" unicode="&#x141;" horiz-adv-x="850" 
d="M184 693v672h116v-604l246 187v-117l-246 -186v-529h495v-116h-611v577l-150 -115v116z" />
    <glyph glyph-name="lslash" unicode="&#x142;" horiz-adv-x="444" 
d="M170 762v603h102v-545l151 115v-107l-151 -116v-712h-102v654l-150 -115v107z" />
    <glyph glyph-name="Nacute" unicode="&#x143;" horiz-adv-x="1390" 
d="M300 1136v-1136h-116v1365h95l811 -1120v1120h116v-1365h-88zM806 1730h145l-228 -266h-93z" />
    <glyph glyph-name="nacute" unicode="&#x144;" horiz-adv-x="1018" 
d="M171 942h102v-142q128 159 294 159q127 0 208 -74q55 -51 69 -119q10 -45 10 -111v-655h-102v609q0 138 -40 191q-49 63 -158 63q-120 0 -206 -87q-41 -42 -58 -85t-17 -114v-577h-102v942zM618 1338h142l-225 -263h-86z" />
    <glyph glyph-name="Ncommaaccent" unicode="&#x145;" horiz-adv-x="1390" 
d="M300 1136v-1136h-116v1365h95l811 -1120v1120h116v-1365h-88zM740 -85v-148q0 -182 -121 -221v57q66 30 67 144h-42v168h96z" />
    <glyph glyph-name="ncommaaccent" unicode="&#x146;" horiz-adv-x="1018" 
d="M171 942h102v-142q128 159 294 159q127 0 208 -74q55 -51 69 -119q10 -45 10 -111v-655h-102v609q0 138 -40 191q-49 63 -158 63q-120 0 -206 -87q-41 -42 -58 -85t-17 -114v-577h-102v942zM554 -112v-114q0 -100 -41 -149q-34 -41 -87 -68v60q8 8 41 37q25 22 30 99h-40
v135h97z" />
    <glyph glyph-name="Ncaron" unicode="&#x147;" horiz-adv-x="1390" 
d="M300 1136v-1136h-116v1365h95l811 -1120v1120h116v-1365h-88zM694 1550l150 185h112l-218 -271h-94l-210 271h109z" />
    <glyph glyph-name="ncaron" unicode="&#x148;" horiz-adv-x="1018" 
d="M171 942h102v-142q128 159 294 159q127 0 208 -74q55 -51 69 -119q10 -45 10 -111v-655h-102v609q0 138 -40 191q-49 63 -158 63q-120 0 -206 -87q-41 -42 -58 -85t-17 -114v-577h-102v942zM512 1157l151 185h109l-214 -267h-99l-213 267h111z" />
    <glyph glyph-name="napostrophe" unicode="&#x149;" horiz-adv-x="1454" 
d="M352 1346l-201 -411l-80 36l192 421zM607 942h102v-142q129 159 294 159q128 0 209 -74q55 -50 69 -119q10 -45 10 -111v-655h-102v609q0 139 -40 191q-49 63 -159 63q-121 0 -206 -87q-43 -45 -58 -85q-17 -45 -17 -114v-577h-102v942z" />
    <glyph glyph-name="Eng" unicode="&#x14a;" horiz-adv-x="1321" 
d="M135 1340h105v-329q38 122 105 201q136 160 378 160q238 0 371 -160q65 -79 83 -185q9 -54 9 -161v-1025q0 -88 -28 -128q-36 -51 -128 -60q-27 -2 -77 -2h-71v70h7q116 0 151 37q27 28 33 83q3 26 3 81v923q0 125 -20 189q-38 120 -146 185q-94 57 -218 57
q-159 0 -272 -90q-96 -78 -140 -204q-36 -106 -36 -285v-697h-109v1340z" />
    <glyph glyph-name="eng" unicode="&#x14b;" horiz-adv-x="1075" 
d="M132 980h97v-225q33 88 82 140q109 114 279 114q178 0 279 -118q54 -64 66 -141q9 -53 9 -132v-773q0 -89 -29 -129q-37 -51 -130 -57q-21 -1 -54 -1h-17h-64v59h7q99 0 130 19q54 32 54 126v738q0 126 -34 189q-35 65 -104 99q-65 32 -141 32q-129 0 -218 -80
q-111 -99 -111 -325v-515h-101v980z" />
    <glyph glyph-name="Omacron" unicode="&#x14c;" horiz-adv-x="1497" 
d="M753 1389q180 0 336 -101q311 -200 311 -622q0 -201 -88 -362q-84 -156 -260 -250q-146 -78 -304 -78q-196 0 -364 115q-287 196 -287 584q0 328 201 524q193 190 455 190zM751 1282q-257 0 -414 -210q-120 -160 -120 -390q0 -256 144 -425q148 -175 385 -175
q133 0 249 63q146 80 213 215q73 146 73 312q0 293 -165 455q-87 86 -199 125q-87 30 -166 30zM1035 1636v-90h-573v90h573z" />
    <glyph glyph-name="omacron" unicode="&#x14d;" horiz-adv-x="1100" 
d="M552 959q218 0 356 -167q104 -126 104 -322q0 -113 -47 -218q-60 -134 -191 -209q-105 -60 -228 -60q-135 0 -248 70q-211 132 -211 421q0 230 137 359q134 126 328 126zM551 862q-170 0 -273 -123q-85 -102 -85 -270q0 -179 100 -283q103 -106 258 -106q176 0 277 135
q78 106 78 256q0 187 -106 291q-103 100 -249 100zM823 1247v-83h-547v83h547z" />
    <glyph glyph-name="Ohungarumlaut" unicode="&#x150;" horiz-adv-x="1497" 
d="M753 1389q180 0 336 -101q311 -200 311 -622q0 -201 -88 -362q-84 -156 -260 -250q-146 -78 -304 -78q-196 0 -364 115q-287 196 -287 584q0 328 201 524q193 190 455 190zM751 1282q-257 0 -414 -210q-120 -160 -120 -390q0 -256 144 -425q148 -175 385 -175
q133 0 249 63q146 80 213 215q73 146 73 312q0 293 -165 455q-87 86 -199 125q-87 30 -166 30zM677 1730h142l-187 -266h-90zM977 1730h142l-187 -266h-90z" />
    <glyph glyph-name="ohungarumlaut" unicode="&#x151;" horiz-adv-x="1100" 
d="M552 959q218 0 356 -167q104 -126 104 -322q0 -113 -47 -218q-60 -134 -191 -209q-105 -60 -228 -60q-135 0 -248 70q-211 132 -211 421q0 230 137 359q134 126 328 126zM551 862q-170 0 -273 -123q-85 -102 -85 -270q0 -179 100 -283q103 -106 258 -106q176 0 277 135
q78 106 78 256q0 187 -106 291q-103 100 -249 100zM489 1338h139l-184 -263h-82zM762 1338h139l-184 -263h-82z" />
    <glyph glyph-name="OE" unicode="&#x152;" horiz-adv-x="2039" 
d="M1366 639v-535h564v-104h-680v275q-60 -91 -106 -135q-174 -164 -412 -164q-161 0 -302 79q-155 86 -233 225q-101 181 -101 416q0 305 172 491q103 111 249 163q111 39 231 39q179 0 323 -91q78 -49 129 -113q18 -23 50 -73v253h680v-104h-564v-518h564v-104h-564z
M742 1282q-276 0 -421 -214q-105 -156 -105 -376q0 -181 76 -333q62 -125 186 -203q119 -73 256 -73q132 0 249 69q133 77 195 201q73 145 73 316q0 263 -127 433q-74 100 -188 143q-98 37 -194 37z" />
    <glyph glyph-name="oe" unicode="&#x153;" horiz-adv-x="1907" 
d="M1700 266l78 -44q-56 -96 -125 -147q-125 -92 -278 -92q-170 0 -297 108q-47 39 -73 85q-19 32 -42 90q-36 -88 -69 -128q-60 -73 -152 -114q-91 -41 -193 -41q-139 0 -253 72q-209 132 -209 412q0 139 59 256q58 114 171 177q105 59 234 59q162 0 286 -97
q60 -47 92 -101q13 -23 34 -71q42 90 80 130q67 70 166 108q83 31 167 31q160 0 283 -99q165 -134 172 -369v-64h-816q12 -132 73 -208q48 -61 122 -98q81 -41 162 -41q77 0 162 37q70 30 117 84q19 21 49 65zM1728 523q-11 120 -58 189q-44 66 -119 106q-82 44 -180 44
q-170 0 -276 -130q-51 -63 -68 -133q-6 -25 -11 -76h712zM554 862q-169 0 -275 -125q-86 -102 -86 -265q0 -173 99 -283q100 -109 262 -109q190 0 289 148q71 106 71 242q0 190 -115 296q-103 96 -245 96z" />
    <glyph glyph-name="Racute" unicode="&#x154;" horiz-adv-x="1122" 
d="M300 590v-590h-116v1365h349q145 0 258 -60q91 -48 140 -147q39 -80 39 -177q0 -207 -160 -317q-103 -71 -274 -74h-78l612 -590h-159zM300 681h196q167 0 257 69q99 76 99 225q0 286 -327 286h-225v-580zM671 1730h146l-228 -266h-93z" />
    <glyph glyph-name="racute" unicode="&#x155;" horiz-adv-x="634" 
d="M171 942h102v-169q40 86 88 123q80 63 191 63q19 0 41 -1v-99h-34q-117 0 -193 -82q-56 -60 -77 -136q-16 -54 -16 -150v-491h-102v942zM426 1338h142l-225 -263h-86z" />
    <glyph glyph-name="Rcommaaccent" unicode="&#x156;" horiz-adv-x="1122" 
d="M300 590v-590h-116v1365h349q145 0 258 -60q91 -48 140 -147q39 -80 39 -177q0 -207 -160 -317q-103 -71 -274 -74h-78l612 -590h-159zM300 681h196q167 0 257 69q99 76 99 225q0 286 -327 286h-225v-580zM606 -85v-148q0 -182 -121 -221v57q66 30 67 144h-42v168h96z
" />
    <glyph glyph-name="rcommaaccent" unicode="&#x157;" horiz-adv-x="634" 
d="M171 942h102v-169q40 86 88 123q80 63 191 63q19 0 41 -1v-99h-34q-117 0 -193 -82q-56 -60 -77 -136q-16 -54 -16 -150v-491h-102v942zM427 -112v-114q0 -100 -41 -149q-34 -41 -87 -68v60q8 8 41 37q25 22 30 99h-40v135h97z" />
    <glyph glyph-name="Rcaron" unicode="&#x158;" horiz-adv-x="1122" 
d="M300 590v-590h-116v1365h349q145 0 258 -60q91 -48 140 -147q39 -80 39 -177q0 -207 -160 -317q-103 -71 -274 -74h-78l612 -590h-159zM300 681h196q167 0 257 69q99 76 99 225q0 286 -327 286h-225v-580zM560 1550l150 185h112l-218 -271h-94l-210 271h109z" />
    <glyph glyph-name="rcaron" unicode="&#x159;" horiz-adv-x="634" 
d="M171 942h102v-169q40 86 88 123q80 63 190 63q19 0 41 -1v-99h-34q-117 0 -193 -82q-55 -60 -77 -136q-15 -54 -15 -150v-491h-102v942zM319 1157l152 185h109l-214 -267h-99l-213 267h110z" />
    <glyph glyph-name="Sacute" unicode="&#x15a;" horiz-adv-x="972" 
d="M86 349h107q7 -99 39 -155q65 -114 229 -114q111 0 196 57q109 73 109 222q0 99 -61 157q-64 62 -243 119q-153 50 -199 78q-171 101 -171 302q0 176 122 284q101 90 262 90q180 0 282 -112q92 -102 95 -231v-33h-114q-2 105 -35 159q-32 53 -93 82q-63 31 -136 31
q-119 0 -194 -77q-73 -76 -73 -187q0 -114 75 -173q42 -33 105 -58t146 -53q143 -49 201 -91q145 -103 145 -286q0 -118 -63 -215q-111 -169 -345 -169q-198 0 -297 110q-90 101 -90 231q0 13 1 32zM597 1730h145l-227 -266h-94z" />
    <glyph glyph-name="sacute" unicode="&#x15b;" horiz-adv-x="833" 
d="M729 693h-107q0 53 -19 83q-53 89 -192 89q-98 0 -154 -46q-52 -41 -52 -114q0 -86 77 -129q40 -23 146 -49q127 -32 182 -65q71 -43 105 -116q23 -52 23 -105q0 -128 -110 -205q-77 -53 -212 -53q-307 0 -338 280h104q6 -70 45 -113q66 -74 193 -74q97 0 152 44
q60 48 60 120t-62 121q-44 34 -173 65q-153 36 -219 95q-79 72 -79 180q0 128 109 203q80 55 205 55q171 0 258 -103q53 -64 58 -163zM525 1338h143l-225 -263h-86z" />
    <glyph glyph-name="Scircumflex" unicode="&#x15c;" horiz-adv-x="972" 
d="M86 349h107q7 -99 39 -155q65 -114 229 -114q111 0 196 57q109 73 109 222q0 99 -61 157q-64 62 -243 119q-153 50 -199 78q-171 101 -171 302q0 176 122 284q101 90 262 90q180 0 282 -112q92 -102 95 -231v-33h-114q-2 105 -35 159q-32 53 -93 82q-63 31 -136 31
q-119 0 -194 -77q-73 -76 -73 -187q0 -114 75 -173q42 -33 105 -58t146 -53q143 -49 201 -91q145 -103 145 -286q0 -118 -63 -215q-111 -169 -345 -169q-198 0 -297 110q-90 101 -90 231q0 13 1 32zM487 1649l-150 -185h-112l218 271h94l210 -271h-109z" />
    <glyph glyph-name="scircumflex" unicode="&#x15d;" horiz-adv-x="833" 
d="M729 693h-107q0 53 -19 83q-53 89 -192 89q-98 0 -154 -46q-52 -41 -52 -114q0 -86 77 -129q40 -23 146 -49q127 -32 182 -65q71 -43 105 -116q23 -52 23 -105q0 -128 -110 -205q-77 -53 -212 -53q-307 0 -338 280h104q6 -70 45 -113q66 -74 193 -74q97 0 152 44
q60 48 60 120t-62 121q-44 34 -173 65q-153 36 -219 95q-79 72 -79 180q0 128 109 203q80 55 205 55q171 0 258 -103q53 -64 58 -163zM414 1260l-151 -185h-109l214 267h99l213 -267h-111z" />
    <glyph glyph-name="Scedilla" unicode="&#x15e;" horiz-adv-x="1198" 
d="M616 -28l-61 -83q48 9 77 9q62 0 101 -29q50 -36 50 -96q0 -76 -72 -121q-50 -31 -127 -31q-96 0 -197 44l20 47q89 -40 167 -40q73 0 111 41q22 24 22 53q0 45 -44 69q-24 14 -63 14q-42 0 -98 -21l-33 27l86 118q-200 10 -324 96q-97 67 -142 188q-32 85 -32 175v22
h109q2 -96 19 -149q42 -128 153 -188q109 -58 260 -58q207 0 310 90q95 83 95 212q0 132 -98 193q-45 27 -143 55q-55 15 -168 43q-187 47 -260 73q-236 83 -236 307q0 183 149 281q123 81 320 81q164 0 289 -57q210 -95 224 -361h-105q-10 144 -81 219q-103 111 -330 111
q-161 0 -259 -69q-101 -69 -101 -202q0 -148 137 -210q65 -28 330 -93q225 -55 302 -100q139 -83 139 -266q0 -163 -111 -267q-129 -120 -385 -127z" />
    <glyph glyph-name="scedilla" unicode="&#x15f;" horiz-adv-x="922" 
d="M490 -27l-62 -84q44 10 78 10q45 0 77 -17q68 -35 68 -106q0 -76 -70 -118q-52 -31 -126 -31q-93 0 -190 43l20 47q87 -41 163 -41q66 0 104 35q26 25 26 59q0 39 -34 63q-27 19 -70 19q-40 0 -95 -22l-33 27l86 117q-153 8 -252 83q-116 88 -121 279h99q3 -112 44 -174
q77 -116 264 -116q134 0 208 57q83 62 83 157q0 67 -43 108q-43 42 -109 62q-61 19 -146 38q-191 43 -259 82q-108 61 -108 190q0 145 126 217q87 50 237 50q209 0 306 -110q62 -69 70 -202h-96q-7 89 -38 139q-66 103 -247 103q-140 0 -208 -68q-49 -48 -49 -123
q0 -61 32 -96q38 -42 104 -62q67 -20 170 -44q164 -36 236 -74q122 -64 122 -207q0 -175 -183 -253q-75 -32 -184 -37z" />
    <glyph glyph-name="Scaron" unicode="&#x160;" horiz-adv-x="972" 
d="M86 349h107q7 -99 39 -155q65 -114 229 -114q111 0 196 57q109 73 109 222q0 99 -61 157q-64 62 -243 119q-153 50 -199 78q-171 101 -171 302q0 176 122 284q101 90 262 90q180 0 282 -112q92 -102 95 -231v-33h-114q-2 105 -35 159q-32 53 -93 82q-63 31 -136 31
q-119 0 -194 -77q-73 -76 -73 -187q0 -114 75 -173q42 -33 105 -58t146 -53q143 -49 201 -91q145 -103 145 -286q0 -118 -63 -215q-111 -169 -345 -169q-198 0 -297 110q-90 101 -90 231q0 13 1 32zM486 1550l149 185h112l-218 -271h-93l-211 271h109z" />
    <glyph glyph-name="scaron" unicode="&#x161;" horiz-adv-x="833" 
d="M729 693h-107q0 53 -19 83q-53 89 -192 89q-98 0 -154 -46q-52 -41 -52 -114q0 -86 77 -129q40 -23 146 -49q127 -32 182 -65q71 -43 105 -116q23 -52 23 -105q0 -128 -110 -205q-77 -53 -212 -53q-307 0 -338 280h104q6 -70 45 -113q66 -74 193 -74q97 0 152 44
q60 48 60 120t-62 121q-44 34 -173 65q-153 36 -219 95q-79 72 -79 180q0 128 109 203q80 55 205 55q171 0 258 -103q53 -64 58 -163zM419 1157l152 185h109l-214 -267h-99l-213 267h110z" />
    <glyph glyph-name="Tcommaaccent" unicode="&#x162;" horiz-adv-x="888" 
d="M502 1261v-1261h-116v1261h-359v104h834v-104h-359zM489 -85v-148q0 -182 -121 -221v57q66 30 67 144h-42v168h96z" />
    <glyph glyph-name="tcommaaccent" unicode="&#x163;" horiz-adv-x="505" 
d="M280 846v-697q0 -37 16 -48q13 -8 52 -8h86v-93h-111q-75 0 -109 29q-36 31 -36 101v716h-143v96h143v318h102v-318h154v-96h-154zM297 -112v-114q0 -100 -41 -149q-34 -41 -87 -68v60q8 8 41 37q25 22 30 99h-40v135h97z" />
    <glyph glyph-name="Tcaron" unicode="&#x164;" horiz-adv-x="888" 
d="M502 1261v-1261h-116v1261h-359v104h834v-104h-359zM443 1550l150 185h112l-218 -271h-94l-210 271h109z" />
    <glyph glyph-name="tcaron" unicode="&#x165;" horiz-adv-x="942" 
d="M280 846v-697q0 -37 16 -48q13 -8 52 -8h86v-93h-111q-75 0 -109 29q-36 31 -36 101v716h-143v96h143v318h102v-318h154v-96h-154zM857 1346l-200 -411l-81 36l192 421z" />
    <glyph glyph-name="Tbar" unicode="&#x166;" horiz-adv-x="1013" 
d="M561 825h396v-82h-396v-743h-109v743h-396v82h396v446h-475v94h1059v-94h-475v-446z" />
    <glyph glyph-name="tbar" unicode="&#x167;" horiz-adv-x="528" 
d="M284 710h170v-70h-170v-373q0 -104 17 -136q28 -56 116 -56q27 0 82 9v-82q-62 -8 -103 -8q-136 0 -183 76q-23 35 -28 92q-3 25 -3 95v383h-140v70h140v198h-181v76h181v309h102v-309h215v-76h-215v-198z" />
    <glyph glyph-name="utilde" unicode="&#x169;" horiz-adv-x="962" 
d="M719 942h103v-608q0 -127 -39 -190q-45 -74 -125 -117q-81 -44 -176 -44q-151 0 -251 99q-92 91 -92 252v608h102v-608q0 -123 73 -192q66 -62 166 -62q117 0 188 78q51 56 51 176v608zM734 1293l70 -51q-92 -143 -183 -143q-39 0 -93 32q-20 12 -79 50q-49 31 -80 31
q-64 0 -113 -87l-72 61q93 126 185 126q53 0 111 -36q36 -23 81 -54q34 -24 61 -24q61 0 112 95z" />
    <glyph glyph-name="Umacron" unicode="&#x16a;" horiz-adv-x="1301" 
d="M273 1365v-818q0 -196 42 -281q48 -98 166 -148q85 -36 164 -36q100 0 199 56q116 65 155 176q23 67 23 239v812h122v-818q0 -205 -44 -302q-63 -137 -199 -209q-112 -60 -249 -60q-165 0 -292 84q-139 91 -181 239q-22 76 -22 248v818h116zM937 1636v-90h-573v90h573z
" />
    <glyph glyph-name="umacron" unicode="&#x16b;" horiz-adv-x="962" 
d="M719 942h103v-608q0 -127 -39 -190q-45 -74 -125 -117q-81 -44 -176 -44q-151 0 -251 99q-92 91 -92 252v608h102v-608q0 -123 73 -192q66 -62 166 -62q117 0 188 78q51 56 51 176v608zM754 1247v-83h-546v83h546z" />
    <glyph glyph-name="ubreve" unicode="&#x16d;" horiz-adv-x="962" 
d="M719 942h103v-608q0 -127 -39 -190q-45 -74 -125 -117q-81 -44 -176 -44q-151 0 -251 99q-92 91 -92 252v608h102v-608q0 -123 73 -192q66 -62 166 -62q117 0 188 78q51 56 51 176v608zM195 1294h101q51 -118 185 -118t184 118h102q-14 -61 -52 -105q-84 -97 -234 -97
t-235 97q-38 44 -51 105z" />
    <glyph glyph-name="Uring" unicode="&#x16e;" horiz-adv-x="1301" 
d="M273 1365v-818q0 -196 42 -281q48 -98 166 -148q85 -36 164 -36q100 0 199 56q116 65 155 176q23 67 23 239v812h122v-818q0 -205 -44 -302q-63 -137 -199 -209q-112 -60 -249 -60q-165 0 -292 84q-139 91 -181 239q-22 76 -22 248v818h116zM652 1756q64 0 108 -47
q41 -42 41 -107q0 -68 -52 -112q-42 -36 -98 -36q-66 0 -110 46q-41 43 -41 105q0 71 52 115q42 36 100 36zM652 1706q-52 0 -80 -37q-22 -29 -22 -64q0 -41 28 -72q27 -29 73 -29q51 0 78 37q22 29 22 62q0 42 -28 74q-27 29 -71 29z" />
    <glyph glyph-name="uring" unicode="&#x16f;" horiz-adv-x="962" 
d="M719 942h103v-608q0 -127 -39 -190q-45 -74 -125 -117q-81 -44 -176 -44q-151 0 -251 99q-92 91 -92 252v608h102v-608q0 -123 73 -192q66 -62 166 -62q117 0 188 78q51 56 51 176v608zM482 1365q63 0 108 -46q41 -43 41 -108q0 -68 -52 -112q-42 -36 -98 -36
q-66 0 -110 46q-41 43 -41 105q0 71 52 115q42 36 100 36zM482 1315q-53 0 -80 -37q-22 -29 -22 -64q0 -42 28 -72q27 -29 73 -29q51 0 78 37q22 29 22 63q0 42 -28 73q-26 29 -71 29z" />
    <glyph glyph-name="Uhungarumlaut" unicode="&#x170;" horiz-adv-x="1301" 
d="M273 1365v-818q0 -196 42 -281q48 -98 166 -148q85 -36 164 -36q100 0 199 56q116 65 155 176q23 67 23 239v812h122v-818q0 -205 -44 -302q-63 -137 -199 -209q-112 -60 -249 -60q-165 0 -292 84q-139 91 -181 239q-22 76 -22 248v818h116zM579 1730h142l-187 -266h-90z
M879 1730h142l-187 -266h-90z" />
    <glyph glyph-name="uhungarumlaut" unicode="&#x171;" horiz-adv-x="962" 
d="M719 942h103v-608q0 -127 -39 -190q-45 -74 -125 -117q-81 -44 -176 -44q-151 0 -251 99q-92 91 -92 252v608h102v-608q0 -123 73 -192q66 -62 166 -62q117 0 188 78q51 56 51 176v608zM421 1338h138l-184 -263h-82zM694 1338h138l-184 -263h-82z" />
    <glyph glyph-name="Uogonek" unicode="&#x172;" horiz-adv-x="1301" 
d="M273 1365v-818q0 -196 42 -281q48 -98 166 -148q85 -36 164 -36q100 0 199 56q116 65 155 176q23 67 23 239v812h122v-818q0 -205 -44 -302q-63 -137 -199 -209q-112 -60 -249 -60q-165 0 -292 84q-139 91 -181 239q-22 76 -22 248v818h116zM932 0h97q-72 -55 -97 -84
q-44 -52 -44 -98q0 -37 25 -65q31 -37 99 -37q30 0 78 13l20 -81q-57 -21 -108 -21q-111 0 -169 65q-41 45 -41 101q0 120 140 207z" />
    <glyph glyph-name="uogonek" unicode="&#x173;" horiz-adv-x="962" 
d="M719 942h103v-608q0 -127 -39 -190q-45 -74 -125 -117q-81 -44 -176 -44q-151 0 -251 99q-92 91 -92 252v608h102v-608q0 -123 73 -192q66 -62 166 -62q117 0 188 78q51 56 51 176v608zM462 0h97q-142 -97 -142 -184q0 -54 47 -82q31 -19 77 -19q32 0 79 14l20 -81
q-56 -21 -108 -21q-94 0 -151 47q-60 49 -60 119q0 120 141 207z" />
    <glyph glyph-name="Wcircumflex" unicode="&#x174;" horiz-adv-x="1766" 
d="M1276 225l359 1140h118l-435 -1365h-84l-347 1165l-347 -1165h-87l-439 1365h123l360 -1140l343 1140h102zM884 1649l-150 -185h-111l217 271h94l211 -271h-109z" />
    <glyph glyph-name="Ycircumflex" unicode="&#x176;" horiz-adv-x="1054" 
d="M589 600v-600h-116v600l-480 765h138l397 -643l394 643h139zM528 1649l-150 -185h-112l218 271h94l210 -271h-109z" />
    <glyph glyph-name="ycircumflex" unicode="&#x177;" horiz-adv-x="863" 
d="M414 171l315 771h113l-578 -1410h-113l207 502l-338 908h108zM429 1260l-152 -185h-108l213 267h99l213 -267h-110z" />
    <glyph glyph-name="Ydieresis" unicode="&#x178;" horiz-adv-x="1054" 
d="M589 600v-600h-116v600l-480 765h138l397 -643l394 643h139zM323 1679q36 0 60 -25q24 -24 24 -61q0 -39 -30 -64q-23 -19 -55 -19q-36 0 -60 25q-24 24 -24 59q0 41 30 66q23 19 55 19zM732 1679q36 0 60 -25q24 -24 24 -61q0 -39 -30 -64q-23 -19 -54 -19q-37 0 -61 25
t-24 59q0 41 30 66q23 19 55 19z" />
    <glyph glyph-name="Zacute" unicode="&#x179;" horiz-adv-x="1090" 
d="M231 104h755v-104h-959l845 1261h-752v104h957zM656 1730h145l-228 -266h-93z" />
    <glyph glyph-name="zacute" unicode="&#x17a;" horiz-adv-x="801" 
d="M238 96h469v-96h-655l539 846h-477v96h657zM509 1338h143l-225 -263h-87z" />
    <glyph glyph-name="Zdotaccent" unicode="&#x17b;" horiz-adv-x="1090" 
d="M231 104h755v-104h-959l845 1261h-752v104h957zM545 1679q36 0 60 -25q24 -24 24 -61q0 -39 -30 -64q-23 -19 -55 -19q-36 0 -61 25q-23 24 -23 59q0 41 30 66q23 19 55 19z" />
    <glyph glyph-name="zdotaccent" unicode="&#x17c;" horiz-adv-x="801" 
d="M238 96h469v-96h-655l539 846h-477v96h657zM402 1277q33 0 55 -24q19 -20 19 -52q0 -34 -25 -56q-20 -18 -50 -18q-34 0 -56 24q-19 20 -19 51q0 36 25 57q20 18 51 18z" />
    <glyph glyph-name="Zcaron" unicode="&#x17d;" horiz-adv-x="1090" 
d="M231 104h755v-104h-959l845 1261h-752v104h957zM544 1550l150 185h112l-218 -271h-94l-210 271h109z" />
    <glyph glyph-name="zcaron" unicode="&#x17e;" horiz-adv-x="801" 
d="M238 96h469v-96h-655l539 846h-477v96h657zM403 1157l152 185h109l-214 -267h-99l-213 267h110z" />
    <glyph glyph-name="florin" unicode="&#x192;" 
d="M504 853h-142l16 89h141l49 280q22 124 94 189q77 70 177 70q13 0 37 -2l-15 -86q-84 -12 -113 -30q-59 -36 -77 -141l-50 -280h160l-15 -89h-160l-138 -780q-24 -138 -79 -209q-96 -126 -254 -137l17 95q72 12 108 43q82 74 105 204z" />
    <glyph glyph-name="uni01CD" unicode="&#x1cd;" horiz-adv-x="1212" 
d="M936 358h-659l-145 -358h-118l537 1365h127l520 -1365h-129zM894 464l-284 746l-291 -746h575zM606 1550l150 185h111l-217 -271h-94l-211 271h109z" />
    <glyph glyph-name="uni01CE" unicode="&#x1ce;" horiz-adv-x="1148" 
d="M875 768v174h102v-942h-102v208q-139 -225 -352 -225q-191 0 -318 141q-118 130 -118 347q0 246 152 381q121 107 282 107q127 0 232 -67q63 -40 122 -124zM529 862q-163 0 -251 -121q-85 -117 -85 -276q0 -183 110 -292q93 -93 221 -93q160 0 266 136q46 60 69 143
q19 67 19 127q0 175 -100 275q-100 101 -249 101zM576 1157l152 185h109l-214 -267h-99l-213 267h110z" />
    <glyph glyph-name="uni01D3" unicode="&#x1d3;" horiz-adv-x="1301" 
d="M273 1365v-818q0 -196 42 -281q48 -98 166 -148q85 -36 164 -36q100 0 199 56q116 65 155 176q23 67 23 239v812h122v-818q0 -205 -44 -302q-63 -137 -199 -209q-112 -60 -249 -60q-165 0 -292 84q-139 91 -181 239q-22 76 -22 248v818h116zM650 1550l150 185h112
l-218 -271h-94l-210 271h109z" />
    <glyph glyph-name="Gcaron" unicode="&#x1e6;" horiz-adv-x="1479" 
d="M749 724h635q1 -58 1 -83q0 -188 -72 -329q-74 -143 -203 -231q-155 -105 -354 -105q-194 0 -351 99q-145 90 -220 234q-88 168 -88 369q0 165 60 314q74 182 224 286q159 111 378 111q298 0 489 -241l-85 -71q-73 79 -119 113q-127 93 -288 93q-167 0 -306 -102
q-125 -92 -183 -235q-51 -124 -51 -263q0 -173 76 -320q61 -118 175 -194q129 -86 279 -86q185 0 340 127q143 117 176 298q8 41 10 112h-523v104zM739 1550l150 185h112l-218 -271h-94l-211 271h109z" />
    <glyph glyph-name="gcaron" unicode="&#x1e7;" horiz-adv-x="1146" 
d="M873 757v185h102v-987q0 -206 -122 -322q-120 -115 -325 -115q-259 0 -392 165l77 75q57 -61 90 -83q42 -27 115 -44q57 -13 114 -13q117 0 208 54q83 48 113 135q20 60 20 148v252q-63 -103 -121 -147q-101 -77 -235 -77q-188 0 -314 147q-116 135 -116 340
q0 150 69 278q114 211 366 211q112 0 204 -55q74 -44 147 -147zM537 862q-157 0 -257 -118q-87 -102 -87 -269q0 -201 124 -311q95 -84 213 -84q153 0 261 128q46 53 63 142q14 76 14 128q0 101 -20 164q-28 89 -109 150q-92 70 -202 70zM576 1157l151 185h109l-214 -267
h-99l-213 267h111z" />
    <glyph glyph-name="uni01F4" unicode="&#x1f4;" horiz-adv-x="1479" 
d="M749 724h635q1 -58 1 -83q0 -188 -72 -329q-74 -143 -203 -231q-155 -105 -354 -105q-194 0 -351 99q-145 90 -220 234q-88 168 -88 369q0 165 60 314q74 182 224 286q159 111 378 111q298 0 489 -241l-85 -71q-73 79 -119 113q-127 93 -288 93q-167 0 -306 -102
q-125 -92 -183 -235q-51 -124 -51 -263q0 -173 76 -320q61 -118 175 -194q129 -86 279 -86q185 0 340 127q143 117 176 298q8 41 10 112h-523v104zM850 1730h146l-228 -266h-94z" />
    <glyph glyph-name="scommaaccent" unicode="&#x219;" horiz-adv-x="833" 
d="M729 693h-107q0 53 -19 83q-53 89 -192 89q-98 0 -154 -46q-52 -41 -52 -114q0 -86 77 -129q40 -23 146 -49q127 -32 182 -65q71 -43 105 -116q23 -52 23 -105q0 -128 -110 -205q-77 -53 -212 -53q-307 0 -338 280h104q6 -70 45 -113q66 -74 193 -74q97 0 152 44
q60 48 60 120t-62 121q-44 34 -173 65q-153 36 -219 95q-79 72 -79 180q0 128 109 203q80 55 205 55q171 0 258 -103q53 -64 58 -163zM461 -112v-114q0 -100 -41 -149q-33 -41 -87 -68v60q8 8 41 37q26 22 30 99h-40v135h97z" />
    <glyph glyph-name="uni021A" unicode="&#x21a;" horiz-adv-x="888" 
d="M502 1261v-1261h-116v1261h-359v104h834v-104h-359zM489 -85v-148q0 -182 -121 -221v57q66 30 67 144h-42v168h96z" />
    <glyph glyph-name="uni021B" unicode="&#x21b;" horiz-adv-x="505" 
d="M280 846v-697q0 -37 16 -48q13 -8 52 -8h86v-93h-111q-75 0 -109 29q-36 31 -36 101v716h-143v96h143v318h102v-318h154v-96h-154zM297 -112v-114q0 -100 -41 -149q-34 -41 -87 -68v60q8 8 41 37q25 22 30 99h-40v135h97z" />
    <glyph glyph-name="Adotaccent" unicode="&#x226;" horiz-adv-x="1212" 
d="M936 358h-659l-145 -358h-118l537 1365h127l520 -1365h-129zM894 464l-284 746l-291 -746h575zM607 1679q36 0 60 -25q24 -24 24 -61q0 -39 -30 -64q-23 -19 -54 -19q-37 0 -61 25t-24 59q0 41 30 66q23 19 55 19z" />
    <glyph glyph-name="adotaccent" unicode="&#x227;" horiz-adv-x="1148" 
d="M875 768v174h102v-942h-102v208q-139 -225 -352 -225q-191 0 -318 141q-118 130 -118 347q0 246 152 381q121 107 282 107q127 0 232 -67q63 -40 122 -124zM529 862q-163 0 -251 -121q-85 -117 -85 -276q0 -183 110 -292q93 -93 221 -93q160 0 266 136q46 60 69 143
q19 67 19 127q0 175 -100 275q-100 101 -249 101zM575 1277q33 0 55 -24q19 -20 19 -52q0 -34 -25 -56q-20 -18 -50 -18q-34 0 -56 24q-19 20 -19 51q0 36 25 57q20 18 51 18z" />
    <glyph glyph-name="dotlessj" unicode="&#x237;" horiz-adv-x="444" 
d="M273 942v-1076q0 -122 -31 -186q-40 -79 -116 -123q-66 -37 -140 -37q-10 0 -31 1v98h13q58 0 114 39q89 63 89 208v1076h102z" />
    <glyph glyph-name="afii57929" unicode="&#x2bc;" horiz-adv-x="437" 
d="M352 1346l-201 -411l-80 36l192 421z" />
    <glyph glyph-name="circumflex" unicode="&#x2c6;" 
d="M509 1260l-151 -185h-109l214 267h99l213 -267h-111z" />
    <glyph glyph-name="caron" unicode="&#x2c7;" 
d="M514 1157l152 185h109l-214 -267h-99l-213 267h110z" />
    <glyph glyph-name="uni02C9" unicode="&#x2c9;" 
d="M785 1247v-83h-546v83h546z" />
    <glyph glyph-name="breve" unicode="&#x2d8;" 
d="M226 1294h101q51 -118 185 -118t185 118h101q-13 -61 -52 -105q-84 -97 -234 -97t-234 97q-38 44 -52 105z" />
    <glyph glyph-name="dotaccent" unicode="&#x2d9;" 
d="M513 1277q33 0 55 -24q19 -20 19 -52q0 -35 -25 -56q-20 -18 -50 -18q-34 0 -56 24q-19 20 -19 51q0 36 24 57q21 18 52 18z" />
    <glyph glyph-name="ring" unicode="&#x2da;" 
d="M514 1365q63 0 108 -46q41 -43 41 -108q0 -68 -52 -112q-42 -36 -98 -36q-66 0 -110 46q-41 43 -41 105q0 71 52 115q42 36 100 36zM514 1315q-53 0 -80 -37q-22 -29 -22 -64q0 -42 28 -72q27 -29 73 -29q51 0 78 37q22 29 22 63q0 42 -28 73q-26 29 -71 29z" />
    <glyph glyph-name="ogonek" unicode="&#x2db;" 
d="M494 0h97q-142 -97 -142 -184q0 -54 47 -82q31 -19 77 -19q31 0 78 14l21 -81q-57 -21 -109 -21q-93 0 -150 47q-60 49 -60 119q0 120 141 207z" />
    <glyph glyph-name="tilde" unicode="&#x2dc;" 
d="M766 1293l70 -51q-93 -143 -184 -143q-38 0 -92 32q-20 12 -79 50q-49 31 -80 31q-64 0 -113 -87l-72 61q93 126 185 126q53 0 111 -36q35 -23 81 -54q34 -24 60 -24q61 0 113 95z" />
    <glyph glyph-name="hungarumlaut" unicode="&#x2dd;" 
d="M452 1338h139l-185 -263h-82zM725 1338h139l-185 -263h-82z" />
    <glyph glyph-name="uni0387" unicode="&#x387;" horiz-adv-x="440" 
d="M221 578q36 0 60 -25q23 -24 23 -60q0 -38 -30 -63q-22 -19 -54 -19q-36 0 -60 25q-23 24 -23 58q0 40 30 65q22 19 54 19z" />
    <glyph glyph-name="Fdotaccent" unicode="&#x1e1e;" horiz-adv-x="923" 
d="M300 1261v-518h561v-104h-561v-639h-116v1365h677v-104h-561zM462 1679q36 0 60 -25q24 -24 24 -61q0 -39 -30 -64q-23 -19 -55 -19q-36 0 -60 25q-24 24 -24 59q0 41 30 66q23 19 55 19z" />
    <glyph glyph-name="Wacute" unicode="&#x1e82;" horiz-adv-x="546" 
d="M478 543v-96h-410v96h410z" />
    <glyph glyph-name="Wdieresis" unicode="&#x1e84;" horiz-adv-x="1766" 
d="M1276 225l359 1140h118l-435 -1365h-84l-347 1165l-347 -1165h-87l-439 1365h123l360 -1140l343 1140h102zM679 1679q36 0 60 -25q24 -24 24 -61q0 -39 -30 -64q-23 -19 -54 -19q-37 0 -61 25t-24 59q0 41 30 66q23 19 55 19zM1089 1679q36 0 60 -25q24 -24 24 -61
q0 -39 -30 -64q-23 -19 -54 -19q-37 0 -61 25t-24 59q0 41 30 66q23 19 55 19z" />
    <glyph glyph-name="uni2006" unicode="&#x2006;" horiz-adv-x="137" 
 />
    <glyph glyph-name="uni2007" unicode="&#x2007;" horiz-adv-x="1139" 
 />
    <glyph glyph-name="uni2011" unicode="&#x2011;" horiz-adv-x="410" 
d="M410 543v-96h-410v96h410z" />
    <glyph glyph-name="figuredash" unicode="&#x2012;" 
d="M854 543v-96h-683v96h683z" />
    <glyph glyph-name="endash" unicode="&#x2013;" 
d="M854 543v-96h-683v96h683z" />
    <glyph glyph-name="emdash" unicode="&#x2014;" horiz-adv-x="1224" 
d="M1224 543v-96h-1224v96h1224z" />
    <glyph glyph-name="afii00208" unicode="&#x2015;" horiz-adv-x="1224" 
d="M1224 543v-96h-1224v96h1224z" />
    <glyph glyph-name="underscoredbl" unicode="&#x2017;" 
d="M0 -128h1024v-59h-1024v59zM0 -366h1024v-60h-1024v60z" />
    <glyph glyph-name="quoteleft" unicode="&#x2018;" horiz-adv-x="437" 
d="M85 981l201 411l80 -36l-192 -421z" />
    <glyph glyph-name="quoteright" unicode="&#x2019;" horiz-adv-x="437" 
d="M352 1346l-201 -411l-80 36l192 421z" />
    <glyph glyph-name="quotesinglbase" unicode="&#x201a;" horiz-adv-x="437" 
d="M352 123l-201 -411l-80 36l192 421z" />
    <glyph glyph-name="quotedblleft" unicode="&#x201c;" horiz-adv-x="791" 
d="M428 907l222 485l77 -37l-205 -489zM85 907l222 485l79 -37l-206 -491z" />
    <glyph glyph-name="quotedblright" unicode="&#x201d;" horiz-adv-x="791" 
d="M363 1349l-221 -485l-78 37l205 489zM706 1349l-221 -485l-80 37l207 491z" />
    <glyph glyph-name="quotedblbase" unicode="&#x201e;" horiz-adv-x="791" 
d="M363 126l-221 -485l-78 37l205 489zM706 126l-221 -485l-80 37l207 491z" />
    <glyph glyph-name="dagger" unicode="&#x2020;" 
d="M464 1365h96v-368h300v-89h-300v-1359h-96v1359h-300v89h300v368z" />
    <glyph glyph-name="daggerdbl" unicode="&#x2021;" 
d="M464 1365h96v-368h300v-89h-300v-901h300v-89h-300v-369h-96v369h-300v89h300v901h-300v89h300v368z" />
    <glyph glyph-name="bullet" unicode="&#x2022;" horiz-adv-x="1365" 
d="M689 978q113 0 196 -83q84 -83 84 -201t-83 -201t-201 -83q-116 0 -199 82q-85 84 -85 202q0 121 84 202q86 82 204 82z" />
    <glyph glyph-name="ellipsis" unicode="&#x2026;" horiz-adv-x="1321" 
d="M221 157q36 0 60 -25q23 -24 23 -60q0 -38 -30 -63q-22 -19 -54 -19q-36 0 -60 25q-23 24 -23 58q0 40 30 65q22 19 54 19zM661 157q36 0 60 -25q23 -24 23 -60q0 -38 -30 -63q-22 -19 -54 -19q-36 0 -60 25q-23 24 -23 58q0 40 30 65q22 19 54 19zM1102 157q36 0 60 -25
q23 -24 23 -60q0 -38 -30 -63q-22 -19 -54 -19q-36 0 -60 25q-23 24 -23 58q0 40 30 65q22 19 54 19z" />
    <glyph glyph-name="perthousand" unicode="&#x2030;" horiz-adv-x="1712" 
d="M488 1123v-224q0 -91 -29 -137q-21 -34 -65 -54q-46 -21 -98 -21q-76 0 -127 39q-62 47 -62 116l1 58l-1 223q-1 97 17 139q23 52 79 79q44 22 96 22q85 0 141 -53q38 -35 44 -76q4 -24 4 -111zM175 1122v-191q0 -77 5 -95q12 -43 54 -65q29 -15 64 -15q73 0 105 54
q17 29 17 111v223q0 149 -118 149q-69 0 -102 -39q-21 -24 -23 -55q-2 -23 -2 -77zM1073 436v-225q0 -90 -29 -136q-21 -34 -66 -54.5t-98 -20.5q-76 0 -127 39q-62 46 -62 116v57v224q-1 96 17 139q23 52 79 79q44 22 97 22q86 0 141 -53q37 -36 44 -76q4 -24 4 -111z
M759 435v-191q0 -77 5 -95q12 -43 54 -65q30 -15 65 -15q73 0 105 54q17 29 17 110v224q0 149 -119 149q-69 0 -102 -39q-20 -24 -23 -55q-2 -24 -2 -77zM1097 1336l-955 -1349l-60 44l955 1347zM1605 436v-225q0 -90 -29 -136q-21 -34 -65 -54q-46 -21 -99 -21
q-76 0 -127 39q-62 47 -62 116l1 57l-1 224q-1 96 17 139q23 52 79 79q44 22 97 22q86 0 141 -53q37 -36 44 -76q4 -24 4 -111zM1291 435v-191q0 -77 5 -95q12 -43 54 -65q30 -15 65 -15q73 0 105 54q17 29 17 110v224q0 149 -119 149q-69 0 -102 -39q-21 -24 -23 -55
q-2 -23 -2 -77z" />
    <glyph glyph-name="guilsinglleft" unicode="&#x2039;" horiz-adv-x="515" 
d="M194 478l213 -337h-99l-212 337l212 353h99z" />
    <glyph glyph-name="guilsinglright" unicode="&#x203a;" horiz-adv-x="515" 
d="M321 494l-212 337h98l213 -337l-213 -353h-98z" />
    <glyph glyph-name="exclamdbl" unicode="&#x203c;" horiz-adv-x="768" 
d="M243 1365v-363l-21 -633h-65l-21 632v364h107zM244 218v-218h-110v218h110zM631 1365v-363l-21 -633h-65l-21 632v364h107zM633 218v-218h-110v218h110z" />
    <glyph glyph-name="uni203E" unicode="&#x203e;" 
d="M0 1730h1024v-74h-1024v74z" />
    <glyph glyph-name="fraction" unicode="&#x2044;" horiz-adv-x="251" 
d="M633 1322l-955 -1348l-60 43l955 1347z" />
    <glyph glyph-name="zerosuperior" unicode="&#x2070;" horiz-adv-x="669" 
d="M586 1106v-322q0 -130 -57 -189q-69 -72 -197 -72q-127 0 -196 73q-38 41 -47 89q-7 42 -7 121v268q0 104 17 147q53 131 233 131q120 0 190 -61q42 -37 54 -85q10 -38 10 -100zM166 1071v-265q0 -97 11 -121q22 -45 73 -67q39 -17 85 -17q93 0 137 56q30 39 30 127v320
q0 67 -21 98q-49 72 -146 72q-94 0 -140 -64q-20 -27 -24 -58q-5 -32 -5 -81z" />
    <glyph glyph-name="foursuperior" unicode="&#x2074;" horiz-adv-x="669" 
d="M412 724h-352v58l436 603v-581h111v-80h-111v-189h-84v189zM412 804v345l-250 -345h250z" />
    <glyph glyph-name="fivesuperior" unicode="&#x2075;" horiz-adv-x="669" 
d="M203 1258v-213q61 20 124 20q107 0 180 -61q95 -78 95 -207q0 -128 -90 -205q-81 -70 -203 -70q-189 0 -260 169l83 29q27 -52 46 -71q48 -48 132 -48q92 0 152 64q52 55 52 134q0 82 -55 134q-57 54 -151 54q-66 0 -116 -30q-28 -16 -73 -61v442h349v-80h-265z" />
    <glyph glyph-name="sixsuperior" unicode="&#x2076;" horiz-adv-x="669" 
d="M474 1338l-212 -316q36 12 80 12q113 0 187 -68q81 -75 81 -182q0 -108 -79 -184q-82 -79 -198 -79q-127 0 -210 93q-65 73 -65 176q0 68 51 147l261 401h104zM336 960q-89 0 -147 -62q-43 -47 -43 -112q0 -85 67 -144q49 -43 121 -43q92 0 146 67q42 53 42 115
q0 75 -54 126q-56 53 -132 53z" />
    <glyph glyph-name="sevensuperior" unicode="&#x2077;" horiz-adv-x="669" 
d="M473 1258h-348v80h475l-345 -803h-95z" />
    <glyph glyph-name="eightsuperior" unicode="&#x2078;" horiz-adv-x="669" 
d="M440 987q53 -16 88 -48q73 -66 73 -169q0 -115 -82 -185q-75 -63 -186 -63q-134 0 -209 86q-56 64 -56 154q0 108 74 176q34 32 88 49q-47 16 -75 46q-50 53 -50 125q0 87 71 142q64 51 160 51q103 0 168 -58q60 -54 60 -135q0 -77 -56 -131q-26 -25 -68 -40zM336 1276
q-75 0 -116 -43q-29 -30 -29 -74q0 -63 53 -98q42 -28 90 -28q67 0 111 48q33 36 33 76q0 50 -48 89q-38 30 -94 30zM337 940q-85 0 -139 -61q-42 -49 -42 -109q0 -72 56 -123q51 -47 122 -47q76 0 131 54q48 47 48 117t-52 119q-53 50 -124 50z" />
    <glyph glyph-name="ninesuperior" unicode="&#x2079;" horiz-adv-x="669" 
d="M407 851q-41 -13 -81 -13q-109 0 -185 69q-82 74 -82 183t80 185q83 77 200 77q116 0 197 -78q74 -71 74 -180q0 -78 -43 -145l-263 -414h-104zM338 1274q-94 0 -150 -69q-41 -50 -41 -111q0 -86 68 -139q50 -41 119 -41q91 0 148 65q40 46 40 114q0 82 -58 133
q-54 48 -126 48z" />
    <glyph glyph-name="zeroinferior" unicode="&#x2080;" horiz-adv-x="669" 
d="M586 572v-323q0 -130 -57 -189q-70 -72 -197 -72t-196 73q-38 41 -47 89q-7 42 -7 121v268q0 105 17 147q53 131 233 131q120 0 190 -61q42 -37 54 -85q10 -38 10 -99zM166 536v-265q0 -96 12 -121q40 -84 157 -84q93 0 137 56q30 39 30 127v320q0 67 -21 99
q-49 71 -146 71q-94 0 -140 -63q-20 -28 -24 -59q-5 -31 -5 -81z" />
    <glyph glyph-name="oneinferior" unicode="&#x2081;" horiz-adv-x="669" 
d="M353 680l-204 -138v84l288 201v-827h-84v680z" />
    <glyph glyph-name="twoinferior" unicode="&#x2082;" horiz-adv-x="669" 
d="M224 80h320v-80h-479l304 399q64 84 89 127q27 47 27 89q0 64 -53 98q-42 28 -101 28q-97 0 -130 -67q-14 -30 -15 -90h-85q14 233 235 233q115 0 180 -66q54 -54 54 -133q0 -60 -28 -112q-24 -44 -66 -98z" />
    <glyph glyph-name="threeinferior" unicode="&#x2083;" horiz-adv-x="669" 
d="M423 723h-313v80h488l-257 -300q54 0 102 -20q79 -33 120 -102q34 -58 34 -128q0 -134 -107 -211q-75 -54 -182 -54q-122 0 -202 78q-42 41 -61 107l78 26q48 -133 181 -133q91 0 151 58q54 53 54 124q0 80 -59 130q-55 47 -151 47q-56 0 -117 -34l-23 26z" />
    <glyph glyph-name="fourinferior" unicode="&#x2084;" horiz-adv-x="669" 
d="M412 190h-352v58l436 603v-581h111v-80h-111v-190h-84v190zM412 270v345l-250 -345h250z" />
    <glyph glyph-name="fiveinferior" unicode="&#x2085;" horiz-adv-x="669" 
d="M203 723v-213q59 20 124 20q107 0 180 -61q95 -78 95 -207q0 -127 -90 -205q-81 -69 -203 -69q-189 0 -260 168l83 29q27 -51 46 -71q48 -48 132 -48q92 0 152 64q52 55 52 134q0 81 -55 134q-57 54 -151 54q-66 0 -116 -30q-28 -16 -73 -61v442h349v-80h-265z" />
    <glyph glyph-name="sixinferior" unicode="&#x2086;" horiz-adv-x="669" 
d="M474 803l-212 -316q38 12 80 12q113 0 187 -68q81 -74 81 -182q0 -107 -79 -184q-82 -79 -198 -79q-127 0 -210 93q-65 73 -65 176q0 68 51 147l261 401h104zM336 425q-89 0 -147 -62q-43 -47 -43 -112q0 -85 67 -144q49 -43 121 -43q92 0 146 67q42 54 42 115
q0 74 -54 126q-56 53 -132 53z" />
    <glyph glyph-name="seveninferior" unicode="&#x2087;" horiz-adv-x="669" 
d="M473 723h-348v80h475l-345 -803h-95z" />
    <glyph glyph-name="eightinferior" unicode="&#x2088;" horiz-adv-x="669" 
d="M440 452q53 -16 88 -48q73 -66 73 -169q0 -115 -82 -184q-75 -64 -186 -64q-134 0 -209 86q-56 64 -56 154q0 108 74 176q34 32 88 49q-47 16 -75 46q-50 53 -50 125q0 88 71 143q64 51 160 51q103 0 168 -58q60 -54 60 -135q0 -78 -56 -132q-26 -25 -68 -40zM336 742
q-74 0 -116 -43q-29 -31 -29 -74q0 -64 53 -99q42 -28 90 -28q67 0 111 48q33 36 33 77q0 50 -48 89q-38 30 -94 30zM337 405q-85 0 -139 -61q-42 -49 -42 -109q0 -72 56 -123q52 -47 122 -47q76 0 131 54q48 47 48 117t-52 119q-52 50 -124 50z" />
    <glyph glyph-name="nineinferior" unicode="&#x2089;" horiz-adv-x="669" 
d="M407 316q-41 -13 -81 -13q-109 0 -185 69q-82 74 -82 183t80 185q83 77 200 77q116 0 197 -78q74 -71 74 -180q0 -77 -43 -145l-263 -414h-104zM338 739q-94 0 -150 -69q-41 -50 -41 -111q0 -86 68 -139q50 -41 119 -41q91 0 148 65q40 46 40 114q0 82 -58 133
q-54 48 -126 48z" />
    <glyph glyph-name="franc" unicode="&#x20a3;" horiz-adv-x="1352" 
d="M300 1261v-518h561v-104h-561v-639h-116v1365h677v-104h-561zM889 942h102v-169q40 86 88 123q80 63 190 63q19 0 41 -1v-99h-34q-117 0 -193 -82q-55 -60 -76 -136q-16 -54 -16 -150v-491h-102v942z" />
    <glyph glyph-name="lira" unicode="&#x20a4;" horiz-adv-x="1193" 
d="M684 743v-52h-254q38 -69 51 -103q14 -40 25 -103h184v-52h-187q-4 -124 -70 -220q-38 -55 -112 -123q23 11 34 16q85 43 160 43q62 0 154 -32q83 -29 94 -33q54 -18 103 -18q87 0 188 69q50 34 81 72l47 -84q-45 -46 -101 -82q-114 -74 -217 -74q-70 0 -188 43
q-138 51 -201 51q-103 0 -224 -88l-64 87q123 85 181 213q34 76 34 160h-253v52h249q-15 68 -35 113q-14 32 -51 93h-163v52h133q-33 57 -48 90q-37 82 -37 157q0 168 144 271q120 87 319 87q286 0 399 -185q61 -100 64 -281h-100q-4 177 -77 265q-90 110 -281 110
q-176 0 -269 -84q-85 -77 -85 -187q0 -70 35 -141q17 -34 56 -102h282z" />
    <glyph glyph-name="peseta" unicode="&#x20a7;" horiz-adv-x="1761" 
d="M300 549v-549h-116v1365h328q242 0 362 -97q136 -110 136 -308q0 -158 -87 -267q-64 -81 -158 -113q-88 -31 -234 -31h-231zM300 653h208q115 0 189 24q92 29 146 110q51 74 51 170q0 144 -106 228q-74 59 -205 72q-45 4 -112 4h-171v-608zM1059 499v-405q0 -17 6 -22
q6 -4 28 -4h62v-68h-77q-99 0 -99 83v416h-88v70h88v188h80v-188h96v-70h-96zM1687 409h-83v11q0 32 -20 54q-34 36 -103 36q-59 0 -91 -26q-29 -22 -29 -60q0 -48 43 -72q24 -12 89 -28q108 -25 150 -65q49 -45 49 -110q0 -80 -73 -127q-49 -32 -134 -32q-201 0 -219 179
h81q6 -110 140 -110q58 0 89 24q34 27 34 66t-35 65q-25 20 -104 37q-96 22 -139 58q-53 43 -53 111q0 80 72 126q52 33 133 33q107 0 164 -62q36 -41 39 -108z" />
    <glyph glyph-name="Euro" unicode="&#x20ac;" 
d="M155 831q13 93 37 173q52 176 187 291q108 94 241 94q179 0 329 -156q19 -20 40 -46l-52 -112q-127 207 -321 207q-168 0 -275 -218q-47 -97 -67 -233h565l-42 -95h-532q-1 -28 -1 -54q0 -30 1 -64h484l-43 -95h-431q22 -153 83 -261q102 -179 260 -179q159 0 276 138
q25 29 46 65v-160q-71 -71 -155.5 -110.5t-165.5 -39.5q-148 0 -269 115q-143 134 -186 363q-6 32 -11 69h-131l42 95h81q-1 27 -1 52q0 24 2 66h-124l42 95h91z" />
    <glyph glyph-name="uni2101" unicode="&#x2101;" horiz-adv-x="1802" 
d="M622 757h-397l-90 -211h-90l339 819h90l328 -819h-98zM591 833l-165 412l-169 -412h334zM1541 1322l-955 -1348l-60 43l955 1347zM1225 220h82q4 -62 23 -94q38 -65 135 -65q106 0 155 67q26 37 26 91q0 55 -34 87q-39 36 -148 69q-95 30 -125 46q-111 62 -111 185
q0 108 80 173q65 54 166 54q115 0 180 -67q60 -62 62 -142v-26h-86q-1 65 -21 96q-40 64 -135 64q-72 0 -115 -44q-43 -43 -43 -105q0 -63 43 -96q33 -25 154 -65q119 -39 165 -86q55 -58 55 -143q0 -119 -97 -187q-64 -46 -165 -46q-125 0 -188 66q-59 62 -59 143
q0 12 1 25z" />
    <glyph glyph-name="afii61248" unicode="&#x2105;" horiz-adv-x="607" 
d="M304 792q32 0 55 -23t23 -56t-23 -56t-56 -23t-56 23t-23 56t23 56q24 23 57 23z" />
    <glyph glyph-name="afii61289" unicode="&#x2113;" 
d="M495 548q-12 -60 -27 -149q-40 -241 -40 -291q0 -53 41 -53q54 0 109 118q16 34 36 34q23 0 23 -23q0 -32 -34 -92q-71 -124 -167 -124q-69 0 -105 55q-26 40 -26 100q0 69 24 264l5 38q-29 -29 -68 -61q-43 -36 -54 -36q-7 0 -15 8q-7 9 -7 17q0 17 46 56q40 34 113 114
q72 379 165 622q92 241 227 241q54 0 84 -42q32 -44 32 -113q0 -172 -120 -380q-76 -130 -242 -303zM512 645q171 186 236 370q45 127 45 220q0 30 -9 51q-14 35 -46 35q-43 0 -79 -62q-61 -105 -147 -614z" />
    <glyph glyph-name="uni2117" unicode="&#x2117;" horiz-adv-x="310" 
d="M196 1116v-570h-80v570h80zM154 1320q24 0 40 -18q14 -16 14 -37q0 -23 -18 -40q-15 -13 -36 -13q-25 0 -40 18q-14 16 -14 36q0 24 18 41q15 13 36 13z" />
    <glyph glyph-name="trademark" unicode="&#x2122;" horiz-adv-x="1671" 
d="M339 1290v-744h-88v744h-222v75h533v-75h-223zM806 1156v-610h-88v819h71l341 -654l344 654h70v-819h-88v610l-326 -620z" />
    <glyph glyph-name="uni2126" unicode="&#x2126;" horiz-adv-x="1363" 
d="M57 0v93h407q-161 91 -266 224q-143 183 -143 423q0 221 119 391q105 149 265 218q113 49 243 49q211 0 375 -127q130 -101 196 -252q57 -130 57 -280q0 -257 -169 -452q-98 -113 -240 -194h407v-93h-527v88q151 85 239 180q184 201 184 458q0 289 -207 464
q-136 114 -313 114q-180 0 -316 -114q-108 -90 -162 -223q-45 -111 -45 -241q0 -293 223 -499q75 -69 199 -139v-88h-526z" />
    <glyph glyph-name="onethird" unicode="&#x2153;" horiz-adv-x="1589" 
d="M353 1215l-204 -138v84l288 200v-826h-84v680zM1302 1322l-955 -1348l-60 43l955 1347zM1343 723h-313v80h488l-257 -300q54 0 102 -20q79 -33 120 -102q34 -59 34 -128q0 -134 -107 -211q-76 -54 -182 -54q-122 0 -202 78q-41 41 -61 107l78 26q49 -133 181 -133
q91 0 151 58q54 52 54 124q0 80 -59 130q-55 47 -151 47q-56 0 -116 -34l-24 26z" />
    <glyph glyph-name="twothirds" unicode="&#x2154;" horiz-adv-x="1589" 
d="M224 615h320v-80h-479l304 398q64 84 89 129q27 47 27 89q0 64 -53 98q-42 28 -101 28q-97 0 -130 -67q-14 -30 -15 -91h-85q14 233 235 233q115 0 180 -66q54 -54 54 -133q0 -60 -28 -112q-24 -44 -66 -98zM1302 1322l-956 -1348l-60 43l956 1347zM1343 723h-313v80h488
l-257 -300q54 0 102 -20q79 -33 120 -102q34 -58 34 -128q0 -134 -107 -211q-75 -54 -182 -54q-122 0 -202 78q-41 41 -61 107l78 26q49 -133 181 -133q91 0 151 58q54 52 54 124q0 80 -59 130q-56 47 -151 47q-56 0 -116 -34l-24 26z" />
    <glyph glyph-name="onefifth" unicode="&#x2155;" horiz-adv-x="1589" 
d="M353 1215l-204 -138v84l288 200v-826h-84v680zM1302 1322l-955 -1348l-60 43l955 1347zM1124 723v-213q59 20 124 20q106 0 180 -61q95 -78 95 -207q0 -127 -90 -205q-81 -69 -203 -69q-189 0 -260 168l83 29q27 -52 46 -71q48 -48 132 -48q92 0 152 64q52 55 52 134
q0 81 -55 134q-57 54 -151 54q-66 0 -116 -30q-28 -16 -73 -61v442h349v-80h-265z" />
    <glyph glyph-name="twofifth" unicode="&#x2156;" horiz-adv-x="1589" 
d="M224 615h320v-80h-479l304 398q64 84 89 129q27 47 27 89q0 64 -53 98q-42 28 -101 28q-97 0 -130 -67q-14 -30 -15 -91h-85q14 233 235 233q115 0 180 -66q54 -54 54 -133q0 -60 -28 -112q-24 -44 -66 -98zM1302 1322l-956 -1348l-60 43l956 1347zM1123 723v-213
q59 20 124 20q106 0 180 -61q95 -78 95 -207q0 -127 -90 -205q-81 -69 -203 -69q-189 0 -260 168l83 29q27 -52 46 -71q48 -48 132 -48q92 0 152 64q52 55 52 134q0 81 -55 134q-57 54 -151 54q-66 0 -116 -30q-28 -16 -73 -61v442h349v-80h-265z" />
    <glyph glyph-name="threefifth" unicode="&#x2157;" horiz-adv-x="1589" 
d="M423 1258h-313v80h488l-257 -300q54 0 102 -20q79 -33 120 -102q34 -59 34 -128q0 -134 -107 -211q-75 -54 -182 -54q-122 0 -202 78q-42 41 -61 107l78 25q49 -132 181 -132q92 0 151 58q54 52 54 124q0 79 -59 129q-55 47 -151 47q-55 0 -117 -33l-23 26zM1302 1322
l-955 -1348l-60 43l955 1347zM1123 723v-213q59 20 124 20q106 0 180 -61q95 -78 95 -207q0 -127 -90 -205q-81 -69 -203 -69q-189 0 -260 168l83 29q27 -52 46 -71q48 -48 132 -48q92 0 152 64q52 55 52 134q0 81 -55 134q-57 54 -151 54q-66 0 -116 -30q-28 -16 -73 -61
v442h349v-80h-265z" />
    <glyph glyph-name="fourfifth" unicode="&#x2158;" horiz-adv-x="1589" 
d="M412 724h-352v58l436 603v-581h111v-80h-111v-189h-84v189zM412 804v345l-250 -345h250zM1301 1322l-955 -1348l-60 43l956 1347zM1123 723v-213q59 20 124 20q107 0 180 -61q95 -78 95 -207q0 -127 -90 -205q-81 -69 -203 -69q-189 0 -260 168l83 29q27 -52 46 -71
q48 -48 132 -48q92 0 152 64q52 55 52 134q0 81 -55 134q-57 54 -151 54q-66 0 -116 -30q-28 -16 -73 -61v442h349v-80h-265z" />
    <glyph glyph-name="onesixth" unicode="&#x2159;" horiz-adv-x="1589" 
d="M353 1215l-204 -138v84l288 200v-826h-84v680zM1302 1322l-955 -1348l-60 43l955 1347zM1395 803l-213 -316q38 12 81 12q112 0 187 -68q81 -74 81 -182t-79 -184q-83 -79 -198 -79q-128 0 -211 93q-65 73 -65 176q0 68 52 147l260 401h105zM1256 425q-89 0 -147 -62
q-43 -47 -43 -112q0 -85 67 -144q49 -43 122 -43q92 0 146 67q42 54 42 115q0 74 -54 126q-56 53 -133 53z" />
    <glyph glyph-name="fivesixth" unicode="&#x215a;" horiz-adv-x="1589" 
d="M203 1258v-213q61 20 124 20q107 0 180 -61q95 -78 95 -207q0 -128 -90 -205q-81 -70 -203 -70q-189 0 -260 169l83 29q27 -52 46 -71q48 -48 132 -48q92 0 152 64q52 55 52 134q0 82 -55 134q-57 54 -151 54q-66 0 -116 -30q-28 -16 -73 -61v442h349v-80h-265z
M1301 1322l-955 -1348l-60 43l955 1347zM1394 803l-213 -316q38 12 81 12q112 0 187 -68q81 -74 81 -182t-79 -184q-83 -79 -198 -79q-128 0 -211 93q-65 73 -65 176q0 67 52 147l261 401h104zM1255 425q-89 0 -146 -62q-44 -47 -44 -112q0 -85 67 -144q49 -43 121 -43
q93 0 147 67q42 54 42 115q0 74 -54 126q-56 53 -133 53z" />
    <glyph glyph-name="oneeighth" unicode="&#x215b;" horiz-adv-x="1589" 
d="M353 1215l-204 -138v84l288 200v-826h-84v680zM1302 1322l-955 -1348l-60 43l955 1347zM1361 452q52 -16 87 -48q73 -66 73 -169q0 -115 -82 -184q-75 -64 -186 -64q-134 0 -209 86q-56 64 -56 154q0 108 74 176q34 32 88 49q-46 16 -74 46q-51 53 -51 125q0 88 71 143
q65 51 161 51q103 0 168 -58q60 -54 60 -135q0 -78 -56 -132q-26 -25 -68 -40zM1256 742q-74 0 -116 -43q-29 -31 -29 -74q0 -64 53 -99q43 -28 91 -28q66 0 111 48q33 36 33 77q0 50 -48 89q-38 30 -95 30zM1257 405q-85 0 -139 -61q-42 -49 -42 -109q0 -72 56 -123
q52 -47 122 -47q76 0 131 54q48 47 48 117t-52 119q-52 50 -124 50z" />
    <glyph glyph-name="threeeighths" unicode="&#x215c;" horiz-adv-x="1589" 
d="M423 1258h-313v80h488l-257 -300q54 0 102 -20q79 -33 120 -102q34 -59 34 -128q0 -134 -107 -211q-75 -54 -182 -54q-122 0 -202 78q-42 41 -61 107l78 25q49 -132 181 -132q92 0 151 58q54 52 54 124q0 79 -59 129q-55 47 -151 47q-55 0 -117 -33l-23 26zM1302 1322
l-955 -1348l-60 43l955 1347zM1360 452q53 -16 88 -48q73 -66 73 -169q0 -114 -82 -184q-75 -64 -186 -64q-134 0 -209 86q-56 64 -56 154q0 108 74 176q34 32 88 49q-47 16 -75 46q-50 53 -50 125q0 88 71 143q64 51 160 51q103 0 168 -58q60 -54 60 -135q0 -78 -56 -132
q-26 -25 -68 -40zM1256 742q-75 0 -116 -43q-29 -30 -29 -74q0 -64 53 -99q42 -28 90 -28q67 0 111 48q33 36 33 77q0 50 -48 89q-38 30 -94 30zM1257 405q-85 0 -139 -61q-42 -49 -42 -109q0 -72 56 -123q52 -47 122 -47q76 0 131 54q48 47 48 117t-52 119q-52 50 -124 50z
" />
    <glyph glyph-name="fiveeighths" unicode="&#x215d;" horiz-adv-x="1589" 
d="M203 1258v-213q61 20 124 20q107 0 180 -61q95 -78 95 -207q0 -128 -90 -205q-81 -70 -203 -70q-189 0 -260 169l83 29q27 -52 46 -71q48 -48 132 -48q92 0 152 64q52 55 52 134q0 82 -55 134q-57 54 -151 54q-66 0 -116 -30q-28 -16 -73 -61v442h349v-80h-265z
M1301 1322l-955 -1348l-60 43l955 1347zM1360 452q52 -16 88 -48q72 -66 72 -169q0 -115 -82 -184q-75 -64 -186 -64q-134 0 -209 86q-56 64 -56 154q0 108 74 176q34 32 88 49q-46 16 -74 46q-50 53 -50 125q0 88 71 143q64 51 160 51q103 0 168 -58q60 -54 60 -135
q0 -78 -56 -132q-26 -25 -68 -40zM1256 742q-75 0 -116 -43q-29 -31 -29 -74q0 -64 53 -99q42 -28 90 -28q67 0 111 48q33 36 33 77q0 50 -48 89q-38 30 -94 30zM1256 405q-85 0 -139 -61q-42 -49 -42 -109q0 -72 56 -123q52 -47 122 -47q76 0 131 54q48 47 48 117t-52 119
q-52 50 -124 50z" />
    <glyph glyph-name="seveneighths" unicode="&#x215e;" horiz-adv-x="1589" 
d="M473 1258h-348v80h475l-345 -803h-95zM1302 1322l-955 -1348l-60 43l955 1347zM1361 452q52 -16 87 -48q73 -66 73 -169q0 -115 -82 -184q-75 -64 -186 -64q-134 0 -209 86q-56 64 -56 154q0 108 74 176q34 32 88 49q-46 16 -74 46q-51 53 -51 125q0 88 71 143
q65 51 161 51q103 0 168 -58q60 -54 60 -135q0 -78 -56 -132q-26 -25 -68 -40zM1256 742q-74 0 -116 -43q-29 -31 -29 -74q0 -64 53 -99q43 -28 91 -28q67 0 111 48q33 36 33 77q0 50 -48 89q-38 30 -95 30zM1257 405q-85 0 -139 -61q-42 -49 -42 -109q0 -72 56 -123
q52 -47 122 -47q76 0 131 54q48 47 48 117t-52 119q-52 50 -124 50z" />
    <glyph glyph-name="arrowleft" unicode="&#x2190;" horiz-adv-x="1365" 
d="M1338 744v-104h-1024q24 -30 60 -96q47 -86 47 -117q0 -28 -30 -28q-17 0 -47 35q-106 122 -270 212q-47 25 -47 42q0 19 34 38q100 57 165 106q60 46 132 130q16 19 32 19q31 0 31 -31q0 -20 -42 -104q-21 -41 -65 -102h1024z" />
    <glyph glyph-name="arrowup" unicode="&#x2191;" horiz-adv-x="1365" 
d="M737 27h-104v1024q-31 -25 -96 -60q-86 -47 -117 -47q-28 0 -28 31q0 16 35 46q123 107 212 270q25 47 42 47q19 0 38 -34q56 -99 106 -165q48 -62 131 -132q19 -16 19 -32q0 -31 -31 -31q-20 0 -105 42q-41 21 -102 65v-1024z" />
    <glyph glyph-name="arrowright" unicode="&#x2192;" horiz-adv-x="1365" 
d="M27 636v104h1024q-24 30 -60 96q-47 86 -47 116q0 29 30 29q17 0 47 -35q107 -124 270 -212q47 -25 47 -42q0 -19 -34 -38q-100 -57 -165 -107q-62 -47 -132 -130q-16 -19 -32 -19q-31 0 -31 31q0 20 42 105q21 42 65 102h-1024z" />
    <glyph glyph-name="arrowdown" unicode="&#x2193;" horiz-adv-x="1365" 
d="M629 1338h104v-1024q30 25 96 60q86 47 117 47q28 0 28 -31q0 -16 -35 -46q-122 -106 -212 -270q-25 -47 -42 -47q-19 0 -38 34q-54 94 -106 165q-46 60 -131 132q-19 16 -19 32q0 31 31 31q20 0 105 -42q42 -21 102 -65v1024z" />
    <glyph glyph-name="arrowboth" unicode="&#x2194;" horiz-adv-x="1365" 
d="M312 635q45 -61 72 -117q36 -71 36 -91q0 -30 -31 -30q-12 0 -22 8q-5 5 -26 30q-80 95 -223 183q-49 30 -70 43q-21 11 -21 30q0 17 47 42q164 91 269 212q31 35 47 35q30 0 30 -29q0 -30 -48 -116q-35 -64 -60 -96h739q-23 28 -60 96q-47 85 -47 117q0 28 30 28
q17 0 47 -35q106 -122 270 -212q47 -25 47 -42q0 -19 -34 -38q-99 -56 -165 -106q-62 -48 -132 -131q-16 -19 -32 -19q-31 0 -31 31q0 21 42 105q21 42 65 102h-739z" />
    <glyph glyph-name="arrowupdn" unicode="&#x2195;" horiz-adv-x="1365" 
d="M737 312q64 47 117 73q72 36 91 36q30 0 30 -31q0 -13 -8 -22q-5 -5 -30 -26q-94 -79 -183 -223q-29 -48 -43 -71q-11 -21 -30 -21q-17 0 -42 47q-90 164 -212 270q-35 30 -35 47q0 30 29 30q30 0 116 -48q62 -34 96 -61v739q-31 -25 -96 -60q-86 -47 -116 -47
q-29 0 -29 30q0 17 35 47q123 107 212 270q25 47 42 47q19 0 38 -34q57 -100 106 -165q49 -62 131 -132q19 -16 19 -32q0 -31 -31 -31q-20 0 -105 42q-41 21 -102 65v-739z" />
    <glyph glyph-name="arrowupdnbse" unicode="&#x21a8;" horiz-adv-x="1365" 
d="M737 312q64 47 117 73q72 36 91 36q30 0 30 -31q0 -13 -8 -22q-5 -5 -30 -26q-93 -78 -183 -223q-28 -46 -43 -71q-11 -21 -30 -21q-17 0 -42 47q-90 164 -212 270q-35 30 -35 47q0 30 28 30q31 0 117 -48q62 -34 96 -61v739q-31 -25 -96 -60q-86 -47 -116 -47
q-29 0 -29 30q0 17 35 47q123 107 212 270q25 47 42 47q19 0 38 -34q57 -100 106 -165q49 -62 131 -132q19 -16 19 -32q0 -31 -31 -31q-20 0 -105 42q-41 21 -102 65v-739zM413 -139h540v-88h-540v88z" />
    <glyph glyph-name="partialdiff" unicode="&#x2202;" 
d="M194 1289l13 88q156 -23 260 -69q245 -109 374 -365q108 -214 108 -467q0 -185 -77 -304q-66 -101 -174 -154q-87 -43 -183 -43q-157 0 -280 106q-158 137 -158 354q0 154 88 279q66 95 169 141q83 38 172 38q141 0 233 -74q36 -29 89 -103q-8 20 -64 169
q-29 78 -113 174q-86 98 -228 165q-90 43 -229 65zM530 810q-122 0 -217 -73q-53 -40 -89 -109q-50 -92 -50 -195q0 -164 113 -275q99 -96 228 -96q116 0 207 76q130 107 130 307q0 188 -115 286q-93 79 -207 79z" />
    <glyph glyph-name="emptyset" unicode="&#x2205;" horiz-adv-x="1266" 
d="M899 1365l98 -51l-98 -181q231 -161 231 -416q0 -141 -75 -262q-65 -105 -170 -167q-119 -69 -263 -69q-94 0 -162 33l-128 -251l-100 51l126 249q-221 162 -221 414q0 228 171 376q140 121 328 121q82 0 166 -29zM514 353q66 -18 119 -18q168 0 283 123q100 108 100 257
q0 150 -100 260q-25 28 -64 52zM749 1079q-57 17 -110 17q-184 0 -299 -138q-89 -107 -89 -242q0 -183 159 -310z" />
    <glyph glyph-name="Delta" unicode="&#x2206;" horiz-adv-x="1254" 
d="M11 0l562 1365h107l563 -1365h-1232zM150 93h952l-475 1156z" />
    <glyph glyph-name="product" unicode="&#x220f;" horiz-adv-x="1365" 
d="M61 1536h1243v-88h-152v-1872h152v-88h-413v88h164v1872h-745v-1872h162v-88h-411v88h153v1872h-153v88z" />
    <glyph glyph-name="summation" unicode="&#x2211;" horiz-adv-x="1365" 
d="M1206 1536v-450h-97l-9 351h-913l516 -882l-516 -970h932l5 351h101v-448h-1154v114l508 952l-508 873v109h1135z" />
    <glyph glyph-name="minus" unicode="&#x2212;" 
d="M56 719h912v-66h-912v66z" />
    <glyph glyph-name="uni2218" unicode="&#x2218;" 
d="M516 982q112 0 194 -83q83 -84 83 -203q0 -118 -82 -202q-83 -84 -199 -84t-198 83q-84 84 -84 203q0 121 84 203q84 83 202 83zM514 885q-79 0 -133 -55q-55 -55 -55 -134q0 -78 55 -134q55 -55 131 -55t131 55q54 56 54 134q0 80 -55 134q-55 55 -128 55z" />
    <glyph glyph-name="radical" unicode="&#x221a;" horiz-adv-x="1365" 
d="M1365 1693v-90h-413l-496 -1603h-106l-193 630h-157v90h223l97 -311q10 -32 34 -121q35 -122 42 -152h5q11 41 54 190l60 206l114 365l245 796h491z" />
    <glyph glyph-name="infinity" unicode="&#x221e;" horiz-adv-x="1365" 
d="M684 639q-52 -79 -98 -127q-115 -118 -249 -118q-100 0 -172 49q-125 84 -125 258q0 159 116 243q79 57 182 57q185 0 344 -246q49 75 90 120q116 125 260 125q154 0 236 -113q58 -81 58 -192q0 -145 -93 -228q-83 -73 -200 -73q-142 0 -256 122q-43 46 -93 123zM725 697
q40 -62 77 -106q104 -123 225 -123q102 0 163 74q52 62 52 155q0 122 -83 184q-59 45 -133 45q-128 0 -234 -134q-21 -27 -46 -63q-21 -31 -21 -32zM641 696q-40 63 -77 107q-104 123 -226 123q-101 0 -162 -74q-52 -62 -52 -155q0 -121 83 -184q60 -45 134 -45
q127 0 233 133q22 28 46 64z" />
    <glyph glyph-name="orthogonal" unicode="&#x221f;" horiz-adv-x="705" 
d="M49 954h607v-77h-607v77z" />
    <glyph glyph-name="intersection" unicode="&#x2229;" horiz-adv-x="1087" 
d="M1017 0h-105v661q0 189 -10 276q-14 123 -72 197q-49 61 -123 97q-81 39 -163 39q-124 0 -226 -78q-56 -43 -86 -99.5t-43 -142.5t-13 -289v-661h-105v655q0 235 12 317q27 195 179 305q121 88 282 88t282 -88q152 -110 179 -306q12 -83 12 -316v-655z" />
    <glyph glyph-name="union" unicode="&#x222a;" horiz-adv-x="1087" 
d="M71 1365h105v-661q0 -189 10 -276q14 -123 73 -197q48 -61 122 -97q81 -39 163 -39q124 0 226 78q70 53 101 129q36 86 39 245q2 75 2 157v661h105v-655q0 -233 -12 -317q-27 -195 -179 -305q-121 -88 -282 -88t-282 88q-152 110 -179 305q-12 84 -12 317v655z" />
    <glyph glyph-name="integral" unicode="&#x222b;" 
d="M238 -490l26 97q42 -20 78 -20q84 0 105 70q10 30 10 170v1353q2 139 4 168t12 61q18 57 71 93q53 34 129 34q50 0 113 -23l-26 -97q-42 21 -79 21q-82 0 -104 -70q-10 -31 -10 -146v-1376q0 -144 -8 -193q-14 -83 -81 -122q-67 -40 -150 -40q-45 0 -90 20z" />
    <glyph glyph-name="uni222E" unicode="&#x222e;" 
d="M234 -490l26 97q46 -21 82 -21q85 0 106 70q10 35 10 148v400q-77 8 -151 61q-60 43 -94 113q-36 72 -36 149q0 106 62 194q78 109 219 129v376q0 155 28 209q52 101 181 101q50 0 116 -23l-26 -97q-46 21 -83 21q-83 0 -105 -70q-9 -31 -9 -141v-375q93 -13 156 -60
q60 -45 95 -115t35 -148q0 -107 -61 -193q-81 -115 -225 -131v-401q0 -106 -4 -144q-9 -73 -57 -119q-57 -53 -157 -53q-56 0 -108 23zM560 789v-524q71 11 122 51q100 78 100 211q0 146 -114 221q-52 34 -108 41zM458 266v522q-65 -8 -116 -49q-101 -79 -101 -212
q0 -85 48 -155q42 -63 120 -94q22 -8 49 -12z" />
    <glyph glyph-name="uni2236" unicode="&#x2236;" horiz-adv-x="607" 
d="M305 1084q27 0 48 -20q20 -20 20 -49t-21 -49q-20 -20 -48 -20t-48 20q-21 20 -21 49t21 49q20 20 49 20zM305 480q28 0 49 -21q19 -20 19 -48q0 -29 -21 -49q-20 -20 -48 -20t-48 20q-21 20 -21 49t20 48q20 21 50 21z" />
    <glyph glyph-name="similar" unicode="&#x223c;" 
d="M87 551l-64 48q107 214 268 214q79 0 240 -85q102 -53 140 -64q34 -10 62 -10q73 0 129 57q37 39 74 105l65 -48q-103 -213 -272 -213q-47 0 -115 26q-27 10 -153 75q-111 58 -174 58q-69 0 -122 -54q-38 -39 -78 -109z" />
    <glyph glyph-name="approxequal" unicode="&#x2248;" 
d="M87 712l-64 43q107 213 268 213q79 0 240 -84q102 -53 140 -64q34 -10 63 -10q75 0 128 55q33 35 74 102l65 -43q-102 -212 -277 -212q-45 0 -112 26q-25 9 -151 74q-111 57 -175 57q-68 0 -121 -53q-36 -36 -78 -104zM87 395l-64 43q107 213 268 213q79 0 240 -84
q102 -53 140 -64q34 -10 63 -10q75 0 128 55q33 35 74 102l65 -43q-103 -212 -277 -212q-44 0 -112 26q-26 10 -151 74q-111 57 -175 57q-69 0 -121 -52q-36 -36 -78 -105z" />
    <glyph glyph-name="notequal" unicode="&#x2260;" 
d="M564 873l119 247l81 -27l-106 -220h298v-92h-338l-103 -218h441v-92h-479l-124 -260l-81 26l111 234h-315v92h353l103 218h-456v92h496z" />
    <glyph glyph-name="equivalence" unicode="&#x2261;" 
d="M68 1040h887v-97h-887v97zM68 731h887v-97h-887v97zM68 422h887v-97h-887v97z" />
    <glyph glyph-name="lessequal" unicode="&#x2264;" 
d="M955 1182v-105l-766 -313l766 -313v-105l-887 369v98zM955 285v-97h-887v97h887z" />
    <glyph glyph-name="greaterequal" unicode="&#x2265;" 
d="M68 346v105l766 313l-766 313v105l887 -369v-98zM68 188v97h887v-97h-887z" />
    <glyph glyph-name="dotmath" unicode="&#x22c5;" horiz-adv-x="440" 
d="M221 578q36 0 60 -25q23 -24 23 -60q0 -38 -30 -63q-22 -19 -54 -19q-36 0 -60 25q-23 24 -23 58q0 40 30 65q22 19 54 19z" />
    <glyph glyph-name="house" unicode="&#x2302;" horiz-adv-x="1538" 
d="M172 0v821l597 672l597 -672v-821h-1194zM276 104h986v672l-493 553l-493 -553v-672z" />
    <glyph glyph-name="revlogicalnot" unicode="&#x2310;" 
d="M175 0h-107v559h887v-97h-780v-462z" />
    <glyph glyph-name="uni2319" unicode="&#x2319;" 
d="M175 559v-462h780v-97h-887v559h107z" />
    <glyph glyph-name="integraltp" unicode="&#x2320;" 
d="M567 -512h-110v1692q1 123 3 151q3 86 45 135q58 70 168 70q50 0 113 -22l-26 -98q-42 21 -79 21q-82 0 -104 -70q-10 -31 -10 -146v-1733z" />
    <glyph glyph-name="integralbt" unicode="&#x2321;" 
d="M457 1536h110v-1693q0 -179 -16 -229q-18 -57 -71 -92q-52 -35 -129 -35q-50 0 -113 23l26 97q42 -21 79 -21q83 0 104 70q10 31 10 146v1734z" />
    <glyph glyph-name="filledbox" unicode="&#x25a0;" horiz-adv-x="1365" 
d="M1365 0h-1365v1365h1365v-1365z" />
    <glyph glyph-name="uni25A1" unicode="&#x25a1;" horiz-adv-x="1365" 
d="M1365 0h-1365v1365h1365v-1365zM1269 96v1173h-1173v-1173h1173z" />
    <glyph glyph-name="H18551" unicode="&#x25ab;" horiz-adv-x="705" 
d="M49 954h261v256h83v-256h263v-77h-263v-256h-83v256h-261v77z" />
    <glyph glyph-name="filledrect" unicode="&#x25ac;" horiz-adv-x="1365" 
d="M1365 683v-683h-1365v683h1365z" />
    <glyph glyph-name="uni25AE" unicode="&#x25ae;" horiz-adv-x="1365" 
d="M1024 0h-683v1365h683v-1365z" />
    <glyph glyph-name="uni25AF" unicode="&#x25af;" horiz-adv-x="1365" 
d="M684 1207q219 0 376 -153q156 -153 156 -370q0 -216 -154 -370q-157 -156 -378 -156q-224 0 -380 156q-154 154 -154 377q0 142 78 267q77 123 213 191q114 58 243 58z" />
    <glyph glyph-name="triagup" unicode="&#x25b2;" horiz-adv-x="1365" 
d="M1297 137h-1229l615 1150z" />
    <glyph glyph-name="uni25B4" unicode="&#x25b4;" 
d="M956 300h-888l444 830z" />
    <glyph glyph-name="uni25B8" unicode="&#x25b8;" 
d="M146 243v888l830 -444z" />
    <glyph glyph-name="triagdn" unicode="&#x25bc;" horiz-adv-x="1365" 
d="M68 1229h1229l-615 -1150z" />
    <glyph glyph-name="uni25BE" unicode="&#x25be;" 
d="M68 1065h887l-443 -830z" />
    <glyph glyph-name="uni25C2" unicode="&#x25c2;" 
d="M878 1131v-888l-830 444z" />
    <glyph glyph-name="lozenge" unicode="&#x25ca;" horiz-adv-x="1365" 
d="M683 1419l531 -736l-531 -736l-532 736zM683 1238l-404 -555l404 -554l403 554z" />
    <glyph glyph-name="circle" unicode="&#x25cb;" horiz-adv-x="1365" 
d="M684 1207q219 0 376 -153q156 -153 156 -370q0 -216 -154 -370q-157 -156 -378 -156q-224 0 -380 156q-154 154 -154 377q0 142 78 267q77 123 213 191q114 58 243 58zM683 1113q-181 0 -310 -127q-127 -124 -127 -297q0 -183 126 -309q128 -128 312 -128q181 0 310 128
q126 126 126 304q0 181 -128 303q-131 126 -309 126z" />
    <glyph glyph-name="invbullet" unicode="&#x25d8;" horiz-adv-x="1365" 
d="M0 0v1365h1365v-1365h-1365zM687 969q-119 0 -202 -83q-84 -84 -84 -204q0 -119 84 -203q83 -83 198 -83q116 0 199 84q82 84 82 202q0 122 -83 203q-84 84 -194 84z" />
    <glyph glyph-name="invcircle" unicode="&#x25d9;" horiz-adv-x="1365" 
d="M1365 0h-1365v1365h1365v-1365zM683 1207q-220 0 -378 -154q-155 -152 -155 -362q0 -224 154 -377q156 -156 379 -156q221 0 378 156q154 154 154 370q0 148 -79 274q-77 124 -212 192q-113 57 -241 57zM683 1113q180 0 309 -126q128 -125 128 -303q0 -177 -127 -304
q-128 -128 -310 -128q-183 0 -311 128q-127 126 -127 309q0 117 64 220q63 101 175 157q93 47 199 47z" />
    <glyph glyph-name="openbullet" unicode="&#x25e6;" 
d="M516 982q112 0 194 -83q83 -84 83 -203q0 -118 -82 -202q-83 -84 -199 -84t-198 83q-84 84 -84 203q0 121 84 203q84 83 202 83zM514 885q-79 0 -133 -55q-55 -55 -55 -134q0 -78 55 -134q55 -55 131 -55t131 55q54 56 54 134q0 80 -55 134q-55 55 -128 55z" />
    <glyph glyph-name="smileface" unicode="&#x263a;" horiz-adv-x="1365" 
d="M693 1331q166 0 314 -87q151 -89 237 -237q87 -150 87 -324t-87 -325q-87 -150 -237 -237q-151 -87 -324 -87q-174 0 -325 87t-237 237q-87 152 -87 330q0 280 215 476q183 167 444 167zM693 1245q-259 0 -427 -187q-145 -160 -145 -371q0 -255 186 -423
q160 -144 376 -144q151 0 282 75q131 76 206 206q75 131 75 282q0 246 -186 417q-87 80 -199 116q-90 29 -168 29zM491 953q39 0 66 -30q23 -25 23 -60q0 -40 -30 -67q-25 -23 -60 -23q-40 0 -67 30q-23 26 -23 61q0 38 30 66q25 23 61 23zM889 954q39 0 66 -30
q23 -26 23 -60q0 -41 -30 -68q-26 -23 -60 -23q-41 0 -68 30q-23 26 -23 61q0 39 30 67q26 23 62 23zM1106 762q-10 -137 -34 -204q-50 -139 -160 -209q-96 -61 -228 -61q-224 0 -337 169q-46 68 -65 148q-12 52 -20 157q19 -82 44 -125q58 -98 160 -152q92 -49 218 -49
q212 0 337 144q41 48 61 99q11 27 24 83z" />
    <glyph glyph-name="invsmileface" unicode="&#x263b;" horiz-adv-x="1365" 
d="M693 1331q166 0 314 -87q151 -89 237 -237q87 -149 87 -324q0 -174 -87 -325q-87 -150 -237 -237q-151 -87 -324 -87q-174 0 -325 87t-237 237q-87 152 -87 330q0 280 215 476q183 167 444 167zM491 953q-41 0 -68 -30q-23 -26 -23 -59q0 -41 30 -68q25 -23 60 -23
q40 0 67 30q23 25 23 60q0 40 -30 67q-25 23 -59 23zM889 954q-42 0 -69 -30q-23 -26 -23 -60q0 -41 30 -69q26 -23 61 -23q40 0 67 30q23 26 23 61q0 40 -30 68q-25 23 -59 23zM1106 762q-19 -82 -44 -125q-58 -98 -160 -153q-92 -48 -218 -48q-212 0 -337 144
q-41 48 -62 99q-10 27 -23 83q10 -137 34 -204q50 -138 160 -209q96 -61 228 -61q224 0 337 169q46 69 65 148q12 52 20 157z" />
    <glyph glyph-name="sun" unicode="&#x263c;" horiz-adv-x="1365" 
d="M326 968l-153 152l72 72l154 -153q104 81 232 98v215h103v-216q133 -18 233 -96l153 152l72 -72l-153 -152q78 -101 96 -232h216v-105h-216q-17 -132 -96 -233l153 -153l-72 -72l-153 153q-103 -79 -233 -97v-215h-103v216q-119 13 -233 95l-153 -152l-72 72l152 152
q-79 102 -94 234h-216v105h215q18 129 96 232zM688 1010q-150 0 -248 -108q-84 -93 -84 -216q0 -148 108 -246q93 -84 219 -84q145 0 242 108q84 94 84 220q0 143 -108 242q-92 84 -213 84z" />
    <glyph glyph-name="female" unicode="&#x2640;" horiz-adv-x="1365" 
d="M632 644q-93 14 -166 68q-72 53 -112 133t-40 170q0 155 109 265q107 109 259 109t260 -108q110 -110 110 -266q0 -122 -72 -222q-91 -125 -250 -150v-214h334v-88h-334v-341h-98v341h-330v88h330v215zM688 1293q-117 0 -197 -80q-81 -81 -81 -197q0 -115 82 -197
q79 -80 191 -80q113 0 193 81t80 196q0 117 -80 196q-82 81 -188 81z" />
    <glyph glyph-name="male" unicode="&#x2642;" horiz-adv-x="1365" 
d="M856 712q73 -99 73 -225q0 -154 -108 -263q-107 -110 -260 -110q-151 0 -259 108q-110 111 -110 267t109 266q108 108 260 108q126 0 229 -81l309 309q-104 23 -216 82q-44 23 -44 48q0 24 27 24q11 0 41 -6q89 -17 170 -17q113 0 216 27q11 3 20 3q21 0 21 -21
q0 -8 -10 -46q-21 -80 -21 -180q0 -87 18 -172q6 -29 6 -40q0 -28 -25 -28q-16 0 -26 11q-42 48 -70 126q-31 83 -39 121zM565 767q-116 0 -196 -80q-81 -81 -81 -197q0 -115 81 -197q80 -80 192 -80q113 0 192 81q80 81 80 196q0 117 -80 196q-82 81 -188 81z" />
    <glyph glyph-name="spade" unicode="&#x2660;" horiz-adv-x="1365" 
d="M220 0v38q129 24 193 50q113 46 187 166q64 104 73 268q-18 -39 -28 -56q-34 -60 -97 -101q-80 -52 -172 -52q-97 0 -169 71q-77 76 -77 185q0 93 48 165q60 92 165 180q162 136 247 265q60 92 89 225q41 -120 64 -167q38 -78 102 -148q60 -65 142 -140
q114 -103 156 -154q92 -114 92 -230q0 -89 -54 -157q-75 -94 -196 -94q-172 0 -285 207q7 -105 29 -174q39 -127 148 -208q74 -55 229 -90q17 -3 56 -11v-38h-942z" />
    <glyph glyph-name="club" unicode="&#x2663;" horiz-adv-x="1365" 
d="M1149 0h-933v38q183 33 257 85q168 117 191 346q3 34 5 93q-44 -77 -69 -108q-51 -65 -123 -105q-87 -49 -176 -49q-130 0 -219 103q-76 87 -76 208q0 129 83 219q76 82 187 82q55 0 121 -31q5 -2 55 -27q-72 108 -72 204q0 122 89 208q89 85 214 85q123 0 210 -81
q93 -87 93 -212q0 -98 -73 -204q57 28 76 36q49 22 101 22q117 0 195 -93q74 -88 74 -207q0 -141 -98 -232q-86 -80 -202 -80q-104 0 -207 71q-68 48 -123 136q-9 15 -32 55q3 -134 28 -215q37 -121 145 -207q53 -43 124 -66q52 -16 155 -36v-38z" />
    <glyph glyph-name="heart" unicode="&#x2665;" horiz-adv-x="1365" 
d="M680 -22q-35 136 -97 245q-73 126 -165 251l-118 160q-91 124 -125 186q-60 110 -60 213q0 119 79 198q76 77 186 77q153 0 245 -139q28 -43 55 -126q31 105 80 162q90 105 221 105q123 0 204 -93q66 -76 66 -175q0 -135 -99 -296q-40 -65 -126 -174q-168 -215 -247 -353
q-67 -118 -99 -241z" />
    <glyph glyph-name="diamond" unicode="&#x2666;" horiz-adv-x="1365" 
d="M682 1419q86 -158 283 -429q152 -209 237 -305q-49 -55 -267 -346q-135 -182 -253 -392q-43 87 -199 312q-119 171 -295 395l-24 31q46 54 261 337q143 189 257 397z" />
    <glyph glyph-name="musicalnote" unicode="&#x266a;" horiz-adv-x="1365" 
d="M626 319v1046h93v-124q25 -33 137 -167q186 -222 186 -460q0 -191 -116 -332h-58q67 159 67 305q0 107 -43 198q-51 107 -129 144q-18 9 -44 13v-623q0 -125 -58 -207q-39 -54 -98 -89q-71 -41 -154 -41q-87 0 -121 53q-20 33 -20 71q0 74 53 141q43 56 113 80
q44 15 82 15q58 0 110 -23z" />
    <glyph glyph-name="uni266C" unicode="&#x266c;" horiz-adv-x="1365" 
d="M1261 393q-1 -97 -35 -166q-35 -70 -100 -115q-79 -55 -175 -55q-88 0 -121 53q-19 32 -19 71q0 74 52 141q43 55 113 80q43 15 80 15q60 0 111 -24v554l-675 -185v-483q0 -125 -58 -206q-38 -54 -98 -88q-72 -41 -155 -41q-87 0 -120 53q-20 31 -20 70q0 73 53 139
q43 55 113 79q43 15 82 15q56 0 110 -21v923l862 220v-1029zM492 918l675 185v142l-675 -185v-142z" />
    <glyph glyph-name="ff" unicode="&#xfb00;" horiz-adv-x="1064" 
d="M287 846v-846h-103v846h-141v96h141v166q0 125 60 189q66 70 165 70q13 0 37 -2v-87q-82 -11 -107 -29q-53 -36 -53 -141v-166h160v-96h-159zM848 846v-846h-103v846h-141v96h141v166q0 125 60 189q66 70 165 70q14 0 38 -2v-87q-82 -11 -108 -29q-52 -36 -52 -141v-166
h160v-96h-160z" />
    <glyph glyph-name="fi" unicode="&#xfb01;" horiz-adv-x="1005" 
d="M287 846v-846h-103v846h-141v96h141v166q0 125 60 189q66 70 165 70q13 0 37 -2v-87q-82 -11 -107 -29q-53 -36 -53 -141v-166h160v-96h-159zM834 942v-942h-102v942h102zM785 1283q34 0 57 -26q19 -22 19 -52q0 -33 -25 -56q-22 -20 -52 -20q-35 0 -58 26q-19 23 -19 51
q0 33 25 57q21 20 53 20z" />
    <glyph glyph-name="fl" unicode="&#xfb02;" horiz-adv-x="1005" 
d="M287 846v-846h-103v846h-141v96h141v166q0 125 60 189q66 70 165 70q13 0 37 -2v-87q-82 -11 -107 -29q-53 -36 -53 -141v-166h160v-96h-159zM834 0h-102v1365h102v-1365z" />
    <glyph glyph-name="ffi" unicode="&#xfb03;" horiz-adv-x="1563" 
d="M286 846v-846h-103v846h-141v96h141v166q0 125 60 189q66 70 165 70q13 0 37 -2v-87q-82 -11 -107 -29q-53 -36 -53 -141v-166h160v-96h-159zM847 846v-846h-103v846h-141v96h141v166q0 125 60 189q66 70 165 70q14 0 38 -2v-87q-82 -11 -108 -29q-52 -36 -52 -141v-166
h160v-96h-160zM1394 942v-942h-102v942h102zM1345 1283q34 0 57 -26q19 -22 19 -52q0 -33 -25 -56q-22 -20 -52 -20q-35 0 -58 26q-19 23 -19 51q0 33 25 57q21 20 53 20z" />
    <glyph glyph-name="ffl" unicode="&#xfb04;" horiz-adv-x="1566" 
d="M287 846v-846h-103v846h-141v96h141v166q0 125 60 189q66 70 165 70q13 0 37 -2v-87q-82 -11 -107 -29q-53 -36 -53 -141v-166h160v-96h-159zM848 846v-846h-103v846h-141v96h141v166q0 125 60 189q66 70 165 70q14 0 38 -2v-87q-82 -11 -108 -29q-52 -36 -52 -141v-166
h160v-96h-160zM1395 0h-102v1365h102v-1365z" />
    <glyph glyph-name="glyph1" horiz-adv-x="0" 
 />
    <glyph glyph-name="glyph2" horiz-adv-x="614" 
 />
    <glyph glyph-name="glyph155" horiz-adv-x="614" 
 />
    <glyph glyph-name="glyph172" 
 />
    <glyph glyph-name="glyph210" horiz-adv-x="614" 
 />
    <glyph glyph-name="oneone" horiz-adv-x="1589" 
d="M353 1215l-204 -138v84l288 200v-826h-84v680zM1302 1322l-955 -1348l-60 43l955 1347zM1273 680l-204 -138v84l288 201v-827h-84v680z" />
    <glyph glyph-name="two.numerator" horiz-adv-x="468" 
d="M157 860h224v-55h-335l213 273q46 59 63 88q19 32 19 61q0 43 -37 67q-30 19 -71 19q-101 0 -102 -108h-60q11 159 165 159q81 0 126 -45q38 -37 38 -91q0 -60 -66 -144z" />
    <glyph glyph-name="dieresis.alt" 
d="M391 1277q33 0 55 -24q19 -20 19 -52q0 -35 -25 -56q-20 -18 -50 -18q-34 0 -56 24q-19 20 -19 51q0 36 24 57q21 18 52 18zM636 1277q33 0 55 -24q19 -20 19 -52q0 -34 -25 -56q-20 -18 -50 -18q-34 0 -56 24q-19 20 -19 51q0 35 25 57q20 18 51 18z" />
    <glyph glyph-name="zerozero.afrac" horiz-adv-x="559" 
d="M559 708v-59h-559v59h559zM456 1196v-221q0 -178 -177 -178q-90 0 -138 50q-27 27 -33 61q-5 28 -5 82v184q0 71 12 100q37 89 163 89q83 0 133 -42q45 -38 45 -125zM162 1172v-182q0 -66 8 -82q28 -58 110 -58q66 0 96 38q21 27 21 87v219q0 60 -35 89q-33 27 -82 27
q-66 0 -98 -43q-20 -28 -20 -95zM456 390v-220q0 -178 -177 -178q-90 0 -138 50q-27 27 -33 61q-5 28 -5 82v183q0 72 12 101q37 89 163 89q83 0 133 -42q45 -38 45 -126zM162 367v-182q0 -66 8 -82q28 -58 110 -58q66 0 96 38q21 27 21 87v219q0 60 -35 89q-33 27 -82 27
q-66 0 -98 -43q-20 -28 -20 -95z" />
    <glyph glyph-name="one.numerator" horiz-adv-x="468" 
d="M247 1270l-143 -94v57l202 137v-565h-59v465z" />
    <glyph glyph-name="comma.high" horiz-adv-x="300" 
d="M215 1346l-201 -411l-80 36l192 421z" />
    <glyph glyph-name="commaaccent" 
d="M557 -112v-114q0 -100 -41 -149q-34 -41 -87 -68v60q8 8 41 37q25 22 30 99h-40v135h97z" />
    <glyph glyph-name="four.numerator" horiz-adv-x="468" 
d="M288 935h-246v40l305 411v-396h77v-55h-77v-129h-59v129zM288 990v235l-175 -235h175z" />
    <glyph glyph-name="five.numerator" horiz-adv-x="468" 
d="M143 1300v-146q42 14 87 14q75 0 127 -41q66 -54 66 -142q0 -87 -63 -141q-57 -47 -143 -47q-132 0 -182 116l58 19q19 -35 32 -48q34 -33 93 -33q64 0 107 44q36 37 36 91q0 56 -39 92q-39 37 -105 37q-47 0 -82 -21q-19 -11 -51 -41v301h245v-54h-186z" />
    <glyph glyph-name="six.numerator" horiz-adv-x="468" 
d="M332 1354l-148 -216q26 8 56 8q79 0 131 -46q57 -51 57 -125q0 -73 -56 -125q-57 -54 -138 -54q-89 0 -147 63q-46 50 -46 121q0 46 36 100l182 274h73zM236 1095q-62 0 -103 -42q-30 -32 -30 -75q0 -59 47 -100q34 -29 85 -29q65 0 102 46q30 37 30 78q0 50 -38 86
q-39 36 -93 36z" />
    <glyph glyph-name="seven.numerator" horiz-adv-x="468" 
d="M331 1299h-244v55h332l-241 -549h-67z" />
    <glyph glyph-name="eight.numerator" horiz-adv-x="468" 
d="M309 1114q36 -11 61 -33q51 -45 51 -116q0 -78 -57 -126q-53 -43 -131 -43q-93 0 -146 59q-39 44 -39 106q0 73 52 120q24 22 61 33q-32 11 -52 31q-35 37 -35 86q0 60 50 98q45 34 112 34q72 0 117 -40q42 -36 42 -92q0 -86 -86 -117zM235 1312q-52 0 -80 -29
q-21 -21 -21 -51q0 -43 37 -67q29 -19 63 -19q47 0 78 33q23 24 23 52q0 34 -34 61q-26 20 -66 20zM237 1083q-60 0 -97 -42q-30 -34 -30 -75q0 -50 39 -85q36 -32 85 -32q53 0 91 37q34 32 34 80q0 49 -36 83q-37 34 -86 34z" />
    <glyph glyph-name="Dbreve" horiz-adv-x="1265" 
d="M184 0v1365h350q272 0 443 -156q191 -176 191 -499q0 -363 -215 -553q-177 -157 -474 -157h-295zM300 1261v-1157h64q273 0 376 42q309 127 309 564q0 207 -75 329q-134 222 -446 222h-228zM334 1697h107q52 -112 191 -112q140 0 192 112h107q-14 -61 -54 -105
q-88 -97 -245 -97q-156 0 -244 97q-40 44 -54 105z" />
    <glyph glyph-name="nine.numerator" horiz-adv-x="468" 
d="M285 1022q-29 -9 -57 -9q-76 0 -130 47q-57 51 -57 125q0 75 57 126q58 53 139 53q82 0 138 -53q52 -49 52 -124q0 -52 -30 -98l-184 -283h-73zM237 1311q-66 0 -106 -47q-28 -34 -28 -76q0 -59 47 -95q36 -28 84 -28q63 0 103 44q28 32 28 78q0 56 -41 92q-37 32 -87 32
z" />
    <glyph glyph-name="zero.numerator" horiz-adv-x="468" 
d="M411 1196v-221q0 -178 -178 -178q-89 0 -137 50q-27 27 -33 61q-5 28 -5 82v184q0 71 12 100q37 89 163 89q83 0 133 -42q45 -37 45 -125zM117 1172v-182q0 -66 8 -82q28 -58 110 -58q66 0 96 38q21 27 21 87v219q0 60 -35 89q-33 27 -82 27q-66 0 -98 -43
q-20 -28 -20 -95z" />
    <glyph glyph-name="one.denominator" horiz-adv-x="468" 
d="M247 465l-143 -95v58l202 137v-565h-59v465z" />
    <glyph glyph-name="two.denominator" horiz-adv-x="468" 
d="M157 55h224v-55h-335l213 273q46 59 63 88q19 32 19 61q0 43 -37 67q-30 19 -71 19q-101 0 -102 -108h-60q11 159 165 159q81 0 126 -45q38 -37 38 -91q0 -60 -66 -144z" />
    <glyph glyph-name="ahungarumlaut" horiz-adv-x="1148" 
d="M875 768v174h102v-942h-102v208q-139 -225 -352 -225q-191 0 -318 141q-118 130 -118 347q0 246 152 381q121 107 282 107q127 0 232 -67q63 -40 122 -124zM529 862q-163 0 -251 -121q-85 -117 -85 -276q0 -183 110 -292q93 -93 221 -93q160 0 266 136q46 60 69 143
q19 67 19 127q0 175 -100 275q-100 101 -249 101zM514 1338h138l-184 -263h-82zM787 1338h138l-184 -263h-82z" />
    <glyph glyph-name="three.denominator" horiz-adv-x="468" 
d="M296 494h-219v55h341l-179 -206q58 1 108 -33q71 -48 71 -137q0 -92 -75 -144q-53 -37 -127 -37q-86 0 -142 53q-29 28 -43 73l55 18q33 -91 126 -91q64 0 106 40q38 35 38 85q0 54 -41 88q-39 32 -106 32q-39 0 -81 -23l-17 18z" />
    <glyph glyph-name="four.denominator" horiz-adv-x="468" 
d="M288 129h-246v40l305 412v-397h77v-55h-77v-129h-59v129zM288 184v235l-175 -235h175z" />
    <glyph glyph-name="five.denominator" horiz-adv-x="468" 
d="M143 495v-146q42 14 87 14q75 0 127 -41q66 -54 66 -142q0 -87 -63 -141q-57 -47 -143 -47q-132 0 -182 115l58 20q19 -35 32 -48q35 -33 93 -33q64 0 107 44q36 37 36 91q0 56 -39 92q-39 37 -105 37q-46 0 -82 -21q-19 -11 -51 -42v302h245v-54h-186z" />
    <glyph glyph-name="Dieresis.alt" 
d="M376 1679q36 0 60 -25q24 -24 24 -61q0 -39 -30 -64q-23 -19 -54 -19q-37 0 -61 25t-24 59q0 41 30 66q23 19 55 19zM649 1679q36 0 60 -25q24 -24 24 -61q0 -39 -30 -64q-23 -19 -55 -19q-36 0 -60 25q-24 24 -24 59q0 41 30 66q23 19 55 19z" />
    <glyph glyph-name="Comma.high" horiz-adv-x="300" 
d="M215 1346l-201 -411l-80 36l192 421z" />
    <glyph glyph-name="commaaccent.sc" 
d="M557 -85v-148q0 -182 -121 -221v57q66 30 66 144h-41v168h96z" />
    <glyph glyph-name="Macron" 
d="M798 1636v-90h-573v90h573z" />
    <glyph glyph-name="Ogonek" 
d="M794 0h97q-72 -53 -98 -84q-44 -51 -44 -98q0 -37 25 -65q32 -37 99 -37q30 0 78 13l21 -81q-57 -21 -108 -21q-112 0 -170 65q-41 45 -41 101q0 120 141 207z" />
    <glyph glyph-name="Cedilla" 
d="M436 -424l-68 55q85 67 123 127q30 47 51 128l115 -45q-29 -79 -77 -138q-51 -62 -144 -127z" />
    <glyph glyph-name="Hungarumlaut" 
d="M440 1730h142l-187 -266h-90zM740 1730h142l-186 -266h-91z" />
    <glyph glyph-name="Tilde" 
d="M757 1688l81 -56q-99 -139 -193 -139q-34 0 -80 19q-9 4 -61 36q-63 37 -97 37q-67 0 -112 -97l-81 45q47 79 77 108q50 49 106 49q50 0 150 -57q71 -41 102 -42q26 -1 58 26q27 23 50 71z" />
    <glyph glyph-name="Breve" 
d="M214 1697h107q52 -112 191 -112q140 0 192 112h107q-14 -61 -54 -105q-88 -97 -245 -97q-156 0 -244 97q-40 44 -54 105z" />
    <glyph glyph-name="Caron" 
d="M512 1550l149 185h112l-218 -271h-93l-211 271h109z" />
    <glyph glyph-name="Circumflex" 
d="M513 1649l-150 -185h-112l218 271h94l210 -271h-109z" />
    <glyph glyph-name="Grave" 
d="M402 1730l175 -266h-93l-228 266h146z" />
    <glyph glyph-name="Acute" 
d="M623 1730h145l-227 -266h-94z" />
    <glyph glyph-name="Ring" 
d="M514 1756q64 0 108 -47q41 -42 41 -107q0 -68 -52 -112q-42 -36 -98 -36q-66 0 -110 46q-41 43 -41 105q0 71 52 115q42 36 100 36zM514 1706q-52 0 -80 -37q-22 -29 -22 -64q0 -42 28 -72q27 -29 73 -29q51 0 78 37q22 29 22 62q0 43 -28 74q-27 29 -71 29z" />
    <glyph glyph-name="Dotaccent" 
d="M512 1679q36 0 60 -25q24 -24 24 -61q0 -39 -30 -64q-23 -19 -54 -19q-37 0 -61 25t-24 59q0 41 30 66q23 19 55 19z" />
    <glyph glyph-name="Dieresis" 
d="M308 1679q36 0 60 -25q24 -24 24 -61q0 -39 -30 -64q-23 -19 -54 -19q-37 0 -61 25t-24 59q0 41 30 66q23 19 55 19zM717 1679q36 0 60 -25q24 -24 24 -61q0 -39 -30 -64q-23 -19 -54 -19q-37 0 -61 25q-24 24 -24 59q0 41 30 66q23 19 55 19z" />
    <glyph glyph-name="six.denominator" horiz-adv-x="468" 
d="M332 549l-148 -216q26 8 56 8q79 0 131 -46q57 -51 57 -125q0 -73 -56 -125q-57 -54 -138 -54q-89 0 -147 63q-46 50 -46 121q0 46 36 100l182 274h73zM236 290q-62 0 -103 -42q-30 -32 -30 -75q0 -59 47 -100q34 -29 85 -29q65 0 102 46q30 37 30 78q0 50 -38 86
q-39 36 -93 36z" />
    <glyph glyph-name="seven.denominator" horiz-adv-x="468" 
d="M331 494h-244v55h332l-241 -549h-67z" />
    <glyph glyph-name="eight.denominator" horiz-adv-x="468" 
d="M309 309q36 -11 61 -33q51 -45 51 -116q0 -78 -57 -126q-53 -43 -131 -43q-93 0 -146 59q-39 44 -39 106q0 73 52 120q24 21 61 33q-32 11 -52 31q-35 36 -35 86q0 59 50 98q45 34 112 34q72 0 117 -40q42 -37 42 -92q0 -87 -86 -117zM235 507q-52 0 -81 -29
q-20 -21 -20 -51q0 -44 37 -68q30 -19 63 -19q47 0 78 33q23 25 23 52q0 35 -34 61q-26 21 -66 21zM237 277q-60 0 -97 -42q-30 -33 -30 -74q0 -50 39 -85q36 -32 85 -32q53 0 91 37q34 32 34 80t-36 82q-37 34 -86 34z" />
    <glyph glyph-name="nine.denominator" horiz-adv-x="468" 
d="M285 216q-28 -9 -57 -9q-76 0 -130 47q-57 51 -57 125q0 75 57 126q57 53 139 53q81 0 138 -53q52 -49 52 -123q0 -52 -30 -99l-184 -283h-73zM237 505q-66 0 -106 -47q-28 -34 -28 -76q0 -59 47 -95q36 -28 84 -28q63 0 103 44q28 32 28 78q0 56 -41 92q-37 32 -87 32z
" />
    <glyph glyph-name="zero.denominator" horiz-adv-x="468" 
d="M411 390v-220q0 -178 -178 -178q-89 0 -137 50q-27 27 -33 61q-5 28 -5 82v183q0 72 12 101q37 89 163 89q83 0 133 -42q45 -38 45 -126zM117 367v-182q0 -66 8 -82q28 -58 110 -58q66 0 96 38q21 27 21 87v219q0 60 -35 89q-33 27 -82 27q-66 0 -98 -43q-20 -28 -20 -95
z" />
    <glyph glyph-name="three.numerator" horiz-adv-x="468" 
d="M296 1299h-219v55h341l-179 -206q58 1 108 -33q71 -48 71 -137q0 -92 -75 -144q-53 -37 -127 -37q-86 0 -142 53q-29 28 -43 73l55 18q33 -91 126 -91q64 0 106 40q38 35 38 85q0 54 -41 88q-39 32 -106 32q-39 0 -81 -23l-17 18z" />
    <glyph glyph-name="periodsuperior" horiz-adv-x="281" 
d="M141 657q26 0 43 -20q15 -17 15 -39q0 -25 -19 -43q-17 -15 -40 -15q-26 0 -44 20q-14 17 -14 39q0 25 19 43q16 15 40 15z" />
    <glyph glyph-name="commasuperior" horiz-adv-x="281" 
d="M224 637l-143 -313l-61 26l130 317z" />
  </font>
</defs>
</svg>
