<?xml version="1.0" standalone="no"?>
<!DOCTYPE svg PUBLIC "-//W3C//DTD SVG 1.1//EN" "http://www.w3.org/Graphics/SVG/1.1/DTD/svg11.dtd" >
<svg xmlns="http://www.w3.org/2000/svg" xmlns:xlink="http://www.w3.org/1999/xlink" version="1.1">
<metadata>
Created by FontForge 20170731 at Wed Apr  4 16:37:25 2012
 By Aleksey,,,
(URW)++,Copyright 2006 by (URW)++ Design &#38; Development
</metadata>
<defs>
<font id="NeuzeitGro-Bla" horiz-adv-x="1024" >
  <font-face 
    font-family="NeuzeitGro-Bla"
    font-weight="400"
    font-stretch="normal"
    units-per-em="2048"
    panose-1="0 0 0 0 0 0 0 0 0 0"
    ascent="1533"
    descent="-515"
    x-height="949"
    cap-height="1365"
    bbox="-355 -512 2116 1842"
    underline-thickness="200"
    underline-position="-309"
    unicode-range="U+0020-FB04"
  />
<missing-glyph horiz-adv-x="614" 
d="M61 0v1365h492v-1365h-492zM492 61v1243h-370v-1243h370z" />
    <glyph glyph-name=".notdef" horiz-adv-x="614" 
d="M61 0v1365h492v-1365h-492zM492 61v1243h-370v-1243h370z" />
    <glyph glyph-name=".null" horiz-adv-x="0" 
 />
    <glyph glyph-name="nonmarkingreturn" horiz-adv-x="682" 
 />
    <glyph glyph-name="space" unicode=" " horiz-adv-x="614" 
 />
    <glyph glyph-name="exclam" unicode="!" horiz-adv-x="618" 
d="M461 1365v-893h-303v893h303zM311 314q77 0 125 -52q46 -50 46 -123q0 -80 -59 -131q-45 -39 -113 -39q-79 0 -127 52q-46 50 -46 120q0 82 59 134q45 39 115 39z" />
    <glyph glyph-name="quotedbl" unicode="&#x22;" horiz-adv-x="922" 
d="M354 818h-241l-63 547h368zM808 818h-241l-62 547h367z" />
    <glyph glyph-name="numbersign" unicode="#" 
d="M923 606l1 -155h-191l-59 -396h-158l59 396h-180l-58 -396h-155l58 396h-187l-1 155h212l28 178h-185l-2 155h208l56 372h152l-53 -372h179l55 372h157l-55 -372h167l2 -155h-192l-24 -178h166zM625 784h-181l-24 -178h177z" />
    <glyph glyph-name="dollar" unicode="$" 
d="M557 1113v-301q144 -47 234 -101q172 -102 172 -301q0 -164 -114 -285q-81 -86 -221 -114q-24 -5 -71 -11v-175h-103v175q-166 12 -278 121q-97 96 -110 269h279q1 -57 24 -86q26 -34 85 -51v296q-126 42 -212 95q-87 54 -128 117q-52 80 -52 204q0 139 81 246
q112 149 311 155v145h103v-145q214 -37 301 -139q77 -90 85 -227h-273q-5 95 -113 113zM454 1113q-48 -7 -73 -29q-44 -41 -44 -102q0 -64 45 -99q17 -13 72 -37v267zM557 253q50 9 78 37q39 38 39 100q0 60 -43 90q-24 17 -74 31v-258z" />
    <glyph glyph-name="percent" unicode="%" horiz-adv-x="1457" 
d="M618 1118v-215q0 -138 -75 -204q-71 -64 -193 -64q-136 0 -209 68q-41 39 -53 95q-13 61 -13 145v161q0 148 61 212q72 76 206 76q119 0 195 -65q81 -69 81 -209zM265 1104v-184q0 -63 10 -83q18 -35 74 -35q52 0 69 36q13 25 13 91v175q0 68 -16 91q-19 27 -66 27
q-50 0 -67 -25q-17 -24 -17 -93zM1382 456v-215q0 -138 -75 -204q-71 -64 -193 -64q-135 0 -208 68q-41 39 -53 95q-13 62 -13 146v160q0 149 61 212q72 77 205 77q119 0 195 -65q81 -70 81 -210zM1030 442v-184q0 -63 10 -83q17 -35 73 -35q52 0 69 36q13 26 13 91v175
q0 68 -16 92q-18 27 -66 27q-49 0 -67 -25q-16 -24 -16 -94zM1215 1338l-884 -1365l-88 56l882 1363z" />
    <glyph glyph-name="ampersand" unicode="&#x26;" horiz-adv-x="1346" 
d="M1085 292l234 -292h-361l-90 106q-211 -146 -387 -146q-174 0 -289 103q-124 110 -124 293q0 136 68 229q64 88 215 188q-54 78 -74 125q-35 78 -35 156q0 152 121 237q103 73 250 73q176 0 277 -98q89 -88 89 -210q0 -111 -77 -213q-46 -62 -149 -130l157 -205
q113 98 204 205l205 -182q-116 -131 -234 -239zM595 918q103 64 103 132q0 38 -27 65q-20 19 -50 19q-42 0 -69 -32q-20 -23 -20 -52q0 -30 17 -67q9 -18 22 -35q23 -30 24 -30zM505 553q-131 -79 -131 -171q0 -52 38 -95q41 -48 107 -48q45 0 99 28q38 19 70 57z" />
    <glyph glyph-name="quotesingle" unicode="'" horiz-adv-x="478" 
d="M365 818h-252l-63 547h379z" />
    <glyph glyph-name="parenleft" unicode="(" horiz-adv-x="695" 
d="M612 -289l-212 -175q-332 449 -332 948q0 308 130 613q71 167 154 270q20 25 64 73l196 -181q-96 -130 -153 -262q-114 -265 -114 -532q0 -402 267 -754z" />
    <glyph glyph-name="parenright" unicode=")" horiz-adv-x="695" 
d="M82 1265l213 175q331 -449 331 -948q0 -308 -130 -613q-71 -167 -153 -270q-21 -25 -64 -73l-197 181q96 130 153 263q114 264 114 531q0 402 -267 754z" />
    <glyph glyph-name="asterisk" unicode="*" horiz-adv-x="840" 
d="M415 924l-101 -149l-146 100l106 149l-165 55l59 156l163 -48v178h167v-178l173 67l59 -155l-190 -75l131 -149l-131 -100z" />
    <glyph glyph-name="plus" unicode="+" 
d="M16 819h413v411h164v-411h416v-158h-416v-411h-164v411h-413v158z" />
    <glyph glyph-name="comma" unicode="," horiz-adv-x="563" 
d="M464 248l-170 -491l-208 44l92 513z" />
    <glyph glyph-name="hyphen" unicode="-" horiz-adv-x="468" 
d="M468 637v-272h-468v272h468z" />
    <glyph glyph-name="period" unicode="." horiz-adv-x="563" 
d="M283 314q77 0 125 -52q46 -50 46 -123q0 -80 -59 -131q-45 -39 -113 -39q-79 0 -127 52q-46 50 -46 120q0 82 59 134q45 39 115 39z" />
    <glyph glyph-name="slash" unicode="/" horiz-adv-x="802" 
d="M762 1365l-675 -1782h-204l675 1782h204z" />
    <glyph glyph-name="zero" unicode="0" 
d="M950 939v-523q0 -163 -53 -255q-109 -190 -379 -190q-221 0 -337 113q-67 65 -86 156q-21 104 -21 244v431q0 180 43 272q52 110 175 165q96 42 213 42q192 0 315 -108q80 -71 107 -164q23 -78 23 -183zM386 915v-471q0 -100 18 -131q14 -24 44 -40q31 -17 66 -17
q76 0 108 59q22 40 22 145v455q0 79 -9 108q-27 80 -121 80q-77 0 -106 -52q-22 -39 -22 -136z" />
    <glyph glyph-name="one" unicode="1" 
d="M456 968l-221 -99v284l533 250v-1403h-312v968z" />
    <glyph glyph-name="two" unicode="2" 
d="M560 270h341v-270h-860l477 750q59 92 81 139q24 51 24 96q0 53 -31 87q-37 40 -100 40q-100 0 -132 -88q-15 -42 -17 -127h-283v35q0 128 55 235q58 116 167 173q101 54 229 54q116 0 218 -49q119 -57 172 -168q35 -71 35 -161q0 -107 -40 -198q-47 -106 -134 -240z" />
    <glyph glyph-name="three" unicode="3" 
d="M458 1104h-353v261h858l-366 -509q129 -18 212 -92q133 -118 133 -323q0 -211 -138 -347q-126 -123 -318 -123q-175 0 -295 102q-106 89 -133 235q-6 33 -10 93h278q7 -60 34 -95q44 -57 118 -57q78 0 131 59q38 44 38 112q0 73 -39 121q-48 58 -129 58q-60 0 -106 -31
l-186 156z" />
    <glyph glyph-name="four" unicode="4" 
d="M549 266h-481v262l417 837h362v-837h108v-262h-108v-266h-298v266zM549 528v467l-239 -467h239z" />
    <glyph glyph-name="five" unicode="5" 
d="M410 1088v-261q83 35 157 35q110 0 205 -62q102 -66 149 -184q32 -80 32 -177q0 -150 -74 -271q-62 -101 -171 -153q-92 -44 -202 -44q-199 0 -325 133q-61 64 -110 194l265 100q44 -134 158 -134q68 0 111 47q45 49 45 119q0 66 -41 115q-47 56 -116 56q-85 0 -137 -78
h-226v842h749v-277h-469z" />
    <glyph glyph-name="six" unicode="6" 
d="M901 1365l-349 -535q28 5 44 5q98 0 189 -59q99 -65 145 -181q31 -77 31 -162q0 -127 -66 -238q-63 -107 -168 -166q-104 -58 -226 -58q-210 0 -336 152q-101 120 -101 287q0 106 45 226q36 94 126 235l317 494h349zM516 579q-73 0 -122 -55q-40 -45 -40 -109
q0 -67 45 -111q43 -42 110 -42q81 0 127 59q35 45 35 99q0 67 -42 112q-44 47 -113 47z" />
    <glyph glyph-name="seven" unicode="7" 
d="M532 1087h-401v278h830l-535 -1365h-319z" />
    <glyph glyph-name="eight" unicode="8" 
d="M797 703q167 -95 167 -307q0 -194 -140 -316q-125 -109 -317 -109q-124 0 -231 52q-116 57 -173 168q-42 82 -42 190q0 143 68 236q36 48 107 86q-59 36 -93 95q-46 79 -46 180q0 202 137 317q116 99 288 99q196 0 313 -126q104 -113 104 -279q0 -103 -50 -191
q-33 -59 -92 -95zM521 1129q-72 0 -114 -53q-33 -43 -33 -96q0 -63 42 -109q40 -44 101 -44q70 0 116 55q36 43 36 95q0 62 -49 111q-40 41 -99 41zM513 559q-70 0 -116 -49q-40 -43 -40 -106q0 -71 47 -114q43 -39 109 -39q74 0 117 53q37 45 37 101q0 66 -51 113
q-43 41 -103 41z" />
    <glyph glyph-name="nine" unicode="9" 
d="M481 531h-20q-88 0 -172 37q-125 55 -186 182q-40 85 -40 188q0 199 136 329q133 127 322 127q219 0 348 -163q94 -119 94 -284q0 -196 -172 -464l-310 -483h-345zM519 1107q-68 0 -116 -48q-44 -45 -44 -108q0 -70 49 -117q41 -40 105 -40q79 0 126 59q33 42 33 96
q0 65 -47 112q-44 46 -106 46z" />
    <glyph glyph-name="colon" unicode=":" horiz-adv-x="563" 
d="M283 314q77 0 125 -52q46 -50 46 -123q0 -80 -59 -131q-45 -39 -113 -39q-79 0 -127 52q-46 50 -46 120q0 82 59 134q45 39 115 39zM283 1028q77 0 125 -52q46 -50 46 -123q0 -80 -59 -131q-46 -39 -113 -39q-79 0 -127 52q-46 50 -46 120q0 82 59 134q45 39 115 39z" />
    <glyph glyph-name="semicolon" unicode=";" horiz-adv-x="563" 
d="M464 248l-170 -491l-208 44l92 513zM316 987q77 0 125 -52q46 -50 46 -123q0 -79 -59 -131q-45 -39 -113 -39q-79 0 -127 52q-46 50 -46 120q0 82 59 134q45 39 115 39z" />
    <glyph glyph-name="less" unicode="&#x3c;" 
d="M955 1309v-337l-529 -281l527 -283l2 -334l-887 476v283z" />
    <glyph glyph-name="equal" unicode="=" 
d="M15 973h993v-153h-993v153zM15 662h993v-153h-993v153z" />
    <glyph glyph-name="greater" unicode="&#x3e;" 
d="M69 74v337l529 281l-527 283l-2 334l887 -476v-284z" />
    <glyph glyph-name="question" unicode="?" horiz-adv-x="936" 
d="M585 496h-314q-2 52 -2 77q0 106 36 163q24 38 65 75q11 9 92 73q55 43 74 73q18 27 18 59q0 43 -30 71q-29 26 -78 26q-111 0 -115 -127h-287q3 118 41 198q48 99 137 150q101 58 233 58q131 0 242 -63q172 -98 172 -310q0 -123 -64 -209q-39 -51 -108 -102
q-81 -59 -99 -90q-13 -24 -13 -61v-28v-33zM430 314q77 0 125 -52q46 -50 46 -123q0 -79 -59 -131q-45 -39 -113 -39q-79 0 -127 52q-46 50 -46 120q0 82 59 134q45 39 115 39z" />
    <glyph glyph-name="at" unicode="@" horiz-adv-x="1573" 
d="M1331 385h106q-45 -93 -82 -143.5t-95 -100.5q-190 -162 -453 -162q-275 0 -476 191q-222 210 -222 509q0 302 228 514q209 195 492 195q251 0 433 -159q201 -176 201 -420q0 -202 -136 -359q-67 -77 -159 -125q-99 -52 -192 -52q-136 0 -144 112q-59 -48 -93 -67
q-70 -41 -140 -41q-98 0 -157 63q-64 69 -64 187q0 125 62 262q66 147 174 228q100 75 215 75q69 0 119 -29q23 -14 59 -50l18 43h183l-221 -575q-22 -57 -22 -80q0 -38 53 -38q52 0 115 41q104 68 163 186q48 98 48 205q0 199 -158 341q-150 135 -358 135q-243 0 -419 -175
q-177 -176 -177 -425q0 -246 187 -419q167 -156 386 -156q215 0 382 131q70 54 144 158zM843 600l100 244q10 25 10 55q0 97 -79 97q-53 0 -109 -57q-88 -90 -153 -238q-64 -146 -64 -244q0 -86 78 -86q28 0 53 13q96 53 164 216z" />
    <glyph glyph-name="A" unicode="A" horiz-adv-x="1321" 
d="M898 198h-484l-60 -198h-354l451 1365h421l449 -1365h-364zM815 466l-160 508l-159 -508h319z" />
    <glyph glyph-name="B" unicode="B" horiz-adv-x="1192" 
d="M862 678q108 -25 163 -77q92 -87 92 -239q0 -135 -70 -230q-62 -85 -168 -113q-70 -19 -189 -19h-560v1365h467q198 0 290 -36q78 -30 126 -88q84 -100 84 -245t-92 -239q-50 -51 -143 -79zM462 1117v-316h82q123 0 173 45q43 40 43 113q0 99 -70 133q-52 25 -151 25h-77
zM462 559v-321h120q103 0 147 33q52 39 52 124q0 101 -73 139q-34 18 -72 22q-39 3 -97 3h-77z" />
    <glyph glyph-name="C" unicode="C" horiz-adv-x="1304" 
d="M1070 398l196 -231q-108 -91 -200 -131q-142 -63 -311 -63q-313 0 -500 207q-103 113 -151 270q-34 112 -34 230q0 204 97 379q99 178 274 265q138 68 324 68q177 0 322 -68q90 -42 195 -140l-212 -221q-141 122 -293 122q-172 0 -275 -117q-96 -110 -96 -279
q0 -127 60 -230q49 -84 136 -131q89 -48 195 -48q84 0 158 31q60 26 115 87z" />
    <glyph glyph-name="D" unicode="D" horiz-adv-x="1327" 
d="M130 0v1365h399q247 0 386 -69q172 -87 264 -260q79 -150 79 -340q0 -230 -111 -410q-176 -286 -580 -286h-437zM462 1099v-827h51q163 0 269 90q69 60 106 149q34 82 34 174q0 128 -64 238q-57 97 -165 142q-82 34 -167 34h-64z" />
    <glyph glyph-name="E" unicode="E" horiz-adv-x="939" 
d="M400 1097v-279h450v-268h-450v-282h450v-268h-782v1365h782v-268h-450z" />
    <glyph glyph-name="F" unicode="F" horiz-adv-x="967" 
d="M462 1097v-279h454v-268h-454v-550h-332v1365h786v-268h-454z" />
    <glyph glyph-name="G" unicode="G" horiz-adv-x="1560" 
d="M812 779h699q1 -45 1 -71q0 -334 -226 -542q-211 -193 -501 -193q-184 0 -343 83q-171 90 -269 248q-103 168 -103 378q0 308 212 514q203 196 499 196q220 0 406 -117q94 -59 169 -152l-251 -196q-127 158 -313 158q-209 0 -315 -168q-71 -112 -71 -239q0 -190 141 -310
q111 -94 259 -94q151 0 259 107q54 52 82 130h-335v268z" />
    <glyph glyph-name="H" unicode="H" horiz-adv-x="1372" 
d="M462 539v-539h-332v1365h332v-558h449v558h332v-1365h-332v539h-449z" />
    <glyph glyph-name="I" unicode="I" horiz-adv-x="592" 
d="M462 1365v-1365h-332v1365h332z" />
    <glyph glyph-name="J" unicode="J" horiz-adv-x="797" 
d="M687 1365v-851q0 -186 -35 -275q-46 -118 -170 -191q-103 -61 -297 -72q-35 -2 -117 -3v296q31 -3 47 -3q110 0 170 45q46 35 60 103q10 46 10 156v527h-287v268h619z" />
    <glyph glyph-name="K" unicode="K" horiz-adv-x="1176" 
d="M462 597v-597h-332v1365h332v-576l319 576h382l-382 -649l382 -716h-382z" />
    <glyph glyph-name="L" unicode="L" horiz-adv-x="947" 
d="M462 268h444v-268h-776v1365h332v-1097z" />
    <glyph glyph-name="M" unicode="M" horiz-adv-x="1757" 
d="M462 779v-779h-332v1365h388l361 -735l360 735h389v-1365h-332v779l-417 -834z" />
    <glyph glyph-name="N" unicode="N" horiz-adv-x="1421" 
d="M462 777v-777h-332v1365h332l498 -767v767h332v-1365h-332z" />
    <glyph glyph-name="O" unicode="O" horiz-adv-x="1585" 
d="M809 1393q315 0 524 -227q182 -197 182 -487q0 -180 -93 -346q-103 -183 -284 -279q-154 -81 -337 -81q-194 0 -360 90q-189 102 -288 284q-83 154 -83 330q0 308 229 525q202 191 510 191zM796 1085q-176 0 -291 -131q-97 -111 -97 -274q0 -175 117 -289
q114 -112 269 -112q169 0 284 128q101 111 101 268q0 192 -126 309q-109 101 -257 101z" />
    <glyph glyph-name="P" unicode="P" horiz-adv-x="1149" 
d="M462 444v-444h-332v1365h470q246 0 381 -122q127 -115 127 -327q0 -127 -54 -235q-65 -131 -196 -189q-108 -48 -239 -48h-157zM462 716h92q72 0 119 23q98 49 98 164q0 105 -77 157q-49 32 -118 32h-114v-376z" />
    <glyph glyph-name="Q" unicode="Q" horiz-adv-x="1583" 
d="M1471 100l-237 -195l-113 140q-158 -72 -328 -72q-198 0 -372 102q-186 108 -280 294q-72 144 -72 308q0 200 107 375q104 169 275 258q156 82 349 82q339 0 544 -239q170 -198 170 -458q0 -188 -88 -358q-27 -52 -73 -107zM1034 598l98 -114q46 103 46 209
q0 169 -120 285q-110 106 -264 106q-180 0 -295 -137q-92 -110 -92 -265q0 -168 110 -283q112 -117 278 -117q58 0 92 11l-89 108z" />
    <glyph glyph-name="R" unicode="R" horiz-adv-x="1220" 
d="M462 528v-528h-332v1365h443q268 0 402 -103q56 -43 88 -103q59 -108 59 -241q0 -313 -266 -415l302 -503h-397zM462 715h106q92 0 146 39q71 51 71 148q0 81 -49 133q-52 57 -146 57h-128v-377z" />
    <glyph glyph-name="S" unicode="S" horiz-adv-x="1098" 
d="M55 414h325q-1 -14 -1 -23q0 -42 30 -73q52 -52 132 -52q66 0 108 38q33 30 33 71q0 52 -55 87q-35 24 -142 61q-196 71 -298 159q-119 102 -119 283q0 200 136 315q133 112 337 112q198 0 328 -107q131 -108 160 -323h-338q-15 137 -152 137q-73 0 -108 -38
q-28 -30 -28 -70q0 -61 63 -99q31 -19 156 -67q210 -78 293 -154q115 -105 115 -274q0 -224 -174 -338q-132 -86 -315 -86q-214 0 -344 109q-142 121 -142 332z" />
    <glyph glyph-name="T" unicode="T" horiz-adv-x="961" 
d="M647 1097v-1097h-332v1097h-315v268h961v-268h-314z" />
    <glyph glyph-name="U" unicode="U" horiz-adv-x="1310" 
d="M441 1365v-795q0 -146 46 -211q56 -79 169 -79q84 0 142 48q50 41 64 127q7 44 7 115v795h332v-781q0 -300 -142 -453q-68 -75 -166 -114q-111 -44 -234 -44q-179 0 -317 84q-145 87 -196 241q-37 109 -37 286v781h332z" />
    <glyph glyph-name="V" unicode="V" horiz-adv-x="1163" 
d="M574 531l246 834h343l-411 -1365h-360l-392 1365h341z" />
    <glyph glyph-name="W" unicode="W" horiz-adv-x="1751" 
d="M1220 571l184 794h347l-364 -1365h-344l-175 808l-173 -808h-342l-353 1365h353l175 -775l182 775h333z" />
    <glyph glyph-name="X" unicode="X" horiz-adv-x="1218" 
d="M612 440l-225 -440h-380l418 733l-355 632h379l163 -328l174 328h375l-361 -632l412 -733h-377z" />
    <glyph glyph-name="Y" unicode="Y" horiz-adv-x="1169" 
d="M754 602v-602h-332v602l-449 763h395l223 -419l217 419h388z" />
    <glyph glyph-name="Z" unicode="Z" horiz-adv-x="1140" 
d="M542 268h518v-268h-1033l572 1097h-507v268h1020z" />
    <glyph glyph-name="bracketleft" unicode="[" horiz-adv-x="695" 
d="M123 1365h492v-177h-233v-1428h233v-177h-492v1782z" />
    <glyph glyph-name="backslash" unicode="\" horiz-adv-x="802" 
d="M41 1365h203l676 -1782h-204z" />
    <glyph glyph-name="bracketright" unicode="]" horiz-adv-x="695" 
d="M571 1365v-1782h-491v177h232v1428h-232v177h491z" />
    <glyph glyph-name="asciicircum" unicode="^" 
d="M322 707h-298l301 667h375l301 -667h-298l-190 438z" />
    <glyph glyph-name="underscore" unicode="_" 
d="M0 -109h1024v-200h-1024v200z" />
    <glyph glyph-name="grave" unicode="`" 
d="M482 1387l170 -291h-184l-286 291h300z" />
    <glyph glyph-name="a" unicode="a" horiz-adv-x="1274" 
d="M847 846v103h311v-949h-311v106q-125 -144 -322 -144q-225 0 -358 168q-107 135 -107 330q0 152 71 282q59 109 163 174q114 70 257 70q106 0 190 -49q50 -30 106 -91zM620 728q-112 0 -174 -87q-54 -76 -54 -174q0 -121 74 -196q64 -64 152 -64q104 0 173 87
q61 77 61 177q0 126 -80 201q-61 56 -152 56z" />
    <glyph glyph-name="b" unicode="b" horiz-adv-x="1272" 
d="M427 103v-103h-311v1365h311v-509q57 60 107 87q83 44 189 44q211 0 356 -150q133 -136 133 -368q0 -250 -151 -387q-131 -120 -329 -120q-106 0 -187 39q-60 29 -118 102zM655 728q-109 0 -179 -99q-53 -75 -53 -167q0 -115 70 -188q64 -66 156 -66q105 0 172 78
q60 69 60 181q0 103 -55 174q-68 87 -171 87z" />
    <glyph glyph-name="c" unicode="c" horiz-adv-x="970" 
d="M767 304l186 -199q-162 -143 -372 -143q-222 0 -379 150q-143 136 -143 357q0 262 190 411q137 107 329 107q207 0 396 -164l-207 -188q-77 77 -175 77q-101 0 -164 -76q-56 -67 -56 -157q0 -92 57 -161q66 -82 179 -82q74 0 159 68z" />
    <glyph glyph-name="d" unicode="d" horiz-adv-x="1276" 
d="M849 862v503h311v-1365h-311v106q-55 -76 -111 -103q-83 -41 -195 -41q-232 0 -367 154q-116 134 -116 348q0 247 156 390q147 133 331 133q88 0 168 -31q65 -26 134 -94zM624 729q-122 0 -189 -106q-43 -70 -43 -160q0 -115 70 -186q69 -70 163 -70q110 0 173 92
q51 72 51 164q0 111 -62 188q-63 78 -163 78z" />
    <glyph glyph-name="e" unicode="e" horiz-adv-x="1154" 
d="M1100 408h-718q13 -66 52 -105q65 -66 164 -66q70 0 127 37q38 24 60 68l287 -73q-62 -123 -153 -194q-144 -113 -326 -113q-148 0 -277 69q-115 62 -182 169q-74 119 -74 279q0 139 62 258q66 126 187 188q118 62 266 62q139 0 257 -58q148 -73 217 -224
q52 -117 52 -257q0 -12 -1 -40zM783 573q-13 64 -52 101q-61 55 -153 55q-89 0 -146 -54q-40 -38 -53 -102h404z" />
    <glyph glyph-name="f" unicode="f" horiz-adv-x="611" 
d="M448 691v-691h-311v691h-94v258h94v16q0 288 194 366q85 34 227 34v-288q-110 -13 -110 -112v-16h110v-258h-110z" />
    <glyph glyph-name="g" unicode="g" horiz-adv-x="1225" 
d="M804 853v96h304v-845q0 -215 -56 -321q-65 -124 -203 -190q-126 -59 -282 -59q-282 0 -490 196l188 192q118 -130 286 -130q122 0 186 70q67 72 67 195v47q-127 -142 -327 -142q-126 0 -235 67q-220 136 -220 436q0 145 61 272q59 121 174 187q111 63 254 63
q182 0 293 -134zM579 712q-118 0 -182 -90q-43 -60 -43 -143q0 -113 72 -183q61 -60 158 -60q109 0 174 74q41 47 41 138q0 142 -69 206q-63 58 -151 58z" />
    <glyph glyph-name="h" unicode="h" horiz-adv-x="1105" 
d="M427 1365v-503q108 125 245 125q85 0 166 -43q97 -51 131 -138q25 -63 25 -186v-620h-311v569q0 93 -53 136q-30 24 -72 24q-47 0 -83 -30q-48 -39 -48 -130v-569h-311v1365h311z" />
    <glyph glyph-name="i" unicode="i" horiz-adv-x="543" 
d="M427 949v-949h-311v949h311zM273 1388q74 0 120 -50q44 -48 44 -118q0 -76 -57 -125q-43 -38 -108 -38q-76 0 -122 50q-44 48 -44 115q0 79 57 128q43 38 110 38z" />
    <glyph glyph-name="j" unicode="j" horiz-adv-x="543" 
d="M427 949v-949q0 -223 -95 -322q-101 -103 -298 -103q-25 0 -84 4v282q29 -2 45 -2q121 0 121 141v949h311zM273 1388q74 0 120 -50q44 -48 44 -118q0 -76 -57 -125q-43 -38 -108 -38q-76 0 -122 50q-44 48 -44 115q0 79 57 128q43 38 110 38z" />
    <glyph glyph-name="k" unicode="k" horiz-adv-x="999" 
d="M427 380v-380h-311v1365h311v-755l210 339h353l-277 -451l277 -498h-353z" />
    <glyph glyph-name="l" unicode="l" horiz-adv-x="543" 
d="M427 0h-311v1365h311v-1365z" />
    <glyph glyph-name="m" unicode="m" horiz-adv-x="1642" 
d="M116 949h311v-114q36 69 82 101q73 51 174 51q93 0 168 -46q61 -37 92 -106q44 73 100 106q79 46 179 46q140 0 225 -84q57 -57 72 -131q12 -62 12 -146v-626h-311v572q0 61 -22 101q-31 55 -99 55q-61 0 -93 -47q-28 -41 -28 -109v-572h-311v562q0 75 -28 116
q-34 51 -96 51q-59 0 -91 -46q-25 -37 -25 -121v-562h-311v949z" />
    <glyph glyph-name="n" unicode="n" horiz-adv-x="1110" 
d="M116 949h311v-108q43 75 86 103q64 43 157 43q150 0 242 -92q57 -57 72 -132t15 -181v-582h-311v579q0 56 -18 87q-35 63 -111 63q-73 0 -110 -61q-22 -35 -22 -93v-575h-311v949z" />
    <glyph glyph-name="o" unicode="o" horiz-adv-x="1185" 
d="M595 987q246 0 398 -169q132 -146 132 -354q0 -120 -56 -227q-73 -139 -216 -213q-119 -62 -263 -62q-166 0 -301 83q-125 76 -184 210q-45 101 -45 218q0 250 177 396q142 118 358 118zM594 711q-104 0 -167 -71q-56 -63 -56 -166q0 -112 66 -175q65 -62 155 -62
q102 0 170 77q50 56 50 155q0 119 -62 182q-60 60 -156 60z" />
    <glyph glyph-name="p" unicode="p" horiz-adv-x="1279" 
d="M116 949h311v-90q107 128 295 128q139 0 254 -66q244 -140 244 -454q0 -216 -109 -346q-134 -159 -378 -159q-193 0 -306 120v-499h-311v1366zM660 729q-118 0 -186 -97q-47 -68 -47 -169q0 -115 60 -184q61 -72 164 -72q121 0 189 96q48 66 48 157q0 119 -67 196
q-64 73 -161 73z" />
    <glyph glyph-name="q" unicode="q" horiz-adv-x="1276" 
d="M849 949h311v-1366h-311v493q-55 -51 -99 -72q-91 -42 -217 -42q-217 0 -352 151q-121 135 -121 349q0 225 134 372q141 153 366 153q89 0 162 -28q66 -24 127 -94v84zM623 728q-126 0 -190 -108q-41 -68 -41 -152q0 -114 69 -190q65 -71 159 -71q114 0 184 98
q50 71 50 161q0 112 -64 186q-67 76 -167 76z" />
    <glyph glyph-name="r" unicode="r" horiz-adv-x="698" 
d="M116 949h311v-128q31 90 81 125q59 41 139 41q9 0 30 -2v-318q-39 5 -58 5q-109 0 -162 -76q-30 -44 -30 -150v-446h-311v949z" />
    <glyph glyph-name="s" unicode="s" horiz-adv-x="867" 
d="M796 667h-290q1 11 1 19q0 34 -30 58q-24 20 -61 20q-32 0 -52 -18q-21 -18 -21 -46q0 -24 18 -43q20 -21 90 -42q173 -49 253 -106q109 -77 109 -226q0 -156 -122 -246q-101 -75 -263 -75q-210 0 -313 126q-65 80 -69 194h296q7 -44 19 -64q21 -33 68 -33q32 0 50 18
q22 21 22 49q0 22 -13 37q-22 25 -55 38q-34 13 -90 32q-150 49 -221 121q-75 78 -75 192q0 163 130 248q104 67 253 67q215 0 315 -140q49 -70 51 -180z" />
    <glyph glyph-name="t" unicode="t" horiz-adv-x="604" 
d="M441 696v-377q0 -62 76 -62h32v-257h-239q-95 0 -142 51q-38 41 -38 146v499h-97v258h97v235h311v-235h108v-258h-108z" />
    <glyph glyph-name="u" unicode="u" horiz-adv-x="1083" 
d="M669 949h311v-597q0 -149 -50 -225q-109 -165 -386 -165q-220 0 -338 105q-104 92 -104 285v597h311v-575q0 -50 15 -85q15 -34 51 -53q30 -16 65 -16q71 0 106 55q19 30 19 78v596z" />
    <glyph glyph-name="v" unicode="v" horiz-adv-x="978" 
d="M671 949h317l-340 -949h-319l-340 949h321l183 -490z" />
    <glyph glyph-name="w" unicode="w" horiz-adv-x="1527" 
d="M1223 949h315l-299 -949h-331l-142 515l-141 -515h-340l-296 949h315l167 -520l139 520h298l148 -520z" />
    <glyph glyph-name="x" unicode="x" horiz-adv-x="1016" 
d="M519 217l-136 -217h-364l322 470l-348 479h390l136 -206l127 206h376l-329 -479l329 -470h-376z" />
    <glyph glyph-name="y" unicode="y" horiz-adv-x="990" 
d="M482 452l191 497h328l-519 -1371h-333l170 440l-330 931h330z" />
    <glyph glyph-name="z" unicode="z" horiz-adv-x="881" 
d="M504 258h334v-258h-813l353 691h-324v258h802z" />
    <glyph glyph-name="braceleft" unicode="{" 
d="M508 494q54 -34 76 -67q43 -65 43 -185v-180q2 -90 17 -112q22 -33 85 -42q30 -4 99 -4v-295q-133 -3 -182 -3q-156 0 -214 25q-96 41 -124 139q-16 55 -16 133v282q0 95 -29 132t-85 50v272q60 13 86 49q28 39 28 116v290q0 158 74 224q49 44 125 58q48 8 168 8
q50 0 169 -3v-312h-28q-103 0 -136 -25q-30 -23 -35 -70q-1 -16 -2 -60v-169q0 -118 -38 -178q-21 -33 -81 -73z" />
    <glyph glyph-name="bar" unicode="|" 
d="M341 1365h341v-1706h-341v1706z" />
    <glyph glyph-name="braceright" unicode="}" 
d="M516 495q-54 35 -76 68q-43 64 -43 185v180q-2 90 -17 112q-22 33 -85 42q-32 4 -99 4v295q140 3 182 3q155 0 214 -25q95 -41 124 -139q16 -55 16 -134v-281q0 -95 29 -133q29 -36 85 -49v-272q-60 -13 -86 -50q-28 -38 -28 -115v-291q0 -157 -74 -223q-49 -44 -125 -58
q-46 -8 -165 -8q-58 0 -172 3v312q111 0 151 17q36 16 44 56q6 27 6 82v169q0 118 38 178q21 33 81 72z" />
    <glyph glyph-name="asciitilde" unicode="~" horiz-adv-x="1365" 
d="M353 1118l-164 137q36 92 83 159q92 131 228 131q66 0 229 -67q117 -48 151 -48q74 0 138 121l163 -137q-56 -136 -115 -200q-82 -87 -206 -87q-46 0 -100 18q-32 10 -128 51q-102 43 -146 43q-69 0 -133 -121z" />
    <glyph glyph-name="uni00A0" unicode="&#xa0;" horiz-adv-x="614" 
 />
    <glyph glyph-name="exclamdown" unicode="&#xa1;" horiz-adv-x="618" 
d="M158 -417v894h303v-894h-303zM309 981q79 0 127 -52q46 -50 46 -120q0 -83 -59 -134q-45 -39 -115 -39q-78 0 -125 52q-46 50 -46 123q0 79 59 131q45 39 113 39z" />
    <glyph glyph-name="cent" unicode="&#xa2;" 
d="M647 897v-483q67 8 123 53l183 -186q-72 -62 -143 -91q-72 -30 -163 -40v-213h-102v213q-141 20 -238 83q-102 67 -149 153q-61 111 -61 268q0 215 115 349q92 107 238 142q33 9 95 16v145h102v-145q91 -10 159 -40q74 -34 164 -115l-200 -176q-28 29 -48 41
q-26 16 -75 26zM545 897q-54 -15 -76 -36q-79 -71 -79 -201q0 -109 54 -179q25 -32 47 -46q16 -10 54 -21v483z" />
    <glyph glyph-name="sterling" unicode="&#xa3;" 
d="M560 770h265v-137h-201q28 -71 28 -113q0 -56 -45 -125q-13 -19 -46 -64q8 -3 47 -16q21 -6 62 -29q119 -66 179 -66q55 0 117 52v-228q-94 -64 -200 -64q-61 0 -127 30q-47 22 -126 69t-127 47q-63 0 -95 -56q-15 -27 -16 -70h-231q10 160 84 254q73 94 202 109
q43 87 43 131q0 83 -68 139h-239v137h132q-44 56 -60 95q-22 57 -22 128q0 183 131 292q118 100 290 100q130 0 239 -62q144 -82 175 -203q13 -51 15 -125h-274q0 60 -26 98q-41 60 -111 60q-51 0 -93 -38q-41 -38 -41 -100q0 -79 68 -165q19 -24 71 -80z" />
    <glyph glyph-name="currency" unicode="&#xa4;" horiz-adv-x="1473" 
d="M79 221l208 209q-73 128 -73 264q0 126 80 271l-215 213l175 174l218 -217q143 74 266 74q96 0 186 -37q28 -12 74 -35l216 213l173 -173l-209 -209q82 -138 82 -275q0 -121 -74 -263l209 -208l-172 -175l-208 208q-132 -82 -268 -82q-138 0 -287 81l-208 -206zM741 925
q-97 0 -164 -66q-67 -67 -67 -164q0 -95 67 -162t161 -67q95 0 161 67q67 68 67 163q0 97 -67 162q-69 67 -158 67z" />
    <glyph glyph-name="yen" unicode="&#xa5;" 
d="M211 922l-206 443h325l187 -484l189 484h312l-202 -443h162v-150h-231l-76 -170v-15h266v-150h-266v-437h-312v437h-272v150h272v15l-78 170h-235v150h165z" />
    <glyph glyph-name="brokenbar" unicode="&#xa6;" 
d="M341 1365h341v-728h-341v728zM341 314h341v-655h-341v655z" />
    <glyph glyph-name="section" unicode="&#xa7;" 
d="M909 1042h-261q-4 52 -26 83q-38 54 -111 54q-56 0 -91 -34q-34 -33 -34 -76q0 -53 47 -88q42 -32 168 -84q140 -57 192 -90q159 -106 159 -281q0 -218 -221 -326q167 -84 167 -262q0 -140 -98 -238q-112 -110 -299 -110q-229 0 -337 155q-57 82 -63 214h265
q1 -69 34 -108q41 -49 108 -49q58 0 95 40q34 37 34 90q0 71 -61 108q-37 23 -154 65q-125 45 -177 77q-173 103 -173 312q0 154 97 248q54 52 135 72q-180 78 -180 263q0 131 93 219q101 96 285 96q169 0 280 -78q103 -72 122 -209q4 -23 5 -63zM512 671q-78 0 -130 -50
q-53 -49 -53 -120q0 -70 53 -120q52 -49 128 -49q75 0 127 49q53 50 53 120q0 72 -53 120q-53 50 -125 50z" />
    <glyph glyph-name="dieresis" unicode="&#xa8;" 
d="M286 1410q69 0 116 -51q40 -44 40 -109q0 -69 -52 -115q-45 -39 -105 -39q-70 0 -117 51q-40 43 -40 106q0 72 52 118q45 39 106 39zM736 1410q69 0 116 -51q40 -44 40 -109q0 -69 -52 -115q-45 -39 -105 -39q-70 0 -117 51q-40 43 -40 106q0 72 52 118q45 39 106 39z
" />
    <glyph glyph-name="copyright" unicode="&#xa9;" horiz-adv-x="1570" 
d="M1151 607q-10 -126 -84 -212q-99 -117 -280 -117q-190 0 -298 133q-90 111 -90 278q0 176 107 292q109 118 287 118q167 0 269 -110q74 -79 81 -184h-151q-12 46 -48 76q-58 47 -150 47q-102 0 -154 -81q-41 -64 -41 -160q0 -95 40 -158q52 -80 155 -80q101 0 158 59
q36 38 46 99h153zM796 1394q190 0 360 -105q169 -105 259 -283q78 -153 78 -324q0 -200 -104 -371q-104 -170 -281 -262q-152 -78 -322 -78q-198 0 -368 104q-172 104 -264 283q-78 153 -78 323q0 203 105 375q102 169 285 262q150 76 330 76zM793 1251q-235 0 -398 -165
q-164 -166 -164 -404q0 -159 83 -297q82 -137 222 -210q118 -61 250 -61q228 0 390 166q162 167 162 402q0 161 -81 298q-80 135 -220 209q-116 62 -244 62z" />
    <glyph glyph-name="ordfeminine" unicode="&#xaa;" horiz-adv-x="825" 
d="M535 1071v49h209v-574h-209v50q-74 -72 -192 -72q-142 0 -227 101q-69 82 -69 199q0 148 102 240q85 78 211 78q103 0 175 -71zM402 976q-65 0 -102 -49q-31 -43 -31 -98q0 -68 43 -111q37 -36 89 -36q61 0 101 49q36 44 36 100q0 71 -46 113q-36 32 -90 32z" />
    <glyph glyph-name="guillemotleft" unicode="&#xab;" horiz-adv-x="873" 
d="M257 491l192 -333h-192l-189 333l189 343h192zM598 491l193 -333h-192l-190 333l190 343h192z" />
    <glyph glyph-name="logicalnot" unicode="&#xac;" 
d="M625 0v304h-557v297h887v-601h-330z" />
    <glyph glyph-name="uni00AD" unicode="&#xad;" horiz-adv-x="468" 
d="M468 637v-272h-468v272h468z" />
    <glyph glyph-name="registered" unicode="&#xae;" horiz-adv-x="1570" 
d="M486 1084h333q119 0 182 -37q106 -60 106 -185q0 -132 -129 -191q58 -23 85 -68q20 -34 26 -90q2 -11 7 -96q4 -76 20 -119h-189q-13 29 -18 103q-10 141 -39 172q-37 41 -111 41h-75v-316h-198v786zM684 963v-235h92q135 0 135 119q0 116 -124 116h-103zM795 1394
q191 0 361 -105q169 -105 259 -283q78 -154 78 -324q0 -200 -104 -371q-104 -170 -281 -262q-152 -78 -322 -78q-198 0 -368 104q-172 104 -264 283q-78 153 -78 323q0 202 105 375q102 169 285 262q150 76 329 76zM793 1251q-235 0 -398 -165q-164 -166 -164 -404
q0 -236 164 -403q163 -165 390 -165q229 0 391 166t162 402q0 160 -81 298q-79 135 -220 209q-116 62 -244 62z" />
    <glyph glyph-name="macron" unicode="&#xaf;" 
d="M181 1154v176h662v-176h-662z" />
    <glyph glyph-name="degree" unicode="&#xb0;" 
d="M513 1379q139 0 238 -104q88 -93 88 -228q0 -136 -98 -232q-96 -93 -228 -93q-146 0 -244 107q-85 94 -85 221q0 101 56 186q49 73 135 112q67 31 138 31zM509 1251q-74 0 -129 -53q-65 -62 -65 -148q0 -73 48 -130q58 -70 148 -70q77 0 135 56q62 59 62 140
q0 85 -55 142q-60 63 -144 63z" />
    <glyph glyph-name="plusminus" unicode="&#xb1;" 
d="M15 826h414v412h164v-412h415v-158h-415v-394h-164v394h-414v158zM15 191h993v-158h-993v158z" />
    <glyph glyph-name="twosuperior" unicode="&#xb2;" horiz-adv-x="679" 
d="M383 719h209v-173h-562l308 454q65 95 65 134q0 26 -15 43q-21 25 -61 25q-58 0 -77 -47q-9 -25 -10 -79h-191q-1 17 -1 27q0 134 93 213q77 66 198 66q136 0 216 -81q59 -60 59 -149q0 -64 -26 -119q-30 -63 -85 -143z" />
    <glyph glyph-name="threesuperior" unicode="&#xb3;" horiz-adv-x="679" 
d="M292 1197h-215v168h561l-232 -302q73 -11 126 -54q86 -71 86 -195q0 -127 -90 -210q-80 -74 -204 -74q-113 0 -190 61q-84 66 -94 206h189q9 -89 90 -89q44 0 76 33q23 23 23 61q0 41 -23 66q-29 32 -76 32q-37 0 -67 -20l-126 99z" />
    <glyph glyph-name="acute" unicode="&#xb4;" 
d="M543 1387h300l-286 -291h-184z" />
    <glyph glyph-name="mu" unicode="&#xb5;" 
d="M55 -350v1333h286v-506q0 -119 29 -170q51 -87 143 -87q106 0 145 106q25 68 25 157v500h286v-983h-286v127q-55 -146 -175 -146q-105 0 -167 118v-449h-286z" />
    <glyph glyph-name="paragraph" unicode="&#xb6;" 
d="M441 -215v847q-22 -1 -31 -1q-113 0 -198 55q-71 45 -113 125q-44 84 -44 183q0 130 73 229q104 142 345 142h427v-1580h-147v1485h-163v-1485h-149z" />
    <glyph glyph-name="periodcentered" unicode="&#xb7;" horiz-adv-x="563" 
d="M283 681q77 0 125 -52q46 -50 46 -123q0 -80 -59 -131q-45 -39 -113 -39q-79 0 -127 52q-46 50 -46 120q0 82 59 134q45 39 115 39z" />
    <glyph glyph-name="cedilla" unicode="&#xb8;" 
d="M440 -419l-125 103q75 36 121 90q34 39 71 100l203 -89q-59 -72 -112 -114q-59 -46 -158 -90z" />
    <glyph glyph-name="onesuperior" unicode="&#xb9;" horiz-adv-x="679" 
d="M297 1114l-139 -58v182l349 153v-845h-210v568z" />
    <glyph glyph-name="ordmasculine" unicode="&#xba;" horiz-adv-x="770" 
d="M387 1142q157 0 253 -101q84 -88 84 -214q0 -136 -110 -225q-95 -78 -230 -78q-104 0 -190 49q-79 45 -118 127q-29 60 -29 131q0 152 114 241q90 70 226 70zM386 966q-62 0 -98 -40q-32 -35 -32 -93q0 -63 38 -98t91 -35q60 0 100 43q29 31 29 87q0 67 -36 102
q-35 34 -92 34z" />
    <glyph glyph-name="guillemotright" unicode="&#xbb;" horiz-adv-x="873" 
d="M616 501l-193 333h192l190 -333l-190 -343h-192zM275 501l-193 333h192l189 -333l-189 -343h-192z" />
    <glyph glyph-name="onequarter" unicode="&#xbc;" horiz-adv-x="1620" 
d="M297 1114l-139 -58v182l349 153v-845h-210v568zM1296 1338l-884 -1365l-88 56l883 1363zM1297 157h-303v163l265 499h239v-494h68v-168h-68v-157h-201v157zM1308 318v269l-148 -269h148z" />
    <glyph glyph-name="onehalf" unicode="&#xbd;" horiz-adv-x="1620" 
d="M297 1114l-139 -58v182l349 153v-845h-210v568zM1296 1338l-884 -1365l-88 56l883 1363zM1324 173h209v-173h-562l308 454q65 95 65 135q0 26 -15 43q-21 25 -61 25q-58 0 -76 -48q-10 -25 -11 -79h-191q-1 18 -1 27q0 134 93 214q76 66 198 66q136 0 216 -82
q59 -59 59 -148q0 -65 -26 -119q-30 -65 -85 -144z" />
    <glyph glyph-name="threequarters" unicode="&#xbe;" horiz-adv-x="1620" 
d="M292 1197h-215v168h561l-232 -302q73 -11 126 -54q86 -71 86 -195q0 -127 -90 -210q-80 -74 -204 -74q-113 0 -190 61q-84 66 -94 206h189q9 -89 90 -89q44 0 76 33q23 23 23 61q0 41 -23 66q-29 32 -76 32q-37 0 -67 -20l-126 99zM1296 1338l-884 -1365l-88 56l883 1363
zM1297 157h-303v163l265 499h239v-494h68v-168h-68v-157h-201v157zM1308 318v269l-149 -269h149z" />
    <glyph glyph-name="questiondown" unicode="&#xbf;" horiz-adv-x="936" 
d="M351 453h314q3 -54 3 -77q0 -106 -36 -163q-25 -39 -66 -75q-7 -6 -92 -74q-55 -43 -74 -72q-18 -28 -18 -59q0 -44 30 -72q29 -26 78 -26q111 0 115 128h287q-3 -119 -41 -198q-48 -99 -137 -151q-101 -58 -233 -58q-102 0 -192.5 38.5t-145.5 105.5q-76 94 -76 230
q0 123 64 208q40 53 108 103q67 48 81 64q32 36 32 87l-1 28v33zM507 981q79 0 127 -52q46 -50 46 -120q0 -83 -59 -134q-45 -39 -115 -39q-78 0 -125 52q-46 50 -46 123q0 79 59 131q45 39 113 39z" />
    <glyph glyph-name="Agrave" unicode="&#xc0;" horiz-adv-x="1321" 
d="M898 198h-484l-60 -198h-354l451 1365h421l449 -1365h-364zM815 466l-160 508l-159 -508h319zM569 1769l198 -274h-204l-302 274h308z" />
    <glyph glyph-name="Aacute" unicode="&#xc1;" horiz-adv-x="1321" 
d="M898 198h-484l-60 -198h-354l451 1365h421l449 -1365h-364zM815 466l-160 508l-159 -508h319zM752 1769h308l-301 -274h-205z" />
    <glyph glyph-name="Acircumflex" unicode="&#xc2;" horiz-adv-x="1321" 
d="M898 198h-484l-60 -198h-354l451 1365h421l449 -1365h-364zM815 466l-160 508l-159 -508h319zM663 1619l-166 -124h-205l236 274h282l219 -274h-205z" />
    <glyph glyph-name="Atilde" unicode="&#xc3;" horiz-adv-x="1321" 
d="M898 198h-484l-60 -198h-354l451 1365h421l449 -1365h-364zM815 466l-160 508l-159 -508h319zM845 1762h199q-13 -85 -34 -127q-38 -76 -103 -111q-44 -23 -89 -23t-152 35q-91 29 -111 29q-50 0 -51 -63h-200q10 84 31 126q36 71 105 107q47 24 92 24q40 0 126 -31
q101 -36 121 -36q46 0 66 70z" />
    <glyph glyph-name="Adieresis" unicode="&#xc4;" horiz-adv-x="1321" 
d="M898 198h-484l-60 -198h-354l451 1365h421l449 -1365h-364zM815 466l-160 508l-159 -508h319zM437 1813q69 0 116 -51q42 -46 42 -110q0 -70 -55 -118q-44 -39 -104 -39q-71 0 -117 51q-42 46 -42 108q0 71 55 120q43 39 105 39zM881 1813q69 0 116 -51q42 -46 42 -110
q0 -70 -55 -118q-44 -39 -104 -39q-71 0 -117 51q-42 46 -42 108q0 71 55 120q43 39 105 39z" />
    <glyph glyph-name="Aring" unicode="&#xc5;" horiz-adv-x="1321" 
d="M898 198h-484l-60 -198h-354l451 1365h421l449 -1365h-364zM815 466l-160 508l-159 -508h319zM662 1842q87 0 150 -65q51 -53 51 -136q0 -88 -67 -144q-60 -50 -135 -50q-90 0 -152 64q-51 54 -51 134q0 90 67 147q59 50 137 50zM661 1735q-43 0 -70 -32q-23 -26 -23 -58
q0 -39 30 -67q26 -24 63 -24q43 0 69 32q23 26 23 57q0 40 -30 68q-26 24 -62 24z" />
    <glyph glyph-name="AE" unicode="&#xc6;" horiz-adv-x="1779" 
d="M1252 550v-282h438v-268h-770v240h-455l-124 -240h-355l729 1365h975v-268h-438v-279h438v-268h-438zM920 497v613l-320 -613h320z" />
    <glyph glyph-name="Ccedilla" unicode="&#xc7;" horiz-adv-x="1304" 
d="M1070 398l196 -231q-108 -91 -200 -131q-142 -63 -311 -63q-313 0 -500 207q-103 113 -151 270q-34 112 -34 230q0 204 97 379q99 178 274 265q138 68 324 68q177 0 322 -68q90 -42 195 -140l-212 -221q-141 122 -293 122q-172 0 -275 -117q-96 -110 -96 -279
q0 -127 60 -230q49 -84 136 -131q89 -48 195 -48q84 0 158 31q60 26 115 87zM569 -437l-143 107q113 53 162 109q34 40 49 95l289 -79q-55 -73 -126 -124q-92 -66 -231 -108z" />
    <glyph glyph-name="Egrave" unicode="&#xc8;" horiz-adv-x="939" 
d="M400 1097v-279h450v-268h-450v-282h450v-268h-782v1365h782v-268h-450zM417 1769l198 -274h-205l-301 274h308z" />
    <glyph glyph-name="Eacute" unicode="&#xc9;" horiz-adv-x="939" 
d="M400 1097v-279h450v-268h-450v-282h450v-268h-782v1365h782v-268h-450zM533 1769h308l-301 -274h-205z" />
    <glyph glyph-name="Ecircumflex" unicode="&#xca;" horiz-adv-x="939" 
d="M400 1097v-279h450v-268h-450v-282h450v-268h-782v1365h782v-268h-450zM472 1619l-166 -124h-205l236 274h282l219 -274h-205z" />
    <glyph glyph-name="Edieresis" unicode="&#xcb;" horiz-adv-x="939" 
d="M400 1097v-279h450v-268h-450v-282h450v-268h-782v1365h782v-268h-450zM246 1813q69 0 116 -51q42 -46 42 -110q0 -70 -55 -118q-44 -39 -104 -39q-71 0 -117 51q-42 46 -42 108q0 71 55 120q43 39 105 39zM690 1813q69 0 116 -51q42 -46 42 -110q0 -70 -55 -118
q-44 -39 -104 -39q-71 0 -117 51q-42 46 -42 108q0 71 55 120q43 39 105 39z" />
    <glyph glyph-name="Igrave" unicode="&#xcc;" horiz-adv-x="592" 
d="M461 1365v-1365h-332v1365h332zM216 1769l198 -274h-205l-301 274h308z" />
    <glyph glyph-name="Iacute" unicode="&#xcd;" horiz-adv-x="592" 
d="M462 1365v-1365h-332v1365h332zM380 1769h308l-301 -274h-205z" />
    <glyph glyph-name="Icircumflex" unicode="&#xce;" horiz-adv-x="591" 
d="M462 1365v-1365h-332v1365h332zM299 1619l-166 -124h-205l236 274h281l219 -274h-205z" />
    <glyph glyph-name="Idieresis" unicode="&#xcf;" horiz-adv-x="591" 
d="M462 1365v-1365h-332v1365h332zM100 1813q69 0 116 -51q42 -46 42 -110q0 -70 -55 -118q-44 -39 -104 -39q-70 0 -117 51q-42 47 -42 108q0 71 55 120q43 39 105 39zM489 1813q69 0 116 -51q42 -46 42 -110q0 -70 -55 -118q-44 -39 -104 -39q-70 0 -117 51
q-42 47 -42 108q0 71 55 120q43 39 105 39z" />
    <glyph glyph-name="Eth" unicode="&#xd0;" horiz-adv-x="1327" 
d="M130 819v546h400q246 0 385 -69q172 -87 264 -260q79 -150 79 -340q0 -230 -111 -411q-176 -285 -580 -285h-437v561h-123v258h123zM462 819h198v-258h-198v-290h51q163 0 269 91q140 120 140 323q0 128 -64 238q-57 97 -165 142q-82 34 -167 34h-64v-280z" />
    <glyph glyph-name="Ntilde" unicode="&#xd1;" horiz-adv-x="1421" 
d="M462 777v-777h-332v1365h332l498 -767v767h332v-1365h-332zM895 1762h199q-13 -85 -34 -127q-38 -76 -103 -111q-43 -23 -89 -23q-45 0 -152 35q-91 29 -111 29q-50 0 -51 -63h-199q9 84 30 126q37 71 105 107q47 24 93 24q39 0 126 -31q100 -36 121 -36q45 0 65 70z" />
    <glyph glyph-name="Ograve" unicode="&#xd2;" horiz-adv-x="1585" 
d="M809 1393q315 0 524 -227q182 -197 182 -487q0 -180 -93 -346q-103 -183 -284 -279q-154 -81 -337 -81q-194 0 -360 90q-189 102 -288 284q-83 154 -83 330q0 308 229 525q202 191 510 191zM796 1085q-176 0 -291 -131q-97 -111 -97 -274q0 -175 117 -289
q114 -112 269 -112q169 0 284 128q101 111 101 268q0 192 -126 309q-109 101 -257 101zM752 1769l198 -274h-205l-301 274h308z" />
    <glyph glyph-name="Oacute" unicode="&#xd3;" horiz-adv-x="1585" 
d="M809 1393q315 0 524 -227q182 -197 182 -487q0 -180 -93 -346q-103 -183 -284 -279q-154 -81 -337 -81q-194 0 -360 90q-189 102 -288 284q-83 154 -83 330q0 308 229 525q202 191 510 191zM796 1085q-176 0 -291 -131q-97 -111 -97 -274q0 -175 117 -289
q114 -112 269 -112q169 0 284 128q101 111 101 268q0 192 -126 309q-109 101 -257 101zM876 1769h308l-301 -274h-205z" />
    <glyph glyph-name="Ocircumflex" unicode="&#xd4;" horiz-adv-x="1585" 
d="M809 1393q315 0 524 -227q182 -197 182 -487q0 -180 -93 -346q-103 -183 -284 -279q-154 -81 -337 -81q-194 0 -360 90q-189 102 -288 284q-83 154 -83 330q0 308 229 525q202 191 510 191zM796 1085q-176 0 -291 -131q-97 -111 -97 -274q0 -175 117 -289
q114 -112 269 -112q169 0 284 128q101 111 101 268q0 192 -126 309q-109 101 -257 101zM796 1619l-166 -124h-205l235 274h282l219 -274h-205z" />
    <glyph glyph-name="Otilde" unicode="&#xd5;" horiz-adv-x="1585" 
d="M809 1393q315 0 524 -227q182 -197 182 -487q0 -180 -93 -346q-103 -183 -284 -279q-154 -81 -337 -81q-194 0 -360 90q-189 102 -288 284q-83 154 -83 330q0 308 229 525q202 191 510 191zM796 1085q-176 0 -291 -131q-97 -111 -97 -274q0 -175 117 -289
q114 -112 269 -112q169 0 284 128q101 111 101 268q0 192 -126 309q-109 101 -257 101zM977 1762h199q-13 -85 -34 -127q-38 -76 -103 -111q-43 -23 -89 -23q-45 0 -152 35q-91 29 -111 29q-50 0 -51 -63h-199q9 84 30 126q37 71 105 107q47 24 93 24q39 0 126 -31
q100 -36 121 -36q45 0 65 70z" />
    <glyph glyph-name="Odieresis" unicode="&#xd6;" horiz-adv-x="1585" 
d="M809 1393q315 0 524 -227q182 -197 182 -487q0 -180 -93 -346q-103 -183 -284 -279q-154 -81 -337 -81q-194 0 -360 90q-189 102 -288 284q-83 154 -83 330q0 308 229 525q202 191 510 191zM796 1085q-176 0 -291 -131q-97 -111 -97 -274q0 -175 117 -289
q114 -112 269 -112q169 0 284 128q101 111 101 268q0 192 -126 309q-109 101 -257 101zM569 1813q69 0 116 -51q42 -46 42 -110q0 -70 -55 -118q-44 -39 -104 -39q-71 0 -117 51q-42 46 -42 108q0 71 55 120q43 39 105 39zM1013 1813q69 0 116 -51q42 -46 42 -110
q0 -70 -55 -118q-44 -39 -104 -39q-71 0 -117 51q-42 46 -42 108q0 71 55 120q43 39 105 39z" />
    <glyph glyph-name="multiply" unicode="&#xd7;" 
d="M210 1155l300 -303l304 307l116 -116l-307 -304l304 -302l-111 -111l-302 304l-304 -307l-116 116l307 304l-302 300z" />
    <glyph glyph-name="Oslash" unicode="&#xd8;" horiz-adv-x="1582" 
d="M302 155l-143 -130l-75 84l139 128q-76 100 -108 181q-47 117 -47 254q0 222 109 396q100 160 273 247q153 77 331 77q171 0 328 -72q90 -42 164 -113l150 140l74 -88l-142 -132q81 -116 113 -203q45 -123 45 -247q0 -218 -131 -402q-117 -165 -303 -243
q-139 -59 -304 -59q-164 0 -318 75q-84 41 -155 107zM537 371q105 -91 245 -91q154 0 273 107q122 111 122 292q0 123 -66 223zM1033 989q-105 96 -239 96q-172 0 -288 -130q-100 -113 -100 -273q0 -133 58 -222z" />
    <glyph glyph-name="Ugrave" unicode="&#xd9;" horiz-adv-x="1310" 
d="M441 1365v-795q0 -146 46 -211q56 -79 169 -79q84 0 142 48q50 41 64 127q7 44 7 115v795h332v-781q0 -300 -142 -453q-68 -75 -166 -114q-111 -44 -234 -44q-179 0 -317 84q-145 87 -196 241q-37 109 -37 286v781h332zM614 1769l198 -274h-205l-301 274h308z" />
    <glyph glyph-name="Uacute" unicode="&#xda;" horiz-adv-x="1310" 
d="M441 1365v-795q0 -146 46 -211q56 -79 169 -79q84 0 142 48q50 41 64 127q7 44 7 115v795h332v-781q0 -300 -142 -453q-68 -75 -166 -114q-111 -44 -234 -44q-179 0 -317 84q-145 87 -196 241q-37 109 -37 286v781h332zM746 1769h308l-301 -274h-205z" />
    <glyph glyph-name="Ucircumflex" unicode="&#xdb;" horiz-adv-x="1310" 
d="M441 1365v-795q0 -146 46 -211q56 -79 169 -79q84 0 142 48q50 41 64 127q7 44 7 115v795h332v-781q0 -300 -142 -453q-68 -75 -166 -114q-111 -44 -234 -44q-179 0 -317 84q-145 87 -196 241q-37 109 -37 286v781h332zM658 1619l-166 -124h-205l235 274h282l219 -274
h-205z" />
    <glyph glyph-name="Udieresis" unicode="&#xdc;" horiz-adv-x="1310" 
d="M441 1365v-795q0 -146 46 -211q56 -79 169 -79q84 0 142 48q50 41 64 127q7 44 7 115v795h332v-781q0 -300 -142 -453q-68 -75 -166 -114q-111 -44 -234 -44q-179 0 -317 84q-145 87 -196 241q-37 109 -37 286v781h332zM431 1813q69 0 116 -51q42 -46 42 -110
q0 -70 -55 -118q-44 -39 -104 -39q-70 0 -117 51q-42 46 -42 108q0 71 55 120q43 39 105 39zM875 1813q69 0 116 -51q42 -46 42 -110q0 -70 -55 -118q-44 -39 -104 -39q-70 0 -117 51q-42 47 -42 108q0 71 55 120q43 39 105 39z" />
    <glyph glyph-name="Yacute" unicode="&#xdd;" horiz-adv-x="1169" 
d="M754 602v-602h-332v602l-449 763h395l223 -419l217 419h388zM680 1769h308l-301 -274h-205z" />
    <glyph glyph-name="Thorn" unicode="&#xde;" horiz-adv-x="1160" 
d="M462 307v-307h-332v1365h332v-136h138q247 0 381 -122q127 -115 127 -327q0 -128 -54 -236q-64 -131 -196 -189q-108 -48 -239 -48h-157zM462 579h92q72 0 119 23q98 49 98 165q0 105 -77 157q-49 32 -118 32h-114v-377z" />
    <glyph glyph-name="germandbls" unicode="&#xdf;" horiz-adv-x="1125" 
d="M136 691h-85v258h85v100q0 103 65 192q107 147 345 147q168 0 288 -73q68 -41 108 -116q35 -67 35 -144q0 -183 -166 -256q102 -35 166 -113q88 -109 88 -264q0 -185 -94 -313q-94 -127 -280 -127q-90 0 -178 36l47 255q27 -7 46 -7q58 0 99 32q25 19 41 58q17 40 17 80
q0 93 -69 144q-43 31 -134 39v280q115 8 115 106q0 40 -24 71q-34 43 -90 43q-65 0 -97 -55q-17 -30 -17 -115v-949h-311v691z" />
    <glyph glyph-name="agrave" unicode="&#xe0;" horiz-adv-x="1274" 
d="M847 846v103h311v-949h-311v106q-125 -144 -322 -144q-225 0 -358 168q-107 135 -107 330q0 152 71 282q59 109 163 174q114 70 257 70q106 0 190 -49q50 -30 106 -91zM620 728q-112 0 -174 -87q-54 -76 -54 -174q0 -121 74 -196q64 -64 152 -64q104 0 173 87
q61 77 61 177q0 126 -80 201q-61 56 -152 56zM606 1387l170 -291h-184l-286 291h300z" />
    <glyph glyph-name="aacute" unicode="&#xe1;" horiz-adv-x="1274" 
d="M847 846v103h311v-949h-311v106q-125 -144 -322 -144q-225 0 -358 168q-107 135 -107 330q0 152 71 282q59 109 163 174q114 70 257 70q106 0 190 -49q50 -30 106 -91zM620 728q-112 0 -174 -87q-54 -76 -54 -174q0 -121 74 -196q64 -64 152 -64q104 0 173 87
q61 77 61 177q0 126 -80 201q-61 56 -152 56zM703 1387h299l-286 -291h-183z" />
    <glyph glyph-name="acircumflex" unicode="&#xe2;" horiz-adv-x="1274" 
d="M847 846v103h311v-949h-311v106q-125 -144 -322 -144q-225 0 -358 168q-107 135 -107 330q0 152 71 282q59 109 163 174q114 70 257 70q106 0 190 -49q50 -30 106 -91zM620 728q-112 0 -174 -87q-54 -76 -54 -174q0 -121 74 -196q64 -64 152 -64q104 0 173 87
q61 77 61 177q0 126 -80 201q-61 56 -152 56zM659 1236l-140 -140h-205l207 291h286l192 -291h-205z" />
    <glyph glyph-name="atilde" unicode="&#xe3;" horiz-adv-x="1274" 
d="M847 846v103h311v-949h-311v106q-125 -144 -322 -144q-225 0 -358 168q-107 135 -107 330q0 152 71 282q59 109 163 174q114 70 257 70q106 0 190 -49q50 -30 106 -91zM620 728q-112 0 -174 -87q-54 -76 -54 -174q0 -121 74 -196q64 -64 152 -64q104 0 173 87
q61 77 61 177q0 126 -80 201q-61 56 -152 56zM797 1364h198q-11 -89 -48 -150q-65 -107 -173 -107q-53 0 -165 45q-48 19 -59 19q-32 0 -45 -68h-198q13 95 45 151q61 106 176 106q54 0 166 -43q46 -17 61 -17q35 0 42 64z" />
    <glyph glyph-name="adieresis" unicode="&#xe4;" horiz-adv-x="1274" 
d="M847 846v103h311v-949h-311v106q-125 -144 -322 -144q-225 0 -358 168q-107 135 -107 330q0 152 71 282q59 109 163 174q114 70 257 70q106 0 190 -49q50 -30 106 -91zM620 728q-112 0 -174 -87q-54 -76 -54 -174q0 -121 74 -196q64 -64 152 -64q104 0 173 87
q61 77 61 177q0 126 -80 201q-61 56 -152 56zM420 1410q69 0 116 -51q40 -44 40 -109q0 -69 -52 -115q-45 -39 -105 -39q-70 0 -117 51q-40 44 -40 106q0 72 52 118q45 39 106 39zM870 1410q69 0 116 -51q40 -44 40 -109q0 -69 -52 -115q-45 -39 -105 -39q-70 0 -117 51
q-40 44 -40 106q0 72 52 118q45 39 106 39z" />
    <glyph glyph-name="aring" unicode="&#xe5;" horiz-adv-x="1274" 
d="M847 846v103h311v-949h-311v106q-125 -144 -322 -144q-225 0 -358 168q-107 135 -107 330q0 152 71 282q59 109 163 174q114 70 257 70q106 0 190 -49q50 -30 106 -91zM620 728q-112 0 -174 -87q-54 -76 -54 -174q0 -121 74 -196q64 -64 152 -64q104 0 173 87
q61 77 61 177q0 126 -80 201q-61 56 -152 56zM669 1445q88 0 150 -64q51 -54 51 -136q0 -88 -67 -145q-60 -49 -135 -49q-90 0 -152 64q-51 54 -51 133q0 90 67 147q59 50 137 50zM668 1338q-43 0 -70 -31q-23 -27 -23 -59q0 -39 30 -66q26 -24 63 -24q42 0 69 31
q23 27 23 58q0 39 -30 67q-26 24 -62 24z" />
    <glyph glyph-name="ae" unicode="&#xe6;" horiz-adv-x="1954" 
d="M1589 344l286 -83q-61 -115 -135 -180q-136 -119 -300 -119q-91 0 -165 34q-50 23 -105 92v-88h-296v88q-53 -58 -114 -85q-93 -41 -204 -41q-253 0 -386 165q-110 136 -110 337q0 146 65 272q55 108 160 176q116 75 255 75q204 0 334 -127v89h296v-89q53 63 95 87
q69 40 168 40q119 0 223 -61q129 -75 193 -215q52 -113 52 -241q0 -24 -2 -66h-729q13 -54 48 -91q72 -76 185 -76q73 0 123 38q29 21 63 69zM1583 569q-37 159 -200 159q-94 0 -152 -56q-34 -32 -61 -103h413zM632 728q-120 0 -191 -99q-49 -69 -49 -156q0 -126 90 -204
q70 -61 156 -61q113 0 183 93q46 60 46 153q0 127 -69 201q-69 73 -166 73z" />
    <glyph glyph-name="ccedilla" unicode="&#xe7;" horiz-adv-x="970" 
d="M767 304l186 -199q-162 -143 -372 -143q-222 0 -379 150q-143 136 -143 357q0 262 190 411q137 107 329 107q207 0 396 -164l-207 -188q-77 77 -175 77q-101 0 -164 -76q-56 -67 -56 -157q0 -92 57 -161q66 -82 179 -82q74 0 159 68zM444 -419l-125 103q75 36 121 90
q34 39 71 100l203 -89q-59 -72 -112 -114q-59 -46 -158 -90z" />
    <glyph glyph-name="egrave" unicode="&#xe8;" horiz-adv-x="1154" 
d="M1100 408h-718q13 -66 52 -105q65 -66 164 -66q70 0 127 37q38 24 60 68l287 -73q-62 -123 -153 -194q-144 -113 -326 -113q-148 0 -277 69q-115 62 -182 169q-74 119 -74 279q0 139 62 258q66 126 187 188q118 62 266 62q139 0 257 -58q148 -73 217 -224
q52 -117 52 -257q0 -12 -1 -40zM783 573q-13 64 -52 101q-61 55 -153 55q-89 0 -146 -54q-40 -38 -53 -102h404zM530 1387l171 -291h-184l-286 291h299z" />
    <glyph glyph-name="eacute" unicode="&#xe9;" horiz-adv-x="1154" 
d="M1100 408h-718q13 -66 52 -105q65 -66 164 -66q70 0 127 37q38 24 60 68l287 -73q-62 -123 -153 -194q-144 -113 -326 -113q-148 0 -277 69q-115 62 -182 169q-74 119 -74 279q0 139 62 258q66 126 187 188q118 62 266 62q139 0 257 -58q148 -73 217 -224
q52 -117 52 -257q0 -12 -1 -40zM783 573q-13 64 -52 101q-61 55 -153 55q-89 0 -146 -54q-40 -38 -53 -102h404zM631 1387h300l-286 -291h-184z" />
    <glyph glyph-name="ecircumflex" unicode="&#xea;" horiz-adv-x="1154" 
d="M1100 408h-718q13 -66 52 -105q65 -66 164 -66q70 0 127 37q38 24 60 68l287 -73q-62 -123 -153 -194q-144 -113 -326 -113q-148 0 -277 69q-115 62 -182 169q-74 119 -74 279q0 139 62 258q66 126 187 188q118 62 266 62q139 0 257 -58q148 -73 217 -224
q52 -117 52 -257q0 -12 -1 -40zM783 573q-13 64 -52 101q-61 55 -153 55q-89 0 -146 -54q-40 -38 -53 -102h404zM580 1236l-141 -140h-205l208 291h285l192 -291h-204z" />
    <glyph glyph-name="edieresis" unicode="&#xeb;" horiz-adv-x="1154" 
d="M1100 408h-718q13 -66 52 -105q65 -66 164 -66q70 0 127 37q38 24 60 68l287 -73q-62 -123 -153 -194q-144 -113 -326 -113q-148 0 -277 69q-115 62 -182 169q-74 119 -74 279q0 139 62 258q66 126 187 188q118 62 266 62q139 0 257 -58q148 -73 217 -224
q52 -117 52 -257q0 -12 -1 -40zM783 573q-13 64 -52 101q-61 55 -153 55q-89 0 -146 -54q-40 -38 -53 -102h404zM351 1410q69 0 116 -51q40 -44 40 -109q0 -69 -52 -115q-45 -39 -105 -39q-70 0 -117 51q-40 43 -40 106q0 72 52 118q45 39 106 39zM801 1410q69 0 116 -51
q40 -44 40 -109q0 -69 -52 -115q-45 -39 -105 -39q-70 0 -117 51q-40 43 -40 106q0 72 52 118q45 39 106 39z" />
    <glyph glyph-name="igrave" unicode="&#xec;" horiz-adv-x="543" 
d="M427 949v-949h-311v949h311zM206 1387l170 -291h-184l-286 291h300z" />
    <glyph glyph-name="iacute" unicode="&#xed;" horiz-adv-x="543" 
d="M427 949v-949h-311v949h311zM341 1387h300l-286 -291h-184z" />
    <glyph glyph-name="icircumflex" unicode="&#xee;" horiz-adv-x="543" 
d="M427 949v-949h-311v949h311zM274 1236l-140 -140h-205l207 291h286l192 -291h-205z" />
    <glyph glyph-name="idieresis" unicode="&#xef;" horiz-adv-x="543" 
d="M427 949v-949h-311v949h311zM73 1410q69 0 116 -51q40 -44 40 -109q0 -69 -52 -115q-45 -39 -105 -39q-70 0 -117 51q-40 43 -40 106q0 72 52 118q45 39 106 39zM468 1410q69 0 116 -51q40 -44 40 -109q0 -69 -52 -115q-45 -39 -105 -39q-70 0 -117 51q-40 43 -40 106
q0 72 52 118q45 39 106 39z" />
    <glyph glyph-name="eth" unicode="&#xf0;" horiz-adv-x="1186" 
d="M349 1196l143 76q-86 66 -212 100l52 90q159 -29 308 -110l212 114l68 -115l-148 -75q126 -92 199 -211q155 -252 155 -551q0 -286 -177 -430q-149 -122 -358 -122q-143 0 -268 63q-128 65 -198 186q-66 114 -66 261q0 192 113 330q122 150 338 178q40 5 83 5
q74 0 156 -20q-30 79 -61 124q-26 38 -82 97l-196 -106zM592 709q-117 0 -177 -85q-43 -62 -43 -148q0 -117 67 -180q63 -59 151 -59q104 0 171 74q49 54 49 160q0 109 -51 168q-59 70 -167 70z" />
    <glyph glyph-name="ntilde" unicode="&#xf1;" horiz-adv-x="1110" 
d="M116 949h311v-108q43 75 86 103q64 43 157 43q150 0 242 -92q57 -57 72 -132t15 -181v-582h-311v579q0 56 -18 87q-35 63 -111 63q-73 0 -110 -61q-22 -35 -22 -93v-575h-311v949zM715 1364h198q-11 -89 -48 -150q-65 -107 -173 -107q-53 0 -165 45q-48 19 -59 19
q-32 0 -45 -68h-198q13 95 45 151q61 106 176 106q54 0 166 -43q46 -17 61 -17q35 0 42 64z" />
    <glyph glyph-name="ograve" unicode="&#xf2;" horiz-adv-x="1185" 
d="M595 987q246 0 398 -169q132 -146 132 -354q0 -120 -56 -227q-73 -139 -216 -213q-119 -62 -263 -62q-166 0 -301 83q-125 76 -184 210q-45 101 -45 218q0 250 177 396q142 118 358 118zM594 711q-104 0 -167 -71q-56 -63 -56 -166q0 -112 66 -175q65 -62 155 -62
q102 0 170 77q50 56 50 155q0 119 -62 182q-60 60 -156 60zM561 1387l171 -291h-184l-286 291h299z" />
    <glyph glyph-name="oacute" unicode="&#xf3;" horiz-adv-x="1185" 
d="M595 987q246 0 398 -169q132 -146 132 -354q0 -120 -56 -227q-73 -139 -216 -213q-119 -62 -263 -62q-166 0 -301 83q-125 76 -184 210q-45 101 -45 218q0 250 177 396q142 118 358 118zM594 711q-104 0 -167 -71q-56 -63 -56 -166q0 -112 66 -175q65 -62 155 -62
q102 0 170 77q50 56 50 155q0 119 -62 182q-60 60 -156 60zM623 1387h300l-286 -291h-184z" />
    <glyph glyph-name="ocircumflex" unicode="&#xf4;" horiz-adv-x="1185" 
d="M595 987q246 0 398 -169q132 -146 132 -354q0 -120 -56 -227q-73 -139 -216 -213q-119 -62 -263 -62q-166 0 -301 83q-125 76 -184 210q-45 101 -45 218q0 250 177 396q142 118 358 118zM594 711q-104 0 -167 -71q-56 -63 -56 -166q0 -112 66 -175q65 -62 155 -62
q102 0 170 77q50 56 50 155q0 119 -62 182q-60 60 -156 60zM595 1236l-140 -140h-205l207 291h286l192 -291h-205z" />
    <glyph glyph-name="otilde" unicode="&#xf5;" horiz-adv-x="1185" 
d="M595 987q246 0 398 -169q132 -146 132 -354q0 -120 -56 -227q-73 -139 -216 -213q-119 -62 -263 -62q-166 0 -301 83q-125 76 -184 210q-45 101 -45 218q0 250 177 396q142 118 358 118zM594 711q-104 0 -167 -71q-56 -63 -56 -166q0 -112 66 -175q65 -62 155 -62
q102 0 170 77q50 56 50 155q0 119 -62 182q-60 60 -156 60zM752 1364h198q-10 -89 -48 -150q-65 -107 -172 -107q-54 0 -166 45q-47 19 -59 19q-32 0 -45 -68h-198q13 95 46 151q60 106 175 106q54 0 167 -43q45 -17 61 -17q34 0 41 64z" />
    <glyph glyph-name="odieresis" unicode="&#xf6;" horiz-adv-x="1185" 
d="M595 987q246 0 398 -169q132 -146 132 -354q0 -120 -56 -227q-73 -139 -216 -213q-119 -62 -263 -62q-166 0 -301 83q-125 76 -184 210q-45 101 -45 218q0 250 177 396q142 118 358 118zM594 711q-104 0 -167 -71q-56 -63 -56 -166q0 -112 66 -175q65 -62 155 -62
q102 0 170 77q50 56 50 155q0 119 -62 182q-60 60 -156 60zM367 1410q69 0 116 -51q40 -44 40 -109q0 -69 -52 -115q-45 -39 -105 -39q-70 0 -117 51q-40 44 -40 106q0 72 52 118q45 39 106 39zM816 1410q69 0 116 -51q40 -44 40 -109q0 -69 -52 -115q-45 -39 -105 -39
q-70 0 -117 51q-40 43 -40 106q0 72 52 118q45 39 106 39z" />
    <glyph glyph-name="divide" unicode="&#xf7;" 
d="M15 819h993v-158h-993v158zM514 1210q47 0 83 -34q36 -35 36 -86t-37 -87q-35 -34 -83 -34q-49 0 -84 34q-37 36 -37 86q0 53 36 87t86 34zM513 510q51 0 87 -38q32 -34 32 -82q0 -52 -37 -87q-35 -34 -83 -34q-49 0 -84 34q-37 35 -37 87q0 49 32 82q37 38 90 38z" />
    <glyph glyph-name="oslash" unicode="&#xf8;" horiz-adv-x="1186" 
d="M241 77l-109 -97l-67 74l104 97q-109 131 -109 321q0 253 181 398q145 117 344 117q133 0 239 -46q49 -21 117 -69l107 98l65 -73l-101 -96q114 -160 114 -334q0 -133 -69 -251q-72 -124 -197 -190q-118 -64 -264 -64q-195 0 -355 115zM454 278q67 -42 142 -42
q88 0 154 57q73 63 73 180q0 71 -28 127zM729 673q-60 37 -133 37q-68 0 -125.5 -31.5t-82.5 -82.5q-28 -56 -28 -131q0 -54 26 -111z" />
    <glyph glyph-name="ugrave" unicode="&#xf9;" horiz-adv-x="1083" 
d="M669 949h311v-597q0 -149 -50 -225q-109 -165 -386 -165q-220 0 -338 105q-104 92 -104 285v597h311v-575q0 -50 15 -85q15 -34 51 -53q30 -16 65 -16q71 0 106 55q19 30 19 78v596zM522 1387l170 -291h-184l-286 291h300z" />
    <glyph glyph-name="uacute" unicode="&#xfa;" horiz-adv-x="1083" 
d="M669 949h311v-597q0 -149 -50 -225q-109 -165 -386 -165q-220 0 -338 105q-104 92 -104 285v597h311v-575q0 -50 15 -85q15 -34 51 -53q30 -16 65 -16q71 0 106 55q19 30 19 78v596zM595 1387h300l-286 -291h-184z" />
    <glyph glyph-name="ucircumflex" unicode="&#xfb;" horiz-adv-x="1083" 
d="M669 949h311v-597q0 -149 -50 -225q-109 -165 -386 -165q-220 0 -338 105q-104 92 -104 285v597h311v-575q0 -50 15 -85q15 -34 51 -53q30 -16 65 -16q71 0 106 55q19 30 19 78v596zM544 1236l-141 -140h-204l207 291h285l192 -291h-204z" />
    <glyph glyph-name="udieresis" unicode="&#xfc;" horiz-adv-x="1083" 
d="M669 949h311v-597q0 -149 -50 -225q-109 -165 -386 -165q-220 0 -338 105q-104 92 -104 285v597h311v-575q0 -50 15 -85q15 -34 51 -53q30 -16 65 -16q71 0 106 55q19 30 19 78v596zM315 1410q69 0 116 -51q40 -44 40 -109q0 -69 -52 -115q-45 -39 -105 -39
q-70 0 -117 51q-40 43 -40 106q0 72 52 118q45 39 106 39zM765 1410q69 0 116 -51q40 -44 40 -109q0 -69 -52 -115q-45 -39 -105 -39q-70 0 -117 51q-40 43 -40 106q0 72 52 118q45 39 106 39z" />
    <glyph glyph-name="yacute" unicode="&#xfd;" horiz-adv-x="990" 
d="M482 452l191 497h328l-519 -1371h-333l170 440l-330 931h330zM585 1387h299l-286 -291h-184z" />
    <glyph glyph-name="thorn" unicode="&#xfe;" horiz-adv-x="1279" 
d="M116 1365h311v-506q106 128 295 128q139 0 254 -66q244 -140 244 -454q0 -216 -109 -346q-134 -159 -378 -159q-193 0 -306 120v-499h-311v1782zM660 729q-118 0 -186 -97q-47 -68 -47 -169q0 -115 60 -184q61 -72 164 -72q121 0 189 96q48 66 48 157q0 119 -67 196
q-64 73 -161 73z" />
    <glyph glyph-name="ydieresis" unicode="&#xff;" horiz-adv-x="990" 
d="M482 452l191 497h328l-519 -1371h-333l170 440l-330 931h330zM269 1410q69 0 116 -51q40 -44 40 -109q0 -69 -52 -115q-45 -39 -105 -39q-70 0 -117 51q-40 43 -40 106q0 72 52 118q45 39 106 39zM719 1410q69 0 116 -51q40 -44 40 -109q0 -69 -52 -115q-45 -39 -105 -39
q-70 0 -117 51q-40 44 -40 106q0 72 52 118q45 39 106 39z" />
    <glyph glyph-name="Amacron" unicode="&#x100;" horiz-adv-x="1321" 
d="M898 198h-484l-60 -198h-354l451 1365h421l449 -1365h-364zM815 466l-160 508l-159 -508h319zM306 1554v176h710v-176h-710z" />
    <glyph glyph-name="amacron" unicode="&#x101;" horiz-adv-x="1274" 
d="M847 846v103h311v-949h-311v106q-125 -144 -322 -144q-225 0 -358 168q-107 135 -107 330q0 152 71 282q59 109 163 174q114 70 257 70q106 0 190 -49q50 -30 106 -91zM620 728q-112 0 -174 -87q-54 -76 -54 -174q0 -121 74 -196q64 -64 152 -64q104 0 173 87
q61 77 61 177q0 126 -80 201q-61 56 -152 56zM306 1154v176h662v-176h-662z" />
    <glyph glyph-name="Abreve" unicode="&#x102;" horiz-adv-x="1321" 
d="M898 198h-484l-60 -198h-354l451 1365h421l449 -1365h-364zM815 466l-160 508l-159 -508h319zM290 1767h205q24 -39 45 -57q47 -40 121 -40q73 0 120 40q22 19 45 57h205q-29 -92 -77 -147q-109 -125 -293 -125q-185 0 -294 125q-48 55 -77 147z" />
    <glyph glyph-name="abreve" unicode="&#x103;" horiz-adv-x="1274" 
d="M847 846v103h311v-949h-311v106q-125 -144 -322 -144q-225 0 -358 168q-107 135 -107 330q0 152 71 282q59 109 163 174q114 70 257 70q106 0 190 -49q50 -30 106 -91zM620 728q-112 0 -174 -87q-54 -76 -54 -174q0 -121 74 -196q64 -64 152 -64q104 0 173 87
q61 77 61 177q0 126 -80 201q-61 56 -152 56zM804 1381h204q-13 -87 -52 -145q-97 -141 -292 -141t-291 141q-40 58 -53 145h205q11 -44 28 -66q35 -44 111 -44t111 44q17 22 29 66z" />
    <glyph glyph-name="Aogonek" unicode="&#x104;" horiz-adv-x="1355" 
d="M1361 0q-116 -66 -116 -133q0 -44 36 -72q29 -22 65 -22q35 0 97 25v-147q-91 -33 -154 -33q-94 0 -158 53q-64 52 -64 125q0 114 160 204h-215l-88 245h-492l-89 -245h-348l515 1365h339zM847 487l-92 251q-44 119 -74 270q-37 -157 -81 -275l-92 -246h339z" />
    <glyph glyph-name="aogonek" unicode="&#x105;" horiz-adv-x="1146" 
d="M1075 0q-104 -63 -104 -134q0 -39 31 -67q30 -27 71 -27q32 0 88 22v-134q-85 -28 -147 -28q-94 0 -152 46q-61 48 -61 128q0 71 66 134q30 29 76 60h-185q-4 12 -14 33q-6 13 -7 90q-45 -56 -87 -84q-97 -66 -245 -66q-161 0 -253 73q-99 78 -99 226q0 207 204 269
q78 23 283 50q130 16 162 38q28 20 28 70q0 124 -160 124q-101 0 -142 -48q-25 -30 -35 -90h-292q16 329 471 329q238 0 360 -89q81 -59 96 -166q5 -33 5 -96q0 -4 -2 -193l-1 -109l-1 -105q0 -132 16 -190q6 -23 30 -66zM731 476q-37 -25 -69 -35q-29 -9 -142 -26
q-150 -22 -150 -134q0 -60 42 -94q37 -31 102 -31q122 0 181 89q36 54 36 147v84z" />
    <glyph glyph-name="Cacute" unicode="&#x106;" horiz-adv-x="1304" 
d="M1070 398l196 -231q-108 -91 -200 -131q-142 -63 -311 -63q-313 0 -500 207q-103 113 -151 270q-34 112 -34 230q0 204 97 379q99 178 274 265q138 68 324 68q177 0 322 -68q90 -42 195 -140l-212 -221q-141 122 -293 122q-172 0 -275 -117q-96 -110 -96 -279
q0 -127 60 -230q49 -84 136 -131q89 -48 195 -48q84 0 158 31q60 26 115 87zM814 1769h308l-301 -274h-205z" />
    <glyph glyph-name="cacute" unicode="&#x107;" horiz-adv-x="970" 
d="M767 304l186 -199q-162 -143 -372 -143q-222 0 -379 150q-143 136 -143 357q0 262 190 411q137 107 329 107q207 0 396 -164l-207 -188q-77 77 -175 77q-101 0 -164 -76q-56 -67 -56 -157q0 -92 57 -161q66 -82 179 -82q74 0 159 68zM633 1387h299l-286 -291h-184z" />
    <glyph glyph-name="Ccircumflex" unicode="&#x108;" horiz-adv-x="1304" 
d="M1070 398l196 -231q-108 -91 -200 -131q-142 -63 -311 -63q-313 0 -500 207q-103 113 -151 270q-34 112 -34 230q0 204 97 379q99 178 274 265q138 68 324 68q177 0 322 -68q90 -42 195 -140l-212 -221q-141 122 -293 122q-172 0 -275 -117q-96 -110 -96 -279
q0 -127 60 -230q49 -84 136 -131q89 -48 195 -48q84 0 158 31q60 26 115 87zM749 1619l-166 -124h-205l235 274h282l219 -274h-205z" />
    <glyph glyph-name="Cdotaccent" unicode="&#x10a;" horiz-adv-x="1304" 
d="M1070 398l196 -231q-108 -91 -200 -131q-142 -63 -311 -63q-313 0 -500 207q-103 113 -151 270q-34 112 -34 230q0 204 97 379q99 178 274 265q138 68 324 68q177 0 322 -68q90 -42 195 -140l-212 -221q-141 122 -293 122q-172 0 -275 -117q-96 -110 -96 -279
q0 -127 60 -230q49 -84 136 -131q89 -48 195 -48q84 0 158 31q60 26 115 87zM756 1813q69 0 116 -51q42 -46 42 -110q0 -70 -55 -118q-44 -39 -104 -39q-70 0 -117 51q-42 46 -42 108q0 71 55 120q43 39 105 39z" />
    <glyph glyph-name="cdotaccent" unicode="&#x10b;" horiz-adv-x="970" 
d="M767 304l186 -199q-162 -143 -372 -143q-222 0 -379 150q-143 136 -143 357q0 262 190 411q137 107 329 107q207 0 396 -164l-207 -188q-77 77 -175 77q-101 0 -164 -76q-56 -67 -56 -157q0 -92 57 -161q66 -82 179 -82q74 0 159 68zM581 1410q69 0 116 -51
q40 -44 40 -109q0 -69 -52 -115q-45 -39 -105 -39q-70 0 -117 51q-40 43 -40 106q0 72 52 118q45 39 106 39z" />
    <glyph glyph-name="Ccaron" unicode="&#x10c;" horiz-adv-x="1304" 
d="M1070 398l196 -231q-108 -91 -200 -131q-142 -63 -311 -63q-313 0 -500 207q-103 113 -151 270q-34 112 -34 230q0 204 97 379q99 178 274 265q138 68 324 68q177 0 322 -68q90 -42 195 -140l-212 -221q-141 122 -293 122q-172 0 -275 -117q-96 -110 -96 -279
q0 -127 60 -230q49 -84 136 -131q89 -48 195 -48q84 0 158 31q60 26 115 87zM770 1645l166 124h205l-235 -274h-282l-219 274h205z" />
    <glyph glyph-name="ccaron" unicode="&#x10d;" horiz-adv-x="970" 
d="M767 304l186 -199q-162 -143 -372 -143q-222 0 -379 150q-143 136 -143 357q0 262 190 411q137 107 329 107q207 0 396 -164l-207 -188q-77 77 -175 77q-101 0 -164 -76q-56 -67 -56 -157q0 -92 57 -161q66 -82 179 -82q74 0 159 68zM584 1246l140 141h205l-208 -291
h-285l-192 291h205z" />
    <glyph glyph-name="Dcaron" unicode="&#x10e;" horiz-adv-x="1327" 
d="M130 0v1365h399q247 0 386 -69q172 -87 264 -260q79 -150 79 -340q0 -230 -111 -410q-176 -286 -580 -286h-437zM462 1099v-827h51q163 0 269 90q69 60 106 149q34 82 34 174q0 128 -64 238q-57 97 -165 142q-82 34 -167 34h-64zM560 1645l166 124h205l-236 -274h-282
l-219 274h205z" />
    <glyph glyph-name="dcaron" unicode="&#x10f;" horiz-adv-x="1638" 
d="M849 862v503h311v-1365h-311v106q-55 -76 -111 -103q-83 -41 -195 -41q-232 0 -367 154q-116 134 -116 348q0 247 156 390q147 133 331 133q88 0 168 -31q65 -26 134 -94zM624 729q-122 0 -189 -106q-43 -70 -43 -160q0 -115 70 -186q69 -70 163 -70q110 0 173 92
q51 72 51 164q0 111 -62 188q-63 78 -163 78zM1574 1328l-150 -431l-205 49l91 446z" />
    <glyph glyph-name="Dcroat" unicode="&#x110;" horiz-adv-x="1327" 
d="M130 819v546h400q246 0 385 -69q172 -87 264 -260q79 -150 79 -340q0 -230 -111 -411q-176 -285 -580 -285h-437v561h-123v258h123zM462 819h198v-258h-198v-290h51q163 0 269 91q140 120 140 323q0 128 -64 238q-57 97 -165 142q-82 34 -167 34h-64v-280z" />
    <glyph glyph-name="dcroat" unicode="&#x111;" horiz-adv-x="1276" 
d="M849 1268v97h311v-97h109v-227h-109v-1041h-311v106q-55 -76 -111 -103q-83 -41 -195 -41q-232 0 -367 154q-116 134 -116 348q0 245 156 389q146 133 331 133q88 0 168 -31q65 -25 134 -93v179h-191v227h191zM624 728q-122 0 -189 -106q-43 -69 -43 -159q0 -116 70 -186
q69 -70 163 -70q110 0 173 91q51 73 51 164q0 111 -62 188q-63 78 -163 78z" />
    <glyph glyph-name="Emacron" unicode="&#x112;" horiz-adv-x="939" 
d="M400 1097v-279h450v-268h-450v-282h450v-268h-782v1365h782v-268h-450zM104 1554v176h710v-176h-710z" />
    <glyph glyph-name="emacron" unicode="&#x113;" horiz-adv-x="1154" 
d="M1100 408h-718q13 -66 52 -105q65 -66 164 -66q70 0 127 37q38 24 60 68l287 -73q-62 -123 -153 -194q-144 -113 -326 -113q-148 0 -277 69q-115 62 -182 169q-74 119 -74 279q0 139 62 258q66 126 187 188q118 62 266 62q139 0 257 -58q148 -73 217 -224
q52 -117 52 -257q0 -12 -1 -40zM783 573q-13 64 -52 101q-61 55 -153 55q-89 0 -146 -54q-40 -38 -53 -102h404zM246 1154v176h662v-176h-662z" />
    <glyph glyph-name="Ebreve" unicode="&#x114;" horiz-adv-x="939" 
d="M400 1097v-279h450v-268h-450v-282h450v-268h-782v1365h782v-268h-450zM119 1767h205q23 -39 45 -57q47 -40 120 -40q74 0 120 40q22 19 45 57h205q-29 -92 -76 -147q-110 -125 -294 -125t-294 125q-47 55 -76 147z" />
    <glyph glyph-name="ebreve" unicode="&#x115;" horiz-adv-x="1154" 
d="M1100 408h-718q13 -66 52 -105q65 -66 164 -66q70 0 127 37q38 24 60 68l287 -73q-62 -123 -153 -194q-144 -113 -326 -113q-148 0 -277 69q-115 62 -182 169q-74 119 -74 279q0 139 62 258q66 126 187 188q118 62 266 62q139 0 257 -58q148 -73 217 -224
q52 -117 52 -257q0 -12 -1 -40zM783 573q-13 64 -52 101q-61 55 -153 55q-89 0 -146 -54q-40 -38 -53 -102h404zM720 1381h205q-13 -87 -53 -145q-96 -141 -292 -141q-195 0 -291 141q-40 58 -53 145h205q12 -44 28 -66q35 -44 111 -44t111 44q17 22 29 66z" />
    <glyph glyph-name="Edotaccent" unicode="&#x116;" horiz-adv-x="939" 
d="M400 1097v-279h450v-268h-450v-282h450v-268h-782v1365h782v-268h-450zM468 1813q69 0 116 -51q42 -46 42 -110q0 -70 -55 -118q-44 -39 -104 -39q-71 0 -117 51q-42 46 -42 108q0 71 55 120q43 39 105 39z" />
    <glyph glyph-name="edotaccent" unicode="&#x117;" horiz-adv-x="1154" 
d="M1100 408h-718q13 -66 52 -105q65 -66 164 -66q70 0 127 37q38 24 60 68l287 -73q-62 -123 -153 -194q-144 -113 -326 -113q-148 0 -277 69q-115 62 -182 169q-74 119 -74 279q0 139 62 258q66 126 187 188q118 62 266 62q139 0 257 -58q148 -73 217 -224
q52 -117 52 -257q0 -12 -1 -40zM783 573q-13 64 -52 101q-61 55 -153 55q-89 0 -146 -54q-40 -38 -53 -102h404zM596 1410q69 0 116 -51q40 -44 40 -109q0 -69 -52 -115q-45 -39 -105 -39q-70 0 -117 51q-40 43 -40 106q0 72 52 118q45 39 106 39z" />
    <glyph glyph-name="Eogonek" unicode="&#x118;" horiz-adv-x="1296" 
d="M1226 0q-38 -22 -58 -36q-59 -43 -59 -97q0 -42 33 -70q29 -24 68 -24q35 0 97 25l-16 -147q-91 -33 -154 -33q-93 0 -158 53q-64 52 -64 126q0 113 159 203h-953v1365h1087v-273h-746v-255h682v-262h-682v-291h764v-284z" />
    <glyph glyph-name="eogonek" unicode="&#x119;" horiz-adv-x="1154" 
d="M636 -25q-69 -55 -69 -113q0 -37 32 -65q30 -27 71 -27q31 0 88 22v-134q-85 -28 -148 -28q-93 0 -151 45q-61 49 -61 130q0 88 112 172q-128 15 -221 70q-109 66 -171 181q-63 117 -63 258q0 212 129 360q146 168 395 168q256 0 398 -171q124 -150 124 -385v-29h-747
q3 -83 39 -147q62 -108 197 -108q93 0 148 53q25 24 53 80h291q-30 -119 -134 -213q-98 -87 -233 -110q-31 -5 -79 -9zM796 588q-4 75 -30 122q-58 102 -184 102q-125 0 -186 -98q-30 -48 -41 -126h441z" />
    <glyph glyph-name="Ecaron" unicode="&#x11a;" horiz-adv-x="939" 
d="M400 1097v-279h450v-268h-450v-282h450v-268h-782v1365h782v-268h-450zM467 1645l166 124h205l-236 -274h-282l-219 274h205z" />
    <glyph glyph-name="ecaron" unicode="&#x11b;" horiz-adv-x="1154" 
d="M1100 408h-718q13 -66 52 -105q65 -66 164 -66q70 0 127 37q38 24 60 68l287 -73q-62 -123 -153 -194q-144 -113 -326 -113q-148 0 -277 69q-115 62 -182 169q-74 119 -74 279q0 139 62 258q66 126 187 188q118 62 266 62q139 0 257 -58q148 -73 217 -224
q52 -117 52 -257q0 -12 -1 -40zM783 573q-13 64 -52 101q-61 55 -153 55q-89 0 -146 -54q-40 -38 -53 -102h404zM594 1246l140 141h205l-207 -291h-286l-192 291h205z" />
    <glyph glyph-name="Gcircumflex" unicode="&#x11c;" horiz-adv-x="1560" 
d="M812 779h699q1 -45 1 -71q0 -334 -226 -542q-211 -193 -501 -193q-184 0 -343 83q-171 90 -269 248q-103 168 -103 378q0 308 212 514q203 196 499 196q220 0 406 -117q94 -59 169 -152l-251 -196q-127 158 -313 158q-209 0 -315 -168q-71 -112 -71 -239q0 -190 141 -310
q111 -94 259 -94q151 0 259 107q54 52 82 130h-335v268zM783 1619l-166 -124h-205l236 274h282l219 -274h-205z" />
    <glyph glyph-name="gcircumflex" unicode="&#x11d;" horiz-adv-x="1225" 
d="M804 853v96h304v-845q0 -215 -56 -321q-65 -124 -203 -190q-126 -59 -282 -59q-282 0 -490 196l188 192q118 -130 286 -130q122 0 186 70q67 72 67 195v47q-127 -142 -327 -142q-126 0 -235 67q-220 136 -220 436q0 145 61 272q59 121 174 187q111 63 254 63
q182 0 293 -134zM579 712q-118 0 -182 -90q-43 -60 -43 -143q0 -113 72 -183q61 -60 158 -60q109 0 174 74q41 47 41 138q0 142 -69 206q-63 58 -151 58zM615 1236l-141 -140h-204l207 291h285l193 -291h-205z" />
    <glyph glyph-name="Gbreve" unicode="&#x11e;" horiz-adv-x="1560" 
d="M812 779h699q1 -45 1 -71q0 -334 -226 -542q-211 -193 -501 -193q-184 0 -343 83q-171 90 -269 248q-103 168 -103 378q0 308 212 514q203 196 499 196q220 0 406 -117q94 -59 169 -152l-251 -196q-127 158 -313 158q-209 0 -315 -168q-71 -112 -71 -239q0 -190 141 -310
q111 -94 259 -94q151 0 259 107q54 52 82 130h-335v268zM410 1767h205q24 -39 45 -57q47 -40 121 -40q73 0 120 40q22 19 45 57h205q-29 -92 -77 -147q-109 -125 -293 -125q-185 0 -294 125q-48 55 -77 147z" />
    <glyph glyph-name="gbreve" unicode="&#x11f;" horiz-adv-x="1225" 
d="M804 853v96h304v-845q0 -215 -56 -321q-65 -124 -203 -190q-126 -59 -282 -59q-282 0 -490 196l188 192q118 -130 286 -130q122 0 186 70q67 72 67 195v47q-127 -142 -327 -142q-126 0 -235 67q-220 136 -220 436q0 145 61 272q59 121 174 187q111 63 254 63
q182 0 293 -134zM579 712q-118 0 -182 -90q-43 -60 -43 -143q0 -113 72 -183q61 -60 158 -60q109 0 174 74q41 47 41 138q0 142 -69 206q-63 58 -151 58zM752 1381h204q-13 -87 -52 -145q-97 -141 -292 -141t-291 141q-40 58 -53 145h205q11 -44 28 -66q35 -44 111 -44
t111 44q17 22 29 66z" />
    <glyph glyph-name="Gdotaccent" unicode="&#x120;" horiz-adv-x="1560" 
d="M812 779h699q1 -45 1 -71q0 -334 -226 -542q-211 -193 -501 -193q-184 0 -343 83q-171 90 -269 248q-103 168 -103 378q0 308 212 514q203 196 499 196q220 0 406 -117q94 -59 169 -152l-251 -196q-127 158 -313 158q-209 0 -315 -168q-71 -112 -71 -239q0 -190 141 -310
q111 -94 259 -94q151 0 259 107q54 52 82 130h-335v268zM779 1813q69 0 116 -51q42 -46 42 -110q0 -70 -55 -118q-44 -39 -104 -39q-70 0 -117 51q-42 47 -42 108q0 71 55 120q43 39 105 39z" />
    <glyph glyph-name="gdotaccent" unicode="&#x121;" horiz-adv-x="1225" 
d="M804 853v96h304v-845q0 -215 -56 -321q-65 -124 -203 -190q-126 -59 -282 -59q-282 0 -490 196l188 192q118 -130 286 -130q122 0 186 70q67 72 67 195v47q-127 -142 -327 -142q-126 0 -235 67q-220 136 -220 436q0 145 61 272q59 121 174 187q111 63 254 63
q182 0 293 -134zM579 712q-118 0 -182 -90q-43 -60 -43 -143q0 -113 72 -183q61 -60 158 -60q109 0 174 74q41 47 41 138q0 142 -69 206q-63 58 -151 58zM607 1410q69 0 116 -51q40 -44 40 -109q0 -69 -52 -115q-45 -39 -105 -39q-70 0 -117 51q-40 44 -40 106q0 72 52 118
q45 39 106 39z" />
    <glyph glyph-name="Gcommaaccent" unicode="&#x122;" horiz-adv-x="1560" 
d="M812 779h699q1 -45 1 -71q0 -334 -226 -542q-211 -193 -501 -193q-184 0 -343 83q-171 90 -269 248q-103 168 -103 378q0 308 212 514q203 196 499 196q220 0 406 -117q94 -59 169 -152l-251 -196q-127 158 -313 158q-209 0 -315 -168q-71 -112 -71 -239q0 -190 141 -310
q111 -94 259 -94q151 0 259 107q54 52 82 130h-335v268zM918 -86v-132q0 -161 -97 -215q-58 -31 -185 -35v94q78 4 116 21q41 19 47 82h-157v185h276z" />
    <glyph glyph-name="gcommaaccent" unicode="&#x123;" horiz-adv-x="1225" 
d="M804 853v96h304v-845q0 -215 -56 -321q-65 -124 -203 -190q-126 -59 -282 -59q-282 0 -490 196l188 192q118 -130 286 -130q122 0 186 70q67 72 67 195v47q-127 -142 -327 -142q-126 0 -235 67q-220 136 -220 436q0 145 61 272q59 121 174 187q111 63 254 63
q182 0 293 -134zM579 712q-118 0 -182 -90q-43 -60 -43 -143q0 -113 72 -183q61 -60 158 -60q109 0 174 74q41 47 41 138q0 142 -69 206q-63 58 -151 58zM433 1188l149 431l206 -50l-91 -446z" />
    <glyph glyph-name="Hcircumflex" unicode="&#x124;" horiz-adv-x="1372" 
d="M462 539v-539h-332v1365h332v-558h449v558h332v-1365h-332v539h-449zM689 1619l-166 -124h-205l236 274h282l218 -274h-204z" />
    <glyph glyph-name="Hbar" unicode="&#x126;" horiz-adv-x="1431" 
d="M1313 1230h108v-191h-108v-1039h-342v569h-509v-569h-341v1039h-111v191h111v135h341v-135h509v135h342v-135zM462 1039v-212h509v212h-509z" />
    <glyph glyph-name="hbar" unicode="&#x127;" horiz-adv-x="1212" 
d="M427 1251h192v-182h-192v-234q106 180 313 180q193 0 291 -132q44 -60 58 -140q8 -48 8 -123v-620h-311v560q0 105 -36 149q-49 58 -133 58q-101 0 -155 -86q-35 -55 -35 -173v-508h-311v1069h-135v182h135v114h311v-114z" />
    <glyph glyph-name="Imacron" unicode="&#x12a;" horiz-adv-x="591" 
d="M462 1365v-1365h-332v1365h332zM9 1554v176h573v-176h-573z" />
    <glyph glyph-name="imacron" unicode="&#x12b;" horiz-adv-x="543" 
d="M427 949v-949h-311v949h311zM9 1154v176h526v-176h-526z" />
    <glyph glyph-name="ibreve" unicode="&#x12d;" horiz-adv-x="543" 
d="M427 949v-949h-311v949h311zM411 1381h205q-13 -87 -53 -145q-96 -141 -292 -141q-195 0 -291 141q-40 58 -53 145h205q12 -44 28 -66q35 -44 111 -44t111 44q17 22 29 66z" />
    <glyph glyph-name="Iogonek" unicode="&#x12e;" horiz-adv-x="592" 
d="M423 0l-5 -4q-139 -107 -139 -178q0 -27 25 -44q24 -16 67 -16q37 0 77 11l18 -170q-82 -24 -155 -24q-108 0 -176 48q-72 51 -72 135q0 134 159 242h-92v1365h332v-1365h-39z" />
    <glyph glyph-name="iogonek" unicode="&#x12f;" horiz-adv-x="543" 
d="M363 0q-84 -83 -84 -134q0 -58 80 -58q29 0 59 10l14 -134q-61 -18 -121 -18q-87 0 -139 37q-61 43 -61 116q0 99 109 181h-104v949h311v-949h-64zM273 1388q74 0 120 -50q44 -48 44 -118q0 -76 -57 -125q-43 -38 -108 -38q-76 0 -122 50q-44 48 -44 115q0 79 57 128
q43 38 110 38z" />
    <glyph glyph-name="Idotaccent" unicode="&#x130;" horiz-adv-x="592" 
d="M462 1365v-1365h-332v1365h332zM295 1813q69 0 116 -51q42 -46 42 -110q0 -70 -55 -118q-44 -39 -104 -39q-70 0 -117 51q-42 46 -42 108q0 71 55 120q43 39 105 39z" />
    <glyph glyph-name="dotlessi" unicode="&#x131;" horiz-adv-x="543" 
d="M427 949v-949h-311v949h311z" />
    <glyph glyph-name="IJ" unicode="&#x132;" horiz-adv-x="1388" 
d="M462 1365v-1365h-332v1365h332zM1279 1365v-851q0 -186 -35 -275q-46 -118 -170 -191q-103 -61 -297 -72q-35 -2 -117 -3v296q31 -3 47 -3q110 0 170 45q46 35 60 103q10 46 10 156v527h-287v268h619z" />
    <glyph glyph-name="ij" unicode="&#x133;" horiz-adv-x="1086" 
d="M427 949v-949h-311v949h311zM273 1388q74 0 120 -50q44 -48 44 -118q0 -76 -57 -125q-43 -38 -108 -38q-76 0 -122 50q-44 48 -44 115q0 79 57 128q43 38 110 38zM970 949v-949q0 -223 -95 -322q-100 -103 -298 -103q-25 0 -84 4v282q29 -2 45 -2q121 0 121 141v949h311z
M816 1388q74 0 120 -50q44 -48 44 -118q0 -76 -57 -125q-43 -38 -108 -38q-76 0 -122 50q-44 48 -44 115q0 79 57 128q43 38 110 38z" />
    <glyph glyph-name="Kcommaaccent" unicode="&#x136;" horiz-adv-x="1176" 
d="M462 597v-597h-332v1365h332v-576l319 576h382l-382 -649l382 -716h-382zM726 -86v-132q0 -161 -97 -215q-58 -31 -185 -35v94q78 4 116 21q41 19 47 82h-157v185h276z" />
    <glyph glyph-name="kcommaaccent" unicode="&#x137;" horiz-adv-x="999" 
d="M427 380v-380h-311v1365h311v-755l210 339h353l-277 -451l277 -498h-353zM632 -120v-117q0 -90 -25 -140q-39 -78 -164 -99q-30 -6 -85 -11v95q12 2 89 14q57 9 65 87h-146v171h266z" />
    <glyph glyph-name="kgreenlandic" unicode="&#x138;" horiz-adv-x="1131" 
d="M1103 988l-376 -382l430 -606h-370l-263 401l-96 -93v-308h-312v988h312v-359l323 359h352z" />
    <glyph glyph-name="Lacute" unicode="&#x139;" horiz-adv-x="947" 
d="M462 268h444v-268h-776v1365h332v-1097zM397 1769h308l-301 -274h-205z" />
    <glyph glyph-name="lacute" unicode="&#x13a;" horiz-adv-x="543" 
d="M427 0h-311v1365h311v-1365zM363 1769h308l-301 -274h-205z" />
    <glyph glyph-name="Lcommaaccent" unicode="&#x13b;" horiz-adv-x="947" 
d="M462 268h444v-268h-776v1365h332v-1097zM611 -86v-132q0 -161 -97 -215q-58 -31 -185 -35v94q78 4 116 21q41 19 47 82h-157v185h276z" />
    <glyph glyph-name="lcommaaccent" unicode="&#x13c;" horiz-adv-x="543" 
d="M427 0h-311v1365h311v-1365zM404 -120v-117q0 -90 -25 -140q-39 -78 -164 -99q-30 -6 -85 -11v95q13 2 89 14q57 9 65 87h-146v171h266z" />
    <glyph glyph-name="Lcaron" unicode="&#x13d;" horiz-adv-x="947" 
d="M462 268h444v-268h-776v1365h332v-1097zM947 1328l-149 -431l-205 49l90 446z" />
    <glyph glyph-name="lcaron" unicode="&#x13e;" horiz-adv-x="836" 
d="M427 0h-311v1365h311v-1365zM891 1328l-150 -431l-205 49l91 446z" />
    <glyph glyph-name="Ldot" unicode="&#x13f;" horiz-adv-x="947" 
d="M462 268h444v-268h-776v1365h332v-1097zM749 888q83 0 134 -56q49 -53 49 -132q0 -84 -63 -139q-48 -42 -121 -42q-85 0 -136 56q-49 53 -49 129q0 86 63 142q48 42 123 42z" />
    <glyph glyph-name="ldot" unicode="&#x140;" horiz-adv-x="911" 
d="M427 0h-311v1365h311v-1365zM729 888q83 0 134 -56q49 -53 49 -132q0 -84 -63 -139q-48 -42 -121 -42q-85 0 -136 56q-49 53 -49 129q0 86 63 142q48 42 123 42z" />
    <glyph glyph-name="Lslash" unicode="&#x141;" horiz-adv-x="947" 
d="M129 743v622h332v-465l177 119v-282l-177 -115v-354h445v-268h-777v464l-109 -77v282z" />
    <glyph glyph-name="lslash" unicode="&#x142;" horiz-adv-x="570" 
d="M130 740v625h311v-460l102 70v-254l-102 -66v-655h-311v490l-102 -70v254z" />
    <glyph glyph-name="Nacute" unicode="&#x143;" horiz-adv-x="1421" 
d="M462 777v-777h-332v1365h332l498 -767v767h332v-1365h-332zM771 1769h308l-301 -274h-205z" />
    <glyph glyph-name="nacute" unicode="&#x144;" horiz-adv-x="1110" 
d="M116 949h311v-108q43 75 86 103q64 43 157 43q150 0 242 -92q57 -57 72 -132t15 -181v-582h-311v579q0 56 -18 87q-35 63 -111 63q-73 0 -110 -61q-22 -35 -22 -93v-575h-311v949zM586 1387h299l-286 -291h-183z" />
    <glyph glyph-name="Ncommaaccent" unicode="&#x145;" horiz-adv-x="1421" 
d="M462 777v-777h-332v1365h332l498 -767v767h332v-1365h-332zM848 -86v-132q0 -162 -97 -215q-58 -31 -185 -35v94q78 4 116 21q41 19 47 82h-157v185h276z" />
    <glyph glyph-name="ncommaaccent" unicode="&#x146;" horiz-adv-x="1110" 
d="M116 949h311v-108q43 75 86 103q64 43 157 43q150 0 242 -92q57 -57 72 -132t15 -181v-582h-311v579q0 56 -18 87q-35 63 -111 63q-73 0 -110 -61q-22 -35 -22 -93v-575h-311v949zM687 -120v-117q0 -90 -25 -140q-39 -78 -164 -99q-30 -5 -84 -11v95q13 2 88 14
q57 9 66 87h-147v171h266z" />
    <glyph glyph-name="Ncaron" unicode="&#x147;" horiz-adv-x="1421" 
d="M462 777v-777h-332v1365h332l498 -767v767h332v-1365h-332zM708 1645l166 124h205l-236 -274h-281l-219 274h205z" />
    <glyph glyph-name="ncaron" unicode="&#x148;" horiz-adv-x="1110" 
d="M116 949h311v-108q43 75 86 103q64 43 157 43q150 0 242 -92q57 -57 72 -132t15 -181v-582h-311v579q0 56 -18 87q-35 63 -111 63q-73 0 -110 -61q-22 -35 -22 -93v-575h-311v949zM552 1246l141 141h204l-207 -291h-285l-192 291h204z" />
    <glyph glyph-name="napostrophe" unicode="&#x149;" horiz-adv-x="1608" 
d="M434 1328l-150 -431l-205 49l91 446zM614 949h311v-108q43 75 86 103q64 43 157 43q150 0 242 -92q57 -57 72 -132t15 -181v-582h-311v579q0 56 -18 87q-36 63 -111 63q-72 0 -110 -61q-22 -35 -22 -93v-575h-311v949z" />
    <glyph glyph-name="Eng" unicode="&#x14a;" horiz-adv-x="1352" 
d="M121 1359h321v-197q58 98 104 139q106 94 274 94q186 0 303 -116q71 -71 95 -177q14 -64 14 -170v-1159q0 -88 -41 -122q-38 -31 -153 -31h-305v187h32q98 0 116 59q10 33 10 235v752q0 120 -40 174q-55 74 -159 74q-85 0 -149 -59q-51 -47 -67 -115q-14 -62 -14 -148
v-779h-341v1359z" />
    <glyph glyph-name="eng" unicode="&#x14b;" horiz-adv-x="1220" 
d="M116 982h287v-160q48 79 93 116q93 77 241 77q189 0 288 -116q58 -68 72 -161q8 -58 8 -128v-819q0 -61 -15 -88q-26 -45 -91 -52q-23 -3 -75 -3h-277v141h29q58 0 82 16q34 23 34 83v659q0 70 -8 97q-17 58 -66 87q-41 24 -96 24q-77 0 -133 -47q-68 -57 -68 -216v-492
h-305v982z" />
    <glyph glyph-name="Omacron" unicode="&#x14c;" horiz-adv-x="1585" 
d="M809 1393q315 0 524 -227q182 -197 182 -487q0 -180 -93 -346q-103 -183 -284 -279q-154 -81 -337 -81q-194 0 -360 90q-189 102 -288 284q-83 154 -83 330q0 308 229 525q202 191 510 191zM796 1085q-176 0 -291 -131q-97 -111 -97 -274q0 -175 117 -289
q114 -112 269 -112q169 0 284 128q101 111 101 268q0 192 -126 309q-109 101 -257 101zM438 1554v176h710v-176h-710z" />
    <glyph glyph-name="omacron" unicode="&#x14d;" horiz-adv-x="1185" 
d="M595 987q246 0 398 -169q132 -146 132 -354q0 -120 -56 -227q-73 -139 -216 -213q-119 -62 -263 -62q-166 0 -301 83q-125 76 -184 210q-45 101 -45 218q0 250 177 396q142 118 358 118zM594 711q-104 0 -167 -71q-56 -63 -56 -166q0 -112 66 -175q65 -62 155 -62
q102 0 170 77q50 56 50 155q0 119 -62 182q-60 60 -156 60zM261 1154v176h662v-176h-662z" />
    <glyph glyph-name="Ohungarumlaut" unicode="&#x150;" horiz-adv-x="1585" 
d="M809 1393q315 0 524 -227q182 -197 182 -487q0 -180 -93 -346q-103 -183 -284 -279q-154 -81 -337 -81q-194 0 -360 90q-189 102 -288 284q-83 154 -83 330q0 308 229 525q202 191 510 191zM796 1085q-176 0 -291 -131q-97 -111 -97 -274q0 -175 117 -289
q114 -112 269 -112q169 0 284 128q101 111 101 268q0 192 -126 309q-109 101 -257 101zM683 1766h267l-268 -271h-174zM1063 1766h267l-267 -271h-175z" />
    <glyph glyph-name="ohungarumlaut" unicode="&#x151;" horiz-adv-x="1185" 
d="M595 987q246 0 398 -169q132 -146 132 -354q0 -120 -56 -227q-73 -139 -216 -213q-119 -62 -263 -62q-166 0 -301 83q-125 76 -184 210q-45 101 -45 218q0 250 177 396q142 118 358 118zM594 711q-104 0 -167 -71q-56 -63 -56 -166q0 -112 66 -175q65 -62 155 -62
q102 0 170 77q50 56 50 155q0 119 -62 182q-60 60 -156 60zM447 1381h261l-250 -285h-158zM829 1381h260l-250 -285h-158z" />
    <glyph glyph-name="OE" unicode="&#x152;" horiz-adv-x="2057" 
d="M1532 550v-282h437v-268h-763v125q-153 -152 -423 -152q-310 0 -515 215q-193 203 -193 498q0 206 100 372q97 162 265 251q156 83 340 83q143 0 269 -51q77 -31 157 -97v121h763v-268h-437v-279h437v-268h-437zM822 1085q-196 0 -318 -146q-93 -112 -93 -261
q0 -187 136 -305q108 -93 261 -93q202 0 319 151q91 118 91 258q0 169 -113 281q-116 115 -283 115z" />
    <glyph glyph-name="oe" unicode="&#x153;" horiz-adv-x="1843" 
d="M1545 337l256 -81q-56 -108 -135 -173q-147 -121 -340 -121q-145 0 -261 60q-54 28 -117 85q-60 -58 -140 -94q-116 -51 -226 -51q-142 0 -263 62q-122 62 -190 180q-69 120 -69 272q0 240 161 382q145 129 363 129q232 0 364 -140q148 140 366 140q237 0 378 -155
q107 -118 129 -309q4 -42 5 -123h-710q8 -66 52 -106q64 -58 161 -58q141 0 216 101zM1525 565q-14 59 -47 95q-61 68 -162 68q-162 0 -212 -163h421zM593 712q-102 0 -169 -80q-52 -62 -52 -151q0 -107 69 -178q65 -67 153 -67q93 0 159 71q57 61 57 152q0 135 -92 210
q-53 43 -125 43z" />
    <glyph glyph-name="Racute" unicode="&#x154;" horiz-adv-x="1220" 
d="M462 528v-528h-332v1365h443q268 0 402 -103q56 -43 88 -103q59 -108 59 -241q0 -313 -266 -415l302 -503h-397zM462 715h106q92 0 146 39q71 51 71 148q0 81 -49 133q-52 57 -146 57h-128v-377zM600 1769h308l-301 -274h-205z" />
    <glyph glyph-name="racute" unicode="&#x155;" horiz-adv-x="698" 
d="M116 949h311v-128q31 90 81 125q59 41 139 41q9 0 30 -2v-318q-39 5 -58 5q-109 0 -162 -76q-30 -44 -30 -150v-446h-311v949zM458 1387h299l-286 -291h-184z" />
    <glyph glyph-name="Rcommaaccent" unicode="&#x156;" horiz-adv-x="1220" 
d="M462 528v-528h-332v1365h443q268 0 402 -103q56 -43 88 -103q59 -108 59 -241q0 -313 -266 -415l302 -503h-397zM462 715h106q92 0 146 39q71 51 71 148q0 81 -49 133q-52 57 -146 57h-128v-377zM748 -86v-132q0 -162 -97 -215q-58 -31 -186 -35v94q79 4 117 21
q41 19 47 82h-157v185h276z" />
    <glyph glyph-name="rcommaaccent" unicode="&#x157;" horiz-adv-x="698" 
d="M116 949h311v-128q31 90 81 125q59 41 139 41q9 0 30 -2v-318q-39 5 -58 5q-109 0 -162 -76q-30 -44 -30 -150v-446h-311v949zM408 -120v-117q0 -91 -25 -140q-39 -78 -164 -99q-30 -6 -85 -11v95q13 2 88 14q58 9 66 87h-146v171h266z" />
    <glyph glyph-name="Rcaron" unicode="&#x158;" horiz-adv-x="1220" 
d="M462 528v-528h-332v1365h443q268 0 402 -103q56 -43 88 -103q59 -108 59 -241q0 -313 -266 -415l302 -503h-397zM462 715h106q92 0 146 39q71 51 71 148q0 81 -49 133q-52 57 -146 57h-128v-377zM549 1645l166 124h205l-236 -274h-282l-218 274h204z" />
    <glyph glyph-name="rcaron" unicode="&#x159;" horiz-adv-x="698" 
d="M116 949h311v-128q31 90 81 125q59 41 139 41q9 0 30 -2v-318q-39 5 -58 5q-109 0 -162 -76q-30 -44 -30 -150v-446h-311v949zM389 1246l140 141h205l-207 -291h-286l-192 291h205z" />
    <glyph glyph-name="Sacute" unicode="&#x15a;" horiz-adv-x="1098" 
d="M55 414h325q-1 -14 -1 -23q0 -42 30 -73q52 -52 132 -52q66 0 108 38q33 30 33 71q0 52 -55 87q-35 24 -142 61q-196 71 -298 159q-119 102 -119 283q0 200 136 315q133 112 337 112q198 0 328 -107q131 -108 160 -323h-338q-15 137 -152 137q-73 0 -108 -38
q-28 -30 -28 -70q0 -61 63 -99q31 -19 156 -67q210 -78 293 -154q115 -105 115 -274q0 -224 -174 -338q-132 -86 -315 -86q-214 0 -344 109q-142 121 -142 332zM617 1769h308l-301 -274h-205z" />
    <glyph glyph-name="sacute" unicode="&#x15b;" horiz-adv-x="867" 
d="M796 667h-290q1 11 1 19q0 34 -30 58q-24 20 -61 20q-32 0 -52 -18q-21 -18 -21 -46q0 -24 18 -43q20 -21 90 -42q173 -49 253 -106q109 -77 109 -226q0 -156 -122 -246q-101 -75 -263 -75q-210 0 -313 126q-65 80 -69 194h296q7 -44 19 -64q21 -33 68 -33q32 0 50 18
q22 21 22 49q0 22 -13 37q-22 25 -55 38q-34 13 -90 32q-150 49 -221 121q-75 78 -75 192q0 163 130 248q104 67 253 67q215 0 315 -140q49 -70 51 -180zM499 1387h299l-285 -291h-184z" />
    <glyph glyph-name="Scircumflex" unicode="&#x15c;" horiz-adv-x="1098" 
d="M55 414h325q-1 -14 -1 -23q0 -42 30 -73q52 -52 132 -52q66 0 108 38q33 30 33 71q0 52 -55 87q-35 24 -142 61q-196 71 -298 159q-119 102 -119 283q0 200 136 315q133 112 337 112q198 0 328 -107q131 -108 160 -323h-338q-15 137 -152 137q-73 0 -108 -38
q-28 -30 -28 -70q0 -61 63 -99q31 -19 156 -67q210 -78 293 -154q115 -105 115 -274q0 -224 -174 -338q-132 -86 -315 -86q-214 0 -344 109q-142 121 -142 332zM552 1619l-166 -124h-205l236 274h281l219 -274h-204z" />
    <glyph glyph-name="scircumflex" unicode="&#x15d;" horiz-adv-x="867" 
d="M796 667h-290q1 11 1 19q0 34 -30 58q-24 20 -61 20q-32 0 -52 -18q-21 -18 -21 -46q0 -24 18 -43q20 -21 90 -42q173 -49 253 -106q109 -77 109 -226q0 -156 -122 -246q-101 -75 -263 -75q-210 0 -313 126q-65 80 -69 194h296q7 -44 19 -64q21 -33 68 -33q32 0 50 18
q22 21 22 49q0 22 -13 37q-22 25 -55 38q-34 13 -90 32q-150 49 -221 121q-75 78 -75 192q0 163 130 248q104 67 253 67q215 0 315 -140q49 -70 51 -180zM436 1236l-141 -140h-204l207 291h285l192 -291h-204z" />
    <glyph glyph-name="Scedilla" unicode="&#x15e;" horiz-adv-x="1271" 
d="M667 -30l-53 -85q69 12 95 12q86 0 138 -42q57 -45 57 -120q0 -95 -89 -153q-67 -44 -175 -44q-135 0 -281 58l43 92q116 -46 201 -46q53 0 81 25q27 24 27 60q0 42 -36 63q-24 14 -63 14q-37 0 -94 -18l-52 46l90 142q-239 24 -367 139q-143 128 -145 346h343
q4 -64 16 -96q50 -135 251 -135q112 0 173 50q54 44 54 112q0 56 -43 87q-43 30 -263 95q-194 56 -271 90q-209 93 -209 321q0 207 177 321q142 91 356 91q179 0 313 -63q224 -105 229 -374h-323q-2 74 -46 119q-59 60 -184 60q-78 0 -129 -27q-64 -35 -64 -102
q0 -64 53 -91q38 -20 255 -78q231 -62 318 -115q170 -104 170 -306q0 -181 -119 -297q-144 -140 -434 -151z" />
    <glyph glyph-name="scedilla" unicode="&#x15f;" horiz-adv-x="1032" 
d="M538 -27l-50 -80q56 10 88 10q76 0 126 -37q55 -41 55 -110q0 -91 -81 -142q-67 -42 -163 -42q-130 0 -260 53l38 84q110 -41 189 -41q42 0 67 17q33 23 33 63q0 36 -30 58q-23 16 -60 16q-34 0 -88 -19l-49 42l84 131q-141 10 -245 70q-148 85 -162 285h295
q5 -65 31 -100q46 -60 159 -60q80 0 120 32q41 32 41 81q0 39 -24 60q-24 20 -63 31q-55 15 -132 31q-203 43 -283 89q-120 68 -120 217q0 151 125 230q113 72 325 72q266 0 380 -126q61 -67 69 -190h-283q-7 52 -28 80q-37 49 -142 49q-141 0 -141 -92q0 -33 20 -53
q21 -21 54 -30q60 -18 166 -38q179 -34 266 -85q116 -68 116 -223q0 -202 -210 -290q-90 -38 -233 -43z" />
    <glyph glyph-name="Scaron" unicode="&#x160;" horiz-adv-x="1098" 
d="M55 414h325q-1 -14 -1 -23q0 -42 30 -73q52 -52 132 -52q66 0 108 38q33 30 33 71q0 52 -55 87q-35 24 -142 61q-196 71 -298 159q-119 102 -119 283q0 200 136 315q133 112 337 112q198 0 328 -107q131 -108 160 -323h-338q-15 137 -152 137q-73 0 -108 -38
q-28 -30 -28 -70q0 -61 63 -99q31 -19 156 -67q210 -78 293 -154q115 -105 115 -274q0 -224 -174 -338q-132 -86 -315 -86q-214 0 -344 109q-142 121 -142 332zM546 1645l167 124h204l-235 -274h-282l-219 274h205z" />
    <glyph glyph-name="scaron" unicode="&#x161;" horiz-adv-x="867" 
d="M796 667h-290q1 11 1 19q0 34 -30 58q-24 20 -61 20q-32 0 -52 -18q-21 -18 -21 -46q0 -24 18 -43q20 -21 90 -42q173 -49 253 -106q109 -77 109 -226q0 -156 -122 -246q-101 -75 -263 -75q-210 0 -313 126q-65 80 -69 194h296q7 -44 19 -64q21 -33 68 -33q32 0 50 18
q22 21 22 49q0 22 -13 37q-22 25 -55 38q-34 13 -90 32q-150 49 -221 121q-75 78 -75 192q0 163 130 248q104 67 253 67q215 0 315 -140q49 -70 51 -180zM430 1246l141 141h204l-207 -291h-285l-192 291h204z" />
    <glyph glyph-name="Tcommaaccent" unicode="&#x162;" horiz-adv-x="961" 
d="M647 1097v-1097h-332v1097h-315v268h961v-268h-314zM618 -86v-132q0 -162 -97 -215q-58 -31 -185 -35v94q78 4 116 21q41 19 47 82h-157v185h276z" />
    <glyph glyph-name="tcommaaccent" unicode="&#x163;" horiz-adv-x="604" 
d="M441 696v-377q0 -62 76 -62h32v-257h-239q-95 0 -142 51q-38 41 -38 146v499h-97v258h97v235h311v-235h108v-258h-108zM466 -120v-117q0 -90 -25 -140q-39 -78 -164 -99q-30 -6 -85 -11v95q13 2 89 14q57 9 65 87h-146v171h266z" />
    <glyph glyph-name="Tcaron" unicode="&#x164;" horiz-adv-x="961" 
d="M647 1097v-1097h-332v1097h-315v268h961v-268h-314zM478 1645l166 124h205l-236 -274h-282l-219 274h205z" />
    <glyph glyph-name="tcaron" unicode="&#x165;" horiz-adv-x="843" 
d="M441 696v-377q0 -62 76 -62h32v-257h-239q-95 0 -142 51q-38 41 -38 146v499h-97v258h97v235h311v-235h108v-258h-108zM898 1531l-150 -431l-205 50l91 446z" />
    <glyph glyph-name="Tbar" unicode="&#x166;" horiz-adv-x="1193" 
d="M767 872h324v-233h-324v-639h-341v639h-325v233h325v205h-406v288h1152v-288h-405v-205z" />
    <glyph glyph-name="tbar" unicode="&#x167;" horiz-adv-x="747" 
d="M505 679h149v-182h-149v-129q0 -86 17 -111q26 -38 109 -38q32 0 81 4v-227q-97 -8 -174 -8q-133 0 -200 28q-99 41 -130 144q-14 47 -14 152v185h-127v182h127v113h-168v196h168v306h311v-306h207v-196h-207v-113z" />
    <glyph glyph-name="utilde" unicode="&#x169;" horiz-adv-x="1083" 
d="M669 949h311v-597q0 -149 -50 -225q-109 -165 -386 -165q-220 0 -338 105q-104 92 -104 285v597h311v-575q0 -50 15 -85q15 -34 51 -53q30 -16 65 -16q71 0 106 55q19 30 19 78v596zM701 1364h198q-11 -89 -48 -150q-65 -107 -173 -107q-53 0 -165 45q-48 19 -59 19
q-32 0 -45 -68h-198q13 95 45 151q61 106 176 106q54 0 166 -43q46 -17 61 -17q35 0 42 64z" />
    <glyph glyph-name="Umacron" unicode="&#x16a;" horiz-adv-x="1310" 
d="M441 1365v-795q0 -146 46 -211q56 -79 169 -79q84 0 142 48q50 41 64 127q7 44 7 115v795h332v-781q0 -300 -142 -453q-68 -75 -166 -114q-111 -44 -234 -44q-179 0 -317 84q-145 87 -196 241q-37 109 -37 286v781h332zM300 1554v176h710v-176h-710z" />
    <glyph glyph-name="umacron" unicode="&#x16b;" horiz-adv-x="1083" 
d="M669 949h311v-597q0 -149 -50 -225q-109 -165 -386 -165q-220 0 -338 105q-104 92 -104 285v597h311v-575q0 -50 15 -85q15 -34 51 -53q30 -16 65 -16q71 0 106 55q19 30 19 78v596zM210 1154v176h662v-176h-662z" />
    <glyph glyph-name="ubreve" unicode="&#x16d;" horiz-adv-x="1083" 
d="M669 949h311v-597q0 -149 -50 -225q-109 -165 -386 -165q-220 0 -338 105q-104 92 -104 285v597h311v-575q0 -50 15 -85q15 -34 51 -53q30 -16 65 -16q71 0 106 55q19 30 19 78v596zM680 1381h205q-13 -87 -53 -145q-96 -141 -291 -141t-292 141q-39 58 -52 145h204
q12 -44 29 -66q35 -44 111 -44t111 44q17 22 28 66z" />
    <glyph glyph-name="Uring" unicode="&#x16e;" horiz-adv-x="1310" 
d="M441 1365v-795q0 -146 46 -211q56 -79 169 -79q84 0 142 48q50 41 64 127q7 44 7 115v795h332v-781q0 -300 -142 -453q-68 -75 -166 -114q-111 -44 -234 -44q-179 0 -317 84q-145 87 -196 241q-37 109 -37 286v781h332zM656 1842q87 0 150 -65q51 -53 51 -136
q0 -88 -67 -144q-59 -50 -135 -50q-90 0 -152 64q-51 54 -51 134q0 90 67 147q59 50 137 50zM655 1735q-43 0 -70 -32q-23 -26 -23 -58q0 -39 30 -67q26 -24 63 -24q43 0 70 32q22 26 22 57q0 40 -30 68q-26 24 -62 24z" />
    <glyph glyph-name="uring" unicode="&#x16f;" horiz-adv-x="1083" 
d="M669 949h311v-597q0 -149 -50 -225q-109 -165 -386 -165q-220 0 -338 105q-104 92 -104 285v597h311v-575q0 -50 15 -85q15 -34 51 -53q30 -16 65 -16q71 0 106 55q19 30 19 78v596zM543 1445q87 0 150 -64q51 -54 51 -136q0 -88 -68 -145q-59 -49 -135 -49
q-90 0 -152 64q-51 54 -51 133q0 90 68 147q58 50 137 50zM542 1338q-44 0 -71 -31q-23 -27 -23 -59q0 -39 30 -66q26 -24 63 -24q43 0 70 31q23 27 23 58q0 39 -30 67q-26 24 -62 24z" />
    <glyph glyph-name="Uhungarumlaut" unicode="&#x170;" horiz-adv-x="1310" 
d="M441 1365v-795q0 -146 46 -211q56 -79 169 -79q84 0 142 48q50 41 64 127q7 44 7 115v795h332v-781q0 -300 -142 -453q-68 -75 -166 -114q-111 -44 -234 -44q-179 0 -317 84q-145 87 -196 241q-37 109 -37 286v781h332zM541 1766h267l-267 -271h-175zM921 1766h267
l-267 -271h-175z" />
    <glyph glyph-name="uhungarumlaut" unicode="&#x171;" horiz-adv-x="1083" 
d="M669 949h311v-597q0 -149 -50 -225q-109 -165 -386 -165q-220 0 -338 105q-104 92 -104 285v597h311v-575q0 -50 15 -85q15 -34 51 -53q30 -16 65 -16q71 0 106 55q19 30 19 78v596zM396 1381h261l-250 -285h-158zM777 1381h261l-250 -285h-158z" />
    <glyph glyph-name="Uogonek" unicode="&#x172;" horiz-adv-x="1310" 
d="M979 62l-48 -38q-75 -60 -97 -79q-77 -69 -77 -127q0 -60 93 -60q36 0 77 11l18 -170q-83 -24 -156 -24q-108 0 -176 48q-72 51 -72 135q0 119 121 215q-210 -1 -358 108q-114 85 -158 217q-37 109 -37 286v781h332v-795q0 -146 46 -211q56 -79 169 -79q84 0 142 48
q50 41 64 127q7 44 7 115v795h332v-781q0 -375 -222 -522z" />
    <glyph glyph-name="uogonek" unicode="&#x173;" horiz-adv-x="1083" 
d="M869 61q-66 -68 -86 -91q-57 -62 -57 -104q0 -58 80 -58q30 0 60 10l14 -134q-61 -18 -121 -18q-88 0 -139 37q-61 43 -61 116q0 74 71 149q-54 -6 -92 -6q-212 0 -332 105q-104 91 -104 285v597h311v-575q0 -50 15 -85q15 -34 51 -53q30 -16 65 -16q71 0 106 55
q19 30 19 78v596h311v-597q0 -164 -65 -245q-20 -24 -46 -46z" />
    <glyph glyph-name="Wcircumflex" unicode="&#x174;" horiz-adv-x="1751" 
d="M1220 571l184 794h347l-364 -1365h-344l-175 808l-173 -808h-342l-353 1365h353l175 -775l182 775h333zM878 1619l-166 -124h-205l236 274h282l219 -274h-205z" />
    <glyph glyph-name="Ycircumflex" unicode="&#x176;" horiz-adv-x="1169" 
d="M754 602v-602h-332v602l-449 763h395l223 -419l217 419h388zM588 1619l-166 -124h-205l235 274h282l219 -274h-205z" />
    <glyph glyph-name="ycircumflex" unicode="&#x177;" horiz-adv-x="990" 
d="M482 452l191 497h328l-519 -1371h-333l170 440l-330 931h330zM498 1236l-140 -140h-205l207 291h285l193 -291h-205z" />
    <glyph glyph-name="Ydieresis" unicode="&#x178;" horiz-adv-x="1169" 
d="M754 602v-602h-332v602l-449 763h395l223 -419l217 419h388zM361 1813q69 0 116 -51q42 -46 42 -110q0 -70 -55 -118q-44 -39 -104 -39q-71 0 -117 51q-42 46 -42 108q0 71 55 120q43 39 105 39zM805 1813q69 0 116 -51q42 -46 42 -110q0 -70 -55 -118q-44 -39 -104 -39
q-71 0 -117 51q-42 46 -42 108q0 71 55 120q43 39 105 39z" />
    <glyph glyph-name="Zacute" unicode="&#x179;" horiz-adv-x="1140" 
d="M542 268h518v-268h-1033l572 1097h-507v268h1020zM665 1769h308l-301 -274h-205z" />
    <glyph glyph-name="zacute" unicode="&#x17a;" horiz-adv-x="881" 
d="M504 258h334v-258h-813l353 691h-324v258h802zM511 1387h299l-286 -291h-184z" />
    <glyph glyph-name="Zdotaccent" unicode="&#x17b;" horiz-adv-x="1140" 
d="M542 268h518v-268h-1033l572 1097h-507v268h1020zM599 1813q69 0 116 -51q42 -46 42 -110q0 -70 -55 -118q-44 -39 -104 -39q-70 0 -117 51q-42 46 -42 108q0 71 55 120q43 39 105 39z" />
    <glyph glyph-name="zdotaccent" unicode="&#x17c;" horiz-adv-x="881" 
d="M504 258h334v-258h-813l353 691h-324v258h802zM459 1410q69 0 116 -51q40 -44 40 -109q0 -69 -52 -115q-45 -39 -105 -39q-70 0 -117 51q-40 44 -40 106q0 72 52 118q45 39 106 39z" />
    <glyph glyph-name="Zcaron" unicode="&#x17d;" horiz-adv-x="1140" 
d="M542 268h518v-268h-1033l572 1097h-507v268h1020zM602 1645l166 124h205l-236 -274h-282l-219 274h205z" />
    <glyph glyph-name="zcaron" unicode="&#x17e;" horiz-adv-x="881" 
d="M504 258h334v-258h-813l353 691h-324v258h802zM458 1246l140 141h205l-208 -291h-285l-192 291h205z" />
    <glyph glyph-name="florin" unicode="&#x192;" 
d="M396 812h-93l24 137h93l27 153q51 287 259 366q89 34 234 34l-51 -289q-113 -12 -131 -111l-27 -153h111l-24 -137h-111l-121 -685q-70 -400 -461 -400h-31l51 289q113 12 131 111z" />
    <glyph glyph-name="uni01CD" unicode="&#x1cd;" horiz-adv-x="1321" 
d="M898 198h-484l-60 -198h-354l451 1365h421l449 -1365h-364zM815 466l-160 508l-159 -508h319zM658 1645l166 124h205l-236 -274h-282l-219 274h205z" />
    <glyph glyph-name="uni01CE" unicode="&#x1ce;" horiz-adv-x="1274" 
d="M847 846v103h311v-949h-311v106q-125 -144 -322 -144q-225 0 -358 168q-107 135 -107 330q0 152 71 282q59 109 163 174q114 70 257 70q106 0 190 -49q50 -30 106 -91zM620 728q-112 0 -174 -87q-54 -76 -54 -174q0 -121 74 -196q64 -64 152 -64q104 0 173 87
q61 77 61 177q0 126 -80 201q-61 56 -152 56zM646 1246l140 141h205l-207 -291h-286l-192 291h205z" />
    <glyph glyph-name="uni01D3" unicode="&#x1d3;" horiz-adv-x="1310" 
d="M441 1365v-795q0 -146 46 -211q56 -79 169 -79q84 0 142 48q50 41 64 127q7 44 7 115v795h332v-781q0 -300 -142 -453q-68 -75 -166 -114q-111 -44 -234 -44q-179 0 -317 84q-145 87 -196 241q-37 109 -37 286v781h332zM652 1645l166 124h205l-236 -274h-281l-219 274
h205z" />
    <glyph glyph-name="uni01D4" unicode="&#x1d4;" horiz-adv-x="1083" 
d="M669 949h311v-597q0 -149 -50 -225q-109 -165 -386 -165q-220 0 -338 105q-104 92 -104 285v597h311v-575q0 -50 15 -85q15 -34 51 -53q30 -16 65 -16q71 0 106 55q19 30 19 78v596zM538 1246l141 141h204l-207 -291h-285l-192 291h204z" />
    <glyph glyph-name="Gcaron" unicode="&#x1e6;" horiz-adv-x="1560" 
d="M812 779h699q1 -45 1 -71q0 -334 -226 -542q-211 -193 -501 -193q-184 0 -343 83q-171 90 -269 248q-103 168 -103 378q0 308 212 514q203 196 499 196q220 0 406 -117q94 -59 169 -152l-251 -196q-127 158 -313 158q-209 0 -315 -168q-71 -112 -71 -239q0 -190 141 -310
q111 -94 259 -94q151 0 259 107q54 52 82 130h-335v268zM778 1645l166 124h205l-236 -274h-282l-219 274h205z" />
    <glyph glyph-name="gcaron" unicode="&#x1e7;" horiz-adv-x="1225" 
d="M804 853v96h304v-845q0 -215 -56 -321q-65 -124 -203 -190q-126 -59 -282 -59q-282 0 -490 196l188 192q118 -130 286 -130q122 0 186 70q67 72 67 195v47q-127 -142 -327 -142q-126 0 -235 67q-220 136 -220 436q0 145 61 272q59 121 174 187q111 63 254 63
q182 0 293 -134zM579 712q-118 0 -182 -90q-43 -60 -43 -143q0 -113 72 -183q61 -60 158 -60q109 0 174 74q41 47 41 138q0 142 -69 206q-63 58 -151 58zM610 1246l140 141h205l-208 -291h-285l-192 291h204z" />
    <glyph glyph-name="uni01F4" unicode="&#x1f4;" horiz-adv-x="1560" 
d="M812 779h699q1 -45 1 -71q0 -334 -226 -542q-211 -193 -501 -193q-184 0 -343 83q-171 90 -269 248q-103 168 -103 378q0 308 212 514q203 196 499 196q220 0 406 -117q94 -59 169 -152l-251 -196q-127 158 -313 158q-209 0 -315 -168q-71 -112 -71 -239q0 -190 141 -310
q111 -94 259 -94q151 0 259 107q54 52 82 130h-335v268zM852 1769h308l-301 -274h-205z" />
    <glyph glyph-name="Scommaaccent" unicode="&#x218;" horiz-adv-x="1098" 
d="M55 414h325q-1 -14 -1 -23q0 -42 30 -73q52 -52 132 -52q66 0 108 38q33 30 33 71q0 52 -55 87q-35 24 -142 61q-196 71 -298 159q-119 102 -119 283q0 200 136 315q133 112 337 112q198 0 328 -107q131 -108 160 -323h-338q-15 137 -152 137q-73 0 -108 -38
q-28 -30 -28 -70q0 -61 63 -99q31 -19 156 -67q210 -78 293 -154q115 -105 115 -274q0 -224 -174 -338q-132 -86 -315 -86q-214 0 -344 109q-142 121 -142 332zM680 -86v-132q0 -162 -97 -215q-58 -31 -185 -35v94q78 4 116 21q41 19 47 82h-157v185h276z" />
    <glyph glyph-name="scommaaccent" unicode="&#x219;" horiz-adv-x="867" 
d="M796 667h-290q1 11 1 19q0 34 -30 58q-24 20 -61 20q-32 0 -52 -18q-21 -18 -21 -46q0 -24 18 -43q20 -21 90 -42q173 -49 253 -106q109 -77 109 -226q0 -156 -122 -246q-101 -75 -263 -75q-210 0 -313 126q-65 80 -69 194h296q7 -44 19 -64q21 -33 68 -33q32 0 50 18
q22 21 22 49q0 22 -13 37q-22 25 -55 38q-34 13 -90 32q-150 49 -221 121q-75 78 -75 192q0 163 130 248q104 67 253 67q215 0 315 -140q49 -70 51 -180zM565 -120v-117q0 -90 -25 -140q-39 -78 -164 -99q-30 -5 -84 -11v95q13 2 88 14q57 9 65 87h-146v171h266z" />
    <glyph glyph-name="uni021A" unicode="&#x21a;" horiz-adv-x="961" 
d="M647 1097v-1097h-332v1097h-315v268h961v-268h-314zM618 -86v-132q0 -162 -97 -215q-58 -31 -185 -35v94q78 4 116 21q41 19 47 82h-157v185h276z" />
    <glyph glyph-name="uni021B" unicode="&#x21b;" horiz-adv-x="604" 
d="M441 696v-377q0 -62 76 -62h32v-257h-239q-95 0 -142 51q-38 41 -38 146v499h-97v258h97v235h311v-235h108v-258h-108zM466 -120v-117q0 -90 -25 -140q-39 -78 -164 -99q-30 -6 -85 -11v95q13 2 89 14q57 9 65 87h-146v171h266z" />
    <glyph glyph-name="Adotaccent" unicode="&#x226;" horiz-adv-x="1321" 
d="M898 198h-484l-60 -198h-354l451 1365h421l449 -1365h-364zM815 466l-160 508l-159 -508h319zM659 1813q69 0 116 -51q42 -46 42 -110q0 -70 -55 -118q-44 -39 -104 -39q-71 0 -117 51q-42 46 -42 108q0 71 55 120q43 39 105 39z" />
    <glyph glyph-name="adotaccent" unicode="&#x227;" horiz-adv-x="1274" 
d="M847 846v103h311v-949h-311v106q-125 -144 -322 -144q-225 0 -358 168q-107 135 -107 330q0 152 71 282q59 109 163 174q114 70 257 70q106 0 190 -49q50 -30 106 -91zM620 728q-112 0 -174 -87q-54 -76 -54 -174q0 -121 74 -196q64 -64 152 -64q104 0 173 87
q61 77 61 177q0 126 -80 201q-61 56 -152 56zM636 1410q69 0 116 -51q40 -44 40 -109q0 -69 -52 -115q-45 -39 -105 -39q-70 0 -117 51q-40 43 -40 106q0 72 52 118q45 39 106 39z" />
    <glyph glyph-name="dotlessj" unicode="&#x237;" horiz-adv-x="543" 
d="M427 949v-949q0 -223 -95 -322q-101 -103 -298 -103q-25 0 -84 4v282q29 -2 45 -2q121 0 121 141v949h311z" />
    <glyph glyph-name="afii57929" unicode="&#x2bc;" horiz-adv-x="498" 
d="M434 1328l-150 -431l-205 49l91 446z" />
    <glyph glyph-name="circumflex" unicode="&#x2c6;" 
d="M515 1236l-140 -140h-205l207 291h286l192 -291h-205z" />
    <glyph glyph-name="caron" unicode="&#x2c7;" 
d="M510 1246l140 141h205l-207 -291h-286l-192 291h205z" />
    <glyph glyph-name="uni02C9" unicode="&#x2c9;" 
d="M181 1154v176h662v-176h-662z" />
    <glyph glyph-name="breve" unicode="&#x2d8;" 
d="M652 1381h205q-13 -87 -53 -145q-96 -141 -292 -141q-195 0 -291 141q-40 58 -53 145h205q12 -44 28 -66q35 -44 111 -44t111 44q17 22 29 66z" />
    <glyph glyph-name="dotaccent" unicode="&#x2d9;" 
d="M511 1410q69 0 116 -51q40 -44 40 -109q0 -69 -52 -115q-45 -39 -105 -39q-70 0 -117 51q-40 43 -40 106q0 72 52 118q45 39 106 39z" />
    <glyph glyph-name="ring" unicode="&#x2da;" 
d="M514 1445q87 0 150 -64q51 -54 51 -136q0 -88 -67 -145q-60 -49 -135 -49q-90 0 -152 64q-51 54 -51 133q0 90 67 147q59 50 137 50zM513 1338q-43 0 -70 -31q-23 -27 -23 -59q0 -39 30 -66q26 -24 63 -24q43 0 69 31q23 27 23 58q0 39 -30 67q-25 24 -62 24z" />
    <glyph glyph-name="ogonek" unicode="&#x2db;" 
d="M460 0h143q-84 -84 -84 -134q0 -58 80 -58q29 0 59 10l15 -134q-62 -18 -122 -18q-87 0 -139 37q-61 43 -61 116q0 99 109 181z" />
    <glyph glyph-name="tilde" unicode="&#x2dc;" 
d="M672 1364h198q-10 -89 -48 -150q-65 -107 -173 -107q-53 0 -165 45q-47 19 -59 19q-32 0 -45 -68h-198q13 95 45 151q61 106 176 106q54 0 166 -43q46 -17 62 -17q34 0 41 64z" />
    <glyph glyph-name="hungarumlaut" unicode="&#x2dd;" 
d="M367 1381h261l-250 -285h-158zM749 1381h260l-250 -285h-158z" />
    <glyph glyph-name="uni0387" unicode="&#x387;" horiz-adv-x="563" 
d="M283 681q77 0 125 -52q46 -50 46 -123q0 -80 -59 -131q-45 -39 -113 -39q-79 0 -127 52q-46 50 -46 120q0 82 59 134q45 39 115 39z" />
    <glyph glyph-name="Fdotaccent" unicode="&#x1e1e;" horiz-adv-x="967" 
d="M462 1097v-279h454v-268h-454v-550h-332v1365h786v-268h-454zM526 1813q69 0 116 -51q42 -46 42 -110q0 -70 -55 -118q-44 -39 -104 -39q-70 0 -117 51q-42 46 -42 108q0 71 55 120q43 39 105 39z" />
    <glyph glyph-name="Wacute" unicode="&#x1e82;" horiz-adv-x="578" 
d="M523 637v-272h-468v272h468z" />
    <glyph glyph-name="Wdieresis" unicode="&#x1e84;" horiz-adv-x="1751" 
d="M1220 571l184 794h347l-364 -1365h-344l-175 808l-173 -808h-342l-353 1365h353l175 -775l182 775h333zM652 1813q69 0 116 -51q42 -46 42 -110q0 -70 -55 -118q-44 -39 -104 -39q-70 0 -117 51q-42 46 -42 108q0 71 55 120q43 39 105 39zM1096 1813q69 0 116 -51
q42 -46 42 -110q0 -70 -55 -118q-44 -39 -104 -39q-70 0 -117 51q-42 47 -42 108q0 71 55 120q43 39 105 39z" />
    <glyph glyph-name="uni2006" unicode="&#x2006;" horiz-adv-x="137" 
 />
    <glyph glyph-name="uni2007" unicode="&#x2007;" horiz-adv-x="1139" 
 />
    <glyph glyph-name="uni2011" unicode="&#x2011;" horiz-adv-x="468" 
d="M468 637v-272h-468v272h468z" />
    <glyph glyph-name="figuredash" unicode="&#x2012;" 
d="M953 616v-258h-881v258h881z" />
    <glyph glyph-name="endash" unicode="&#x2013;" 
d="M953 616v-258h-881v258h881z" />
    <glyph glyph-name="emdash" unicode="&#x2014;" horiz-adv-x="1415" 
d="M1415 616v-231h-1415v231h1415z" />
    <glyph glyph-name="afii00208" unicode="&#x2015;" horiz-adv-x="1415" 
d="M1415 616v-231h-1415v231h1415z" />
    <glyph glyph-name="underscoredbl" unicode="&#x2017;" 
d="M0 -103h1024v-138h-1024v138zM0 -343h1024v-138h-1024v138z" />
    <glyph glyph-name="quoteleft" unicode="&#x2018;" horiz-adv-x="498" 
d="M64 961l150 431l205 -49l-91 -446z" />
    <glyph glyph-name="quoteright" unicode="&#x2019;" horiz-adv-x="498" 
d="M434 1328l-150 -431l-205 49l91 446z" />
    <glyph glyph-name="quotesinglbase" unicode="&#x201a;" horiz-adv-x="517" 
d="M453 244l-160 -468l-214 50l97 488z" />
    <glyph glyph-name="quotedblleft" unicode="&#x201c;" horiz-adv-x="920" 
d="M467 924l159 468l214 -50l-96 -487zM64 924l159 468l215 -50l-97 -487z" />
    <glyph glyph-name="quotedblright" unicode="&#x201d;" horiz-adv-x="920" 
d="M453 1322l-160 -467l-214 50l97 487zM855 1322l-159 -467l-214 50l96 487z" />
    <glyph glyph-name="quotedblbase" unicode="&#x201e;" horiz-adv-x="920" 
d="M453 244l-160 -468l-214 50l97 488zM855 244l-159 -468l-214 50l96 488z" />
    <glyph glyph-name="dagger" unicode="&#x2020;" 
d="M382 1365h259v-341h301v-218h-301v-1188h-259v1188h-300v218h300v341z" />
    <glyph glyph-name="daggerdbl" unicode="&#x2021;" 
d="M382 1365h259v-355h301v-218h-301v-581h301v-218h-301v-375h-259v375h-300v218h300v581h-300v218h300v355z" />
    <glyph glyph-name="bullet" unicode="&#x2022;" horiz-adv-x="1365" 
d="M689 978q113 0 196 -83q84 -83 84 -201t-83 -201t-201 -83q-116 0 -199 82q-85 84 -85 202q0 121 84 202q86 82 204 82z" />
    <glyph glyph-name="ellipsis" unicode="&#x2026;" horiz-adv-x="1690" 
d="M283 314q77 0 125 -52q46 -50 46 -123q0 -80 -59 -131q-45 -39 -113 -39q-79 0 -127 52q-46 50 -46 120q0 82 59 134q45 39 115 39zM846 314q77 0 125 -52q46 -50 46 -123q0 -80 -59 -131q-45 -39 -113 -39q-79 0 -127 52q-46 50 -46 120q0 82 59 134q45 39 115 39z
M1409 314q77 0 125 -52q46 -50 46 -123q0 -80 -59 -131q-45 -39 -113 -39q-79 0 -127 52q-46 50 -46 120q0 82 59 134q45 39 115 39z" />
    <glyph glyph-name="perthousand" unicode="&#x2030;" horiz-adv-x="2191" 
d="M618 1118v-215q0 -138 -75 -204q-71 -64 -193 -64q-136 0 -209 68q-41 39 -53 95q-13 61 -13 145v161q0 148 61 212q72 76 206 76q119 0 195 -65q81 -69 81 -209zM265 1104v-184q0 -63 10 -83q18 -35 74 -35q52 0 69 36q13 25 13 91v175q0 68 -16 91q-19 27 -66 27
q-50 0 -67 -25q-17 -24 -17 -93zM1437 456v-215q0 -137 -75 -204q-72 -64 -193 -64q-136 0 -209 68q-41 40 -53 95q-13 61 -13 146v160q0 149 61 212q73 77 206 77q119 0 195 -65q81 -70 81 -210zM1084 442v-184q0 -63 10 -83q18 -35 74 -35q52 0 69 36q13 26 13 91v175
q0 68 -17 92q-18 27 -65 27q-49 0 -67 -25q-17 -24 -17 -94zM1242 1338l-884 -1365l-88 56l883 1363zM2116 456v-215q0 -137 -75 -204q-72 -64 -193 -64q-135 0 -208 68q-41 39 -53 95q-13 62 -13 146v160q0 149 61 212q72 77 205 77q119 0 195 -65q81 -70 81 -210z
M1764 442v-184q0 -63 10 -83q17 -35 73 -35q52 0 69 36q13 26 13 91v175q0 68 -16 92q-18 27 -66 27q-49 0 -67 -25q-16 -24 -16 -94z" />
    <glyph glyph-name="guilsinglleft" unicode="&#x2039;" horiz-adv-x="531" 
d="M257 491l192 -333h-192l-189 333l189 343h192z" />
    <glyph glyph-name="guilsinglright" unicode="&#x203a;" horiz-adv-x="531" 
d="M275 501l-193 333h192l189 -333l-189 -343h-192z" />
    <glyph glyph-name="exclamdbl" unicode="&#x203c;" horiz-adv-x="961" 
d="M398 1365v-361l-90 -566h-154l-89 560v367h333zM404 329v-329h-345v329h345zM896 1365v-361l-90 -566h-154l-89 560v367h333zM903 329v-329h-346v329h346z" />
    <glyph glyph-name="uni203E" unicode="&#x203e;" 
d="M0 1805h1024v-199h-1024v199z" />
    <glyph glyph-name="fraction" unicode="&#x2044;" horiz-adv-x="262" 
d="M617 1338l-884 -1365l-88 56l883 1363z" />
    <glyph glyph-name="zerosuperior" unicode="&#x2070;" horiz-adv-x="679" 
d="M623 1107v-309q0 -138 -79 -205q-74 -64 -201 -64q-142 0 -217 68q-43 40 -55 96q-14 61 -14 145v254q0 149 63 213q77 77 216 77q123 0 202 -65q85 -70 85 -210zM267 1092v-277q0 -57 10 -74q19 -30 64 -30q44 0 62 32q13 21 13 81v268q0 61 -16 82q-19 23 -59 23
q-45 0 -61 -28q-13 -21 -13 -77z" />
    <glyph glyph-name="foursuperior" unicode="&#x2074;" horiz-adv-x="679" 
d="M356 703h-303v163l265 499h239v-494h68v-168h-68v-157h-201v157zM367 864v269l-148 -269h148z" />
    <glyph glyph-name="fivesuperior" unicode="&#x2075;" horiz-adv-x="679" 
d="M283 1188v-137q44 18 93 18q106 0 179 -76q69 -71 69 -180q0 -147 -108 -228q-76 -56 -180 -56q-129 0 -209 81q-40 39 -74 123l180 64q27 -81 96 -81q39 0 65 26t26 66q0 36 -25 63q-27 31 -67 31q-52 0 -83 -47h-152v510h485v-177h-295z" />
    <glyph glyph-name="sixsuperior" unicode="&#x2076;" horiz-adv-x="679" 
d="M597 1365l-218 -313h18q68 0 132 -46q100 -70 100 -197q0 -128 -101 -212q-83 -68 -196 -68q-136 0 -217 91q-65 74 -65 175q0 116 109 276l201 294h237zM342 887q-44 0 -72 -30q-24 -25 -24 -59q0 -37 27 -61q24 -23 64 -23q48 0 75 32q21 25 21 54q0 37 -25 61
q-26 26 -66 26z" />
    <glyph glyph-name="sevensuperior" unicode="&#x2077;" horiz-adv-x="679" 
d="M341 1187h-249v178h540l-343 -819h-215z" />
    <glyph glyph-name="eightsuperior" unicode="&#x2078;" horiz-adv-x="679" 
d="M532 968q99 -57 99 -181q0 -119 -91 -193q-80 -65 -203 -65q-142 0 -224 84q-64 65 -64 165q0 136 102 190q-30 19 -50 52q-30 49 -30 109q0 123 89 194q75 59 185 59q127 0 202 -76q68 -69 68 -170q0 -63 -32 -116q-20 -33 -51 -52zM344 1212q-42 0 -66 -29
q-19 -23 -19 -52q0 -34 24 -59q24 -24 59 -24q41 0 68 30q21 23 21 52q0 33 -29 60q-23 22 -58 22zM340 876q-41 0 -67 -26q-24 -24 -24 -59q0 -38 27 -62q25 -21 64 -21q44 0 68 28q22 25 22 56q0 36 -29 62q-26 22 -61 22z" />
    <glyph glyph-name="ninesuperior" unicode="&#x2079;" horiz-adv-x="679" 
d="M307 859q-56 1 -110 22q-80 32 -121 111q-26 52 -26 114q0 121 88 200q85 76 207 76q142 0 224 -98q61 -72 61 -173q0 -118 -109 -277l-197 -288h-234zM344 1199q-40 0 -68 -26q-26 -25 -26 -59q0 -38 29 -64q24 -22 61 -22q47 0 74 32q19 23 19 53q0 35 -27 61
q-26 25 -62 25z" />
    <glyph glyph-name="zeroinferior" unicode="&#x2080;" horiz-adv-x="679" 
d="M623 561v-309q0 -138 -79 -205q-75 -64 -201 -64q-141 0 -217 69q-43 39 -55 95q-14 61 -14 146v254q0 149 63 212q76 77 216 77q123 0 202 -65q85 -70 85 -210zM267 547v-278q0 -57 10 -74q19 -30 64 -30q44 0 62 32q13 21 13 81v269q0 60 -16 81q-19 23 -59 23
q-45 0 -61 -28q-13 -21 -13 -76z" />
    <glyph glyph-name="oneinferior" unicode="&#x2081;" horiz-adv-x="679" 
d="M297 568l-139 -58v182l349 153v-845h-210v568z" />
    <glyph glyph-name="twoinferior" unicode="&#x2082;" horiz-adv-x="679" 
d="M383 173h209v-173h-562l308 454q65 95 65 135q0 26 -15 43q-21 25 -61 25q-58 0 -77 -48q-9 -25 -10 -79h-191q-1 18 -1 27q0 134 93 214q76 66 198 66q136 0 216 -82q59 -59 59 -148q0 -65 -26 -119q-30 -64 -85 -144z" />
    <glyph glyph-name="threeinferior" unicode="&#x2083;" horiz-adv-x="679" 
d="M292 651h-215v168h561l-232 -302q73 -11 126 -54q86 -71 86 -195q0 -128 -90 -211q-81 -74 -204 -74q-112 0 -190 61q-84 66 -94 207h189q9 -90 90 -90q44 0 76 33q23 23 23 62q0 40 -23 66q-28 32 -76 32q-37 0 -67 -20l-126 99z" />
    <glyph glyph-name="fourinferior" unicode="&#x2084;" horiz-adv-x="679" 
d="M356 157h-303v163l265 499h239v-494h68v-168h-68v-157h-201v157zM367 318v269l-148 -269h148z" />
    <glyph glyph-name="fiveinferior" unicode="&#x2085;" horiz-adv-x="679" 
d="M283 642v-137q44 18 93 18q106 0 179 -76q69 -71 69 -180q0 -146 -108 -228q-76 -56 -180 -56q-129 0 -209 80q-40 40 -74 124l180 64q27 -81 96 -81q39 0 64 26q27 27 27 66q0 36 -25 63q-27 31 -67 31q-52 0 -83 -47h-152v510h485v-177h-295z" />
    <glyph glyph-name="sixinferior" unicode="&#x2086;" horiz-adv-x="679" 
d="M597 819l-218 -313h18q68 0 132 -46q100 -70 100 -197q0 -128 -102 -212q-82 -68 -195 -68q-134 0 -217 91q-65 73 -65 175q0 116 109 276l201 294h237zM342 341q-44 0 -72 -30q-24 -25 -24 -59q0 -37 27 -61q24 -23 64 -23q48 0 75 32q21 25 21 54q0 37 -25 61
q-26 26 -66 26z" />
    <glyph glyph-name="seveninferior" unicode="&#x2087;" horiz-adv-x="679" 
d="M341 641h-249v178h540l-343 -819h-215z" />
    <glyph glyph-name="eightinferior" unicode="&#x2088;" horiz-adv-x="679" 
d="M532 422q99 -57 99 -181q0 -119 -91 -193q-80 -65 -203 -65q-141 0 -224 84q-64 65 -64 166q0 135 102 189q-30 19 -50 52q-30 50 -30 110q0 122 89 193q75 59 185 59q127 0 202 -76q68 -69 68 -170q0 -62 -32 -116q-20 -33 -51 -52zM344 666q-42 0 -66 -29
q-19 -23 -19 -52q0 -34 24 -59q24 -24 59 -24q41 0 68 30q21 23 21 52q0 33 -29 60q-23 22 -58 22zM340 330q-41 0 -67 -26q-24 -24 -24 -59q0 -38 27 -62q25 -21 64 -21q44 0 68 28q22 25 22 56q0 36 -29 62q-26 22 -61 22z" />
    <glyph glyph-name="nineinferior" unicode="&#x2089;" horiz-adv-x="679" 
d="M307 313q-56 1 -110 23q-80 31 -121 110q-26 52 -26 114q0 121 88 200q85 76 207 76q142 0 224 -98q61 -72 61 -173q0 -118 -109 -277l-197 -288h-234zM344 653q-40 0 -68 -26q-26 -24 -26 -58q0 -38 29 -64q24 -22 61 -22q47 0 74 32q19 23 19 52q0 36 -27 61t-62 25z
" />
    <glyph glyph-name="franc" unicode="&#x20a3;" horiz-adv-x="1460" 
d="M879 818v131h311v-129q31 91 81 126q59 41 139 41q9 0 30 -2v-318q-39 5 -58 5q-109 0 -162 -76q-30 -44 -30 -149v-447h-311v550h-417v-550h-332v1365h786v-268h-454v-279h417z" />
    <glyph glyph-name="lira" unicode="&#x20a4;" horiz-adv-x="1321" 
d="M836 793v-103h-181q4 -11 7 -17q15 -39 25 -88h150v-103h-176q-14 -49 -21 -63q-28 -60 -128 -128q109 40 169 40q44 0 95 -13q16 -4 137 -43q20 -7 51 -7q98 0 190 108l117 -277q-145 -133 -303 -133q-58 0 -104 13q-59 15 -160 54q-110 42 -169 42q-91 0 -195 -82
l-166 248q146 88 176 241h-196v103h188q-7 15 -10 22q-19 44 -46 83h-132v103h69q-44 90 -44 162q0 98 57 193q143 239 494 239q324 0 460 -197q71 -103 84 -315h-314q-8 123 -54 176q-56 65 -162 65q-97 0 -155 -52q-53 -47 -53 -117q0 -47 23 -88q3 -4 42 -66h235z" />
    <glyph glyph-name="peseta" unicode="&#x20a7;" horiz-adv-x="1927" 
d="M1070 715h173v-138h68v-166h-68v-215q0 -31 39 -31h29v-165h-158q-61 0 -93 32q-26 26 -26 91v288h-60v158q-134 -125 -355 -125h-157v-444h-332v1365h470q247 0 381 -122q127 -116 127 -323q0 -100 -38 -205zM1034 643q-23 -35 -52 -66h52v66zM462 716h92q72 0 119 23
q98 49 98 164q0 105 -77 157q-49 32 -118 32h-114v-376zM1874 394h-196q1 11 1 17q0 17 -15 29q-13 11 -33 11q-38 0 -38 -31q0 -27 61 -43q106 -28 159 -63q72 -48 72 -140q0 -96 -80 -151q-65 -45 -167 -45q-133 0 -200 76q-44 50 -45 126h198q5 -29 12 -40q10 -17 36 -17
q36 0 36 33q0 10 -6 17q-15 17 -86 39q-190 59 -190 192q0 100 86 152q66 40 160 40q137 0 201 -85q34 -44 34 -117z" />
    <glyph glyph-name="Euro" unicode="&#x20ac;" 
d="M147 834q20 106 55 197q62 160 188 262q123 100 289 100q172 0 323 -124l-134 -314q-75 131 -188 131q-96 0 -158 -134q-23 -50 -35 -118h313l-67 -309h-242q27 -116 96 -190q52 -55 123 -55q64 0 127 50q46 37 80 93v-391q-112 -59 -229 -59q-223 0 -381 192
q-120 145 -158 360h-134l67 309h65z" />
    <glyph glyph-name="uni2101" unicode="&#x2101;" horiz-adv-x="1959" 
d="M598 663h-287l-37 -117h-237l284 819h274l283 -819h-243zM542 835l-88 267l-88 -267h176zM1593 1338l-884 -1365l-88 56l883 1363zM1284 258h219q-2 -11 -2 -18q0 -35 35 -54q27 -15 59 -15q37 0 61 21q17 15 17 37q0 26 -29 45q-22 14 -87 36q-123 41 -188 94
q-77 63 -77 174q0 121 88 191q85 67 214 67q125 0 207 -64q85 -66 104 -204h-226q-8 81 -86 81q-77 0 -77 -57q0 -32 35 -53q18 -10 95 -38q131 -47 184 -92q75 -64 75 -168q0 -137 -113 -206q-84 -51 -199 -51q-153 0 -237 84q-72 71 -72 190z" />
    <glyph glyph-name="afii61248" unicode="&#x2105;" horiz-adv-x="922" 
d="M463 889q57 0 99 -41q41 -41 41 -101q0 -59 -41 -100q-42 -42 -101 -42t-100 42q-42 41 -42 100q0 60 42 101t102 41z" />
    <glyph glyph-name="afii61289" unicode="&#x2113;" 
d="M528 525q-43 -260 -43 -353q0 -51 27 -51q17 0 33 23q5 6 37 64q15 28 25 37t27 9q44 0 44 -52q0 -71 -59 -151q-73 -99 -172 -99q-131 0 -174 145q-19 62 -19 191q0 10 1 34q-60 -74 -81 -74q-9 0 -19 11q-21 23 -21 61q0 24 13 44q6 9 62 75q27 31 62 78
q62 362 159 588q112 262 286 262q96 0 143 -71q39 -58 39 -138q0 -173 -155 -399q-25 -36 -164 -181q-35 -36 -51 -53zM550 688q82 90 143 216q73 149 73 235q0 67 -43 67q-47 0 -77 -83q-50 -141 -96 -435z" />
    <glyph glyph-name="uni2117" unicode="&#x2117;" horiz-adv-x="372" 
d="M290 1120v-574h-209v574h209zM184 1386q48 0 78 -32q29 -31 29 -78q0 -50 -38 -82q-28 -24 -70 -24q-49 0 -79 32q-29 32 -29 76q0 51 38 84q27 24 71 24z" />
    <glyph glyph-name="trademark" unicode="&#x2122;" horiz-adv-x="1767" 
d="M429 1193v-647h-222v647h-195v172h612v-172h-195zM951 980v-434h-222v819h254l219 -423l218 423h254v-819h-222v434l-250 -477z" />
    <glyph glyph-name="uni2126" unicode="&#x2126;" horiz-adv-x="1365" 
d="M56 0v279h269q-113 71 -173 148q-104 135 -104 331q0 272 195 464q180 177 439 177t440 -177q194 -191 194 -465q0 -208 -118 -348q-56 -66 -158 -130h269v-279h-555v257q100 51 155 140q81 132 81 301q0 181 -89 300q-90 119 -219 119t-218 -119q-90 -120 -90 -297
q0 -323 237 -444v-257h-555z" />
    <glyph glyph-name="onethird" unicode="&#x2153;" horiz-adv-x="1620" 
d="M297 1114l-139 -58v182l349 153v-845h-210v568zM1296 1338l-884 -1365l-88 56l883 1363zM1233 651h-215v168h561l-232 -302q74 -11 126 -54q86 -71 86 -195q0 -128 -90 -211q-81 -74 -204 -74q-112 0 -190 61q-83 66 -94 207h189q9 -90 90 -90q44 0 76 33q23 23 23 62
q0 41 -23 66q-28 32 -76 32q-37 0 -66 -20l-127 99z" />
    <glyph glyph-name="twothirds" unicode="&#x2154;" horiz-adv-x="1620" 
d="M383 719h209v-173h-562l308 454q65 95 65 134q0 26 -15 43q-21 25 -61 25q-58 0 -77 -47q-9 -25 -10 -79h-191q-1 17 -1 27q0 134 93 213q77 66 198 66q136 0 216 -81q59 -60 59 -149q0 -64 -26 -119q-30 -63 -85 -143zM1296 1338l-884 -1365l-88 56l883 1363zM1233 651
h-215v168h561l-232 -302q73 -11 125 -54q87 -71 87 -195q0 -128 -90 -211q-81 -74 -204 -74q-112 0 -190 61q-84 66 -94 207h189q9 -90 90 -90q44 0 76 33q23 23 23 62q0 41 -23 66q-28 32 -76 32q-37 0 -67 -20l-126 99z" />
    <glyph glyph-name="onefifth" unicode="&#x2155;" horiz-adv-x="1620" 
d="M297 1114l-139 -58v182l349 153v-845h-210v568zM1296 1338l-884 -1365l-88 56l883 1363zM1223 642v-137q45 18 93 18q106 0 179 -76q69 -71 69 -180q0 -146 -108 -228q-75 -56 -180 -56q-128 0 -209 80q-40 40 -74 124l181 64q26 -81 95 -81q40 0 65 26q26 27 26 66
q0 36 -24 63q-28 31 -68 31q-51 0 -82 -47h-153v510h485v-177h-295z" />
    <glyph glyph-name="twofifth" unicode="&#x2156;" horiz-adv-x="1620" 
d="M383 719h209v-173h-562l308 454q65 95 65 134q0 26 -15 43q-21 25 -61 25q-58 0 -77 -47q-9 -25 -10 -79h-191q-1 17 -1 27q0 134 93 213q77 66 198 66q136 0 216 -81q59 -60 59 -149q0 -64 -26 -119q-30 -63 -85 -143zM1296 1338l-884 -1365l-88 56l883 1363zM1223 642
v-137q45 18 93 18q106 0 179 -76q69 -71 69 -180q0 -147 -108 -228q-76 -56 -180 -56q-128 0 -209 80q-40 40 -74 124l181 64q26 -81 95 -81q40 0 65 26q26 27 26 66q0 36 -24 63q-27 31 -68 31q-51 0 -83 -47h-152v510h485v-177h-295z" />
    <glyph glyph-name="threefifth" unicode="&#x2157;" horiz-adv-x="1620" 
d="M292 1197h-215v168h561l-232 -302q73 -11 126 -54q86 -71 86 -195q0 -127 -90 -210q-80 -74 -204 -74q-113 0 -190 61q-84 66 -94 206h189q9 -89 90 -89q44 0 76 33q23 23 23 61q0 41 -23 66q-29 32 -76 32q-37 0 -67 -20l-126 99zM1296 1338l-884 -1365l-88 56l883 1363
zM1223 642v-137q45 18 93 18q107 0 180 -76q69 -71 69 -180q0 -147 -108 -228q-76 -56 -181 -56q-128 0 -209 80q-40 40 -74 124l181 64q26 -81 95 -81q39 0 65 26q26 27 26 66q0 36 -24 63q-28 31 -68 31q-51 0 -82 -47h-153v510h486v-177h-296z" />
    <glyph glyph-name="fourfifth" unicode="&#x2158;" horiz-adv-x="1620" 
d="M356 703h-303v163l265 499h239v-494h68v-168h-68v-157h-201v157zM367 864v269l-148 -269h148zM1296 1338l-884 -1365l-88 56l883 1363zM1224 642v-137q44 18 93 18q106 0 179 -76q69 -71 69 -180q0 -146 -108 -228q-75 -56 -180 -56q-128 0 -209 80q-40 40 -74 124
l181 64q27 -81 95 -81q40 0 65 26q26 27 26 66q0 36 -24 63q-28 31 -68 31q-51 0 -82 -47h-153v510h485v-177h-295z" />
    <glyph glyph-name="onesixth" unicode="&#x2159;" horiz-adv-x="1620" 
d="M297 1114l-139 -58v182l349 153v-845h-210v568zM1296 1338l-884 -1365l-88 56l883 1363zM1538 819l-218 -313h18q68 0 132 -46q100 -71 100 -197q0 -128 -102 -212q-82 -68 -195 -68q-134 0 -217 91q-65 73 -65 175q0 116 109 276l202 294h236zM1283 341q-43 0 -72 -30
q-24 -25 -24 -59q0 -37 27 -61q24 -23 64 -23q48 0 75 32q21 25 21 54q0 37 -25 61q-26 26 -66 26z" />
    <glyph glyph-name="fivesixth" unicode="&#x215a;" horiz-adv-x="1620" 
d="M283 1188v-137q44 18 93 18q106 0 179 -76q69 -71 69 -180q0 -147 -108 -228q-76 -56 -180 -56q-129 0 -209 81q-40 39 -74 123l180 64q27 -81 96 -81q39 0 65 26t26 66q0 36 -25 63q-27 31 -67 31q-52 0 -83 -47h-152v510h485v-177h-295zM1296 1338l-884 -1365l-88 56
l883 1363zM1538 819l-218 -313h18q68 0 132 -46q100 -70 100 -197q0 -128 -102 -212q-82 -68 -195 -68q-134 0 -216 91q-65 73 -65 175q0 117 108 276l202 294h236zM1283 341q-43 0 -72 -30q-23 -25 -23 -59q0 -37 26 -61q25 -23 65 -23q47 0 74 32q21 25 21 54q0 37 -25 61
q-26 26 -66 26z" />
    <glyph glyph-name="oneeighth" unicode="&#x215b;" horiz-adv-x="1620" 
d="M297 1114l-139 -58v182l349 153v-845h-210v568zM1296 1338l-884 -1365l-88 56l883 1363zM1473 422q99 -57 99 -181q0 -119 -91 -193q-81 -65 -204 -65q-141 0 -224 84q-64 65 -64 166q0 135 103 189q-30 19 -50 52q-30 50 -30 110q0 122 89 193q75 59 185 59
q127 0 202 -76q68 -69 68 -170q0 -62 -32 -116q-21 -33 -51 -52zM1285 666q-41 0 -66 -29q-19 -23 -19 -52q0 -34 25 -59q23 -24 58 -24q41 0 68 30q21 23 21 52q0 33 -28 60q-24 22 -59 22zM1280 330q-41 0 -67 -26q-24 -24 -24 -59q0 -39 28 -62q25 -21 63 -21q45 0 69 28
q22 25 22 56q0 36 -30 62q-25 22 -61 22z" />
    <glyph glyph-name="threeeighths" unicode="&#x215c;" horiz-adv-x="1620" 
d="M292 1197h-215v168h561l-232 -302q73 -11 126 -54q86 -71 86 -195q0 -127 -90 -210q-80 -74 -204 -74q-113 0 -190 61q-84 66 -94 206h189q9 -89 90 -89q44 0 76 33q23 23 23 61q0 41 -23 66q-29 32 -76 32q-37 0 -67 -20l-126 99zM1296 1338l-884 -1365l-88 56l883 1363
zM1473 422q99 -57 99 -181q0 -119 -91 -193q-80 -65 -203 -65q-141 0 -224 84q-64 65 -64 166q0 135 102 189q-30 19 -50 52q-30 50 -30 110q0 122 89 193q75 59 185 59q126 0 202 -76q68 -69 68 -170q0 -62 -32 -116q-21 -33 -51 -52zM1285 666q-42 0 -66 -29
q-19 -23 -19 -52q0 -34 24 -59q24 -24 59 -24q41 0 68 30q21 23 21 52q0 33 -29 60q-23 22 -58 22zM1281 330q-41 0 -68 -26q-23 -24 -23 -59q0 -38 27 -62q25 -21 64 -21q44 0 68 28q22 25 22 56q0 36 -29 62q-26 22 -61 22z" />
    <glyph glyph-name="fiveeighths" unicode="&#x215d;" horiz-adv-x="1620" 
d="M283 1188v-137q44 18 93 18q106 0 179 -76q69 -71 69 -180q0 -147 -108 -228q-76 -56 -180 -56q-129 0 -209 81q-40 39 -74 123l180 64q27 -81 96 -81q39 0 65 26t26 66q0 36 -25 63q-27 31 -67 31q-52 0 -83 -47h-152v510h485v-177h-295zM1296 1338l-884 -1365l-88 56
l883 1363zM1473 422q99 -57 99 -181q0 -119 -91 -193q-81 -65 -204 -65q-141 0 -223 84q-64 65 -64 166q0 135 102 189q-30 19 -50 52q-29 50 -29 110q0 122 89 193q74 59 185 59q126 0 201 -76q69 -69 69 -170q0 -62 -33 -116q-20 -33 -51 -52zM1286 666q-42 0 -66 -29
q-19 -23 -19 -52q0 -34 24 -59q24 -24 59 -24q40 0 68 30q21 23 21 52q0 33 -29 60q-24 22 -58 22zM1280 330q-40 0 -67 -26q-23 -24 -23 -59q0 -39 27 -62q25 -21 63 -21q44 0 69 28q22 25 22 56q0 36 -30 62q-26 22 -61 22z" />
    <glyph glyph-name="seveneighths" unicode="&#x215e;" horiz-adv-x="1620" 
d="M341 1187h-249v178h540l-343 -819h-215zM1296 1338l-884 -1365l-88 56l883 1363zM1473 422q99 -57 99 -181q0 -118 -91 -193q-81 -65 -204 -65q-141 0 -224 84q-64 65 -64 166q0 135 103 189q-30 19 -50 52q-30 50 -30 110q0 122 89 193q75 59 185 59q127 0 202 -76
q68 -69 68 -170q0 -62 -32 -116q-21 -33 -51 -52zM1285 666q-42 0 -66 -29q-19 -23 -19 -52q0 -34 24 -59q24 -24 59 -24q41 0 68 30q21 23 21 52q0 33 -29 60q-23 22 -58 22zM1280 330q-41 0 -67 -26q-24 -24 -24 -59q0 -39 28 -62q25 -21 63 -21q44 0 69 28q22 25 22 56
q0 36 -30 62q-25 22 -61 22z" />
    <glyph glyph-name="arrowleft" unicode="&#x2190;" horiz-adv-x="1365" 
d="M1338 744v-104h-1024q24 -30 60 -96q47 -86 47 -117q0 -28 -30 -28q-17 0 -47 35q-106 122 -270 211q-47 26 -47 43q0 18 34 38q100 56 165 106q60 46 132 130q16 19 32 19q31 0 31 -31q0 -20 -42 -104q-21 -41 -65 -102h1024z" />
    <glyph glyph-name="arrowup" unicode="&#x2191;" horiz-adv-x="1365" 
d="M737 27h-104v1024q-32 -25 -96 -60q-86 -47 -117 -47q-28 0 -28 31q0 16 35 46q123 107 212 270q25 47 42 47q19 0 38 -34q56 -99 106 -165q48 -62 131 -132q19 -16 19 -32q0 -31 -31 -31q-20 0 -105 43q-42 20 -102 64v-1024z" />
    <glyph glyph-name="arrowright" unicode="&#x2192;" horiz-adv-x="1365" 
d="M27 636v104h1024q-24 30 -60 96q-47 87 -47 117q0 29 30 29q17 0 47 -35q107 -124 270 -212q47 -26 47 -43q0 -18 -34 -38q-99 -56 -165 -106q-61 -47 -132 -131q-16 -19 -32 -19q-31 0 -31 31q0 20 42 105q21 42 65 102h-1024z" />
    <glyph glyph-name="arrowdown" unicode="&#x2193;" horiz-adv-x="1365" 
d="M629 1338h104v-1024q30 25 96 60q86 47 117 47q28 0 28 -31q0 -16 -35 -46q-122 -106 -212 -270q-25 -47 -42 -47q-19 0 -38 34q-54 94 -106 165q-46 60 -131 132q-19 16 -19 32q0 31 31 31q20 0 105 -42q42 -21 102 -65v1024z" />
    <glyph glyph-name="arrowboth" unicode="&#x2194;" horiz-adv-x="1365" 
d="M312 635q45 -61 72 -117q36 -71 36 -91q0 -30 -31 -30q-12 0 -22 8q-5 5 -26 30q-79 95 -223 183q-49 30 -70 43q-21 11 -21 30q0 17 47 42q164 90 269 212q31 35 47 35q30 0 30 -29q0 -30 -48 -116q-35 -64 -60 -96h739q-24 29 -60 96q-47 86 -47 117q0 28 30 28
q17 0 47 -35q107 -123 270 -212q47 -25 47 -42q0 -19 -34 -38q-100 -57 -165 -106q-62 -48 -132 -131q-16 -19 -32 -19q-31 0 -31 31q0 21 42 105q21 42 65 102h-739z" />
    <glyph glyph-name="arrowupdn" unicode="&#x2195;" horiz-adv-x="1365" 
d="M737 312q64 47 117 73q72 36 91 36q30 0 30 -31q0 -13 -8 -22q-5 -5 -30 -26q-94 -79 -183 -223q-29 -48 -43 -71q-11 -21 -30 -21q-17 0 -42 47q-90 164 -212 270q-35 30 -35 47q0 30 29 30q30 0 116 -48q61 -33 96 -61v739q-32 -25 -96 -60q-86 -47 -116 -47
q-29 0 -29 30q0 17 35 47q123 107 212 270q25 47 42 47q19 0 38 -34q57 -100 106 -165q49 -62 131 -132q19 -16 19 -32q0 -31 -31 -31q-20 0 -105 43q-42 20 -102 64v-739z" />
    <glyph glyph-name="arrowupdnbse" unicode="&#x21a8;" horiz-adv-x="1365" 
d="M737 312q64 47 117 73q72 36 91 36q30 0 30 -31q0 -13 -8 -22q-5 -5 -30 -26q-93 -78 -183 -223q-28 -46 -43 -71q-11 -21 -30 -21q-17 0 -42 47q-90 164 -212 270q-35 30 -35 47q0 30 28 30q31 0 117 -48q61 -33 96 -61v739q-32 -25 -96 -60q-86 -47 -116 -47
q-29 0 -29 30q0 17 35 47q123 107 212 270q25 47 42 47q19 0 38 -34q57 -100 106 -165q49 -62 131 -132q19 -16 19 -32q0 -31 -31 -31q-20 0 -105 43q-42 20 -102 64v-739zM413 -139h540v-88h-540v88z" />
    <glyph glyph-name="partialdiff" unicode="&#x2202;" 
d="M113 1111l37 248q202 -22 354 -79q185 -69 313 -220q173 -204 173 -518q0 -308 -183 -457q-124 -102 -304 -102q-212 0 -343 138q-128 136 -128 331q0 178 112 301q118 131 298 131q94 0 158 -28q35 -15 83 -54q-61 108 -106 147q-150 135 -464 162zM514 648
q-74 0 -131 -50q-67 -58 -67 -157q0 -88 60 -148q56 -57 132 -57q72 0 128 52q64 59 64 155q0 97 -61 154q-55 51 -125 51z" />
    <glyph glyph-name="emptyset" unicode="&#x2205;" horiz-adv-x="1266" 
d="M899 1365l98 -51l-98 -181q231 -161 231 -416q0 -141 -75 -262q-65 -105 -170 -167q-119 -69 -263 -69q-94 0 -162 33l-128 -251l-100 51l126 249q-221 162 -221 414q0 228 171 376q140 121 328 121q82 0 166 -29zM514 353q66 -18 119 -18q168 0 283 123q100 108 100 257
q0 150 -100 260q-25 28 -64 52zM749 1079q-57 17 -110 17q-184 0 -299 -138q-89 -107 -89 -242q0 -183 159 -310z" />
    <glyph glyph-name="Delta" unicode="&#x2206;" horiz-adv-x="1338" 
d="M17 0l483 1365h333l487 -1365h-1303zM426 279h478l-235 748z" />
    <glyph glyph-name="product" unicode="&#x220f;" horiz-adv-x="1365" 
d="M35 1536h1294v-257h-146v-1534h146v-257h-562v257h128v1534h-426v-1534h126v-257h-560v257h149v1534h-149v257z" />
    <glyph glyph-name="summation" unicode="&#x2211;" horiz-adv-x="1365" 
d="M1282 1536v-532h-289l-35 237h-529l493 -698l-490 -760h544l20 248h304v-543h-1231v339l473 715l-473 654v340h1213z" />
    <glyph glyph-name="minus" unicode="&#x2212;" 
d="M15 819h993v-158h-993v158z" />
    <glyph glyph-name="uni2218" unicode="&#x2218;" 
d="M516 983q112 0 194 -83q83 -84 83 -204q0 -118 -82 -202q-83 -84 -199 -84t-198 83q-84 85 -84 203q0 122 84 204q84 83 202 83zM514 886q-79 0 -133 -55q-55 -55 -55 -135q0 -78 55 -134q55 -55 131 -55t131 56q54 55 54 133q0 81 -55 135q-55 55 -128 55z" />
    <glyph glyph-name="radical" unicode="&#x221a;" horiz-adv-x="1365" 
d="M1365 1693v-265h-335l-356 -1428h-375l-115 510h-184v265h366l52 -206q17 -68 39 -293h18q34 283 122 635l197 782h571z" />
    <glyph glyph-name="infinity" unicode="&#x221e;" horiz-adv-x="1365" 
d="M688 551q-146 -182 -328 -182q-157 0 -250 109q-75 86 -75 218q0 154 104 245q94 80 221 80q178 0 318 -180q136 181 326 181q166 0 259 -119q66 -84 66 -207q0 -155 -103 -246q-91 -81 -219 -81q-184 0 -319 182zM792 696q87 -128 180 -128q57 0 95 40q34 36 34 88
q0 63 -47 100q-37 28 -83 28q-72 0 -137 -73q-16 -18 -31 -40zM573 695q-88 127 -181 127q-57 0 -95 -40q-34 -36 -34 -88q0 -62 48 -99q36 -28 82 -28q73 0 137 73q9 10 26 32t17 23z" />
    <glyph glyph-name="orthogonal" unicode="&#x221f;" horiz-adv-x="688" 
d="M27 1073h634v-210h-634v210z" />
    <glyph glyph-name="intersection" unicode="&#x2229;" horiz-adv-x="1297" 
d="M1228 0h-322v616q-3 156 -6 201q-8 105 -50 162q-70 97 -201 97q-90 0 -158 -51q-57 -43 -79 -114q-21 -71 -21 -295v-616h-322v611q0 217 12 312q30 225 220 349q143 93 347 93t348 -93q189 -124 219 -349q13 -99 13 -312v-611z" />
    <glyph glyph-name="union" unicode="&#x222a;" horiz-adv-x="1297" 
d="M69 1365h322v-616q3 -156 6 -201q8 -105 50 -162q70 -97 201 -97q90 0 158 51q58 43 79 114t21 295v616h322v-611q0 -219 -12 -312q-30 -225 -220 -349q-143 -93 -347 -93t-348 93q-190 124 -219 349q-13 102 -13 312v611z" />
    <glyph glyph-name="integral" unicode="&#x222b;" 
d="M75 -491l53 304q50 -21 89 -21q86 0 112 71q10 26 10 227v785q1 224 1 225q2 186 82 290q114 146 342 146q74 0 184 -21l-53 -303q-50 20 -91 20q-83 0 -110 -70q-10 -27 -10 -122v-882q0 -211 -1.5 -256t-8.5 -89q-27 -157 -140 -242q-106 -80 -286 -80q-103 0 -173 18z
" />
    <glyph glyph-name="uni222E" unicode="&#x222e;" 
d="M74 -491l53 304q67 -21 111 -21q49 0 82 29q30 26 34 86q2 30 2 85v114q-76 20 -153 83q-67 56 -108 141q-46 96 -46 202q0 143 80 260q83 123 227 164v118q0 202 71 309q103 154 322 154q78 0 201 -22l-53 -303q-67 20 -115 20q-80 0 -105 -71q-9 -26 -9 -99v-105
q90 -27 148 -77q73 -60 115 -148q45 -95 45 -200q0 -143 -78 -260q-84 -125 -230 -166v-132q0 -122 -15 -197q-25 -133 -130 -215q-51 -40 -102 -54q-69 -20 -167 -20q-94 0 -180 21zM668 811v-555q51 24 82 56q85 89 85 221q0 141 -91 226q-38 36 -76 52zM356 256v555
q-45 -19 -79 -54q-87 -90 -87 -223q0 -141 93 -228q37 -34 73 -50z" />
    <glyph glyph-name="uni2236" unicode="&#x2236;" horiz-adv-x="922" 
d="M463 1197q47 0 83 -34q36 -35 36 -86t-37 -87q-35 -34 -83 -34t-83 34q-38 36 -38 86q0 53 36 87q37 34 86 34zM462 537q51 0 87 -38q32 -34 32 -82q0 -52 -37 -87q-35 -34 -84 -34q-48 0 -83 34q-37 35 -37 87q0 49 32 82q37 38 90 38z" />
    <glyph glyph-name="similar" unicode="&#x223c;" 
d="M180 470l-164 137q36 92 83 159q92 131 228 131q66 0 229 -67q117 -48 151 -48q74 0 138 121l163 -137q-46 -112 -82 -160q-96 -129 -236 -129q-39 0 -90 16q-39 12 -141 55t-146 43q-69 0 -133 -121z" />
    <glyph glyph-name="approxequal" unicode="&#x2248;" 
d="M180 713l-164 115q37 93 83 159q92 131 228 131q66 0 229 -67q87 -36 103 -40q27 -8 48 -8q44 0 79 28q20 16 59 71l163 -115q-56 -136 -115 -200q-82 -87 -207 -87q-46 0 -101 18q-36 12 -126 51q-101 43 -147 43q-42 0 -75 -30q-25 -21 -57 -69zM180 249l-164 116
q36 92 83 159q92 131 228 131q67 0 229 -67q88 -36 103 -41q27 -7 48 -7q43 0 79 27q19 15 59 71l163 -115q-56 -135 -115 -199q-82 -87 -206 -87q-47 0 -102 18q-34 12 -126 51q-101 43 -147 43q-42 0 -75 -30q-24 -21 -57 -70z" />
    <glyph glyph-name="notequal" unicode="&#x2260;" 
d="M523 995l143 268l210 -114l-86 -154h166v-283h-280l-82 -148h361v-283h-464l-124 -228l-209 115l65 113h-155v283h258l83 148h-340v283h454z" />
    <glyph glyph-name="equivalence" unicode="&#x2261;" 
d="M68 1260h887v-297h-887v297zM68 831h887v-297h-887v297zM68 402h887v-297h-887v297z" />
    <glyph glyph-name="lessequal" unicode="&#x2264;" 
d="M955 1341v-316l-518 -157l516 -155l2 -316l-887 331v283zM955 343v-297h-887v297h887z" />
    <glyph glyph-name="greaterequal" unicode="&#x2265;" 
d="M68 397l2 316l516 155l-518 157v316l887 -330v-283zM68 46v297h887v-297h-887z" />
    <glyph glyph-name="dotmath" unicode="&#x22c5;" horiz-adv-x="563" 
d="M283 681q77 0 125 -52q46 -50 46 -123q0 -80 -59 -131q-45 -39 -113 -39q-79 0 -127 52q-46 50 -46 120q0 82 59 134q45 39 115 39z" />
    <glyph glyph-name="house" unicode="&#x2302;" horiz-adv-x="1538" 
d="M172 0v821l597 672l597 -672v-821h-1194zM276 104h986v672l-493 553l-493 -553v-672z" />
    <glyph glyph-name="revlogicalnot" unicode="&#x2310;" 
d="M398 0h-330v601h887v-297h-557v-304z" />
    <glyph glyph-name="uni2319" unicode="&#x2319;" 
d="M398 601v-304h557v-297h-887v601h330z" />
    <glyph glyph-name="integraltp" unicode="&#x2320;" 
d="M684 -512h-345v1387q1 210 1 225q2 188 82 290q115 146 342 146q74 0 184 -21l-52 -303q-51 20 -92 20q-83 0 -110 -70q-10 -27 -10 -122v-1552z" />
    <glyph glyph-name="integralbt" unicode="&#x2321;" 
d="M339 1536h345v-1387q-1 -210 -1 -225q-2 -188 -82 -290q-115 -146 -342 -146q-74 0 -184 21l53 303q50 -20 91 -20q83 0 110 70q10 27 10 122v1552z" />
    <glyph glyph-name="filledbox" unicode="&#x25a0;" horiz-adv-x="1365" 
d="M1365 0h-1365v1365h1365v-1365z" />
    <glyph glyph-name="uni25A1" unicode="&#x25a1;" horiz-adv-x="1365" 
d="M1365 0h-1365v1365h1365v-1365zM1269 96v1173h-1173v-1173h1173z" />
    <glyph glyph-name="H18551" unicode="&#x25ab;" horiz-adv-x="688" 
d="M27 1073h205v199h225v-199h204v-210h-204v-199h-225v199h-205v210z" />
    <glyph glyph-name="filledrect" unicode="&#x25ac;" horiz-adv-x="1365" 
d="M1365 683v-683h-1365v683h1365z" />
    <glyph glyph-name="uni25AE" unicode="&#x25ae;" horiz-adv-x="1365" 
d="M1024 0h-683v1365h683v-1365z" />
    <glyph glyph-name="uni25AF" unicode="&#x25af;" horiz-adv-x="1365" 
d="M684 1207q219 0 376 -153q156 -153 156 -370q0 -216 -154 -370q-157 -156 -378 -156q-224 0 -380 156q-154 154 -154 377q0 142 78 267q77 123 213 191q114 58 243 58z" />
    <glyph glyph-name="triagup" unicode="&#x25b2;" horiz-adv-x="1365" 
d="M1297 137h-1229l615 1150z" />
    <glyph glyph-name="uni25B4" unicode="&#x25b4;" 
d="M956 300h-888l444 830z" />
    <glyph glyph-name="uni25B8" unicode="&#x25b8;" 
d="M146 243v888l830 -444z" />
    <glyph glyph-name="triagdn" unicode="&#x25bc;" horiz-adv-x="1365" 
d="M68 1229h1229l-615 -1150z" />
    <glyph glyph-name="uni25BE" unicode="&#x25be;" 
d="M68 1065h887l-443 -830z" />
    <glyph glyph-name="uni25C2" unicode="&#x25c2;" 
d="M878 1131v-888l-830 444z" />
    <glyph glyph-name="lozenge" unicode="&#x25ca;" horiz-adv-x="1365" 
d="M683 1419l531 -736l-531 -736l-532 736zM683 1238l-404 -555l404 -554l403 554z" />
    <glyph glyph-name="circle" unicode="&#x25cb;" horiz-adv-x="1365" 
d="M684 1207q219 0 376 -153q156 -153 156 -370q0 -216 -154 -370q-157 -156 -378 -156q-224 0 -380 156q-154 154 -154 377q0 142 78 267q77 123 213 191q114 58 243 58zM683 1113q-181 0 -310 -127q-127 -124 -127 -297q0 -183 126 -309q128 -128 312 -128q181 0 310 128
q126 126 126 304q0 181 -128 303q-131 126 -309 126z" />
    <glyph glyph-name="invbullet" unicode="&#x25d8;" horiz-adv-x="1365" 
d="M0 0v1365h1365v-1365h-1365zM687 969q-120 0 -202 -83q-84 -84 -84 -204q0 -119 84 -203q83 -83 198 -83q116 0 199 84q82 84 82 203q0 121 -83 203q-84 83 -194 83z" />
    <glyph glyph-name="invcircle" unicode="&#x25d9;" horiz-adv-x="1365" 
d="M1365 0h-1365v1365h1365v-1365zM683 1207q-220 0 -378 -154q-155 -152 -155 -362q0 -224 154 -377q156 -156 379 -156q221 0 378 156q154 154 154 370q0 148 -79 274q-77 124 -212 192q-113 57 -241 57zM683 1113q180 0 309 -126q128 -125 128 -303q0 -177 -127 -304
q-128 -128 -310 -128q-183 0 -311 128q-127 126 -127 309q0 117 64 220q63 101 175 157q93 47 199 47z" />
    <glyph glyph-name="openbullet" unicode="&#x25e6;" 
d="M516 983q112 0 194 -83q83 -84 83 -204q0 -118 -82 -202q-83 -84 -199 -84t-198 83q-84 85 -84 203q0 122 84 204q84 83 202 83zM514 886q-79 0 -133 -55q-55 -55 -55 -135q0 -78 55 -134q55 -55 131 -55t131 56q54 55 54 133q0 81 -55 135q-55 55 -128 55z" />
    <glyph glyph-name="smileface" unicode="&#x263a;" horiz-adv-x="1365" 
d="M693 1331q166 0 314 -87q151 -89 237 -237q87 -150 87 -324t-87 -325q-87 -150 -237 -237q-151 -87 -324 -87q-174 0 -325 87t-237 237q-87 152 -87 330q0 280 215 476q183 167 444 167zM693 1245q-259 0 -427 -187q-145 -160 -145 -371q0 -255 186 -423
q160 -144 376 -144q151 0 282 75q131 76 206 206q75 131 75 282q0 246 -186 417q-87 80 -199 116q-90 29 -168 29zM491 954q39 0 66 -30q23 -25 23 -60q0 -40 -30 -67q-25 -23 -60 -23q-40 0 -67 30q-23 26 -23 61q0 38 30 66q25 23 61 23zM889 954q39 0 66 -30
q23 -26 23 -60q0 -41 -30 -68q-26 -23 -60 -23q-41 0 -68 30q-23 26 -23 61q0 39 30 67q26 23 62 23zM1106 762q-10 -137 -34 -204q-50 -139 -160 -209q-96 -61 -228 -61q-224 0 -337 169q-46 68 -65 148q-12 52 -20 157q19 -82 44 -125q58 -98 160 -152q92 -49 218 -49
q212 0 337 144q41 48 61 99q11 27 24 83z" />
    <glyph glyph-name="invsmileface" unicode="&#x263b;" horiz-adv-x="1365" 
d="M693 1331q166 0 314 -87q151 -89 237 -237q87 -149 87 -324q0 -174 -87 -325q-87 -150 -237 -237q-151 -87 -324 -87q-174 0 -325 87t-237 237q-87 152 -87 330q0 280 215 476q183 167 444 167zM491 953q-41 0 -68 -30q-23 -25 -23 -59q0 -40 30 -67q25 -23 60 -23
q40 0 67 30q23 25 23 60q0 39 -30 66q-25 23 -59 23zM889 954q-42 0 -69 -30q-23 -26 -23 -60q0 -41 30 -69q26 -23 61 -23q40 0 67 30q23 26 23 61q0 40 -30 68q-25 23 -59 23zM1106 762q-19 -82 -44 -125q-58 -98 -160 -152q-92 -49 -218 -49q-212 0 -337 144
q-41 48 -62 99q-10 27 -23 83q10 -137 34 -204q50 -138 160 -209q96 -61 228 -61q224 0 337 169q46 69 65 148q12 52 20 157z" />
    <glyph glyph-name="sun" unicode="&#x263c;" horiz-adv-x="1365" 
d="M326 968l-153 152l72 72l154 -153q104 81 232 98v215h103v-216q133 -18 233 -96l153 152l72 -72l-153 -152q78 -101 96 -232h216v-105h-216q-17 -132 -96 -233l153 -153l-72 -72l-153 153q-103 -79 -233 -97v-215h-103v216q-119 13 -233 95l-153 -152l-72 72l152 152
q-79 102 -94 234h-216v105h215q18 129 96 232zM688 1010q-150 0 -248 -108q-84 -93 -84 -216q0 -148 108 -246q93 -84 219 -84q145 0 242 108q84 94 84 220q0 143 -108 242q-92 84 -213 84z" />
    <glyph glyph-name="female" unicode="&#x2640;" horiz-adv-x="1365" 
d="M632 644q-93 14 -166 68q-72 53 -112 133t-40 170q0 155 109 265q107 109 259 109t260 -108q110 -110 110 -266q0 -122 -72 -222q-91 -125 -250 -150v-214h334v-88h-334v-341h-98v341h-330v88h330v215zM688 1293q-117 0 -197 -80q-81 -81 -81 -197q0 -115 82 -197
q79 -80 191 -80q113 0 193 81t80 196q0 117 -80 196q-82 81 -188 81z" />
    <glyph glyph-name="male" unicode="&#x2642;" horiz-adv-x="1365" 
d="M856 712q73 -99 73 -225q0 -154 -108 -263q-107 -110 -260 -110q-151 0 -259 108q-110 111 -110 267t109 266q108 108 260 108q126 0 229 -81l309 309q-104 23 -216 82q-44 23 -44 48q0 24 27 24q11 0 41 -6q89 -17 170 -17q113 0 216 27q11 3 20 3q21 0 21 -21
q0 -8 -10 -46q-21 -80 -21 -180q0 -87 18 -172q6 -29 6 -40q0 -28 -25 -28q-16 0 -26 11q-42 48 -70 126q-31 83 -39 121zM565 767q-116 0 -196 -80q-81 -81 -81 -197q0 -115 81 -197q80 -80 192 -80q113 0 192 81q80 81 80 196q0 117 -80 196q-82 81 -188 81z" />
    <glyph glyph-name="spade" unicode="&#x2660;" horiz-adv-x="1365" 
d="M220 0v38q129 24 193 50q113 46 187 166q64 104 73 268q-18 -39 -28 -56q-34 -60 -97 -101q-80 -52 -172 -52q-97 0 -169 71q-77 76 -77 185q0 93 48 165q60 92 165 180q162 136 247 265q60 92 89 225q41 -120 64 -167q38 -78 102 -148q60 -65 142 -140
q114 -103 156 -154q92 -114 92 -230q0 -89 -54 -157q-75 -94 -196 -94q-172 0 -285 207q7 -105 29 -174q39 -127 148 -208q74 -55 229 -90q17 -3 56 -11v-38h-942z" />
    <glyph glyph-name="club" unicode="&#x2663;" horiz-adv-x="1365" 
d="M1149 0h-933v38q183 33 257 85q168 117 191 346q3 34 5 93q-45 -77 -69 -108q-51 -65 -123 -105q-87 -49 -176 -49q-130 0 -219 103q-76 87 -76 208q0 129 83 219q76 82 187 82q55 0 121 -31q3 -1 55 -27q-72 108 -72 204q0 122 89 208q89 85 214 85q123 0 210 -81
q93 -87 93 -212q0 -98 -73 -204q58 28 76 36q50 22 101 22q117 0 195 -93q74 -88 74 -207q0 -141 -98 -232q-86 -80 -202 -80q-104 0 -207 71q-68 48 -123 136q-9 15 -32 55q3 -134 28 -215q37 -121 145 -207q53 -43 124 -66q52 -16 155 -36v-38z" />
    <glyph glyph-name="heart" unicode="&#x2665;" horiz-adv-x="1365" 
d="M680 -22q-35 136 -97 245q-73 126 -165 251l-118 160q-91 124 -125 186q-60 110 -60 213q0 119 79 198q76 77 186 77q153 0 245 -139q28 -43 55 -126q31 105 80 162q90 105 221 105q123 0 204 -93q66 -76 66 -175q0 -135 -99 -296q-40 -65 -126 -174q-168 -215 -247 -353
q-67 -118 -99 -241z" />
    <glyph glyph-name="diamond" unicode="&#x2666;" horiz-adv-x="1365" 
d="M682 1419q86 -158 283 -429q152 -209 237 -305q-49 -55 -267 -346q-135 -182 -253 -392q-43 87 -199 312q-119 171 -295 395l-24 31q46 54 261 337q143 189 257 397z" />
    <glyph glyph-name="musicalnote" unicode="&#x266a;" horiz-adv-x="1365" 
d="M626 319v1046h93v-124q25 -33 137 -167q186 -222 186 -460q0 -191 -116 -332h-58q67 159 67 305q0 107 -43 198q-51 107 -129 144q-18 9 -44 13v-623q0 -125 -58 -207q-39 -54 -98 -89q-71 -41 -154 -41q-87 0 -121 53q-20 33 -20 71q0 74 53 141q43 56 113 80
q44 15 82 15q58 0 110 -23z" />
    <glyph glyph-name="uni266C" unicode="&#x266c;" horiz-adv-x="1365" 
d="M1261 393q-1 -97 -35 -166q-35 -70 -100 -115q-79 -55 -175 -55q-88 0 -121 53q-19 32 -19 71q0 74 52 141q43 55 113 80q43 15 80 15q60 0 111 -24v554l-675 -185v-483q0 -125 -58 -206q-38 -54 -98 -88q-72 -41 -155 -41q-87 0 -120 53q-20 31 -20 70q0 73 53 139
q43 55 113 79q43 15 82 15q56 0 110 -21v923l862 220v-1029zM492 918l675 185v142l-675 -185v-142z" />
    <glyph glyph-name="ff" unicode="&#xfb00;" horiz-adv-x="1194" 
d="M448 691v-691h-311v691h-94v258h94v16q0 288 194 366q85 34 227 34v-288q-110 -13 -110 -112v-16h110v-258h-110zM1031 691v-691h-311v691h-94v258h94v16q0 288 194 366q85 34 228 34v-288q-111 -13 -111 -112v-16h111v-258h-111z" />
    <glyph glyph-name="fi" unicode="&#xfb01;" horiz-adv-x="1115" 
d="M448 691v-691h-311v691h-94v258h94v16q0 288 194 366q85 34 227 34v-288q-110 -13 -110 -112v-16h110v-258h-110zM999 949v-949h-311v949h311zM845 1388q74 0 120 -50q44 -48 44 -118q0 -76 -57 -125q-43 -38 -108 -38q-76 0 -122 50q-44 48 -44 115q0 79 57 128
q43 38 110 38z" />
    <glyph glyph-name="fl" unicode="&#xfb02;" horiz-adv-x="1115" 
d="M448 691v-691h-311v691h-94v258h94v16q0 288 194 366q85 34 227 34v-288q-110 -13 -110 -112v-16h110v-258h-110zM999 0h-311v1365h311v-1365z" />
    <glyph glyph-name="ffi" unicode="&#xfb03;" horiz-adv-x="1730" 
d="M448 691v-691h-311v691h-94v258h94v16q0 288 194 366q85 34 227 34v-288q-110 -13 -110 -112v-16h110v-258h-110zM1031 691v-691h-311v691h-94v258h94v16q0 288 194 366q85 34 228 34v-288q-111 -13 -111 -112v-16h111v-258h-111zM1614 949v-949h-311v949h311zM1460 1389
q75 0 121 -50q44 -48 44 -119q0 -76 -57 -125q-43 -38 -109 -38q-76 0 -122 50q-44 48 -44 116q0 78 57 128q43 38 110 38z" />
    <glyph glyph-name="ffl" unicode="&#xfb04;" horiz-adv-x="1730" 
d="M448 691v-691h-311v691h-94v258h94v16q0 288 194 366q85 34 227 34v-288q-110 -13 -110 -112v-16h110v-258h-110zM1031 691v-691h-311v691h-94v258h94v16q0 288 194 366q85 34 228 34v-288q-111 -13 -111 -112v-16h111v-258h-111zM1614 0h-311v1365h311v-1365z" />
    <glyph glyph-name="glyph1" horiz-adv-x="0" 
 />
    <glyph glyph-name="glyph2" horiz-adv-x="614" 
 />
    <glyph glyph-name="glyph155" horiz-adv-x="614" 
 />
    <glyph glyph-name="glyph172" 
 />
    <glyph glyph-name="glyph210" horiz-adv-x="614" 
 />
    <glyph glyph-name="eight.numerator" horiz-adv-x="475" 
d="M372 1094q69 -39 69 -124q0 -81 -64 -132q-56 -44 -142 -44q-98 0 -156 57q-45 45 -45 113q0 92 72 130q-56 34 -56 111q0 83 62 131q52 41 130 41q88 0 140 -52q48 -47 48 -116q0 -80 -58 -115zM241 1261q-29 0 -46 -20q-13 -15 -13 -36q0 -24 17 -40q16 -17 41 -17
q27 0 46 21q15 16 15 35q0 23 -20 42q-17 15 -40 15zM238 1031q-29 0 -48 -18q-16 -16 -16 -40q0 -26 19 -42q18 -15 45 -15q30 0 48 19q15 17 15 38q0 25 -21 43q-18 15 -42 15z" />
    <glyph glyph-name="zerozero.afrac" horiz-adv-x="601" 
d="M601 748v-133h-601v133h601zM498 1189v-211q0 -94 -55 -140q-52 -44 -141 -44q-98 0 -150 47q-49 43 -49 164v174q0 102 44 146q54 52 150 52q86 0 142 -45q59 -47 59 -143zM250 1179v-189q0 -40 7 -51q13 -21 44 -21q30 0 43 22q9 14 9 56v183q0 42 -11 56
q-13 16 -41 16q-31 0 -42 -19q-9 -15 -9 -53zM498 384v-212q0 -94 -55 -140q-52 -44 -141 -44q-98 0 -150 47q-30 27 -39 65q-10 42 -10 100v173q0 102 44 146q54 52 150 52q86 0 142 -44q59 -48 59 -143zM250 373v-189q0 -40 7 -51q13 -21 44 -21q30 0 43 22q9 14 9 56v183
q0 42 -11 56q-13 16 -41 16q-31 0 -42 -19q-9 -14 -9 -53z" />
    <glyph glyph-name="dieresis.alt" 
d="M314 1410q69 0 116 -51q40 -44 40 -109q0 -69 -52 -115q-45 -39 -105 -39q-70 0 -117 51q-40 43 -40 106q0 72 52 118q45 39 106 39zM709 1410q69 0 116 -51q40 -44 40 -109q0 -69 -52 -115q-45 -39 -105 -39q-70 0 -117 51q-40 43 -40 106q0 72 52 118q45 39 106 39z
" />
    <glyph glyph-name="comma.high" horiz-adv-x="362" 
d="M298 1328l-150 -431l-205 49l91 446z" />
    <glyph glyph-name="commaaccent" 
d="M645 -120v-117q0 -91 -25 -140q-39 -78 -164 -99q-30 -6 -85 -11v95q13 2 89 14q57 9 65 87h-146v171h266z" />
    <glyph glyph-name="nine.denominator" horiz-adv-x="476" 
d="M215 214q-41 1 -77 15q-57 22 -84 76q-19 35 -19 78q0 83 62 136q60 52 145 52q99 0 156 -67q43 -49 43 -118q0 -80 -76 -189l-138 -197h-164zM241 446q-28 0 -48 -18q-18 -16 -18 -40q0 -26 20 -43q17 -15 42 -15q33 0 52 22q14 15 14 35q0 25 -19 42t-43 17z" />
    <glyph glyph-name="eight.denominator" horiz-adv-x="475" 
d="M372 288q69 -38 69 -123q0 -82 -64 -132q-56 -45 -142 -45q-98 0 -156 57q-45 45 -45 114q0 92 72 129q-56 35 -56 111q0 83 62 132q52 40 130 40q88 0 140 -52q48 -46 48 -116q0 -79 -58 -115zM241 455q-29 0 -46 -20q-13 -15 -13 -35q0 -24 17 -41q16 -16 41 -16
q28 0 46 21q15 15 15 35q0 23 -20 41q-16 15 -40 15zM238 226q-29 0 -48 -18q-16 -16 -16 -40q0 -27 19 -43q18 -15 45 -15q30 0 48 20q15 17 15 38q0 25 -21 43q-18 15 -42 15z" />
    <glyph glyph-name="seven.denominator" horiz-adv-x="476" 
d="M239 438h-174v122h378l-240 -560h-151z" />
    <glyph glyph-name="six.denominator" horiz-adv-x="476" 
d="M418 560l-153 -214h12q48 0 93 -31q70 -48 70 -136q0 -87 -71 -144q-58 -47 -137 -47q-95 0 -151 62q-46 51 -46 120q0 80 76 189l141 201h166zM240 233q-31 0 -51 -20q-17 -18 -17 -41q0 -25 19 -42q17 -15 45 -15q34 0 53 22q14 17 14 37q0 25 -17 42q-19 17 -46 17z
" />
    <glyph glyph-name="five.denominator" horiz-adv-x="476" 
d="M198 439v-94q31 12 65 12q74 0 124 -52q49 -49 49 -123q0 -101 -76 -156q-52 -38 -125 -38q-90 0 -146 55q-29 28 -52 85l126 43q19 -55 67 -55q27 0 44 18q19 18 19 44q0 25 -17 43q-19 21 -47 21q-36 0 -57 -31h-107v349h339v-121h-206z" />
    <glyph glyph-name="four.denominator" horiz-adv-x="476" 
d="M249 107h-212v111l186 342h167v-338h48v-115h-48v-107h-141v107zM257 217v184l-104 -184h104z" />
    <glyph glyph-name="three.denominator" horiz-adv-x="475" 
d="M205 445h-151v115h392l-162 -207q51 -7 88 -37q60 -49 60 -133q0 -88 -63 -144q-56 -51 -142 -51q-117 0 -170 81q-24 37 -29 102h132q7 -62 63 -62q31 0 53 22q16 16 16 43t-16 45q-20 22 -53 22q-26 0 -46 -13l-89 68z" />
    <glyph glyph-name="ahungarumlaut" horiz-adv-x="1274" 
d="M847 846v103h311v-949h-311v106q-125 -144 -322 -144q-225 0 -358 168q-107 135 -107 330q0 152 71 282q59 109 163 174q114 70 257 70q106 0 190 -49q50 -30 106 -91zM620 728q-112 0 -174 -87q-54 -76 -54 -174q0 -121 74 -196q64 -64 152 -64q104 0 173 87
q61 77 61 177q0 126 -80 201q-61 56 -152 56zM515 1381h261l-250 -285h-158zM896 1381h261l-250 -285h-158z" />
    <glyph glyph-name="two.denominator" horiz-adv-x="476" 
d="M268 118h146v-118h-393l215 310q45 64 45 92q0 46 -52 46q-41 0 -54 -32q-7 -17 -7 -54h-134q-1 12 -1 18q0 92 65 146q54 45 139 45q95 0 151 -56q41 -41 41 -101q0 -71 -77 -179z" />
    <glyph glyph-name="Dieresis.alt" 
d="M316 1813q69 0 116 -51q42 -46 42 -110q0 -70 -55 -118q-44 -39 -104 -39q-70 0 -117 51q-42 47 -42 108q0 71 55 120q43 39 105 39zM705 1813q69 0 116 -51q42 -46 42 -110q0 -70 -55 -118q-44 -39 -104 -39q-70 0 -117 51q-42 47 -42 108q0 71 55 120q43 39 105 39z
" />
    <glyph glyph-name="Comma.high" horiz-adv-x="362" 
d="M298 1328l-150 -431l-205 49l91 446z" />
    <glyph glyph-name="commaaccent.sc" 
d="M649 -86v-132q0 -162 -97 -215q-58 -31 -185 -35v94q78 4 116 21q41 19 47 82h-157v185h276z" />
    <glyph glyph-name="Macron" 
d="M157 1554v176h710v-176h-710z" />
    <glyph glyph-name="Ogonek" 
d="M715 0h201q-144 -111 -144 -182q0 -27 25 -44q24 -16 67 -16q36 0 77 11l18 -170q-82 -24 -155 -24q-108 0 -176 48q-72 51 -72 135q0 134 159 242z" />
    <glyph glyph-name="Cedilla" 
d="M404 -437l-142 107q113 53 162 109q34 40 48 95l289 -79q-54 -73 -125 -124q-92 -66 -232 -108z" />
    <glyph glyph-name="Hungarumlaut" 
d="M375 1766h267l-268 -271h-174zM755 1766h267l-267 -271h-175z" />
    <glyph glyph-name="Tilde" 
d="M696 1762h200q-13 -85 -35 -127q-37 -76 -103 -111q-43 -23 -89 -23q-44 0 -152 35q-91 29 -111 29q-49 0 -51 -63h-199q9 84 31 126q36 71 105 107q46 24 92 24q39 0 126 -31q100 -36 121 -36q46 0 65 70z" />
    <glyph glyph-name="Breve" 
d="M142 1767h205q24 -39 45 -57q47 -40 120 -40q74 0 121 40q21 19 45 57h204q-28 -92 -76 -147q-110 -125 -294 -125t-294 125q-47 55 -76 147z" />
    <glyph glyph-name="Caron" 
d="M509 1645l166 124h205l-235 -274h-282l-219 274h205z" />
    <glyph glyph-name="Circumflex" 
d="M515 1619l-166 -124h-205l236 274h281l219 -274h-205z" />
    <glyph glyph-name="Grave" 
d="M472 1769l198 -274h-205l-301 274h308z" />
    <glyph glyph-name="Acute" 
d="M553 1769h308l-301 -274h-205z" />
    <glyph glyph-name="Ring" 
d="M514 1842q87 0 150 -65q51 -53 51 -136q0 -88 -67 -144q-60 -50 -135 -50q-90 0 -152 64q-51 54 -51 134q0 90 67 147q59 50 137 50zM513 1735q-43 0 -70 -32q-23 -26 -23 -58q0 -39 30 -67q26 -24 63 -24q43 0 69 32q23 26 23 57q0 39 -30 68q-25 24 -62 24z" />
    <glyph glyph-name="Dotaccent" 
d="M511 1813q69 0 116 -51q42 -46 42 -110q0 -70 -55 -118q-44 -39 -104 -39q-70 0 -117 51q-42 47 -42 108q0 71 55 120q43 39 105 39z" />
    <glyph glyph-name="Dieresis" 
d="M289 1813q69 0 116 -51q42 -46 42 -110q0 -70 -55 -118q-44 -39 -104 -39q-70 0 -117 51q-42 47 -42 108q0 71 55 120q43 39 105 39zM733 1813q69 0 116 -51q42 -46 42 -110q0 -70 -55 -118q-44 -39 -104 -39q-70 0 -117 51q-42 47 -42 108q0 71 55 120q43 39 105 39z
" />
    <glyph glyph-name="commasuperior" horiz-adv-x="368" 
d="M313 701l-107 -300l-134 28l57 313z" />
    <glyph glyph-name="periodsuperior" horiz-adv-x="368" 
d="M185 749q50 0 81 -34q29 -32 29 -78q0 -51 -38 -84q-29 -25 -72 -25q-51 0 -82 33q-29 32 -29 78q0 52 38 85q29 25 73 25z" />
    <glyph glyph-name="one.denominator" horiz-adv-x="476" 
d="M208 388l-97 -40v125l244 105v-578h-147v388z" />
    <glyph glyph-name="zero.numerator" horiz-adv-x="475" 
d="M436 1189v-211q0 -94 -55 -140q-52 -44 -141 -44q-99 0 -151 47q-49 43 -49 164v174q0 102 45 146q53 52 150 52q86 0 142 -45q59 -47 59 -143zM187 1179v-189q0 -40 7 -51q13 -21 45 -21q30 0 43 22q9 14 9 56v183q0 42 -11 56q-13 16 -41 16q-31 0 -43 -19
q-9 -15 -9 -53z" />
    <glyph glyph-name="Dbreve" horiz-adv-x="1327" 
d="M130 0v1365h399q247 0 386 -69q172 -87 264 -260q79 -150 79 -340q0 -230 -111 -410q-176 -286 -580 -286h-437zM462 1099v-827h51q163 0 269 90q69 60 106 149q34 82 34 174q0 128 -64 238q-57 97 -165 142q-82 34 -167 34h-64zM204 1767h205q24 -39 45 -57
q47 -40 120 -40q74 0 121 40q21 19 45 57h205q-29 -92 -77 -147q-109 -125 -294 -125q-184 0 -293 125q-48 55 -77 147z" />
    <glyph glyph-name="one.numerator" horiz-adv-x="476" 
d="M208 1193l-97 -39v124l244 105v-577h-147v387z" />
    <glyph glyph-name="oneone" horiz-adv-x="1620" 
d="M297 1114l-139 -58v182l349 153v-845h-210v568zM1296 1338l-884 -1365l-88 56l883 1363zM1239 568l-140 -58v182l350 153v-845h-210v568z" />
    <glyph glyph-name="two.numerator" horiz-adv-x="476" 
d="M268 924h146v-118h-393l215 309q45 64 45 92q0 47 -52 47q-41 0 -54 -33q-7 -17 -7 -54h-134q-1 12 -1 19q0 91 65 146q54 45 139 45q95 0 151 -56q41 -41 41 -101q0 -72 -77 -179z" />
    <glyph glyph-name="three.numerator" horiz-adv-x="475" 
d="M205 1250h-151v115h392l-162 -207q51 -7 88 -36q60 -49 60 -133q0 -88 -63 -145q-56 -50 -142 -50q-117 0 -170 81q-24 37 -29 102h132q6 -61 63 -61q31 0 53 22q16 16 16 42q0 28 -16 45q-20 22 -53 22q-26 0 -46 -13l-89 67z" />
    <glyph glyph-name="nine.numerator" horiz-adv-x="476" 
d="M215 1020q-41 1 -77 15q-57 22 -84 75q-19 36 -19 79q0 83 62 136q60 52 145 52q99 0 156 -67q43 -49 43 -118q0 -81 -76 -189l-138 -197h-164zM241 1252q-28 0 -48 -18q-18 -17 -18 -40q0 -27 20 -44q17 -15 42 -15q33 0 52 22q14 15 14 36q0 24 -19 42q-18 17 -43 17z
" />
    <glyph glyph-name="four.numerator" horiz-adv-x="476" 
d="M249 913h-212v111l186 341h167v-337h48v-115h-48v-107h-141v107zM257 1023v184l-104 -184h104z" />
    <glyph glyph-name="five.numerator" horiz-adv-x="476" 
d="M198 1244v-94q31 12 65 12q74 0 124 -52q49 -49 49 -123q0 -99 -76 -155q-52 -38 -125 -38q-90 0 -146 55q-29 27 -52 84l126 44q19 -55 67 -55q27 0 44 17q19 19 19 44t-17 43q-19 21 -47 21q-36 0 -57 -31h-107v349h339v-121h-206z" />
    <glyph glyph-name="six.numerator" horiz-adv-x="476" 
d="M418 1365l-153 -214q41 0 73 -14q54 -23 81 -71q21 -38 21 -81q0 -87 -71 -144q-58 -47 -137 -47q-94 0 -151 62q-46 51 -46 120q0 79 76 188l141 201h166zM240 1039q-31 0 -51 -20q-17 -18 -17 -41q0 -25 19 -42q17 -15 45 -15q34 0 53 22q14 17 14 37q0 25 -17 42
q-19 17 -46 17z" />
    <glyph glyph-name="seven.numerator" horiz-adv-x="476" 
d="M239 1243h-174v122h378l-240 -559h-151z" />
    <glyph glyph-name="zero.denominator" horiz-adv-x="475" 
d="M436 384v-212q0 -94 -55 -140q-52 -44 -141 -44q-99 0 -151 47q-30 27 -39 65q-10 42 -10 100v173q0 102 45 146q53 52 150 52q86 0 142 -44q59 -48 59 -143zM187 373v-189q0 -40 7 -51q13 -21 45 -21q30 0 43 22q9 15 9 56v183q0 42 -11 56q-13 16 -41 16q-32 0 -43 -19
q-9 -14 -9 -53z" />
  </font>
</defs>
</svg>
