<?xml version="1.0" standalone="no"?>
<!DOCTYPE svg PUBLIC "-//W3C//DTD SVG 1.1//EN" "http://www.w3.org/Graphics/SVG/1.1/DTD/svg11.dtd" >
<svg xmlns="http://www.w3.org/2000/svg" xmlns:xlink="http://www.w3.org/1999/xlink" version="1.1">
<metadata>
Created by FontForge 20170731 at Tue Apr 10 23:41:42 2012
 By Aleksey,,,
(URW)++,Copyright 2006 by (URW)++ Design &#38; Development
</metadata>
<defs>
<font id="NeuzeitGro-Bol" horiz-adv-x="1024" >
  <font-face 
    font-family="NeuzeitGro-Bol"
    font-weight="400"
    font-stretch="normal"
    units-per-em="2048"
    panose-1="0 0 0 0 0 0 0 0 0 0"
    ascent="1525"
    descent="-523"
    x-height="947"
    cap-height="1365"
    bbox="-362 -512 1993 1821"
    underline-thickness="170"
    underline-position="-291"
    unicode-range="U+0020-FB04"
  />
<missing-glyph horiz-adv-x="614" 
d="M61 0v1365h492v-1365h-492zM492 61v1243h-370v-1243h370z" />
    <glyph glyph-name=".notdef" horiz-adv-x="614" 
d="M61 0v1365h492v-1365h-492zM492 61v1243h-370v-1243h370z" />
    <glyph glyph-name=".null" horiz-adv-x="0" 
 />
    <glyph glyph-name="nonmarkingreturn" horiz-adv-x="682" 
 />
    <glyph glyph-name="space" unicode=" " horiz-adv-x="614" 
 />
    <glyph glyph-name="exclam" unicode="!" horiz-adv-x="588" 
d="M422 1365v-939h-256v939h256zM295 276q67 0 110 -46q40 -43 40 -108q0 -69 -52 -114q-40 -34 -99 -34q-69 0 -111 46q-40 43 -40 105q0 72 52 117q39 34 100 34z" />
    <glyph glyph-name="quotedbl" unicode="&#x22;" horiz-adv-x="844" 
d="M320 818h-203l-51 547h306zM727 818h-203l-51 547h306z" />
    <glyph glyph-name="numbersign" unicode="#" 
d="M916 602v-138h-197l-60 -409h-140l59 409h-180l-59 -409h-139l59 409h-198v138h219l27 182h-194v139h214l56 381h137l-54 -381h179l56 381h140l-56 -381h178v-139h-198l-25 -182h176zM627 786h-183l-26 -186h181z" />
    <glyph glyph-name="dollar" unicode="$" 
d="M551 1139v-347q144 -50 227 -100q73 -43 119 -118q48 -79 48 -180q0 -154 -106 -267q-80 -87 -213 -115q-26 -5 -75 -12v-180h-97v180q-168 12 -277 124q-91 93 -99 258h234q1 -133 142 -166v357q-128 45 -208 95q-169 106 -169 304q0 135 81 239q103 133 296 147v145h97
v-145q203 -35 288 -135q77 -89 84 -224h-231q-6 62 -37 92q-39 37 -104 48zM454 1139q-56 -7 -86 -32q-57 -45 -57 -120q0 -76 57 -118q25 -19 86 -43v313zM551 216q59 8 94 38q55 48 55 125q0 74 -58 116q-32 23 -91 42v-321z" />
    <glyph glyph-name="percent" unicode="%" horiz-adv-x="1391" 
d="M587 1120v-218q0 -124 -65 -189q-65 -66 -186 -66q-128 0 -195 67q-39 39 -49 94q-10 53 -10 125v175q0 145 57 205q68 72 192 72q111 0 183 -62q47 -41 61 -93q12 -44 12 -110zM243 1108v-185q0 -73 12 -95q22 -38 80 -38t79 41q14 26 14 96v186q0 71 -21 98
q-22 28 -70 28q-58 0 -78 -34q-16 -25 -16 -97zM1308 452v-218q0 -124 -64 -189q-66 -66 -186 -66q-127 0 -195 67q-39 39 -49 94q-10 53 -10 125v175q0 145 57 205q68 72 192 72q112 0 182 -62q47 -42 61 -93q12 -43 12 -110zM965 440v-185q0 -73 13 -95q21 -38 79 -38
t79 41q14 26 14 96v186q0 71 -21 98q-22 28 -70 28q-58 0 -78 -33q-16 -26 -16 -98zM1186 1337l-901 -1361l-81 53l900 1360z" />
    <glyph glyph-name="ampersand" unicode="&#x26;" horiz-adv-x="1306" 
d="M1044 289l228 -289h-300l-105 132q-208 -168 -390 -168q-170 0 -284 108q-118 112 -118 286q0 133 68 224q67 90 229 194q-54 77 -76 122q-37 77 -37 155q0 136 107 218q97 73 236 73q157 0 249 -90q85 -83 85 -198q0 -111 -81 -210q-45 -55 -145 -122l189 -251
q108 96 201 202l172 -154q-113 -125 -228 -232zM577 899q51 31 75 55q46 45 46 97q0 45 -30 73q-25 22 -61 22q-50 0 -80 -36q-22 -26 -22 -60q0 -37 20 -77q9 -19 25 -39q26 -36 27 -35zM502 591q-73 -47 -109 -82q-61 -60 -61 -133q0 -65 45 -117q51 -59 129 -59
q107 0 210 117z" />
    <glyph glyph-name="quotesingle" unicode="'" horiz-adv-x="446" 
d="M329 818h-212l-51 547h315z" />
    <glyph glyph-name="parenleft" unicode="(" horiz-adv-x="669" 
d="M591 -318l-178 -151q-338 448 -338 942q0 316 141 633q69 155 151 257q19 23 59 67l165 -156q-282 -373 -282 -812q0 -417 282 -780z" />
    <glyph glyph-name="parenright" unicode=")" horiz-adv-x="669" 
d="M79 1279l177 151q339 -446 339 -942q0 -317 -141 -633q-70 -156 -151 -257q-19 -23 -59 -67l-165 156q282 371 282 811q0 420 -282 781z" />
    <glyph glyph-name="asterisk" unicode="*" horiz-adv-x="848" 
d="M421 939l-115 -164l-125 87l119 164l-187 60l51 137l184 -54v196h145v-196l192 68l51 -136l-206 -75l136 -164l-113 -87z" />
    <glyph glyph-name="plus" unicode="+" 
d="M26 794h415v406h140v-406h418v-135h-418v-406h-140v406h-415v135z" />
    <glyph glyph-name="comma" unicode="," horiz-adv-x="534" 
d="M425 220l-182 -490l-177 41l118 508z" />
    <glyph glyph-name="hyphen" unicode="-" horiz-adv-x="454" 
d="M454 614v-230h-454v230h454z" />
    <glyph glyph-name="period" unicode="." horiz-adv-x="534" 
d="M268 276q67 0 110 -46q40 -43 40 -108q0 -69 -52 -114q-40 -34 -99 -34q-69 0 -111 46q-40 43 -40 105q0 72 52 117q39 34 100 34z" />
    <glyph glyph-name="slash" unicode="/" horiz-adv-x="804" 
d="M752 1365l-679 -1790h-181l679 1790h181z" />
    <glyph glyph-name="zero" unicode="0" 
d="M940 944v-530q0 -159 -48 -248q-105 -193 -376 -193q-214 0 -329 115q-66 65 -83 153q-19 98 -19 234v437q0 177 39 265q49 110 167 165q96 44 216 44q191 0 310 -106q77 -69 102 -158q21 -74 21 -178zM349 911v-466q0 -95 8 -123q15 -53 65 -82q43 -25 93 -25
q95 0 137 69q29 47 29 164v476q0 88 -16 125q-39 91 -150 91q-97 0 -138 -67q-28 -46 -28 -162z" />
    <glyph glyph-name="one" unicode="1" 
d="M480 1016l-247 -131v242l511 267v-1394h-264v1016z" />
    <glyph glyph-name="two" unicode="2" 
d="M500 231h387v-231h-830l477 728q76 116 96 158q30 60 30 110q0 67 -46 110q-45 42 -117 42q-117 0 -154 -96q-17 -45 -19 -131h-241q-1 144 49 245q110 220 381 220q112 0 210 -46q113 -53 166 -160q35 -70 35 -157q0 -105 -41 -196q-46 -103 -127 -222z" />
    <glyph glyph-name="three" unicode="3" 
d="M512 1135h-393v224h831l-378 -510q136 -11 226 -88q139 -119 139 -324q0 -212 -145 -348q-124 -116 -309 -116q-166 0 -282 92q-103 82 -136 217q-7 31 -14 89l236 8q10 -63 43 -103q56 -66 144 -66q95 0 159 70q51 56 51 139q0 88 -53 146q-60 64 -157 64
q-70 0 -125 -36l-148 125z" />
    <glyph glyph-name="four" unicode="4" 
d="M573 280h-501v218l479 873h275v-866h125v-225h-125v-280h-253v280zM573 505v508l-287 -508h287z" />
    <glyph glyph-name="five" unicode="5" 
d="M381 1122v-293q87 37 170 37q166 0 280 -119q117 -121 117 -310q0 -146 -72 -264q-60 -97 -163 -150q-98 -50 -215 -50q-189 0 -314 124q-65 64 -113 188l228 86q57 -150 191 -150q88 0 145 64q55 61 55 147q0 85 -54 146q-58 65 -148 65q-103 0 -174 -93h-172v809h698
v-237h-459z" />
    <glyph glyph-name="six" unicode="6" 
d="M855 1359l-350 -539q43 12 73 12q153 0 262 -112q116 -118 116 -293q0 -121 -62 -228q-60 -104 -161 -164q-106 -62 -231 -62q-207 0 -334 152q-101 121 -101 287q0 99 40 205q31 80 110 204l340 538h298zM515 614q-92 0 -152 -68q-48 -55 -48 -130q0 -88 61 -147
q53 -50 133 -50q99 0 156 74q43 56 43 123q0 83 -54 140q-55 58 -139 58z" />
    <glyph glyph-name="seven" unicode="7" 
d="M586 1122h-441v237h807l-537 -1359h-273z" />
    <glyph glyph-name="eight" unicode="8" 
d="M758 715q197 -87 197 -320q0 -196 -136 -314q-124 -108 -311 -108q-125 0 -233 55q-109 56 -164 162q-42 82 -42 190q0 247 204 335q-70 34 -109 94q-53 82 -53 188q0 184 130 294q113 95 279 95q187 0 300 -119q102 -107 102 -262q0 -110 -58 -198q-38 -58 -106 -92z
M519 1160q-85 0 -133 -59q-38 -46 -38 -105q0 -75 54 -125q49 -46 114 -46q80 0 133 62q41 48 41 106q0 69 -57 123q-46 44 -114 44zM514 590q-88 0 -144 -63q-48 -54 -48 -127q0 -85 58 -139q54 -50 132 -50q88 0 143 63q47 54 47 126q0 81 -59 138q-55 52 -129 52z" />
    <glyph glyph-name="nine" unicode="9" 
d="M524 536q-36 -7 -61 -7q-142 0 -249 87q-147 119 -147 321q0 194 134 322q131 127 319 127q210 0 339 -155q99 -118 99 -287q0 -101 -40 -207q-33 -85 -107 -202l-336 -535h-296zM519 1143q-90 0 -149 -66q-50 -55 -50 -129q0 -89 64 -148q52 -48 128 -48q97 0 156 72
q41 52 41 121q0 86 -59 143q-56 55 -131 55z" />
    <glyph glyph-name="colon" unicode=":" horiz-adv-x="534" 
d="M268 276q67 0 110 -46q40 -43 40 -108q0 -69 -52 -114q-40 -34 -99 -34q-69 0 -111 46q-40 43 -40 105q0 72 52 117q39 34 100 34zM268 949q67 0 110 -46q40 -43 40 -108q0 -69 -52 -114q-40 -34 -99 -34q-69 0 -111 46q-40 43 -40 105q0 72 52 117q39 34 100 34z" />
    <glyph glyph-name="semicolon" unicode=";" horiz-adv-x="534" 
d="M425 220l-182 -490l-177 41l118 508zM294 918q67 0 110 -46q40 -43 40 -108q0 -69 -52 -114q-40 -34 -99 -34q-69 0 -111 46q-40 43 -40 105q0 72 52 117q39 34 100 34z" />
    <glyph glyph-name="less" unicode="&#x3c;" 
d="M955 1267v-282l-588 -296l587 -297l1 -279l-887 458v238z" />
    <glyph glyph-name="equal" unicode="=" 
d="M25 945h973v-131h-973v131zM25 641h973v-131h-973v131z" />
    <glyph glyph-name="greater" unicode="&#x3e;" 
d="M69 113v281l588 296l-586 297l-2 280l887 -459v-237z" />
    <glyph glyph-name="question" unicode="?" horiz-adv-x="915" 
d="M541 445h-262q-1 51 -1 73q0 114 29 173q22 43 62 82q25 24 96 79q63 49 84 82q25 39 25 83q0 58 -37 96q-37 40 -101 40q-79 0 -119 -61q-22 -35 -22 -94h-243q2 115 41 193q98 197 349 197q122 0 226 -59q96 -54 140 -154q31 -69 31 -154q0 -125 -69 -215
q-41 -53 -114 -106q-66 -49 -82 -68q-34 -42 -34 -115l1 -24v-48zM413 276q67 0 110 -46q40 -43 40 -108q0 -69 -52 -114q-40 -34 -99 -34q-69 0 -111 46q-40 43 -40 105q0 72 52 117q39 34 100 34z" />
    <glyph glyph-name="at" unicode="@" horiz-adv-x="1579" 
d="M1339 381h100q-54 -113 -110 -175q-143 -162 -384 -206q-70 -13 -140 -13q-229 0 -412 146q-115 92 -182 215q-84 154 -84 329q0 196 106 363q144 226 380 301q109 34 225 34q162 0 299 -72q204 -109 283 -308q37 -92 37 -188q0 -132 -62 -252q-86 -166 -258 -243
q-86 -39 -161 -39q-129 0 -139 108q-53 -43 -85 -63q-74 -44 -147 -44q-98 0 -160 68q-62 69 -62 185q0 192 120 369q62 92 153 147q80 48 176 48q76 0 128 -38q19 -15 51 -49l20 53h178l-213 -567q-26 -70 -26 -99q0 -38 51 -38q54 0 120 42q109 69 168 199q45 98 45 202
q0 200 -158 341q-155 139 -367 139q-244 0 -420 -174q-180 -177 -180 -431q0 -253 189 -428q170 -157 394 -157q227 0 394 142q59 51 133 153zM849 585l103 263q9 23 9 51q0 106 -87 106q-58 0 -118 -64q-85 -90 -146 -236q-63 -151 -63 -253q0 -93 84 -93q39 0 71 24
q96 72 147 202z" />
    <glyph glyph-name="A" unicode="A" horiz-adv-x="1295" 
d="M907 236h-526l-81 -236h-297l472 1365h350l466 -1365h-308zM833 466l-189 565l-191 -565h380z" />
    <glyph glyph-name="B" unicode="B" horiz-adv-x="1172" 
d="M833 683q105 -23 161 -73q99 -89 99 -246q0 -136 -71 -231q-66 -86 -179 -115q-72 -18 -197 -18h-503v1365h441q243 0 347 -79q132 -99 132 -286q0 -143 -87 -235q-49 -51 -143 -82zM423 1152v-366h112q132 0 189 48t57 137q0 75 -42 122q-51 59 -218 59h-98zM423 577
v-371h137q93 0 135 13q115 38 115 169q0 111 -78 157q-55 32 -188 32h-121z" />
    <glyph glyph-name="C" unicode="C" horiz-adv-x="1300" 
d="M1087 373l170 -193q-102 -96 -192 -139q-143 -68 -316 -68q-304 0 -489 205q-101 111 -149 266q-35 115 -35 236q0 202 94 375q93 173 262 262q141 74 322 74q184 0 332 -76q83 -42 184 -140l-183 -185q-156 142 -320 142q-187 0 -302 -135q-105 -123 -105 -311
q0 -140 65 -254q51 -91 148 -146q95 -54 209 -54q183 0 305 141z" />
    <glyph glyph-name="D" unicode="D" horiz-adv-x="1312" 
d="M143 0v1365h387q231 0 370 -70q172 -86 261 -262q75 -147 75 -335q0 -236 -111 -414q-177 -284 -579 -284h-403zM423 1138v-907h54q152 0 238 41q119 57 183 180q54 104 54 237q0 149 -66 262q-61 104 -175 151q-85 36 -185 36h-103z" />
    <glyph glyph-name="E" unicode="E" horiz-adv-x="949" 
d="M376 1136v-336h479v-229h-479v-342h479v-229h-759v1365h759v-229h-479z" />
    <glyph glyph-name="F" unicode="F" horiz-adv-x="957" 
d="M423 1136v-336h480v-229h-480v-571h-280v1365h760v-229h-480z" />
    <glyph glyph-name="G" unicode="G" horiz-adv-x="1541" 
d="M796 766h683q1 -38 1 -74q0 -305 -199 -506q-209 -212 -503 -212q-186 0 -345 87q-165 89 -258 245q-99 165 -99 375q0 305 203 511q197 199 496 199q210 0 389 -113q92 -58 165 -149l-212 -166q-55 67 -104 100q-102 69 -232 69q-140 0 -247 -80q-90 -68 -138 -185
q-36 -90 -36 -188q0 -211 148 -343q121 -108 281 -108q123 0 228 70q93 62 135 164q11 26 24 75h-380v229z" />
    <glyph glyph-name="H" unicode="H" horiz-adv-x="1365" 
d="M423 560v-560h-280v1365h280v-576h519v576h280v-1365h-280v560h-519z" />
    <glyph glyph-name="I" unicode="I" horiz-adv-x="566" 
d="M423 1365v-1365h-280v1365h280z" />
    <glyph glyph-name="J" unicode="J" horiz-adv-x="787" 
d="M666 1365v-881q0 -224 -79 -330q-102 -135 -313 -164q-74 -10 -211 -11v249q36 -4 59 -4q123 0 188 52q49 39 65 110q11 51 11 167v583h-323v229h603z" />
    <glyph glyph-name="K" unicode="K" horiz-adv-x="1153" 
d="M423 608v-608h-280v1365h280v-593l388 593h324l-442 -658l442 -707h-328z" />
    <glyph glyph-name="L" unicode="L" horiz-adv-x="924" 
d="M423 232h457v-232h-737v1365h280v-1133z" />
    <glyph glyph-name="M" unicode="M" horiz-adv-x="1737" 
d="M423 850v-850h-280v1365h317l409 -829l409 829h317v-1365h-280v850l-446 -892z" />
    <glyph glyph-name="N" unicode="N" horiz-adv-x="1414" 
d="M423 863v-863h-280v1365h275l573 -852v852h280v-1365h-273z" />
    <glyph glyph-name="O" unicode="O" horiz-adv-x="1564" 
d="M793 1392q177 0 327 -80q188 -101 286 -282q81 -152 81 -354q0 -186 -92 -350q-99 -177 -278 -271q-152 -81 -328 -81q-195 0 -363 96q-180 104 -272 281q-78 149 -78 325q0 313 222 526q200 190 495 190zM785 1133q-196 0 -320 -150q-103 -124 -103 -302
q0 -193 123 -321q123 -127 297 -127q185 0 311 139q61 68 89 163q21 73 21 139q0 217 -135 345q-120 114 -283 114z" />
    <glyph glyph-name="P" unicode="P" horiz-adv-x="1129" 
d="M423 469v-469h-280v1365h436q245 0 376 -116q129 -114 129 -321q0 -165 -83 -281q-126 -178 -403 -178h-175zM423 700h120q82 0 135 23q122 54 122 192q0 130 -108 188q-58 30 -141 30h-128v-433z" />
    <glyph glyph-name="Q" unicode="Q" horiz-adv-x="1566" 
d="M1461 90l-199 -168l-123 148q-165 -97 -359 -97q-189 0 -358 100q-179 105 -269 279q-75 147 -75 322q0 201 98 369q98 170 267 262q157 86 347 86q326 0 528 -233q171 -196 171 -465q0 -267 -157 -463zM1047 554l99 -111q58 113 58 247q0 199 -135 328
q-120 113 -284 113q-119 0 -219 -62q-103 -64 -157 -173q-46 -94 -46 -214q0 -195 123 -323q120 -126 288 -126q100 0 169 45l-93 110z" />
    <glyph glyph-name="R" unicode="R" horiz-adv-x="1196" 
d="M423 543v-543h-280v1365h420q256 0 387 -108q51 -41 81 -98q54 -101 54 -223q0 -195 -124 -310q-76 -71 -200 -102l376 -524h-340zM423 707h128q109 0 173 46q77 57 77 168q0 94 -56 151q-59 61 -171 61h-151v-426z" />
    <glyph glyph-name="S" unicode="S" horiz-adv-x="1067" 
d="M64 399h273q0 -53 13 -81q22 -45 73 -72q46 -24 101 -24q81 0 135 47q45 40 45 99q0 66 -56 108q-40 30 -166 75q-201 71 -291 151q-115 101 -115 276q0 194 133 307q124 106 319 106q189 0 310 -102q132 -112 150 -315h-284q-14 169 -178 169q-85 0 -129 -47
q-38 -40 -38 -96q0 -83 84 -130q42 -23 160 -66q149 -54 216 -98q177 -114 177 -318q0 -216 -168 -330q-124 -84 -302 -84q-204 0 -325 103q-139 117 -137 322z" />
    <glyph glyph-name="T" unicode="T" horiz-adv-x="943" 
d="M612 1136v-1136h-280v1136h-325v229h930v-229h-325z" />
    <glyph glyph-name="U" unicode="U" horiz-adv-x="1308" 
d="M401 1365v-800q0 -176 61 -249q69 -83 192 -83q87 0 155 50q66 49 86 139q11 49 11 144v799h282v-790q0 -205 -59 -328q-67 -142 -206 -213q-119 -60 -266 -60q-175 0 -311 84q-143 88 -192 240q-33 103 -33 277v790h280z" />
    <glyph glyph-name="V" unicode="V" horiz-adv-x="1150" 
d="M568 450l288 915h291l-432 -1365h-297l-415 1365h289z" />
    <glyph glyph-name="W" unicode="W" horiz-adv-x="1755" 
d="M1233 488l226 877h292l-381 -1365h-281l-217 894l-214 -894h-282l-373 1365h297l220 -862l221 862h278z" />
    <glyph glyph-name="X" unicode="X" horiz-adv-x="1190" 
d="M597 474l-264 -474h-325l431 721l-383 644h323l218 -390l227 390h318l-385 -644l424 -721h-319z" />
    <glyph glyph-name="Y" unicode="Y" horiz-adv-x="1141" 
d="M715 602v-602h-280v602l-457 763h333l265 -473l260 473h328z" />
    <glyph glyph-name="Z" unicode="Z" horiz-adv-x="1128" 
d="M467 229h575v-229h-1015l637 1136h-565v229h1004z" />
    <glyph glyph-name="bracketleft" unicode="[" horiz-adv-x="669" 
d="M134 1365h439v-153h-219v-1484h219v-153h-439v1790z" />
    <glyph glyph-name="backslash" unicode="\" horiz-adv-x="804" 
d="M52 1365h181l679 -1790h-181z" />
    <glyph glyph-name="bracketright" unicode="]" horiz-adv-x="669" 
d="M534 1365v-1790h-439v153h219v1484h-219v153h439z" />
    <glyph glyph-name="asciicircum" unicode="^" 
d="M288 726h-252l318 646h315l318 -646h-252l-224 455z" />
    <glyph glyph-name="underscore" unicode="_" 
d="M0 -121h1024v-170h-1024v170z" />
    <glyph glyph-name="grave" unicode="`" 
d="M463 1376l170 -285h-161l-271 285h262z" />
    <glyph glyph-name="a" unicode="a" horiz-adv-x="1244" 
d="M854 827v120h261v-947h-261v130q-129 -163 -329 -163q-217 0 -349 161q-109 134 -109 334q0 150 69 278q58 109 165 173q108 66 243 66q112 0 200 -53q53 -32 110 -99zM598 759q-123 0 -192 -95q-61 -85 -61 -198q0 -135 83 -218q70 -71 168 -71q118 0 195 98
q67 86 67 199t-60 191q-73 94 -200 94z" />
    <glyph glyph-name="b" unicode="b" horiz-adv-x="1240" 
d="M390 122v-122h-261v1365h261v-534q58 69 115 101q85 48 192 48q215 0 354 -155q123 -136 123 -357q0 -243 -147 -380q-129 -121 -317 -121q-113 0 -202 47q-60 32 -118 108zM645 760q-120 0 -197 -104q-61 -82 -61 -190q0 -133 76 -214q71 -75 177 -75q121 0 193 88
q64 79 64 201q0 118 -65 201q-72 93 -187 93z" />
    <glyph glyph-name="c" unicode="c" horiz-adv-x="958" 
d="M776 278l157 -169q-157 -142 -364 -142q-215 0 -364 147q-138 136 -138 354q0 161 80 291q71 114 193 171q105 50 230 50q206 0 379 -157l-173 -159q-86 84 -196 84q-116 0 -188 -87q-62 -75 -62 -184q0 -130 84 -210q71 -68 176 -68q93 0 186 79z" />
    <glyph glyph-name="d" unicode="d" horiz-adv-x="1244" 
d="M854 842v523h261v-1365h-261v124q-56 -77 -113 -108q-89 -49 -205 -49q-220 0 -352 151q-117 133 -117 347q0 244 152 385q140 130 322 130q91 0 175 -35q68 -29 138 -103zM602 761q-133 0 -207 -114q-51 -79 -51 -183q0 -132 78 -211q74 -76 178 -76q119 0 192 96
q62 81 62 193q0 128 -71 211q-71 84 -181 84z" />
    <glyph glyph-name="e" unicode="e" horiz-adv-x="1138" 
d="M1079 412h-741q13 -78 56 -127q74 -86 192 -86q82 0 151 47q43 29 68 76l238 -66q-56 -111 -143 -179q-141 -110 -317 -110q-236 0 -388 161q-128 135 -128 347q0 136 59 252q61 121 177 187t264 66q252 0 399 -178q114 -138 114 -339q0 -18 -1 -51zM812 561
q-13 75 -54 120q-71 79 -188 79q-112 0 -180 -79q-38 -45 -53 -120h475z" />
    <glyph glyph-name="f" unicode="f" horiz-adv-x="585" 
d="M409 728v-728h-261v728h-105v219h105v52q0 367 345 367q12 0 39 -1v-240q-57 -7 -85 -27q-38 -28 -38 -99v-52h123v-219h-123z" />
    <glyph glyph-name="g" unicode="g" horiz-adv-x="1206" 
d="M821 830v117h256v-878q0 -197 -55 -300q-64 -120 -198 -183q-118 -55 -266 -55q-275 0 -466 188l161 164q122 -132 294 -132q134 0 206 77q68 73 68 204v97q-128 -162 -334 -162q-121 0 -226 64q-223 135 -223 436q0 146 63 272q58 118 168 180q106 61 245 61
q101 0 184 -43q66 -35 123 -107zM569 748q-127 0 -201 -97q-53 -70 -53 -173q0 -134 84 -213q71 -66 171 -66q121 0 196 87q50 57 50 169q0 149 -70 219q-74 74 -177 74z" />
    <glyph glyph-name="h" unicode="h" horiz-adv-x="1084" 
d="M390 1365v-519q112 134 257 134q85 0 165 -43q92 -49 124 -135q24 -62 24 -177v-625h-261v588q0 92 -51 139q-35 33 -90 33q-67 0 -116 -47q-34 -33 -44 -70q-8 -31 -8 -79v-564h-261v1365h261z" />
    <glyph glyph-name="i" unicode="i" horiz-adv-x="519" 
d="M390 947v-947h-261v947h261zM261 1363q64 0 105 -45q38 -42 38 -102q0 -65 -49 -109q-38 -33 -95 -33q-67 0 -107 44q-38 42 -38 100q0 68 49 112q38 33 97 33z" />
    <glyph glyph-name="j" unicode="j" horiz-adv-x="519" 
d="M390 947v-979q0 -210 -90 -304q-98 -102 -280 -102q-21 0 -69 3v238q21 -1 39 -1q67 0 102 42q37 45 37 124v979h261zM261 1363q64 0 105 -45q38 -42 38 -102q0 -65 -49 -109q-38 -33 -95 -33q-67 0 -107 44q-38 43 -38 100q0 68 49 112q38 33 97 33z" />
    <glyph glyph-name="k" unicode="k" horiz-adv-x="970" 
d="M390 393v-393h-261v1365h261v-781l265 363h301l-323 -454l323 -493h-302z" />
    <glyph glyph-name="l" unicode="l" horiz-adv-x="519" 
d="M390 0h-261v1365h261v-1365z" />
    <glyph glyph-name="m" unicode="m" horiz-adv-x="1622" 
d="M129 947h261v-120q39 70 87 103q74 50 173 50q95 0 170 -48q57 -38 88 -110q45 75 102 110q78 48 183 48q146 0 229 -89q53 -57 65 -128q11 -59 11 -144v-619h-261v570q0 85 -24 127q-35 63 -119 63q-77 0 -117 -57q-33 -49 -33 -133v-570h-261v563q0 197 -144 197
q-73 0 -114 -55q-35 -47 -35 -142v-563h-261v947z" />
    <glyph glyph-name="n" unicode="n" horiz-adv-x="1088" 
d="M129 947h261v-116q46 73 92 104q68 45 163 45q144 0 234 -88q56 -55 71 -128q14 -68 14 -165v-599h-261v586q0 75 -23 111q-40 63 -124 63q-82 0 -132 -67q-34 -46 -34 -118v-575h-261v947z" />
    <glyph glyph-name="o" unicode="o" horiz-adv-x="1164" 
d="M585 980q239 0 388 -168q125 -142 125 -347q0 -221 -165 -367q-147 -131 -353 -131q-162 0 -289 80q-119 76 -178 201q-46 101 -46 224q0 246 167 388q140 120 351 120zM584 747q-120 0 -192 -83q-63 -72 -63 -190q0 -130 74 -203q74 -72 179 -72q121 0 196 91
q57 68 57 179q0 136 -73 208q-70 70 -178 70z" />
    <glyph glyph-name="p" unicode="p" horiz-adv-x="1247" 
d="M129 947h261v-117q49 66 101 97q88 53 211 53q146 0 263 -79q216 -145 216 -431q0 -277 -189 -415q-120 -88 -285 -88q-199 0 -317 136v-528h-261v1372zM650 761q-134 0 -209 -111q-51 -76 -51 -188q0 -133 71 -209t181 -76q136 0 209 107q52 76 52 180q0 135 -72 216
t-181 81z" />
    <glyph glyph-name="q" unicode="q" horiz-adv-x="1243" 
d="M853 947h261v-1372h-261v528q-54 -61 -107 -88q-93 -48 -215 -48q-217 0 -351 154q-114 131 -114 345q0 224 130 365q137 149 353 149q99 0 177 -36q67 -31 127 -106v109zM600 760q-137 0 -208 -115q-48 -77 -48 -176q0 -133 79 -217q70 -75 174 -75q126 0 202 104
q56 77 56 185q0 132 -72 212q-74 82 -183 82z" />
    <glyph glyph-name="r" unicode="r" horiz-adv-x="682" 
d="M129 947h261v-138q33 90 83 125q63 46 152 46q10 0 32 -1v-266q-34 3 -54 3q-115 0 -175 -86q-27 -40 -33 -85q-5 -38 -5 -88v-457h-261v947z" />
    <glyph glyph-name="s" unicode="s" horiz-adv-x="859" 
d="M780 674h-246q1 11 1 17q0 31 -20 55q-34 42 -99 42q-49 0 -77 -24t-28 -62q0 -39 27 -60q30 -24 82 -40l78 -24q157 -48 218 -108q79 -76 79 -196q0 -150 -119 -237q-96 -70 -250 -70q-209 0 -309 128q-58 74 -63 183h250q17 -119 124 -119q46 0 73 24q31 28 31 66
q0 46 -49 78q-27 18 -127 48q-150 46 -220 116q-76 75 -76 188q0 155 125 237q99 64 242 64q203 0 300 -131q50 -68 53 -175z" />
    <glyph glyph-name="t" unicode="t" horiz-adv-x="581" 
d="M402 733v-454q0 -36 17 -48q19 -13 57 -13h45v-218h-208q-91 0 -135 45q-37 39 -37 136v552h-108v219h108v254h261v-254h119v-219h-119z" />
    <glyph glyph-name="u" unicode="u" horiz-adv-x="1054" 
d="M681 947h261v-599q0 -144 -47 -217q-55 -84 -161 -127q-91 -37 -206 -37q-202 0 -316 103q-101 92 -101 278v599h261v-582q0 -61 29 -111q39 -67 128 -67q82 0 125 60q27 37 27 101v599z" />
    <glyph glyph-name="v" unicode="v" horiz-adv-x="949" 
d="M686 947h267l-345 -947h-269l-342 947h270l210 -565z" />
    <glyph glyph-name="w" unicode="w" horiz-adv-x="1491" 
d="M1230 947h265l-310 -947h-271l-166 580l-169 -580h-277l-305 947h265l191 -576l164 576h251l169 -576z" />
    <glyph glyph-name="x" unicode="x" horiz-adv-x="982" 
d="M499 258l-174 -258h-307l330 470l-350 477h327l174 -251l169 251h316l-337 -477l332 -470h-316z" />
    <glyph glyph-name="y" unicode="y" horiz-adv-x="960" 
d="M466 384l221 563h277l-534 -1380h-280l179 455l-332 925h277z" />
    <glyph glyph-name="z" unicode="z" horiz-adv-x="862" 
d="M440 219h367v-219h-776l398 728h-361v219h768z" />
    <glyph glyph-name="braceleft" unicode="{" 
d="M487 497q74 -45 99 -113q18 -49 18 -134v-223q0 -88 18 -117q19 -29 48 -39q46 -15 133 -15v-244q-48 -2 -119 -2q-144 0 -195 15q-105 30 -142 128q-22 60 -22 157v295q0 98 -31 137q-29 36 -84 50v224q58 14 86 51q29 40 29 122v312q0 145 65 212q43 45 114 62
q47 11 192 11q58 0 107 -2v-258q-104 1 -147 -21q-37 -19 -46 -61q-6 -29 -6 -84v-218q0 -113 -35 -171q-23 -38 -82 -74z" />
    <glyph glyph-name="bar" unicode="|" 
d="M370 1365h284v-1706h-284v1706z" />
    <glyph glyph-name="braceright" unicode="}" 
d="M537 499q-74 45 -99 113q-18 49 -18 134v223q0 82 -13 108q-21 40 -67 52q-42 11 -96 11h-23v244q50 2 119 2q144 0 195 -15q104 -30 142 -128q22 -59 22 -156v-296q0 -98 31 -137q29 -36 84 -50v-224q-58 -14 -86 -51q-29 -39 -29 -122v-312q0 -145 -65 -212
q-43 -45 -114 -62q-47 -11 -191 -11q-61 0 -108 2v258q105 0 148 22q35 18 45 60q6 29 6 84v218q0 113 35 171q23 37 82 74z" />
    <glyph glyph-name="asciitilde" unicode="~" horiz-adv-x="1365" 
d="M329 1140l-139 115q112 271 301 271q70 0 231 -71q90 -40 113 -46q28 -8 49 -8q85 0 156 130l139 -115q-39 -92 -71 -137q-95 -130 -249 -130q-37 0 -84 15q-34 11 -143 60q-104 47 -153 47q-79 0 -150 -131z" />
    <glyph glyph-name="uni00A0" unicode="&#xa0;" horiz-adv-x="614" 
 />
    <glyph glyph-name="exclamdown" unicode="&#xa1;" horiz-adv-x="588" 
d="M166 -416v939h256v-939h-256zM294 975q68 0 111 -46q40 -43 40 -105q0 -72 -52 -117q-40 -34 -100 -34q-68 0 -110 45q-40 44 -40 109q0 69 52 114q39 34 99 34z" />
    <glyph glyph-name="cent" unicode="&#xa2;" 
d="M635 939v-556q82 8 149 68l155 -158q-71 -63 -139 -92q-69 -30 -165 -41v-200h-96v200q-141 21 -236 85q-202 135 -202 411q0 207 108 341q90 112 235 149q34 9 95 17v150h96v-150q92 -9 160 -41q74 -33 157 -111l-168 -150q-33 33 -60 49q-34 19 -89 29zM539 939
q-78 -22 -119 -67q-71 -78 -71 -207q0 -226 190 -282v556z" />
    <glyph glyph-name="sterling" unicode="&#xa3;" 
d="M524 761h278v-125h-212q46 -84 46 -137q0 -81 -98 -201q11 -4 62 -23q18 -7 58 -27q103 -54 158 -54q60 0 119 65l26 -174q-89 -104 -209 -104q-57 0 -129 33q-40 18 -127 66q-77 43 -123 43q-60 0 -91 -53q-15 -26 -17 -70h-202q8 144 81 233q71 86 190 95q19 32 29 48
q35 56 35 98q0 90 -82 162h-236v125h136q-47 59 -63 98q-26 61 -26 135q0 175 125 283q118 102 288 102q124 0 227 -59q137 -79 168 -198q12 -47 14 -118h-234v14q0 68 -51 115q-48 46 -114 46q-69 0 -118 -51q-46 -47 -46 -114q0 -80 66 -168q20 -26 72 -85z" />
    <glyph glyph-name="currency" unicode="&#xa4;" horiz-adv-x="1452" 
d="M97 221l202 203q-81 129 -81 273q0 123 86 274l-208 206l147 147l210 -209q61 33 98 48q82 34 175 34q102 0 197 -44q25 -11 72 -37l209 206l145 -145l-203 -203q88 -143 88 -280q0 -97 -42 -192q-13 -29 -39 -77l203 -203l-145 -147l-203 202q-134 -88 -270 -88
q-137 0 -293 88l-202 -201zM730 959q-111 0 -187 -77q-77 -76 -77 -186q0 -108 76 -185q77 -77 185 -77t185 77q76 77 76 185q0 111 -77 186q-78 77 -181 77z" />
    <glyph glyph-name="yen" unicode="&#xa5;" 
d="M236 907l-217 452h278l221 -519l219 519h268l-213 -452h172v-135h-235l-81 -174v-15h275v-135h-275v-448h-264v448h-283v135h283v15l-83 174h-241v135h176z" />
    <glyph glyph-name="brokenbar" unicode="&#xa6;" 
d="M370 1365h284v-714h-284v714zM370 314h284v-655h-284v655z" />
    <glyph glyph-name="section" unicode="&#xa7;" 
d="M894 1059h-224q-4 56 -30 90q-44 59 -124 59q-64 0 -105 -39q-40 -38 -40 -91q0 -59 50 -101q34 -27 76 -45q39 -17 104 -42q172 -65 246 -140q92 -93 92 -233q0 -221 -221 -326q164 -94 164 -263q0 -139 -97 -235q-108 -106 -286 -106q-225 0 -332 160q-55 82 -60 207
h227q2 -70 33 -114q50 -69 138 -69q70 0 114 48q39 43 39 104q0 73 -63 117q-42 30 -171 72q-173 56 -248 136q-90 95 -90 244q0 158 99 254q52 51 136 75q-173 81 -173 263q0 129 93 217q98 92 266 92q157 0 264 -76q115 -82 123 -258zM513 695q-88 0 -150 -60
q-57 -55 -57 -135q0 -84 60 -141q58 -54 145 -54q86 0 144 54q60 57 60 142q0 80 -57 134q-64 60 -145 60z" />
    <glyph glyph-name="dieresis" unicode="&#xa8;" 
d="M294 1378q60 0 101 -45q35 -38 35 -95q0 -61 -46 -101q-39 -34 -91 -34q-62 0 -103 45q-35 37 -35 92q0 64 46 104q38 34 93 34zM731 1378q60 0 101 -45q35 -38 35 -95q0 -61 -46 -101q-39 -34 -91 -34q-62 0 -103 45q-35 38 -35 92q0 64 46 104q38 34 93 34z" />
    <glyph glyph-name="copyright" unicode="&#xa9;" horiz-adv-x="1580" 
d="M1161 606q-10 -126 -84 -213q-102 -120 -283 -120q-190 0 -299 135q-90 111 -90 279q0 178 107 295q109 119 288 119q167 0 269 -109q74 -79 82 -182h-130q-14 54 -53 88q-64 57 -167 57q-115 0 -177 -90q-49 -72 -49 -179q0 -108 47 -177q62 -90 178 -90q113 0 178 70
q41 45 51 117h132zM801 1392q190 0 360 -105t260 -282q77 -153 77 -323q0 -199 -104 -370q-104 -170 -280 -261q-152 -78 -322 -78q-198 0 -368 104q-171 104 -263 282q-78 153 -78 322q0 202 105 374q102 168 284 260q151 77 329 77zM799 1269q-244 0 -413 -170
q-170 -171 -170 -418q0 -242 170 -414q169 -171 405 -171q238 0 406 172t168 414q0 165 -84 308q-83 138 -228 215q-121 64 -254 64z" />
    <glyph glyph-name="ordfeminine" unicode="&#xaa;" horiz-adv-x="807" 
d="M539 1062v57h178v-573h-178v62q-75 -81 -197 -81q-137 0 -221 97q-71 82 -71 202q0 148 101 238q83 74 203 74q111 0 185 -76zM388 995q-73 0 -113 -54q-36 -48 -36 -113q0 -77 48 -124q42 -40 99 -40q70 0 115 56q40 49 40 113t-35 108q-43 54 -118 54z" />
    <glyph glyph-name="guillemotleft" unicode="&#xab;" horiz-adv-x="866" 
d="M242 488l197 -334h-169l-195 334l195 345h169zM580 488l197 -334h-169l-195 334l195 345h169z" />
    <glyph glyph-name="logicalnot" unicode="&#xac;" 
d="M680 0v343h-612v248h887v-591h-275z" />
    <glyph glyph-name="uni00AD" unicode="&#xad;" horiz-adv-x="454" 
d="M454 614v-230h-454v230h454z" />
    <glyph glyph-name="registered" unicode="&#xae;" horiz-adv-x="1580" 
d="M491 1083h335q119 0 183 -37q104 -60 104 -184q0 -135 -135 -193q62 -23 89 -67q21 -34 28 -92q2 -16 6 -97q5 -85 21 -123h-162q-13 27 -21 156q-8 111 -50 142q-40 31 -117 31h-113v-329h-168v793zM659 978v-260h126q161 0 161 131q0 129 -148 129h-139zM801 1392
q190 0 360 -105t260 -282q77 -153 77 -323q0 -200 -104 -370t-281 -261q-151 -78 -322 -78q-198 0 -368 104t-262 282q-78 153 -78 322q0 202 105 374q102 168 284 260q150 77 329 77zM799 1269q-244 0 -413 -170q-170 -171 -170 -418q0 -242 170 -414q169 -171 405 -171
q238 0 406 172t168 414q0 165 -84 308q-83 138 -229 215q-121 64 -253 64z" />
    <glyph glyph-name="macron" unicode="&#xaf;" 
d="M326 1176v114h372v-114h-372z" />
    <glyph glyph-name="degree" unicode="&#xb0;" 
d="M513 1372q133 0 228 -100q86 -90 86 -220t-94 -223q-92 -90 -220 -90q-141 0 -235 104q-82 89 -82 212q0 98 54 179q47 71 129 108q66 30 134 30zM509 1261q-76 0 -133 -54q-66 -63 -66 -152q0 -75 49 -134q60 -71 152 -71q79 0 139 57q63 61 63 144q0 87 -57 146
q-62 64 -147 64z" />
    <glyph glyph-name="plusminus" unicode="&#xb1;" 
d="M25 807h415v406h140v-406h418v-135h-418v-393h-140v393h-415v135zM25 194h973v-135h-973v135z" />
    <glyph glyph-name="twosuperior" unicode="&#xb2;" horiz-adv-x="677" 
d="M346 694h235v-151h-542l307 440q47 67 62 97.5t15 56.5q0 37 -26 60q-27 23 -68 23q-68 0 -90 -52q-10 -26 -11 -82h-166q0 69 13 109q26 84 93 132q70 48 172 48q130 0 206 -78q58 -58 58 -144q0 -63 -26 -118q-30 -62 -81 -132z" />
    <glyph glyph-name="threesuperior" unicode="&#xb3;" horiz-adv-x="677" 
d="M323 1212h-238v147h543l-238 -302q76 -8 133 -53q90 -71 90 -196q0 -129 -94 -211q-80 -70 -199 -70q-156 0 -233 109q-34 50 -46 139l162 6q7 -40 27 -63q33 -37 85 -37q57 0 94 39q31 31 31 77q0 49 -32 81q-35 36 -93 36q-44 0 -79 -23l-103 81z" />
    <glyph glyph-name="acute" unicode="&#xb4;" 
d="M562 1376h262l-272 -285h-160z" />
    <glyph glyph-name="mu" unicode="&#xb5;" 
d="M71 -347v1330h240v-522q0 -81 8 -118q16 -75 79 -124q50 -39 112 -39q116 0 166 109q38 82 38 182v512h240v-983h-240v147q-64 -168 -208 -168q-82 0 -139 52q-26 23 -56 76v-454h-240z" />
    <glyph glyph-name="paragraph" unicode="&#xb6;" 
d="M452 -215v846h-31q-115 0 -201 55q-72 45 -114 125q-45 84 -45 183q0 130 73 229q104 142 344 142h410v-1580h-135v1491h-165v-1491h-136z" />
    <glyph glyph-name="periodcentered" unicode="&#xb7;" horiz-adv-x="534" 
d="M268 656q67 0 110 -46q40 -43 40 -108q0 -69 -52 -114q-40 -34 -99 -34q-69 0 -111 46q-40 43 -40 105q0 72 52 117q39 34 100 34z" />
    <glyph glyph-name="cedilla" unicode="&#xb8;" 
d="M430 -425l-105 93q79 42 125 98q37 45 70 114l179 -76q-51 -78 -109 -128q-60 -51 -160 -101z" />
    <glyph glyph-name="onesuperior" unicode="&#xb9;" horiz-adv-x="677" 
d="M311 1138l-155 -77v159l335 164v-840h-180v594z" />
    <glyph glyph-name="ordmasculine" unicode="&#xba;" horiz-adv-x="757" 
d="M381 1138q152 0 246 -101q80 -86 80 -210q0 -134 -106 -223q-92 -78 -224 -78q-166 0 -260 113q-66 79 -66 192q0 149 107 236q89 71 223 71zM380 987q-71 0 -113 -47q-37 -41 -37 -108q0 -73 43 -114t106 -41q71 0 115 51q33 38 33 102q0 77 -42 118q-41 39 -105 39z
" />
    <glyph glyph-name="guillemotright" unicode="&#xbb;" horiz-adv-x="866" 
d="M623 502l-197 335h169l195 -335l-195 -345h-169zM285 502l-197 335h169l195 -335l-195 -345h-169z" />
    <glyph glyph-name="onequarter" unicode="&#xbc;" horiz-adv-x="1613" 
d="M311 1138l-155 -77v159l335 164v-840h-180v594zM1298 1334l-901 -1361l-82 53l900 1360zM1306 165h-315v138l307 513h181v-504h78v-147h-78v-165h-173v165zM1314 307v301l-173 -301h173z" />
    <glyph glyph-name="onehalf" unicode="&#xbd;" horiz-adv-x="1613" 
d="M311 1138l-155 -77v159l335 164v-840h-180v594zM1298 1334l-901 -1361l-82 53l900 1360zM1282 151h235v-151h-542l307 440q44 63 60 93q17 33 17 61q0 38 -26 60q-26 23 -68 23q-68 0 -90 -52q-10 -26 -11 -82h-166v17q1 80 32 138q71 134 245 134q131 0 208 -78
q57 -58 57 -144q0 -63 -26 -118q-30 -61 -81 -132z" />
    <glyph glyph-name="threequarters" unicode="&#xbe;" horiz-adv-x="1613" 
d="M323 1212h-238v147h543l-238 -302q76 -8 133 -53q90 -71 90 -196q0 -129 -94 -211q-80 -70 -199 -70q-156 0 -233 109q-34 50 -46 139l162 6q7 -40 27 -63q33 -37 85 -37q57 0 94 39q31 31 31 77q0 49 -32 81q-35 36 -93 36q-44 0 -79 -23l-103 81zM1297 1334l-901 -1361
l-81 53l900 1360zM1305 165h-315v138l306 513h182v-504h79v-147h-79v-165h-173v165zM1313 307v301l-173 -301h173z" />
    <glyph glyph-name="questiondown" unicode="&#xbf;" horiz-adv-x="915" 
d="M374 504h262q1 -49 1 -74q0 -113 -29 -172q-22 -43 -62 -83q-25 -24 -95 -79q-64 -49 -85 -82q-25 -38 -25 -83q0 -58 37 -96q38 -40 101 -40q80 0 119 62q22 34 22 94h243q-2 -115 -41 -193q-46 -94 -129 -142q-95 -56 -219 -56q-123 0 -227 59q-96 55 -140 154
q-31 70 -31 155q0 125 69 214q41 54 113 107q72 54 89 78q26 37 27 99v78zM503 975q68 0 111 -46q40 -43 40 -105q0 -72 -52 -117q-40 -34 -100 -34q-68 0 -110 46q-40 43 -40 108q0 69 52 114q39 34 99 34z" />
    <glyph glyph-name="Agrave" unicode="&#xc0;" horiz-adv-x="1295" 
d="M907 236h-526l-81 -236h-297l472 1365h350l466 -1365h-308zM833 466l-189 565l-191 -565h380zM590 1760l192 -272h-178l-283 272h269z" />
    <glyph glyph-name="Aacute" unicode="&#xc1;" horiz-adv-x="1295" 
d="M907 236h-526l-81 -236h-297l472 1365h350l466 -1365h-308zM833 466l-189 565l-191 -565h380zM705 1760h269l-284 -272h-178z" />
    <glyph glyph-name="Acircumflex" unicode="&#xc2;" horiz-adv-x="1295" 
d="M907 236h-526l-81 -236h-297l472 1365h350l466 -1365h-308zM833 466l-189 565l-191 -565h380zM649 1627l-162 -139h-182l231 273h237l217 -273h-182z" />
    <glyph glyph-name="Atilde" unicode="&#xc3;" horiz-adv-x="1295" 
d="M907 236h-526l-81 -236h-297l472 1365h350l466 -1365h-308zM833 466l-189 565l-191 -565h380zM846 1745l171 -14q-62 -231 -218 -231q-45 0 -150 39q-83 32 -108 32q-53 0 -65 -72l-171 11q17 80 39 118q37 64 96 94q40 21 80 21q42 0 172 -50q59 -24 77 -24q52 0 77 76z
" />
    <glyph glyph-name="Adieresis" unicode="&#xc4;" horiz-adv-x="1295" 
d="M907 236h-526l-81 -236h-297l472 1365h350l466 -1365h-308zM833 466l-189 565l-191 -565h380zM428 1781q61 0 102 -45q38 -41 38 -98q0 -62 -49 -105q-38 -34 -92 -34q-63 0 -103 45q-38 41 -38 96q0 64 49 107q38 34 93 34zM864 1781q61 0 102 -45q38 -41 38 -98
q0 -62 -49 -105q-38 -34 -92 -34q-63 0 -103 45q-38 41 -38 96q0 64 49 107q38 34 93 34z" />
    <glyph glyph-name="Aring" unicode="&#xc5;" horiz-adv-x="1295" 
d="M907 236h-526l-81 -236h-297l472 1365h350l466 -1365h-308zM833 466l-189 565l-191 -565h380zM649 1821q81 0 139 -60q49 -51 49 -129q0 -83 -64 -137q-55 -46 -126 -46q-84 0 -141 60q-49 51 -49 126q0 85 64 140q54 46 128 46zM648 1727q-45 0 -73 -33q-22 -26 -22 -59
q0 -39 30 -67q26 -25 64 -25q45 0 72 32q22 27 22 58q0 41 -30 69q-25 25 -63 25z" />
    <glyph glyph-name="AE" unicode="&#xc6;" horiz-adv-x="1742" 
d="M1181 571v-342h468v-229h-748v274h-468l-146 -274h-299l741 1365h920v-229h-468v-336h468v-229h-468zM901 494v658l-352 -658h352z" />
    <glyph glyph-name="Ccedilla" unicode="&#xc7;" horiz-adv-x="1300" 
d="M1087 373l170 -193q-102 -96 -192 -139q-143 -68 -316 -68q-304 0 -489 205q-101 111 -149 266q-35 115 -35 236q0 202 94 375t262 262q141 74 323 74q183 0 331 -76q83 -42 184 -140l-183 -185q-156 142 -320 142q-187 0 -303 -135q-104 -123 -104 -311q0 -140 65 -254
q51 -91 148 -146q95 -54 209 -54q183 0 305 141zM573 -434l-125 95q105 53 153 113q33 43 49 103l247 -71q-48 -75 -113 -127q-80 -64 -211 -113z" />
    <glyph glyph-name="Egrave" unicode="&#xc8;" horiz-adv-x="949" 
d="M376 1136v-336h479v-229h-479v-342h479v-229h-759v1365h759v-229h-479zM417 1760l193 -272h-179l-283 272h269z" />
    <glyph glyph-name="Eacute" unicode="&#xc9;" horiz-adv-x="949" 
d="M376 1136v-336h479v-229h-479v-342h479v-229h-759v1365h759v-229h-479zM532 1760h269l-284 -272h-178z" />
    <glyph glyph-name="Ecircumflex" unicode="&#xca;" horiz-adv-x="949" 
d="M376 1136v-336h479v-229h-479v-342h479v-229h-759v1365h759v-229h-479zM477 1627l-163 -139h-182l231 273h237l217 -273h-182z" />
    <glyph glyph-name="Edieresis" unicode="&#xcb;" horiz-adv-x="949" 
d="M376 1136v-336h479v-229h-479v-342h479v-229h-759v1365h759v-229h-479zM255 1781q61 0 102 -45q38 -41 38 -98q0 -62 -49 -105q-38 -34 -92 -34q-62 0 -103 45q-38 41 -38 96q0 64 49 107q38 34 93 34zM691 1781q61 0 102 -45q38 -41 38 -98q0 -62 -49 -105
q-38 -34 -92 -34q-63 0 -103 45q-38 41 -38 96q0 64 49 107q38 34 93 34z" />
    <glyph glyph-name="Igrave" unicode="&#xcc;" horiz-adv-x="566" 
d="M423 1365v-1365h-280v1365h280zM226 1760l193 -272h-179l-283 272h269z" />
    <glyph glyph-name="Iacute" unicode="&#xcd;" horiz-adv-x="566" 
d="M423 1365v-1365h-280v1365h280zM341 1760h269l-284 -272h-178z" />
    <glyph glyph-name="Icircumflex" unicode="&#xce;" horiz-adv-x="566" 
d="M423 1365v-1365h-280v1365h280zM286 1627l-163 -139h-182l231 273h237l217 -273h-182z" />
    <glyph glyph-name="Idieresis" unicode="&#xcf;" horiz-adv-x="566" 
d="M423 1365v-1365h-280v1365h280zM101 1781q61 0 102 -45q38 -41 38 -98q0 -62 -49 -105q-38 -34 -92 -34q-63 0 -103 45q-38 41 -38 96q0 64 49 107q38 34 93 34zM462 1781q61 0 102 -45q38 -41 38 -98q0 -62 -49 -105q-38 -34 -92 -34q-63 0 -103 45q-38 41 -38 96
q0 64 49 107q38 34 93 34z" />
    <glyph glyph-name="Eth" unicode="&#xd0;" horiz-adv-x="1312" 
d="M143 801v564h388q230 0 369 -70q173 -87 262 -262q74 -146 74 -335q0 -236 -111 -414q-177 -284 -579 -284h-403v582h-133v219h133zM423 801h242v-219h-242v-350h54q152 0 238 40q119 57 183 180q54 104 54 238q0 149 -66 261q-61 104 -175 151q-85 36 -185 36h-103v-337
z" />
    <glyph glyph-name="Ntilde" unicode="&#xd1;" horiz-adv-x="1414" 
d="M423 863v-863h-280v1365h275l573 -852v852h280v-1365h-273zM906 1745l171 -14q-62 -231 -219 -231q-45 0 -149 39q-84 32 -108 32q-53 0 -65 -72l-171 11q17 80 39 118q37 64 95 94q41 21 81 21q42 0 172 -50q59 -24 77 -24q52 0 77 76z" />
    <glyph glyph-name="Ograve" unicode="&#xd2;" horiz-adv-x="1564" 
d="M793 1392q177 0 327 -80q188 -101 286 -282q81 -152 81 -354q0 -186 -92 -350q-99 -177 -278 -271q-152 -81 -328 -81q-195 0 -363 96q-180 104 -272 281q-78 149 -78 325q0 313 222 526q200 190 495 190zM785 1133q-196 0 -320 -150q-103 -124 -103 -302
q0 -193 123 -321q123 -127 297 -127q185 0 311 139q61 68 89 163q21 73 21 139q0 217 -135 345q-120 114 -283 114zM724 1760l193 -272h-178l-284 272h269z" />
    <glyph glyph-name="Oacute" unicode="&#xd3;" horiz-adv-x="1564" 
d="M793 1392q177 0 327 -80q188 -101 286 -282q81 -152 81 -354q0 -186 -92 -350q-99 -177 -278 -271q-152 -81 -328 -81q-195 0 -363 96q-180 104 -272 281q-78 149 -78 325q0 313 222 526q200 190 495 190zM785 1133q-196 0 -320 -150q-103 -124 -103 -302
q0 -193 123 -321q123 -127 297 -127q185 0 311 139q61 68 89 163q21 73 21 139q0 217 -135 345q-120 114 -283 114zM839 1760h269l-283 -272h-178z" />
    <glyph glyph-name="Ocircumflex" unicode="&#xd4;" horiz-adv-x="1564" 
d="M793 1392q177 0 327 -80q188 -101 286 -282q81 -152 81 -354q0 -186 -92 -350q-99 -177 -278 -271q-152 -81 -328 -81q-195 0 -363 96q-180 104 -272 281q-78 149 -78 325q0 313 222 526q200 190 495 190zM785 1133q-196 0 -320 -150q-103 -124 -103 -302
q0 -193 123 -321q123 -127 297 -127q185 0 311 139q61 68 89 163q21 73 21 139q0 217 -135 345q-120 114 -283 114zM784 1627l-162 -139h-183l232 273h236l217 -273h-182z" />
    <glyph glyph-name="Otilde" unicode="&#xd5;" horiz-adv-x="1564" 
d="M793 1392q177 0 327 -80q188 -101 286 -282q81 -152 81 -354q0 -186 -92 -350q-99 -177 -278 -271q-152 -81 -328 -81q-195 0 -363 96q-180 104 -272 281q-78 149 -78 325q0 313 222 526q200 190 495 190zM785 1133q-196 0 -320 -150q-103 -124 -103 -302
q0 -193 123 -321q123 -127 297 -127q185 0 311 139q61 68 89 163q21 73 21 139q0 217 -135 345q-120 114 -283 114zM981 1745l170 -14q-61 -231 -218 -231q-45 0 -149 39q-84 32 -109 32q-52 0 -65 -72l-171 11q18 80 40 118q36 64 95 94q41 21 81 21q41 0 171 -50
q60 -24 78 -24q51 0 77 76z" />
    <glyph glyph-name="Odieresis" unicode="&#xd6;" horiz-adv-x="1564" 
d="M793 1392q177 0 327 -80q188 -101 286 -282q81 -152 81 -354q0 -186 -92 -350q-99 -177 -278 -271q-152 -81 -328 -81q-195 0 -363 96q-180 104 -272 281q-78 149 -78 325q0 313 222 526q200 190 495 190zM785 1133q-196 0 -320 -150q-103 -124 -103 -302
q0 -193 123 -321q123 -127 297 -127q185 0 311 139q61 68 89 163q21 73 21 139q0 217 -135 345q-120 114 -283 114zM563 1781q61 0 102 -45q38 -41 38 -98q0 -62 -49 -105q-38 -34 -92 -34q-63 0 -103 45q-38 41 -38 96q0 64 49 107q38 34 93 34zM998 1781q61 0 102 -45
q38 -41 38 -98q0 -62 -49 -105q-38 -34 -92 -34q-63 0 -103 45q-38 41 -38 96q0 64 49 107q38 34 93 34z" />
    <glyph glyph-name="multiply" unicode="&#xd7;" 
d="M203 1132l308 -309l310 313l99 -99l-312 -311l310 -309l-95 -95l-309 310l-311 -313l-99 99l313 311l-309 308z" />
    <glyph glyph-name="Oslash" unicode="&#xd8;" horiz-adv-x="1560" 
d="M304 154l-146 -141l-69 75l144 139q-75 97 -108 176q-50 121 -50 267q0 345 237 551q197 170 463 170q161 0 314 -71q86 -40 162 -110l148 144l69 -78l-143 -139q81 -114 112 -200q47 -124 47 -255q0 -214 -117 -391q-107 -165 -286 -248q-146 -69 -317 -69
q-261 0 -460 180zM500 337q119 -104 271 -104q180 0 309 132q120 123 120 319q0 145 -79 262zM1051 1024q-120 108 -268 108q-115 0 -214 -59q-105 -64 -161 -176q-48 -97 -48 -216q0 -155 74 -264z" />
    <glyph glyph-name="Ugrave" unicode="&#xd9;" horiz-adv-x="1308" 
d="M401 1365v-800q0 -176 61 -249q69 -83 192 -83q87 0 155 50q66 49 86 139q11 49 11 144v799h282v-790q0 -205 -59 -328q-67 -142 -206 -213q-119 -60 -266 -60q-175 0 -311 84q-143 88 -192 240q-33 103 -33 277v790h280zM597 1760l193 -272h-179l-283 272h269z" />
    <glyph glyph-name="Uacute" unicode="&#xda;" horiz-adv-x="1308" 
d="M401 1365v-800q0 -176 61 -249q69 -83 192 -83q87 0 155 50q66 49 86 139q11 49 11 144v799h282v-790q0 -205 -59 -328q-67 -142 -206 -213q-119 -60 -266 -60q-175 0 -311 84q-143 88 -192 240q-33 103 -33 277v790h280zM712 1760h269l-284 -272h-178z" />
    <glyph glyph-name="Ucircumflex" unicode="&#xdb;" horiz-adv-x="1308" 
d="M401 1365v-800q0 -176 61 -249q69 -83 192 -83q87 0 155 50q66 49 86 139q11 49 11 144v799h282v-790q0 -205 -59 -328q-67 -142 -206 -213q-119 -60 -266 -60q-175 0 -311 84q-143 88 -192 240q-33 103 -33 277v790h280zM657 1627l-163 -139h-182l231 273h237l217 -273
h-182z" />
    <glyph glyph-name="Udieresis" unicode="&#xdc;" horiz-adv-x="1308" 
d="M401 1365v-800q0 -176 61 -249q69 -83 192 -83q87 0 155 50q66 49 86 139q11 49 11 144v799h282v-790q0 -205 -59 -328q-67 -142 -206 -213q-119 -60 -266 -60q-175 0 -311 84q-143 88 -192 240q-33 103 -33 277v790h280zM435 1781q61 0 102 -45q38 -41 38 -98
q0 -62 -49 -105q-38 -34 -92 -34q-63 0 -103 45q-38 41 -38 96q0 64 49 107q38 34 93 34zM871 1781q61 0 102 -45q38 -41 38 -98q0 -63 -49 -105q-38 -34 -92 -34q-63 0 -103 45q-38 41 -38 96q0 64 49 107q38 34 93 34z" />
    <glyph glyph-name="Yacute" unicode="&#xdd;" horiz-adv-x="1141" 
d="M715 602v-602h-280v602l-457 763h333l265 -473l260 473h328zM628 1760h269l-283 -272h-178z" />
    <glyph glyph-name="Thorn" unicode="&#xde;" horiz-adv-x="1136" 
d="M420 321v-321h-280v1365h280v-148h156q245 0 376 -116q129 -114 129 -321q0 -165 -83 -281q-126 -178 -403 -178h-175zM420 552h120q82 0 135 23q122 54 122 192q0 130 -108 188q-58 30 -141 30h-128v-433z" />
    <glyph glyph-name="germandbls" unicode="&#xdf;" horiz-adv-x="1089" 
d="M147 728h-93v219h93v105q0 157 118 250q103 81 270 81q163 0 272 -74q63 -42 99 -115q31 -64 31 -135q0 -95 -50 -169q-38 -56 -122 -93q100 -30 164 -104q94 -108 94 -272q0 -186 -96 -314q-94 -125 -277 -125q-89 0 -170 37l44 214q38 -11 67 -11q65 0 108 35
q69 57 69 173q0 120 -83 176q-47 32 -143 39v238q62 6 89 26q51 38 51 110q0 51 -33 90q-39 46 -104 46q-76 0 -114 -58q-23 -34 -23 -120v-977h-261v728z" />
    <glyph glyph-name="agrave" unicode="&#xe0;" horiz-adv-x="1244" 
d="M854 827v120h261v-947h-261v130q-129 -163 -329 -163q-217 0 -349 161q-109 134 -109 334q0 150 69 278q58 109 165 173q108 66 243 66q112 0 200 -53q53 -32 110 -99zM598 759q-123 0 -192 -95q-61 -85 -61 -198q0 -135 83 -218q70 -71 168 -71q118 0 195 98
q67 86 67 199t-60 191q-73 94 -200 94zM573 1376l170 -285h-161l-271 285h262z" />
    <glyph glyph-name="aacute" unicode="&#xe1;" horiz-adv-x="1244" 
d="M854 827v120h261v-947h-261v130q-129 -163 -329 -163q-217 0 -349 161q-109 134 -109 334q0 150 69 278q58 109 165 173q108 66 243 66q112 0 200 -53q53 -32 110 -99zM598 759q-123 0 -192 -95q-61 -85 -61 -198q0 -135 83 -218q70 -71 168 -71q118 0 195 98
q67 86 67 199t-60 191q-73 94 -200 94zM672 1376h262l-272 -285h-160z" />
    <glyph glyph-name="acircumflex" unicode="&#xe2;" horiz-adv-x="1244" 
d="M854 827v120h261v-947h-261v130q-129 -163 -329 -163q-217 0 -349 161q-109 134 -109 334q0 150 69 278q58 109 165 173q108 66 243 66q112 0 200 -53q53 -32 110 -99zM598 759q-123 0 -192 -95q-61 -85 -61 -198q0 -135 83 -218q70 -71 168 -71q118 0 195 98
q67 86 67 199t-60 191q-73 94 -200 94zM624 1242l-143 -151h-182l209 285h241l197 -285h-183z" />
    <glyph glyph-name="atilde" unicode="&#xe3;" horiz-adv-x="1244" 
d="M854 827v120h261v-947h-261v130q-129 -163 -329 -163q-217 0 -349 161q-109 134 -109 334q0 150 69 278q58 109 165 173q108 66 243 66q112 0 200 -53q53 -32 110 -99zM598 759q-123 0 -192 -95q-61 -85 -61 -198q0 -135 83 -218q70 -71 168 -71q118 0 195 98
q67 86 67 199t-60 191q-73 94 -200 94zM805 1346l167 -12q-55 -230 -212 -230q-58 0 -184 60q-32 16 -47 16q-41 0 -61 -72l-168 14q53 226 214 226q62 0 185 -59q29 -14 47 -14q45 0 59 71z" />
    <glyph glyph-name="adieresis" unicode="&#xe4;" horiz-adv-x="1244" 
d="M854 827v120h261v-947h-261v130q-129 -163 -329 -163q-217 0 -349 161q-109 134 -109 334q0 150 69 278q58 109 165 173q108 66 243 66q112 0 200 -53q53 -32 110 -99zM598 759q-123 0 -192 -95q-61 -85 -61 -198q0 -135 83 -218q70 -71 168 -71q118 0 195 98
q67 85 67 199t-60 191q-74 94 -200 94zM438 1378q60 0 101 -45q35 -38 35 -95q0 -61 -46 -101q-39 -34 -91 -34q-62 0 -103 45q-35 37 -35 92q0 64 46 104q38 34 93 34zM874 1378q60 0 101 -45q35 -37 35 -95q0 -61 -46 -101q-39 -34 -92 -34q-61 0 -102 45q-35 37 -35 92
q0 64 46 104q38 34 93 34z" />
    <glyph glyph-name="aring" unicode="&#xe5;" horiz-adv-x="1244" 
d="M854 827v120h261v-947h-261v130q-129 -163 -329 -163q-217 0 -349 161q-109 134 -109 334q0 150 69 278q58 109 165 173q108 66 243 66q112 0 200 -53q53 -32 110 -99zM598 759q-123 0 -192 -95q-61 -85 -61 -198q0 -135 83 -218q70 -71 168 -71q118 0 195 98
q67 85 67 199t-60 191q-74 94 -200 94zM610 1426q82 0 140 -60q49 -51 49 -129q0 -83 -64 -137q-55 -46 -126 -46q-84 0 -141 60q-49 51 -49 126q0 85 64 140q54 46 127 46zM610 1332q-45 0 -73 -32q-22 -27 -22 -60q0 -39 30 -67q26 -25 64 -25q45 0 72 32q22 27 22 59
q0 40 -30 68q-25 25 -63 25z" />
    <glyph glyph-name="ae" unicode="&#xe6;" horiz-adv-x="1936" 
d="M1607 324l236 -73q-58 -110 -132 -172q-133 -112 -297 -112q-101 0 -178 40q-55 29 -110 104v-111h-250v116q-56 -68 -118 -100q-94 -49 -211 -49q-237 0 -370 160q-110 134 -110 337q0 143 60 265q53 107 155 175q114 76 254 76q207 0 340 -143v110h250v-110
q55 72 107 100q76 42 178 42q215 0 350 -166q117 -146 117 -342q0 -24 -2 -62h-750q15 -76 57 -122q78 -88 202 -88q87 0 151 48q33 24 71 77zM1610 558q-16 77 -51 120q-67 82 -185 82t-188 -79q-35 -41 -60 -123h484zM609 760q-137 0 -212 -111q-53 -79 -53 -179
q0 -137 93 -223q77 -70 176 -70q124 0 202 102q56 73 56 182q0 139 -78 221q-74 78 -184 78z" />
    <glyph glyph-name="ccedilla" unicode="&#xe7;" horiz-adv-x="958" 
d="M776 278l157 -169q-157 -142 -364 -142q-215 0 -364 147q-138 136 -138 354q0 161 80 291q71 114 193 171q105 50 230 50q207 0 379 -157l-173 -159q-86 84 -196 84q-116 0 -188 -87q-62 -75 -62 -184q0 -129 84 -210q71 -68 176 -68q93 0 186 79zM426 -425l-105 93
q78 42 125 98q37 45 70 114l179 -76q-51 -78 -109 -128q-60 -51 -160 -101z" />
    <glyph glyph-name="egrave" unicode="&#xe8;" horiz-adv-x="1138" 
d="M1079 412h-741q13 -78 56 -127q74 -86 192 -86q82 0 151 47q43 29 68 76l238 -66q-56 -111 -143 -179q-141 -110 -317 -110q-236 0 -388 161q-128 135 -128 347q0 136 59 252q61 121 177 187t264 66q252 0 399 -178q114 -138 114 -339q0 -18 -1 -51zM812 561
q-13 75 -54 120q-71 79 -188 79q-112 0 -180 -79q-38 -45 -53 -120h475zM520 1376l170 -285h-161l-271 285h262z" />
    <glyph glyph-name="eacute" unicode="&#xe9;" horiz-adv-x="1138" 
d="M1079 412h-741q13 -78 56 -127q74 -86 192 -86q82 0 151 47q43 29 68 76l238 -66q-56 -111 -143 -179q-141 -110 -317 -110q-236 0 -388 161q-128 135 -128 347q0 136 59 252q61 121 177 187t264 66q252 0 399 -178q114 -138 114 -339q0 -18 -1 -51zM812 561
q-13 75 -54 120q-71 79 -188 79q-112 0 -180 -79q-38 -45 -53 -120h475zM619 1376h262l-271 -285h-161z" />
    <glyph glyph-name="ecircumflex" unicode="&#xea;" horiz-adv-x="1138" 
d="M1079 412h-741q13 -78 56 -127q74 -86 192 -86q82 0 151 47q43 29 68 76l238 -66q-56 -111 -143 -179q-141 -110 -317 -110q-236 0 -388 161q-128 135 -128 347q0 136 59 252q61 121 177 187t264 66q252 0 399 -178q114 -138 114 -339q0 -18 -1 -51zM812 561
q-13 75 -54 120q-71 79 -188 79q-112 0 -180 -79q-38 -45 -53 -120h475zM571 1242l-143 -151h-182l209 285h241l197 -285h-182z" />
    <glyph glyph-name="edieresis" unicode="&#xeb;" horiz-adv-x="1138" 
d="M1079 412h-741q13 -78 56 -127q74 -86 192 -86q82 0 151 47q43 29 68 76l238 -66q-56 -111 -143 -179q-141 -110 -317 -110q-236 0 -388 161q-128 135 -128 347q0 136 59 252q61 121 177 187t264 66q252 0 399 -178q114 -138 114 -339q0 -18 -1 -51zM812 561
q-13 75 -54 120q-71 79 -188 79q-112 0 -180 -79q-38 -45 -53 -120h475zM351 1378q60 0 101 -45q35 -38 35 -95q0 -61 -46 -101q-39 -34 -91 -34q-62 0 -103 45q-35 37 -35 92q0 64 46 104q38 34 93 34zM788 1378q60 0 101 -45q35 -38 35 -95q0 -61 -46 -101
q-39 -34 -91 -34q-62 0 -103 45q-35 38 -35 92q0 64 46 104q38 34 93 34z" />
    <glyph glyph-name="igrave" unicode="&#xec;" horiz-adv-x="519" 
d="M390 947v-947h-261v947h261zM210 1376l170 -285h-161l-271 285h262z" />
    <glyph glyph-name="iacute" unicode="&#xed;" horiz-adv-x="519" 
d="M390 947v-947h-261v947h261zM309 1376h262l-271 -285h-161z" />
    <glyph glyph-name="icircumflex" unicode="&#xee;" horiz-adv-x="519" 
d="M390 947v-947h-261v947h261zM261 1242l-143 -151h-182l209 285h241l197 -285h-183z" />
    <glyph glyph-name="idieresis" unicode="&#xef;" horiz-adv-x="519" 
d="M390 947v-947h-261v947h261zM80 1378q60 0 101 -45q35 -38 35 -95q0 -61 -46 -101q-39 -34 -91 -34q-62 0 -103 45q-35 37 -35 92q0 64 46 104q38 34 93 34zM439 1378q60 0 101 -45q35 -38 35 -95q0 -61 -46 -101q-39 -34 -91 -34q-62 0 -103 45q-35 38 -35 92
q0 64 46 104q39 34 93 34z" />
    <glyph glyph-name="eth" unicode="&#xf0;" horiz-adv-x="1166" 
d="M356 1180l156 84q-95 74 -211 113l51 81q148 -34 291 -123l212 114l60 -103l-157 -82q115 -91 190 -213q152 -246 152 -536q0 -277 -166 -422q-146 -126 -353 -126q-141 0 -262 64q-126 67 -192 191q-60 112 -60 252q0 223 146 365q145 140 365 140q89 0 189 -37
q-31 81 -67 135q-32 48 -89 107l-200 -109zM584 746q-135 0 -204 -99q-50 -72 -50 -172q0 -133 75 -206q73 -70 176 -70q122 0 196 87q58 67 58 191q0 128 -73 200q-70 69 -178 69z" />
    <glyph glyph-name="ntilde" unicode="&#xf1;" horiz-adv-x="1088" 
d="M129 947h261v-116q46 73 92 104q68 45 163 45q144 0 234 -88q56 -55 71 -128q14 -68 14 -165v-599h-261v586q0 75 -23 111q-40 63 -124 63q-82 0 -132 -67q-34 -46 -34 -118v-575h-261v947zM726 1346l167 -12q-54 -230 -212 -230q-57 0 -183 60q-33 16 -47 16
q-42 0 -62 -72l-167 14q52 226 214 226q61 0 185 -59q28 -14 47 -14q44 0 58 71z" />
    <glyph glyph-name="ograve" unicode="&#xf2;" horiz-adv-x="1164" 
d="M585 980q239 0 388 -168q125 -142 125 -347q0 -221 -165 -367q-147 -131 -353 -131q-162 0 -289 80q-119 76 -178 201q-46 101 -46 224q0 246 167 388q140 120 351 120zM584 747q-120 0 -192 -83q-63 -72 -63 -190q0 -130 74 -203q74 -72 179 -72q121 0 196 91
q57 68 57 179q0 136 -73 208q-70 70 -178 70zM533 1376l170 -285h-160l-272 285h262z" />
    <glyph glyph-name="oacute" unicode="&#xf3;" horiz-adv-x="1164" 
d="M585 980q239 0 388 -168q125 -142 125 -347q0 -221 -165 -367q-147 -131 -353 -131q-162 0 -289 80q-119 76 -178 201q-46 101 -46 224q0 246 167 388q140 120 351 120zM584 747q-120 0 -192 -83q-63 -72 -63 -190q0 -130 74 -203q74 -72 179 -72q121 0 196 91
q57 68 57 179q0 136 -73 208q-70 70 -178 70zM632 1376h262l-271 -285h-161z" />
    <glyph glyph-name="ocircumflex" unicode="&#xf4;" horiz-adv-x="1164" 
d="M585 980q239 0 388 -168q125 -142 125 -347q0 -221 -165 -367q-147 -131 -353 -131q-162 0 -289 80q-119 76 -178 201q-46 101 -46 224q0 246 167 388q140 120 351 120zM584 747q-120 0 -192 -83q-63 -72 -63 -190q0 -130 74 -203q74 -72 179 -72q121 0 196 91
q57 68 57 179q0 136 -73 208q-70 70 -178 70zM584 1242l-143 -151h-182l209 285h241l197 -285h-182z" />
    <glyph glyph-name="otilde" unicode="&#xf5;" horiz-adv-x="1164" 
d="M585 980q239 0 388 -168q125 -142 125 -347q0 -221 -165 -367q-147 -131 -353 -131q-162 0 -289 80q-119 76 -178 201q-46 101 -46 224q0 246 167 388q140 120 351 120zM584 747q-120 0 -192 -83q-63 -72 -63 -190q0 -130 74 -203q74 -72 179 -72q121 0 196 91
q57 68 57 179q0 136 -73 208q-70 70 -178 70zM765 1346l167 -12q-55 -230 -212 -230q-58 0 -184 60q-32 16 -46 16q-42 0 -62 -72l-168 14q53 226 214 226q62 0 185 -59q29 -14 47 -14q45 0 59 71z" />
    <glyph glyph-name="odieresis" unicode="&#xf6;" horiz-adv-x="1164" 
d="M585 980q239 0 388 -168q125 -141 125 -347q0 -221 -165 -367q-147 -131 -353 -131q-261 0 -410 189q-103 130 -103 316q0 246 167 388q140 120 351 120zM584 747q-120 0 -192 -83q-63 -73 -63 -190q0 -130 74 -203q74 -72 179 -72q121 0 196 91q57 68 57 179
q0 136 -73 208q-70 70 -178 70zM365 1378q60 0 101 -45q35 -38 35 -95q0 -61 -46 -101q-39 -34 -91 -34q-62 0 -103 45q-35 37 -35 92q0 64 45 104q39 34 94 34zM800 1378q61 0 102 -45q35 -37 35 -95q0 -61 -46 -101q-39 -34 -92 -34q-61 0 -102 45q-35 37 -35 92
q0 64 46 104q38 34 92 34z" />
    <glyph glyph-name="divide" unicode="&#xf7;" 
d="M25 794h973v-135h-973v135zM513 1192q42 0 74 -30q32 -32 32 -77q0 -46 -33 -78q-31 -30 -75 -30q-43 0 -74 30q-33 32 -33 77q0 47 32 78q32 30 77 30zM513 475q45 0 77 -34q29 -30 29 -73q0 -46 -33 -78q-32 -30 -75 -30q-42 0 -74 30q-33 32 -33 77q0 44 29 74
q33 34 80 34z" />
    <glyph glyph-name="oslash" unicode="&#xf8;" horiz-adv-x="1165" 
d="M243 81l-109 -103l-64 68l106 103q-109 136 -109 323q0 247 171 389q143 119 338 119q189 0 342 -113l113 109l62 -67l-108 -107q114 -156 114 -333q0 -139 -70 -257q-70 -119 -190 -183q-115 -62 -257 -62q-190 0 -339 114zM422 252q75 -53 164 -53q114 0 191 82
q66 70 66 191q0 87 -40 159zM740 698q-72 48 -157 48q-125 0 -201 -87q-61 -71 -61 -192q0 -75 38 -145z" />
    <glyph glyph-name="ugrave" unicode="&#xf9;" horiz-adv-x="1054" 
d="M681 947h261v-599q0 -144 -47 -217q-55 -84 -161 -127q-91 -37 -206 -37q-202 0 -316 103q-101 92 -101 278v599h261v-582q0 -61 29 -111q39 -67 128 -67q82 0 125 60q27 37 27 101v599zM477 1376l170 -285h-160l-272 285h262z" />
    <glyph glyph-name="uacute" unicode="&#xfa;" horiz-adv-x="1054" 
d="M681 947h261v-599q0 -144 -47 -217q-55 -84 -161 -127q-91 -37 -206 -37q-202 0 -316 103q-101 92 -101 278v599h261v-582q0 -61 29 -111q39 -67 128 -67q82 0 125 60q27 37 27 101v599zM576 1376h262l-271 -285h-161z" />
    <glyph glyph-name="ucircumflex" unicode="&#xfb;" horiz-adv-x="1054" 
d="M681 947h261v-599q0 -144 -47 -217q-55 -84 -161 -127q-91 -37 -206 -37q-202 0 -316 103q-101 92 -101 278v599h261v-582q0 -61 29 -111q39 -67 128 -67q82 0 125 60q27 37 27 101v599zM528 1242l-143 -151h-182l209 285h241l197 -285h-182z" />
    <glyph glyph-name="udieresis" unicode="&#xfc;" horiz-adv-x="1054" 
d="M681 947h261v-599q0 -144 -47 -217q-55 -84 -161 -127q-91 -37 -206 -37q-202 0 -316 103q-101 92 -101 278v599h261v-582q0 -61 29 -111q39 -67 128 -67q82 0 125 60q27 37 27 101v599zM309 1378q60 0 101 -45q35 -38 35 -95q0 -61 -46 -101q-39 -34 -92 -34
q-61 0 -102 45q-35 37 -35 92q0 64 46 104q38 34 93 34zM745 1378q60 0 101 -45q35 -38 35 -95q0 -61 -46 -101q-39 -34 -91 -34q-62 0 -103 45q-35 37 -35 92q0 64 46 104q38 34 93 34z" />
    <glyph glyph-name="yacute" unicode="&#xfd;" horiz-adv-x="960" 
d="M466 384l221 563h277l-534 -1380h-280l179 455l-332 925h277zM530 1376h262l-272 -285h-160z" />
    <glyph glyph-name="thorn" unicode="&#xfe;" horiz-adv-x="1246" 
d="M128 1365h261v-535q49 66 101 97q88 53 211 53q146 0 263 -79q216 -145 216 -431q0 -277 -189 -415q-120 -88 -285 -88q-199 0 -317 136v-528h-261v1790zM649 761q-134 0 -209 -111q-51 -76 -51 -188q0 -133 71 -209t181 -76q136 0 209 107q52 76 52 180q0 135 -72 216
t-181 81z" />
    <glyph glyph-name="ydieresis" unicode="&#xff;" horiz-adv-x="960" 
d="M466 384l221 563h277l-534 -1380h-280l179 455l-332 925h277zM262 1378q60 0 101 -45q35 -38 35 -95q0 -61 -46 -101q-39 -34 -91 -34q-62 0 -103 45q-35 37 -35 92q0 64 46 104q38 34 93 34zM699 1378q60 0 101 -45q35 -38 35 -95q0 -61 -46 -101q-39 -34 -91 -34
q-62 0 -103 45q-35 37 -35 92q0 64 46 104q38 34 93 34z" />
    <glyph glyph-name="Amacron" unicode="&#x100;" horiz-adv-x="1295" 
d="M907 236h-526l-81 -236h-297l472 1365h350l466 -1365h-308zM833 466l-189 565l-191 -565h380zM446 1574v112h402v-112h-402z" />
    <glyph glyph-name="amacron" unicode="&#x101;" horiz-adv-x="1244" 
d="M854 827v120h261v-947h-261v130q-129 -163 -329 -163q-217 0 -349 161q-109 134 -109 334q0 150 69 278q58 109 165 173q108 66 243 66q112 0 200 -53q53 -32 110 -99zM598 759q-123 0 -192 -95q-61 -85 -61 -198q0 -135 83 -218q70 -71 168 -71q118 0 195 98
q67 86 67 199t-60 191q-73 94 -200 94zM436 1176v114h372v-114h-372z" />
    <glyph glyph-name="Abreve" unicode="&#x102;" horiz-adv-x="1295" 
d="M907 236h-526l-81 -236h-297l472 1365h350l466 -1365h-308zM833 466l-189 565l-191 -565h380zM294 1750h181q25 -40 46 -59q47 -41 126 -41q80 0 126 41q22 19 46 59h181q-25 -85 -71 -136q-104 -119 -282 -119q-177 0 -282 119q-45 51 -71 136z" />
    <glyph glyph-name="abreve" unicode="&#x103;" horiz-adv-x="1244" 
d="M854 827v120h261v-947h-261v130q-129 -163 -329 -163q-217 0 -349 161q-109 134 -109 334q0 150 69 278q58 109 165 173q108 66 243 66q112 0 200 -53q53 -32 110 -99zM598 759q-123 0 -192 -95q-61 -85 -61 -198q0 -135 83 -218q70 -71 168 -71q118 0 195 98
q67 86 67 199t-60 191q-73 94 -200 94zM660 1361h180q-5 -76 -30 -127q-27 -57 -80 -89q-48 -29 -108 -29q-86 0 -145 59q-64 63 -72 186h180q10 -40 9 -73q0 -58 27 -58q30 0 29 58q0 33 10 73z" />
    <glyph glyph-name="Aogonek" unicode="&#x104;" horiz-adv-x="1326" 
d="M1325 0q-115 -68 -115 -141q0 -45 37 -74q31 -24 72 -24q39 0 98 24v-126q-83 -31 -145 -31q-91 0 -153 51q-61 51 -61 122q0 111 150 199h-174l-106 284h-530l-107 -284h-290l523 1365h282zM863 487l-132 346q-37 98 -65 234q-35 -143 -71 -237l-133 -343h401z" />
    <glyph glyph-name="aogonek" unicode="&#x105;" horiz-adv-x="1113" 
d="M1042 0q-106 -64 -106 -140q0 -41 34 -71q32 -27 77 -27q36 0 92 22v-116q-81 -27 -140 -27q-92 0 -149 46q-59 46 -59 124q0 98 134 189h-150q-6 12 -9 17q-14 24 -16 49q-2 31 -2 80q-45 -66 -89 -99q-99 -74 -254 -74q-158 0 -250 71q-98 77 -98 223q0 212 211 271
q81 23 297 47q118 14 151 40q26 20 26 74q0 153 -187 153q-117 0 -166 -62q-28 -36 -38 -105h-243q17 329 452 329q226 0 343 -93q74 -58 88 -159q4 -33 4 -94v-40l-2 -162q-1 -204 -1 -236q0 -117 15 -167q6 -22 35 -63zM743 496q-37 -28 -68 -37t-169 -26
q-185 -22 -185 -157q0 -70 48 -110q44 -37 123 -37q137 0 206 99q45 66 45 164v104z" />
    <glyph glyph-name="Cacute" unicode="&#x106;" horiz-adv-x="1300" 
d="M1087 373l170 -193q-102 -96 -192 -139q-143 -68 -316 -68q-304 0 -489 205q-101 111 -149 266q-35 115 -35 236q0 202 94 375q93 173 262 262q141 74 322 74q184 0 332 -76q83 -42 184 -140l-183 -185q-156 142 -320 142q-187 0 -302 -135q-105 -123 -105 -311
q0 -140 65 -254q51 -91 148 -146q95 -54 209 -54q183 0 305 141zM707 1760h269l-283 -272h-179z" />
    <glyph glyph-name="cacute" unicode="&#x107;" horiz-adv-x="958" 
d="M776 278l157 -169q-157 -142 -364 -142q-215 0 -364 147q-138 136 -138 354q0 161 80 291q71 114 193 171q105 50 230 50q206 0 379 -157l-173 -159q-86 84 -196 84q-116 0 -188 -87q-62 -75 -62 -184q0 -130 84 -210q71 -68 176 -68q93 0 186 79zM529 1376h262
l-271 -285h-161z" />
    <glyph glyph-name="Ccircumflex" unicode="&#x108;" horiz-adv-x="1300" 
d="M1087 373l170 -193q-102 -96 -192 -139q-143 -68 -316 -68q-304 0 -489 205q-101 111 -149 266q-35 115 -35 236q0 202 94 375q93 173 262 262q141 74 322 74q184 0 332 -76q83 -42 184 -140l-183 -185q-156 142 -320 142q-187 0 -302 -135q-105 -123 -105 -311
q0 -140 65 -254q51 -91 148 -146q95 -54 209 -54q183 0 305 141zM652 1627l-162 -139h-183l232 273h236l217 -273h-182z" />
    <glyph glyph-name="Cdotaccent" unicode="&#x10a;" horiz-adv-x="1300" 
d="M1087 373l170 -193q-102 -96 -192 -139q-143 -68 -316 -68q-304 0 -489 205q-101 111 -149 266q-35 115 -35 236q0 202 94 375q93 173 262 262q141 74 322 74q184 0 332 -76q83 -42 184 -140l-183 -185q-156 142 -320 142q-187 0 -302 -135q-105 -123 -105 -311
q0 -140 65 -254q51 -91 148 -146q95 -54 209 -54q183 0 305 141zM648 1781q61 0 102 -45q38 -41 38 -98q0 -62 -49 -105q-38 -34 -92 -34q-62 0 -103 45q-38 41 -38 96q0 64 49 107q38 34 93 34z" />
    <glyph glyph-name="cdotaccent" unicode="&#x10b;" horiz-adv-x="958" 
d="M776 278l157 -169q-157 -142 -364 -142q-215 0 -364 147q-138 136 -138 354q0 161 80 291q71 114 193 171q105 50 230 50q206 0 379 -157l-173 -159q-86 84 -196 84q-116 0 -188 -87q-62 -75 -62 -184q0 -130 84 -210q71 -68 176 -68q93 0 186 79zM480 1378q60 0 101 -45
q35 -38 35 -95q0 -61 -46 -101q-39 -34 -91 -34q-62 0 -103 45q-35 37 -35 92q0 64 46 104q38 34 93 34z" />
    <glyph glyph-name="Ccaron" unicode="&#x10c;" horiz-adv-x="1300" 
d="M1087 373l170 -193q-102 -96 -192 -139q-143 -68 -316 -68q-304 0 -489 205q-101 111 -149 266q-35 115 -35 236q0 202 94 375q93 173 262 262q141 74 322 74q184 0 332 -76q83 -42 184 -140l-183 -185q-156 142 -320 142q-187 0 -302 -135q-105 -123 -105 -311
q0 -140 65 -254q51 -91 148 -146q95 -54 209 -54q183 0 305 141zM647 1622l162 139h183l-231 -273h-237l-217 273h182z" />
    <glyph glyph-name="ccaron" unicode="&#x10d;" horiz-adv-x="958" 
d="M776 278l157 -169q-157 -142 -364 -142q-215 0 -364 147q-138 136 -138 354q0 161 80 291q71 114 193 171q105 50 230 50q206 0 379 -157l-173 -159q-86 84 -196 84q-116 0 -188 -87q-62 -75 -62 -184q0 -130 84 -210q71 -68 176 -68q93 0 186 79zM478 1225l143 151h182
l-209 -285h-241l-197 285h182z" />
    <glyph glyph-name="Dcaron" unicode="&#x10e;" horiz-adv-x="1312" 
d="M143 0v1365h387q231 0 370 -70q172 -86 261 -262q75 -147 75 -335q0 -236 -111 -414q-177 -284 -579 -284h-403zM423 1138v-907h54q152 0 238 41q119 57 183 180q54 104 54 237q0 149 -66 262q-61 104 -175 151q-85 36 -185 36h-103zM654 1622l162 139h183l-231 -273
h-237l-217 273h182z" />
    <glyph glyph-name="dcaron" unicode="&#x10f;" horiz-adv-x="1590" 
d="M854 842v523h261v-1365h-261v124q-56 -77 -113 -108q-89 -49 -205 -49q-220 0 -352 151q-117 133 -117 347q0 244 152 385q140 130 322 130q91 0 175 -35q68 -29 138 -103zM602 761q-133 0 -207 -114q-51 -79 -51 -183q0 -132 78 -211q74 -76 178 -76q119 0 192 96
q62 81 62 193q0 128 -71 211q-71 84 -181 84zM1522 1332l-162 -426l-175 46l114 440z" />
    <glyph glyph-name="Dcroat" unicode="&#x110;" horiz-adv-x="1312" 
d="M143 801v564h388q230 0 369 -70q173 -87 262 -262q74 -146 74 -335q0 -236 -111 -414q-177 -284 -579 -284h-403v582h-133v219h133zM423 801h242v-219h-242v-350h54q152 0 238 40q119 57 183 180q54 104 54 238q0 149 -66 261q-61 104 -175 151q-85 36 -185 36h-103v-337
z" />
    <glyph glyph-name="dcroat" unicode="&#x111;" horiz-adv-x="1244" 
d="M854 1245v120h261v-120h122v-194h-122v-1051h-261v124q-56 -77 -113 -108q-88 -49 -205 -49q-220 0 -352 151q-117 133 -117 346q0 244 152 385q139 130 322 130q92 0 175 -35q69 -29 138 -102v209h-220v194h220zM602 760q-134 0 -207 -113q-51 -79 -51 -184
q0 -131 78 -210q74 -76 178 -76q119 0 192 95q62 82 62 193q0 128 -71 211q-71 84 -181 84z" />
    <glyph glyph-name="Emacron" unicode="&#x112;" horiz-adv-x="949" 
d="M376 1136v-336h479v-229h-479v-342h479v-229h-759v1365h759v-229h-479zM275 1574v112h402v-112h-402z" />
    <glyph glyph-name="emacron" unicode="&#x113;" horiz-adv-x="1138" 
d="M1079 412h-741q13 -78 56 -127q74 -86 192 -86q82 0 151 47q43 29 68 76l238 -66q-56 -111 -143 -179q-141 -110 -317 -110q-236 0 -388 161q-128 135 -128 347q0 136 59 252q61 121 177 187t264 66q252 0 399 -178q114 -138 114 -339q0 -18 -1 -51zM812 561
q-13 75 -54 120q-71 79 -188 79q-112 0 -180 -79q-38 -45 -53 -120h475zM383 1176v114h372v-114h-372z" />
    <glyph glyph-name="Ebreve" unicode="&#x114;" horiz-adv-x="949" 
d="M376 1136v-336h479v-229h-479v-342h479v-229h-759v1365h759v-229h-479zM121 1750h182q24 -40 45 -59q47 -41 126 -41q80 0 126 41q22 19 46 59h181q-25 -85 -71 -136q-104 -119 -282 -119q-177 0 -282 119q-45 51 -71 136z" />
    <glyph glyph-name="Edotaccent" unicode="&#x116;" horiz-adv-x="949" 
d="M376 1136v-336h479v-229h-479v-342h479v-229h-759v1365h759v-229h-479zM473 1781q61 0 102 -45q38 -41 38 -98q0 -63 -49 -105q-38 -34 -92 -34q-63 0 -103 45q-38 41 -38 96q0 64 49 107q38 34 93 34z" />
    <glyph glyph-name="edotaccent" unicode="&#x117;" horiz-adv-x="1138" 
d="M1079 412h-741q13 -78 56 -127q74 -86 192 -86q82 0 151 47q43 29 68 76l238 -66q-56 -111 -143 -179q-141 -110 -317 -110q-236 0 -388 161q-128 135 -128 347q0 136 59 252q61 121 177 187t264 66q252 0 399 -178q114 -138 114 -339q0 -18 -1 -51zM812 561
q-13 75 -54 120q-71 79 -188 79q-112 0 -180 -79q-38 -45 -53 -120h475zM570 1378q60 0 101 -45q35 -38 35 -95q0 -61 -46 -101q-39 -34 -91 -34q-62 0 -103 45q-35 37 -35 92q0 64 46 104q38 34 93 34z" />
    <glyph glyph-name="Eogonek" unicode="&#x118;" horiz-adv-x="1261" 
d="M1193 0q-37 -23 -56 -38q-60 -45 -60 -102q0 -45 35 -74q31 -25 75 -25q38 0 97 24l-12 -126q-84 -31 -145 -31q-92 0 -154 51q-61 51 -61 123q0 110 149 198h-937v1365h1053v-228h-769v-320h708v-219h-708v-361h785v-237z" />
    <glyph glyph-name="eogonek" unicode="&#x119;" horiz-adv-x="1130" 
d="M609 -25q-71 -57 -71 -119q0 -39 34 -69q33 -27 77 -27q34 0 91 21v-116q-81 -26 -139 -26q-93 0 -149 45q-59 47 -59 126q0 85 105 168q-126 16 -215 73q-106 67 -164 184q-58 114 -58 252q0 217 129 364q142 162 379 162q240 0 379 -163q124 -146 124 -381v-28h-761
q3 -90 39 -159q70 -139 227 -139q110 0 175 68q31 32 59 104h244q-27 -121 -128 -216q-99 -94 -236 -116q-31 -5 -82 -8zM817 577q-4 92 -38 150q-67 116 -207 116q-98 0 -167 -60q-75 -65 -93 -206h505z" />
    <glyph glyph-name="Ecaron" unicode="&#x11a;" horiz-adv-x="949" 
d="M376 1136v-336h479v-229h-479v-342h479v-229h-759v1365h759v-229h-479zM472 1622l162 139h183l-232 -273h-236l-217 273h182z" />
    <glyph glyph-name="ecaron" unicode="&#x11b;" horiz-adv-x="1138" 
d="M1079 412h-741q13 -78 56 -127q74 -86 192 -86q82 0 151 47q43 29 68 76l238 -66q-56 -111 -143 -179q-141 -110 -317 -110q-236 0 -388 161q-128 135 -128 347q0 136 59 252q61 121 177 187t264 66q252 0 399 -178q114 -138 114 -339q0 -18 -1 -51zM812 561
q-13 75 -54 120q-71 79 -188 79q-112 0 -180 -79q-38 -45 -53 -120h475zM568 1225l143 151h182l-209 -285h-241l-197 285h182z" />
    <glyph glyph-name="Gcircumflex" unicode="&#x11c;" horiz-adv-x="1541" 
d="M796 766h683q1 -38 1 -74q0 -305 -199 -506q-209 -212 -503 -212q-186 0 -345 87q-165 89 -258 245q-99 165 -99 375q0 305 203 511q197 199 496 199q210 0 389 -113q92 -58 165 -149l-212 -166q-55 67 -104 100q-102 69 -232 69q-140 0 -247 -80q-90 -68 -138 -185
q-36 -90 -36 -188q0 -211 148 -343q121 -108 281 -108q123 0 228 70q93 62 135 164q11 26 24 75h-380v229zM772 1627l-162 -139h-182l231 273h237l217 -273h-182z" />
    <glyph glyph-name="gcircumflex" unicode="&#x11d;" horiz-adv-x="1206" 
d="M821 830v117h256v-878q0 -197 -55 -300q-64 -120 -198 -183q-118 -55 -266 -55q-275 0 -466 188l161 164q122 -132 294 -132q134 0 206 77q68 73 68 204v97q-128 -162 -334 -162q-121 0 -226 64q-223 135 -223 436q0 146 63 272q58 118 168 180q106 61 245 61
q101 0 184 -43q66 -35 123 -107zM569 748q-127 0 -201 -97q-53 -70 -53 -173q0 -134 84 -213q71 -66 171 -66q121 0 196 87q50 57 50 169q0 149 -70 219q-74 74 -177 74zM605 1242l-143 -151h-182l209 285h241l197 -285h-182z" />
    <glyph glyph-name="Gbreve" unicode="&#x11e;" horiz-adv-x="1541" 
d="M796 766h683q1 -38 1 -74q0 -305 -199 -506q-209 -212 -503 -212q-186 0 -345 87q-165 89 -258 245q-99 165 -99 375q0 305 203 511q197 199 496 199q210 0 389 -113q92 -58 165 -149l-212 -166q-55 67 -104 100q-102 69 -232 69q-140 0 -247 -80q-90 -68 -138 -185
q-36 -90 -36 -188q0 -211 148 -343q121 -108 281 -108q123 0 228 70q93 62 135 164q11 26 24 75h-380v229zM417 1750h181q25 -40 46 -59q47 -41 126 -41q80 0 126 41q22 19 46 59h181q-25 -85 -71 -136q-104 -119 -282 -119q-177 0 -282 119q-45 51 -71 136z" />
    <glyph glyph-name="gbreve" unicode="&#x11f;" horiz-adv-x="1206" 
d="M821 830v117h256v-878q0 -197 -55 -300q-64 -120 -198 -183q-118 -55 -266 -55q-275 0 -466 188l161 164q122 -132 294 -132q134 0 206 77q68 73 68 204v97q-128 -162 -334 -162q-121 0 -226 64q-223 135 -223 436q0 146 63 272q58 118 168 180q106 61 245 61
q101 0 184 -43q66 -35 123 -107zM569 748q-127 0 -201 -97q-53 -70 -53 -173q0 -134 84 -213q71 -66 171 -66q121 0 196 87q50 57 50 169q0 149 -70 219q-74 74 -177 74zM641 1361h180q-5 -76 -29 -127q-28 -57 -81 -89q-48 -29 -108 -29q-86 0 -145 59q-64 63 -72 186h180
q10 -40 9 -73q0 -58 28 -58q29 0 29 58q-1 33 9 73z" />
    <glyph glyph-name="Gdotaccent" unicode="&#x120;" horiz-adv-x="1541" 
d="M796 766h683q1 -38 1 -74q0 -305 -199 -506q-209 -212 -503 -212q-186 0 -345 87q-165 89 -258 245q-99 165 -99 375q0 305 203 511q197 199 496 199q210 0 389 -113q92 -58 165 -149l-212 -166q-55 67 -104 100q-102 69 -232 69q-140 0 -247 -80q-90 -68 -138 -185
q-36 -90 -36 -188q0 -211 148 -343q121 -108 281 -108q123 0 228 70q93 62 135 164q11 26 24 75h-380v229zM769 1781q61 0 102 -45q38 -41 38 -98q0 -62 -49 -105q-38 -34 -92 -34q-62 0 -103 45q-38 41 -38 96q0 64 49 107q38 34 93 34z" />
    <glyph glyph-name="gdotaccent" unicode="&#x121;" horiz-adv-x="1206" 
d="M821 830v117h256v-878q0 -197 -55 -300q-64 -120 -198 -183q-118 -55 -266 -55q-275 0 -466 188l161 164q122 -132 294 -132q134 0 206 77q68 73 68 204v97q-128 -162 -334 -162q-121 0 -226 64q-223 135 -223 436q0 146 63 272q58 118 168 180q106 61 245 61
q101 0 184 -43q66 -35 123 -107zM569 748q-127 0 -201 -97q-53 -70 -53 -173q0 -134 84 -213q71 -66 171 -66q121 0 196 87q50 57 50 169q0 149 -70 219q-74 74 -177 74zM604 1378q60 0 101 -45q35 -38 35 -95q0 -61 -46 -101q-39 -34 -91 -34q-62 0 -103 45q-35 37 -35 92
q0 64 46 104q38 34 93 34z" />
    <glyph glyph-name="Gcommaaccent" unicode="&#x122;" horiz-adv-x="1541" 
d="M796 766h683q1 -38 1 -74q0 -305 -199 -506q-209 -212 -503 -212q-186 0 -345 87q-165 89 -258 245q-99 165 -99 375q0 305 203 511q197 199 496 199q210 0 389 -113q92 -58 165 -149l-212 -166q-55 67 -104 100q-102 69 -232 69q-140 0 -247 -80q-90 -68 -138 -185
q-36 -90 -36 -188q0 -211 148 -343q121 -108 281 -108q123 0 228 70q93 62 135 164q11 26 24 75h-380v229zM884 -87v-135q0 -147 -82 -201q-52 -35 -160 -42v85q62 5 100 27q35 21 39 86h-128v180h231z" />
    <glyph glyph-name="gcommaaccent" unicode="&#x123;" horiz-adv-x="1206" 
d="M821 830v117h256v-878q0 -197 -55 -300q-64 -120 -198 -183q-118 -55 -266 -55q-275 0 -466 188l161 164q122 -132 294 -132q134 0 206 77q68 73 68 204v97q-128 -162 -334 -162q-121 0 -226 64q-223 135 -223 436q0 146 63 272q58 118 168 180q106 61 245 61
q101 0 184 -43q66 -35 123 -107zM569 748q-127 0 -201 -97q-53 -70 -53 -173q0 -134 84 -213q71 -66 171 -66q121 0 196 87q50 57 50 169q0 149 -70 219q-74 74 -177 74zM459 1166l162 426l176 -46l-115 -440z" />
    <glyph glyph-name="Hcircumflex" unicode="&#x124;" horiz-adv-x="1365" 
d="M423 560v-560h-280v1365h280v-576h519v576h280v-1365h-280v560h-519zM685 1627l-162 -139h-183l232 273h236l217 -273h-182z" />
    <glyph glyph-name="Hbar" unicode="&#x126;" horiz-adv-x="1409" 
d="M1287 1200h118v-162h-118v-1038h-285v593h-593v-593h-284v1038h-120v162h120v165h284v-165h593v165h285v-165zM409 1038v-229h593v229h-593z" />
    <glyph glyph-name="hbar" unicode="&#x127;" horiz-adv-x="1178" 
d="M379 1236h223v-155h-223v-268q43 81 92 121q97 79 231 79q191 0 290 -134q66 -89 66 -259v-620h-259v570q0 114 -42 165q-57 70 -155 70q-117 0 -181 -100q-42 -66 -42 -197v-508h-259v1081h-141v155h141v129h259v-129z" />
    <glyph glyph-name="Imacron" unicode="&#x12a;" horiz-adv-x="566" 
d="M423 1365v-1365h-280v1365h280zM82 1574v112h402v-112h-402z" />
    <glyph glyph-name="imacron" unicode="&#x12b;" horiz-adv-x="519" 
d="M390 947v-947h-261v947h261zM73 1176v114h372v-114h-372z" />
    <glyph glyph-name="ibreve" unicode="&#x12d;" horiz-adv-x="519" 
d="M390 947v-947h-261v947h261zM297 1361h180q-5 -76 -30 -127q-27 -57 -80 -89q-48 -29 -108 -29q-86 0 -145 59q-64 63 -72 186h180q10 -40 9 -73q0 -58 27 -58q30 0 29 58q0 33 10 73z" />
    <glyph glyph-name="Iogonek" unicode="&#x12e;" horiz-adv-x="566" 
d="M423 0l-20 -15q-122 -94 -122 -167q0 -27 20 -45q30 -25 83 -25q29 0 73 12l18 -149q-75 -23 -143 -23q-109 0 -174 52q-65 51 -65 124q0 132 154 236h-104v1365h280v-1365z" />
    <glyph glyph-name="iogonek" unicode="&#x12f;" horiz-adv-x="519" 
d="M391 0q-60 -57 -79 -87q-17 -28 -17 -58q0 -69 90 -69q29 0 63 11l16 -122q-58 -18 -117 -18q-90 0 -143 39q-61 45 -61 117q0 106 117 187h-130v947h261v-947zM262 1363q64 0 105 -45q38 -42 38 -102q0 -65 -49 -109q-38 -33 -95 -33q-67 0 -107 44q-38 42 -38 100
q0 68 49 112q38 33 97 33z" />
    <glyph glyph-name="Idotaccent" unicode="&#x130;" horiz-adv-x="566" 
d="M423 1365v-1365h-280v1365h280zM282 1781q61 0 102 -45q38 -41 38 -98q0 -62 -49 -105q-38 -34 -92 -34q-63 0 -103 45q-38 41 -38 96q0 64 49 107q38 34 93 34z" />
    <glyph glyph-name="dotlessi" unicode="&#x131;" horiz-adv-x="519" 
d="M390 947v-947h-261v947h261z" />
    <glyph glyph-name="IJ" unicode="&#x132;" horiz-adv-x="1352" 
d="M423 1365v-1365h-280v1365h280zM1232 1365v-881q0 -224 -79 -330q-102 -135 -313 -164q-74 -10 -211 -11v249q36 -4 59 -4q123 0 188 52q49 39 65 110q11 51 11 167v583h-323v229h603z" />
    <glyph glyph-name="ij" unicode="&#x133;" horiz-adv-x="1038" 
d="M390 947v-947h-261v947h261zM261 1363q64 0 105 -45q38 -42 38 -102q0 -65 -49 -109q-38 -33 -95 -33q-67 0 -107 44q-38 42 -38 100q0 68 49 112q38 33 97 33zM909 947v-979q0 -210 -90 -304q-98 -102 -280 -102q-21 0 -69 3v238q21 -1 38 -1q68 0 103 42q37 45 37 124
v979h261zM780 1363q64 0 105 -45q38 -41 38 -102q0 -65 -49 -109q-38 -33 -95 -33q-67 0 -107 44q-38 43 -38 100q0 68 49 112q38 33 97 33z" />
    <glyph glyph-name="Kcommaaccent" unicode="&#x136;" horiz-adv-x="1153" 
d="M423 608v-608h-280v1365h280v-593l388 593h324l-442 -658l442 -707h-328zM691 -87v-135q0 -146 -82 -201q-52 -35 -160 -42v85q63 5 100 27q35 21 39 86h-128v180h231z" />
    <glyph glyph-name="kcommaaccent" unicode="&#x137;" horiz-adv-x="970" 
d="M390 393v-393h-261v1365h261v-781l265 363h301l-323 -454l323 -493h-302zM595 -118v-116q0 -83 -21 -129q-33 -70 -140 -97q-27 -6 -76 -16v86q12 5 76 20q49 12 57 90h-120v162h224z" />
    <glyph glyph-name="kgreenlandic" unicode="&#x138;" horiz-adv-x="1091" 
d="M1063 987l-394 -388l445 -599h-310l-305 428l-119 -112v-316h-260v987h260v-402l387 402h296z" />
    <glyph glyph-name="Lacute" unicode="&#x139;" horiz-adv-x="924" 
d="M423 232h457v-232h-737v1365h280v-1133zM520 1760h269l-284 -272h-178z" />
    <glyph glyph-name="lacute" unicode="&#x13a;" horiz-adv-x="519" 
d="M390 0h-261v1365h261v-1365zM317 1760h269l-284 -272h-178z" />
    <glyph glyph-name="Lcommaaccent" unicode="&#x13b;" horiz-adv-x="924" 
d="M423 232h457v-232h-737v1365h280v-1133zM576 -87v-135q0 -146 -82 -201q-52 -35 -160 -42v85q63 5 100 27q35 21 39 86h-128v180h231z" />
    <glyph glyph-name="lcommaaccent" unicode="&#x13c;" horiz-adv-x="519" 
d="M390 0h-261v1365h261v-1365zM370 -118v-116q0 -83 -21 -129q-33 -69 -140 -97q-27 -7 -77 -16v86q13 5 77 20q49 12 57 90h-120v162h224z" />
    <glyph glyph-name="Lcaron" unicode="&#x13d;" horiz-adv-x="924" 
d="M423 232h457v-232h-737v1365h280v-1133zM908 1332l-162 -426l-176 46l115 440z" />
    <glyph glyph-name="lcaron" unicode="&#x13e;" horiz-adv-x="1002" 
d="M390 0h-261v1365h261v-1365zM933 1332l-162 -426l-175 46l115 440z" />
    <glyph glyph-name="Ldot" unicode="&#x13f;" horiz-adv-x="924" 
d="M423 232h457v-232h-737v1365h280v-1133zM737 864q72 0 117 -49q43 -47 43 -116q0 -74 -56 -122q-42 -37 -106 -37q-74 0 -119 49q-43 47 -43 113q0 76 56 125q42 37 108 37z" />
    <glyph glyph-name="ldot" unicode="&#x140;" horiz-adv-x="843" 
d="M390 0h-261v1365h261v-1365zM683 864q71 0 117 -49q43 -47 43 -116q0 -74 -56 -122q-42 -37 -106 -37q-74 0 -119 49q-43 47 -43 113q0 76 56 125q42 37 108 37z" />
    <glyph glyph-name="Lslash" unicode="&#x141;" horiz-adv-x="924" 
d="M143 731v634h280v-498l194 135v-242l-194 -132v-396h457v-232h-737v492l-119 -86v242z" />
    <glyph glyph-name="lslash" unicode="&#x142;" horiz-adv-x="540" 
d="M139 745v620h261v-480l114 80v-218l-114 -78v-669h-261v530l-113 -81v219z" />
    <glyph glyph-name="Nacute" unicode="&#x143;" horiz-adv-x="1414" 
d="M423 863v-863h-280v1365h275l573 -852v852h280v-1365h-273zM764 1760h269l-283 -272h-178z" />
    <glyph glyph-name="nacute" unicode="&#x144;" horiz-adv-x="1088" 
d="M129 947h261v-116q46 73 92 104q68 45 163 45q144 0 234 -88q56 -55 71 -128q14 -68 14 -165v-599h-261v586q0 75 -23 111q-40 63 -124 63q-82 0 -132 -67q-34 -46 -34 -118v-575h-261v947zM593 1376h262l-271 -285h-160z" />
    <glyph glyph-name="Ncommaaccent" unicode="&#x145;" horiz-adv-x="1414" 
d="M423 863v-863h-280v1365h275l573 -852v852h280v-1365h-273zM821 -87v-135q0 -147 -82 -201q-52 -35 -160 -42v85q63 5 100 27q35 21 39 86h-128v180h231z" />
    <glyph glyph-name="ncommaaccent" unicode="&#x146;" horiz-adv-x="1088" 
d="M129 947h261v-116q46 73 92 104q68 45 163 45q144 0 234 -88q56 -55 71 -128q14 -68 14 -165v-599h-261v586q0 75 -23 111q-40 63 -124 63q-82 0 -132 -67q-34 -46 -34 -118v-575h-261v947zM654 -118v-116q0 -83 -21 -129q-33 -70 -140 -97q-27 -6 -76 -16v86q13 5 76 20
q49 12 57 90h-120v162h224z" />
    <glyph glyph-name="Ncaron" unicode="&#x147;" horiz-adv-x="1414" 
d="M423 863v-863h-280v1365h275l573 -852v852h280v-1365h-273zM705 1622l162 139h182l-231 -273h-237l-216 273h181z" />
    <glyph glyph-name="ncaron" unicode="&#x148;" horiz-adv-x="1088" 
d="M129 947h261v-116q46 73 92 104q68 45 163 45q144 0 234 -88q56 -55 71 -128q14 -68 14 -165v-599h-261v586q0 75 -23 111q-40 63 -124 63q-82 0 -132 -67q-34 -46 -34 -118v-575h-261v947zM543 1225l142 151h182l-209 -285h-240l-198 285h183z" />
    <glyph glyph-name="napostrophe" unicode="&#x149;" horiz-adv-x="1571" 
d="M414 1332l-162 -426l-175 46l115 440zM612 947h261v-116q46 73 92 104q69 45 164 45q144 0 234 -88q56 -55 71 -128q14 -69 14 -165v-599h-261v586q0 75 -23 111q-40 63 -124 63q-83 0 -132 -67q-35 -46 -35 -118v-575h-261v947z" />
    <glyph glyph-name="Eng" unicode="&#x14a;" horiz-adv-x="1345" 
d="M124 1354h267v-229q58 109 105 154q115 110 300 110q197 0 319 -127q70 -73 92 -179q13 -63 13 -167v-1126q0 -99 -52 -135q-41 -27 -152 -27h-246v158h26q99 0 123 53q17 37 17 218v794q0 144 -55 210q-67 82 -189 82q-103 0 -179 -66q-63 -55 -85 -137
q-20 -73 -20 -181v-759h-284v1354z" />
    <glyph glyph-name="eng" unicode="&#x14b;" horiz-adv-x="1185" 
d="M120 982h240v-176q44 81 91 122q97 86 250 86q187 0 286 -116q58 -68 71 -156q8 -58 8 -130v-808q0 -67 -19 -98q-28 -46 -100 -53q-22 -2 -74 -2h-225v121h24q67 0 94 16q39 26 39 94v679q0 73 -9 104q-19 67 -75 101q-49 30 -113 30q-90 0 -154 -55q-79 -67 -79 -243
v-498h-255v982z" />
    <glyph glyph-name="Omacron" unicode="&#x14c;" horiz-adv-x="1564" 
d="M793 1392q177 0 327 -80q188 -101 286 -282q81 -152 81 -354q0 -186 -92 -350q-99 -177 -278 -271q-152 -81 -328 -81q-195 0 -363 96q-180 104 -272 281q-78 149 -78 325q0 313 222 526q200 190 495 190zM785 1133q-196 0 -320 -150q-103 -124 -103 -302
q0 -193 123 -321q123 -127 297 -127q185 0 311 139q61 68 89 163q21 73 21 139q0 217 -135 345q-120 114 -283 114zM581 1574v112h402v-112h-402z" />
    <glyph glyph-name="omacron" unicode="&#x14d;" horiz-adv-x="1164" 
d="M585 980q239 0 388 -168q125 -142 125 -347q0 -221 -165 -367q-147 -131 -353 -131q-162 0 -289 80q-119 76 -178 201q-46 101 -46 224q0 246 167 388q140 120 351 120zM584 747q-120 0 -192 -83q-63 -72 -63 -190q0 -130 74 -203q74 -72 179 -72q121 0 196 91
q57 68 57 179q0 136 -73 208q-70 70 -178 70zM396 1176v114h372v-114h-372z" />
    <glyph glyph-name="Ohungarumlaut" unicode="&#x150;" horiz-adv-x="1564" 
d="M793 1392q177 0 327 -80q188 -101 286 -282q81 -152 81 -354q0 -186 -92 -350q-99 -177 -278 -271q-152 -81 -328 -81q-195 0 -363 96q-180 104 -272 281q-78 149 -78 325q0 313 222 526q200 190 495 190zM785 1133q-196 0 -320 -150q-103 -124 -103 -302
q0 -193 123 -321q123 -127 297 -127q185 0 311 139q61 68 89 163q21 73 21 139q0 217 -135 345q-120 114 -283 114zM660 1757h237l-248 -269h-154zM1021 1757h237l-248 -269h-154z" />
    <glyph glyph-name="ohungarumlaut" unicode="&#x151;" horiz-adv-x="1164" 
d="M585 980q239 0 388 -168q125 -142 125 -347q0 -221 -165 -367q-147 -131 -353 -131q-162 0 -289 80q-119 76 -178 201q-46 101 -46 224q0 246 167 388q140 120 351 120zM584 747q-120 0 -192 -83q-63 -72 -63 -190q0 -130 74 -203q74 -72 179 -72q121 0 196 91
q57 68 57 179q0 136 -73 208q-70 70 -178 70zM458 1371h232l-235 -280h-140zM813 1371h232l-235 -280h-140z" />
    <glyph glyph-name="OE" unicode="&#x152;" horiz-adv-x="2053" 
d="M1492 571v-342h467v-229h-742v161q-68 -81 -155 -122q-137 -66 -293 -66q-182 0 -337 86q-153 85 -245 234q-107 173 -107 392q0 327 226 531q194 175 468 175q153 0 281 -60q81 -38 162 -119v153h742v-229h-467v-336h467v-229h-467zM803 1132q-216 0 -343 -162
q-96 -124 -96 -290q0 -212 146 -343q116 -105 281 -105q208 0 333 156q56 69 82 162q20 70 20 133q0 195 -116 319q-64 69 -154 102q-78 28 -153 28z" />
    <glyph glyph-name="oe" unicode="&#x153;" horiz-adv-x="1858" 
d="M1583 320l213 -72q-55 -105 -132 -167q-143 -114 -323 -114q-146 0 -273 72q-61 34 -116 106q-41 -54 -77 -78q-147 -99 -303 -99q-233 0 -379 160q-126 137 -126 347q0 237 159 379q141 126 349 126q249 0 377 -171q61 74 136 112q114 59 242 59q224 0 363 -149
q108 -116 130 -302q4 -42 5 -122h-736q9 -81 57 -131q76 -77 190 -77q157 0 244 121zM1574 556q-13 74 -49 118q-71 87 -195 87q-113 0 -184 -77q-44 -48 -62 -128h490zM584 749q-117 0 -194 -91q-60 -71 -60 -178q0 -123 76 -203q73 -77 179 -77q116 0 190 89q60 73 60 174
q0 123 -73 206q-70 80 -178 80z" />
    <glyph glyph-name="Racute" unicode="&#x154;" horiz-adv-x="1196" 
d="M423 543v-543h-280v1365h420q256 0 387 -108q51 -41 81 -98q54 -101 54 -223q0 -195 -124 -310q-76 -71 -200 -102l376 -524h-340zM423 707h128q109 0 173 46q77 57 77 168q0 94 -56 151q-59 61 -171 61h-151v-426zM656 1760h269l-284 -272h-178z" />
    <glyph glyph-name="racute" unicode="&#x155;" horiz-adv-x="682" 
d="M129 947h261v-138q33 90 83 125q63 46 152 46q10 0 32 -1v-266q-34 3 -54 3q-115 0 -175 -86q-27 -40 -33 -85q-5 -38 -5 -88v-457h-261v947zM391 1376h262l-272 -285h-160z" />
    <glyph glyph-name="Rcommaaccent" unicode="&#x156;" horiz-adv-x="1196" 
d="M423 543v-543h-280v1365h420q256 0 387 -108q51 -41 81 -98q54 -101 54 -223q0 -195 -124 -310q-76 -71 -200 -102l376 -524h-340zM423 707h128q109 0 173 46q77 57 77 168q0 94 -56 151q-59 61 -171 61h-151v-426zM712 -87v-135q0 -146 -82 -201q-51 -34 -159 -42v85
q62 6 99 27q35 21 39 86h-128v180h231z" />
    <glyph glyph-name="rcommaaccent" unicode="&#x157;" horiz-adv-x="682" 
d="M129 947h261v-138q33 90 83 125q63 46 152 46q10 0 32 -1v-266q-34 3 -54 3q-115 0 -175 -86q-27 -40 -33 -85q-5 -38 -5 -88v-457h-261v947zM373 -118v-116q0 -83 -21 -129q-33 -69 -140 -97q-27 -7 -77 -16v86q13 5 77 20q49 12 57 90h-120v162h224z" />
    <glyph glyph-name="Rcaron" unicode="&#x158;" horiz-adv-x="1196" 
d="M423 543v-543h-280v1365h420q256 0 387 -108q51 -41 81 -98q54 -101 54 -223q0 -195 -124 -310q-76 -71 -200 -102l376 -524h-340zM423 707h128q109 0 173 46q77 57 77 168q0 94 -56 151q-59 61 -171 61h-151v-426zM596 1622l162 139h183l-232 -273h-236l-217 273h182z
" />
    <glyph glyph-name="rcaron" unicode="&#x159;" horiz-adv-x="682" 
d="M129 947h261v-138q33 90 83 125q63 46 152 46q10 0 32 -1v-266q-34 3 -54 3q-115 0 -175 -86q-27 -40 -33 -85q-5 -38 -5 -88v-457h-261v947zM340 1225l143 151h182l-209 -285h-241l-197 285h182z" />
    <glyph glyph-name="Sacute" unicode="&#x15a;" horiz-adv-x="1067" 
d="M64 399h273q0 -53 13 -81q22 -45 73 -72q46 -24 101 -24q81 0 135 47q45 40 45 99q0 66 -56 108q-40 30 -166 75q-201 71 -291 151q-115 101 -115 276q0 194 133 307q124 106 319 106q189 0 310 -102q132 -112 150 -315h-284q-14 169 -178 169q-85 0 -129 -47
q-38 -40 -38 -96q0 -83 84 -130q42 -23 160 -66q149 -54 216 -98q177 -114 177 -318q0 -216 -168 -330q-124 -84 -302 -84q-204 0 -325 103q-139 117 -137 322zM593 1760h269l-283 -272h-178z" />
    <glyph glyph-name="sacute" unicode="&#x15b;" horiz-adv-x="859" 
d="M780 674h-246q1 11 1 17q0 31 -20 55q-34 42 -99 42q-49 0 -77 -24t-28 -62q0 -39 27 -60q30 -24 82 -40l78 -24q157 -48 218 -108q79 -76 79 -196q0 -150 -119 -237q-96 -70 -250 -70q-209 0 -309 128q-58 74 -63 183h250q17 -119 124 -119q46 0 73 24q31 28 31 66
q0 46 -49 78q-27 18 -127 48q-150 46 -220 116q-76 75 -76 188q0 155 125 237q99 64 242 64q203 0 300 -131q50 -68 53 -175zM479 1376h262l-271 -285h-161z" />
    <glyph glyph-name="Scircumflex" unicode="&#x15c;" horiz-adv-x="1067" 
d="M64 399h273q0 -53 13 -81q22 -45 73 -72q46 -24 101 -24q81 0 135 47q45 40 45 99q0 66 -56 108q-40 30 -166 75q-201 71 -291 151q-115 101 -115 276q0 194 133 307q124 106 319 106q189 0 310 -102q132 -112 150 -315h-284q-14 169 -178 169q-85 0 -129 -47
q-38 -40 -38 -96q0 -83 84 -130q42 -23 160 -66q149 -54 216 -98q177 -114 177 -318q0 -216 -168 -330q-124 -84 -302 -84q-204 0 -325 103q-139 117 -137 322zM538 1627l-162 -139h-183l232 273h236l217 -273h-182z" />
    <glyph glyph-name="scircumflex" unicode="&#x15d;" horiz-adv-x="859" 
d="M780 674h-246q1 11 1 17q0 31 -20 55q-34 42 -99 42q-49 0 -77 -24t-28 -62q0 -39 27 -60q30 -24 82 -40l78 -24q157 -48 218 -108q79 -76 79 -196q0 -150 -119 -237q-96 -70 -250 -70q-209 0 -309 128q-58 74 -63 183h250q17 -119 124 -119q46 0 73 24q31 28 31 66
q0 46 -49 78q-27 18 -127 48q-150 46 -220 116q-76 75 -76 188q0 155 125 237q99 64 242 64q203 0 300 -131q50 -68 53 -175zM431 1242l-143 -151h-182l209 285h241l197 -285h-182z" />
    <glyph glyph-name="Scedilla" unicode="&#x15e;" horiz-adv-x="1253" 
d="M654 -29l-55 -85q64 11 90 11q82 0 130 -38q55 -44 55 -114q0 -91 -85 -146q-62 -40 -163 -40q-126 0 -260 54l37 81q107 -44 193 -44q54 0 84 25t30 62q0 42 -38 64q-25 14 -63 14q-37 0 -95 -19l-48 42l90 136q-238 20 -367 135q-141 128 -142 349h285q5 -74 17 -109
q57 -162 290 -162q145 0 216 67q56 53 56 130q0 74 -56 112q-46 31 -276 95q-193 55 -268 87q-216 91 -216 317q0 200 170 310q138 89 347 89q299 0 438 -156q93 -104 98 -276h-270q-4 92 -54 143q-70 73 -221 73q-97 0 -161 -38q-73 -43 -73 -126q0 -80 62 -114
q48 -27 259 -81q245 -64 331 -113q172 -98 172 -301q0 -177 -117 -289q-143 -137 -422 -145z" />
    <glyph glyph-name="scedilla" unicode="&#x15f;" horiz-adv-x="1005" 
d="M526 -27l-53 -81q52 10 85 10q58 0 99 -22q74 -39 74 -119q0 -87 -79 -136q-62 -39 -153 -39q-121 0 -243 50l34 75q103 -41 183 -41q44 0 71 18q36 24 36 65q0 38 -31 60q-24 17 -63 17q-37 0 -90 -20l-45 38l84 127q-143 10 -246 74q-140 85 -152 283h247
q10 -192 217 -192q95 0 144 38q51 40 51 100q0 45 -29 71t-74 40q-56 16 -136 33q-199 42 -277 86q-117 68 -117 212q0 149 125 227q107 66 304 66q252 0 362 -122q61 -68 69 -193h-237q-7 61 -31 94q-44 63 -167 63q-95 0 -140 -42q-30 -29 -30 -74q0 -40 23 -64
q25 -27 66 -38q62 -18 167 -39q174 -35 259 -83q117 -67 117 -220q0 -195 -203 -280q-85 -36 -221 -42z" />
    <glyph glyph-name="Scaron" unicode="&#x160;" horiz-adv-x="1067" 
d="M64 399h273q0 -53 13 -81q22 -45 73 -72q46 -24 101 -24q81 0 135 47q45 40 45 99q0 66 -56 108q-40 30 -166 75q-201 71 -291 151q-115 101 -115 276q0 194 133 307q124 106 319 106q189 0 310 -102q132 -112 150 -315h-284q-14 169 -178 169q-85 0 -129 -47
q-38 -40 -38 -96q0 -83 84 -130q42 -23 160 -66q149 -54 216 -98q177 -114 177 -318q0 -216 -168 -330q-124 -84 -302 -84q-204 0 -325 103q-139 117 -137 322zM533 1622l163 139h182l-231 -273h-237l-217 273h182z" />
    <glyph glyph-name="scaron" unicode="&#x161;" horiz-adv-x="859" 
d="M780 674h-246q1 11 1 17q0 31 -20 55q-34 42 -99 42q-49 0 -77 -24t-28 -62q0 -39 27 -60q30 -24 82 -40l78 -24q157 -48 218 -108q79 -76 79 -196q0 -150 -119 -237q-96 -70 -250 -70q-209 0 -309 128q-58 74 -63 183h250q17 -119 124 -119q46 0 73 24q31 28 31 66
q0 46 -49 78q-27 18 -127 48q-150 46 -220 116q-76 75 -76 188q0 155 125 237q99 64 242 64q203 0 300 -131q50 -68 53 -175zM428 1225l143 151h182l-209 -285h-241l-197 285h182z" />
    <glyph glyph-name="Tcommaaccent" unicode="&#x162;" horiz-adv-x="943" 
d="M612 1136v-1136h-280v1136h-325v229h930v-229h-325zM586 -87v-135q0 -146 -82 -201q-52 -35 -160 -42v85q63 5 100 27q35 21 39 86h-128v180h231z" />
    <glyph glyph-name="tcommaaccent" unicode="&#x163;" horiz-adv-x="581" 
d="M402 733v-454q0 -36 17 -48q19 -13 57 -13h45v-218h-208q-91 0 -135 45q-37 39 -37 136v552h-108v219h108v254h261v-254h119v-219h-119zM400 -118v-116q0 -83 -21 -129q-33 -70 -140 -97q-27 -6 -76 -16v86q12 5 76 20q49 12 57 90h-120v162h224z" />
    <glyph glyph-name="Tcaron" unicode="&#x164;" horiz-adv-x="943" 
d="M612 1136v-1136h-280v1136h-325v229h930v-229h-325zM470 1622l162 139h183l-232 -273h-236l-217 273h181z" />
    <glyph glyph-name="tcaron" unicode="&#x165;" horiz-adv-x="1064" 
d="M402 733v-454q0 -36 17 -48q19 -13 57 -13h45v-218h-208q-91 0 -135 45q-37 39 -37 136v552h-108v219h108v254h261v-254h119v-219h-119zM994 1332l-161 -426l-176 46l115 440z" />
    <glyph glyph-name="Tbar" unicode="&#x166;" horiz-adv-x="1149" 
d="M717 861h342v-196h-342v-665h-284v665h-342v196h342v264h-423v240h1129v-240h-422v-264z" />
    <glyph glyph-name="tbar" unicode="&#x167;" horiz-adv-x="693" 
d="M450 687h155v-155h-155v-189q0 -90 17 -117q27 -42 113 -42q32 0 80 5v-192q-91 -7 -158 -7q-119 0 -181 27q-90 39 -117 136q-13 45 -13 145v234h-130v155h130v134h-171v166h171v307h259v-307h210v-166h-210v-134z" />
    <glyph glyph-name="utilde" unicode="&#x169;" horiz-adv-x="1054" 
d="M681 947h261v-599q0 -144 -47 -217q-55 -84 -161 -127q-91 -37 -206 -37q-202 0 -316 103q-101 92 -101 278v599h261v-582q0 -61 29 -111q39 -67 128 -67q82 0 125 60q27 37 27 101v599zM709 1346l167 -12q-54 -230 -212 -230q-58 0 -184 60q-32 16 -46 16q-42 0 -62 -72
l-167 14q52 226 213 226q62 0 185 -59q29 -14 47 -14q45 0 59 71z" />
    <glyph glyph-name="Umacron" unicode="&#x16a;" horiz-adv-x="1308" 
d="M401 1365v-800q0 -176 61 -249q69 -83 192 -83q87 0 155 50q66 49 86 139q11 49 11 144v799h282v-790q0 -205 -59 -328q-67 -142 -206 -213q-119 -60 -266 -60q-175 0 -311 84q-143 88 -192 240q-33 103 -33 277v790h280zM453 1574v112h402v-112h-402z" />
    <glyph glyph-name="umacron" unicode="&#x16b;" horiz-adv-x="1054" 
d="M681 947h261v-599q0 -144 -47 -217q-55 -84 -161 -127q-91 -37 -206 -37q-202 0 -316 103q-101 92 -101 278v599h261v-582q0 -61 29 -111q39 -67 128 -67q82 0 125 60q27 37 27 101v599zM341 1176v114h372v-114h-372z" />
    <glyph glyph-name="ubreve" unicode="&#x16d;" horiz-adv-x="1054" 
d="M681 947h261v-599q0 -144 -47 -217q-55 -84 -161 -127q-91 -37 -206 -37q-202 0 -316 103q-101 92 -101 278v599h261v-582q0 -61 29 -111q39 -67 128 -67q82 0 125 60q27 37 27 101v599zM564 1361h180q-5 -76 -29 -127q-28 -57 -81 -89q-48 -29 -107 -29q-87 0 -146 59
q-64 63 -72 186h180q10 -40 10 -73q-1 -58 27 -58q29 0 29 58q-1 33 9 73z" />
    <glyph glyph-name="Uring" unicode="&#x16e;" horiz-adv-x="1308" 
d="M401 1365v-800q0 -176 61 -249q69 -83 192 -83q87 0 155 50q66 49 86 139q11 49 11 144v799h282v-790q0 -205 -59 -328q-67 -142 -206 -213q-119 -60 -266 -60q-175 0 -311 84q-143 88 -192 240q-33 103 -33 277v790h280zM656 1821q81 0 139 -60q49 -51 49 -129
q0 -83 -64 -137q-55 -46 -126 -46q-84 0 -141 60q-49 51 -49 126q0 86 64 140q54 46 128 46zM655 1727q-45 0 -73 -33q-22 -26 -22 -59q0 -39 30 -67q26 -25 64 -25q44 0 72 32q22 27 22 58q0 40 -30 69q-25 25 -63 25z" />
    <glyph glyph-name="uring" unicode="&#x16f;" horiz-adv-x="1054" 
d="M681 947h261v-599q0 -144 -47 -217q-55 -84 -161 -127q-91 -37 -206 -37q-202 0 -316 103q-101 92 -101 278v599h261v-582q0 -61 29 -111q39 -67 128 -67q82 0 125 60q27 37 27 101v599zM529 1426q81 0 139 -60q49 -51 49 -129q0 -83 -64 -137q-55 -46 -126 -46
q-84 0 -141 60q-49 51 -49 126q0 86 64 140q54 46 128 46zM528 1332q-45 0 -73 -32q-22 -27 -22 -60q0 -39 30 -67q26 -25 64 -25q44 0 72 32q22 27 22 59q0 40 -30 68q-25 25 -63 25z" />
    <glyph glyph-name="Uhungarumlaut" unicode="&#x170;" horiz-adv-x="1308" 
d="M401 1365v-800q0 -176 61 -249q69 -83 192 -83q87 0 155 50q66 49 86 139q11 49 11 144v799h282v-790q0 -205 -59 -328q-67 -142 -206 -213q-119 -60 -266 -60q-175 0 -311 84q-143 88 -192 240q-33 103 -33 277v790h280zM533 1757h237l-248 -269h-155zM894 1757h237
l-248 -269h-154z" />
    <glyph glyph-name="uhungarumlaut" unicode="&#x171;" horiz-adv-x="1054" 
d="M681 947h261v-599q0 -144 -47 -217q-55 -84 -161 -127q-91 -37 -206 -37q-202 0 -316 103q-101 92 -101 278v599h261v-582q0 -61 29 -111q39 -67 128 -67q82 0 125 60q27 37 27 101v599zM402 1371h232l-235 -280h-140zM757 1371h232l-235 -280h-140z" />
    <glyph glyph-name="Uogonek" unicode="&#x172;" horiz-adv-x="1308" 
d="M823 -4q-136 -102 -136 -179q0 -26 20 -44q30 -25 82 -25q29 0 74 12l18 -149q-76 -23 -143 -23q-110 0 -175 52q-65 51 -65 124q0 117 118 211q-177 10 -307 108q-113 85 -155 215q-33 103 -33 277v790h280v-801q0 -175 61 -248q69 -84 192 -84q87 0 155 50
q66 49 86 139q11 50 11 145v799h282v-790q0 -235 -80 -369q-93 -154 -285 -210z" />
    <glyph glyph-name="uogonek" unicode="&#x173;" horiz-adv-x="1054" 
d="M705 -7q-49 -46 -61 -63q-29 -39 -29 -76q0 -68 89 -68q29 0 63 10l16 -121q-58 -18 -117 -18q-89 0 -143 39q-60 45 -60 117q0 77 76 154h-7h-9q-196 0 -311 103q-101 92 -101 277v600h261v-582q0 -61 29 -111q39 -67 128 -67q82 0 125 60q27 37 27 101v599h261v-600
q0 -144 -48 -216q-65 -99 -189 -138z" />
    <glyph glyph-name="Wcircumflex" unicode="&#x174;" horiz-adv-x="1755" 
d="M1233 488l226 877h292l-381 -1365h-281l-217 894l-214 -894h-282l-373 1365h297l220 -862l221 862h278zM879 1627l-162 -139h-182l231 273h237l217 -273h-182z" />
    <glyph glyph-name="Ycircumflex" unicode="&#x176;" horiz-adv-x="1141" 
d="M715 602v-602h-280v602l-457 763h333l265 -473l260 473h328zM573 1627l-162 -139h-183l232 273h236l217 -273h-182z" />
    <glyph glyph-name="ycircumflex" unicode="&#x177;" horiz-adv-x="960" 
d="M466 384l221 563h277l-534 -1380h-280l179 455l-332 925h277zM482 1242l-143 -151h-182l209 285h241l197 -285h-182z" />
    <glyph glyph-name="Ydieresis" unicode="&#x178;" horiz-adv-x="1141" 
d="M715 602v-602h-280v602l-457 763h333l265 -473l260 473h328zM352 1781q61 0 102 -45q38 -41 38 -98q0 -63 -49 -105q-39 -34 -92 -34q-63 0 -104 45q-37 41 -37 96q0 64 49 107q38 34 93 34zM788 1781q61 0 102 -45q38 -41 38 -98q0 -62 -49 -105q-39 -34 -92 -34
q-63 0 -104 45q-37 41 -37 96q0 64 49 107q38 34 93 34z" />
    <glyph glyph-name="Zacute" unicode="&#x179;" horiz-adv-x="1128" 
d="M467 229h575v-229h-1015l637 1136h-565v229h1004zM621 1760h269l-284 -272h-178z" />
    <glyph glyph-name="zacute" unicode="&#x17a;" horiz-adv-x="862" 
d="M440 219h367v-219h-776l398 728h-361v219h768zM480 1376h262l-271 -285h-161z" />
    <glyph glyph-name="Zdotaccent" unicode="&#x17b;" horiz-adv-x="1128" 
d="M467 229h575v-229h-1015l637 1136h-565v229h1004zM562 1781q61 0 102 -45q38 -41 38 -98q0 -62 -49 -105q-38 -34 -92 -34q-63 0 -104 45q-37 41 -37 96q0 64 49 107q38 34 93 34z" />
    <glyph glyph-name="zdotaccent" unicode="&#x17c;" horiz-adv-x="862" 
d="M440 219h367v-219h-776l398 728h-361v219h768zM430 1378q61 0 102 -45q35 -38 35 -95q0 -61 -46 -101q-39 -34 -92 -34q-61 0 -102 45q-35 37 -35 92q0 64 45 104q39 34 93 34z" />
    <glyph glyph-name="Zcaron" unicode="&#x17d;" horiz-adv-x="1128" 
d="M467 229h575v-229h-1015l637 1136h-565v229h1004zM561 1622l162 139h183l-232 -273h-236l-217 273h182z" />
    <glyph glyph-name="zcaron" unicode="&#x17e;" horiz-adv-x="862" 
d="M440 219h367v-219h-776l398 728h-361v219h768zM429 1225l143 151h182l-209 -285h-241l-197 285h182z" />
    <glyph glyph-name="florin" unicode="&#x192;" 
d="M422 822h-105l22 125h105l33 183q64 367 411 367q13 0 37 -1l-43 -240q-59 -7 -89 -27q-43 -28 -56 -99l-32 -183h123l-22 -125h-123l-125 -708q-40 -231 -190 -325q-92 -59 -264 -62l43 243q128 15 150 143z" />
    <glyph glyph-name="uni01CD" unicode="&#x1cd;" horiz-adv-x="1295" 
d="M907 236h-526l-81 -236h-297l472 1365h350l466 -1365h-308zM833 466l-189 565l-191 -565h380zM645 1622l162 139h183l-232 -273h-236l-217 273h181z" />
    <glyph glyph-name="uni01CE" unicode="&#x1ce;" horiz-adv-x="1244" 
d="M854 827v120h261v-947h-261v130q-129 -163 -329 -163q-217 0 -349 161q-109 134 -109 334q0 150 69 278q58 109 165 173q108 66 243 66q112 0 200 -53q53 -32 110 -99zM598 759q-123 0 -192 -95q-61 -85 -61 -198q0 -135 83 -218q70 -71 168 -71q118 0 195 98
q67 86 67 199t-60 191q-73 94 -200 94zM621 1225l143 151h182l-209 -285h-241l-197 285h182z" />
    <glyph glyph-name="uni01D3" unicode="&#x1d3;" horiz-adv-x="1308" 
d="M401 1365v-800q0 -176 61 -249q69 -83 192 -83q87 0 155 50q66 49 86 139q11 49 11 144v799h282v-790q0 -205 -59 -328q-67 -142 -206 -213q-119 -60 -266 -60q-175 0 -311 84q-143 88 -192 240q-33 103 -33 277v790h280zM652 1622l162 139h183l-232 -273h-236l-217 273
h182z" />
    <glyph glyph-name="Gcaron" unicode="&#x1e6;" horiz-adv-x="1541" 
d="M796 766h683q1 -38 1 -74q0 -305 -199 -506q-209 -212 -503 -212q-186 0 -345 87q-165 89 -258 245q-99 165 -99 375q0 305 203 511q197 199 496 199q210 0 389 -113q92 -58 165 -149l-212 -166q-55 67 -104 100q-102 69 -232 69q-140 0 -247 -80q-90 -68 -138 -185
q-36 -90 -36 -188q0 -211 148 -343q121 -108 281 -108q123 0 228 70q93 62 135 164q11 26 24 75h-380v229zM768 1622l162 139h183l-232 -273h-236l-217 273h181z" />
    <glyph glyph-name="gcaron" unicode="&#x1e7;" horiz-adv-x="1206" 
d="M821 830v117h256v-878q0 -197 -55 -300q-64 -120 -198 -183q-118 -55 -266 -55q-275 0 -466 188l161 164q122 -132 294 -132q134 0 206 77q68 73 68 204v97q-128 -162 -334 -162q-121 0 -226 64q-223 135 -223 436q0 146 63 272q58 118 168 180q106 61 245 61
q101 0 184 -43q66 -35 123 -107zM569 748q-127 0 -201 -97q-53 -70 -53 -173q0 -134 84 -213q71 -66 171 -66q121 0 196 87q50 57 50 169q0 149 -70 219q-74 74 -177 74zM602 1225l143 151h182l-209 -285h-241l-197 285h182z" />
    <glyph glyph-name="uni01F4" unicode="&#x1f4;" horiz-adv-x="1541" 
d="M796 766h683q1 -38 1 -74q0 -305 -199 -506q-209 -212 -503 -212q-186 0 -345 87q-165 89 -258 245q-99 165 -99 375q0 305 203 511q197 199 496 199q210 0 389 -113q92 -58 165 -149l-212 -166q-55 67 -104 100q-102 69 -232 69q-140 0 -247 -80q-90 -68 -138 -185
q-36 -90 -36 -188q0 -211 148 -343q121 -108 281 -108q123 0 228 70q93 62 135 164q11 26 24 75h-380v229zM828 1760h269l-284 -272h-178z" />
    <glyph glyph-name="scommaaccent" unicode="&#x219;" horiz-adv-x="859" 
d="M780 674h-246q1 11 1 17q0 31 -20 55q-34 42 -99 42q-49 0 -77 -24t-28 -62q0 -39 27 -60q30 -24 82 -40l78 -24q157 -48 218 -108q79 -76 79 -196q0 -150 -119 -237q-96 -70 -250 -70q-209 0 -309 128q-58 74 -63 183h250q17 -119 124 -119q46 0 73 24q31 28 31 66
q0 46 -49 78q-27 18 -127 48q-150 46 -220 116q-76 75 -76 188q0 155 125 237q99 64 242 64q203 0 300 -131q50 -68 53 -175zM540 -118v-116q0 -83 -21 -129q-33 -69 -140 -97q-27 -7 -77 -16v86q13 5 77 20q49 12 57 90h-120v162h224z" />
    <glyph glyph-name="uni021A" unicode="&#x21a;" horiz-adv-x="943" 
d="M612 1136v-1136h-280v1136h-325v229h930v-229h-325zM586 -87v-135q0 -146 -82 -201q-52 -35 -160 -42v85q63 5 100 27q35 21 39 86h-128v180h231z" />
    <glyph glyph-name="uni021B" unicode="&#x21b;" horiz-adv-x="581" 
d="M402 733v-454q0 -36 17 -48q19 -13 57 -13h45v-218h-208q-91 0 -135 45q-37 39 -37 136v552h-108v219h108v254h261v-254h119v-219h-119zM400 -118v-116q0 -83 -21 -129q-33 -70 -140 -97q-27 -6 -76 -16v86q12 5 76 20q49 12 57 90h-120v162h224z" />
    <glyph glyph-name="Adotaccent" unicode="&#x226;" horiz-adv-x="1295" 
d="M907 236h-526l-81 -236h-297l472 1365h350l466 -1365h-308zM833 466l-189 565l-191 -565h380zM646 1781q61 0 102 -45q38 -41 38 -98q0 -62 -49 -105q-38 -34 -92 -34q-62 0 -103 45q-38 41 -38 96q0 64 49 107q38 34 93 34z" />
    <glyph glyph-name="adotaccent" unicode="&#x227;" horiz-adv-x="1244" 
d="M854 827v120h261v-947h-261v130q-129 -163 -329 -163q-217 0 -349 161q-109 134 -109 334q0 150 69 278q58 109 165 173q108 66 243 66q112 0 200 -53q53 -32 110 -99zM598 759q-123 0 -192 -95q-61 -85 -61 -198q0 -135 83 -218q70 -71 168 -71q118 0 195 98
q67 86 67 199t-60 191q-73 94 -200 94zM623 1378q60 0 101 -45q35 -38 35 -95q0 -61 -46 -101q-39 -34 -91 -34q-62 0 -103 45q-35 37 -35 92q0 64 46 104q38 34 93 34z" />
    <glyph glyph-name="dotlessj" unicode="&#x237;" horiz-adv-x="519" 
d="M390 947v-979q0 -210 -90 -304q-98 -102 -280 -102q-21 0 -69 3v238q21 -1 39 -1q67 0 102 42q37 45 37 124v979h261z" />
    <glyph glyph-name="afii57929" unicode="&#x2bc;" horiz-adv-x="483" 
d="M414 1332l-162 -426l-175 46l115 440z" />
    <glyph glyph-name="circumflex" unicode="&#x2c6;" 
d="M514 1242l-143 -151h-182l209 285h241l197 -285h-183z" />
    <glyph glyph-name="caron" unicode="&#x2c7;" 
d="M511 1225l143 151h182l-209 -285h-241l-197 285h182z" />
    <glyph glyph-name="uni02C9" unicode="&#x2c9;" 
d="M326 1176v114h372v-114h-372z" />
    <glyph glyph-name="breve" unicode="&#x2d8;" 
d="M550 1361h180q-5 -76 -30 -127q-27 -57 -80 -89q-48 -29 -108 -29q-86 0 -145 59q-64 63 -72 186h180q10 -40 9 -73q0 -58 27 -58q30 0 29 58q0 33 10 73z" />
    <glyph glyph-name="dotaccent" unicode="&#x2d9;" 
d="M512 1378q60 0 101 -45q35 -38 35 -95q0 -61 -46 -101q-39 -34 -91 -34q-62 0 -103 45q-35 37 -35 92q0 64 46 104q38 34 93 34z" />
    <glyph glyph-name="ring" unicode="&#x2da;" 
d="M514 1426q81 0 139 -60q49 -51 49 -129q0 -83 -64 -137q-55 -46 -126 -46q-84 0 -141 60q-49 51 -49 126q0 86 64 140q54 46 128 46zM513 1332q-46 0 -73 -32q-22 -27 -22 -60q0 -39 30 -67q25 -25 64 -25q44 0 72 32q22 27 22 59q0 40 -30 68q-25 25 -63 25z" />
    <glyph glyph-name="ogonek" unicode="&#x2db;" 
d="M469 0h132q-7 -7 -11 -10q-54 -52 -69 -77q-17 -28 -17 -59q0 -68 90 -68q29 0 63 11l16 -122q-59 -18 -117 -18q-90 0 -143 39q-61 45 -61 117q0 104 117 187z" />
    <glyph glyph-name="tilde" unicode="&#x2dc;" 
d="M694 1346l168 -12q-55 -230 -212 -230q-58 0 -184 60q-32 16 -47 16q-42 0 -61 -72l-168 14q53 226 214 226q62 0 185 -59q28 -14 47 -14q44 0 58 71z" />
    <glyph glyph-name="hungarumlaut" unicode="&#x2dd;" 
d="M388 1371h231l-234 -280h-140zM743 1371h231l-234 -280h-140z" />
    <glyph glyph-name="uni0387" unicode="&#x387;" horiz-adv-x="534" 
d="M268 656q67 0 110 -46q40 -43 40 -108q0 -69 -52 -114q-40 -34 -99 -34q-69 0 -111 46q-40 43 -40 105q0 72 52 117q39 34 100 34z" />
    <glyph glyph-name="Fdotaccent" unicode="&#x1e1e;" horiz-adv-x="957" 
d="M423 1136v-336h480v-229h-480v-571h-280v1365h760v-229h-480zM478 1781q61 0 102 -45q38 -41 38 -98q0 -62 -49 -105q-38 -34 -92 -34q-62 0 -103 45q-38 41 -38 96q0 64 49 107q38 34 93 34z" />
    <glyph glyph-name="Wacute" unicode="&#x1e82;" horiz-adv-x="570" 
d="M512 614v-230h-454v230h454z" />
    <glyph glyph-name="Wdieresis" unicode="&#x1e84;" horiz-adv-x="1755" 
d="M1233 488l226 877h292l-381 -1365h-281l-217 894l-214 -894h-282l-373 1365h297l220 -862l221 862h278zM658 1781q61 0 102 -45q38 -41 38 -98q0 -62 -49 -105q-38 -34 -92 -34q-62 0 -103 45q-38 41 -38 96q0 64 49 107q38 34 93 34zM1094 1781q61 0 102 -45
q38 -41 38 -98q0 -62 -49 -105q-38 -34 -92 -34q-62 0 -103 45q-38 41 -38 96q0 64 49 107q38 34 93 34z" />
    <glyph glyph-name="uni2006" unicode="&#x2006;" horiz-adv-x="137" 
 />
    <glyph glyph-name="uni2007" unicode="&#x2007;" horiz-adv-x="1139" 
 />
    <glyph glyph-name="uni2011" unicode="&#x2011;" horiz-adv-x="454" 
d="M454 614v-230h-454v230h454z" />
    <glyph glyph-name="figuredash" unicode="&#x2012;" 
d="M928 598v-219h-833v219h833z" />
    <glyph glyph-name="endash" unicode="&#x2013;" 
d="M928 598v-219h-833v219h833z" />
    <glyph glyph-name="emdash" unicode="&#x2014;" horiz-adv-x="1369" 
d="M1369 599v-199h-1369v199h1369z" />
    <glyph glyph-name="afii00208" unicode="&#x2015;" horiz-adv-x="1369" 
d="M1369 599v-199h-1369v199h1369z" />
    <glyph glyph-name="underscoredbl" unicode="&#x2017;" 
d="M0 -108h1024v-119h-1024v119zM0 -348h1024v-119h-1024v119z" />
    <glyph glyph-name="quoteleft" unicode="&#x2018;" horiz-adv-x="483" 
d="M69 966l162 426l175 -46l-115 -440z" />
    <glyph glyph-name="quoteright" unicode="&#x2019;" horiz-adv-x="483" 
d="M414 1332l-162 -426l-175 46l115 440z" />
    <glyph glyph-name="quotesinglbase" unicode="&#x201a;" horiz-adv-x="498" 
d="M428 215l-169 -454l-182 47l119 471z" />
    <glyph glyph-name="quotedblleft" unicode="&#x201c;" horiz-adv-x="889" 
d="M457 920l175 472l181 -47l-122 -488zM69 920l174 472l182 -47l-123 -488z" />
    <glyph glyph-name="quotedblright" unicode="&#x201d;" horiz-adv-x="889" 
d="M432 1329l-174 -472l-182 47l123 488zM820 1329l-174 -472l-182 47l123 488z" />
    <glyph glyph-name="quotedblbase" unicode="&#x201e;" horiz-adv-x="889" 
d="M432 216l-174 -472l-182 47l123 488zM820 216l-174 -472l-182 47l123 488z" />
    <glyph glyph-name="dagger" unicode="&#x2020;" 
d="M402 1365h220v-348h301v-187h-301v-1229h-220v1229h-300v187h300v348z" />
    <glyph glyph-name="daggerdbl" unicode="&#x2021;" 
d="M402 1365h220v-358h301v-187h-301v-658h301v-187h-301v-374h-220v374h-300v187h300v658h-300v187h300v358z" />
    <glyph glyph-name="bullet" unicode="&#x2022;" horiz-adv-x="1365" 
d="M689 978q113 0 196 -83q84 -83 84 -201t-83 -201t-201 -83q-116 0 -199 82q-85 84 -85 202q0 121 84 202q86 82 204 82z" />
    <glyph glyph-name="ellipsis" unicode="&#x2026;" horiz-adv-x="1601" 
d="M268 276q67 0 110 -46q40 -43 40 -108q0 -69 -52 -114q-40 -34 -99 -34q-69 0 -111 46q-40 43 -40 105q0 72 52 117q39 34 100 34zM802 276q67 0 110 -46q40 -43 40 -108q0 -69 -52 -114q-40 -34 -99 -34q-69 0 -111 46q-40 43 -40 105q0 72 52 117q39 34 100 34z
M1335 276q67 0 110 -46q40 -43 40 -108q0 -69 -52 -114q-40 -34 -99 -34q-69 0 -111 46q-40 43 -40 105q0 72 52 117q39 34 100 34z" />
    <glyph glyph-name="perthousand" unicode="&#x2030;" horiz-adv-x="2076" 
d="M587 1120v-218q0 -124 -65 -189q-65 -66 -186 -66q-128 0 -195 67q-39 39 -49 94q-10 53 -10 125v175q0 145 57 205q68 72 192 72q111 0 183 -62q47 -41 61 -93q12 -44 12 -110zM243 1108v-185q0 -73 12 -95q22 -38 80 -38t79 41q14 26 14 96v186q0 71 -21 98
q-22 28 -70 28q-58 0 -78 -34q-16 -25 -16 -97zM1349 452v-218q0 -124 -64 -189q-66 -66 -186 -66q-127 0 -195 67q-39 39 -49 94q-10 53 -10 125v175q0 145 57 205q68 72 192 72q112 0 182 -62q47 -41 61 -93q12 -43 12 -110zM1006 440v-185q0 -73 13 -95q21 -38 79 -38
t79 41q14 26 14 96v186q0 70 -21 98q-22 28 -70 28q-58 0 -79 -33q-15 -26 -15 -98zM1206 1337l-900 -1361l-82 53l900 1360zM1993 452v-218q0 -124 -65 -189q-66 -66 -186 -66q-127 0 -194 67q-39 39 -49 94q-10 53 -10 125v175q0 145 57 205q68 72 192 72q111 0 182 -62
q47 -41 61 -93q12 -43 12 -110zM1650 440v-185q0 -73 13 -95q22 -38 78 -38q58 0 79 41q14 26 14 96v186q0 71 -21 98q-22 28 -70 28q-57 0 -78 -33q-15 -26 -15 -98z" />
    <glyph glyph-name="guilsinglleft" unicode="&#x2039;" horiz-adv-x="528" 
d="M242 488l197 -334h-169l-195 334l195 345h169z" />
    <glyph glyph-name="guilsinglright" unicode="&#x203a;" horiz-adv-x="528" 
d="M285 499l-197 334h169l195 -334l-195 -345h-169z" />
    <glyph glyph-name="exclamdbl" unicode="&#x203c;" horiz-adv-x="914" 
d="M359 1365v-362l-73 -582h-132l-72 578v366h277zM365 302v-302h-288v302h288zM831 1365v-362l-73 -582h-132l-72 578v366h277zM836 302v-302h-288v302h288z" />
    <glyph glyph-name="uni203E" unicode="&#x203e;" 
d="M0 1787h1024v-168h-1024v168z" />
    <glyph glyph-name="fraction" unicode="&#x2044;" horiz-adv-x="259" 
d="M620 1334l-901 -1361l-81 53l900 1360z" />
    <glyph glyph-name="zerosuperior" unicode="&#x2070;" horiz-adv-x="677" 
d="M614 1107v-312q0 -136 -73 -202q-74 -66 -201 -66q-137 0 -211 70q-42 39 -54 94q-12 57 -12 140v257q0 147 60 210q74 77 212 77q122 0 199 -64q50 -42 67 -97q13 -44 13 -107zM243 1087v-274q0 -72 16 -94q27 -35 81 -35q55 0 80 38q17 25 17 92v281q0 67 -24 94
q-26 27 -73 27q-57 0 -80 -36q-17 -26 -17 -93z" />
    <glyph glyph-name="foursuperior" unicode="&#x2074;" horiz-adv-x="677" 
d="M370 708h-315v138l307 513h181v-504h78v-147h-78v-164h-173v164zM378 850v301l-173 -301h173z" />
    <glyph glyph-name="fivesuperior" unicode="&#x2075;" horiz-adv-x="677" 
d="M264 1205v-155q47 18 100 18q105 0 179 -72q75 -74 75 -187q0 -142 -104 -222q-76 -59 -185 -59q-121 0 -202 75q-43 40 -75 120l157 56q35 -90 116 -90q51 0 84 35q33 34 33 81q0 48 -32 81q-34 36 -87 36q-61 0 -108 -57h-116v494h452v-154h-287z" />
    <glyph glyph-name="sixsuperior" unicode="&#x2076;" horiz-adv-x="677" 
d="M568 1359l-217 -314q17 2 30 2q77 0 140 -43q103 -72 103 -202q0 -122 -96 -204q-83 -71 -196 -71q-132 0 -215 92q-65 73 -65 174q0 105 95 246l216 320h205zM341 905q-55 0 -90 -38q-28 -30 -28 -71q0 -49 36 -81q31 -28 78 -28q58 0 91 41q26 31 26 68q0 46 -32 77
q-32 32 -81 32z" />
    <glyph glyph-name="sevensuperior" unicode="&#x2077;" horiz-adv-x="677" 
d="M374 1205h-273v154h524l-343 -815h-187z" />
    <glyph glyph-name="eightsuperior" unicode="&#x2078;" horiz-adv-x="677" 
d="M511 973q113 -56 113 -190q0 -118 -89 -191q-78 -65 -198 -65q-140 0 -221 85q-62 64 -62 162q0 145 117 199q-34 17 -56 50q-35 51 -35 116q0 111 85 179q72 57 179 57q121 0 193 -72q66 -65 66 -160q0 -67 -38 -121q-22 -32 -54 -49zM343 1228q-49 0 -78 -32
q-21 -25 -21 -58q0 -42 31 -69q29 -25 67 -25q46 0 77 35q24 26 24 57q0 38 -33 68q-27 24 -67 24zM340 891q-52 0 -85 -35q-28 -29 -28 -70q0 -47 34 -76q32 -28 78 -28q51 0 83 34q28 30 28 70q0 45 -35 76q-32 29 -75 29z" />
    <glyph glyph-name="ninesuperior" unicode="&#x2079;" horiz-adv-x="677" 
d="M331 858q-13 -3 -23 -3q-92 0 -161 53q-95 72 -95 195q0 118 87 196q84 76 204 76q135 0 218 -93q64 -72 64 -175q0 -106 -93 -245l-213 -318h-203zM342 1217q-53 0 -88 -36q-29 -31 -29 -72q0 -49 38 -82q30 -26 75 -26q58 0 92 40q24 29 24 67q0 47 -35 79
q-32 30 -77 30z" />
    <glyph glyph-name="zeroinferior" unicode="&#x2080;" horiz-adv-x="677" 
d="M614 564v-313q0 -136 -73 -201q-74 -66 -201 -66q-137 0 -211 70q-42 39 -54 93q-12 57 -12 141v257q0 147 60 210q74 77 212 77q122 0 199 -65q50 -41 67 -96q13 -44 13 -107zM243 544v-274q0 -73 16 -94q27 -35 81 -35q55 0 80 38q17 25 17 92v281q0 67 -24 94
q-26 27 -73 27q-57 0 -80 -36q-17 -26 -17 -93z" />
    <glyph glyph-name="oneinferior" unicode="&#x2081;" horiz-adv-x="677" 
d="M311 595l-155 -77v158l335 165v-841h-180v595z" />
    <glyph glyph-name="twoinferior" unicode="&#x2082;" horiz-adv-x="677" 
d="M346 151h235v-151h-542l307 440q43 62 60 93q17 33 17 61q0 38 -26 60q-26 23 -68 23q-68 0 -90 -52q-10 -26 -11 -82h-166q0 69 13 109q26 84 93 132q69 48 171 48q131 0 207 -78q58 -58 58 -144q0 -63 -26 -118q-30 -62 -81 -132z" />
    <glyph glyph-name="threeinferior" unicode="&#x2083;" horiz-adv-x="677" 
d="M323 668h-238v147h543l-238 -302q76 -8 133 -52q90 -72 90 -197q0 -129 -94 -210q-80 -70 -199 -70q-156 0 -233 109q-35 50 -46 139l162 6q7 -40 27 -63q33 -37 85 -37q57 0 94 39q31 30 31 77q0 48 -32 81q-35 35 -94 35q-42 0 -78 -23l-103 82z" />
    <glyph glyph-name="fourinferior" unicode="&#x2084;" horiz-adv-x="677" 
d="M370 165h-315v138l307 513h181v-504h78v-147h-78v-165h-173v165zM378 307v301l-173 -301h173z" />
    <glyph glyph-name="fiveinferior" unicode="&#x2085;" horiz-adv-x="677" 
d="M264 661v-155q48 19 99 19q106 0 180 -72q75 -74 75 -187q0 -142 -103 -223q-77 -59 -186 -59q-121 0 -202 75q-43 40 -75 121l157 55q35 -90 116 -90q51 0 84 35q33 34 33 82t-32 81q-34 36 -87 36q-61 0 -108 -57h-116v493h452v-154h-287z" />
    <glyph glyph-name="sixinferior" unicode="&#x2086;" horiz-adv-x="677" 
d="M568 815l-217 -314q17 2 29 2q79 0 141 -43q103 -72 103 -201q0 -122 -96 -204q-83 -71 -196 -71q-132 0 -215 92q-65 73 -65 174q0 104 95 245l216 320h205zM341 361q-54 0 -90 -37q-28 -31 -28 -72q0 -48 36 -81q31 -27 78 -27q58 0 91 40q26 31 26 69q0 45 -32 76
q-33 32 -81 32z" />
    <glyph glyph-name="seveninferior" unicode="&#x2087;" horiz-adv-x="677" 
d="M374 661h-273v154h524l-343 -815h-187z" />
    <glyph glyph-name="eightinferior" unicode="&#x2088;" horiz-adv-x="677" 
d="M511 429q113 -54 113 -189q0 -118 -89 -191q-78 -65 -199 -65q-139 0 -220 84q-62 65 -62 163q0 145 117 198q-34 18 -56 51q-35 51 -35 116q0 111 85 179q72 57 179 57q121 0 193 -72q66 -65 66 -160q0 -67 -38 -121q-22 -31 -54 -50zM343 685q-50 0 -78 -32
q-21 -25 -21 -58q0 -42 31 -69q29 -25 67 -25q46 0 77 35q24 26 24 58q0 37 -33 67q-27 24 -67 24zM340 348q-52 0 -85 -35q-28 -29 -28 -70q0 -47 34 -77q32 -27 78 -27q51 0 83 34q28 30 28 70q0 45 -35 76q-32 29 -75 29z" />
    <glyph glyph-name="nineinferior" unicode="&#x2089;" horiz-adv-x="677" 
d="M331 314q-14 -2 -23 -2q-92 0 -161 53q-95 72 -95 195q0 118 86 196q85 76 205 76q136 0 218 -93q64 -72 64 -175q0 -107 -93 -245l-213 -319h-203zM342 674q-53 0 -88 -37q-29 -30 -29 -71q0 -49 38 -82q30 -26 75 -26q58 0 92 40q24 29 24 67q0 47 -35 79
q-32 30 -77 30z" />
    <glyph glyph-name="franc" unicode="&#x20a3;" horiz-adv-x="1434" 
d="M881 800v147h261v-138q33 90 83 125q64 46 153 46q9 0 31 -1v-266q-34 3 -54 3q-115 0 -175 -86q-27 -40 -33 -85q-5 -38 -5 -88v-457h-261v571h-458v-571h-280v1365h760v-229h-480v-336h458z" />
    <glyph glyph-name="lira" unicode="&#x20a4;" horiz-adv-x="1287" 
d="M799 780v-91h-199q6 -12 8 -18q24 -52 35 -110h158v-91h-178q-13 -58 -21 -78q-31 -73 -137 -150q24 9 35 14q77 31 141 31q45 0 101 -16q16 -4 134 -44q28 -9 66 -9q109 0 208 116l99 -230q-148 -138 -306 -138q-55 0 -98 11q-55 15 -148 50q-116 44 -176 44
q-94 0 -203 -83l-141 208q159 100 186 274h-210v91h203l-9 24q-21 55 -54 104h-140v91h85q-54 107 -54 185q0 95 55 187q136 225 474 225q315 0 445 -194q68 -101 79 -306h-262q-6 136 -59 198q-65 76 -191 76q-116 0 -183 -60q-61 -54 -61 -134q0 -53 26 -101q8 -16 45 -76
h247z" />
    <glyph glyph-name="peseta" unicode="&#x20a7;" horiz-adv-x="1887" 
d="M1045 725h154v-150h74v-143h-74v-261q0 -29 38 -29h36v-142h-138q-58 0 -88 28q-26 25 -26 86v318h-67v143h67v102q-126 -208 -423 -208h-175v-469h-280v1365h436q246 0 377 -116q129 -114 129 -322q0 -102 -40 -202zM423 700h120q82 0 136 24q122 54 122 192
q0 130 -109 187q-58 30 -141 30h-128v-433zM1829 397h-169q1 11 1 16q0 16 -10 28q-18 23 -56 23q-57 0 -57 -44q0 -35 62 -52q125 -36 166 -64q72 -48 72 -136q0 -92 -79 -145q-61 -42 -160 -42q-131 0 -195 77q-39 47 -42 119h171q9 -69 69 -69q27 0 41 13q16 14 16 33
q0 23 -26 40q-16 10 -77 28q-190 54 -190 185q0 95 82 146q63 38 154 38q129 0 192 -79q34 -43 35 -115z" />
    <glyph glyph-name="Euro" unicode="&#x20ac;" 
d="M149 811q16 116 55 215q65 164 193 268q120 98 278 98q196 0 345 -145l-116 -267q-32 55 -75 93q-66 60 -146 60q-121 0 -198 -152q-33 -66 -50 -170h376l-85 -262h-287q23 -114 66 -183q85 -134 203 -134q120 0 211 108q18 22 35 49v-340q-128 -76 -258 -76
q-225 0 -388 197q-126 154 -158 379h-150l86 262h63z" />
    <glyph glyph-name="uni2101" unicode="&#x2101;" horiz-adv-x="1922" 
d="M604 685h-314l-49 -139h-202l297 819h230l294 -819h-209zM554 834l-107 303l-107 -303h214zM1581 1334l-901 -1361l-82 53l900 1360zM1270 249h186v-16q0 -31 17 -51q32 -38 91 -38q47 0 78 26q25 22 25 53q0 36 -31 58q-24 18 -101 44q-125 42 -183 90q-75 62 -75 169
q0 118 86 187q80 64 202 64q172 0 252 -121q36 -55 43 -139h-193q-7 100 -103 100q-49 0 -74 -26q-21 -22 -21 -52q0 -45 47 -70q26 -14 99 -39q127 -44 179 -91q70 -63 70 -161q0 -133 -109 -202q-78 -50 -191 -50q-147 0 -226 80q-66 67 -68 161v24z" />
    <glyph glyph-name="afii61248" unicode="&#x2105;" horiz-adv-x="844" 
d="M424 865q51 0 88 -37q37 -36 37 -89t-37 -90t-89 -37q-53 0 -90 37t-37 89q0 54 37 90q38 37 91 37z" />
    <glyph glyph-name="afii61289" unicode="&#x2113;" 
d="M520 531q-49 -279 -49 -375q0 -51 30 -51q19 0 39 23q13 16 41 71q21 43 48 43q39 0 39 -45q0 -60 -53 -136q-73 -105 -171 -105q-107 0 -150 104q-23 54 -23 167q0 59 3 120q-67 -79 -91 -79q-11 0 -23 17q-12 18 -12 42q0 22 17 45q5 6 65 73q15 17 60 74
q65 368 160 596q107 257 272 257q86 0 129 -64q37 -54 37 -131q0 -100 -56 -230q-65 -151 -199 -296q-44 -48 -113 -120zM541 677q102 114 165 255q66 146 66 234q0 44 -24 62q-8 7 -21 7q-50 0 -82 -86q-50 -139 -104 -472z" />
    <glyph glyph-name="uni2117" unicode="&#x2117;" horiz-adv-x="357" 
d="M268 1119v-573h-178v573h178zM177 1370q42 0 68 -29q26 -28 26 -68q0 -43 -33 -71q-25 -22 -62 -22q-43 0 -69 29q-26 27 -26 66q0 45 33 73q25 22 63 22z" />
    <glyph glyph-name="trademark" unicode="&#x2122;" horiz-adv-x="1744" 
d="M408 1216v-670h-190v670h-202v149h593v-149h-201zM916 1022v-476h-190v819h210l248 -478l249 478h210v-819h-190v476l-269 -511z" />
    <glyph glyph-name="uni2126" unicode="&#x2126;" horiz-adv-x="1364" 
d="M57 0v233h303q-126 77 -196 167q-113 146 -113 354q0 286 209 480q177 165 423 165t423 -165q209 -194 209 -480q0 -222 -131 -376q-65 -76 -178 -145h303v-233h-548v215q111 59 175 150q107 151 107 339q0 205 -118 341q-102 118 -241 118t-243 -118
q-118 -136 -118 -338q0 -343 282 -492v-215h-548z" />
    <glyph glyph-name="onethird" unicode="&#x2153;" horiz-adv-x="1613" 
d="M311 1138l-155 -77v159l335 164v-840h-180v594zM1298 1334l-901 -1361l-82 53l900 1360zM1260 668h-239v147h543l-237 -302q76 -8 132 -52q90 -72 90 -197q0 -129 -94 -210q-80 -70 -198 -70q-157 0 -233 109q-35 50 -47 139l163 6q16 -100 111 -100q57 0 95 39
q30 31 30 77q0 48 -32 81q-35 35 -93 35q-43 0 -79 -23l-102 82z" />
    <glyph glyph-name="twothirds" unicode="&#x2154;" horiz-adv-x="1613" 
d="M346 694h235v-151h-542l307 440q47 67 62 97.5t15 56.5q0 37 -26 60q-27 23 -68 23q-68 0 -90 -52q-10 -26 -11 -82h-166q0 69 13 109q26 84 93 132q70 48 172 48q130 0 206 -78q58 -58 58 -144q0 -63 -26 -118q-30 -62 -81 -132zM1298 1334l-901 -1361l-81 53l900 1360z
M1260 668h-239v147h543l-237 -302q76 -8 132 -52q90 -72 90 -197q0 -129 -94 -210q-80 -70 -198 -70q-157 0 -233 109q-35 50 -47 139l163 6q6 -40 27 -63q32 -37 84 -37q57 0 95 39q30 30 30 77q0 48 -32 81q-35 35 -93 35q-43 0 -79 -23l-102 82z" />
    <glyph glyph-name="onefifth" unicode="&#x2155;" horiz-adv-x="1613" 
d="M311 1138l-155 -77v159l335 164v-840h-180v594zM1298 1334l-901 -1361l-82 53l900 1360zM1200 661v-155q49 19 99 19q106 0 180 -72q75 -74 75 -187q0 -143 -103 -223q-77 -59 -186 -59q-121 0 -201 75q-43 40 -76 121l157 55q35 -90 116 -90q51 0 85 35q32 34 32 82
t-31 81q-35 36 -88 36q-61 0 -108 -57h-116v493h452v-154h-287z" />
    <glyph glyph-name="twofifth" unicode="&#x2156;" horiz-adv-x="1613" 
d="M346 694h235v-151h-542l307 440q47 67 62 97.5t15 56.5q0 37 -26 60q-27 23 -68 23q-68 0 -90 -52q-10 -26 -11 -82h-166q0 69 13 109q26 84 93 132q70 48 172 48q130 0 206 -78q58 -58 58 -144q0 -63 -26 -118q-30 -62 -81 -132zM1298 1334l-901 -1361l-81 53l900 1360z
M1200 661v-155q49 19 100 19q106 0 180 -72q75 -73 75 -187q0 -143 -104 -223q-76 -59 -185 -59q-122 0 -202 75q-43 40 -76 121l157 55q35 -90 116 -90q52 0 85 35q33 34 33 82q0 47 -32 81q-34 36 -88 36q-61 0 -108 -57h-116v493h453v-154h-288z" />
    <glyph glyph-name="threefifth" unicode="&#x2157;" horiz-adv-x="1613" 
d="M323 1212h-238v147h543l-238 -302q76 -8 133 -53q90 -71 90 -196q0 -129 -94 -211q-80 -70 -199 -70q-156 0 -233 109q-34 50 -46 139l162 6q7 -40 27 -63q33 -37 85 -37q57 0 94 39q31 31 31 77q0 49 -32 81q-35 36 -93 36q-44 0 -79 -23l-103 81zM1297 1334l-901 -1361
l-81 53l900 1360zM1199 661v-155q49 19 99 19q107 0 181 -72q75 -73 75 -187q0 -143 -104 -223q-77 -59 -186 -59q-121 0 -202 75q-43 40 -75 121l157 55q35 -90 116 -90q52 0 85 35q33 34 33 82t-32 81q-34 36 -88 36q-61 0 -108 -57h-116v493h453v-154h-288z" />
    <glyph glyph-name="fourfifth" unicode="&#x2158;" horiz-adv-x="1613" 
d="M370 708h-315v138l307 513h181v-504h78v-147h-78v-164h-173v164zM378 850v301l-173 -301h173zM1298 1334l-901 -1361l-81 53l900 1360zM1200 661v-155q49 19 100 19q106 0 180 -72q75 -73 75 -187q0 -143 -103 -223q-77 -59 -186 -59q-122 0 -202 75q-43 40 -76 121
l157 55q36 -90 116 -90q52 0 85 35q33 34 33 82q0 47 -32 81q-34 36 -88 36q-61 0 -108 -57h-116v493h453v-154h-288z" />
    <glyph glyph-name="onesixth" unicode="&#x2159;" horiz-adv-x="1613" 
d="M311 1138l-155 -77v159l335 164v-840h-180v594zM1298 1334l-901 -1361l-82 53l900 1360zM1504 815l-217 -314q18 2 30 2q78 0 140 -43q54 -37 81 -98q23 -49 23 -103q0 -122 -96 -204q-83 -71 -197 -71q-132 0 -215 92q-65 73 -65 174q0 104 95 245l216 320h205z
M1277 361q-54 0 -89 -37q-29 -30 -29 -72q0 -48 36 -81q31 -27 78 -27q59 0 92 40q26 31 26 69q0 45 -32 76q-33 32 -82 32z" />
    <glyph glyph-name="fivesixth" unicode="&#x215a;" horiz-adv-x="1613" 
d="M264 1205v-155q47 18 100 18q105 0 179 -72q75 -74 75 -187q0 -142 -104 -222q-76 -59 -185 -59q-121 0 -202 75q-43 40 -75 120l157 56q35 -90 116 -90q51 0 84 35q33 34 33 81q0 48 -32 81q-34 36 -87 36q-61 0 -108 -57h-116v494h452v-154h-287zM1297 1334l-901 -1361
l-81 53l900 1360zM1504 815l-217 -314q17 2 29 2q79 0 140 -43q104 -72 104 -201q0 -122 -96 -204q-83 -71 -196 -71q-132 0 -215 92q-65 73 -65 174q0 104 95 245l216 320h205zM1277 361q-54 0 -90 -37q-28 -31 -28 -72q0 -48 36 -81q31 -27 78 -27q58 0 91 40q26 32 26 69
q0 45 -32 76q-33 32 -81 32z" />
    <glyph glyph-name="oneeighth" unicode="&#x215b;" horiz-adv-x="1613" 
d="M311 1138l-155 -77v159l335 164v-840h-180v594zM1298 1334l-901 -1361l-82 53l900 1360zM1447 429q113 -54 113 -189q0 -118 -89 -191q-78 -65 -199 -65q-139 0 -220 84q-62 65 -62 163q0 145 116 198q-33 18 -55 51q-35 51 -35 116q0 111 85 179q72 57 179 57
q121 0 193 -72q66 -65 66 -160q0 -67 -38 -121q-22 -31 -54 -50zM1279 685q-50 0 -78 -32q-21 -25 -21 -58q0 -42 31 -69q29 -25 67 -25q46 0 77 35q24 26 24 58q0 37 -33 67q-27 24 -67 24zM1276 348q-52 0 -85 -35q-28 -29 -28 -70q0 -47 34 -77q32 -27 78 -27q51 0 83 35
q28 30 28 69q0 45 -35 76q-32 29 -75 29z" />
    <glyph glyph-name="threeeighths" unicode="&#x215c;" horiz-adv-x="1613" 
d="M323 1212h-238v147h543l-238 -302q76 -8 133 -53q90 -71 90 -196q0 -129 -94 -211q-80 -70 -199 -70q-156 0 -233 109q-34 50 -46 139l162 6q7 -40 27 -63q33 -37 85 -37q57 0 94 39q31 31 31 77q0 49 -32 81q-35 36 -93 36q-44 0 -79 -23l-103 81zM1297 1334l-901 -1361
l-81 53l900 1360zM1446 429q113 -53 113 -189q0 -118 -89 -191q-79 -65 -199 -65q-139 0 -220 84q-62 65 -62 163q0 145 117 198q-34 18 -57 51q-34 51 -34 116q0 111 84 179q72 57 180 57q120 0 193 -72q66 -65 66 -160q0 -68 -38 -121q-21 -31 -54 -50zM1278 685
q-50 0 -78 -32q-21 -25 -21 -58q0 -42 31 -69q29 -25 66 -25q47 0 78 35q24 26 24 58q0 37 -33 67q-27 24 -67 24zM1275 348q-52 0 -85 -35q-28 -29 -28 -70q0 -47 34 -77q32 -27 77 -27q52 0 84 35q28 30 28 69q0 45 -35 76q-32 29 -75 29z" />
    <glyph glyph-name="fiveeighths" unicode="&#x215d;" horiz-adv-x="1613" 
d="M264 1205v-155q47 18 100 18q105 0 179 -72q75 -74 75 -187q0 -142 -104 -222q-76 -59 -185 -59q-121 0 -202 75q-43 40 -75 120l157 56q35 -90 116 -90q51 0 84 35q33 34 33 81q0 48 -32 81q-34 36 -87 36q-61 0 -108 -57h-116v494h452v-154h-287zM1297 1334l-901 -1361
l-81 53l900 1360zM1446 429q113 -53 113 -189q0 -118 -89 -191q-79 -65 -199 -65q-139 0 -220 84q-62 65 -62 163q0 144 117 198q-33 18 -56 51q-34 51 -34 116q0 112 84 179q73 57 180 57q121 0 193 -72q66 -65 66 -160q0 -68 -38 -121q-22 -31 -55 -50zM1279 685
q-50 0 -78 -32q-21 -25 -21 -58q0 -42 31 -69q29 -25 67 -25q46 0 77 35q24 26 24 58q0 37 -33 67q-27 24 -67 24zM1275 348q-52 0 -85 -35q-28 -29 -28 -70q0 -47 34 -77q31 -27 78 -27q51 0 83 35q28 30 28 69q0 45 -35 76q-32 29 -75 29z" />
    <glyph glyph-name="seveneighths" unicode="&#x215e;" horiz-adv-x="1613" 
d="M374 1205h-273v154h524l-343 -815h-187zM1297 1334l-901 -1361l-81 53l900 1360zM1446 429q114 -54 114 -189q0 -118 -89 -191q-79 -65 -199 -65q-139 0 -220 84q-62 65 -62 163q0 145 116 198q-33 18 -56 51q-34 51 -34 116q0 112 84 179q72 57 179 57q121 0 194 -72
q66 -65 66 -160q0 -67 -38 -121q-22 -31 -55 -50zM1279 685q-50 0 -78 -32q-21 -25 -21 -58q0 -42 31 -69q29 -25 66 -25q46 0 78 35q24 26 24 58q0 37 -34 67q-27 24 -66 24zM1275 348q-51 0 -84 -35q-28 -29 -28 -70q0 -47 34 -77q31 -27 77 -27q52 0 84 35q28 30 28 69
q0 45 -35 76q-32 29 -76 29z" />
    <glyph glyph-name="arrowleft" unicode="&#x2190;" horiz-adv-x="1365" 
d="M1338 744v-104h-1024q24 -30 60 -96q47 -86 47 -117q0 -28 -30 -28q-17 0 -47 35q-106 122 -270 212q-47 25 -47 42q0 19 34 38q100 57 165 106q60 46 132 130q16 19 32 19q31 0 31 -31q0 -20 -42 -104q-21 -41 -65 -102h1024z" />
    <glyph glyph-name="arrowup" unicode="&#x2191;" horiz-adv-x="1365" 
d="M737 27h-104v1024q-31 -25 -96 -60q-86 -47 -117 -47q-28 0 -28 31q0 16 35 46q123 107 212 270q25 47 42 47q19 0 38 -34q56 -99 106 -165q48 -62 131 -132q19 -16 19 -32q0 -31 -31 -31q-20 0 -105 42q-42 21 -102 65v-1024z" />
    <glyph glyph-name="arrowright" unicode="&#x2192;" horiz-adv-x="1365" 
d="M27 636v104h1024q-25 30 -60 96q-47 86 -47 116q0 29 30 29q17 0 47 -35q107 -123 270 -212q47 -25 47 -42q0 -19 -34 -38q-94 -54 -165 -107q-60 -45 -132 -130q-16 -19 -32 -19q-31 0 -31 31q0 20 42 105q21 42 65 102h-1024z" />
    <glyph glyph-name="arrowdown" unicode="&#x2193;" horiz-adv-x="1365" 
d="M629 1338h104v-1024q30 25 96 60q86 47 117 47q28 0 28 -31q0 -16 -35 -46q-122 -106 -212 -270q-25 -47 -42 -47q-19 0 -38 34q-54 94 -106 165q-46 60 -131 132q-19 16 -19 32q0 31 31 31q20 0 105 -42q42 -21 102 -65v1024z" />
    <glyph glyph-name="arrowboth" unicode="&#x2194;" horiz-adv-x="1365" 
d="M312 635q45 -61 72 -117q36 -71 36 -91q0 -30 -31 -30q-12 0 -22 8q-5 5 -26 30q-80 95 -223 183q-52 32 -70 43q-21 12 -21 30q0 17 47 43q165 91 269 211q31 35 47 35q30 0 30 -29q0 -30 -48 -116q-35 -64 -60 -96h739q-23 28 -60 96q-47 85 -47 117q0 28 30 28
q17 0 47 -35q105 -121 270 -211q47 -26 47 -43q0 -19 -34 -38q-99 -56 -165 -106q-62 -48 -132 -131q-16 -19 -32 -19q-31 0 -31 31q0 21 42 105q21 42 65 102h-739z" />
    <glyph glyph-name="arrowupdn" unicode="&#x2195;" horiz-adv-x="1365" 
d="M737 312q61 45 117 73q71 36 91 36q30 0 30 -31q0 -13 -8 -22q-5 -5 -30 -26q-94 -79 -183 -223q-29 -48 -43 -71q-11 -21 -30 -21q-17 0 -42 47q-90 164 -212 270q-35 30 -35 47q0 30 29 30q30 0 116 -48q61 -33 96 -61v739q-31 -25 -96 -60q-86 -47 -116 -47
q-29 0 -29 30q0 17 35 47q123 107 212 270q25 47 42 47q19 0 38 -34q57 -100 106 -165q49 -62 131 -132q19 -16 19 -32q0 -31 -31 -31q-20 0 -105 42q-42 21 -102 65v-739z" />
    <glyph glyph-name="arrowupdnbse" unicode="&#x21a8;" horiz-adv-x="1365" 
d="M737 312q61 45 117 73q71 36 91 36q30 0 30 -31q0 -13 -8 -22q-5 -5 -30 -26q-93 -78 -183 -223q-28 -46 -43 -71q-11 -21 -30 -21q-17 0 -42 47q-90 164 -212 270q-35 30 -35 47q0 30 28 30q31 0 117 -48q61 -34 96 -61v739q-31 -25 -96 -60q-86 -47 -116 -47
q-29 0 -29 30q0 17 35 47q123 107 212 270q25 47 42 47q19 0 38 -34q57 -100 106 -165q49 -62 131 -132q19 -16 19 -32q0 -31 -31 -31q-20 0 -105 42q-42 21 -102 65v-739zM413 -139h540v-88h-540v88z" />
    <glyph glyph-name="partialdiff" unicode="&#x2202;" 
d="M133 1154l30 209q191 -22 331 -76q181 -70 307 -222q178 -215 178 -541q0 -210 -88 -342q-66 -99 -169 -152q-97 -49 -214 -49q-148 0 -263 76q-77 50 -127 129q-75 117 -75 259q0 190 123 318q118 123 290 123q107 0 178 -39q28 -15 84 -66q-16 29 -24 44
q-46 86 -69 113q-62 71 -124 106q-105 58 -220 87q-53 13 -148 23zM517 687q-86 0 -152 -55q-30 -25 -52 -65q-33 -61 -33 -128q0 -107 73 -179q67 -67 155 -67q83 0 149 58q80 71 80 192q0 119 -75 186q-64 58 -145 58z" />
    <glyph glyph-name="emptyset" unicode="&#x2205;" horiz-adv-x="1266" 
d="M899 1365l98 -51l-98 -181q231 -161 231 -416q0 -141 -75 -262q-65 -105 -170 -167q-119 -69 -263 -69q-94 0 -162 33l-128 -251l-100 51l126 249q-221 162 -221 414q0 228 171 376q140 121 328 121q82 0 166 -29zM514 353q66 -18 119 -18q168 0 283 123q100 108 100 257
q0 150 -100 260q-25 28 -64 52zM749 1079q-57 17 -110 17q-184 0 -299 -138q-89 -107 -89 -242q0 -183 159 -310z" />
    <glyph glyph-name="Delta" unicode="&#x2206;" horiz-adv-x="1318" 
d="M16 0l502 1365h278l506 -1365h-1286zM358 233h595l-294 849z" />
    <glyph glyph-name="product" unicode="&#x220f;" horiz-adv-x="1365" 
d="M42 1536h1282v-215h-148v-1618h148v-215h-526v215h137v1618h-505v-1618h135v-215h-523v215h150v1618h-150v215z" />
    <glyph glyph-name="summation" unicode="&#x2211;" horiz-adv-x="1365" 
d="M1263 1536v-512h-242l-29 265h-623l499 -744l-497 -811h640l16 273h254v-519h-1212v284l482 773l-482 708v283h1194z" />
    <glyph glyph-name="minus" unicode="&#x2212;" 
d="M25 794h973v-135h-973v135z" />
    <glyph glyph-name="uni2218" unicode="&#x2218;" 
d="M516 982q112 0 194 -83q83 -84 83 -203q0 -118 -82 -202q-83 -84 -199 -84t-198 83q-84 84 -84 203q0 121 84 203q84 83 202 83zM514 885q-79 0 -133 -55q-55 -55 -55 -134q0 -78 55 -134q55 -55 131 -55t131 55q54 56 54 134q0 80 -55 134q-55 55 -128 55z" />
    <glyph glyph-name="radical" unicode="&#x221a;" horiz-adv-x="1365" 
d="M1365 1693v-222h-354l-391 -1471h-309l-133 540h-178v222h331l63 -232q13 -50 48 -288h15q10 58 31 167q33 169 45 220q9 41 72 279l209 785h551z" />
    <glyph glyph-name="infinity" unicode="&#x221e;" horiz-adv-x="1365" 
d="M688 573q-146 -197 -332 -197q-158 0 -248 109q-71 86 -71 213q0 147 97 234q93 84 222 84q183 0 323 -196q139 196 333 196q163 0 253 -118q64 -83 64 -203q0 -152 -101 -241q-89 -79 -214 -79q-189 0 -326 198zM776 696q102 -153 211 -153q67 0 111 48q38 43 38 105
q0 77 -56 120q-42 32 -95 32q-86 0 -160 -87q-18 -20 -35 -45zM590 695q-102 153 -211 153q-67 0 -111 -48q-38 -43 -38 -105q0 -77 56 -120q42 -32 95 -32q86 0 161 87q10 12 29.5 38t18.5 27z" />
    <glyph glyph-name="orthogonal" unicode="&#x221f;" horiz-adv-x="692" 
d="M32 1044h628v-177h-628v177z" />
    <glyph glyph-name="intersection" unicode="&#x2229;" horiz-adv-x="1245" 
d="M1175 0h-269v628q-3 171 -7 219q-10 110 -55 170q-39 51 -99 79q-59 28 -123 28q-97 0 -174 -58q-61 -45 -84 -118q-26 -79 -26 -320v-628h-269v622q0 222 12 313q30 218 210 338q139 92 331 92q193 0 331 -92q180 -120 209 -338q13 -94 13 -313v-622z" />
    <glyph glyph-name="union" unicode="&#x222a;" horiz-adv-x="1245" 
d="M69 1365h269v-627q0 -137 7 -220q10 -110 55 -170q38 -51 99 -80q59 -27 123 -27q97 0 174 58q61 45 84 118q26 79 26 321v627h269v-622q0 -222 -12 -313q-30 -218 -210 -338q-139 -92 -331 -92q-191 0 -330 92q-182 120 -210 338q-13 97 -13 313v622z" />
    <glyph glyph-name="integral" unicode="&#x222b;" 
d="M115 -491l46 253q49 -20 86 -20q86 0 111 70q10 27 10 213v925q1 184 1 206q3 164 73 253q101 127 299 127q68 0 167 -21l-46 -253q-48 20 -87 20q-84 0 -110 -70q-10 -28 -10 -127v-1004q0 -247 -9 -300q-48 -288 -390 -288q-90 0 -141 16z" />
    <glyph glyph-name="uni222E" unicode="&#x222e;" 
d="M112 -490l47 252q61 -20 103 -20q85 0 109 70q9 29 9 134v184q-75 16 -152 78q-66 52 -105 134q-43 91 -43 189q0 133 75 244q81 118 225 155v182q0 189 61 284q90 141 287 141q71 0 180 -22l-46 -253q-60 21 -106 21q-82 0 -106 -71q-9 -27 -9 -109v-172q93 -25 150 -72
q70 -57 110 -141q43 -88 43 -187q0 -134 -74 -244q-59 -87 -161 -134q-32 -15 -69 -23v-198q0 -119 -12 -183q-22 -119 -112 -192q-46 -36 -91 -50q-65 -19 -156 -19q-84 0 -157 22zM640 806v-548q56 19 93 55q89 86 89 218q0 144 -97 225q-45 38 -85 50zM380 259v546
q-51 -17 -88 -52q-90 -87 -90 -220q0 -145 98 -227q42 -35 80 -47z" />
    <glyph glyph-name="uni2236" unicode="&#x2236;" horiz-adv-x="844" 
d="M424 1168q42 0 74 -30q32 -32 32 -78q0 -45 -33 -77q-31 -30 -74 -30t-75 30q-33 32 -33 77q0 47 32 78q33 30 77 30zM423 523q45 0 77 -34q29 -30 29 -73q0 -46 -33 -78q-32 -30 -75 -30q-42 0 -74 30q-33 32 -33 77q0 44 29 74q33 34 80 34z" />
    <glyph glyph-name="similar" unicode="&#x223c;" 
d="M157 490l-139 115q112 271 301 271q70 0 231 -71q90 -40 113 -46q28 -8 50 -8q84 0 155 130l139 -115q-40 -95 -73 -139q-96 -130 -238 -130q-35 0 -82 14q-39 12 -154 64q-104 46 -153 46q-79 0 -150 -131z" />
    <glyph glyph-name="approxequal" unicode="&#x2248;" 
d="M157 712l-139 98q111 271 301 271q70 0 231 -71q91 -40 113 -46q28 -8 51 -8q61 0 102 44q18 20 52 69l139 -98q-39 -92 -71 -137q-96 -130 -249 -130q-37 0 -85 16q-35 11 -142 59q-103 47 -154 47q-49 0 -87 -36q-26 -24 -62 -78zM157 285l-139 98q112 271 301 271
q70 0 231 -71q91 -40 113 -46q26 -8 50 -8q61 0 103 44q19 21 52 68l139 -97q-39 -92 -71 -137q-95 -130 -249 -130q-37 0 -85 16q-35 11 -142 59q-103 47 -154 47q-49 0 -87 -36q-26 -24 -62 -78z" />
    <glyph glyph-name="notequal" unicode="&#x2260;" 
d="M533 965l138 263l177 -93l-90 -170h198v-236h-294l-87 -165h380v-236h-468l-123 -236l-178 93l76 143h-194v236h282l87 165h-368v236h464z" />
    <glyph glyph-name="equivalence" unicode="&#x2261;" 
d="M68 1206h887v-248h-887v248zM68 807h887v-248h-887v248zM68 407h887v-248h-887v248z" />
    <glyph glyph-name="lessequal" unicode="&#x2264;" 
d="M955 1302v-264l-579 -195l578 -194l1 -265l-887 341v238zM955 329v-248h-887v248h887z" />
    <glyph glyph-name="greaterequal" unicode="&#x2265;" 
d="M68 384l1 265l578 194l-579 195v264l887 -340v-237zM68 81v248h887v-248h-887z" />
    <glyph glyph-name="dotmath" unicode="&#x22c5;" horiz-adv-x="534" 
d="M268 656q67 0 110 -46q40 -43 40 -108q0 -69 -52 -114q-40 -34 -99 -34q-69 0 -111 46q-40 43 -40 105q0 72 52 117q39 34 100 34z" />
    <glyph glyph-name="house" unicode="&#x2302;" horiz-adv-x="1538" 
d="M172 0v821l597 672l597 -672v-821h-1194zM276 104h986v672l-493 553l-493 -553v-672z" />
    <glyph glyph-name="revlogicalnot" unicode="&#x2310;" 
d="M343 0h-275v591h887v-248h-612v-343z" />
    <glyph glyph-name="uni2319" unicode="&#x2319;" 
d="M343 591v-343h612v-248h-887v591h275z" />
    <glyph glyph-name="integraltp" unicode="&#x2320;" 
d="M656 -512h-288v1462q1 183 1 206q3 164 74 253q101 127 299 127q68 0 167 -21l-46 -253q-48 20 -88 20q-83 0 -109 -70q-10 -28 -10 -127v-1597z" />
    <glyph glyph-name="integralbt" unicode="&#x2321;" 
d="M368 1536h287v-1462q0 -178 -1 -206q-3 -164 -73 -253q-101 -127 -299 -127q-68 0 -167 21l46 253q48 -20 88 -20q83 0 109 70q10 27 10 127v1597z" />
    <glyph glyph-name="filledbox" unicode="&#x25a0;" horiz-adv-x="1365" 
d="M1365 0h-1365v1365h1365v-1365z" />
    <glyph glyph-name="uni25A1" unicode="&#x25a1;" horiz-adv-x="1365" 
d="M1365 0h-1365v1365h1365v-1365zM1269 96v1173h-1173v-1173h1173z" />
    <glyph glyph-name="H18551" unicode="&#x25ab;" horiz-adv-x="692" 
d="M32 1044h219v212h190v-212h219v-177h-219v-214h-190v214h-219v177z" />
    <glyph glyph-name="filledrect" unicode="&#x25ac;" horiz-adv-x="1365" 
d="M1365 683v-683h-1365v683h1365z" />
    <glyph glyph-name="uni25AE" unicode="&#x25ae;" horiz-adv-x="1365" 
d="M1024 0h-683v1365h683v-1365z" />
    <glyph glyph-name="uni25AF" unicode="&#x25af;" horiz-adv-x="1365" 
d="M684 1207q219 0 376 -153q156 -153 156 -370q0 -216 -154 -370q-157 -156 -378 -156q-224 0 -380 156q-154 154 -154 377q0 142 78 267q77 123 213 191q114 58 243 58z" />
    <glyph glyph-name="triagup" unicode="&#x25b2;" horiz-adv-x="1365" 
d="M1297 137h-1229l615 1150z" />
    <glyph glyph-name="uni25B4" unicode="&#x25b4;" 
d="M956 300h-888l444 830z" />
    <glyph glyph-name="uni25B8" unicode="&#x25b8;" 
d="M146 243v888l830 -444z" />
    <glyph glyph-name="triagdn" unicode="&#x25bc;" horiz-adv-x="1365" 
d="M68 1229h1229l-615 -1150z" />
    <glyph glyph-name="uni25BE" unicode="&#x25be;" 
d="M68 1065h887l-443 -830z" />
    <glyph glyph-name="uni25C2" unicode="&#x25c2;" 
d="M878 1131v-888l-830 444z" />
    <glyph glyph-name="lozenge" unicode="&#x25ca;" horiz-adv-x="1365" 
d="M683 1419l531 -736l-531 -736l-532 736zM683 1238l-404 -555l404 -554l403 554z" />
    <glyph glyph-name="circle" unicode="&#x25cb;" horiz-adv-x="1365" 
d="M684 1207q219 0 376 -153q156 -153 156 -370q0 -216 -154 -370q-157 -156 -378 -156q-224 0 -380 156q-154 154 -154 377q0 142 78 267q77 123 213 191q114 58 243 58zM683 1113q-181 0 -310 -127q-127 -124 -127 -297q0 -183 126 -309q128 -128 312 -128q181 0 310 128
q126 126 126 304q0 181 -128 303q-131 126 -309 126z" />
    <glyph glyph-name="invbullet" unicode="&#x25d8;" horiz-adv-x="1365" 
d="M0 0v1365h1365v-1365h-1365zM687 969q-119 0 -202 -83q-84 -84 -84 -204q0 -118 84 -203q82 -83 198 -83t199 84q82 84 82 202q0 122 -83 203q-85 84 -194 84z" />
    <glyph glyph-name="invcircle" unicode="&#x25d9;" horiz-adv-x="1365" 
d="M1365 0h-1365v1365h1365v-1365zM683 1207q-220 0 -378 -154q-155 -152 -155 -362q0 -224 154 -377q156 -156 379 -156q221 0 378 156q154 154 154 370q0 148 -79 274q-77 124 -212 192q-113 57 -241 57zM683 1113q180 0 309 -126q128 -125 128 -303q0 -177 -127 -304
q-128 -128 -310 -128q-183 0 -311 128q-127 126 -127 309q0 117 64 220q63 101 175 157q93 47 199 47z" />
    <glyph glyph-name="openbullet" unicode="&#x25e6;" 
d="M516 982q112 0 194 -83q83 -84 83 -203q0 -118 -82 -202q-83 -84 -199 -84t-198 83q-84 84 -84 203q0 121 84 203q84 83 202 83zM514 885q-79 0 -133 -55q-55 -55 -55 -134q0 -78 55 -134q55 -55 131 -55t131 55q54 56 54 134q0 80 -55 134q-55 55 -128 55z" />
    <glyph glyph-name="smileface" unicode="&#x263a;" horiz-adv-x="1365" 
d="M693 1331q166 0 314 -87q151 -89 237 -237q87 -150 87 -324t-87 -325q-87 -150 -237 -237q-151 -87 -324 -87q-174 0 -325 87t-237 237q-87 152 -87 330q0 280 215 476q183 167 444 167zM693 1245q-259 0 -427 -187q-145 -160 -145 -371q0 -255 186 -423
q160 -144 376 -144q151 0 282 75q131 76 206 206q75 131 75 282q0 246 -186 417q-87 80 -199 116q-90 29 -168 29zM491 953q39 0 66 -30q23 -25 23 -60q0 -40 -30 -67q-25 -23 -60 -23q-40 0 -67 30q-23 26 -23 61q0 38 30 66q25 23 61 23zM889 953q39 0 66 -30
q23 -26 23 -60q0 -40 -30 -68q-26 -23 -60 -23q-41 0 -68 30q-23 26 -23 61q0 39 30 67q25 23 62 23zM1106 762q-10 -137 -34 -204q-50 -139 -160 -209q-96 -61 -228 -61q-224 0 -337 169q-46 68 -65 148q-12 52 -20 157q19 -82 44 -125q58 -98 160 -152q92 -49 218 -49
q212 0 337 144q41 48 61 99q11 27 24 83z" />
    <glyph glyph-name="invsmileface" unicode="&#x263b;" horiz-adv-x="1365" 
d="M693 1331q166 0 314 -87q151 -89 237 -237q87 -150 87 -324t-87 -325q-87 -150 -237 -237q-151 -87 -324 -87q-174 0 -325 87t-237 237q-87 152 -87 330q0 280 215 476q183 167 444 167zM491 953q-41 0 -68 -30q-23 -26 -23 -59q0 -41 30 -68q25 -23 60 -23q40 0 67 30
q23 25 23 60q0 40 -30 67q-25 23 -59 23zM889 954q-42 0 -69 -30q-23 -26 -23 -60q0 -41 30 -69q26 -23 61 -23q40 0 67 30q23 26 23 61q0 40 -30 68q-25 23 -59 23zM1106 761q-19 -82 -44 -124q-58 -98 -160 -153q-92 -48 -218 -48q-212 0 -337 144q-41 48 -62 99
q-10 26 -23 82q10 -136 34 -203q50 -138 160 -209q96 -61 228 -61q224 0 337 169q46 69 65 148q12 52 20 156z" />
    <glyph glyph-name="sun" unicode="&#x263c;" horiz-adv-x="1365" 
d="M326 968l-153 152l72 72l154 -153q104 81 232 98v215h103v-216q133 -18 233 -96l153 152l72 -72l-153 -152q78 -101 96 -232h216v-105h-216q-17 -132 -96 -233l153 -153l-72 -72l-153 153q-103 -79 -233 -97v-215h-103v216q-119 13 -233 95l-153 -152l-72 72l152 152
q-79 102 -94 234h-216v105h215q18 129 96 232zM688 1010q-150 0 -248 -108q-84 -93 -84 -216q0 -148 108 -246q93 -84 219 -84q145 0 242 108q84 94 84 220q0 143 -108 242q-92 84 -213 84z" />
    <glyph glyph-name="female" unicode="&#x2640;" horiz-adv-x="1365" 
d="M632 644q-93 14 -166 68q-72 53 -112 133t-40 170q0 155 109 265q107 109 259 109t260 -108q110 -110 110 -266q0 -122 -72 -222q-91 -125 -250 -150v-214h334v-88h-334v-341h-98v341h-330v88h330v215zM688 1293q-117 0 -197 -80q-81 -81 -81 -197q0 -115 82 -197
q79 -80 191 -80q113 0 193 81t80 196q0 117 -80 196q-82 81 -188 81z" />
    <glyph glyph-name="male" unicode="&#x2642;" horiz-adv-x="1365" 
d="M856 712q73 -99 73 -225q0 -154 -108 -263q-107 -110 -260 -110q-151 0 -259 108q-110 111 -110 267t109 266q108 108 260 108q126 0 229 -81l309 309q-104 23 -216 82q-44 23 -44 48q0 24 27 24q11 0 41 -6q89 -17 170 -17q113 0 216 27q11 3 20 3q21 0 21 -21
q0 -8 -10 -46q-21 -80 -21 -180q0 -87 18 -172q6 -29 6 -40q0 -28 -25 -28q-16 0 -26 11q-42 48 -70 126q-31 83 -39 121zM565 767q-116 0 -196 -80q-81 -81 -81 -197q0 -115 81 -197q80 -80 192 -80q113 0 192 81q80 81 80 196q0 117 -80 196q-82 81 -188 81z" />
    <glyph glyph-name="spade" unicode="&#x2660;" horiz-adv-x="1365" 
d="M220 0v38q129 24 193 50q113 46 187 166q64 104 73 268q-18 -39 -28 -56q-34 -60 -97 -101q-80 -52 -172 -52q-97 0 -169 71q-77 76 -77 185q0 93 48 165q60 92 165 180q162 136 247 265q60 92 89 225q41 -120 64 -167q38 -78 102 -148q60 -65 142 -140
q114 -103 156 -154q92 -114 92 -230q0 -89 -54 -157q-75 -94 -196 -94q-172 0 -285 207q7 -105 29 -174q39 -127 148 -208q74 -55 229 -90q17 -3 56 -11v-38h-942z" />
    <glyph glyph-name="club" unicode="&#x2663;" horiz-adv-x="1365" 
d="M1149 0h-933v38q183 33 257 85q168 117 191 346q3 34 5 92q-45 -77 -69 -108q-51 -64 -123 -104q-87 -49 -176 -49q-130 0 -219 103q-76 87 -76 208q0 129 83 219q76 82 187 82q55 0 121 -31q2 -1 55 -27q-72 108 -72 204q0 122 89 208q89 85 214 85q123 0 210 -81
q93 -87 93 -212q0 -98 -73 -204q58 28 76 36q49 22 101 22q117 0 195 -93q74 -88 74 -207q0 -141 -98 -232q-86 -80 -202 -80q-104 0 -207 71q-68 47 -123 136q-9 15 -32 54q3 -133 28 -214q37 -121 145 -207q53 -43 124 -66q52 -16 155 -36v-38z" />
    <glyph glyph-name="heart" unicode="&#x2665;" horiz-adv-x="1365" 
d="M680 -22q-35 136 -97 245q-73 126 -165 251l-118 160q-91 124 -125 186q-60 110 -60 213q0 119 79 198q76 77 186 77q153 0 245 -139q28 -43 55 -126q31 105 80 162q90 105 221 105q123 0 204 -93q66 -76 66 -175q0 -135 -99 -296q-40 -65 -126 -174q-168 -215 -247 -353
q-67 -118 -99 -241z" />
    <glyph glyph-name="diamond" unicode="&#x2666;" horiz-adv-x="1365" 
d="M682 1419q86 -158 283 -429q152 -209 237 -305q-49 -55 -267 -346q-135 -182 -253 -392q-43 87 -199 312q-119 171 -295 395l-24 31q46 54 261 337q143 189 257 397z" />
    <glyph glyph-name="musicalnote" unicode="&#x266a;" horiz-adv-x="1365" 
d="M626 319v1046h93v-124q25 -33 137 -167q186 -222 186 -460q0 -191 -116 -332h-58q67 159 67 305q0 107 -43 198q-51 107 -129 144q-18 9 -44 13v-623q0 -125 -58 -207q-39 -54 -98 -89q-71 -41 -154 -41q-87 0 -121 53q-20 33 -20 71q0 74 53 141q43 56 113 80
q44 15 82 15q58 0 110 -23z" />
    <glyph glyph-name="uni266C" unicode="&#x266c;" horiz-adv-x="1365" 
d="M1261 393q-1 -97 -35 -166q-35 -70 -100 -115q-79 -55 -175 -55q-88 0 -121 53q-19 32 -19 71q0 74 52 141q43 55 113 80q43 15 80 15q60 0 111 -24v554l-675 -185v-483q0 -125 -58 -206q-38 -54 -98 -88q-72 -41 -155 -41q-87 0 -120 53q-20 31 -20 70q0 73 53 139
q43 55 113 79q43 15 82 15q56 0 110 -21v923l862 220v-1029zM492 918l675 185v142l-675 -185v-142z" />
    <glyph glyph-name="ff" unicode="&#xfb00;" horiz-adv-x="1163" 
d="M409 728v-728h-261v728h-105v219h105v52q0 367 345 367q12 0 39 -1v-240q-57 -7 -85 -27q-38 -28 -38 -99v-52h123v-219h-123zM987 728v-728h-261v728h-105v219h105v52q0 367 344 367q12 0 39 -1v-240q-57 -7 -84 -27q-38 -28 -38 -99v-52h122v-219h-122z" />
    <glyph glyph-name="fi" unicode="&#xfb01;" horiz-adv-x="1092" 
d="M409 728v-728h-261v728h-105v219h105v52q0 367 345 367q12 0 39 -1v-240q-57 -7 -85 -27q-38 -28 -38 -99v-52h123v-219h-123zM963 947v-947h-261v947h261zM834 1363q64 0 105 -45q38 -42 38 -102q0 -65 -49 -109q-38 -33 -95 -33q-67 0 -107 44q-38 43 -38 100
q0 68 49 112q38 33 97 33z" />
    <glyph glyph-name="fl" unicode="&#xfb02;" horiz-adv-x="1092" 
d="M409 728v-728h-261v728h-105v219h105v52q0 367 345 367q12 0 39 -1v-240q-57 -7 -85 -27q-38 -28 -38 -99v-52h123v-219h-123zM963 0h-261v1365h261v-1365z" />
    <glyph glyph-name="ffi" unicode="&#xfb03;" horiz-adv-x="1690" 
d="M408 728v-728h-261v728h-105v219h105v52q0 367 345 367q12 0 39 -1v-240q-57 -7 -85 -27q-38 -28 -38 -99v-52h123v-219h-123zM986 728v-728h-261v728h-105v219h105v52q0 367 344 367q12 0 39 -1v-240q-57 -7 -84 -27q-38 -28 -38 -99v-52h122v-219h-122zM1560 947v-947
h-261v947h261zM1432 1363q65 0 105 -45q38 -41 38 -102q0 -65 -49 -109q-38 -33 -95 -33q-67 0 -107 44q-38 43 -38 100q0 68 49 112q38 33 97 33z" />
    <glyph glyph-name="ffl" unicode="&#xfb04;" horiz-adv-x="1690" 
d="M409 728v-728h-261v728h-105v219h105v52q0 367 345 367q12 0 39 -1v-240q-57 -7 -85 -27q-38 -28 -38 -99v-52h123v-219h-123zM987 728v-728h-261v728h-105v219h105v52q0 367 344 367q12 0 39 -1v-240q-57 -7 -84 -27q-38 -28 -38 -99v-52h122v-219h-122zM1561 0h-261
v1365h261v-1365z" />
    <glyph glyph-name="glyph1" horiz-adv-x="0" 
 />
    <glyph glyph-name="glyph2" horiz-adv-x="614" 
 />
    <glyph glyph-name="glyph155" horiz-adv-x="614" 
 />
    <glyph glyph-name="glyph172" 
 />
    <glyph glyph-name="glyph210" horiz-adv-x="614" 
 />
    <glyph glyph-name="Comma.high" horiz-adv-x="347" 
d="M278 1332l-162 -426l-175 46l115 440z" />
    <glyph glyph-name="commaaccent.sc" 
d="M626 -87v-135q0 -146 -82 -201q-52 -35 -160 -42v85q63 5 100 27q35 21 39 86h-128v180h231z" />
    <glyph glyph-name="two.denominator" horiz-adv-x="474" 
d="M241 103h165v-103h-379l215 301q53 74 53 105q0 25 -18 41q-19 15 -48 15q-47 0 -62 -35q-7 -18 -8 -56h-116q-1 63 22 106q49 91 172 91q91 0 144 -53q41 -40 41 -99q0 -69 -75 -170z" />
    <glyph glyph-name="one.denominator" horiz-adv-x="474" 
d="M217 406l-108 -52v108l234 113v-575h-126v406z" />
    <glyph glyph-name="zero.numerator" horiz-adv-x="474" 
d="M430 1190v-213q0 -183 -192 -183q-96 0 -148 48q-29 27 -37 64q-9 39 -9 96v175q0 102 42 144q52 53 148 53q86 0 140 -44q56 -46 56 -140zM170 1177v-187q0 -50 11 -65q19 -24 57 -24q39 0 56 26q12 18 12 64v192q0 82 -68 82q-40 0 -56 -25q-12 -17 -12 -63z" />
    <glyph glyph-name="nine.numerator" horiz-adv-x="474" 
d="M231 1020q-9 -1 -15 -1q-66 0 -113 36q-67 49 -67 133q0 80 61 133q59 52 143 52q95 0 152 -63q45 -49 45 -120q0 -72 -65 -167l-149 -217h-142zM239 1266q-37 0 -61 -25q-21 -21 -21 -48q0 -34 27 -56q21 -18 52 -18q41 0 65 27q17 19 17 46q0 32 -24 53q-23 21 -55 21z
" />
    <glyph glyph-name="eight.numerator" horiz-adv-x="474" 
d="M358 1099q79 -37 79 -130q0 -81 -62 -131q-55 -44 -139 -44q-97 0 -154 58q-44 44 -44 111q0 99 82 136q-24 11 -40 34q-24 35 -24 79q0 76 59 122q51 39 126 39q84 0 135 -49q46 -44 46 -109q0 -81 -64 -116zM241 1272q-35 0 -55 -22q-15 -16 -15 -39q0 -28 22 -46
q20 -17 46 -17q33 0 54 23q17 18 17 39q0 26 -23 46q-19 16 -46 16zM238 1044q-36 0 -59 -24q-20 -20 -20 -48q0 -33 24 -53q22 -19 54 -19q36 0 58 24q20 21 20 48q0 30 -24 52q-23 20 -53 20z" />
    <glyph glyph-name="Macron" 
d="M311 1574v112h402v-112h-402z" />
    <glyph glyph-name="Ogonek" 
d="M733 0h177q-69 -53 -98 -85q-44 -50 -44 -97q0 -27 20 -45q30 -25 82 -25q30 0 74 12l18 -149q-76 -23 -143 -23q-110 0 -175 52q-65 51 -65 124q0 134 154 236z" />
    <glyph glyph-name="seven.numerator" horiz-adv-x="474" 
d="M261 1258h-191v105h367l-240 -557h-131z" />
    <glyph glyph-name="Cedilla" 
d="M413 -434l-125 95q105 53 152 113q34 43 50 103l247 -71q-49 -75 -114 -127q-80 -64 -210 -113z" />
    <glyph glyph-name="Hungarumlaut" 
d="M390 1757h237l-248 -269h-154zM751 1757h237l-247 -269h-155z" />
    <glyph glyph-name="six.numerator" horiz-adv-x="474" 
d="M397 1363l-152 -215q13 2 21 2q55 0 98 -29q73 -50 73 -138q0 -84 -67 -140q-59 -48 -138 -48q-93 0 -150 63q-46 49 -46 118q0 72 67 168l151 219h143zM238 1053q-38 0 -63 -26q-20 -21 -20 -49q0 -33 26 -55q21 -19 54 -19q41 0 65 28q18 21 18 46q0 32 -22 53
q-23 22 -58 22z" />
    <glyph glyph-name="Tilde" 
d="M711 1745l171 -14q-62 -231 -218 -231q-45 0 -150 39q-83 32 -108 32q-52 0 -65 -72l-171 11q17 80 39 118q37 64 96 94q40 21 81 21t171 -50q59 -24 77 -24q52 0 77 76z" />
    <glyph glyph-name="five.numerator" horiz-adv-x="474" 
d="M184 1258v-106q36 12 70 12q75 0 126 -49q53 -51 53 -128q0 -97 -73 -152q-53 -40 -130 -40q-138 0 -194 133l110 38q25 -61 81 -61q36 0 60 24q23 23 23 55q0 33 -23 55q-24 25 -61 25q-44 0 -76 -39h-81v338h317v-105h-202z" />
    <glyph glyph-name="four.numerator" horiz-adv-x="474" 
d="M259 918h-221v94l215 351h127v-344h54v-101h-54v-112h-121v112zM265 1015v206l-121 -206h121z" />
    <glyph glyph-name="Breve" 
d="M159 1750h181q25 -40 46 -59q46 -41 126 -41q79 0 126 41q21 19 46 59h181q-26 -85 -71 -136q-105 -119 -282 -119q-178 0 -282 119q-46 51 -71 136z" />
    <glyph glyph-name="three.numerator" horiz-adv-x="474" 
d="M227 1263h-167v100h380l-166 -206q53 -6 92 -36q63 -49 63 -134q0 -88 -66 -145q-55 -47 -139 -47q-109 0 -163 75q-24 34 -32 94l114 5q10 -69 78 -69q39 0 65 26q22 21 22 53q0 34 -22 56q-25 24 -65 24q-30 0 -56 -15l-71 55z" />
    <glyph glyph-name="two.numerator" horiz-adv-x="474" 
d="M241 909h165v-103h-379l215 301q53 74 53 106q0 25 -18 40q-19 16 -48 16q-47 0 -62 -36q-7 -18 -8 -56h-116q-1 63 22 106q49 91 172 91q91 0 144 -53q41 -40 41 -98q0 -71 -75 -171z" />
    <glyph glyph-name="one.numerator" horiz-adv-x="474" 
d="M217 1212l-108 -53v109l234 112v-574h-126v406z" />
    <glyph glyph-name="Caron" 
d="M510 1622l162 139h183l-231 -273h-237l-217 273h182z" />
    <glyph glyph-name="Circumflex" 
d="M515 1627l-163 -139h-182l231 273h237l217 -273h-182z" />
    <glyph glyph-name="Grave" 
d="M455 1760l193 -272h-179l-283 272h269z" />
    <glyph glyph-name="Acute" 
d="M570 1760h269l-284 -272h-178z" />
    <glyph glyph-name="Dbreve" horiz-adv-x="1312" 
d="M143 0v1365h387q231 0 370 -70q172 -86 261 -262q75 -147 75 -335q0 -236 -111 -414q-177 -284 -579 -284h-403zM423 1138v-907h54q152 0 238 41q119 57 183 180q54 104 54 237q0 149 -66 262q-61 104 -175 151q-85 36 -185 36h-103zM303 1750h182q24 -40 45 -59
q47 -41 127 -41q79 0 126 41q21 19 45 59h181q-25 -85 -71 -136q-104 -119 -282 -119q-177 0 -282 119q-45 51 -71 136z" />
    <glyph glyph-name="Ring" 
d="M514 1821q81 0 139 -60q49 -51 49 -129q0 -83 -64 -137q-55 -46 -126 -46q-84 0 -141 60q-49 51 -49 126q0 86 64 140q54 46 128 46zM513 1727q-45 0 -73 -33q-22 -26 -22 -59q0 -39 30 -67q25 -25 64 -25q44 0 72 32q22 27 22 58q0 40 -30 69q-25 25 -63 25z" />
    <glyph glyph-name="Dotaccent" 
d="M511 1781q61 0 102 -45q38 -41 38 -98q0 -62 -49 -105q-38 -34 -92 -34q-63 0 -103 45q-38 41 -38 96q0 64 49 107q38 34 93 34z" />
    <glyph glyph-name="Dieresis" 
d="M293 1781q61 0 102 -45q38 -41 38 -98q0 -62 -49 -105q-38 -34 -92 -34q-63 0 -103 45q-38 41 -38 96q0 64 49 107q38 34 93 34zM729 1781q61 0 102 -45q38 -41 38 -98q0 -62 -49 -105q-38 -34 -92 -34q-62 0 -103 45q-38 41 -38 96q0 64 49 107q38 34 93 34z" />
    <glyph glyph-name="ahungarumlaut" horiz-adv-x="1244" 
d="M854 827v120h261v-947h-261v130q-129 -163 -329 -163q-217 0 -349 161q-109 134 -109 334q0 150 69 278q58 109 165 173q108 66 243 66q112 0 200 -53q53 -32 110 -99zM598 759q-123 0 -192 -95q-61 -85 -61 -198q0 -135 83 -218q70 -71 168 -71q118 0 195 98
q67 86 67 199t-60 191q-73 94 -200 94zM498 1371h231l-234 -280h-140zM853 1371h231l-234 -280h-140z" />
    <glyph glyph-name="eight.denominator" horiz-adv-x="474" 
d="M358 293q79 -36 79 -129q0 -81 -62 -131q-55 -44 -139 -44q-98 0 -154 58q-44 44 -44 111q0 99 82 135q-64 33 -64 113q0 77 59 123q51 39 126 39q84 0 135 -49q46 -44 46 -109q0 -81 -64 -117zM241 467q-36 0 -55 -22q-15 -17 -15 -39q0 -29 22 -47q20 -17 46 -17
q32 0 54 24q17 18 17 39q0 25 -23 46q-19 16 -46 16zM238 238q-36 0 -59 -24q-20 -20 -20 -48q0 -32 24 -52q22 -19 54 -19q36 0 58 24q20 20 20 47q0 31 -24 52q-23 20 -53 20z" />
    <glyph glyph-name="nine.denominator" horiz-adv-x="474" 
d="M231 215q-8 -2 -15 -2q-66 0 -113 36q-67 50 -67 133q0 81 61 134q59 52 143 52q94 0 152 -63q45 -49 45 -120q0 -72 -65 -167l-149 -218h-142zM239 460q-37 0 -61 -25q-21 -20 -21 -48q0 -34 27 -56q21 -18 52 -18q41 0 65 27q17 19 17 46q0 32 -24 53q-23 21 -55 21z
" />
    <glyph glyph-name="zero.denominator" horiz-adv-x="474" 
d="M430 385v-213q0 -93 -51 -138q-52 -45 -141 -45q-96 0 -148 48q-29 27 -37 64q-9 38 -9 95v176q0 101 42 143q52 53 148 53q86 0 140 -44q56 -45 56 -139zM170 372v-188q0 -49 11 -64q19 -24 57 -24q39 0 56 26q12 18 12 63v192q0 82 -68 82q-40 0 -56 -25
q-12 -17 -12 -62z" />
    <glyph glyph-name="zerozero.afrac" horiz-adv-x="591" 
d="M591 738v-115h-591v115h591zM488 1190v-213q0 -93 -51 -138q-52 -45 -140 -45q-96 0 -148 48q-29 27 -37 64q-9 39 -9 96v175q0 102 42 144q52 53 148 53q85 0 139 -44q56 -46 56 -140zM229 1177v-187q0 -50 11 -65q19 -24 57 -24t55 26q12 18 12 64v192q0 82 -68 82
q-39 0 -55 -25q-12 -17 -12 -63zM488 385v-213q0 -93 -51 -138q-52 -45 -140 -45q-96 0 -148 48q-29 27 -37 64q-9 38 -9 95v176q0 101 42 143q52 53 148 53q85 0 139 -44q56 -45 56 -139zM229 372v-188q0 -49 11 -64q19 -24 57 -24t55 26q12 18 12 63v192q0 82 -68 82
q-39 0 -55 -25q-12 -17 -12 -62z" />
    <glyph glyph-name="periodsuperior" horiz-adv-x="347" 
d="M175 727q44 0 71 -30q26 -29 26 -70q0 -44 -33 -73q-26 -23 -65 -23q-45 0 -72 30q-26 29 -26 68q0 46 33 75q26 23 66 23z" />
    <glyph glyph-name="commasuperior" horiz-adv-x="347" 
d="M292 685l-115 -302l-117 27l75 314z" />
    <glyph glyph-name="commareversed" horiz-adv-x="347" 
d="M75 1166l162 426l175 -46l-115 -440z" />
    <glyph glyph-name="dieresis.alt" 
d="M333 1378q60 0 101 -45q35 -38 35 -95q0 -61 -46 -101q-39 -34 -91 -34q-62 0 -103 45q-35 37 -35 92q0 64 46 104q38 34 93 34zM692 1378q60 0 101 -45q35 -38 35 -95q0 -61 -46 -101q-39 -34 -91 -34q-62 0 -103 45q-35 38 -35 92q0 64 46 104q39 34 93 34z" />
    <glyph glyph-name="comma.high" horiz-adv-x="347" 
d="M278 1332l-162 -426l-175 46l115 440z" />
    <glyph glyph-name="seven.denominator" horiz-adv-x="474" 
d="M261 452h-191v105h367l-240 -557h-131z" />
    <glyph glyph-name="commaaccent" 
d="M622 -118v-116q0 -83 -21 -129q-33 -70 -140 -97q-27 -6 -76 -16v86q13 5 76 20q49 12 57 90h-120v162h224z" />
    <glyph glyph-name="six.denominator" horiz-adv-x="474" 
d="M397 557l-152 -215q13 2 21 2q55 0 98 -29q73 -50 73 -138q0 -84 -67 -140q-59 -48 -138 -48q-93 0 -150 62q-46 50 -46 119q0 72 67 168l151 219h143zM238 247q-38 0 -63 -26q-20 -20 -20 -49q0 -33 26 -55q21 -19 54 -19q41 0 65 28q18 21 18 46q0 32 -22 53
q-23 22 -58 22z" />
    <glyph glyph-name="five.denominator" horiz-adv-x="474" 
d="M184 452v-106q35 12 70 12q75 0 126 -49q53 -51 53 -128q0 -97 -73 -152q-54 -40 -130 -40q-138 0 -194 133l110 38q24 -62 81 -62q36 0 60 24q23 23 23 56q0 32 -23 55q-24 25 -61 25q-44 0 -76 -39h-81v338h317v-105h-202z" />
    <glyph glyph-name="oneone" horiz-adv-x="1613" 
d="M311 1138l-155 -77v159l335 164v-840h-180v594zM1298 1334l-901 -1361l-82 53l900 1360zM1247 595l-155 -77v158l335 165v-841h-180v595z" />
    <glyph glyph-name="four.denominator" horiz-adv-x="474" 
d="M259 113h-221v94l215 350h127v-343h54v-101h-54v-113h-121v113zM265 210v205l-121 -205h121z" />
    <glyph glyph-name="three.denominator" horiz-adv-x="474" 
d="M227 457h-167v100h380l-166 -206q53 -6 92 -36q63 -49 63 -134q0 -88 -66 -145q-56 -47 -139 -47q-109 0 -163 75q-24 34 -32 95l114 4q11 -69 78 -69q39 0 65 26q22 21 22 53q0 34 -22 56q-25 24 -65 24q-30 0 -56 -15l-71 55z" />
    <glyph glyph-name="Dieresis.alt" 
d="M330 1781q61 0 102 -45q38 -41 38 -98q0 -62 -49 -105q-38 -34 -92 -34q-63 0 -103 45q-38 41 -38 96q0 64 49 107q38 34 93 34zM691 1781q61 0 102 -45q38 -41 38 -98q0 -62 -49 -105q-38 -34 -92 -34q-63 0 -103 45q-38 41 -38 96q0 64 49 107q38 34 93 34z" />
  </font>
</defs>
</svg>
