<svg width="11" height="13" viewBox="0 0 11 13" fill="none" xmlns="http://www.w3.org/2000/svg">
<path d="M2.75 7.9265C2.60792 7.9265 2.48417 7.87183 2.37875 7.76249C2.27333 7.65315 2.22062 7.5248 2.22062 7.37743C2.22062 7.23007 2.27333 7.10195 2.37875 6.99309C2.48417 6.88375 2.60792 6.82908 2.75 6.82908C2.89208 6.82908 3.01583 6.88375 3.12125 6.99309C3.22667 7.10243 3.27938 7.23078 3.27938 7.37815C3.27938 7.52504 3.22667 7.65315 3.12125 7.76249C3.01583 7.87183 2.89208 7.9265 2.75 7.9265ZM5.5 7.9265C5.35792 7.9265 5.23417 7.87183 5.12875 7.76249C5.02333 7.65315 4.97062 7.5248 4.97062 7.37743C4.97062 7.23007 5.02333 7.10195 5.12875 6.99309C5.23417 6.88375 5.35792 6.82908 5.5 6.82908C5.64208 6.82908 5.76583 6.88375 5.87125 6.99309C5.97667 7.10243 6.02938 7.23078 6.02938 7.37815C6.02938 7.52504 5.97667 7.65315 5.87125 7.76249C5.76583 7.87183 5.64208 7.9265 5.5 7.9265ZM8.25 7.9265C8.10792 7.9265 7.98417 7.87183 7.87875 7.76249C7.77333 7.65315 7.72062 7.5248 7.72062 7.37743C7.72062 7.23007 7.77333 7.10195 7.87875 6.99309C7.98417 6.88375 8.10792 6.82908 8.25 6.82908C8.39208 6.82908 8.51583 6.88375 8.62125 6.99309C8.72667 7.10243 8.77938 7.23078 8.77938 7.37815C8.77938 7.52504 8.72667 7.65315 8.62125 7.76249C8.51583 7.87183 8.39208 7.9265 8.25 7.9265ZM1.11031 13C0.794062 13 0.530062 12.8902 0.318312 12.6706C0.106104 12.4505 0 12.1764 0 11.8484V2.74247C0 2.41446 0.106104 2.14064 0.318312 1.92101C0.530062 1.70091 0.794062 1.59086 1.11031 1.59086H2.32719V0.384345C2.32719 0.273582 2.36225 0.181833 2.43237 0.1091C2.50204 0.0363665 2.59027 0 2.69706 0C2.80385 0 2.89231 0.0363665 2.96244 0.1091C3.03256 0.181833 3.06763 0.273582 3.06763 0.384345V1.59086H7.98531V0.357249C7.98531 0.255517 8.01831 0.170662 8.08431 0.102682C8.15031 0.0347028 8.2319 0.000475381 8.32906 0C8.42715 0 8.50896 0.0339896 8.5745 0.101969C8.64004 0.169949 8.67281 0.254804 8.67281 0.356536V1.59086H9.88969C10.2059 1.59086 10.4699 1.70091 10.6817 1.92101C10.8939 2.14064 11 2.41446 11 2.74247V11.8484C11 12.1764 10.8941 12.4502 10.6824 12.6698C10.4702 12.89 10.2059 13 9.88969 13H1.11031ZM1.11031 12.2869H9.88969C9.9951 12.2869 10.092 12.2413 10.1805 12.15C10.2685 12.0583 10.3125 11.9577 10.3125 11.8484V5.59476H0.6875V11.8484C0.6875 11.9577 0.7315 12.0583 0.8195 12.15C0.907958 12.2413 1.0049 12.2869 1.11031 12.2869ZM0.6875 4.88168H10.3125V2.74247C10.3125 2.63313 10.2685 2.53259 10.1805 2.44084C10.092 2.34957 9.9951 2.30393 9.88969 2.30393H1.11031C1.0049 2.30393 0.907958 2.34957 0.8195 2.44084C0.7315 2.53259 0.6875 2.63313 0.6875 2.74247V4.88168Z" fill="#EA6A12"/>
</svg>
