<svg width="12" height="17" viewBox="0 0 12 17" fill="none" xmlns="http://www.w3.org/2000/svg">
<path d="M6.38132 0.772915C5.2338 1.53708 4.41565 2.4548 3.82064 3.6439C3.58688 4.11883 3.41334 4.6616 3.29646 5.30436C3.23979 5.61145 3.22917 5.83642 3.23271 6.94696C3.23625 8.20748 3.23979 8.23962 3.33188 8.61813C3.42396 9.00736 3.44876 9.28588 3.39563 9.28588C3.33542 9.28588 2.96708 8.86452 2.80416 8.61099C2.59165 8.2789 2.48894 8.05393 2.36144 7.62186C2.20914 7.10408 2.14185 6.65415 2.13831 6.08638C2.13477 5.765 2.11706 5.58646 2.09581 5.59717C2.0781 5.60431 1.97893 5.71144 1.87622 5.83285C1.21745 6.63272 0.686192 7.75041 0.441812 8.85738C0.363893 9.2109 0.360352 9.30374 0.360352 10.4286C0.360352 11.7641 0.367435 11.8176 0.625983 12.5961C0.927031 13.4995 1.46184 14.3208 2.2056 15.0314C2.9777 15.767 3.72147 16.167 4.92921 16.5026C5.32942 16.6133 6.5832 16.6419 7.0578 16.5526C7.80156 16.4134 8.75783 16.0134 9.34931 15.5956C10.6066 14.71 11.485 13.4281 11.7719 12.0712C11.825 11.8105 11.8356 11.5891 11.8356 10.5357C11.8356 9.31088 11.8356 9.30017 11.74 8.9645C11.3398 7.52544 10.5854 6.48275 9.11201 5.34007C8.26199 4.67945 7.94677 4.41164 7.60322 4.05098C7.08259 3.50107 6.79571 3.00471 6.63987 2.38338C6.51591 1.89417 6.5832 1.17999 6.80633 0.597942C6.84883 0.487246 6.74612 0.530096 6.38132 0.772915ZM8.09199 6.79341C8.517 7.00052 8.78617 7.19335 9.12263 7.52901C9.92661 8.32889 10.4366 9.49299 10.4366 10.5321C10.4366 10.9606 10.3941 11.2356 10.256 11.7141C9.94786 12.7711 9.20055 13.7209 8.26907 14.2423C7.86531 14.4672 7.64218 14.5458 7.07196 14.6672C6.12632 14.8707 5.29755 14.76 4.42982 14.3208C4.01189 14.1066 3.61168 13.8316 3.3425 13.5781C3.27167 13.5067 3.21146 13.4388 3.21146 13.4245C3.21146 13.4102 3.27875 13.3888 3.36375 13.3745C3.76397 13.3067 4.44044 13.0353 4.84066 12.7818C5.66235 12.264 6.27153 11.5355 6.57966 10.6964C6.71779 10.3107 6.75675 10.25 6.79216 10.3464C6.83112 10.4428 6.82758 10.8999 6.78862 11.2534C6.75675 11.5427 6.7107 11.7426 6.48757 12.5497C6.44153 12.7282 6.40611 12.8746 6.4132 12.8818C6.43445 12.9032 6.88425 12.5354 7.12509 12.2997C8.10969 11.3249 8.59137 9.87151 8.3647 8.57171C8.28678 8.12892 8.1947 7.87539 7.86531 7.21478C7.70239 6.88983 7.56781 6.61487 7.56781 6.60058C7.56781 6.55773 7.73073 6.61487 8.09199 6.79341Z" fill="url(#paint0_linear_521_395)"/>
<defs>
<linearGradient id="paint0_linear_521_395" x1="6.09798" y1="16.6055" x2="6.09798" y2="0.540104" gradientUnits="userSpaceOnUse">
<stop stop-color="#FF0000"/>
<stop offset="1" stop-color="#F97C22"/>
</linearGradient>
</defs>
</svg>
