<svg width="36" height="36" viewBox="0 0 36 36" fill="none" xmlns="http://www.w3.org/2000/svg">
<g clip-path="url(#clip0_57_2)">
<path d="M18 36C27.9411 36 36 27.9411 36 18C36 8.05887 27.9411 0 18 0C8.05887 0 0 8.05887 0 18C0 27.9411 8.05887 36 18 36Z" fill="#EA6A12"/>
<path d="M12.3621 29C11.7879 29 11.298 28.7905 10.8926 28.3715C10.488 27.9524 10.2857 27.4451 10.2857 26.8494V10.357H9V9.02536H14.1429V8H21.8571V9.02536H27V10.357H25.7143V26.8494C25.7143 27.462 25.5163 27.9733 25.1203 28.3834C24.7234 28.7945 24.2293 29 23.6379 29H12.3621ZM24.4286 10.357H11.5714V26.8494C11.5714 27.0882 11.6456 27.2844 11.7939 27.438C11.9421 27.5916 12.1316 27.6684 12.3621 27.6684H23.6379C23.835 27.6684 24.0163 27.5831 24.1817 27.4127C24.3463 27.2413 24.4286 27.0536 24.4286 26.8494V10.357ZM15.1817 25.0051H16.4674V13.0203H15.1817V25.0051ZM19.5326 25.0051H20.8183V13.0203H19.5326V25.0051Z" fill="white"/>
</g>
<defs>
<clipPath id="clip0_57_2">
<rect width="36" height="36" fill="white"/>
</clipPath>
</defs>
</svg>
