<svg width="10" height="9" viewBox="0 0 10 9" fill="none" xmlns="http://www.w3.org/2000/svg">
<g clip-path="url(#clip0_1_5035)">
<path d="M8.75514 2.39667C8.41954 2.06172 7.91997 2.33121 7.59709 2.5346C6.9507 2.94201 6.28015 3.51785 5.86002 4.16171C5.72846 4.36382 5.54477 4.24624 5.30515 4.12929C4.87041 3.91701 4.29965 3.80959 3.6666 3.85599C3.05834 3.89984 2.39924 4.14391 2.00962 4.47823C1.77509 4.67844 1.4789 4.93204 1.3003 5.2581C1.03145 5.75005 0.84649 6.2242 1.09501 7.00407C1.1039 7.03203 1.31428 7.55639 1.55327 7.8316C1.60666 7.89326 1.78971 8.06042 1.93462 8.13414C2.29818 8.31783 2.8969 8.66931 4.09944 8.43859C5.37062 8.19452 5.9096 7.47949 6.17973 6.87631C6.37422 6.44157 6.33163 5.92293 6.33163 5.92293L6.22422 5.09666C6.22612 5.08013 6.22612 5.06361 6.22994 5.04772C6.27189 4.86022 6.42888 4.67971 6.56299 4.54878C7.09625 4.0276 7.70196 3.77336 8.36171 3.43777C8.59751 3.31764 8.91149 3.24646 9.03225 2.98904C9.14285 2.7526 8.90132 2.5435 8.75514 2.39667Z" fill="#ED6C30"/>
<path d="M1.50915 6.94175C1.30894 6.63285 1.26763 6.05447 1.50661 5.52121C2.11487 4.44198 3.30342 4.02058 4.15638 4.10956C4.52693 4.14833 4.93879 4.24049 5.24197 4.43371C5.62905 4.68096 5.79811 5.07884 5.81464 5.34261C5.85404 5.98265 5.74345 6.37735 5.39197 6.7962C5.05066 7.20298 4.51549 7.62946 3.67651 7.71654C2.5458 7.83603 1.87271 7.50361 1.50915 6.94175Z" fill="#2F2F2F"/>
<path d="M3.98944 7.24187C3.75491 7.29462 3.5566 7.23805 3.33542 7.1586C3.10597 7.07534 2.86127 7.15352 2.62737 7.09759C2.40555 7.04483 2.19898 6.89611 2.08013 6.70034C1.68924 6.05586 2.33246 5.29315 2.90767 5.03637C3.32779 4.84951 3.82673 4.77387 4.26211 4.82281C4.47567 4.84696 4.77439 5.03001 4.92757 5.17429C5.05024 5.28933 5.15766 5.49145 5.19071 5.65543C5.3299 6.35013 4.63139 7.09695 3.98944 7.24187Z" fill="white"/>
<path d="M4.12051 5.49964C4.05504 5.42718 3.97241 5.3757 3.88407 5.34265C3.76585 5.29815 3.63492 5.28608 3.5078 5.3026C3.31394 5.32866 3.122 5.42273 3.00695 5.59561C2.93276 5.70781 2.90119 5.84287 2.91797 5.97633C2.93704 6.12251 3.01649 6.26171 3.15314 6.34751C3.28153 6.42633 3.44233 6.44031 3.60314 6.41997C3.76648 6.39773 3.93174 6.33734 4.06076 6.23692C4.12496 6.18607 4.18025 6.12442 4.21712 6.05006C4.25462 5.97569 4.27114 5.88925 4.2597 5.799L4.25525 5.77167C4.23491 5.66425 4.18661 5.57146 4.12051 5.49964Z" fill="#FCC21B"/>
</g>
<defs>
<clipPath id="clip0_1_5035">
<rect width="8.13555" height="8.13555" fill="white" transform="translate(0.95166 0.853577)"/>
</clipPath>
</defs>
</svg>
