<svg width="15" height="15" viewBox="0 0 15 15" fill="none" xmlns="http://www.w3.org/2000/svg">
<path id="Vector" d="M13.7174 0.75H4.67391C4.53266 0.75 4.39719 0.806114 4.2973 0.905998C4.19742 1.00588 4.1413 1.14135 4.1413 1.28261V4.1413H1.28261C1.14135 4.1413 1.00588 4.19742 0.905998 4.2973C0.806114 4.39719 0.75 4.53266 0.75 4.67391V13.7174C0.75 13.8586 0.806114 13.9941 0.905998 14.094C1.00588 14.1939 1.14135 14.25 1.28261 14.25H10.3261C10.4673 14.25 10.6028 14.1939 10.7027 14.094C10.8026 13.9941 10.8587 13.8586 10.8587 13.7174V10.8587H13.7174C13.8586 10.8587 13.9941 10.8026 14.094 10.7027C14.1939 10.6028 14.25 10.4673 14.25 10.3261V1.28261C14.25 1.14135 14.1939 1.00588 14.094 0.905998C13.9941 0.806114 13.8586 0.75 13.7174 0.75ZM9.79348 13.1848H1.81522V5.20652H9.79348V13.1848ZM13.1848 9.79348H10.8587V4.67391C10.8587 4.53266 10.8026 4.39719 10.7027 4.2973C10.6028 4.19742 10.4673 4.1413 10.3261 4.1413H5.20652V1.81522H13.1848V9.79348Z" fill="#0067FF" stroke="#0067FF" stroke-width="0.5"/>
</svg>
