<svg width="6" height="7" viewBox="0 0 6 7" fill="none" xmlns="http://www.w3.org/2000/svg">
<path d="M1.12071 7C0.929286 7 0.766 6.93016 0.630857 6.79049C0.496 6.65081 0.428571 6.4817 0.428571 6.28313V0.785669H0V0.341788H1.71429V0H4.28571V0.341788H6V0.785669H5.57143V6.28313C5.57143 6.48732 5.50543 6.65777 5.37343 6.79448C5.24114 6.93149 5.07643 7 4.87929 7H1.12071ZM5.14286 0.785669H0.857143V6.28313C0.857143 6.36274 0.881857 6.42813 0.931286 6.47933C0.980714 6.53052 1.04386 6.55612 1.12071 6.55612H4.87929C4.945 6.55612 5.00543 6.52771 5.06057 6.47089C5.11543 6.41378 5.14286 6.35119 5.14286 6.28313V0.785669ZM2.06057 5.66836H2.48914V1.67343H2.06057V5.66836ZM3.51086 5.66836H3.93943V1.67343H3.51086V5.66836Z" fill="#E52614"/>
</svg>
