<svg width="3" height="11" viewBox="0 0 3 11" fill="none" xmlns="http://www.w3.org/2000/svg">
<path d="M1.5 3C1.79667 3 2.08668 2.91203 2.33335 2.7472C2.58003 2.58238 2.77229 2.34811 2.88582 2.07403C2.99935 1.79994 3.02906 1.49834 2.97118 1.20737C2.9133 0.916394 2.77044 0.649119 2.56066 0.43934C2.35088 0.229562 2.08361 0.0867006 1.79263 0.0288227C1.50166 -0.0290551 1.20006 0.000649926 0.925975 0.114181C0.651886 0.227713 0.417617 0.419972 0.252795 0.666645C0.0879731 0.913319 0 1.20333 0 1.5C0 1.89783 0.158035 2.27936 0.43934 2.56066C0.720644 2.84196 1.10218 3 1.5 3Z" fill="black"/>
<path d="M1.5 7C1.79667 7 2.08668 6.91203 2.33335 6.7472C2.58003 6.58238 2.77229 6.34811 2.88582 6.07403C2.99935 5.79994 3.02906 5.49834 2.97118 5.20737C2.9133 4.91639 2.77044 4.64912 2.56066 4.43934C2.35088 4.22956 2.08361 4.0867 1.79263 4.02882C1.50166 3.97094 1.20006 4.00065 0.925975 4.11418C0.651886 4.22771 0.417617 4.41997 0.252795 4.66665C0.0879731 4.91332 0 5.20333 0 5.5C0 5.89783 0.158035 6.27936 0.43934 6.56066C0.720644 6.84196 1.10218 7 1.5 7Z" fill="black"/>
<path d="M1.5 11C1.79667 11 2.08668 10.912 2.33335 10.7472C2.58003 10.5824 2.77229 10.3481 2.88582 10.074C2.99935 9.79994 3.02906 9.49834 2.97118 9.20737C2.9133 8.91639 2.77044 8.64912 2.56066 8.43934C2.35088 8.22956 2.08361 8.0867 1.79263 8.02882C1.50166 7.97094 1.20006 8.00065 0.925975 8.11418C0.651886 8.22771 0.417617 8.41997 0.252795 8.66665C0.0879731 8.91332 0 9.20333 0 9.5C0 9.89783 0.158035 10.2794 0.43934 10.5607C0.720644 10.842 1.10218 11 1.5 11Z" fill="black"/>
</svg>
