<svg width="11" height="11" viewBox="0 0 11 11" fill="none" xmlns="http://www.w3.org/2000/svg">
<path d="M2.56109 3.08154H2.04073C1.76471 3.08154 1.5 3.19119 1.30482 3.38636C1.10965 3.58154 1 3.84625 1 4.12227V8.80554C1 9.08156 1.10965 9.34627 1.30482 9.54145C1.5 9.73662 1.76471 9.84627 2.04073 9.84627H6.724C7.00002 9.84627 7.26473 9.73662 7.4599 9.54145C7.65508 9.34627 7.76472 9.08156 7.76472 8.80554V8.28518" stroke="#000"  stroke-width="0.5" stroke-linecap="round" stroke-linejoin="round"/>
<path d="M7.24435 2.04078L8.80544 3.60187M9.52614 2.86556C9.73109 2.66062 9.84622 2.38265 9.84622 2.09282C9.84622 1.80299 9.73109 1.52502 9.52614 1.32008C9.3212 1.11514 9.04324 1 8.7534 1C8.46357 1 8.18561 1.11514 7.98067 1.32008L3.60181 5.68333V7.24442H5.1629L9.52614 2.86556Z" stroke="#000" stroke-width="0.5" stroke-linecap="round" stroke-linejoin="round"/>
</svg>
