<svg width="21" height="22" viewBox="0 0 21 22" fill="none" xmlns="http://www.w3.org/2000/svg">
<path d="M10.5 11.8408C9.57174 11.8408 8.6815 12.2096 8.02513 12.8659C7.36875 13.5223 7 14.4126 7 15.3408C7 16.2691 7.36875 17.1593 8.02513 17.8157C8.6815 18.4721 9.57174 18.8408 10.5 18.8408C11.4283 18.8408 12.3185 18.4721 12.9749 17.8157C13.6313 17.1593 14 16.2691 14 15.3408C14 14.4126 13.6313 13.5223 12.9749 12.8659C12.3185 12.2096 11.4283 11.8408 10.5 11.8408ZM9 15.3408C9 14.943 9.15804 14.5615 9.43934 14.2802C9.72064 13.9989 10.1022 13.8408 10.5 13.8408C10.8978 13.8408 11.2794 13.9989 11.5607 14.2802C11.842 14.5615 12 14.943 12 15.3408C12 15.7386 11.842 16.1202 11.5607 16.4015C11.2794 16.6828 10.8978 16.8408 10.5 16.8408C10.1022 16.8408 9.72064 16.6828 9.43934 16.4015C9.15804 16.1202 9 15.7386 9 15.3408Z" fill="#F2A671"/>
<path d="M16.026 4.457L12.847 0L1.158 9.338L0.51 9.331V9.341H0V21.341H21V9.341H20.038L18.124 3.742L16.026 4.457ZM17.925 9.341H7.897L15.366 6.795L16.888 6.308L17.925 9.341ZM14.05 5.131L6.34 7.759L12.446 2.881L14.05 5.131ZM2 17.51V13.17C2.4219 13.0205 2.80511 12.7787 3.1217 12.4623C3.43828 12.1459 3.68027 11.7628 3.83 11.341H17.17C17.3197 11.763 17.5616 12.1462 17.8782 12.4628C18.1948 12.7794 18.578 13.0213 19 13.171V17.511C18.578 17.6607 18.1948 17.9026 17.8782 18.2192C17.5616 18.5358 17.3197 18.919 17.17 19.341H3.832C3.68218 18.9187 3.43996 18.5351 3.12302 18.2184C2.80607 17.9016 2.4224 17.6596 2 17.51Z" fill="white"/>
</svg>
