<svg width="20" height="20" viewBox="0 0 20 20" fill="none" xmlns="http://www.w3.org/2000/svg">
<path fill-rule="evenodd" clip-rule="evenodd" d="M17.1429 2.14286H2.85714C2.6677 2.14286 2.48602 2.21811 2.35207 2.35207C2.21811 2.48602 2.14286 2.6677 2.14286 2.85714V17.1429C2.14286 17.3323 2.21811 17.514 2.35207 17.6479C2.48602 17.7819 2.6677 17.8571 2.85714 17.8571H17.1429C17.3323 17.8571 17.514 17.7819 17.6479 17.6479C17.7819 17.514 17.8571 17.3323 17.8571 17.1429V2.85714C17.8571 2.6677 17.7819 2.48602 17.6479 2.35207C17.514 2.21811 17.3323 2.14286 17.1429 2.14286ZM2.85714 0C2.09938 0 1.37266 0.30102 0.836838 0.836838C0.30102 1.37266 0 2.09938 0 2.85714V17.1429C0 17.9006 0.30102 18.6273 0.836838 19.1632C1.37266 19.699 2.09938 20 2.85714 20H17.1429C17.9006 20 18.6273 19.699 19.1632 19.1632C19.699 18.6273 20 17.9006 20 17.1429V2.85714C20 2.09938 19.699 1.37266 19.1632 0.836838C18.6273 0.30102 17.9006 0 17.1429 0H2.85714Z" fill="white"/>
<path d="M12.1423 10.0001L15.7137 14.0815V15.7144H4.28516V14.0001L6.42801 11.4286L8.60516 14.0429L12.1423 10.0001Z" fill="#F2A671"/>
<path d="M9.37181 9.37244C8.96995 9.77431 8.42491 10.0001 7.85659 10.0001C7.28826 10.0001 6.74322 9.77431 6.34136 9.37244C5.93949 8.97058 5.71373 8.42553 5.71373 7.85721C5.71373 7.28889 5.93949 6.74385 6.34136 6.34198C6.74322 5.94012 7.28826 5.71436 7.85659 5.71436C8.42491 5.71436 8.96995 5.94012 9.37181 6.34198C9.77368 6.74385 9.99944 7.28889 9.99944 7.85721C9.99944 8.42553 9.77368 8.97058 9.37181 9.37244Z" fill="#F2A671"/>
</svg>
