<svg width="17" height="17" viewBox="0 0 17 17" fill="none" xmlns="http://www.w3.org/2000/svg">
<path opacity="0.4" d="M11.8038 0.766602H14.4884C15.6003 0.766602 16.5012 1.67512 16.5012 2.79635V5.50368C16.5012 6.62491 15.6003 7.53343 14.4884 7.53343H11.8038C10.6919 7.53343 9.79102 6.62491 9.79102 5.50368V2.79635C9.79102 1.67512 10.6919 0.766602 11.8038 0.766602" fill="#DEDEDE"/>
<path fill-rule="evenodd" clip-rule="evenodd" d="M2.65828 0.766602H5.34295C6.45478 0.766602 7.3557 1.67512 7.3557 2.79635V5.50368C7.3557 6.62491 6.45478 7.53343 5.34295 7.53343H2.65828C1.54645 7.53343 0.645538 6.62491 0.645538 5.50368V2.79635C0.645538 1.67512 1.54645 0.766602 2.65828 0.766602ZM2.65825 9.85733H5.34292C6.45475 9.85733 7.35567 10.7659 7.35567 11.8871V14.5944C7.35567 15.7149 6.45475 16.6242 5.34292 16.6242H2.65825C1.54642 16.6242 0.645508 15.7149 0.645508 14.5944V11.8871C0.645508 10.7659 1.54642 9.85733 2.65825 9.85733ZM14.4889 9.85675H11.8043C10.6924 9.85675 9.7915 10.7653 9.7915 11.8865V14.5938C9.7915 15.7143 10.6924 16.6236 11.8043 16.6236H14.4889C15.6007 16.6236 16.5017 15.7143 16.5017 14.5938V11.8865C16.5017 10.7653 15.6007 9.85675 14.4889 9.85675Z" fill="#DADADA"/>
</svg>
