<svg width="21" height="28" viewBox="0 0 21 28" fill="none" xmlns="http://www.w3.org/2000/svg">
<path d="M9.3313 0.131933C9.05402 0.203039 8.62212 0.35072 8.3715 0.460114C8.12089 0.569508 7.74764 0.771886 7.54502 0.914098C7.3424 1.05084 6.96381 1.37355 6.7132 1.63063C6.46259 1.8877 6.14266 2.28699 5.99869 2.51125C5.85472 2.7355 5.65743 3.11838 5.55612 3.35905C5.46014 3.59972 5.32684 4.00447 5.26285 4.26155C5.1722 4.62802 5.15088 4.89056 5.15088 5.51958C5.15088 6.14859 5.1722 6.41114 5.26285 6.77761C5.32684 7.03468 5.46014 7.43944 5.55612 7.6801C5.65743 7.92077 5.85472 8.30365 5.99869 8.52791C6.14266 8.75216 6.43593 9.1241 6.64388 9.34836C6.85184 9.57262 7.22509 9.9008 7.47037 10.0704C7.71565 10.2399 8.0889 10.4587 8.29152 10.5572C8.49414 10.6501 8.89406 10.7869 9.17133 10.8635C9.50726 10.951 9.89117 11.0057 10.3177 11.0276C10.8456 11.0494 11.0536 11.033 11.5175 10.9346C11.8267 10.8689 12.2587 10.7431 12.4773 10.6556C12.6959 10.5736 13.0798 10.3712 13.3304 10.218C13.6237 10.0321 13.965 9.74765 14.2955 9.40853C14.6048 9.09128 14.9087 8.71388 15.0687 8.44586C15.2127 8.20519 15.4046 7.81138 15.5006 7.57071C15.5913 7.33004 15.7192 6.87606 15.7832 6.55882C15.8792 6.08295 15.8952 5.87511 15.8739 5.32814C15.8525 4.96167 15.7939 4.48034 15.7352 4.2342C15.6766 3.99353 15.5486 3.59972 15.4526 3.35905C15.3513 3.11838 15.154 2.7355 15.0101 2.51125C14.8661 2.28699 14.5462 1.8877 14.2955 1.63063C14.0449 1.37355 13.6557 1.04537 13.4371 0.897689C13.2184 0.750008 12.8452 0.547629 12.6106 0.443705C12.376 0.345251 11.9387 0.203039 11.6348 0.126463C11.2082 0.022539 10.9523 -0.0048094 10.467 0.000660291C10.0031 0.00612998 9.70455 0.0389481 9.3313 0.131933ZM5.19886 13.3741C4.76163 13.4452 4.08977 13.5655 3.70586 13.6421C3.27928 13.7296 2.86871 13.8554 2.63942 13.9648C2.4368 14.0578 2.14886 14.2219 1.99956 14.3258C1.85559 14.4297 1.62631 14.6102 1.49834 14.736C1.37037 14.8563 1.16241 15.0915 1.03977 15.2556C0.917133 15.4197 0.725175 15.7151 0.623864 15.912C0.51722 16.1089 0.36792 16.4535 0.293269 16.6777C0.218619 16.902 0.12264 17.2849 0.0799825 17.5255C0.0106643 17.892 0 18.6578 0 22.0927C0 25.9762 0.00533213 26.2388 0.095979 26.5232C0.154633 26.6873 0.255944 26.9225 0.330594 27.0428C0.405245 27.1631 0.581206 27.3655 0.725175 27.4968C0.869143 27.6281 1.09309 27.7703 1.2264 27.8195C1.3597 27.8687 1.49301 27.9289 1.51967 27.9562C1.54633 27.9836 5.59345 28 10.5097 28C15.4206 28 19.4624 27.9781 19.4944 27.9562C19.5211 27.9289 19.649 27.8687 19.7823 27.8195C19.9157 27.7703 20.1449 27.6226 20.2889 27.4913C20.4382 27.36 20.6195 27.1467 20.6941 27.01C20.7741 26.8787 20.8754 26.6326 20.9234 26.4685C21.0034 26.2005 21.0087 25.6973 20.9928 21.8739C20.9821 17.5857 20.9821 17.5802 20.8594 17.1427C20.7901 16.902 20.6302 16.4808 20.5022 16.2128C20.3742 15.9448 20.1343 15.551 19.969 15.3377C19.809 15.1244 19.5211 14.8235 19.3398 14.6649C19.1585 14.5063 18.8652 14.2875 18.6893 14.1781C18.5133 14.0742 18.2307 13.9265 18.0654 13.8554C17.8948 13.7843 17.4362 13.6639 17.0523 13.5928C16.663 13.5163 15.9698 13.4014 15.5113 13.3303C14.8181 13.2264 14.6528 13.2154 14.5355 13.2756C14.4555 13.3139 14.3542 13.4397 14.2955 13.5764C14.2369 13.7022 13.4957 15.7643 12.6479 18.1546C11.8001 20.5448 11.0642 22.585 11.0163 22.6835C10.9683 22.7764 10.8776 22.8968 10.8136 22.9405C10.7443 22.9843 10.6057 23.0226 10.5044 23.0226C10.4031 23.0226 10.2644 22.9843 10.2004 22.9405C10.1311 22.8968 10.0458 22.7929 10.0031 22.7108C9.96049 22.6233 9.21399 20.5503 8.34484 18.0999C7.4757 15.6494 6.7292 13.5764 6.68654 13.4889C6.64388 13.4069 6.5639 13.3194 6.50525 13.2865C6.44659 13.2537 6.30796 13.2318 6.20131 13.2373C6.08934 13.2373 5.64143 13.3029 5.19886 13.3741Z" fill="#DADADA"/>
<path d="M9.46177 13.0209C9.41509 13.0388 9.30423 13.1226 9.21087 13.2124C9.12334 13.2962 9.03582 13.4459 9.01831 13.5476C8.99497 13.6494 8.99497 13.793 9.01248 13.8768C9.02998 13.9606 9.24004 14.3377 9.47928 14.7149L9.9169 15.4032L9.52012 18.7553C10.1328 20.4254 10.3545 20.9222 10.4129 20.9641C10.4829 21.012 10.5412 21.012 10.6171 20.9641C10.6696 20.9222 10.8914 20.4254 11.1072 19.8268L11.504 18.7553L11.1072 15.4032C11.965 14.0804 12 14.0025 12 13.7152C12 13.4399 11.9767 13.374 11.8074 13.2064L11.6207 13.0089C10.0161 12.9909 9.50845 13.0029 9.46177 13.0209Z" fill="#4D4D4D"/>
</svg>
