<svg width="21" height="23" viewBox="0 0 21 23" fill="none" xmlns="http://www.w3.org/2000/svg">
<path d="M2.3112 1.32353H0.675C0.495979 1.32353 0.32429 1.25381 0.197703 1.1297C0.071116 1.0056 0 0.837276 0 0.661765C0 0.486254 0.071116 0.317931 0.197703 0.193826C0.32429 0.0697214 0.495979 0 0.675 0H2.83905C2.98962 4.07799e-05 3.13585 0.0494347 3.25449 0.140327C3.37313 0.231219 3.45736 0.35839 3.4938 0.501618L6.05475 10.5604C6.09346 10.7291 6.06332 10.9059 5.97079 11.053C5.87826 11.2002 5.73068 11.306 5.55961 11.3478C5.38854 11.3896 5.20756 11.3642 5.05537 11.2769C4.90319 11.1896 4.79188 11.0474 4.74525 10.8807L2.3112 1.32353Z" fill="#B7B7B9"/>
<path fill-rule="evenodd" clip-rule="evenodd" d="M18.2182 7.94116H7.43175C7.22925 7.94116 7.02675 7.96366 6.8283 8.00734C6.1261 8.16861 5.51765 8.59602 5.13612 9.19605C4.75458 9.79607 4.63103 10.5198 4.7925 11.209L5.84955 15.7897C5.98383 16.3787 6.31858 16.9053 6.79875 17.283C7.27892 17.6606 7.87591 17.8668 8.4915 17.8676H17.1612C17.7764 17.8661 18.3729 17.6596 18.8526 17.282C19.3324 16.9044 19.6671 16.3782 19.8018 15.7897L20.8588 11.2076C20.9515 10.8175 20.9531 10.4118 20.8636 10.021C20.7741 9.63008 20.5958 9.26403 20.342 8.95008C20.0882 8.63612 19.7655 8.38235 19.3978 8.20767C19.03 8.03299 18.6269 7.94189 18.2182 7.94116ZM7.13205 9.29778C7.2308 9.27562 7.33179 9.26452 7.4331 9.26469H18.2182C18.4241 9.26581 18.627 9.31245 18.8118 9.40115C18.9967 9.48985 19.1588 9.61831 19.2859 9.77696C19.4131 9.93561 19.5021 10.1204 19.5463 10.3174C19.5905 10.5145 19.5888 10.7188 19.5412 10.9151L18.4828 15.4972C18.4161 15.7929 18.2488 16.0576 18.0084 16.2479C17.768 16.4381 17.4688 16.5426 17.1598 16.5441H8.4915C7.8597 16.5441 7.31025 16.11 7.1685 15.4972L6.11145 10.9151C6.02952 10.5679 6.09099 10.203 6.28244 9.89997C6.47389 9.59698 6.77843 9.38051 7.13205 9.29778Z" fill="#B7B7B9"/>
<path d="M20.2501 20.1839C20.2501 20.7981 20.0012 21.3873 19.5581 21.8216C19.1151 22.256 18.5141 22.5 17.8876 22.5C17.261 22.5 16.6601 22.256 16.217 21.8216C15.774 21.3873 15.5251 20.7981 15.5251 20.1839C15.5251 19.5696 15.774 18.9804 16.217 18.5461C16.6601 18.1117 17.261 17.8677 17.8876 17.8677C18.5141 17.8677 19.1151 18.1117 19.5581 18.5461C20.0012 18.9804 20.2501 19.5696 20.2501 20.1839ZM10.8001 20.1839C10.8001 20.488 10.739 20.7892 10.6202 21.0702C10.5015 21.3512 10.3275 21.6066 10.1081 21.8216C9.88874 22.0367 9.62829 22.2073 9.34166 22.3237C9.05503 22.4401 8.74782 22.5 8.43757 22.5C8.12733 22.5 7.82012 22.4401 7.53348 22.3237C7.24685 22.2073 6.98641 22.0367 6.76703 21.8216C6.54766 21.6066 6.37363 21.3512 6.25491 21.0702C6.13618 20.7892 6.07507 20.488 6.07507 20.1839C6.07507 19.5696 6.32398 18.9804 6.76703 18.5461C7.21009 18.1117 7.811 17.8677 8.43757 17.8677C9.06415 17.8677 9.66506 18.1117 10.1081 18.5461C10.5512 18.9804 10.8001 19.5696 10.8001 20.1839Z" fill="#B7B7B9"/>
</svg>
