<svg width="14" height="16" viewBox="0 0 14 16" fill="none" xmlns="http://www.w3.org/2000/svg">
<path d="M12.7579 7.90758C12.2019 7.25832 11.9493 6.69568 11.9493 5.7398V5.41478C11.9493 4.16915 11.6626 3.36658 11.0393 2.56401C10.0786 1.31762 8.46133 0.566406 6.87811 0.566406H6.81078C5.26084 0.566406 3.69425 1.28312 2.71694 2.47893C2.05959 3.2976 1.73962 4.13466 1.73962 5.41478V5.7398C1.73962 6.69568 1.50361 7.25832 0.930983 7.90758C0.509646 8.3859 0.375 9.00067 0.375 9.66603C0.375 10.3322 0.593611 10.963 1.03235 11.4758C1.60497 12.0906 2.4136 12.4831 3.23963 12.5513C4.43556 12.6877 5.63149 12.7391 6.84482 12.7391C8.05739 12.7391 9.25332 12.6532 10.45 12.5513C11.2753 12.4831 12.0839 12.0906 12.6565 11.4758C13.0945 10.963 13.3139 10.3322 13.3139 9.66603C13.3139 9.00067 13.1792 8.3859 12.7579 7.90758Z" fill="#EA6A12"/>
<path opacity="0.4" d="M8.37366 13.6791C7.99317 13.5979 5.67469 13.5979 5.2942 13.6791C4.96893 13.7542 4.61719 13.929 4.61719 14.3123C4.6361 14.6779 4.85017 15.0006 5.14669 15.2053L5.14594 15.2061C5.52945 15.505 5.97953 15.6951 6.4508 15.7633C6.70193 15.7978 6.95761 15.7963 7.21782 15.7633C7.68833 15.6951 8.13841 15.505 8.52193 15.2061L8.52117 15.2053C8.81769 15.0006 9.03177 14.6779 9.05068 14.3123C9.05068 13.929 8.69893 13.7542 8.37366 13.6791Z" fill="#EA6A12"/>
</svg>
