<svg width="28" height="28" viewBox="0 0 28 28" fill="none" xmlns="http://www.w3.org/2000/svg">
<path fill-rule="evenodd" clip-rule="evenodd" d="M13.9453 0.000657602C14.826 -0.00481209 15.1706 0.0225364 15.9146 0.13193C16.4124 0.208506 17.1508 0.356187 17.5556 0.465581C17.9604 0.569505 18.5293 0.744535 18.8138 0.84846C19.0982 0.952384 19.7054 1.2204 20.154 1.44466C20.608 1.66344 21.1605 1.96428 21.3848 2.10649C21.6091 2.2487 22.0795 2.57688 22.4241 2.83396C22.7961 3.10744 23.3924 3.638 23.8792 4.11933C24.3606 4.60614 24.8912 5.20233 25.1647 5.57427C25.4218 5.91886 25.75 6.38926 25.8922 6.61351C26.0345 6.83777 26.3353 7.39021 26.5541 7.84419C26.7784 8.29271 27.0465 8.91078 27.1559 9.21161C27.2707 9.51245 27.4513 10.1305 27.5661 10.579C27.681 11.0276 27.8287 11.8042 27.8943 12.302C28.0037 13.0787 28.0147 13.3576 27.9873 14.2984C27.9709 15.015 27.9217 15.6385 27.8451 16.1034C27.7795 16.4918 27.6427 17.1481 27.5333 17.5529C27.4294 17.9576 27.2543 18.5265 27.1504 18.8109C27.0465 19.0953 26.7784 19.7025 26.5541 20.151C26.3353 20.5995 26.0345 21.1574 25.8922 21.3817C25.75 21.6059 25.4218 22.0763 25.1647 22.4209C24.8912 22.7929 24.3606 23.3891 23.8792 23.8759C23.3924 24.3572 22.7961 24.8877 22.4241 25.1612C22.0795 25.4183 21.6091 25.7465 21.3848 25.8887C21.1605 26.0309 20.6025 26.3317 20.154 26.5505C19.7 26.7748 19.0982 27.0428 18.8138 27.1467C18.5293 27.2507 17.9604 27.4257 17.5556 27.5296C17.1508 27.639 16.4124 27.7867 15.9146 27.8633C15.2089 27.9672 14.7987 28 14.0109 28C13.2889 28 12.8075 27.9672 12.2605 27.8906C11.8502 27.825 11.3251 27.7375 11.1008 27.6937C10.8765 27.6445 10.4061 27.5241 10.0614 27.4257C9.71682 27.3272 9.17527 27.1413 8.858 27.0155C8.54073 26.8897 7.96636 26.6216 7.5725 26.4193C7.17865 26.2169 6.62615 25.8942 6.3417 25.7082C6.05725 25.5168 5.61416 25.1995 5.35706 25.0026C5.09996 24.8057 4.53653 24.2861 4.09892 23.8485C3.63942 23.3891 3.10334 22.7819 2.8353 22.4209C2.5782 22.0763 2.24998 21.6059 2.10776 21.3817C1.96553 21.1574 1.66467 20.5995 1.44586 20.151C1.22158 19.697 0.953544 19.0844 0.844139 18.7836C0.729265 18.4827 0.548748 17.8647 0.433873 17.4161C0.318999 16.9622 0.171303 16.1909 0.105661 15.6932C-0.00374361 14.9165 -0.014684 14.6375 0.012667 13.6968C0.0290777 12.9802 0.0783096 12.3567 0.154893 11.8918C0.220535 11.4979 0.35729 10.8471 0.466695 10.4423C0.570629 10.0375 0.745675 9.46869 0.849609 9.18427C0.953544 8.89984 1.22158 8.29271 1.44586 7.84419C1.66467 7.39021 1.96553 6.83777 2.10776 6.61351C2.24998 6.38926 2.5782 5.91886 2.8353 5.57427C3.10334 5.21327 3.63942 4.60614 4.09892 4.14668C4.53653 3.70911 5.09996 3.18949 5.35706 2.99258C5.61416 2.79567 6.05725 2.47843 6.3417 2.28699C6.62615 2.10102 7.17865 1.77831 7.5725 1.57593C7.96636 1.37355 8.56808 1.0946 8.9127 0.957853C9.25733 0.821111 9.85905 0.624202 10.2529 0.514808C10.6468 0.410884 11.2485 0.274142 11.5931 0.213975C11.9377 0.153809 12.3699 0.0881726 12.5504 0.0608242C12.7309 0.0334757 13.36 0.00612729 13.9453 0.000657602ZM11.4126 1.30791C10.9695 1.4009 10.3131 1.57046 9.95204 1.69079C9.59101 1.81112 9.04399 2.02444 8.73219 2.16119C8.42585 2.29793 7.91712 2.56047 7.59985 2.74097C7.28258 2.92147 6.82855 3.21137 6.58786 3.38093C6.34717 3.55049 5.94238 3.86226 5.68528 4.07558C5.42818 4.28889 4.96321 4.73194 4.64594 5.06012C4.32866 5.3883 3.89652 5.89151 3.68318 6.17594C3.46437 6.46036 3.16351 6.90341 2.9994 7.16048C2.84077 7.41756 2.58367 7.88248 2.42503 8.19972C2.26639 8.51696 2.03665 9.03112 1.91083 9.34836C1.79049 9.6656 1.61544 10.1798 1.52792 10.497C1.44039 10.8142 1.32005 11.3393 1.25441 11.673C1.19423 12.0066 1.11218 12.6575 1.07936 13.1224C1.03013 13.7624 1.03013 14.189 1.07936 14.8454C1.11218 15.3267 1.19423 15.9886 1.25441 16.3222C1.32005 16.6559 1.44039 17.181 1.52792 17.4982C1.61544 17.8154 1.79049 18.3296 1.91083 18.6468C2.03665 18.9641 2.26639 19.4782 2.42503 19.7955C2.58367 20.1127 2.84077 20.5776 2.9994 20.8347C3.16351 21.0918 3.46437 21.5348 3.67771 21.8193C3.89105 22.1037 4.42166 22.6999 4.85928 23.1374C5.29689 23.575 5.89315 24.1056 6.1776 24.3189C6.46205 24.5322 6.90513 24.833 7.16223 24.9971C7.41933 25.1558 7.8843 25.4128 8.20158 25.5715C8.51885 25.7301 9.03305 25.9598 9.35032 26.0856C9.66759 26.2059 10.1818 26.3755 10.4991 26.4685C10.8163 26.556 11.2704 26.6654 11.5111 26.7092C11.7517 26.7529 12.1456 26.824 12.3863 26.8568C12.627 26.8951 13.3381 26.9279 13.9726 26.9279C14.6564 26.9279 15.3183 26.9006 15.6137 26.8568C15.8818 26.8185 16.3412 26.7365 16.6257 26.6818C16.9102 26.6216 17.3532 26.5122 17.6103 26.4357C17.8674 26.3646 18.3105 26.2169 18.595 26.1075C18.8794 26.0036 19.3991 25.7738 19.7437 25.5988C20.0883 25.4238 20.5807 25.1558 20.8378 24.9971C21.0949 24.8385 21.538 24.5322 21.8224 24.3189C22.1069 24.1056 22.7031 23.575 23.1407 23.1374C23.5783 22.6999 24.1254 22.0818 24.3606 21.7646C24.5958 21.4473 24.9459 20.9222 25.1428 20.5886C25.3398 20.2549 25.6133 19.7517 25.7445 19.4673C25.8758 19.1829 26.0782 18.6906 26.1986 18.3733C26.3134 18.0561 26.483 17.4927 26.576 17.1153C26.6635 16.7379 26.7839 16.1472 26.8386 15.8026C26.9042 15.3486 26.9316 14.8454 26.9316 13.9976C26.9316 13.1498 26.9042 12.6466 26.8386 12.1926C26.7839 11.848 26.6635 11.2573 26.576 10.8799C26.483 10.5025 26.3134 9.93908 26.1986 9.62184C26.0782 9.3046 25.8758 8.81233 25.7445 8.5279C25.6133 8.24348 25.3398 7.74027 25.1428 7.40662C24.9459 7.07297 24.5958 6.54788 24.3606 6.23063C24.1199 5.91339 23.6713 5.3883 23.3541 5.06012C23.0368 4.73194 22.5718 4.28889 22.3147 4.07558C22.0576 3.86226 21.6528 3.55049 21.4121 3.38093C21.1714 3.21137 20.7174 2.92147 20.4001 2.74097C20.0829 2.56047 19.5741 2.29793 19.2623 2.16119C18.956 2.02444 18.409 1.81112 18.048 1.69079C17.6869 1.57046 17.0305 1.4009 16.5819 1.31338C16.1389 1.2204 15.4934 1.12194 15.1487 1.0946C14.8041 1.06178 14.2352 1.0399 13.8906 1.0399C13.546 1.04537 13.0263 1.07272 12.7419 1.10007C12.4574 1.12741 11.8611 1.2204 11.4126 1.30791Z" fill="#4D4D4D"/>
<path fill-rule="evenodd" clip-rule="evenodd" d="M14.2653 2.21914C14.7795 2.23008 15.4523 2.27384 15.7696 2.32307C16.0868 2.37229 16.5792 2.47075 16.8636 2.54185C17.1481 2.61296 17.6294 2.76064 17.9303 2.86457C18.2312 2.96849 18.7235 3.1654 19.0243 3.30761C19.3252 3.44435 19.7792 3.69049 20.0363 3.84364C20.2934 3.99679 20.7858 4.33591 21.1304 4.59299C21.475 4.85553 22.0275 5.33687 22.3557 5.66505C22.6839 5.99323 23.1325 6.49644 23.3458 6.78086C23.5646 7.06529 23.871 7.49739 24.0296 7.73806C24.1828 7.97873 24.4563 8.471 24.6313 8.832C24.8064 9.193 25.0416 9.74544 25.151 10.0627C25.2604 10.3799 25.4081 10.8722 25.4792 11.1566C25.5503 11.441 25.6542 11.9443 25.7035 12.2779C25.7746 12.71 25.8019 13.1913 25.8019 13.9735C25.8019 14.7557 25.7746 15.2479 25.7089 15.6965C25.6542 16.041 25.5448 16.5716 25.4683 16.8724C25.3971 17.1733 25.233 17.6874 25.1182 18.0211C24.9978 18.3547 24.7571 18.9072 24.5876 19.2518C24.4125 19.5963 24.1007 20.1378 23.8928 20.4551C23.685 20.7723 23.3294 21.2537 23.0997 21.5217C22.8754 21.7897 22.4925 22.2054 22.2518 22.4406C22.0111 22.6758 21.6227 23.0204 21.3875 23.2063C21.1523 23.3923 20.742 23.6877 20.4849 23.8627C20.2223 24.0323 19.9926 24.1745 19.9652 24.1745C19.9433 24.1745 19.9269 24.1088 19.9269 24.0268C19.9269 23.9393 19.8668 22.7195 19.7902 21.3029C19.7136 19.8862 19.6534 18.5954 19.6479 18.1305L19.9652 18.0211C20.1403 17.9554 20.4521 17.8078 20.6654 17.6929C20.8787 17.5726 21.2234 17.3045 21.4422 17.0912C21.6774 16.8615 21.8853 16.599 21.9619 16.4349C22.0822 16.1669 22.0877 16.1176 22.0822 14.6846C22.0822 13.875 22.0494 12.8522 22.0111 12.4146C21.9728 11.9771 21.8579 10.823 21.754 9.84389C21.65 8.86481 21.5352 7.85292 21.4312 7.10904H20.8569V15.0401H20.1457V7.10904H19.3252V15.0401H18.6141V7.10904H17.7935V15.0401H17.0824V7.10904H16.3439L16.2783 7.58491C16.24 7.85292 16.1251 8.86481 16.0212 9.84389C15.9173 10.823 15.8024 11.9771 15.7641 12.4146C15.7258 12.8522 15.693 13.875 15.693 14.6846C15.6875 16.1176 15.693 16.1669 15.8133 16.4349C15.8899 16.599 16.0978 16.8615 16.333 17.0912C16.5518 17.3045 16.8964 17.5726 17.1098 17.6929C17.3231 17.8078 17.6349 17.9554 17.81 18.0211C18.0999 18.1195 18.1272 18.1414 18.1218 18.2946C18.1218 18.3821 18.0452 19.9464 17.9577 21.7678C17.8647 23.5892 17.7826 25.0989 17.7717 25.1317C17.7607 25.1645 17.5364 25.252 17.2684 25.3341C17.0004 25.4161 16.5245 25.531 16.2072 25.5911C15.8899 25.6513 15.2882 25.7279 14.867 25.7662C14.4403 25.799 13.8331 25.8099 13.4994 25.788C13.1657 25.7716 12.6515 25.7169 12.3507 25.6732C12.0498 25.6294 11.6669 25.5638 11.2019 25.4599L10.9995 21.6858C10.8901 19.6073 10.7971 17.8187 10.7917 17.5015L11.2676 17.3374C11.5356 17.2444 11.8967 17.0748 12.0772 16.96C12.2577 16.8451 12.5367 16.6044 12.7008 16.4294C12.8649 16.2489 13.1056 15.9426 13.2369 15.7402C13.3627 15.5324 13.5432 15.2042 13.6307 15.0018C13.7128 14.794 13.8331 14.4439 13.8988 14.2196C13.9589 13.9954 14.041 13.6344 14.0793 13.4265C14.1176 13.2187 14.1504 12.6608 14.1504 12.1959C14.1504 11.5067 14.1285 11.266 14.0355 10.9105C13.9753 10.6698 13.8386 10.276 13.7401 10.0353C13.6417 9.79466 13.4174 9.3899 13.2478 9.13283C13.0728 8.87575 12.7664 8.49835 12.5586 8.29597C12.3562 8.09359 12.0772 7.85292 11.9404 7.75447C11.8037 7.66148 11.5466 7.51927 11.366 7.43176C11.1855 7.34971 10.8901 7.24032 10.7096 7.19109C10.5291 7.14733 10.2392 7.10904 10.0641 7.10904C9.89456 7.10904 9.62105 7.13639 9.46242 7.16921C9.30925 7.20203 8.98104 7.32236 8.74035 7.43176C8.49966 7.54662 8.12221 7.78182 7.89793 7.96232C7.67913 8.13735 7.3345 8.48194 7.14304 8.7226C6.95159 8.96327 6.67261 9.40631 6.51944 9.70715C6.37174 10.008 6.19123 10.4784 6.10917 10.7464C6.01071 11.091 5.96148 11.4301 5.9396 11.8677C5.92319 12.2341 5.93413 12.7374 5.97789 13.071C6.01071 13.3882 6.09276 13.8313 6.15294 14.0556C6.21311 14.2798 6.33345 14.6517 6.42645 14.876C6.51397 15.1003 6.68355 15.4449 6.79842 15.6418C6.9133 15.8387 7.16493 16.1669 7.35638 16.3747C7.54784 16.5825 7.8487 16.8451 8.02922 16.96C8.20974 17.0748 8.57624 17.2498 9.32019 17.5288L9.28737 17.9937C9.26549 18.2508 9.17796 19.837 9.09044 21.5217C9.00292 23.2063 8.92086 24.5902 8.90445 24.6011C8.88804 24.6066 8.74582 24.5464 8.58718 24.4698C8.43402 24.3878 8.11674 24.2128 7.89246 24.076C7.66819 23.9393 7.24698 23.6494 6.96253 23.4415C6.67808 23.2282 6.26234 22.8836 6.03806 22.6703C5.81378 22.457 5.50198 22.1507 5.34882 21.9866C5.19018 21.8225 4.94949 21.549 4.8182 21.3849C4.68145 21.2208 4.40794 20.838 4.20554 20.5371C3.99767 20.2363 3.65852 19.6346 3.43971 19.1971C3.2209 18.7595 2.94192 18.0812 2.81064 17.6929C2.68482 17.3045 2.52072 16.6865 2.4496 16.3255C2.37849 15.9645 2.2855 15.2862 2.25267 14.8213C2.19797 14.1595 2.19797 13.793 2.2472 13.1531C2.2855 12.7045 2.37302 12.0318 2.4496 11.6653C2.52619 11.2934 2.67388 10.7136 2.78329 10.3799C2.89269 10.0408 3.10056 9.49383 3.24825 9.16018C3.39595 8.82653 3.65852 8.32332 3.8281 8.03889C4.00314 7.75447 4.35324 7.23485 4.61034 6.89026C4.87291 6.54567 5.35429 5.99323 5.6825 5.66505C6.01071 5.33687 6.5632 4.85553 6.90783 4.59299C7.25245 4.33591 7.74477 3.99679 8.00187 3.84364C8.25897 3.69049 8.713 3.44435 9.01386 3.30761C9.31472 3.1654 9.80704 2.96849 10.1079 2.86457C10.4088 2.76064 10.8901 2.61296 11.1746 2.54185C11.459 2.47075 11.9623 2.37229 12.296 2.32854C12.6242 2.27931 12.9962 2.23008 13.1165 2.21914C13.2369 2.2082 13.7511 2.2082 14.2653 2.21914ZM7.61348 10.4565C7.67366 10.4674 7.70101 10.5276 7.69554 10.637C7.69007 10.73 7.6463 10.9871 7.5916 11.2113C7.51502 11.5176 7.49314 11.8458 7.48767 13.3718L7.72289 14.0556C7.85417 14.433 8.04016 14.9088 8.13862 15.1221C8.23162 15.3355 8.46137 15.7074 8.64735 15.959C8.83334 16.2051 8.97557 16.4349 8.95916 16.4622C8.94274 16.495 8.88804 16.5169 8.83334 16.5169C8.78411 16.5224 8.59265 16.4239 8.41213 16.3036C8.23162 16.1887 7.94717 15.9481 7.78306 15.7676C7.61895 15.5925 7.3892 15.2753 7.2798 15.0674C7.1704 14.8541 7.00082 14.4494 6.90783 14.1649C6.80936 13.8805 6.72184 13.4867 6.70543 13.2898C6.68355 13.0929 6.69996 12.7374 6.73825 12.4967C6.77654 12.256 6.85859 11.8896 6.91877 11.6762C6.97894 11.4684 7.09381 11.173 7.16493 11.0199C7.24151 10.8722 7.35638 10.6753 7.41656 10.5932C7.47673 10.5057 7.56425 10.4456 7.61348 10.4565Z" fill="#DADADA"/>
</svg>
