<svg width="27" height="27" viewBox="0 0 27 27" fill="none" xmlns="http://www.w3.org/2000/svg">
<path fill-rule="evenodd" clip-rule="evenodd" d="M8.79646 6.00131C9.71726 6.01159 11.2914 6.02188 12.2996 6.02702C14.0589 6.0373 14.1412 6.04244 14.2441 6.14014C14.311 6.20184 14.3573 6.30468 14.3573 6.39724C14.3573 6.48465 14.3161 6.60292 14.2647 6.66977C14.1978 6.75718 14.0949 6.80346 13.92 6.82402C13.6782 6.86002 13.6731 6.86516 13.6988 7.01428C13.7142 7.10169 13.8583 8.04267 14.3264 11.0507H15.1649C15.988 11.0507 15.9982 11.0507 16.1268 11.1793C16.2091 11.2616 16.2554 11.3644 16.2554 11.4775C16.2554 11.5804 16.2143 11.6832 16.1423 11.7552C16.0291 11.8632 15.9725 11.8683 14.3778 11.8992L14.383 12.5676C14.383 13.123 14.4036 13.2824 14.491 13.5189C14.5527 13.6731 14.7071 13.92 14.8305 14.0588C14.9591 14.2079 15.1958 14.393 15.3861 14.4907C15.6433 14.6296 15.7925 14.6758 16.0754 14.6913C16.3017 14.7067 16.5332 14.6913 16.6927 14.645C16.8367 14.609 17.0476 14.5113 17.1711 14.4342C17.2894 14.3519 17.4592 14.2902 17.5518 14.2902C17.6495 14.285 17.7575 14.3262 17.809 14.3776C17.8553 14.429 17.9119 14.5421 17.9273 14.6244C17.953 14.7324 17.9324 14.8147 17.8604 14.9072C17.809 14.9792 17.6135 15.1129 17.4335 15.2106C17.2534 15.3083 16.9859 15.4163 16.847 15.4574C16.7081 15.4934 16.4149 15.5243 16.204 15.5243C15.9931 15.5243 15.6896 15.4883 15.5353 15.442C15.3809 15.3957 15.1597 15.3134 15.0466 15.2569C14.9334 15.2003 14.7276 15.0666 14.5836 14.9586C14.4447 14.8507 14.2492 14.6604 13.9817 14.3159L13.5856 14.7067C13.3181 14.9741 13.0918 15.1437 12.8603 15.2569C12.6751 15.3443 12.4231 15.4368 12.2945 15.4677C12.1659 15.4985 11.8881 15.5243 11.6772 15.5243C11.4663 15.5243 11.1628 15.4883 11.0084 15.442C10.8541 15.3957 10.6329 15.3134 10.5197 15.2569C10.4066 15.2003 10.1957 15.0666 10.0568 14.9586C9.91273 14.8507 9.71726 14.6553 9.43948 14.3005L9.25429 14.537C9.15655 14.6707 8.94564 14.8712 8.79131 14.9843C8.63699 15.0975 8.41065 15.2363 8.28205 15.298C8.15344 15.3597 7.92196 15.4368 7.76763 15.4728C7.60302 15.5088 7.30466 15.5243 7.04746 15.514C6.76453 15.4934 6.50218 15.4471 6.30156 15.37C6.1318 15.3032 5.85402 15.154 5.68426 15.0358C5.51451 14.9175 5.28302 14.7067 5.16985 14.5627C5.05668 14.4136 4.9538 14.2953 4.93836 14.2953C4.92293 14.2953 4.83548 14.3982 4.74289 14.5216C4.65544 14.6501 4.43424 14.8609 4.25934 14.9895C4.07929 15.118 3.85295 15.262 3.75521 15.3032C3.65748 15.3443 3.462 15.4111 3.31796 15.4523C3.17907 15.4934 2.87042 15.5243 2.21198 15.5243V25.4997H12.243V22.07C12.243 19.5504 12.2636 18.5786 12.3048 18.4295C12.3459 18.3061 12.4694 18.121 12.6288 17.9616C12.8089 17.7816 12.9581 17.6839 13.1175 17.6376C13.2924 17.5913 13.9252 17.581 17.8861 17.6068L18.1382 17.761C18.2771 17.8484 18.4623 18.0233 18.5497 18.1467C18.6372 18.2752 18.7349 18.5015 18.7658 18.6506C18.8121 18.8408 18.8275 19.8641 18.8275 25.4997H21.1938V21.3758C21.1887 17.3034 21.1938 17.2468 21.2967 17.108C21.379 16.9897 21.4407 16.964 21.6053 16.964C21.77 16.964 21.8317 16.9897 21.914 17.108C22.0169 17.2468 22.022 17.3034 22.0169 25.4997H22.4644C22.8399 25.4946 22.9428 25.5151 23.056 25.6025C23.1589 25.6745 23.2 25.7517 23.2 25.8751C23.2052 25.9625 23.1589 26.1013 22.9943 26.3224H11.7132C0.601863 26.3276 0.437251 26.3276 0.308648 26.2247C0.205765 26.1476 0.180044 26.0807 0.180044 25.9111C0.180044 25.7414 0.205765 25.6745 0.308648 25.5974C0.416674 25.51 0.519557 25.4946 1.38891 25.4997L1.38377 15.19L1.10599 14.9998C0.951664 14.8918 0.725322 14.681 0.612151 14.537C0.493836 14.3879 0.344657 14.1565 0.277783 14.0228C0.210909 13.884 0.118315 13.632 0.0771619 13.4572C0.0257206 13.2361 0 12.8453 0 11.3335L1.83131 8.94252C2.83441 7.62617 3.72435 6.48465 3.79637 6.40752C3.87353 6.33039 4.03814 6.21213 4.16674 6.15042C4.3828 6.04244 4.49082 6.0373 5.76142 6.00645C6.51247 5.99102 7.87566 5.99102 8.79646 6.00131ZM2.80869 8.9888C1.9702 10.0943 1.28603 11.0096 1.28603 11.025C1.28603 11.0404 2.04222 11.0507 2.97331 11.0507H4.65544L6.58448 6.83431C4.94351 6.83945 4.60914 6.86002 4.49082 6.9063C4.36737 6.95772 3.96612 7.45649 2.80869 8.9888ZM6.51761 9.04536L5.61739 11.025C8.24089 11.0456 9.01251 11.0456 9.02794 11.0404C9.03823 11.0302 9.19256 10.1355 9.35717 9.04536C9.52693 7.95526 9.67611 7.01428 9.68125 6.95257L9.69668 6.83431C7.51557 6.83431 7.51043 6.83431 7.46413 6.95257C7.43841 7.01428 7.01145 7.95526 6.51761 9.04536ZM10.2625 8.83968C10.1082 9.87322 9.96418 10.7936 9.95389 10.8862L9.92817 11.0507H13.4776C13.4365 10.8296 13.3902 10.5263 13.349 10.228C13.3027 9.92978 13.1741 9.11221 13.0661 8.40261C12.9529 7.69816 12.85 7.05541 12.8346 6.97828L12.8089 6.83431C10.8593 6.83431 10.5866 6.84973 10.5712 6.90115C10.5609 6.93201 10.422 7.80614 10.2625 8.83968ZM0.833349 12.583C0.848781 13.2515 0.859069 13.3081 1.01339 13.6217C1.12142 13.848 1.2706 14.0434 1.47636 14.2285C1.65641 14.393 1.88275 14.5421 2.04736 14.6038C2.21712 14.6655 2.44861 14.7015 2.67495 14.7015C2.90129 14.7015 3.13277 14.6655 3.30767 14.6038C3.46714 14.5421 3.69348 14.393 3.87353 14.2285C4.07929 14.0434 4.22847 13.848 4.3365 13.6217C4.49597 13.3029 4.50111 13.2566 4.51654 12.583L4.52683 11.8734H0.812772L0.833349 12.583ZM5.36018 12.583C5.37561 13.2566 5.3859 13.3081 5.54023 13.6269C5.64825 13.848 5.80258 14.0485 6.0032 14.2285C6.18324 14.393 6.41473 14.5421 6.5742 14.6038C6.74395 14.6655 6.97544 14.7015 7.20692 14.7015C7.43326 14.7015 7.66475 14.6655 7.83451 14.6038C7.99912 14.5421 8.22546 14.393 8.40551 14.2285C8.60098 14.0536 8.76045 13.848 8.85819 13.6474C9.00222 13.3492 9.00737 13.3132 9.00737 12.6088V11.8734H5.34475L5.36018 12.583ZM9.87673 12.5728C9.87673 13.1281 9.8973 13.3183 9.97446 13.5343C10.031 13.6834 10.1802 13.92 10.3037 14.0639C10.4323 14.2079 10.6689 14.393 10.8593 14.4959C11.137 14.645 11.2502 14.6758 11.6 14.6913C11.9395 14.7118 12.063 14.6913 12.3202 14.5936C12.526 14.5164 12.7266 14.3827 12.9272 14.1925C13.1021 14.0279 13.2873 13.7914 13.3644 13.6269C13.493 13.3646 13.5033 13.2824 13.5188 12.6088L13.5291 11.8786H9.87673V12.5728ZM13.0507 18.6763L13.0661 25.5048H18.0044C18.0044 19.6173 17.989 18.8871 17.9376 18.7534C17.9016 18.6609 17.8141 18.5477 17.7421 18.4963C17.6289 18.414 17.4386 18.4038 15.4787 18.4038L13.3387 18.4089L13.0507 18.6763ZM7.14519 17.7867C9.52178 17.7867 9.70697 17.7919 9.8973 17.8844C10.0105 17.9358 10.1802 18.0593 10.2677 18.1518C10.3603 18.2495 10.4683 18.4141 10.5146 18.5169C10.5815 18.6814 10.5918 19.0002 10.5918 22.3374L10.4632 22.6048C10.3808 22.7847 10.2625 22.9287 10.1185 23.0315C10.0002 23.119 9.78413 23.2115 9.6401 23.2424C9.47548 23.2732 8.52896 23.2886 6.99087 23.2784C4.77889 23.2629 4.58856 23.2527 4.41881 23.1652C4.32107 23.1138 4.15646 22.9853 4.04843 22.8824C3.9404 22.7796 3.81694 22.5945 3.77579 22.4659C3.71406 22.2705 3.69863 21.926 3.71406 20.4348C3.72435 18.7174 3.72949 18.6249 3.83752 18.4295C3.8941 18.3164 4.02271 18.157 4.12045 18.0747C4.21304 17.9924 4.36222 17.8947 4.44453 17.8587C4.56799 17.8022 5.1647 17.7919 7.14519 17.7867ZM4.62457 18.7431C4.51654 18.8768 4.5114 18.9077 4.51654 20.5325C4.52169 22.0906 4.52683 22.1883 4.61943 22.3117L4.72231 22.4402C9.43948 22.4711 9.49092 22.4659 9.62981 22.3631L9.7687 22.2602C9.7687 18.882 9.7687 18.81 9.66582 18.7123C9.56808 18.6094 9.49606 18.6094 7.15034 18.6094H4.73774L4.62457 18.7431ZM13.7863 19.2213H15.5095C17.1608 19.2213 17.2328 19.2265 17.3306 19.3242C17.4283 19.4219 17.4335 19.499 17.4335 20.5737C17.4335 21.6844 17.4283 21.7203 17.202 21.9517L13.8326 21.9466L13.5754 21.6895L13.5702 20.5942C13.5651 19.5401 13.5702 19.4887 13.6782 19.3602L13.7863 19.2213ZM14.3933 21.1239H16.6052V20.0441H14.3933V21.1239ZM13.9252 22.8156C14.0023 22.8156 14.1258 22.8619 14.2029 22.9184C14.3367 23.0213 14.3418 23.0418 14.3418 23.4892C14.3418 23.88 14.3315 23.9674 14.2389 24.0548C14.1704 24.1234 14.0675 24.1576 13.9303 24.1576C13.7708 24.1576 13.704 24.1268 13.6217 24.0137C13.5239 23.8903 13.5136 23.8183 13.5342 23.4429C13.5496 23.0727 13.5702 23.0007 13.6731 22.9184C13.74 22.8619 13.8531 22.8207 13.9252 22.8156Z" fill="#DADADA"/>
<path fill-rule="evenodd" clip-rule="evenodd" d="M21.3136 0.000615719C21.8434 -0.00452626 22.0698 0.0211837 22.5173 0.129165C22.826 0.201153 23.2478 0.329702 23.4587 0.411974C23.6696 0.499388 23.9937 0.658789 24.1789 0.771913C24.3641 0.879894 24.6984 1.11643 24.9248 1.29639C25.1511 1.47636 25.4598 1.7746 25.6141 1.95457C25.7684 2.13454 25.9999 2.44306 26.1285 2.64359C26.2571 2.84413 26.4474 3.19893 26.5503 3.4406C26.6532 3.68227 26.7869 4.07306 26.8487 4.31474C26.9104 4.55641 26.9721 4.98319 26.9876 5.266C27.0133 5.63108 26.9979 5.91903 26.9361 6.26869C26.8898 6.53607 26.7252 7.1274 26.576 7.57989C26.4217 8.03239 26.1439 8.76255 25.9536 9.19962C25.7633 9.63669 25.3929 10.4388 25.1254 10.9736C24.863 11.5084 24.4412 12.3311 24.1943 12.799C23.9422 13.2669 23.4947 14.0742 23.2015 14.5987C22.9031 15.1232 22.5893 15.6322 22.5019 15.7299C22.4144 15.8276 22.2138 15.9767 22.0646 16.0642C21.8229 16.1979 21.7354 16.2133 21.3753 16.2184C21.0564 16.2184 20.9175 16.1927 20.758 16.1104C20.6449 16.0487 20.4751 15.9356 20.3774 15.8533C20.2848 15.7711 20.0224 15.3751 19.7806 14.9586C19.5492 14.5473 19.1479 13.8325 18.8959 13.3646C18.6386 12.8967 18.1705 11.9969 17.8516 11.3593C17.5327 10.7216 17.1263 9.87836 16.9514 9.48243C16.7765 9.08649 16.5347 8.49517 16.4112 8.17122C16.2929 7.84728 16.1386 7.39478 16.0717 7.16854C15.9997 6.94229 15.9123 6.58749 15.8711 6.38181C15.83 6.18128 15.7939 5.7802 15.7939 5.49739C15.7939 5.18373 15.8351 4.77751 15.902 4.45357C15.9586 4.16562 16.0923 3.72341 16.2003 3.46631C16.3032 3.20921 16.5193 2.80814 16.6736 2.56646C16.8279 2.32479 17.1057 1.96999 17.2909 1.7746C17.4709 1.5792 17.8053 1.28097 18.0316 1.11128C18.258 0.941598 18.6849 0.684499 18.9833 0.545666C19.3022 0.391406 19.7549 0.226863 20.0893 0.144591C20.5523 0.0263256 20.7735 0.000615719 21.3085 0.000615719H21.3136ZM19.9144 1.04958C19.7601 1.101 19.472 1.21927 19.2714 1.31696C19.0708 1.41466 18.7724 1.59463 18.6026 1.71804C18.4329 1.8363 18.1191 2.11911 17.9082 2.34022C17.6921 2.56646 17.4195 2.90583 17.3012 3.10637C17.1829 3.30177 17.0182 3.64114 16.9359 3.85196C16.8536 4.06278 16.7508 4.41758 16.7045 4.63354C16.6582 4.85464 16.6222 5.24029 16.6222 5.49739C16.6222 5.75449 16.6582 6.12986 16.6993 6.33554C16.7405 6.53607 16.8742 7.00399 17.0028 7.37422C17.1263 7.74444 17.368 8.36662 17.5378 8.76255C17.7076 9.15848 17.9956 9.79609 18.1757 10.1766C18.3609 10.5571 18.7364 11.2975 19.009 11.822C19.2868 12.3465 19.8321 13.3235 20.2179 13.9971C20.6397 14.7375 20.9689 15.2569 21.0461 15.3031C21.1181 15.3494 21.2673 15.3957 21.3805 15.406C21.5245 15.4214 21.6377 15.3957 21.7508 15.3237C21.8537 15.262 22.0081 15.0615 22.1367 14.8455C22.255 14.6398 22.6048 14.0177 22.9083 13.4675C23.2169 12.9173 23.7982 11.8066 24.2046 10.9993C24.6058 10.192 25.0791 9.19962 25.254 8.78826C25.4289 8.3769 25.6707 7.72901 25.7993 7.34851C25.9279 6.968 26.0668 6.45894 26.1182 6.21727C26.1799 5.89847 26.1954 5.65165 26.1748 5.31742C26.1542 5.06547 26.0976 4.67982 26.0462 4.469C25.9896 4.25818 25.8661 3.90852 25.7684 3.6977C25.6707 3.48688 25.4701 3.12694 25.3157 2.90583C25.1614 2.67959 24.8579 2.33507 24.6367 2.13454C24.4206 1.934 24.0657 1.66148 23.8394 1.52264C23.6182 1.38895 23.2066 1.1987 22.9237 1.101C22.6408 1.0033 22.2601 0.900462 22.0749 0.874752C21.8897 0.843901 21.5554 0.823333 21.329 0.823333C21.1027 0.823333 20.758 0.854184 20.5574 0.890178C20.3568 0.926172 20.0687 0.99816 19.9144 1.04958ZM21.6325 1.98028C21.8589 1.9957 22.1727 2.04198 22.327 2.08312C22.4813 2.12425 22.7745 2.23224 22.97 2.32479C23.1706 2.42249 23.4793 2.61274 23.6593 2.74643C23.8394 2.88527 24.0914 3.12694 24.2149 3.2812C24.3383 3.4406 24.5184 3.71827 24.611 3.89824C24.7087 4.08335 24.8425 4.41758 24.9042 4.64382C24.9865 4.9472 25.0174 5.19402 25.0174 5.56938C25.0174 5.86761 24.9814 6.23784 24.9299 6.44352C24.8836 6.64405 24.7499 6.99885 24.6264 7.24052C24.4772 7.53876 24.2972 7.79586 24.0503 8.0581C23.8548 8.26378 23.5513 8.52088 23.3815 8.62886C23.2118 8.7317 22.9237 8.88082 22.7385 8.9528C22.5533 9.02479 22.2653 9.1122 22.0955 9.14306C21.9257 9.17391 21.6068 9.19962 21.3908 9.19448C21.1696 9.19448 20.8249 9.15848 20.6191 9.11735C20.4134 9.07107 20.0584 8.94252 19.8321 8.83454C19.6057 8.72656 19.2868 8.53116 19.1273 8.40261C18.9627 8.27406 18.7261 8.03753 18.5975 7.87299C18.4689 7.70844 18.2734 7.38964 18.1654 7.16339C18.0522 6.93715 17.9288 6.58749 17.8825 6.38181C17.8362 6.17613 17.8002 5.8162 17.8002 5.58481C17.8002 5.35342 17.8362 4.99862 17.8773 4.79808C17.9185 4.60269 18.0625 4.22218 18.1911 3.94966C18.3917 3.55372 18.51 3.38918 18.8496 3.04981C19.0965 2.80299 19.4051 2.55618 19.6006 2.4482C19.7858 2.34536 20.0739 2.21681 20.2436 2.16025C20.4134 2.10369 20.7014 2.0317 20.8866 2.00599C21.0718 1.97514 21.4062 1.96999 21.6325 1.98028ZM20.5008 2.94183C20.3619 2.98811 20.1047 3.11151 19.935 3.2195C19.7652 3.33262 19.5029 3.55887 19.3485 3.72341C19.1994 3.89309 19.009 4.16048 18.9267 4.32502C18.8444 4.48956 18.7467 4.76723 18.7004 4.94206C18.6592 5.11689 18.6232 5.41512 18.6232 5.59509C18.6232 5.7802 18.6592 6.06815 18.7055 6.23784C18.7467 6.40752 18.8238 6.63891 18.8753 6.75204C18.9267 6.86516 19.0759 7.09655 19.2045 7.26623C19.3331 7.43592 19.5697 7.67759 19.7395 7.801C19.9041 7.92441 20.1304 8.06838 20.2436 8.1198C20.3568 8.17122 20.5883 8.24835 20.758 8.29463C20.9278 8.33576 21.2159 8.37176 21.401 8.37176C21.5862 8.37176 21.8846 8.33576 22.0698 8.29463C22.255 8.24835 22.543 8.14037 22.7077 8.04781C22.8774 7.9604 23.15 7.75986 23.3147 7.60046C23.4793 7.4462 23.6953 7.17882 23.7982 7.00913C23.8959 6.83945 24.0246 6.5515 24.0811 6.36639C24.1583 6.135 24.1892 5.89847 24.1892 5.56938C24.1892 5.25572 24.1532 5.00376 24.0811 4.77237C24.0246 4.5924 23.8857 4.29931 23.7776 4.12963C23.6645 3.95994 23.4638 3.71313 23.3249 3.58458C23.1861 3.45088 22.9597 3.27092 22.8157 3.1835C22.6768 3.09609 22.4093 2.97782 22.2241 2.9264C22.0389 2.86984 21.7611 2.81842 21.6068 2.80814C21.4525 2.79271 21.1953 2.79785 21.041 2.81842C20.8866 2.83899 20.6449 2.89555 20.5008 2.94183Z" fill="#4D4D4D"/>
</svg>
