<svg width="22" height="20" viewBox="0 0 22 20" fill="none" xmlns="http://www.w3.org/2000/svg">
<path d="M3.20673 0.122024C3.02469 0.18812 2.74152 0.310144 2.57466 0.396578C2.40779 0.483011 2.13473 0.686384 1.97292 0.849082C1.80606 1.01178 1.58357 1.28125 1.47738 1.44903C1.37119 1.61682 1.23466 1.89137 1.17398 2.05915C1.0678 2.34387 1.06274 2.47607 1.04251 3.96577L1.02734 5.56734C1.20938 5.83681 1.34085 5.96391 1.43693 6.01984C1.54311 6.08085 1.70493 6.12153 1.84145 6.12153C1.96787 6.12153 2.14485 6.08085 2.23587 6.03509C2.32183 5.98934 2.44824 5.8724 2.51398 5.78088C2.62017 5.62326 2.62522 5.56734 2.65051 4.19457C2.67579 2.81672 2.68084 2.76079 2.8022 2.4964C2.87805 2.32862 3.01964 2.1405 3.15616 2.02356C3.28258 1.91679 3.48484 1.79477 3.61125 1.75409C3.78823 1.69308 4.12197 1.67783 5.12823 1.67783C6.38732 1.67783 6.42271 1.67783 6.6452 1.56089C6.80701 1.47445 6.90814 1.37277 6.98905 1.21515C7.04973 1.09313 7.10029 0.920263 7.10029 0.838914C7.10029 0.75248 7.05478 0.589782 6.99916 0.467758C6.93343 0.335565 6.82218 0.208457 6.69577 0.127108L6.4935 0C3.63148 0.0101687 3.51518 0.0203374 3.20673 0.122024ZM14.675 0.132192C14.5587 0.203373 14.4424 0.345734 14.3818 0.467758C14.3261 0.589782 14.2806 0.75248 14.2806 0.838914C14.2806 0.920263 14.3312 1.09313 14.3969 1.22024C14.4829 1.38294 14.584 1.48462 14.7408 1.56597C14.9532 1.67783 15.0088 1.67783 16.2527 1.67783C17.259 1.67783 17.5927 1.69308 17.7697 1.75409C17.8961 1.79477 18.0984 1.91679 18.2248 2.02356C18.3613 2.1405 18.5029 2.32862 18.5787 2.4964C18.7001 2.76079 18.7051 2.81672 18.7304 4.19457C18.7557 5.56734 18.7608 5.62326 18.867 5.78088C18.9327 5.8724 19.0591 5.98934 19.1451 6.03509C19.2361 6.08085 19.4131 6.12153 19.5395 6.12153C19.676 6.12153 19.8378 6.08085 19.944 6.01984C20.0401 5.96391 20.1715 5.83681 20.2373 5.7402L20.3536 5.56734C20.3182 2.47607 20.3131 2.34387 20.2069 2.05915C20.1463 1.89137 20.0097 1.61682 19.9035 1.44903C19.7974 1.28125 19.5749 1.01178 19.408 0.849082C19.2159 0.655878 18.9681 0.483011 18.7051 0.355903C18.4827 0.244048 18.1793 0.122024 18.0326 0.0762649C17.8202 0.015253 17.4814 -7.79954e-08 16.3134 0.00508425C14.8621 0.00508425 14.8621 0.00508425 14.67 0.132192H14.675ZM1.5684 13.448C1.45715 13.4887 1.31557 13.5751 1.24983 13.6412C1.18915 13.7023 1.11331 13.809 1.08297 13.8802C1.05263 13.9616 1.03746 14.5818 1.05263 15.5835C1.0678 17.0477 1.07791 17.1799 1.17904 17.4647C1.23972 17.6324 1.37625 17.907 1.48244 18.0748C1.58862 18.2426 1.81111 18.512 1.97798 18.6747C2.13979 18.8374 2.41285 19.0408 2.57971 19.1272C2.74658 19.2137 3.04492 19.3408 3.23707 19.4069C3.57586 19.5187 3.65171 19.5238 5.04732 19.5238H6.49856C6.82724 19.3154 6.93848 19.1882 7.00422 19.051C7.05984 18.934 7.10535 18.7662 7.10535 18.6849C7.10535 18.6035 7.05478 18.4307 6.9941 18.3087C6.9132 18.151 6.81207 18.0494 6.65026 17.9629C6.42777 17.846 6.39237 17.846 5.13329 17.846C4.12703 17.846 3.79329 17.8307 3.61631 17.7697C3.4899 17.729 3.28763 17.607 3.16122 17.5002C3.02469 17.3833 2.88311 17.1952 2.80726 17.0274C2.6859 16.763 2.68084 16.7071 2.65556 15.3292C2.63028 13.9565 2.62522 13.9005 2.51903 13.7378C2.4533 13.6514 2.34205 13.5446 2.26621 13.504C2.1853 13.4633 2.04372 13.4175 1.94764 13.4023C1.84145 13.387 1.68976 13.4023 1.5684 13.448ZM19.2664 13.448C19.1552 13.4887 19.0237 13.565 18.9681 13.6158C18.9175 13.6616 18.8518 13.748 18.8164 13.8039C18.781 13.87 18.7507 14.3988 18.7355 15.3292C18.7102 16.7071 18.7051 16.763 18.5838 17.0274C18.5079 17.1952 18.3663 17.3833 18.2298 17.5002C18.1034 17.607 17.9011 17.729 17.7747 17.7697C17.5977 17.8307 17.264 17.846 16.2578 17.846C15.0138 17.846 14.9582 17.846 14.7458 17.9578C14.5891 18.0392 14.488 18.1409 14.402 18.3036C14.3363 18.4307 14.2857 18.6035 14.2857 18.6849C14.2857 18.7662 14.3363 18.9391 14.402 19.0611C14.4677 19.1984 14.5891 19.3357 14.7054 19.4069C14.8874 19.5238 14.9178 19.5238 16.3488 19.5238C17.7393 19.5238 17.8152 19.5187 18.154 19.4069C18.3512 19.3408 18.6445 19.2137 18.8113 19.1272C18.9782 19.0408 19.2512 18.8374 19.4131 18.6747C19.5799 18.512 19.8024 18.2426 19.9086 18.0748C20.0148 17.907 20.1513 17.6324 20.212 17.4647C20.3182 17.1799 20.3232 17.0477 20.3435 15.558L20.3586 13.9565C20.1766 13.687 20.0603 13.565 19.9743 13.5192C19.8934 13.4684 19.7417 13.4175 19.6457 13.4023C19.5445 13.387 19.3827 13.4023 19.2664 13.448Z" fill="#DADADA"/>
<path d="M0.437012 8.80561C0.345994 8.85137 0.224636 8.94797 0.17407 9.01915C0.123504 9.09033 0.0577691 9.24286 0.0274296 9.35472C-0.013023 9.50725 -0.00796638 9.60893 0.0375428 9.75638C0.0678823 9.86315 0.17407 10.0309 0.265089 10.1224C0.356107 10.2241 0.497691 10.3055 0.593766 10.3207C0.679728 10.336 5.32672 10.3411 10.9193 10.336L21.083 10.3207C21.3156 10.153 21.4319 10.0157 21.4825 9.90891C21.5331 9.80214 21.5786 9.62927 21.5786 9.53267C21.5836 9.43607 21.5381 9.2632 21.4825 9.15643C21.4319 9.04966 21.3156 8.91238 21.2347 8.85137L21.083 8.7446C1.48878 8.72426 0.58871 8.72934 0.437012 8.80561Z" fill="#4D4D4D"/>
</svg>
