<svg width="42" height="42" viewBox="0 0 42 42" fill="none" xmlns="http://www.w3.org/2000/svg">
<circle cx="21" cy="21" r="21" fill="#FFE8D8"/>
<path d="M13.7159 30C13.2272 30 12.8192 29.8364 12.4919 29.5091C12.164 29.1812 12 28.7728 12 28.2841V14.7159C12 14.2272 12.164 13.8192 12.4919 13.4919C12.8192 13.164 13.2272 13 13.7159 13H20.5202V14.0625H13.7159C13.553 14.0625 13.4032 14.1305 13.2665 14.2665C13.1305 14.4032 13.0625 14.553 13.0625 14.7159V28.2841C13.0625 28.447 13.1305 28.5968 13.2665 28.7335C13.4032 28.8695 13.553 28.9375 13.7159 28.9375H20.5202V30H13.7159ZM25.2409 25.2591L24.495 24.4952L26.9589 22.0312H17.5165V20.9688H26.9589L24.4939 18.5038L25.2409 17.7409L29 21.5L25.2409 25.2591Z" fill="#EA6A12"/>
</svg>
