<svg width="17" height="17" viewBox="0 0 17 17" fill="none" xmlns="http://www.w3.org/2000/svg">
<path opacity="0.4" d="M11.8038 0.766846H14.4884C15.6003 0.766846 16.5012 1.67537 16.5012 2.79659V5.50393C16.5012 6.62515 15.6003 7.53367 14.4884 7.53367H11.8038C10.6919 7.53367 9.79102 6.62515 9.79102 5.50393V2.79659C9.79102 1.67537 10.6919 0.766846 11.8038 0.766846" fill="white"/>
<path fill-rule="evenodd" clip-rule="evenodd" d="M2.65731 0.766846H5.34197C6.4538 0.766846 7.35472 1.67537 7.35472 2.79659V5.50393C7.35472 6.62515 6.4538 7.53367 5.34197 7.53367H2.65731C1.54548 7.53367 0.644561 6.62515 0.644561 5.50393V2.79659C0.644561 1.67537 1.54548 0.766846 2.65731 0.766846ZM2.65728 9.85758H5.34194C6.45377 9.85758 7.35469 10.7661 7.35469 11.8873V14.5947C7.35469 15.7151 6.45377 16.6244 5.34194 16.6244H2.65728C1.54545 16.6244 0.644531 15.7151 0.644531 14.5947V11.8873C0.644531 10.7661 1.54545 9.85758 2.65728 9.85758ZM14.4879 9.85699H11.8033C10.6914 9.85699 9.79053 10.7655 9.79053 11.8867V14.5941C9.79053 15.7145 10.6914 16.6238 11.8033 16.6238H14.4879C15.5998 16.6238 16.5007 15.7145 16.5007 14.5941V11.8867C16.5007 10.7655 15.5998 9.85699 14.4879 9.85699Z" fill="white"/>
</svg>
