<svg width="21" height="22" viewBox="0 0 21 22" fill="none" xmlns="http://www.w3.org/2000/svg">
<path d="M10.5 11.8398C9.57174 11.8398 8.6815 12.2086 8.02513 12.865C7.36875 13.5213 7 14.4116 7 15.3398C7 16.2681 7.36875 17.1583 8.02513 17.8147C8.6815 18.4711 9.57174 18.8398 10.5 18.8398C11.4283 18.8398 12.3185 18.4711 12.9749 17.8147C13.6313 17.1583 14 16.2681 14 15.3398C14 14.4116 13.6313 13.5213 12.9749 12.865C12.3185 12.2086 11.4283 11.8398 10.5 11.8398ZM9 15.3398C9 14.942 9.15804 14.5605 9.43934 14.2792C9.72064 13.9979 10.1022 13.8398 10.5 13.8398C10.8978 13.8398 11.2794 13.9979 11.5607 14.2792C11.842 14.5605 12 14.942 12 15.3398C12 15.7377 11.842 16.1192 11.5607 16.4005C11.2794 16.6818 10.8978 16.8398 10.5 16.8398C10.1022 16.8398 9.72064 16.6818 9.43934 16.4005C9.15804 16.1192 9 15.7377 9 15.3398Z" fill="#B2B2B2"/>
<path d="M16.026 4.457L12.847 0L1.158 9.338L0.51 9.331V9.341H0V21.341H21V9.341H20.038L18.124 3.742L16.026 4.457ZM17.925 9.341H7.897L15.366 6.795L16.888 6.308L17.925 9.341ZM14.05 5.131L6.34 7.759L12.446 2.881L14.05 5.131ZM2 17.51V13.17C2.4219 13.0205 2.80511 12.7787 3.1217 12.4623C3.43828 12.1459 3.68027 11.7628 3.83 11.341H17.17C17.3197 11.763 17.5616 12.1462 17.8782 12.4628C18.1948 12.7794 18.578 13.0213 19 13.171V17.511C18.578 17.6607 18.1948 17.9026 17.8782 18.2192C17.5616 18.5358 17.3197 18.919 17.17 19.341H3.832C3.68218 18.9187 3.43996 18.5351 3.12302 18.2184C2.80607 17.9016 2.4224 17.6596 2 17.51Z" fill="#DADADA"/>
</svg>
