<svg width="18" height="21" viewBox="0 0 18 21" fill="none" xmlns="http://www.w3.org/2000/svg">
<path d="M14.4805 20H3.51953C2.85131 20 2.21046 19.7482 1.73795 19.3C1.26545 18.8517 1 18.2438 1 17.6099V16.8193C1 13.0249 4.58881 9.93595 9 9.93595C13.4112 9.93595 17 13.0229 17 16.8193V17.6099C17 18.2438 16.7346 18.8517 16.262 19.3C15.7895 19.7482 15.1487 20 14.4805 20ZM9 10.8939C5.14412 10.8939 2.00781 13.5516 2.00781 16.8212V17.6119C2.00781 17.9922 2.16708 18.3569 2.45058 18.6259C2.73408 18.8948 3.11859 19.0459 3.51953 19.0459H14.4805C14.8814 19.0459 15.2659 18.8948 15.5494 18.6259C15.8329 18.3569 15.9922 17.9922 15.9922 17.6119V16.8193C15.9922 13.5516 12.8559 10.8939 9 10.8939ZM9 8.50287C8.2178 8.50306 7.45311 8.2832 6.80264 7.8711C6.15217 7.459 5.64514 6.87318 5.34566 6.18771C5.04619 5.50224 4.96773 4.74792 5.12021 4.02015C5.27269 3.29238 5.64925 2.62385 6.20228 2.09911C6.7553 1.57437 7.45995 1.21698 8.22711 1.07215C8.99426 0.927327 9.78946 1.00156 10.5121 1.28547C11.2348 1.56938 11.8525 2.05021 12.2871 2.66715C12.7217 3.28409 12.9536 4.00943 12.9536 4.75144C12.9528 5.74598 12.5361 6.69958 11.7948 7.40292C11.0536 8.10626 10.0484 8.50186 9 8.50287ZM9 1.95698C8.41709 1.95679 7.84721 2.1206 7.36245 2.42769C6.87769 2.73478 6.49983 3.17136 6.27666 3.68219C6.0535 4.19303 5.99506 4.75517 6.10873 5.29751C6.2224 5.83986 6.50308 6.33804 6.91526 6.72904C7.32745 7.12005 7.85262 7.3863 8.42434 7.49413C8.99607 7.60197 9.58866 7.54653 10.1272 7.33483C10.6657 7.12313 11.1259 6.76469 11.4496 6.30484C11.7733 5.84499 11.946 5.3044 11.9458 4.75144C11.945 4.01053 11.6344 3.30019 11.0821 2.7763C10.5299 2.2524 9.78104 1.95774 9 1.95698Z" fill="#B7B7B9" stroke="#B7B7B9" stroke-width="0.5"/>
</svg>
