<svg width="86" height="91" viewBox="0 0 86 91" fill="none" xmlns="http://www.w3.org/2000/svg">
<g id="Group 33604">
<path id="Ellipse 144" d="M44.4591 8.17875C44.5206 6.49608 43.205 5.07083 41.5222 5.12862C33.9539 5.3885 26.5686 7.64158 20.1257 11.6843C12.8201 16.2684 7.06402 22.9415 3.60569 30.8362C0.147358 38.731 -0.853289 47.4822 0.733814 55.9525C2.32092 64.4228 6.42237 72.2203 12.5051 78.3316C18.5877 84.4429 26.3703 88.5853 34.8413 90.2203C43.3122 91.8553 52.0797 90.9074 60.0041 87.4997C67.9285 84.0921 74.6433 78.3823 79.2758 71.1125C83.36 64.7031 85.6591 57.3425 85.9649 49.7873C86.0331 48.1031 84.6141 46.7777 82.9292 46.8293V46.8293C81.2442 46.8809 79.9333 48.2907 79.8453 49.9742C79.5143 56.3048 77.5522 62.4618 74.1259 67.8387C70.1511 74.0764 64.3895 78.9756 57.5901 81.8995C50.7907 84.8234 43.2679 85.6368 35.9995 84.2339C28.7312 82.8309 22.0534 79.2766 16.8343 74.0329C11.6151 68.7893 8.09591 62.0987 6.73412 54.8309C5.37233 47.5631 6.23092 40.0542 9.19829 33.2802C12.1657 26.5063 17.1046 20.7805 23.3731 16.8472C28.7786 13.4554 34.9573 11.5317 41.3 11.2396C42.9818 11.1621 44.3975 9.86122 44.4591 8.17875V8.17875Z" fill="#EA6A12"/>
<path id="Rectangle 575" d="M40.0136 54.5643L76.8701 18.1495C78.1796 16.8557 80.2738 16.8169 81.6303 18.0614V18.0614C83.0887 19.3993 83.1259 21.687 81.7118 23.0717L40.0135 63.9056L21.8386 46.082C20.6265 44.8933 20.6169 42.9441 21.8173 41.7435V41.7435C22.9764 40.5842 24.8443 40.5472 26.0483 41.6598L40.0136 54.5643Z" fill="#EA6A12"/>
</g>
</svg>
