<svg width="24" height="28" viewBox="0 0 24 28" fill="none" xmlns="http://www.w3.org/2000/svg">
<path d="M22.6168 13.3192C21.6081 12.1412 21.1497 11.1204 21.1497 9.38613V8.79645C21.1497 6.5365 20.6296 5.08039 19.4987 3.62428C17.7557 1.36293 14.8215 0 11.949 0H11.8269C9.01481 0 6.17254 1.30035 4.39938 3.46991C3.20676 4.95522 2.62623 6.47391 2.62623 8.79645V9.38613C2.62623 11.1204 2.19803 12.1412 1.15911 13.3192C0.39468 14.187 0.150391 15.3024 0.150391 16.5095C0.150391 17.7181 0.547018 18.8627 1.34302 19.7931C2.38194 20.9084 3.84905 21.6205 5.34772 21.7443C7.51751 21.9918 9.68729 22.085 11.8886 22.085C14.0886 22.085 16.2584 21.9292 18.4296 21.7443C19.9269 21.6205 21.394 20.9084 22.4329 19.7931C23.2275 18.8627 23.6255 17.7181 23.6255 16.5095C23.6255 15.3024 23.3812 14.187 22.6168 13.3192Z" fill="#EA6A12"/>
<path opacity="0.4" d="M14.6611 23.7902C13.9708 23.6428 9.76434 23.6428 9.07401 23.7902C8.48388 23.9265 7.8457 24.2436 7.8457 24.9389C7.88001 25.6023 8.26841 26.1878 8.80639 26.5592L8.80502 26.5606C9.50083 27.1029 10.3174 27.4478 11.1724 27.5716C11.6281 27.6342 12.092 27.6314 12.5641 27.5716C13.4177 27.4478 14.2343 27.1029 14.9301 26.5606L14.9287 26.5592C15.4667 26.1878 15.8551 25.6023 15.8894 24.9389C15.8894 24.2436 15.2512 23.9265 14.6611 23.7902Z" fill="#EA6A12"/>
</svg>
