<svg width="10" height="10" viewBox="0 0 10 10" fill="none" xmlns="http://www.w3.org/2000/svg">
<path id="Vector" d="M1.00937 10C0.721875 10 0.481875 9.90375 0.289375 9.71125C0.0964582 9.51833 0 9.27812 0 8.99063V1.00937C0 0.721875 0.0964582 0.481875 0.289375 0.289375C0.481875 0.0964582 0.721875 0 1.00937 0H5.01188V0.625H1.00937C0.913541 0.625 0.825417 0.665 0.745 0.745C0.665 0.825417 0.625 0.913541 0.625 1.00937V8.99063C0.625 9.08646 0.665 9.17458 0.745 9.255C0.825417 9.335 0.913541 9.375 1.00937 9.375H5.01188V10H1.00937ZM7.78875 7.21125L7.35 6.76188L8.79938 5.3125H3.245V4.6875H8.79938L7.34937 3.2375L7.78875 2.78875L10 5L7.78875 7.21125Z" fill="#EA6A12"/>
</svg>
