<svg width="52" height="52" viewBox="0 0 52 52" fill="none" xmlns="http://www.w3.org/2000/svg">
<circle cx="26" cy="26" r="26" fill="#EA6A12"/>
<path fill-rule="evenodd" clip-rule="evenodd" d="M35.0467 9.00067C35.2354 8.99423 35.3134 9.0329 35.4175 9.16827C35.5476 9.34232 35.5541 9.43256 35.5476 13.8288H36.5558C37.2322 13.8288 37.616 13.8546 37.7266 13.9126C37.8176 13.9513 37.9217 14.0609 37.9542 14.1511C37.9997 14.2543 38.0128 19.0566 37.9867 41.7534L37.8241 41.8758C37.6615 41.9983 37.5054 42.0048 21.6931 41.9983L21.5305 41.8372C21.4394 41.7469 21.3679 41.6051 21.3679 41.5149C21.3679 41.4246 21.4394 41.2828 21.6866 41.0314H37.0436V14.7957H34.65C32.2693 14.7957 32.2628 14.7957 32.1132 14.6475C32.0287 14.5701 31.9701 14.4283 31.9701 14.3316C31.9701 14.2285 32.0417 14.0802 32.1327 13.99C32.2888 13.8288 32.3018 13.8288 34.5719 13.8288L34.5654 10.1223L29.8627 11.2826C25.4266 12.3784 25.1469 12.4365 24.9843 12.3462C24.8868 12.2946 24.7827 12.1722 24.7502 12.0755C24.7046 11.9401 24.7111 11.8434 24.7827 11.7016C24.8542 11.5662 24.9518 11.4889 25.1209 11.4437C25.2575 11.4115 27.43 10.8765 29.9537 10.2512C32.4775 9.63239 34.5979 9.09736 34.6695 9.06513C34.741 9.02646 34.9101 9.00067 35.0402 9.00067H35.0467ZM23.3257 11.9014C23.3777 11.895 23.5013 11.9465 23.5989 12.0239C23.7355 12.1206 23.781 12.2044 23.781 12.3784C23.781 12.5331 23.7355 12.6427 23.6314 12.733C23.5338 12.8168 22.9224 12.9973 21.7321 13.2873C20.7629 13.5258 19.9304 13.745 19.8783 13.7708C19.8263 13.803 22.2004 13.8288 25.16 13.8288C28.6268 13.8288 30.5977 13.8546 30.6887 13.8933C30.7733 13.9319 30.8774 14.0286 30.9164 14.1189C30.9619 14.2091 31.001 14.3252 31.001 14.3767C31.001 14.4283 30.9294 14.5443 30.6822 14.7957H15.9757V41.0314H18.0051C19.9499 41.025 20.0475 41.0314 20.2166 41.1603C20.3402 41.2441 20.3987 41.3473 20.3987 41.4697C20.4052 41.5664 20.3467 41.7211 20.1385 41.9983H15.3252L15 41.676V27.978C15 17.1486 15.0195 14.2478 15.0781 14.1189C15.1236 14.0286 15.2081 13.9384 15.2602 13.9126C15.3122 13.8933 17.127 13.4356 19.2929 12.8941C21.4589 12.3527 23.2737 11.9014 23.3257 11.9014ZM30.5196 19.8882C30.6562 19.8882 30.7928 19.9397 30.8709 20.0171C30.9424 20.088 31.001 20.2298 31.001 20.3394C31.001 20.4941 30.8969 20.6359 30.4286 21.1C30.1163 21.4094 29.7261 21.8349 29.5635 22.0476C29.4009 22.2603 29.1732 22.5955 29.0626 22.7889C28.9521 22.9823 28.8285 23.3046 28.7894 23.498C28.7504 23.6914 28.7374 23.8719 28.7699 23.8976C28.7959 23.9234 29.4529 23.3239 30.2204 22.5633C31.4693 21.3256 31.6384 21.1774 31.827 21.1774C31.9571 21.1774 32.0937 21.2289 32.1718 21.3063C32.2498 21.3837 32.3018 21.519 32.3018 21.6479C32.3018 21.8284 32.1457 22.0089 29.4724 24.6583H29.7651C29.9537 24.6583 30.2009 24.5938 30.4481 24.4778C30.6627 24.3746 31.0725 24.1168 31.3587 23.8976C31.6449 23.6849 32.1067 23.2724 32.3799 22.9887C32.8222 22.5311 32.9133 22.4666 33.1149 22.4666C33.258 22.4666 33.3946 22.5182 33.4726 22.5955C33.5507 22.6729 33.6027 22.8082 33.6027 22.9372C33.5962 23.1112 33.5052 23.2337 33.0303 23.7107C32.7181 24.0266 32.2888 24.4198 32.0742 24.5874C31.8595 24.755 31.5083 24.9999 31.2937 25.1224C31.079 25.2513 30.7148 25.4189 30.4806 25.4963C30.2334 25.5736 29.8952 25.6381 29.6675 25.6381C29.4334 25.6381 29.1602 25.5865 28.7179 25.3996L27.3585 26.7533L29.0561 28.4293C30.6497 30.0021 30.7538 30.1181 30.7473 30.3309C30.7473 30.4533 30.6887 30.608 30.6302 30.6725C30.5587 30.737 30.4221 30.7885 30.2855 30.7821C30.0773 30.7821 29.9277 30.6532 26.6755 27.4301L24.9843 29.1061C23.3777 30.6983 23.2802 30.7821 23.046 30.7821C22.8574 30.7821 22.7793 30.7434 22.6753 30.608C22.5972 30.5049 22.5452 30.3695 22.5452 30.2986C22.5452 30.2213 23.1956 29.5251 25.9925 26.7533L24.3339 25.1288L24.0412 25.2449C23.8656 25.3158 23.5729 25.3609 23.3062 25.3609C23.0005 25.3673 22.7208 25.3158 22.363 25.1997C22.0899 25.1095 21.6736 24.9097 21.4394 24.755C21.2052 24.6067 20.8735 24.3231 20.6979 24.1361C20.5223 23.9428 20.2946 23.614 20.1906 23.4013C20.093 23.1886 19.9824 22.8405 19.9434 22.6278C19.9 22.3699 19.9 22.1293 19.9434 21.9058C19.9759 21.7189 20.08 21.4288 20.1645 21.2612C20.2491 21.0871 20.4507 20.8293 20.6068 20.6875C20.7564 20.5392 21.0101 20.3587 21.1597 20.2814C21.3158 20.204 21.5955 20.1138 21.7776 20.0815C22.0248 20.03 22.2395 20.03 22.5452 20.0815C22.7793 20.1267 23.1306 20.2362 23.3257 20.3265C23.5469 20.4296 23.8656 20.681 24.1713 20.984C24.4835 21.2934 24.7372 21.6157 24.8738 21.8864C24.9908 22.1185 25.1274 22.4666 25.1795 22.66C25.2315 22.8534 25.277 23.1886 25.277 23.4013C25.277 23.614 25.225 23.9428 25.0494 24.4713L25.8299 25.2384C26.2592 25.6639 26.6365 26.012 26.6755 26.012C26.708 26.012 27.0267 25.7283 28.0154 24.755L27.9178 24.5294C27.8658 24.4069 27.8008 24.1555 27.7813 23.9814C27.7487 23.7623 27.7682 23.5238 27.8463 23.2401C27.9048 23.0081 28.0674 22.602 28.204 22.3377C28.3471 22.0734 28.6659 21.6093 28.9065 21.3063C29.1537 21.0033 29.5635 20.565 29.8302 20.32C30.2204 19.9655 30.3375 19.8882 30.5196 19.8882ZM21.7451 21.0742C21.6476 21.0936 21.4524 21.2225 21.3028 21.3579C21.1207 21.5255 21.0101 21.6931 20.9451 21.9187C20.8735 22.1701 20.867 22.3119 20.9191 22.5633C20.9581 22.7438 21.0882 23.0403 21.2118 23.2272C21.3353 23.4077 21.5955 23.6785 21.7776 23.8138C21.9663 23.9557 22.2655 24.1361 22.4476 24.2135C22.6297 24.2973 22.9549 24.3682 23.1956 24.3811C23.5273 24.4069 23.6639 24.3811 23.8461 24.2844C23.9696 24.2135 24.1257 24.0588 24.1908 23.9428C24.2819 23.7752 24.3014 23.6205 24.2884 23.3046C24.2688 22.9952 24.2103 22.7696 24.0542 22.4537C23.9241 22.183 23.7095 21.88 23.4883 21.6608C23.2932 21.4675 23.007 21.2483 22.8509 21.1838C22.7013 21.1129 22.4606 21.042 22.3175 21.0227C22.1744 21.0033 22.0248 20.9969 21.9923 21.0098C21.9533 21.0291 21.8492 21.0549 21.7451 21.0742ZM26.4934 33.4314C30.396 33.425 31.5603 33.4443 31.6839 33.5088C31.775 33.5475 31.8726 33.6506 31.9116 33.7344C31.9441 33.8118 31.9766 33.9213 31.9766 33.9729C31.9766 34.0245 31.9051 34.1405 31.6579 34.3919H21.3093L21.1792 34.2179C21.1012 34.1147 21.0426 33.9987 21.0491 33.96C21.0491 33.9149 21.0882 33.8053 21.1272 33.7151C21.1727 33.6248 21.2703 33.5281 21.3418 33.4959C21.4199 33.4572 23.5338 33.4314 26.4934 33.4314ZM26.4869 36.0034C28.3276 36.0034 29.8757 36.0228 29.9342 36.055C29.9928 36.0808 30.0838 36.1775 30.1294 36.2806C30.1879 36.3902 30.2009 36.5191 30.1684 36.6287C30.1424 36.719 30.0643 36.835 29.9928 36.8865C29.8887 36.9575 29.2187 36.9703 26.5129 36.9768C23.2867 36.9768 23.1566 36.9703 23.0005 36.8479C22.8769 36.7576 22.8379 36.6609 22.8379 36.4869C22.8379 36.3128 22.8834 36.2162 22.994 36.1259C23.1371 36.0099 23.2932 36.0034 26.4869 36.0034Z" fill="white"/>
</svg>
