<svg width="22" height="22" viewBox="0 0 22 22" fill="none" xmlns="http://www.w3.org/2000/svg">
<path fill-rule="evenodd" clip-rule="evenodd" d="M1.6543 0.00429771L15.4902 0L15.7695 0.107443C15.9242 0.167611 16.1262 0.262161 16.2207 0.318031C16.3152 0.373901 16.4957 0.532917 16.6246 0.670443C16.7535 0.812268 16.9125 1.04005 16.977 1.18187C17.0457 1.3237 17.1188 1.54718 17.1445 1.67611C17.1746 1.82653 17.1832 2.91815 17.1789 4.6931C17.166 7.39637 17.1617 7.47373 17.0801 7.58976C17.0328 7.64993 16.9383 7.74448 16.8738 7.79605C16.7793 7.86482 16.6891 7.88631 16.5 7.88631C16.3109 7.88631 16.2207 7.86482 16.1262 7.79605C16.0617 7.74448 15.9672 7.64993 15.9199 7.58976C15.8383 7.47373 15.834 7.38777 15.8125 4.64153C15.791 1.83942 15.791 1.80934 15.7008 1.689C15.6492 1.62454 15.5547 1.52999 15.4945 1.48271C15.3785 1.39676 15.3098 1.39676 1.80898 1.39676L1.68867 1.48701C1.62422 1.53858 1.52969 1.63313 1.48242 1.6933C1.39648 1.80934 1.39648 1.8781 1.39648 10.3145C1.39648 18.7509 1.39648 18.8197 1.48242 18.9357C1.52969 18.9959 1.62422 19.0904 1.68867 19.142C1.80898 19.2323 1.81758 19.2323 5.84375 19.2538C9.79258 19.2753 9.87852 19.2752 9.99453 19.3612C10.0547 19.4085 10.1492 19.503 10.2008 19.5675C10.2695 19.662 10.291 19.7523 10.291 19.9414C10.291 20.1305 10.2695 20.2207 10.2008 20.3153C10.1492 20.3798 10.0547 20.4743 9.99453 20.5216C9.87852 20.6075 9.80117 20.6075 5.89531 20.6204C3.3043 20.6247 1.83047 20.6161 1.67578 20.5861C1.54688 20.5603 1.31484 20.4829 1.16016 20.4098C0.979688 20.3239 0.786328 20.1821 0.61875 20.0145C0.472656 19.8683 0.305078 19.6449 0.240625 19.5202C0.180469 19.3999 0.0988281 19.185 0.0644531 19.0475C0.00859375 18.8326 0 17.7324 0 10.3145C0 2.89666 0.00859375 1.79644 0.0644531 1.57726C0.0988281 1.44403 0.176172 1.24204 0.232031 1.126C0.287891 1.01426 0.421094 0.825161 0.524219 0.709123C0.631641 0.588787 0.794922 0.442665 0.885156 0.378199C0.975391 0.313733 1.18594 0.201993 1.35352 0.133229L1.6543 0.00429771ZM17.1789 9.28306C17.252 9.28306 17.3809 9.30885 17.4539 9.33893C17.5313 9.37332 18.034 9.84177 18.5711 10.3833C19.3617 11.1784 19.5508 11.3932 19.5723 11.5136C19.5895 11.5995 19.5895 11.7414 19.5723 11.8359C19.5465 11.9906 19.4348 12.1196 18.5281 13.0264C17.6215 13.9332 17.4926 14.0492 17.3379 14.075C17.2434 14.0922 17.0973 14.0879 17.0156 14.0707C16.9297 14.0535 16.8008 13.9762 16.7105 13.8859C16.6046 13.7799 16.5415 13.6696 16.5215 13.555C16.5043 13.4604 16.5043 13.3186 16.5215 13.2327C16.543 13.1252 16.6504 12.9834 17.252 12.3645L16.543 12.386C16.1133 12.4032 15.7266 12.4376 15.5633 12.4806C15.4172 12.5149 15.1465 12.6052 14.9617 12.674C14.7813 12.7427 14.4762 12.9017 14.2871 13.0221C14.098 13.1467 13.8016 13.3831 13.6297 13.5507C13.4535 13.7183 13.2 14.0234 13.0668 14.2211C12.9293 14.4231 12.7574 14.7498 12.6844 14.9432C12.607 15.1366 12.5168 15.4202 12.4824 15.5663C12.4438 15.7124 12.4051 16.0477 12.3879 16.3055C12.3707 16.6493 12.3836 16.89 12.4352 17.178C12.4738 17.3971 12.5598 17.7367 12.6328 17.9301C12.7016 18.1235 12.8605 18.4501 12.9852 18.6478C13.1098 18.8498 13.3547 19.1678 13.5352 19.3526C13.7113 19.5374 14.0121 19.7953 14.2012 19.9199C14.3902 20.0445 14.691 20.2079 14.8672 20.2852C15.0434 20.3583 15.3355 20.4571 15.5117 20.5044C15.6879 20.5517 16.0445 20.5989 16.3066 20.6118C16.6461 20.629 16.891 20.6161 17.1746 20.5689C17.3938 20.5302 17.7332 20.4399 17.9266 20.3669C18.1242 20.2981 18.4465 20.1391 18.6484 20.0188C18.8805 19.8769 19.1598 19.6534 19.4047 19.4042C19.6496 19.1592 19.8773 18.8799 20.0148 18.6478C20.1395 18.4501 20.2984 18.1235 20.3672 17.9301C20.4402 17.7367 20.5262 17.4057 20.5605 17.1995C20.5949 16.9932 20.625 16.7224 20.625 16.5978C20.625 16.4731 20.6508 16.3098 20.6809 16.2325C20.7152 16.1551 20.8012 16.0391 20.8742 15.9746C20.9516 15.9101 21.0762 15.8457 21.1492 15.8285C21.2266 15.8156 21.3684 15.8156 21.4629 15.8328C21.5875 15.8543 21.6863 15.9144 22 16.2411V16.6408C22 16.8943 21.9613 17.2166 21.8969 17.5304C21.841 17.8054 21.7336 18.1922 21.6605 18.3899C21.5832 18.5919 21.4457 18.9013 21.3512 19.0776C21.2523 19.2581 21.0676 19.5546 20.9344 19.7394C20.7969 19.9242 20.5133 20.2465 20.3027 20.4485C20.0879 20.6548 19.7527 20.9299 19.5508 21.0631C19.3488 21.1963 19.0652 21.3639 18.9148 21.437C18.7688 21.5101 18.4809 21.6304 18.2703 21.6992C18.0641 21.7679 17.7031 21.8668 17.4668 21.914C17.1703 21.9742 16.8695 22 16.5 22C16.1176 22 15.8383 21.9742 15.5332 21.914C15.2969 21.8625 14.9273 21.7636 14.7168 21.6949C14.502 21.6261 14.1668 21.48 13.9648 21.3725C13.7629 21.2651 13.4492 21.0674 13.2602 20.9342C13.0754 20.8009 12.7574 20.5173 12.5512 20.3024C12.3449 20.0918 12.0656 19.7523 11.9367 19.5503C11.8035 19.3526 11.6402 19.069 11.5672 18.9271C11.4984 18.7853 11.3824 18.506 11.3094 18.304C11.2406 18.1063 11.1461 17.7753 11.1031 17.5734C11.043 17.3026 11.0258 17.0275 11.0258 16.4989C11.0258 15.9746 11.043 15.6953 11.1031 15.4245C11.1461 15.2268 11.2406 14.8959 11.3094 14.6939C11.3824 14.4962 11.4984 14.2125 11.5672 14.0707C11.6402 13.9289 11.8035 13.6495 11.9324 13.4475C12.0742 13.2327 12.3535 12.8974 12.6285 12.6267C12.8992 12.3559 13.2301 12.0766 13.4492 11.9348C13.6512 11.8058 13.9305 11.6382 14.0723 11.5694C14.2141 11.4964 14.4762 11.3889 14.6523 11.3245C14.8285 11.26 15.1379 11.1698 15.3398 11.1225C15.5805 11.0666 15.9586 11.0279 17.2262 10.9764L16.8867 10.6325C16.6203 10.3575 16.5473 10.2543 16.5215 10.1168C16.5043 10.0223 16.5043 9.88474 16.5172 9.80738C16.5301 9.73003 16.5902 9.60539 16.6418 9.53233C16.6977 9.45927 16.8094 9.37332 16.891 9.33893C16.9727 9.30885 17.1016 9.28306 17.1746 9.28306H17.1789ZM6.41523 13.0736C9.17383 13.0822 9.19531 13.0865 9.31562 13.1768C9.38008 13.2241 9.47461 13.3186 9.52188 13.3831C9.58633 13.469 9.60781 13.5679 9.60781 13.7484C9.60781 13.9332 9.58633 14.032 9.52188 14.118C9.47461 14.1825 9.38008 14.277 9.31562 14.3243C9.19531 14.4145 9.16953 14.4145 6.4582 14.4274C4.76953 14.436 3.66523 14.4274 3.5707 14.4016C3.48906 14.3759 3.35586 14.2899 3.27852 14.2039C3.19688 14.1137 3.12813 13.9848 3.11523 13.8902C3.10234 13.8 3.10234 13.6667 3.11523 13.5894C3.12813 13.512 3.18828 13.3874 3.23984 13.3143C3.2957 13.2413 3.40742 13.1553 3.48906 13.1209C3.60508 13.0779 4.17656 13.0651 6.41523 13.0736ZM6.41523 15.8242C9.17383 15.8328 9.19531 15.8371 9.31562 15.9273C9.38008 15.9746 9.47461 16.0692 9.52188 16.1336C9.58633 16.2196 9.60781 16.3184 9.60781 16.4989C9.60781 16.6837 9.58633 16.7826 9.52188 16.8685C9.47461 16.933 9.38008 17.0275 9.31562 17.0748C9.19531 17.1651 9.16953 17.1651 6.4582 17.178C4.76953 17.1866 3.66523 17.178 3.5707 17.1522C3.48906 17.1264 3.35586 17.0404 3.27852 16.9545C3.19688 16.8642 3.12813 16.7353 3.11523 16.6408C3.10234 16.5505 3.10234 16.4173 3.11523 16.3399C3.12813 16.2626 3.18828 16.1379 3.23984 16.0649C3.2957 15.9918 3.40742 15.9058 3.48906 15.8715C3.60508 15.8285 4.17656 15.8156 6.41523 15.8242Z" fill="white"/>
<path d="M8.98008 3.54991C8.92422 3.50693 8.77813 3.46395 8.66211 3.45106C8.5332 3.44246 8.38711 3.45965 8.30117 3.49404C8.21953 3.52842 8.10781 3.61437 8.05195 3.68743C8.00039 3.76049 7.94453 3.88513 7.93164 3.96249C7.91875 4.03985 7.90586 4.19886 7.90156 4.3149L7.88867 4.52549C7.48906 4.60714 7.25703 4.67161 7.11524 4.72318C6.97344 4.77475 6.70273 4.89509 6.51367 4.99824C6.32461 5.09708 6.05391 5.26899 5.91211 5.37643C5.77031 5.48388 5.5168 5.71595 5.35352 5.89216C5.18594 6.06407 4.98398 6.31334 4.89805 6.44227C4.81211 6.5755 4.67461 6.81617 4.58867 6.97948C4.50703 7.14709 4.39102 7.44793 4.33086 7.64563C4.2707 7.84762 4.21055 8.0668 4.19766 8.13127C4.17195 8.24695 4.16333 8.24731 3.85678 8.26008L3.85391 8.2602C3.60469 8.2688 3.50586 8.29028 3.41133 8.36335C3.34688 8.41062 3.25234 8.50517 3.20508 8.56964C3.14062 8.65559 3.11914 8.75444 3.11914 8.93494C3.11914 9.12404 3.14063 9.21859 3.20938 9.30884C3.26094 9.37761 3.35547 9.46786 3.41563 9.51513C3.53164 9.60109 3.60039 9.60109 8.59766 9.60109H13.6637C13.8484 9.46356 13.943 9.36901 13.9902 9.30455C14.0547 9.21859 14.0762 9.11974 14.0762 8.93494C14.0762 8.74584 14.0547 8.65559 13.9859 8.56534C13.9344 8.49658 13.8398 8.40203 13.7754 8.35475C13.6938 8.29458 13.5691 8.2645 13.3371 8.24731L13.0105 8.22582C12.9246 7.82613 12.8602 7.59406 12.8086 7.45223C12.7613 7.31041 12.6367 7.03965 12.5379 6.85055C12.4348 6.66145 12.2672 6.39069 12.1598 6.24887C12.048 6.10705 11.8117 5.85348 11.6313 5.68157C11.4508 5.50966 11.2016 5.30337 11.077 5.22601C10.9566 5.14436 10.716 5.01113 10.5527 4.92947C10.3852 4.84782 10.1273 4.74037 9.97266 4.6888C9.81797 4.63723 9.60742 4.58136 9.5 4.56417L9.30664 4.52978C9.26797 3.95819 9.24219 3.84215 9.17344 3.7519C9.12188 3.68313 9.03594 3.59288 8.98008 3.54991Z" fill="#F2A671"/>
</svg>
