<svg width="22" height="18" viewBox="0 0 22 18" fill="none" xmlns="http://www.w3.org/2000/svg">
<path d="M1 14.5C1 13.565 1 13.098 1.201 12.75C1.33265 12.522 1.52199 12.3326 1.75 12.201C2.098 12 2.565 12 3.5 12C4.435 12 4.902 12 5.25 12.201C5.47801 12.3326 5.66735 12.522 5.799 12.75C6 13.098 6 13.565 6 14.5C6 15.435 6 15.902 5.799 16.25C5.66735 16.478 5.47801 16.6674 5.25 16.799C4.902 17 4.435 17 3.5 17C2.565 17 2.098 17 1.75 16.799C1.52199 16.6674 1.33265 16.478 1.201 16.25C1 15.902 1 15.435 1 14.5Z" stroke="#EA6A12" stroke-width="1.5"/>
<path opacity="0.5" d="M8.5 14.5C8.5 13.565 8.5 13.098 8.701 12.75C8.83265 12.522 9.02199 12.3326 9.25 12.201C9.598 12 10.065 12 11 12C11.935 12 12.402 12 12.75 12.201C12.978 12.3326 13.1674 12.522 13.299 12.75C13.5 13.098 13.5 13.565 13.5 14.5C13.5 15.435 13.5 15.902 13.299 16.25C13.1674 16.478 12.978 16.6674 12.75 16.799C12.402 17 11.935 17 11 17C10.065 17 9.598 17 9.25 16.799C9.02199 16.6674 8.83265 16.478 8.701 16.25C8.5 15.902 8.5 15.435 8.5 14.5Z" stroke="#EA6A12" stroke-width="1.5"/>
<path opacity="0.7" d="M16 14.5C16 13.565 16 13.098 16.201 12.75C16.3326 12.522 16.522 12.3326 16.75 12.201C17.098 12 17.565 12 18.5 12C19.435 12 19.902 12 20.25 12.201C20.478 12.3326 20.6674 12.522 20.799 12.75C21 13.098 21 13.565 21 14.5C21 15.435 21 15.902 20.799 16.25C20.6674 16.478 20.478 16.6674 20.25 16.799C19.902 17 19.435 17 18.5 17C17.565 17 17.098 17 16.75 16.799C16.522 16.6674 16.3326 16.478 16.201 16.25C16 15.902 16 15.435 16 14.5Z" stroke="#EA6A12" stroke-width="1.5"/>
<path d="M3.5 12V6C3.5 3.643 3.5 2.464 4.232 1.732C4.964 1 6.143 1 8.5 1H13.5C15.857 1 17.035 1 17.768 1.732C18.5 2.464 18.5 3.643 18.5 6V9M18.5 9L20.5 7M18.5 9L16.5 7" stroke="#EA6A12" stroke-width="1.5" stroke-linecap="round" stroke-linejoin="round"/>
</svg>
