<svg width="488" height="211" viewBox="0 0 488 211" fill="none" xmlns="http://www.w3.org/2000/svg">
<g filter="url(#filter0_b_152_7345)">
<rect width="488" height="211" rx="19" fill="white" fill-opacity="0.6"/>
</g>
<g opacity="0.5">
<g opacity="0.3">
<path d="M477.456 17.3559C473.084 8.32263 462.427 4.64896 453.653 9.15052C444.879 13.6521 441.311 24.6242 445.684 33.6575C450.056 42.6908 460.713 46.3644 469.486 41.8629C478.26 37.3613 481.828 26.3892 477.456 17.3559Z" fill="#FFF3EB"/>
<path opacity="0.5" d="M354.16 15.9161C352.04 18.9502 350.867 22.5979 350.812 26.3368C351.119 26.3322 351.371 26.5801 351.376 26.8946C351.417 29.4544 351.999 32.0462 353.184 34.4931C354.368 36.9399 356.027 38.9795 357.988 40.5541C358.229 40.7475 358.269 41.1039 358.08 41.3541C361.013 43.5596 364.548 44.792 368.177 44.8763C368.183 44.563 368.435 44.3081 368.744 44.3051C371.266 44.2808 373.821 43.682 376.231 42.4456C378.641 41.2092 380.644 39.4692 382.181 37.4108C382.369 37.1588 382.719 37.1052 382.966 37.2887C385.085 34.2546 386.258 30.6069 386.314 26.868C386.006 26.8726 385.754 26.6247 385.749 26.3102C385.709 23.7504 385.126 21.1586 383.942 18.7117C382.758 16.2649 381.099 14.2253 379.138 12.6507C378.897 12.4573 378.857 12.1008 379.045 11.8506C376.113 9.64519 372.578 8.41282 368.949 8.32843C368.942 8.64183 368.69 8.89673 368.382 8.8997C365.86 8.92394 363.304 9.52274 360.895 10.7592C358.485 11.9956 356.482 13.7356 354.944 15.794C354.756 16.046 354.407 16.0996 354.16 15.9161Z" stroke="#EA6A12" stroke-width="1.13974" stroke-linecap="round" stroke-dasharray="11.4 8.55"/>
<path d="M402.198 176.298C397.835 167.26 387.19 163.591 378.422 168.102C369.653 172.614 366.081 183.597 370.444 192.635C374.806 201.673 385.451 205.343 394.22 200.832C402.988 196.32 406.56 185.336 402.198 176.298Z" fill="#FFF3EB"/>
<rect x="392.365" y="75.6797" width="37.6506" height="35.4988" transform="rotate(90 392.365 75.6797)" fill="#EA6A12"/>
<rect x="336.525" y="134.701" width="37.0808" height="34.9289" transform="rotate(90 336.525 134.701)" stroke="#EA6A12" stroke-width="0.56987" stroke-dasharray="8.55 11.4"/>
<rect x="477.417" y="158.797" width="37.0808" height="34.9289" transform="rotate(90 477.417 158.797)" stroke="#EA6A12" stroke-width="0.56987" stroke-dasharray="8.55 11.4"/>
<path d="M289.636 67.7322L299.247 58.898L299.234 59.4111L289.623 68.2454L289.636 67.7322Z" fill="#EA6A12"/>
<path d="M289.743 63.0779L299.354 54.2437L299.341 54.7568L289.73 63.5911L289.743 63.0779Z" fill="#EA6A12"/>
<path d="M289.85 58.4239L299.462 49.5897L299.449 50.1064L289.837 58.9407L289.85 58.4239Z" fill="#EA6A12"/>
<path d="M289.958 53.7712L299.569 44.937L299.556 45.4501L289.945 54.2843L289.958 53.7712Z" fill="#EA6A12"/>
<path d="M290.064 49.119L299.676 40.2847L299.663 40.7978L290.051 49.6321L290.064 49.119Z" fill="#EA6A12"/>
<path d="M290.172 44.4629L299.783 35.6287L299.77 36.1455L290.158 44.9796L290.172 44.4629Z" fill="#EA6A12"/>
<path d="M290.279 39.8123L299.89 30.978L299.877 31.4948L290.266 40.3255L290.279 39.8123Z" fill="#EA6A12"/>
<path d="M407.496 50.3753L417.106 41.585L417.093 42.0956L407.483 50.8859L407.496 50.3753Z" fill="#EA6A12"/>
<path d="M407.603 45.7443L417.213 36.9541L417.2 37.4648L407.59 46.255L407.603 45.7443Z" fill="#EA6A12"/>
<path d="M407.709 41.1119L417.32 32.3216L417.307 32.8359L407.696 41.6262L407.709 41.1119Z" fill="#EA6A12"/>
<path d="M407.816 36.4827L417.427 27.6925L417.414 28.2031L407.803 36.9934L407.816 36.4827Z" fill="#EA6A12"/>
<path d="M407.922 31.8538L417.532 23.0635L417.519 23.5742L407.909 32.3644L407.922 31.8538Z" fill="#EA6A12"/>
<path d="M408.029 27.2213L417.64 18.431L417.627 18.9453L408.016 27.7355L408.029 27.2213Z" fill="#EA6A12"/>
<path d="M408.136 22.59L417.747 13.7999L417.734 14.3141L408.123 23.1007L408.136 22.59Z" fill="#EA6A12"/>
<path d="M466.243 100.078L475.854 91.2436L475.841 91.7568L466.23 100.591L466.243 100.078Z" fill="#EA6A12"/>
<path d="M466.35 95.4236L475.961 86.5894L475.948 87.1025L466.337 95.9368L466.35 95.4236Z" fill="#EA6A12"/>
<path d="M466.457 90.7677L476.069 81.9334L476.056 82.4502L466.444 91.2844L466.457 90.7677Z" fill="#EA6A12"/>
<path d="M466.565 86.1169L476.176 77.2827L476.163 77.7959L466.552 86.63L466.565 86.1169Z" fill="#EA6A12"/>
<path d="M466.671 81.4647L476.283 72.6304L476.269 73.1435L466.658 81.9778L466.671 81.4647Z" fill="#EA6A12"/>
<path d="M466.779 76.8086L476.39 67.9744L476.377 68.4912L466.765 77.3254L466.779 76.8086Z" fill="#EA6A12"/>
<path d="M466.886 72.158L476.497 63.3237L476.484 63.8405L466.873 72.6712L466.886 72.158Z" fill="#EA6A12"/>
<path d="M339.348 6.61133C339.083 6.61133 338.869 6.82684 338.869 7.0929C338.869 7.35897 339.083 7.57448 339.348 7.57448C339.613 7.57448 339.827 7.35897 339.827 7.0929C339.827 6.82684 339.613 6.61133 339.348 6.61133Z" fill="#EA6A12"/>
<path d="M339.348 11.9219C339.083 11.9219 338.869 12.1374 338.869 12.4035C338.869 12.6695 339.083 12.885 339.348 12.885C339.613 12.885 339.827 12.6695 339.827 12.4035C339.827 12.1374 339.613 11.9219 339.348 11.9219Z" fill="#EA6A12"/>
<path d="M339.348 17.2324C339.083 17.2324 338.869 17.4479 338.869 17.714C338.869 17.9801 339.083 18.1956 339.348 18.1956C339.613 18.1956 339.827 17.9801 339.827 17.714C339.827 17.4479 339.613 17.2324 339.348 17.2324Z" fill="#EA6A12"/>
<path d="M339.348 22.543C339.083 22.543 338.869 22.7585 338.869 23.0246C338.869 23.2906 339.083 23.5062 339.348 23.5062C339.613 23.5062 339.827 23.2906 339.827 23.0246C339.827 22.7585 339.613 22.543 339.348 22.543Z" fill="#EA6A12"/>
<path d="M339.348 27.8555C339.084 27.8555 338.869 28.071 338.869 28.3371C338.869 28.6031 339.084 28.8186 339.348 28.8186C339.613 28.8186 339.828 28.6031 339.828 28.3371C339.828 28.071 339.613 27.8555 339.348 27.8555Z" fill="#EA6A12"/>
<path d="M339.348 33.1641C339.083 33.1641 338.869 33.3796 338.869 33.6457C338.869 33.9117 339.083 34.1272 339.348 34.1272C339.613 34.1272 339.827 33.9117 339.827 33.6457C339.827 33.3796 339.613 33.1641 339.348 33.1641Z" fill="#EA6A12"/>
<path d="M339.348 38.4766C339.084 38.4766 338.869 38.6921 338.869 38.9582C338.869 39.2242 339.084 39.4397 339.348 39.4397C339.613 39.4397 339.828 39.2242 339.828 38.9582C339.828 38.6921 339.613 38.4766 339.348 38.4766Z" fill="#EA6A12"/>
<path d="M339.348 43.7852C339.083 43.7852 338.869 44.0007 338.869 44.2667C338.869 44.5328 339.083 44.7483 339.348 44.7483C339.613 44.7483 339.827 44.5328 339.827 44.2667C339.827 44.0007 339.613 43.7852 339.348 43.7852Z" fill="#EA6A12"/>
<path d="M339.348 49.0977C339.084 49.0977 338.869 49.3132 338.869 49.5792C338.869 49.8453 339.084 50.0608 339.348 50.0608C339.613 50.0608 339.828 49.8453 339.828 49.5792C339.828 49.3132 339.613 49.0977 339.348 49.0977Z" fill="#EA6A12"/>
<path d="M339.348 54.4082C339.084 54.4082 338.869 54.6237 338.869 54.8898C338.869 55.1559 339.084 55.3714 339.348 55.3714C339.613 55.3714 339.828 55.1559 339.828 54.8898C339.828 54.6237 339.613 54.4082 339.348 54.4082Z" fill="#EA6A12"/>
<path d="M339.348 59.7188C339.084 59.7188 338.869 59.9343 338.869 60.2003C338.869 60.4664 339.084 60.6819 339.348 60.6819C339.613 60.6819 339.828 60.4664 339.828 60.2003C339.828 59.9343 339.613 59.7188 339.348 59.7188Z" fill="#EA6A12"/>
<path d="M339.348 65.0293C339.084 65.0293 338.869 65.2448 338.869 65.5109C338.869 65.777 339.084 65.9925 339.348 65.9925C339.613 65.9925 339.828 65.777 339.828 65.5109C339.828 65.2448 339.613 65.0293 339.348 65.0293Z" fill="#EA6A12"/>
<path d="M339.348 70.3398C339.084 70.3398 338.869 70.5554 338.869 70.8214C338.869 71.0875 339.084 71.303 339.348 71.303C339.613 71.303 339.828 71.0875 339.828 70.8214C339.828 70.5554 339.613 70.3398 339.348 70.3398Z" fill="#EA6A12"/>
<path d="M334.13 6.61133C333.865 6.61133 333.651 6.82684 333.651 7.0929C333.651 7.35897 333.865 7.57448 334.13 7.57448C334.395 7.57448 334.609 7.35897 334.609 7.0929C334.612 6.82684 334.395 6.61133 334.13 6.61133Z" fill="#EA6A12"/>
<path d="M334.13 11.9238C333.865 11.9238 333.651 12.1393 333.651 12.4054C333.651 12.6715 333.865 12.887 334.13 12.887C334.395 12.887 334.609 12.6715 334.609 12.4054C334.612 12.1393 334.395 11.9238 334.13 11.9238Z" fill="#EA6A12"/>
<path d="M334.13 17.2324C333.865 17.2324 333.651 17.4479 333.651 17.714C333.651 17.9801 333.865 18.1956 334.13 18.1956C334.395 18.1956 334.609 17.9801 334.609 17.714C334.612 17.4479 334.395 17.2324 334.13 17.2324Z" fill="#EA6A12"/>
<path d="M334.13 22.5449C333.865 22.5449 333.651 22.7604 333.651 23.0265C333.651 23.2926 333.865 23.5081 334.13 23.5081C334.395 23.5081 334.609 23.2926 334.609 23.0265C334.612 22.7604 334.395 22.5449 334.13 22.5449Z" fill="#EA6A12"/>
<path d="M334.13 27.8555C333.865 27.8555 333.651 28.071 333.651 28.3371C333.651 28.6031 333.865 28.8186 334.13 28.8186C334.395 28.8186 334.609 28.6031 334.609 28.3371C334.609 28.071 334.395 27.8555 334.13 27.8555Z" fill="#EA6A12"/>
<path d="M334.13 33.1641C333.865 33.1641 333.651 33.3796 333.651 33.6457C333.651 33.9117 333.865 34.1272 334.13 34.1272C334.395 34.1272 334.609 33.9117 334.609 33.6457C334.609 33.3796 334.395 33.1641 334.13 33.1641Z" fill="#EA6A12"/>
<path d="M334.13 38.4766C333.865 38.4766 333.651 38.6921 333.651 38.9582C333.651 39.2242 333.865 39.4397 334.13 39.4397C334.395 39.4397 334.609 39.2242 334.609 38.9582C334.612 38.6921 334.395 38.4766 334.13 38.4766Z" fill="#EA6A12"/>
<path d="M334.13 43.7852C333.865 43.7852 333.651 44.0007 333.651 44.2667C333.651 44.5328 333.865 44.7483 334.13 44.7483C334.395 44.7483 334.609 44.5328 334.609 44.2667C334.612 44.0007 334.395 43.7852 334.13 43.7852Z" fill="#EA6A12"/>
<path d="M334.13 49.0977C333.865 49.0977 333.651 49.3132 333.651 49.5792C333.651 49.8453 333.865 50.0608 334.13 50.0608C334.395 50.0608 334.609 49.8453 334.609 49.5792C334.612 49.3132 334.395 49.0977 334.13 49.0977Z" fill="#EA6A12"/>
<path d="M334.13 54.4082C333.865 54.4082 333.651 54.6237 333.651 54.8898C333.651 55.1559 333.865 55.3714 334.13 55.3714C334.395 55.3714 334.609 55.1559 334.609 54.8898C334.612 54.6237 334.395 54.4082 334.13 54.4082Z" fill="#EA6A12"/>
<path d="M334.13 59.7188C333.865 59.7188 333.651 59.9343 333.651 60.2003C333.651 60.4664 333.865 60.6819 334.13 60.6819C334.395 60.6819 334.609 60.4664 334.609 60.2003C334.612 59.9343 334.395 59.7188 334.13 59.7188Z" fill="#EA6A12"/>
<path d="M334.13 65.0293C333.865 65.0293 333.651 65.2448 333.651 65.5109C333.651 65.777 333.865 65.9925 334.13 65.9925C334.395 65.9925 334.609 65.777 334.609 65.5109C334.612 65.2448 334.395 65.0293 334.13 65.0293Z" fill="#EA6A12"/>
<path d="M334.13 70.3398C333.865 70.3398 333.651 70.5554 333.651 70.8214C333.651 71.0875 333.865 71.303 334.13 71.303C334.395 71.303 334.609 71.0875 334.609 70.8214C334.612 70.5554 334.395 70.3398 334.13 70.3398Z" fill="#EA6A12"/>
<path d="M328.913 6.61133C328.648 6.61133 328.434 6.82684 328.434 7.0929C328.434 7.35897 328.648 7.57448 328.913 7.57448C329.178 7.57448 329.392 7.35897 329.392 7.0929C329.392 6.82684 329.178 6.61133 328.913 6.61133Z" fill="#EA6A12"/>
<path d="M328.913 11.9238C328.648 11.9238 328.434 12.1393 328.434 12.4054C328.434 12.6715 328.648 12.887 328.913 12.887C329.178 12.887 329.392 12.6715 329.392 12.4054C329.392 12.1393 329.178 11.9238 328.913 11.9238Z" fill="#EA6A12"/>
<path d="M328.913 17.2324C328.648 17.2324 328.434 17.4479 328.434 17.714C328.434 17.9801 328.648 18.1956 328.913 18.1956C329.178 18.1956 329.392 17.9801 329.392 17.714C329.392 17.4479 329.178 17.2324 328.913 17.2324Z" fill="#EA6A12"/>
<path d="M328.913 22.5449C328.648 22.5449 328.434 22.7604 328.434 23.0265C328.434 23.2926 328.648 23.5081 328.913 23.5081C329.178 23.5081 329.392 23.2926 329.392 23.0265C329.392 22.7604 329.178 22.5449 328.913 22.5449Z" fill="#EA6A12"/>
<path d="M328.913 27.8555C328.648 27.8555 328.434 28.071 328.434 28.3371C328.434 28.6031 328.648 28.8186 328.913 28.8186C329.178 28.8186 329.392 28.6031 329.392 28.3371C329.392 28.071 329.178 27.8555 328.913 27.8555Z" fill="#EA6A12"/>
<path d="M328.913 33.1641C328.648 33.1641 328.434 33.3796 328.434 33.6457C328.434 33.9117 328.648 34.1272 328.913 34.1272C329.178 34.1272 329.392 33.9117 329.392 33.6457C329.392 33.3796 329.178 33.1641 328.913 33.1641Z" fill="#EA6A12"/>
<path d="M328.913 38.4766C328.648 38.4766 328.434 38.6921 328.434 38.9582C328.434 39.2242 328.648 39.4397 328.913 39.4397C329.178 39.4397 329.392 39.2242 329.392 38.9582C329.392 38.6921 329.178 38.4766 328.913 38.4766Z" fill="#EA6A12"/>
<path d="M328.913 43.7852C328.648 43.7852 328.434 44.0007 328.434 44.2667C328.434 44.5328 328.648 44.7483 328.913 44.7483C329.178 44.7483 329.392 44.5328 329.392 44.2667C329.392 44.0007 329.178 43.7852 328.913 43.7852Z" fill="#EA6A12"/>
<path d="M328.913 49.0977C328.648 49.0977 328.434 49.3132 328.434 49.5792C328.434 49.8453 328.648 50.0608 328.913 50.0608C329.178 50.0608 329.392 49.8453 329.392 49.5792C329.392 49.3132 329.178 49.0977 328.913 49.0977Z" fill="#EA6A12"/>
<path d="M328.913 54.4082C328.648 54.4082 328.434 54.6237 328.434 54.8898C328.434 55.1559 328.648 55.3714 328.913 55.3714C329.178 55.3714 329.392 55.1559 329.392 54.8898C329.392 54.6237 329.178 54.4082 328.913 54.4082Z" fill="#EA6A12"/>
<path d="M328.913 59.7188C328.648 59.7188 328.434 59.9343 328.434 60.2003C328.434 60.4664 328.648 60.6819 328.913 60.6819C329.178 60.6819 329.392 60.4664 329.392 60.2003C329.392 59.9343 329.178 59.7188 328.913 59.7188Z" fill="#EA6A12"/>
<path d="M328.913 65.0293C328.648 65.0293 328.434 65.2448 328.434 65.5109C328.434 65.777 328.648 65.9925 328.913 65.9925C329.178 65.9925 329.392 65.777 329.392 65.5109C329.392 65.2448 329.178 65.0293 328.913 65.0293Z" fill="#EA6A12"/>
<path d="M328.913 70.3398C328.648 70.3398 328.434 70.5554 328.434 70.8214C328.434 71.0875 328.648 71.303 328.913 71.303C329.178 71.303 329.392 71.0875 329.392 70.8214C329.392 70.5554 329.178 70.3398 328.913 70.3398Z" fill="#EA6A12"/>
<path d="M323.694 6.61133C323.429 6.61133 323.215 6.82684 323.215 7.0929C323.215 7.35897 323.429 7.57448 323.694 7.57448C323.959 7.57448 324.173 7.35897 324.173 7.0929C324.173 6.82684 323.959 6.61133 323.694 6.61133Z" fill="#EA6A12"/>
<path d="M323.694 11.9238C323.429 11.9238 323.215 12.1393 323.215 12.4054C323.215 12.6715 323.429 12.887 323.694 12.887C323.959 12.887 324.173 12.6715 324.173 12.4054C324.173 12.1393 323.959 11.9238 323.694 11.9238Z" fill="#EA6A12"/>
<path d="M323.694 17.2324C323.429 17.2324 323.215 17.4479 323.215 17.714C323.215 17.9801 323.429 18.1956 323.694 18.1956C323.959 18.1956 324.173 17.9801 324.173 17.714C324.173 17.4479 323.959 17.2324 323.694 17.2324Z" fill="#EA6A12"/>
<path d="M323.694 22.5449C323.429 22.5449 323.215 22.7604 323.215 23.0265C323.215 23.2926 323.429 23.5081 323.694 23.5081C323.959 23.5081 324.173 23.2926 324.173 23.0265C324.173 22.7604 323.959 22.5449 323.694 22.5449Z" fill="#EA6A12"/>
<path d="M323.694 27.8555C323.429 27.8555 323.215 28.071 323.215 28.3371C323.215 28.6031 323.429 28.8186 323.694 28.8186C323.959 28.8186 324.173 28.6031 324.173 28.3371C324.173 28.071 323.959 27.8555 323.694 27.8555Z" fill="#EA6A12"/>
<path d="M323.694 33.1641C323.429 33.1641 323.215 33.3796 323.215 33.6457C323.215 33.9117 323.429 34.1272 323.694 34.1272C323.959 34.1272 324.173 33.9117 324.173 33.6457C324.173 33.3796 323.959 33.1641 323.694 33.1641Z" fill="#EA6A12"/>
<path d="M323.694 38.4766C323.429 38.4766 323.215 38.6921 323.215 38.9582C323.215 39.2242 323.429 39.4397 323.694 39.4397C323.959 39.4397 324.173 39.2242 324.173 38.9582C324.173 38.6921 323.959 38.4766 323.694 38.4766Z" fill="#EA6A12"/>
<path d="M323.694 43.7852C323.429 43.7852 323.215 44.0007 323.215 44.2667C323.215 44.5328 323.429 44.7483 323.694 44.7483C323.959 44.7483 324.173 44.5328 324.173 44.2667C324.173 44.0007 323.959 43.7852 323.694 43.7852Z" fill="#EA6A12"/>
<path d="M323.694 49.0977C323.429 49.0977 323.215 49.3132 323.215 49.5792C323.215 49.8453 323.429 50.0608 323.694 50.0608C323.959 50.0608 324.173 49.8453 324.173 49.5792C324.173 49.3132 323.959 49.0977 323.694 49.0977Z" fill="#EA6A12"/>
<path d="M323.694 54.4082C323.429 54.4082 323.215 54.6237 323.215 54.8898C323.215 55.1559 323.429 55.3714 323.694 55.3714C323.959 55.3714 324.173 55.1559 324.173 54.8898C324.173 54.6237 323.959 54.4082 323.694 54.4082Z" fill="#EA6A12"/>
<path d="M323.694 59.7188C323.429 59.7188 323.215 59.9343 323.215 60.2003C323.215 60.4664 323.429 60.6819 323.694 60.6819C323.959 60.6819 324.173 60.4664 324.173 60.2003C324.173 59.9343 323.959 59.7188 323.694 59.7188Z" fill="#EA6A12"/>
<path d="M323.694 65.0293C323.429 65.0293 323.215 65.2448 323.215 65.5109C323.215 65.777 323.429 65.9925 323.694 65.9925C323.959 65.9925 324.173 65.777 324.173 65.5109C324.173 65.2448 323.959 65.0293 323.694 65.0293Z" fill="#EA6A12"/>
<path d="M323.694 70.3398C323.429 70.3398 323.215 70.5554 323.215 70.8214C323.215 71.0875 323.429 71.303 323.694 71.303C323.959 71.303 324.173 71.0875 324.173 70.8214C324.173 70.5554 323.959 70.3398 323.694 70.3398Z" fill="#EA6A12"/>
<path d="M318.476 6.61133C318.211 6.61133 317.997 6.82684 317.997 7.0929C317.997 7.35897 318.211 7.57448 318.476 7.57448C318.741 7.57448 318.955 7.35897 318.955 7.0929C318.955 6.82684 318.741 6.61133 318.476 6.61133Z" fill="#EA6A12"/>
<path d="M318.476 11.9238C318.211 11.9238 317.997 12.1393 317.997 12.4054C317.997 12.6715 318.211 12.887 318.476 12.887C318.741 12.887 318.955 12.6715 318.955 12.4054C318.955 12.1393 318.741 11.9238 318.476 11.9238Z" fill="#EA6A12"/>
<path d="M318.476 17.2324C318.211 17.2324 317.997 17.4479 317.997 17.714C317.997 17.9801 318.211 18.1956 318.476 18.1956C318.741 18.1956 318.955 17.9801 318.955 17.714C318.955 17.4479 318.741 17.2324 318.476 17.2324Z" fill="#EA6A12"/>
<path d="M317.997 23.0265C317.997 23.2925 318.211 23.5081 318.476 23.5081C318.741 23.5081 318.955 23.2925 318.955 23.0265C318.955 22.7605 318.741 22.5449 318.476 22.5449C318.211 22.5449 317.997 22.7605 317.997 23.0265Z" fill="#EA6A12"/>
<path d="M317.997 28.3371C317.997 28.603 318.211 28.8186 318.476 28.8186C318.741 28.8186 318.955 28.603 318.955 28.3371C318.955 28.0711 318.741 27.8555 318.476 27.8555C318.211 27.8555 317.997 28.0711 317.997 28.3371Z" fill="#EA6A12"/>
<path d="M317.997 33.6457C317.997 33.9116 318.211 34.1272 318.476 34.1272C318.741 34.1272 318.955 33.9116 318.955 33.6457C318.955 33.3797 318.741 33.1641 318.476 33.1641C318.211 33.1641 317.997 33.3797 317.997 33.6457Z" fill="#EA6A12"/>
<path d="M318.476 38.4766C318.211 38.4766 317.997 38.6921 317.997 38.9582C317.997 39.2242 318.211 39.4397 318.476 39.4397C318.741 39.4397 318.955 39.2242 318.955 38.9582C318.955 38.6921 318.741 38.4766 318.476 38.4766Z" fill="#EA6A12"/>
<path d="M318.476 43.7852C318.211 43.7852 317.997 44.0007 317.997 44.2667C317.997 44.5328 318.211 44.7483 318.476 44.7483C318.741 44.7483 318.955 44.5328 318.955 44.2667C318.955 44.0007 318.741 43.7852 318.476 43.7852Z" fill="#EA6A12"/>
<path d="M318.476 49.0977C318.211 49.0977 317.997 49.3132 317.997 49.5792C317.997 49.8453 318.211 50.0608 318.476 50.0608C318.741 50.0608 318.955 49.8453 318.955 49.5792C318.955 49.3132 318.741 49.0977 318.476 49.0977Z" fill="#EA6A12"/>
<path d="M318.476 54.4082C318.211 54.4082 317.997 54.6237 317.997 54.8898C317.997 55.1559 318.211 55.3714 318.476 55.3714C318.741 55.3714 318.955 55.1559 318.955 54.8898C318.955 54.6237 318.741 54.4082 318.476 54.4082Z" fill="#EA6A12"/>
<path d="M318.476 59.7188C318.211 59.7188 317.997 59.9343 317.997 60.2003C317.997 60.4664 318.211 60.6819 318.476 60.6819C318.741 60.6819 318.955 60.4664 318.955 60.2003C318.955 59.9343 318.741 59.7188 318.476 59.7188Z" fill="#EA6A12"/>
<path d="M318.476 65.0293C318.211 65.0293 317.997 65.2448 317.997 65.5109C317.997 65.777 318.211 65.9925 318.476 65.9925C318.741 65.9925 318.955 65.777 318.955 65.5109C318.955 65.2448 318.741 65.0293 318.476 65.0293Z" fill="#EA6A12"/>
<path d="M318.476 70.3398C318.211 70.3398 317.997 70.5554 317.997 70.8214C317.997 71.0875 318.211 71.303 318.476 71.303C318.741 71.303 318.955 71.0875 318.955 70.8214C318.955 70.5554 318.741 70.3398 318.476 70.3398Z" fill="#EA6A12"/>
<path d="M313.259 6.61133C312.994 6.61133 312.779 6.82684 312.779 7.0929C312.779 7.35897 312.994 7.57448 313.259 7.57448C313.523 7.57448 313.738 7.35897 313.738 7.0929C313.738 6.82684 313.523 6.61133 313.259 6.61133Z" fill="#EA6A12"/>
<path d="M313.259 11.9238C312.994 11.9238 312.779 12.1393 312.779 12.4054C312.779 12.6715 312.994 12.887 313.259 12.887C313.523 12.887 313.738 12.6715 313.738 12.4054C313.738 12.1393 313.523 11.9238 313.259 11.9238Z" fill="#EA6A12"/>
<path d="M313.259 17.2324C312.994 17.2324 312.779 17.4479 312.779 17.714C312.779 17.9801 312.994 18.1956 313.259 18.1956C313.523 18.1956 313.738 17.9801 313.738 17.714C313.738 17.4479 313.523 17.2324 313.259 17.2324Z" fill="#EA6A12"/>
<path d="M313.259 22.5449C312.994 22.5449 312.779 22.7604 312.779 23.0265C312.779 23.2926 312.994 23.5081 313.259 23.5081C313.523 23.5081 313.738 23.2926 313.738 23.0265C313.738 22.7604 313.523 22.5449 313.259 22.5449Z" fill="#EA6A12"/>
<path d="M313.259 27.8555C312.994 27.8555 312.779 28.071 312.779 28.3371C312.779 28.6031 312.994 28.8186 313.259 28.8186C313.523 28.8186 313.738 28.6031 313.738 28.3371C313.738 28.071 313.523 27.8555 313.259 27.8555Z" fill="#EA6A12"/>
<path d="M313.259 33.1641C312.994 33.1641 312.779 33.3796 312.779 33.6457C312.779 33.9117 312.994 34.1272 313.259 34.1272C313.523 34.1272 313.738 33.9117 313.738 33.6457C313.738 33.3796 313.523 33.1641 313.259 33.1641Z" fill="#EA6A12"/>
<path d="M313.259 38.4766C312.994 38.4766 312.779 38.6921 312.779 38.9582C312.779 39.2242 312.994 39.4397 313.259 39.4397C313.523 39.4397 313.738 39.2242 313.738 38.9582C313.738 38.6921 313.523 38.4766 313.259 38.4766Z" fill="#EA6A12"/>
<path d="M313.259 43.7852C312.994 43.7852 312.779 44.0007 312.779 44.2667C312.779 44.5328 312.994 44.7483 313.259 44.7483C313.523 44.7483 313.738 44.5328 313.738 44.2667C313.738 44.0007 313.523 43.7852 313.259 43.7852Z" fill="#EA6A12"/>
<path d="M313.259 49.0977C312.994 49.0977 312.779 49.3132 312.779 49.5792C312.779 49.8453 312.994 50.0608 313.259 50.0608C313.523 50.0608 313.738 49.8453 313.738 49.5792C313.738 49.3132 313.523 49.0977 313.259 49.0977Z" fill="#EA6A12"/>
<path d="M313.259 54.4082C312.994 54.4082 312.779 54.6237 312.779 54.8898C312.779 55.1559 312.994 55.3714 313.259 55.3714C313.523 55.3714 313.738 55.1559 313.738 54.8898C313.738 54.6237 313.523 54.4082 313.259 54.4082Z" fill="#EA6A12"/>
<path d="M313.259 59.7188C312.994 59.7188 312.779 59.9343 312.779 60.2003C312.779 60.4664 312.994 60.6819 313.259 60.6819C313.523 60.6819 313.738 60.4664 313.738 60.2003C313.738 59.9343 313.523 59.7188 313.259 59.7188Z" fill="#EA6A12"/>
<path d="M313.259 65.0293C312.994 65.0293 312.779 65.2448 312.779 65.5109C312.779 65.777 312.994 65.9925 313.259 65.9925C313.523 65.9925 313.738 65.777 313.738 65.5109C313.738 65.2448 313.523 65.0293 313.259 65.0293Z" fill="#EA6A12"/>
<path d="M313.259 70.3398C312.994 70.3398 312.779 70.5554 312.779 70.8214C312.779 71.0875 312.994 71.303 313.259 71.303C313.523 71.303 313.738 71.0875 313.738 70.8214C313.738 70.5554 313.523 70.3398 313.259 70.3398Z" fill="#EA6A12"/>
<path d="M449.926 68.4316C449.661 68.4316 449.447 68.6472 449.447 68.9132C449.447 69.1793 449.661 69.3948 449.926 69.3948C450.191 69.3948 450.405 69.1793 450.405 68.9132C450.405 68.6472 450.191 68.4316 449.926 68.4316Z" fill="#EA6A12"/>
<path d="M449.927 73.7422C449.662 73.7422 449.447 73.9577 449.447 74.2238C449.447 74.4898 449.662 74.7054 449.927 74.7054C450.191 74.7054 450.406 74.4898 450.406 74.2238C450.406 73.9577 450.191 73.7422 449.927 73.7422Z" fill="#EA6A12"/>
<path d="M449.927 79.0527C449.662 79.0527 449.447 79.2683 449.447 79.5343C449.447 79.8004 449.662 80.0159 449.927 80.0159C450.191 80.0159 450.406 79.8004 450.406 79.5343C450.406 79.2683 450.191 79.0527 449.927 79.0527Z" fill="#EA6A12"/>
<path d="M449.927 84.3633C449.662 84.3633 449.447 84.5788 449.447 84.8449C449.447 85.1109 449.662 85.3265 449.927 85.3265C450.191 85.3265 450.406 85.1109 450.406 84.8449C450.406 84.5788 450.191 84.3633 449.927 84.3633Z" fill="#EA6A12"/>
<path d="M449.927 89.6738C449.662 89.6738 449.447 89.8893 449.447 90.1554C449.447 90.4215 449.662 90.637 449.927 90.637C450.191 90.637 450.406 90.4215 450.406 90.1554C450.406 89.8893 450.191 89.6738 449.927 89.6738Z" fill="#EA6A12"/>
<path d="M449.927 94.9844C449.662 94.9844 449.447 95.1999 449.447 95.466C449.447 95.732 449.662 95.9476 449.927 95.9476C450.191 95.9476 450.406 95.732 450.406 95.466C450.406 95.1999 450.191 94.9844 449.927 94.9844Z" fill="#EA6A12"/>
<path d="M449.927 100.295C449.662 100.295 449.447 100.51 449.447 100.777C449.447 101.043 449.662 101.258 449.927 101.258C450.191 101.258 450.406 101.043 450.406 100.777C450.406 100.51 450.191 100.295 449.927 100.295Z" fill="#EA6A12"/>
<path d="M449.927 105.605C449.662 105.605 449.447 105.821 449.447 106.087C449.447 106.353 449.662 106.569 449.927 106.569C450.191 106.569 450.406 106.353 450.406 106.087C450.406 105.821 450.191 105.605 449.927 105.605Z" fill="#EA6A12"/>
<path d="M449.927 110.918C449.662 110.918 449.447 111.133 449.447 111.4C449.447 111.666 449.662 111.881 449.927 111.881C450.191 111.881 450.406 111.666 450.406 111.4C450.406 111.133 450.191 110.918 449.927 110.918Z" fill="#EA6A12"/>
<path d="M449.927 116.227C449.662 116.227 449.447 116.442 449.447 116.708C449.447 116.974 449.662 117.19 449.927 117.19C450.191 117.19 450.406 116.974 450.406 116.708C450.406 116.442 450.191 116.227 449.927 116.227Z" fill="#EA6A12"/>
<path d="M449.927 121.539C449.662 121.539 449.447 121.755 449.447 122.021C449.447 122.287 449.662 122.502 449.927 122.502C450.191 122.502 450.406 122.287 450.406 122.021C450.406 121.755 450.191 121.539 449.927 121.539Z" fill="#EA6A12"/>
<path d="M449.927 126.848C449.662 126.848 449.447 127.063 449.447 127.329C449.447 127.595 449.662 127.811 449.927 127.811C450.191 127.811 450.406 127.595 450.406 127.329C450.406 127.063 450.191 126.848 449.927 126.848Z" fill="#EA6A12"/>
<path d="M449.927 132.16C449.662 132.16 449.447 132.376 449.447 132.642C449.447 132.908 449.662 133.123 449.927 133.123C450.191 133.123 450.406 132.908 450.406 132.642C450.406 132.376 450.191 132.16 449.927 132.16Z" fill="#EA6A12"/>
<path d="M444.708 68.4316C444.444 68.4316 444.229 68.6472 444.229 68.9132C444.229 69.1793 444.444 69.3948 444.708 69.3948C444.973 69.3948 445.187 69.1793 445.187 68.9132C445.19 68.6472 444.973 68.4316 444.708 68.4316Z" fill="#EA6A12"/>
<path d="M444.708 73.7422C444.444 73.7422 444.229 73.9577 444.229 74.2238C444.229 74.4898 444.444 74.7054 444.708 74.7054C444.973 74.7054 445.187 74.4898 445.187 74.2238C445.19 73.9577 444.973 73.7422 444.708 73.7422Z" fill="#EA6A12"/>
<path d="M444.708 79.0527C444.444 79.0527 444.229 79.2682 444.229 79.5343C444.229 79.8004 444.444 80.0159 444.708 80.0159C444.973 80.0159 445.187 79.8004 445.187 79.5343C445.19 79.2682 444.973 79.0527 444.708 79.0527Z" fill="#EA6A12"/>
<path d="M444.708 84.3633C444.444 84.3633 444.229 84.5788 444.229 84.8449C444.229 85.1109 444.444 85.3265 444.708 85.3265C444.973 85.3265 445.187 85.1109 445.187 84.8449C445.19 84.5788 444.973 84.3633 444.708 84.3633Z" fill="#EA6A12"/>
<path d="M444.708 89.6738C444.444 89.6738 444.229 89.8893 444.229 90.1554C444.229 90.4215 444.444 90.637 444.708 90.637C444.973 90.637 445.188 90.4215 445.188 90.1554C445.188 89.8893 444.973 89.6738 444.708 89.6738Z" fill="#EA6A12"/>
<path d="M444.708 94.9844C444.444 94.9844 444.229 95.1999 444.229 95.466C444.229 95.732 444.444 95.9476 444.708 95.9476C444.973 95.9476 445.188 95.732 445.188 95.466C445.188 95.1999 444.973 94.9844 444.708 94.9844Z" fill="#EA6A12"/>
<path d="M444.708 100.295C444.444 100.295 444.229 100.51 444.229 100.777C444.229 101.043 444.444 101.258 444.708 101.258C444.973 101.258 445.187 101.043 445.187 100.777C445.19 100.51 444.973 100.295 444.708 100.295Z" fill="#EA6A12"/>
<path d="M444.708 105.605C444.444 105.605 444.229 105.821 444.229 106.087C444.229 106.353 444.444 106.569 444.708 106.569C444.973 106.569 445.187 106.353 445.187 106.087C445.19 105.821 444.973 105.605 444.708 105.605Z" fill="#EA6A12"/>
<path d="M444.708 110.918C444.444 110.918 444.229 111.133 444.229 111.4C444.229 111.666 444.444 111.881 444.708 111.881C444.973 111.881 445.187 111.666 445.187 111.4C445.19 111.133 444.973 110.918 444.708 110.918Z" fill="#EA6A12"/>
<path d="M444.708 116.227C444.444 116.227 444.229 116.442 444.229 116.708C444.229 116.974 444.444 117.19 444.708 117.19C444.973 117.19 445.187 116.974 445.187 116.708C445.19 116.442 444.973 116.227 444.708 116.227Z" fill="#EA6A12"/>
<path d="M444.708 121.539C444.444 121.539 444.229 121.755 444.229 122.021C444.229 122.287 444.444 122.502 444.708 122.502C444.973 122.502 445.187 122.287 445.187 122.021C445.19 121.755 444.973 121.539 444.708 121.539Z" fill="#EA6A12"/>
<path d="M444.708 126.848C444.444 126.848 444.229 127.063 444.229 127.329C444.229 127.595 444.444 127.811 444.708 127.811C444.973 127.811 445.187 127.595 445.187 127.329C445.19 127.063 444.973 126.848 444.708 126.848Z" fill="#EA6A12"/>
<path d="M444.708 132.16C444.444 132.16 444.229 132.376 444.229 132.642C444.229 132.908 444.444 133.123 444.708 133.123C444.973 133.123 445.187 132.908 445.187 132.642C445.19 132.376 444.973 132.16 444.708 132.16Z" fill="#EA6A12"/>
<path d="M439.491 68.4316C439.226 68.4316 439.011 68.6472 439.011 68.9132C439.011 69.1793 439.226 69.3948 439.491 69.3948C439.755 69.3948 439.97 69.1793 439.97 68.9132C439.97 68.6472 439.755 68.4316 439.491 68.4316Z" fill="#EA6A12"/>
<path d="M439.491 73.7422C439.226 73.7422 439.011 73.9577 439.011 74.2238C439.011 74.4898 439.226 74.7054 439.491 74.7054C439.755 74.7054 439.97 74.4898 439.97 74.2238C439.97 73.9577 439.755 73.7422 439.491 73.7422Z" fill="#EA6A12"/>
<path d="M439.491 79.0527C439.226 79.0527 439.011 79.2682 439.011 79.5343C439.011 79.8004 439.226 80.0159 439.491 80.0159C439.755 80.0159 439.97 79.8004 439.97 79.5343C439.97 79.2682 439.755 79.0527 439.491 79.0527Z" fill="#EA6A12"/>
<path d="M439.491 84.3633C439.226 84.3633 439.011 84.5788 439.011 84.8449C439.011 85.1109 439.226 85.3265 439.491 85.3265C439.755 85.3265 439.97 85.1109 439.97 84.8449C439.97 84.5788 439.755 84.3633 439.491 84.3633Z" fill="#EA6A12"/>
<path d="M439.491 89.6738C439.226 89.6738 439.011 89.8893 439.011 90.1554C439.011 90.4215 439.226 90.637 439.491 90.637C439.755 90.637 439.97 90.4215 439.97 90.1554C439.97 89.8893 439.755 89.6738 439.491 89.6738Z" fill="#EA6A12"/>
<path d="M439.491 94.9844C439.226 94.9844 439.011 95.1999 439.011 95.466C439.011 95.732 439.226 95.9476 439.491 95.9476C439.755 95.9476 439.97 95.732 439.97 95.466C439.97 95.1999 439.755 94.9844 439.491 94.9844Z" fill="#EA6A12"/>
<path d="M439.491 100.295C439.226 100.295 439.011 100.51 439.011 100.777C439.011 101.043 439.226 101.258 439.491 101.258C439.755 101.258 439.97 101.043 439.97 100.777C439.97 100.51 439.755 100.295 439.491 100.295Z" fill="#EA6A12"/>
<path d="M439.491 105.605C439.226 105.605 439.011 105.821 439.011 106.087C439.011 106.353 439.226 106.569 439.491 106.569C439.755 106.569 439.97 106.353 439.97 106.087C439.97 105.821 439.755 105.605 439.491 105.605Z" fill="#EA6A12"/>
<path d="M439.491 110.918C439.226 110.918 439.011 111.133 439.011 111.4C439.011 111.666 439.226 111.881 439.491 111.881C439.755 111.881 439.97 111.666 439.97 111.4C439.97 111.133 439.755 110.918 439.491 110.918Z" fill="#EA6A12"/>
<path d="M439.491 116.227C439.226 116.227 439.011 116.442 439.011 116.708C439.011 116.974 439.226 117.19 439.491 117.19C439.755 117.19 439.97 116.974 439.97 116.708C439.97 116.442 439.755 116.227 439.491 116.227Z" fill="#EA6A12"/>
<path d="M439.491 121.539C439.226 121.539 439.011 121.755 439.011 122.021C439.011 122.287 439.226 122.502 439.491 122.502C439.755 122.502 439.97 122.287 439.97 122.021C439.97 121.755 439.755 121.539 439.491 121.539Z" fill="#EA6A12"/>
<path d="M439.491 126.848C439.226 126.848 439.011 127.063 439.011 127.329C439.011 127.595 439.226 127.811 439.491 127.811C439.755 127.811 439.97 127.595 439.97 127.329C439.97 127.063 439.755 126.848 439.491 126.848Z" fill="#EA6A12"/>
<path d="M439.491 132.16C439.226 132.16 439.011 132.376 439.011 132.642C439.011 132.908 439.226 133.123 439.491 133.123C439.755 133.123 439.97 132.908 439.97 132.642C439.97 132.376 439.755 132.16 439.491 132.16Z" fill="#EA6A12"/>
<path d="M434.272 68.4316C434.008 68.4316 433.793 68.6472 433.793 68.9132C433.793 69.1793 434.008 69.3948 434.272 69.3948C434.537 69.3948 434.751 69.1793 434.751 68.9132C434.751 68.6472 434.537 68.4316 434.272 68.4316Z" fill="#EA6A12"/>
<path d="M434.272 73.7422C434.008 73.7422 433.793 73.9577 433.793 74.2238C433.793 74.4898 434.008 74.7054 434.272 74.7054C434.537 74.7054 434.751 74.4898 434.751 74.2238C434.751 73.9577 434.537 73.7422 434.272 73.7422Z" fill="#EA6A12"/>
<path d="M434.272 79.0527C434.008 79.0527 433.793 79.2682 433.793 79.5343C433.793 79.8004 434.008 80.0159 434.272 80.0159C434.537 80.0159 434.751 79.8004 434.751 79.5343C434.751 79.2682 434.537 79.0527 434.272 79.0527Z" fill="#EA6A12"/>
<path d="M434.272 84.3633C434.008 84.3633 433.793 84.5788 433.793 84.8449C433.793 85.1109 434.008 85.3265 434.272 85.3265C434.537 85.3265 434.751 85.1109 434.751 84.8449C434.751 84.5788 434.537 84.3633 434.272 84.3633Z" fill="#EA6A12"/>
<path d="M434.272 89.6738C434.008 89.6738 433.793 89.8893 433.793 90.1554C433.793 90.4215 434.008 90.637 434.272 90.637C434.537 90.637 434.751 90.4215 434.751 90.1554C434.751 89.8893 434.537 89.6738 434.272 89.6738Z" fill="#EA6A12"/>
<path d="M434.272 94.9844C434.008 94.9844 433.793 95.1999 433.793 95.466C433.793 95.732 434.008 95.9476 434.272 95.9476C434.537 95.9476 434.751 95.732 434.751 95.466C434.751 95.1999 434.537 94.9844 434.272 94.9844Z" fill="#EA6A12"/>
<path d="M434.272 100.295C434.008 100.295 433.793 100.51 433.793 100.777C433.793 101.043 434.008 101.258 434.272 101.258C434.537 101.258 434.751 101.043 434.751 100.777C434.751 100.51 434.537 100.295 434.272 100.295Z" fill="#EA6A12"/>
<path d="M434.272 105.605C434.008 105.605 433.793 105.821 433.793 106.087C433.793 106.353 434.008 106.569 434.272 106.569C434.537 106.569 434.751 106.353 434.751 106.087C434.751 105.821 434.537 105.605 434.272 105.605Z" fill="#EA6A12"/>
<path d="M434.272 110.918C434.008 110.918 433.793 111.133 433.793 111.4C433.793 111.666 434.008 111.881 434.272 111.881C434.537 111.881 434.751 111.666 434.751 111.4C434.751 111.133 434.537 110.918 434.272 110.918Z" fill="#EA6A12"/>
<path d="M434.272 116.227C434.008 116.227 433.793 116.442 433.793 116.708C433.793 116.974 434.008 117.19 434.272 117.19C434.537 117.19 434.751 116.974 434.751 116.708C434.751 116.442 434.537 116.227 434.272 116.227Z" fill="#EA6A12"/>
<path d="M434.272 121.539C434.008 121.539 433.793 121.755 433.793 122.021C433.793 122.287 434.008 122.502 434.272 122.502C434.537 122.502 434.751 122.287 434.751 122.021C434.751 121.755 434.537 121.539 434.272 121.539Z" fill="#EA6A12"/>
<path d="M434.272 126.848C434.008 126.848 433.793 127.063 433.793 127.329C433.793 127.595 434.008 127.811 434.272 127.811C434.537 127.811 434.751 127.595 434.751 127.329C434.751 127.063 434.537 126.848 434.272 126.848Z" fill="#EA6A12"/>
<path d="M434.272 132.16C434.008 132.16 433.793 132.376 433.793 132.642C433.793 132.908 434.008 133.123 434.272 133.123C434.537 133.123 434.751 132.908 434.751 132.642C434.751 132.376 434.537 132.16 434.272 132.16Z" fill="#EA6A12"/>
<path d="M429.055 68.4316C428.79 68.4316 428.575 68.6472 428.575 68.9132C428.575 69.1793 428.79 69.3948 429.055 69.3948C429.319 69.3948 429.534 69.1793 429.534 68.9132C429.534 68.6472 429.319 68.4316 429.055 68.4316Z" fill="#EA6A12"/>
<path d="M429.055 73.7422C428.79 73.7422 428.575 73.9577 428.575 74.2238C428.575 74.4898 428.79 74.7054 429.055 74.7054C429.319 74.7054 429.534 74.4898 429.534 74.2238C429.534 73.9577 429.319 73.7422 429.055 73.7422Z" fill="#EA6A12"/>
<path d="M429.055 79.0527C428.79 79.0527 428.575 79.2682 428.575 79.5343C428.575 79.8004 428.79 80.0159 429.055 80.0159C429.319 80.0159 429.534 79.8004 429.534 79.5343C429.534 79.2682 429.319 79.0527 429.055 79.0527Z" fill="#EA6A12"/>
<path d="M428.575 84.8449C428.575 85.1108 428.79 85.3265 429.055 85.3265C429.319 85.3265 429.534 85.1108 429.534 84.8449C429.534 84.5789 429.319 84.3633 429.055 84.3633C428.79 84.3633 428.575 84.5789 428.575 84.8449Z" fill="#EA6A12"/>
<path d="M428.575 90.1554C428.575 90.4214 428.79 90.637 429.055 90.637C429.319 90.637 429.534 90.4214 429.534 90.1554C429.534 89.8894 429.319 89.6738 429.055 89.6738C428.79 89.6738 428.575 89.8894 428.575 90.1554Z" fill="#EA6A12"/>
<path d="M428.575 95.466C428.575 95.7319 428.79 95.9476 429.055 95.9476C429.319 95.9476 429.534 95.7319 429.534 95.466C429.534 95.2 429.319 94.9844 429.055 94.9844C428.79 94.9844 428.575 95.2 428.575 95.466Z" fill="#EA6A12"/>
<path d="M429.055 100.295C428.79 100.295 428.575 100.51 428.575 100.777C428.575 101.043 428.79 101.258 429.055 101.258C429.319 101.258 429.534 101.043 429.534 100.777C429.534 100.51 429.319 100.295 429.055 100.295Z" fill="#EA6A12"/>
<path d="M429.055 105.605C428.79 105.605 428.575 105.821 428.575 106.087C428.575 106.353 428.79 106.569 429.055 106.569C429.319 106.569 429.534 106.353 429.534 106.087C429.534 105.821 429.319 105.605 429.055 105.605Z" fill="#EA6A12"/>
<path d="M429.055 110.918C428.79 110.918 428.575 111.133 428.575 111.4C428.575 111.666 428.79 111.881 429.055 111.881C429.319 111.881 429.534 111.666 429.534 111.4C429.534 111.133 429.319 110.918 429.055 110.918Z" fill="#EA6A12"/>
<path d="M429.055 116.227C428.79 116.227 428.575 116.442 428.575 116.708C428.575 116.974 428.79 117.19 429.055 117.19C429.319 117.19 429.534 116.974 429.534 116.708C429.534 116.442 429.319 116.227 429.055 116.227Z" fill="#EA6A12"/>
<path d="M429.055 121.539C428.79 121.539 428.575 121.755 428.575 122.021C428.575 122.287 428.79 122.502 429.055 122.502C429.319 122.502 429.534 122.287 429.534 122.021C429.534 121.755 429.319 121.539 429.055 121.539Z" fill="#EA6A12"/>
<path d="M429.055 126.848C428.79 126.848 428.575 127.063 428.575 127.329C428.575 127.595 428.79 127.811 429.055 127.811C429.319 127.811 429.534 127.595 429.534 127.329C429.534 127.063 429.319 126.848 429.055 126.848Z" fill="#EA6A12"/>
<path d="M429.055 132.16C428.79 132.16 428.575 132.376 428.575 132.642C428.575 132.908 428.79 133.123 429.055 133.123C429.319 133.123 429.534 132.908 429.534 132.642C429.534 132.376 429.319 132.16 429.055 132.16Z" fill="#EA6A12"/>
<path d="M423.837 68.4316C423.572 68.4316 423.358 68.6472 423.358 68.9132C423.358 69.1793 423.572 69.3948 423.837 69.3948C424.101 69.3948 424.316 69.1793 424.316 68.9132C424.316 68.6472 424.101 68.4316 423.837 68.4316Z" fill="#EA6A12"/>
<path d="M423.837 73.7422C423.572 73.7422 423.358 73.9577 423.358 74.2238C423.358 74.4898 423.572 74.7054 423.837 74.7054C424.101 74.7054 424.316 74.4898 424.316 74.2238C424.316 73.9577 424.101 73.7422 423.837 73.7422Z" fill="#EA6A12"/>
<path d="M423.837 79.0527C423.572 79.0527 423.358 79.2682 423.358 79.5343C423.358 79.8004 423.572 80.0159 423.837 80.0159C424.101 80.0159 424.316 79.8004 424.316 79.5343C424.316 79.2682 424.101 79.0527 423.837 79.0527Z" fill="#EA6A12"/>
<path d="M423.837 84.3633C423.572 84.3633 423.358 84.5788 423.358 84.8449C423.358 85.1109 423.572 85.3265 423.837 85.3265C424.101 85.3265 424.316 85.1109 424.316 84.8449C424.316 84.5788 424.101 84.3633 423.837 84.3633Z" fill="#EA6A12"/>
<path d="M423.837 89.6738C423.572 89.6738 423.358 89.8893 423.358 90.1554C423.358 90.4215 423.572 90.637 423.837 90.637C424.101 90.637 424.316 90.4215 424.316 90.1554C424.316 89.8893 424.101 89.6738 423.837 89.6738Z" fill="#EA6A12"/>
<path d="M423.837 94.9844C423.572 94.9844 423.358 95.1999 423.358 95.466C423.358 95.732 423.572 95.9476 423.837 95.9476C424.101 95.9476 424.316 95.732 424.316 95.466C424.316 95.1999 424.101 94.9844 423.837 94.9844Z" fill="#EA6A12"/>
<path d="M423.837 100.295C423.572 100.295 423.358 100.51 423.358 100.777C423.358 101.043 423.572 101.258 423.837 101.258C424.101 101.258 424.316 101.043 424.316 100.777C424.316 100.51 424.101 100.295 423.837 100.295Z" fill="#EA6A12"/>
<path d="M423.837 105.605C423.572 105.605 423.358 105.821 423.358 106.087C423.358 106.353 423.572 106.569 423.837 106.569C424.101 106.569 424.316 106.353 424.316 106.087C424.316 105.821 424.101 105.605 423.837 105.605Z" fill="#EA6A12"/>
<path d="M423.837 110.918C423.572 110.918 423.358 111.133 423.358 111.4C423.358 111.666 423.572 111.881 423.837 111.881C424.101 111.881 424.316 111.666 424.316 111.4C424.316 111.133 424.101 110.918 423.837 110.918Z" fill="#EA6A12"/>
<path d="M423.837 116.227C423.572 116.227 423.358 116.442 423.358 116.708C423.358 116.974 423.572 117.19 423.837 117.19C424.101 117.19 424.316 116.974 424.316 116.708C424.316 116.442 424.101 116.227 423.837 116.227Z" fill="#EA6A12"/>
<path d="M423.837 121.539C423.572 121.539 423.358 121.755 423.358 122.021C423.358 122.287 423.572 122.502 423.837 122.502C424.101 122.502 424.316 122.287 424.316 122.021C424.316 121.755 424.101 121.539 423.837 121.539Z" fill="#EA6A12"/>
<path d="M423.837 126.848C423.572 126.848 423.358 127.063 423.358 127.329C423.358 127.595 423.572 127.811 423.837 127.811C424.101 127.811 424.316 127.595 424.316 127.329C424.316 127.063 424.101 126.848 423.837 126.848Z" fill="#EA6A12"/>
<path d="M423.837 132.16C423.572 132.16 423.358 132.376 423.358 132.642C423.358 132.908 423.572 133.123 423.837 133.123C424.101 133.123 424.316 132.908 424.316 132.642C424.316 132.376 424.101 132.16 423.837 132.16Z" fill="#EA6A12"/>
<path d="M449.926 68.4316C449.661 68.4316 449.447 68.6472 449.447 68.9132C449.447 69.1793 449.661 69.3948 449.926 69.3948C450.191 69.3948 450.405 69.1793 450.405 68.9132C450.405 68.6472 450.191 68.4316 449.926 68.4316Z" fill="#EA6A12"/>
<path d="M449.927 73.7422C449.662 73.7422 449.447 73.9577 449.447 74.2238C449.447 74.4898 449.662 74.7054 449.927 74.7054C450.191 74.7054 450.406 74.4898 450.406 74.2238C450.406 73.9577 450.191 73.7422 449.927 73.7422Z" fill="#EA6A12"/>
<path d="M449.927 79.0527C449.662 79.0527 449.447 79.2683 449.447 79.5343C449.447 79.8004 449.662 80.0159 449.927 80.0159C450.191 80.0159 450.406 79.8004 450.406 79.5343C450.406 79.2683 450.191 79.0527 449.927 79.0527Z" fill="#EA6A12"/>
<path d="M449.927 84.3633C449.662 84.3633 449.447 84.5788 449.447 84.8449C449.447 85.1109 449.662 85.3265 449.927 85.3265C450.191 85.3265 450.406 85.1109 450.406 84.8449C450.406 84.5788 450.191 84.3633 449.927 84.3633Z" fill="#EA6A12"/>
<path d="M449.927 89.6738C449.662 89.6738 449.447 89.8893 449.447 90.1554C449.447 90.4215 449.662 90.637 449.927 90.637C450.191 90.637 450.406 90.4215 450.406 90.1554C450.406 89.8893 450.191 89.6738 449.927 89.6738Z" fill="#EA6A12"/>
<path d="M449.927 94.9844C449.662 94.9844 449.447 95.1999 449.447 95.466C449.447 95.732 449.662 95.9476 449.927 95.9476C450.191 95.9476 450.406 95.732 450.406 95.466C450.406 95.1999 450.191 94.9844 449.927 94.9844Z" fill="#EA6A12"/>
<path d="M449.927 100.295C449.662 100.295 449.447 100.51 449.447 100.777C449.447 101.043 449.662 101.258 449.927 101.258C450.191 101.258 450.406 101.043 450.406 100.777C450.406 100.51 450.191 100.295 449.927 100.295Z" fill="#EA6A12"/>
<path d="M449.927 105.605C449.662 105.605 449.447 105.821 449.447 106.087C449.447 106.353 449.662 106.569 449.927 106.569C450.191 106.569 450.406 106.353 450.406 106.087C450.406 105.821 450.191 105.605 449.927 105.605Z" fill="#EA6A12"/>
<path d="M449.927 110.918C449.662 110.918 449.447 111.133 449.447 111.4C449.447 111.666 449.662 111.881 449.927 111.881C450.191 111.881 450.406 111.666 450.406 111.4C450.406 111.133 450.191 110.918 449.927 110.918Z" fill="#EA6A12"/>
<path d="M449.927 116.227C449.662 116.227 449.447 116.442 449.447 116.708C449.447 116.974 449.662 117.19 449.927 117.19C450.191 117.19 450.406 116.974 450.406 116.708C450.406 116.442 450.191 116.227 449.927 116.227Z" fill="#EA6A12"/>
<path d="M449.927 121.539C449.662 121.539 449.447 121.755 449.447 122.021C449.447 122.287 449.662 122.502 449.927 122.502C450.191 122.502 450.406 122.287 450.406 122.021C450.406 121.755 450.191 121.539 449.927 121.539Z" fill="#EA6A12"/>
<path d="M449.927 126.848C449.662 126.848 449.447 127.063 449.447 127.329C449.447 127.595 449.662 127.811 449.927 127.811C450.191 127.811 450.406 127.595 450.406 127.329C450.406 127.063 450.191 126.848 449.927 126.848Z" fill="#EA6A12"/>
<path d="M449.927 132.16C449.662 132.16 449.447 132.376 449.447 132.642C449.447 132.908 449.662 133.123 449.927 133.123C450.191 133.123 450.406 132.908 450.406 132.642C450.406 132.376 450.191 132.16 449.927 132.16Z" fill="#EA6A12"/>
<path d="M444.708 68.4316C444.444 68.4316 444.229 68.6472 444.229 68.9132C444.229 69.1793 444.444 69.3948 444.708 69.3948C444.973 69.3948 445.187 69.1793 445.187 68.9132C445.19 68.6472 444.973 68.4316 444.708 68.4316Z" fill="#EA6A12"/>
<path d="M444.708 73.7422C444.444 73.7422 444.229 73.9577 444.229 74.2238C444.229 74.4898 444.444 74.7054 444.708 74.7054C444.973 74.7054 445.187 74.4898 445.187 74.2238C445.19 73.9577 444.973 73.7422 444.708 73.7422Z" fill="#EA6A12"/>
<path d="M444.708 79.0527C444.444 79.0527 444.229 79.2682 444.229 79.5343C444.229 79.8004 444.444 80.0159 444.708 80.0159C444.973 80.0159 445.187 79.8004 445.187 79.5343C445.19 79.2682 444.973 79.0527 444.708 79.0527Z" fill="#EA6A12"/>
<path d="M444.708 84.3633C444.444 84.3633 444.229 84.5788 444.229 84.8449C444.229 85.1109 444.444 85.3265 444.708 85.3265C444.973 85.3265 445.187 85.1109 445.187 84.8449C445.19 84.5788 444.973 84.3633 444.708 84.3633Z" fill="#EA6A12"/>
<path d="M444.708 89.6738C444.444 89.6738 444.229 89.8893 444.229 90.1554C444.229 90.4215 444.444 90.637 444.708 90.637C444.973 90.637 445.188 90.4215 445.188 90.1554C445.188 89.8893 444.973 89.6738 444.708 89.6738Z" fill="#EA6A12"/>
<path d="M444.708 94.9844C444.444 94.9844 444.229 95.1999 444.229 95.466C444.229 95.732 444.444 95.9476 444.708 95.9476C444.973 95.9476 445.188 95.732 445.188 95.466C445.188 95.1999 444.973 94.9844 444.708 94.9844Z" fill="#EA6A12"/>
<path d="M444.708 100.295C444.444 100.295 444.229 100.51 444.229 100.777C444.229 101.043 444.444 101.258 444.708 101.258C444.973 101.258 445.187 101.043 445.187 100.777C445.19 100.51 444.973 100.295 444.708 100.295Z" fill="#EA6A12"/>
<path d="M444.708 105.605C444.444 105.605 444.229 105.821 444.229 106.087C444.229 106.353 444.444 106.569 444.708 106.569C444.973 106.569 445.187 106.353 445.187 106.087C445.19 105.821 444.973 105.605 444.708 105.605Z" fill="#EA6A12"/>
<path d="M444.708 110.918C444.444 110.918 444.229 111.133 444.229 111.4C444.229 111.666 444.444 111.881 444.708 111.881C444.973 111.881 445.187 111.666 445.187 111.4C445.19 111.133 444.973 110.918 444.708 110.918Z" fill="#EA6A12"/>
<path d="M444.708 116.227C444.444 116.227 444.229 116.442 444.229 116.708C444.229 116.974 444.444 117.19 444.708 117.19C444.973 117.19 445.187 116.974 445.187 116.708C445.19 116.442 444.973 116.227 444.708 116.227Z" fill="#EA6A12"/>
<path d="M444.708 121.539C444.444 121.539 444.229 121.755 444.229 122.021C444.229 122.287 444.444 122.502 444.708 122.502C444.973 122.502 445.187 122.287 445.187 122.021C445.19 121.755 444.973 121.539 444.708 121.539Z" fill="#EA6A12"/>
<path d="M444.708 126.848C444.444 126.848 444.229 127.063 444.229 127.329C444.229 127.595 444.444 127.811 444.708 127.811C444.973 127.811 445.187 127.595 445.187 127.329C445.19 127.063 444.973 126.848 444.708 126.848Z" fill="#EA6A12"/>
<path d="M444.708 132.16C444.444 132.16 444.229 132.376 444.229 132.642C444.229 132.908 444.444 133.123 444.708 133.123C444.973 133.123 445.187 132.908 445.187 132.642C445.19 132.376 444.973 132.16 444.708 132.16Z" fill="#EA6A12"/>
<path d="M439.491 68.4316C439.226 68.4316 439.011 68.6472 439.011 68.9132C439.011 69.1793 439.226 69.3948 439.491 69.3948C439.755 69.3948 439.97 69.1793 439.97 68.9132C439.97 68.6472 439.755 68.4316 439.491 68.4316Z" fill="#EA6A12"/>
<path d="M439.491 73.7422C439.226 73.7422 439.011 73.9577 439.011 74.2238C439.011 74.4898 439.226 74.7054 439.491 74.7054C439.755 74.7054 439.97 74.4898 439.97 74.2238C439.97 73.9577 439.755 73.7422 439.491 73.7422Z" fill="#EA6A12"/>
<path d="M439.491 79.0527C439.226 79.0527 439.011 79.2682 439.011 79.5343C439.011 79.8004 439.226 80.0159 439.491 80.0159C439.755 80.0159 439.97 79.8004 439.97 79.5343C439.97 79.2682 439.755 79.0527 439.491 79.0527Z" fill="#EA6A12"/>
<path d="M439.491 84.3633C439.226 84.3633 439.011 84.5788 439.011 84.8449C439.011 85.1109 439.226 85.3265 439.491 85.3265C439.755 85.3265 439.97 85.1109 439.97 84.8449C439.97 84.5788 439.755 84.3633 439.491 84.3633Z" fill="#EA6A12"/>
<path d="M439.491 89.6738C439.226 89.6738 439.011 89.8893 439.011 90.1554C439.011 90.4215 439.226 90.637 439.491 90.637C439.755 90.637 439.97 90.4215 439.97 90.1554C439.97 89.8893 439.755 89.6738 439.491 89.6738Z" fill="#EA6A12"/>
<path d="M439.491 94.9844C439.226 94.9844 439.011 95.1999 439.011 95.466C439.011 95.732 439.226 95.9476 439.491 95.9476C439.755 95.9476 439.97 95.732 439.97 95.466C439.97 95.1999 439.755 94.9844 439.491 94.9844Z" fill="#EA6A12"/>
<path d="M439.491 100.295C439.226 100.295 439.011 100.51 439.011 100.777C439.011 101.043 439.226 101.258 439.491 101.258C439.755 101.258 439.97 101.043 439.97 100.777C439.97 100.51 439.755 100.295 439.491 100.295Z" fill="#EA6A12"/>
<path d="M439.491 105.605C439.226 105.605 439.011 105.821 439.011 106.087C439.011 106.353 439.226 106.569 439.491 106.569C439.755 106.569 439.97 106.353 439.97 106.087C439.97 105.821 439.755 105.605 439.491 105.605Z" fill="#EA6A12"/>
<path d="M439.491 110.918C439.226 110.918 439.011 111.133 439.011 111.4C439.011 111.666 439.226 111.881 439.491 111.881C439.755 111.881 439.97 111.666 439.97 111.4C439.97 111.133 439.755 110.918 439.491 110.918Z" fill="#EA6A12"/>
<path d="M439.491 116.227C439.226 116.227 439.011 116.442 439.011 116.708C439.011 116.974 439.226 117.19 439.491 117.19C439.755 117.19 439.97 116.974 439.97 116.708C439.97 116.442 439.755 116.227 439.491 116.227Z" fill="#EA6A12"/>
<path d="M439.491 121.539C439.226 121.539 439.011 121.755 439.011 122.021C439.011 122.287 439.226 122.502 439.491 122.502C439.755 122.502 439.97 122.287 439.97 122.021C439.97 121.755 439.755 121.539 439.491 121.539Z" fill="#EA6A12"/>
<path d="M439.491 126.848C439.226 126.848 439.011 127.063 439.011 127.329C439.011 127.595 439.226 127.811 439.491 127.811C439.755 127.811 439.97 127.595 439.97 127.329C439.97 127.063 439.755 126.848 439.491 126.848Z" fill="#EA6A12"/>
<path d="M439.491 132.16C439.226 132.16 439.011 132.376 439.011 132.642C439.011 132.908 439.226 133.123 439.491 133.123C439.755 133.123 439.97 132.908 439.97 132.642C439.97 132.376 439.755 132.16 439.491 132.16Z" fill="#EA6A12"/>
<path d="M434.272 68.4316C434.008 68.4316 433.793 68.6472 433.793 68.9132C433.793 69.1793 434.008 69.3948 434.272 69.3948C434.537 69.3948 434.751 69.1793 434.751 68.9132C434.751 68.6472 434.537 68.4316 434.272 68.4316Z" fill="#EA6A12"/>
<path d="M434.272 73.7422C434.008 73.7422 433.793 73.9577 433.793 74.2238C433.793 74.4898 434.008 74.7054 434.272 74.7054C434.537 74.7054 434.751 74.4898 434.751 74.2238C434.751 73.9577 434.537 73.7422 434.272 73.7422Z" fill="#EA6A12"/>
<path d="M434.272 79.0527C434.008 79.0527 433.793 79.2682 433.793 79.5343C433.793 79.8004 434.008 80.0159 434.272 80.0159C434.537 80.0159 434.751 79.8004 434.751 79.5343C434.751 79.2682 434.537 79.0527 434.272 79.0527Z" fill="#EA6A12"/>
<path d="M434.272 84.3633C434.008 84.3633 433.793 84.5788 433.793 84.8449C433.793 85.1109 434.008 85.3265 434.272 85.3265C434.537 85.3265 434.751 85.1109 434.751 84.8449C434.751 84.5788 434.537 84.3633 434.272 84.3633Z" fill="#EA6A12"/>
<path d="M434.272 89.6738C434.008 89.6738 433.793 89.8893 433.793 90.1554C433.793 90.4215 434.008 90.637 434.272 90.637C434.537 90.637 434.751 90.4215 434.751 90.1554C434.751 89.8893 434.537 89.6738 434.272 89.6738Z" fill="#EA6A12"/>
<path d="M434.272 94.9844C434.008 94.9844 433.793 95.1999 433.793 95.466C433.793 95.732 434.008 95.9476 434.272 95.9476C434.537 95.9476 434.751 95.732 434.751 95.466C434.751 95.1999 434.537 94.9844 434.272 94.9844Z" fill="#EA6A12"/>
<path d="M434.272 100.295C434.008 100.295 433.793 100.51 433.793 100.777C433.793 101.043 434.008 101.258 434.272 101.258C434.537 101.258 434.751 101.043 434.751 100.777C434.751 100.51 434.537 100.295 434.272 100.295Z" fill="#EA6A12"/>
<path d="M434.272 105.605C434.008 105.605 433.793 105.821 433.793 106.087C433.793 106.353 434.008 106.569 434.272 106.569C434.537 106.569 434.751 106.353 434.751 106.087C434.751 105.821 434.537 105.605 434.272 105.605Z" fill="#EA6A12"/>
<path d="M434.272 110.918C434.008 110.918 433.793 111.133 433.793 111.4C433.793 111.666 434.008 111.881 434.272 111.881C434.537 111.881 434.751 111.666 434.751 111.4C434.751 111.133 434.537 110.918 434.272 110.918Z" fill="#EA6A12"/>
<path d="M434.272 116.227C434.008 116.227 433.793 116.442 433.793 116.708C433.793 116.974 434.008 117.19 434.272 117.19C434.537 117.19 434.751 116.974 434.751 116.708C434.751 116.442 434.537 116.227 434.272 116.227Z" fill="#EA6A12"/>
<path d="M434.272 121.539C434.008 121.539 433.793 121.755 433.793 122.021C433.793 122.287 434.008 122.502 434.272 122.502C434.537 122.502 434.751 122.287 434.751 122.021C434.751 121.755 434.537 121.539 434.272 121.539Z" fill="#EA6A12"/>
<path d="M434.272 126.848C434.008 126.848 433.793 127.063 433.793 127.329C433.793 127.595 434.008 127.811 434.272 127.811C434.537 127.811 434.751 127.595 434.751 127.329C434.751 127.063 434.537 126.848 434.272 126.848Z" fill="#EA6A12"/>
<path d="M434.272 132.16C434.008 132.16 433.793 132.376 433.793 132.642C433.793 132.908 434.008 133.123 434.272 133.123C434.537 133.123 434.751 132.908 434.751 132.642C434.751 132.376 434.537 132.16 434.272 132.16Z" fill="#EA6A12"/>
<path d="M429.055 68.4316C428.79 68.4316 428.575 68.6472 428.575 68.9132C428.575 69.1793 428.79 69.3948 429.055 69.3948C429.319 69.3948 429.534 69.1793 429.534 68.9132C429.534 68.6472 429.319 68.4316 429.055 68.4316Z" fill="#EA6A12"/>
<path d="M429.055 73.7422C428.79 73.7422 428.575 73.9577 428.575 74.2238C428.575 74.4898 428.79 74.7054 429.055 74.7054C429.319 74.7054 429.534 74.4898 429.534 74.2238C429.534 73.9577 429.319 73.7422 429.055 73.7422Z" fill="#EA6A12"/>
<path d="M429.055 79.0527C428.79 79.0527 428.575 79.2682 428.575 79.5343C428.575 79.8004 428.79 80.0159 429.055 80.0159C429.319 80.0159 429.534 79.8004 429.534 79.5343C429.534 79.2682 429.319 79.0527 429.055 79.0527Z" fill="#EA6A12"/>
<path d="M428.575 84.8449C428.575 85.1108 428.79 85.3265 429.055 85.3265C429.319 85.3265 429.534 85.1108 429.534 84.8449C429.534 84.5789 429.319 84.3633 429.055 84.3633C428.79 84.3633 428.575 84.5789 428.575 84.8449Z" fill="#EA6A12"/>
<path d="M428.575 90.1554C428.575 90.4214 428.79 90.637 429.055 90.637C429.319 90.637 429.534 90.4214 429.534 90.1554C429.534 89.8894 429.319 89.6738 429.055 89.6738C428.79 89.6738 428.575 89.8894 428.575 90.1554Z" fill="#EA6A12"/>
<path d="M428.575 95.466C428.575 95.7319 428.79 95.9476 429.055 95.9476C429.319 95.9476 429.534 95.7319 429.534 95.466C429.534 95.2 429.319 94.9844 429.055 94.9844C428.79 94.9844 428.575 95.2 428.575 95.466Z" fill="#EA6A12"/>
<path d="M429.055 100.295C428.79 100.295 428.575 100.51 428.575 100.777C428.575 101.043 428.79 101.258 429.055 101.258C429.319 101.258 429.534 101.043 429.534 100.777C429.534 100.51 429.319 100.295 429.055 100.295Z" fill="#EA6A12"/>
<path d="M429.055 105.605C428.79 105.605 428.575 105.821 428.575 106.087C428.575 106.353 428.79 106.569 429.055 106.569C429.319 106.569 429.534 106.353 429.534 106.087C429.534 105.821 429.319 105.605 429.055 105.605Z" fill="#EA6A12"/>
<path d="M429.055 110.918C428.79 110.918 428.575 111.133 428.575 111.4C428.575 111.666 428.79 111.881 429.055 111.881C429.319 111.881 429.534 111.666 429.534 111.4C429.534 111.133 429.319 110.918 429.055 110.918Z" fill="#EA6A12"/>
<path d="M429.055 116.227C428.79 116.227 428.575 116.442 428.575 116.708C428.575 116.974 428.79 117.19 429.055 117.19C429.319 117.19 429.534 116.974 429.534 116.708C429.534 116.442 429.319 116.227 429.055 116.227Z" fill="#EA6A12"/>
<path d="M429.055 121.539C428.79 121.539 428.575 121.755 428.575 122.021C428.575 122.287 428.79 122.502 429.055 122.502C429.319 122.502 429.534 122.287 429.534 122.021C429.534 121.755 429.319 121.539 429.055 121.539Z" fill="#EA6A12"/>
<path d="M429.055 126.848C428.79 126.848 428.575 127.063 428.575 127.329C428.575 127.595 428.79 127.811 429.055 127.811C429.319 127.811 429.534 127.595 429.534 127.329C429.534 127.063 429.319 126.848 429.055 126.848Z" fill="#EA6A12"/>
<path d="M429.055 132.16C428.79 132.16 428.575 132.376 428.575 132.642C428.575 132.908 428.79 133.123 429.055 133.123C429.319 133.123 429.534 132.908 429.534 132.642C429.534 132.376 429.319 132.16 429.055 132.16Z" fill="#EA6A12"/>
<path d="M423.837 68.4316C423.572 68.4316 423.358 68.6472 423.358 68.9132C423.358 69.1793 423.572 69.3948 423.837 69.3948C424.101 69.3948 424.316 69.1793 424.316 68.9132C424.316 68.6472 424.101 68.4316 423.837 68.4316Z" fill="#EA6A12"/>
<path d="M423.837 73.7422C423.572 73.7422 423.358 73.9577 423.358 74.2238C423.358 74.4898 423.572 74.7054 423.837 74.7054C424.101 74.7054 424.316 74.4898 424.316 74.2238C424.316 73.9577 424.101 73.7422 423.837 73.7422Z" fill="#EA6A12"/>
<path d="M423.837 79.0527C423.572 79.0527 423.358 79.2682 423.358 79.5343C423.358 79.8004 423.572 80.0159 423.837 80.0159C424.101 80.0159 424.316 79.8004 424.316 79.5343C424.316 79.2682 424.101 79.0527 423.837 79.0527Z" fill="#EA6A12"/>
<path d="M423.837 84.3633C423.572 84.3633 423.358 84.5788 423.358 84.8449C423.358 85.1109 423.572 85.3265 423.837 85.3265C424.101 85.3265 424.316 85.1109 424.316 84.8449C424.316 84.5788 424.101 84.3633 423.837 84.3633Z" fill="#EA6A12"/>
<path d="M423.837 89.6738C423.572 89.6738 423.358 89.8893 423.358 90.1554C423.358 90.4215 423.572 90.637 423.837 90.637C424.101 90.637 424.316 90.4215 424.316 90.1554C424.316 89.8893 424.101 89.6738 423.837 89.6738Z" fill="#EA6A12"/>
<path d="M423.837 94.9844C423.572 94.9844 423.358 95.1999 423.358 95.466C423.358 95.732 423.572 95.9476 423.837 95.9476C424.101 95.9476 424.316 95.732 424.316 95.466C424.316 95.1999 424.101 94.9844 423.837 94.9844Z" fill="#EA6A12"/>
<path d="M423.837 100.295C423.572 100.295 423.358 100.51 423.358 100.777C423.358 101.043 423.572 101.258 423.837 101.258C424.101 101.258 424.316 101.043 424.316 100.777C424.316 100.51 424.101 100.295 423.837 100.295Z" fill="#EA6A12"/>
<path d="M423.837 105.605C423.572 105.605 423.358 105.821 423.358 106.087C423.358 106.353 423.572 106.569 423.837 106.569C424.101 106.569 424.316 106.353 424.316 106.087C424.316 105.821 424.101 105.605 423.837 105.605Z" fill="#EA6A12"/>
<path d="M423.837 110.918C423.572 110.918 423.358 111.133 423.358 111.4C423.358 111.666 423.572 111.881 423.837 111.881C424.101 111.881 424.316 111.666 424.316 111.4C424.316 111.133 424.101 110.918 423.837 110.918Z" fill="#EA6A12"/>
<path d="M423.837 116.227C423.572 116.227 423.358 116.442 423.358 116.708C423.358 116.974 423.572 117.19 423.837 117.19C424.101 117.19 424.316 116.974 424.316 116.708C424.316 116.442 424.101 116.227 423.837 116.227Z" fill="#EA6A12"/>
<path d="M423.837 121.539C423.572 121.539 423.358 121.755 423.358 122.021C423.358 122.287 423.572 122.502 423.837 122.502C424.101 122.502 424.316 122.287 424.316 122.021C424.316 121.755 424.101 121.539 423.837 121.539Z" fill="#EA6A12"/>
<path d="M423.837 126.848C423.572 126.848 423.358 127.063 423.358 127.329C423.358 127.595 423.572 127.811 423.837 127.811C424.101 127.811 424.316 127.595 424.316 127.329C424.316 127.063 424.101 126.848 423.837 126.848Z" fill="#EA6A12"/>
<path d="M423.837 132.16C423.572 132.16 423.358 132.376 423.358 132.642C423.358 132.908 423.572 133.123 423.837 133.123C424.101 133.123 424.316 132.908 424.316 132.642C424.316 132.376 424.101 132.16 423.837 132.16Z" fill="#EA6A12"/>
<path d="M427.309 159.937C425.577 159.932 423.845 159.624 422.232 159.014C419.421 157.952 416.182 157.942 413.361 158.987C410.124 160.188 406.418 160.177 403.192 158.957C400.38 157.894 397.142 157.885 394.321 158.93C394.054 159.027 393.691 158.986 393.51 158.836C393.329 158.686 393.408 158.482 393.674 158.381C396.912 157.18 400.617 157.192 403.843 158.412C406.662 159.474 409.893 159.484 412.715 158.439C415.952 157.238 419.657 157.249 422.884 158.469C425.695 159.531 428.934 159.541 431.755 158.496C434.992 157.296 438.698 157.311 441.924 158.527C442.19 158.63 442.266 158.831 442.084 158.983C441.902 159.132 441.545 159.171 441.272 159.072C438.461 158.01 435.223 158 432.401 159.045C430.783 159.645 429.049 159.943 427.309 159.937Z" fill="#EA6A12"/>
<path d="M427.327 156.219C425.594 156.213 423.863 155.906 422.25 155.295C419.438 154.233 416.2 154.224 413.379 155.269C410.141 156.469 406.436 156.458 403.21 155.238C400.398 154.176 397.16 154.166 394.338 155.211C394.072 155.309 393.709 155.267 393.528 155.117C393.347 154.967 393.425 154.763 393.692 154.662C396.929 153.462 400.635 153.473 403.861 154.693C406.679 155.755 409.911 155.765 412.732 154.72C415.969 153.519 419.675 153.531 422.901 154.751C425.713 155.813 428.951 155.823 431.772 154.778C435.01 153.577 438.715 153.592 441.941 154.808C442.207 154.911 442.284 155.112 442.102 155.265C441.919 155.413 441.562 155.452 441.29 155.353C438.478 154.291 435.24 154.281 432.419 155.326C430.8 155.927 429.066 156.224 427.327 156.219Z" fill="#EA6A12"/>
<path d="M427.344 152.506C425.611 152.5 423.88 152.193 422.267 151.583C419.455 150.521 416.217 150.511 413.396 151.556C410.159 152.753 406.453 152.741 403.227 151.525C400.415 150.463 397.177 150.453 394.356 151.498C394.089 151.596 393.726 151.554 393.545 151.404C393.364 151.254 393.443 151.051 393.709 150.949C396.946 149.749 400.652 149.76 403.878 150.98C406.696 152.042 409.928 152.052 412.749 151.007C415.987 149.806 419.692 149.818 422.918 151.038C425.73 152.1 428.968 152.11 431.79 151.065C435.027 149.864 438.732 149.879 441.959 151.095C442.224 151.198 442.301 151.399 442.119 151.552C441.936 151.701 441.579 151.74 441.307 151.64C438.495 150.578 435.257 150.568 432.436 151.613C430.817 152.214 429.083 152.511 427.344 152.506Z" fill="#EA6A12"/>
<path d="M427.36 148.787C425.627 148.781 423.896 148.473 422.283 147.862C419.472 146.799 416.234 146.788 413.412 147.833C410.174 149.032 406.469 149.02 403.243 147.799C400.432 146.736 397.194 146.725 394.372 147.77C394.106 147.867 393.742 147.826 393.561 147.676C393.38 147.526 393.459 147.322 393.726 147.221C396.964 146.021 400.669 146.033 403.895 147.254C406.713 148.317 409.944 148.328 412.766 147.284C416.004 146.084 419.709 146.096 422.935 147.317C425.746 148.38 428.985 148.391 431.806 147.347C435.044 146.147 438.75 146.163 441.975 147.381C442.241 147.483 442.318 147.684 442.135 147.837C441.953 147.986 441.596 148.025 441.324 147.925C438.512 146.862 435.274 146.852 432.452 147.896C430.834 148.496 429.099 148.792 427.36 148.787Z" fill="#EA6A12"/>
<path d="M303.689 93.7426C299.317 84.7094 288.66 81.0357 279.886 85.5373C271.113 90.0388 267.545 101.011 271.917 110.044C276.289 119.077 286.946 122.751 295.72 118.25C304.493 113.748 308.061 102.776 303.689 93.7426Z" fill="#FFF3EB"/>
</g>
<path d="M429.262 14.3894C439.176 14.3894 447.213 22.4263 447.213 32.3403C447.213 42.2543 439.176 50.2912 429.262 50.2912C419.347 50.2912 411.31 42.2543 411.31 32.3403C411.31 22.4263 419.347 14.3894 429.262 14.3894Z" stroke="#EA6A12" stroke-width="0.56987"/>
</g>
<defs>
<filter id="filter0_b_152_7345" x="-42" y="-42" width="572" height="295" filterUnits="userSpaceOnUse" color-interpolation-filters="sRGB">
<feFlood flood-opacity="0" result="BackgroundImageFix"/>
<feGaussianBlur in="BackgroundImageFix" stdDeviation="21"/>
<feComposite in2="SourceAlpha" operator="in" result="effect1_backgroundBlur_152_7345"/>
<feBlend mode="normal" in="SourceGraphic" in2="effect1_backgroundBlur_152_7345" result="shape"/>
</filter>
</defs>
</svg>
