<svg width="222" height="208" viewBox="0 0 222 208" fill="none" xmlns="http://www.w3.org/2000/svg">
<g id="Group 34652" opacity="0.5">
<g id="Group 34448" opacity="0.3">
<path id="Vector" d="M213.456 16.3559C209.084 7.32263 198.427 3.64896 189.653 8.15052C180.879 12.6521 177.311 23.6242 181.684 32.6575C186.056 41.6908 196.713 45.3644 205.486 40.8629C214.26 36.3613 217.828 25.3892 213.456 16.3559Z" fill="#FFF3EB"/>
<path id="Vector_2" opacity="0.5" d="M90.16 14.9161C88.0402 17.9502 86.8674 21.5979 86.8116 25.3368C87.1194 25.3322 87.3714 25.5801 87.3763 25.8946C87.4167 28.4544 87.9994 31.0462 89.1837 33.4931C90.368 35.9399 92.0269 37.9795 93.9877 39.5541C94.2286 39.7475 94.2691 40.1039 94.0802 40.3541C97.0131 42.5596 100.548 43.792 104.177 43.8763C104.183 43.563 104.435 43.3081 104.744 43.3051C107.266 43.2808 109.821 42.682 112.231 41.4456C114.641 40.2092 116.644 38.4692 118.181 36.4108C118.369 36.1588 118.719 36.1052 118.966 36.2887C121.085 33.2546 122.258 29.6069 122.314 25.868C122.006 25.8726 121.754 25.6247 121.749 25.3102C121.709 22.7504 121.126 20.1586 119.942 17.7117C118.758 15.2649 117.099 13.2253 115.138 11.6507C114.897 11.4573 114.857 11.1008 115.045 10.8506C112.113 8.64519 108.578 7.41282 104.949 7.32843C104.942 7.64183 104.69 7.89673 104.382 7.8997C101.86 7.92394 99.3043 8.52274 96.8945 9.75916C94.4847 10.9956 92.4817 12.7356 90.9444 14.794C90.7562 15.046 90.4068 15.0996 90.16 14.9161Z" stroke="#EA6A12" stroke-width="1.13974" stroke-linecap="round" stroke-dasharray="11.4 8.55"/>
<path id="Vector_3" d="M138.198 175.298C133.835 166.26 123.19 162.591 114.422 167.102C105.653 171.614 102.081 182.597 106.444 191.635C110.806 200.673 121.451 204.343 130.22 199.832C138.988 195.32 142.56 184.336 138.198 175.298Z" fill="#FFF3EB"/>
<rect id="Rectangle 1073" x="128.365" y="74.6797" width="37.6506" height="35.4988" transform="rotate(90 128.365 74.6797)" fill="#EA6A12"/>
<rect id="Rectangle 1074" x="72.5246" y="133.701" width="37.0808" height="34.9289" transform="rotate(90 72.5246 133.701)" stroke="#EA6A12" stroke-width="0.56987" stroke-dasharray="8.55 11.4"/>
<rect id="Rectangle 1075" x="213.417" y="157.797" width="37.0808" height="34.9289" transform="rotate(90 213.417 157.797)" stroke="#EA6A12" stroke-width="0.56987" stroke-dasharray="8.55 11.4"/>
<g id="Group">
<path id="Vector_4" d="M25.6359 66.7322L35.2474 57.898L35.2343 58.4111L25.6228 67.2454L25.6359 66.7322Z" fill="#EA6A12"/>
<path id="Vector_5" d="M25.7428 62.0779L35.3543 53.2437L35.3412 53.7568L25.7298 62.5911L25.7428 62.0779Z" fill="#EA6A12"/>
<path id="Vector_6" d="M25.8503 57.4239L35.4618 48.5897L35.4487 49.1064L25.8372 57.9407L25.8503 57.4239Z" fill="#EA6A12"/>
<path id="Vector_7" d="M25.9577 52.7712L35.5693 43.937L35.5562 44.4501L25.9446 53.2843L25.9577 52.7712Z" fill="#EA6A12"/>
<path id="Vector_8" d="M26.0641 48.119L35.6756 39.2847L35.6625 39.7978L26.051 48.6321L26.0641 48.119Z" fill="#EA6A12"/>
<path id="Vector_9" d="M26.1716 43.4629L35.7832 34.6287L35.7701 35.1455L26.1585 43.9796L26.1716 43.4629Z" fill="#EA6A12"/>
<path id="Vector_10" d="M26.2789 38.8123L35.8904 29.978L35.8773 30.4948L26.2659 39.3255L26.2789 38.8123Z" fill="#EA6A12"/>
</g>
<g id="Group_2">
<path id="Vector_11" d="M143.496 49.3753L153.106 40.585L153.093 41.0956L143.483 49.8859L143.496 49.3753Z" fill="#EA6A12"/>
<path id="Vector_12" d="M143.603 44.7443L153.213 35.9541L153.2 36.4648L143.59 45.255L143.603 44.7443Z" fill="#EA6A12"/>
<path id="Vector_13" d="M143.709 40.1119L153.32 31.3216L153.307 31.8359L143.696 40.6262L143.709 40.1119Z" fill="#EA6A12"/>
<path id="Vector_14" d="M143.816 35.4827L153.427 26.6925L153.414 27.2031L143.803 35.9934L143.816 35.4827Z" fill="#EA6A12"/>
<path id="Vector_15" d="M143.922 30.8538L153.532 22.0635L153.519 22.5742L143.909 31.3644L143.922 30.8538Z" fill="#EA6A12"/>
<path id="Vector_16" d="M144.029 26.2213L153.64 17.431L153.627 17.9453L144.016 26.7355L144.029 26.2213Z" fill="#EA6A12"/>
<path id="Vector_17" d="M144.136 21.59L153.747 12.7999L153.734 13.3141L144.123 22.1007L144.136 21.59Z" fill="#EA6A12"/>
</g>
<g id="Group_3">
<path id="Vector_18" d="M202.243 99.0779L211.854 90.2436L211.841 90.7568L202.23 99.5911L202.243 99.0779Z" fill="#EA6A12"/>
<path id="Vector_19" d="M202.35 94.4236L211.961 85.5894L211.948 86.1025L202.337 94.9368L202.35 94.4236Z" fill="#EA6A12"/>
<path id="Vector_20" d="M202.457 89.7677L212.069 80.9334L212.056 81.4502L202.444 90.2844L202.457 89.7677Z" fill="#EA6A12"/>
<path id="Vector_21" d="M202.565 85.1169L212.176 76.2827L212.163 76.7959L202.552 85.63L202.565 85.1169Z" fill="#EA6A12"/>
<path id="Vector_22" d="M202.671 80.4647L212.283 71.6304L212.269 72.1435L202.658 80.9778L202.671 80.4647Z" fill="#EA6A12"/>
<path id="Vector_23" d="M202.779 75.8086L212.39 66.9744L212.377 67.4912L202.765 76.3254L202.779 75.8086Z" fill="#EA6A12"/>
<path id="Vector_24" d="M202.886 71.158L212.497 62.3237L212.484 62.8405L202.873 71.6712L202.886 71.158Z" fill="#EA6A12"/>
</g>
<g id="Group_4">
<path id="Vector_25" d="M75.348 5.61133C75.0832 5.61133 74.8688 5.82684 74.8688 6.0929C74.8688 6.35897 75.0832 6.57448 75.348 6.57448C75.6127 6.57448 75.8271 6.35897 75.8271 6.0929C75.8271 5.82684 75.6127 5.61133 75.348 5.61133Z" fill="#EA6A12"/>
<path id="Vector_26" d="M75.348 10.9219C75.0832 10.9219 74.8688 11.1374 74.8688 11.4035C74.8688 11.6695 75.0832 11.885 75.348 11.885C75.6127 11.885 75.8271 11.6695 75.8271 11.4035C75.8271 11.1374 75.6127 10.9219 75.348 10.9219Z" fill="#EA6A12"/>
<path id="Vector_27" d="M75.348 16.2324C75.0832 16.2324 74.8688 16.4479 74.8688 16.714C74.8688 16.9801 75.0832 17.1956 75.348 17.1956C75.6127 17.1956 75.8271 16.9801 75.8271 16.714C75.8271 16.4479 75.6127 16.2324 75.348 16.2324Z" fill="#EA6A12"/>
<path id="Vector_28" d="M75.348 21.543C75.0832 21.543 74.8688 21.7585 74.8688 22.0246C74.8688 22.2906 75.0832 22.5062 75.348 22.5062C75.6127 22.5062 75.8271 22.2906 75.8271 22.0246C75.8271 21.7585 75.6127 21.543 75.348 21.543Z" fill="#EA6A12"/>
<path id="Vector_29" d="M75.3485 26.8555C75.0837 26.8555 74.8693 27.071 74.8693 27.3371C74.8693 27.6031 75.0837 27.8186 75.3485 27.8186C75.6132 27.8186 75.8276 27.6031 75.8276 27.3371C75.8276 27.071 75.6132 26.8555 75.3485 26.8555Z" fill="#EA6A12"/>
<path id="Vector_30" d="M75.348 32.1641C75.0832 32.1641 74.8688 32.3796 74.8688 32.6457C74.8688 32.9117 75.0832 33.1272 75.348 33.1272C75.6127 33.1272 75.8271 32.9117 75.8271 32.6457C75.8271 32.3796 75.6127 32.1641 75.348 32.1641Z" fill="#EA6A12"/>
<path id="Vector_31" d="M75.3485 37.4766C75.0837 37.4766 74.8693 37.6921 74.8693 37.9582C74.8693 38.2242 75.0837 38.4397 75.3485 38.4397C75.6132 38.4397 75.8276 38.2242 75.8276 37.9582C75.8276 37.6921 75.6132 37.4766 75.3485 37.4766Z" fill="#EA6A12"/>
<path id="Vector_32" d="M75.348 42.7852C75.0832 42.7852 74.8688 43.0007 74.8688 43.2667C74.8688 43.5328 75.0832 43.7483 75.348 43.7483C75.6127 43.7483 75.8271 43.5328 75.8271 43.2667C75.8271 43.0007 75.6127 42.7852 75.348 42.7852Z" fill="#EA6A12"/>
<path id="Vector_33" d="M75.3485 48.0977C75.0837 48.0977 74.8693 48.3132 74.8693 48.5792C74.8693 48.8453 75.0837 49.0608 75.3485 49.0608C75.6132 49.0608 75.8276 48.8453 75.8276 48.5792C75.8276 48.3132 75.6132 48.0977 75.3485 48.0977Z" fill="#EA6A12"/>
<path id="Vector_34" d="M75.3485 53.4082C75.0837 53.4082 74.8693 53.6237 74.8693 53.8898C74.8693 54.1559 75.0837 54.3714 75.3485 54.3714C75.6132 54.3714 75.8276 54.1559 75.8276 53.8898C75.8276 53.6237 75.6132 53.4082 75.3485 53.4082Z" fill="#EA6A12"/>
<path id="Vector_35" d="M75.3485 58.7188C75.0837 58.7188 74.8693 58.9343 74.8693 59.2003C74.8693 59.4664 75.0837 59.6819 75.3485 59.6819C75.6132 59.6819 75.8276 59.4664 75.8276 59.2003C75.8276 58.9343 75.6132 58.7188 75.3485 58.7188Z" fill="#EA6A12"/>
<path id="Vector_36" d="M75.3485 64.0293C75.0837 64.0293 74.8693 64.2448 74.8693 64.5109C74.8693 64.777 75.0837 64.9925 75.3485 64.9925C75.6132 64.9925 75.8276 64.777 75.8276 64.5109C75.8276 64.2448 75.6132 64.0293 75.3485 64.0293Z" fill="#EA6A12"/>
<path id="Vector_37" d="M75.3485 69.3398C75.0837 69.3398 74.8693 69.5554 74.8693 69.8214C74.8693 70.0875 75.0837 70.303 75.3485 70.303C75.6132 70.303 75.8276 70.0875 75.8276 69.8214C75.8276 69.5554 75.6132 69.3398 75.3485 69.3398Z" fill="#EA6A12"/>
<path id="Vector_38" d="M70.1302 5.61133C69.8655 5.61133 69.651 5.82684 69.651 6.0929C69.651 6.35897 69.8655 6.57448 70.1302 6.57448C70.3949 6.57448 70.6094 6.35897 70.6094 6.0929C70.612 5.82684 70.3949 5.61133 70.1302 5.61133Z" fill="#EA6A12"/>
<path id="Vector_39" d="M70.1302 10.9238C69.8655 10.9238 69.651 11.1393 69.651 11.4054C69.651 11.6715 69.8655 11.887 70.1302 11.887C70.3949 11.887 70.6094 11.6715 70.6094 11.4054C70.612 11.1393 70.3949 10.9238 70.1302 10.9238Z" fill="#EA6A12"/>
<path id="Vector_40" d="M70.1302 16.2324C69.8655 16.2324 69.651 16.4479 69.651 16.714C69.651 16.9801 69.8655 17.1956 70.1302 17.1956C70.3949 17.1956 70.6094 16.9801 70.6094 16.714C70.612 16.4479 70.3949 16.2324 70.1302 16.2324Z" fill="#EA6A12"/>
<path id="Vector_41" d="M70.1302 21.5449C69.8655 21.5449 69.651 21.7604 69.651 22.0265C69.651 22.2926 69.8655 22.5081 70.1302 22.5081C70.3949 22.5081 70.6094 22.2926 70.6094 22.0265C70.612 21.7604 70.3949 21.5449 70.1302 21.5449Z" fill="#EA6A12"/>
<path id="Vector_42" d="M70.1302 26.8555C69.8655 26.8555 69.651 27.071 69.651 27.3371C69.651 27.6031 69.8655 27.8186 70.1302 27.8186C70.3949 27.8186 70.6094 27.6031 70.6094 27.3371C70.6094 27.071 70.3949 26.8555 70.1302 26.8555Z" fill="#EA6A12"/>
<path id="Vector_43" d="M70.1302 32.1641C69.8655 32.1641 69.651 32.3796 69.651 32.6457C69.651 32.9117 69.8655 33.1272 70.1302 33.1272C70.3949 33.1272 70.6094 32.9117 70.6094 32.6457C70.6094 32.3796 70.3949 32.1641 70.1302 32.1641Z" fill="#EA6A12"/>
<path id="Vector_44" d="M70.1302 37.4766C69.8655 37.4766 69.651 37.6921 69.651 37.9582C69.651 38.2242 69.8655 38.4397 70.1302 38.4397C70.3949 38.4397 70.6094 38.2242 70.6094 37.9582C70.612 37.6921 70.3949 37.4766 70.1302 37.4766Z" fill="#EA6A12"/>
<path id="Vector_45" d="M70.1302 42.7852C69.8655 42.7852 69.651 43.0007 69.651 43.2667C69.651 43.5328 69.8655 43.7483 70.1302 43.7483C70.3949 43.7483 70.6094 43.5328 70.6094 43.2667C70.612 43.0007 70.3949 42.7852 70.1302 42.7852Z" fill="#EA6A12"/>
<path id="Vector_46" d="M70.1302 48.0977C69.8655 48.0977 69.651 48.3132 69.651 48.5792C69.651 48.8453 69.8655 49.0608 70.1302 49.0608C70.3949 49.0608 70.6094 48.8453 70.6094 48.5792C70.612 48.3132 70.3949 48.0977 70.1302 48.0977Z" fill="#EA6A12"/>
<path id="Vector_47" d="M70.1302 53.4082C69.8655 53.4082 69.651 53.6237 69.651 53.8898C69.651 54.1559 69.8655 54.3714 70.1302 54.3714C70.3949 54.3714 70.6094 54.1559 70.6094 53.8898C70.612 53.6237 70.3949 53.4082 70.1302 53.4082Z" fill="#EA6A12"/>
<path id="Vector_48" d="M70.1302 58.7188C69.8655 58.7188 69.651 58.9343 69.651 59.2003C69.651 59.4664 69.8655 59.6819 70.1302 59.6819C70.3949 59.6819 70.6094 59.4664 70.6094 59.2003C70.612 58.9343 70.3949 58.7188 70.1302 58.7188Z" fill="#EA6A12"/>
<path id="Vector_49" d="M70.1302 64.0293C69.8655 64.0293 69.651 64.2448 69.651 64.5109C69.651 64.777 69.8655 64.9925 70.1302 64.9925C70.3949 64.9925 70.6094 64.777 70.6094 64.5109C70.612 64.2448 70.3949 64.0293 70.1302 64.0293Z" fill="#EA6A12"/>
<path id="Vector_50" d="M70.1302 69.3398C69.8655 69.3398 69.651 69.5554 69.651 69.8214C69.651 70.0875 69.8655 70.303 70.1302 70.303C70.3949 70.303 70.6094 70.0875 70.6094 69.8214C70.612 69.5554 70.3949 69.3398 70.1302 69.3398Z" fill="#EA6A12"/>
<path id="Vector_51" d="M64.9129 5.61133C64.6482 5.61133 64.4338 5.82684 64.4338 6.0929C64.4338 6.35897 64.6482 6.57448 64.9129 6.57448C65.1777 6.57448 65.3921 6.35897 65.3921 6.0929C65.3921 5.82684 65.1777 5.61133 64.9129 5.61133Z" fill="#EA6A12"/>
<path id="Vector_52" d="M64.9129 10.9238C64.6482 10.9238 64.4338 11.1393 64.4338 11.4054C64.4338 11.6715 64.6482 11.887 64.9129 11.887C65.1777 11.887 65.3921 11.6715 65.3921 11.4054C65.3921 11.1393 65.1777 10.9238 64.9129 10.9238Z" fill="#EA6A12"/>
<path id="Vector_53" d="M64.9129 16.2324C64.6482 16.2324 64.4338 16.4479 64.4338 16.714C64.4338 16.9801 64.6482 17.1956 64.9129 17.1956C65.1777 17.1956 65.3921 16.9801 65.3921 16.714C65.3921 16.4479 65.1777 16.2324 64.9129 16.2324Z" fill="#EA6A12"/>
<path id="Vector_54" d="M64.9129 21.5449C64.6482 21.5449 64.4338 21.7604 64.4338 22.0265C64.4338 22.2926 64.6482 22.5081 64.9129 22.5081C65.1777 22.5081 65.3921 22.2926 65.3921 22.0265C65.3921 21.7604 65.1777 21.5449 64.9129 21.5449Z" fill="#EA6A12"/>
<path id="Vector_55" d="M64.9129 26.8555C64.6482 26.8555 64.4338 27.071 64.4338 27.3371C64.4338 27.6031 64.6482 27.8186 64.9129 27.8186C65.1777 27.8186 65.3921 27.6031 65.3921 27.3371C65.3921 27.071 65.1777 26.8555 64.9129 26.8555Z" fill="#EA6A12"/>
<path id="Vector_56" d="M64.9129 32.1641C64.6482 32.1641 64.4338 32.3796 64.4338 32.6457C64.4338 32.9117 64.6482 33.1272 64.9129 33.1272C65.1777 33.1272 65.3921 32.9117 65.3921 32.6457C65.3921 32.3796 65.1777 32.1641 64.9129 32.1641Z" fill="#EA6A12"/>
<path id="Vector_57" d="M64.9129 37.4766C64.6482 37.4766 64.4338 37.6921 64.4338 37.9582C64.4338 38.2242 64.6482 38.4397 64.9129 38.4397C65.1777 38.4397 65.3921 38.2242 65.3921 37.9582C65.3921 37.6921 65.1777 37.4766 64.9129 37.4766Z" fill="#EA6A12"/>
<path id="Vector_58" d="M64.9129 42.7852C64.6482 42.7852 64.4338 43.0007 64.4338 43.2667C64.4338 43.5328 64.6482 43.7483 64.9129 43.7483C65.1777 43.7483 65.3921 43.5328 65.3921 43.2667C65.3921 43.0007 65.1777 42.7852 64.9129 42.7852Z" fill="#EA6A12"/>
<path id="Vector_59" d="M64.9129 48.0977C64.6482 48.0977 64.4338 48.3132 64.4338 48.5792C64.4338 48.8453 64.6482 49.0608 64.9129 49.0608C65.1777 49.0608 65.3921 48.8453 65.3921 48.5792C65.3921 48.3132 65.1777 48.0977 64.9129 48.0977Z" fill="#EA6A12"/>
<path id="Vector_60" d="M64.9129 53.4082C64.6482 53.4082 64.4338 53.6237 64.4338 53.8898C64.4338 54.1559 64.6482 54.3714 64.9129 54.3714C65.1777 54.3714 65.3921 54.1559 65.3921 53.8898C65.3921 53.6237 65.1777 53.4082 64.9129 53.4082Z" fill="#EA6A12"/>
<path id="Vector_61" d="M64.9129 58.7188C64.6482 58.7188 64.4338 58.9343 64.4338 59.2003C64.4338 59.4664 64.6482 59.6819 64.9129 59.6819C65.1777 59.6819 65.3921 59.4664 65.3921 59.2003C65.3921 58.9343 65.1777 58.7188 64.9129 58.7188Z" fill="#EA6A12"/>
<path id="Vector_62" d="M64.9129 64.0293C64.6482 64.0293 64.4338 64.2448 64.4338 64.5109C64.4338 64.777 64.6482 64.9925 64.9129 64.9925C65.1777 64.9925 65.3921 64.777 65.3921 64.5109C65.3921 64.2448 65.1777 64.0293 64.9129 64.0293Z" fill="#EA6A12"/>
<path id="Vector_63" d="M64.9129 69.3398C64.6482 69.3398 64.4338 69.5554 64.4338 69.8214C64.4338 70.0875 64.6482 70.303 64.9129 70.303C65.1777 70.303 65.3921 70.0875 65.3921 69.8214C65.3921 69.5554 65.1777 69.3398 64.9129 69.3398Z" fill="#EA6A12"/>
<path id="Vector_64" d="M59.6942 5.61133C59.4294 5.61133 59.215 5.82684 59.215 6.0929C59.215 6.35897 59.4294 6.57448 59.6942 6.57448C59.9589 6.57448 60.1733 6.35897 60.1733 6.0929C60.1733 5.82684 59.9589 5.61133 59.6942 5.61133Z" fill="#EA6A12"/>
<path id="Vector_65" d="M59.6942 10.9238C59.4294 10.9238 59.215 11.1393 59.215 11.4054C59.215 11.6715 59.4294 11.887 59.6942 11.887C59.9589 11.887 60.1733 11.6715 60.1733 11.4054C60.1733 11.1393 59.9589 10.9238 59.6942 10.9238Z" fill="#EA6A12"/>
<path id="Vector_66" d="M59.6942 16.2324C59.4294 16.2324 59.215 16.4479 59.215 16.714C59.215 16.9801 59.4294 17.1956 59.6942 17.1956C59.9589 17.1956 60.1733 16.9801 60.1733 16.714C60.1733 16.4479 59.9589 16.2324 59.6942 16.2324Z" fill="#EA6A12"/>
<path id="Vector_67" d="M59.6942 21.5449C59.4294 21.5449 59.215 21.7604 59.215 22.0265C59.215 22.2926 59.4294 22.5081 59.6942 22.5081C59.9589 22.5081 60.1733 22.2926 60.1733 22.0265C60.1733 21.7604 59.9589 21.5449 59.6942 21.5449Z" fill="#EA6A12"/>
<path id="Vector_68" d="M59.6942 26.8555C59.4294 26.8555 59.215 27.071 59.215 27.3371C59.215 27.6031 59.4294 27.8186 59.6942 27.8186C59.9589 27.8186 60.1733 27.6031 60.1733 27.3371C60.1733 27.071 59.9589 26.8555 59.6942 26.8555Z" fill="#EA6A12"/>
<path id="Vector_69" d="M59.6942 32.1641C59.4294 32.1641 59.215 32.3796 59.215 32.6457C59.215 32.9117 59.4294 33.1272 59.6942 33.1272C59.9589 33.1272 60.1733 32.9117 60.1733 32.6457C60.1733 32.3796 59.9589 32.1641 59.6942 32.1641Z" fill="#EA6A12"/>
<path id="Vector_70" d="M59.6942 37.4766C59.4294 37.4766 59.215 37.6921 59.215 37.9582C59.215 38.2242 59.4294 38.4397 59.6942 38.4397C59.9589 38.4397 60.1733 38.2242 60.1733 37.9582C60.1733 37.6921 59.9589 37.4766 59.6942 37.4766Z" fill="#EA6A12"/>
<path id="Vector_71" d="M59.6942 42.7852C59.4294 42.7852 59.215 43.0007 59.215 43.2667C59.215 43.5328 59.4294 43.7483 59.6942 43.7483C59.9589 43.7483 60.1733 43.5328 60.1733 43.2667C60.1733 43.0007 59.9589 42.7852 59.6942 42.7852Z" fill="#EA6A12"/>
<path id="Vector_72" d="M59.6942 48.0977C59.4294 48.0977 59.215 48.3132 59.215 48.5792C59.215 48.8453 59.4294 49.0608 59.6942 49.0608C59.9589 49.0608 60.1733 48.8453 60.1733 48.5792C60.1733 48.3132 59.9589 48.0977 59.6942 48.0977Z" fill="#EA6A12"/>
<path id="Vector_73" d="M59.6942 53.4082C59.4294 53.4082 59.215 53.6237 59.215 53.8898C59.215 54.1559 59.4294 54.3714 59.6942 54.3714C59.9589 54.3714 60.1733 54.1559 60.1733 53.8898C60.1733 53.6237 59.9589 53.4082 59.6942 53.4082Z" fill="#EA6A12"/>
<path id="Vector_74" d="M59.6942 58.7188C59.4294 58.7188 59.215 58.9343 59.215 59.2003C59.215 59.4664 59.4294 59.6819 59.6942 59.6819C59.9589 59.6819 60.1733 59.4664 60.1733 59.2003C60.1733 58.9343 59.9589 58.7188 59.6942 58.7188Z" fill="#EA6A12"/>
<path id="Vector_75" d="M59.6942 64.0293C59.4294 64.0293 59.215 64.2448 59.215 64.5109C59.215 64.777 59.4294 64.9925 59.6942 64.9925C59.9589 64.9925 60.1733 64.777 60.1733 64.5109C60.1733 64.2448 59.9589 64.0293 59.6942 64.0293Z" fill="#EA6A12"/>
<path id="Vector_76" d="M59.6942 69.3398C59.4294 69.3398 59.215 69.5554 59.215 69.8214C59.215 70.0875 59.4294 70.303 59.6942 70.303C59.9589 70.303 60.1733 70.0875 60.1733 69.8214C60.1733 69.5554 59.9589 69.3398 59.6942 69.3398Z" fill="#EA6A12"/>
<path id="Vector_77" d="M54.4759 5.61133C54.2112 5.61133 53.9967 5.82684 53.9967 6.0929C53.9967 6.35897 54.2112 6.57448 54.4759 6.57448C54.7406 6.57448 54.9551 6.35897 54.9551 6.0929C54.9551 5.82684 54.7406 5.61133 54.4759 5.61133Z" fill="#EA6A12"/>
<path id="Vector_78" d="M54.4759 10.9238C54.2112 10.9238 53.9967 11.1393 53.9967 11.4054C53.9967 11.6715 54.2112 11.887 54.4759 11.887C54.7406 11.887 54.9551 11.6715 54.9551 11.4054C54.9551 11.1393 54.7406 10.9238 54.4759 10.9238Z" fill="#EA6A12"/>
<path id="Vector_79" d="M54.4759 16.2324C54.2112 16.2324 53.9967 16.4479 53.9967 16.714C53.9967 16.9801 54.2112 17.1956 54.4759 17.1956C54.7406 17.1956 54.9551 16.9801 54.9551 16.714C54.9551 16.4479 54.7406 16.2324 54.4759 16.2324Z" fill="#EA6A12"/>
<path id="Vector_80" d="M53.9967 22.0265C53.9967 22.2925 54.2113 22.5081 54.4759 22.5081C54.7405 22.5081 54.9551 22.2925 54.9551 22.0265C54.9551 21.7605 54.7405 21.5449 54.4759 21.5449C54.2113 21.5449 53.9967 21.7605 53.9967 22.0265Z" fill="#EA6A12"/>
<path id="Vector_81" d="M53.9967 27.3371C53.9967 27.603 54.2113 27.8186 54.4759 27.8186C54.7405 27.8186 54.9551 27.603 54.9551 27.3371C54.9551 27.0711 54.7405 26.8555 54.4759 26.8555C54.2113 26.8555 53.9967 27.0711 53.9967 27.3371Z" fill="#EA6A12"/>
<path id="Vector_82" d="M53.9967 32.6457C53.9967 32.9116 54.2113 33.1272 54.4759 33.1272C54.7405 33.1272 54.9551 32.9116 54.9551 32.6457C54.9551 32.3797 54.7405 32.1641 54.4759 32.1641C54.2113 32.1641 53.9967 32.3797 53.9967 32.6457Z" fill="#EA6A12"/>
<path id="Vector_83" d="M54.4759 37.4766C54.2112 37.4766 53.9967 37.6921 53.9967 37.9582C53.9967 38.2242 54.2112 38.4397 54.4759 38.4397C54.7406 38.4397 54.9551 38.2242 54.9551 37.9582C54.9551 37.6921 54.7406 37.4766 54.4759 37.4766Z" fill="#EA6A12"/>
<path id="Vector_84" d="M54.4759 42.7852C54.2112 42.7852 53.9967 43.0007 53.9967 43.2667C53.9967 43.5328 54.2112 43.7483 54.4759 43.7483C54.7406 43.7483 54.9551 43.5328 54.9551 43.2667C54.9551 43.0007 54.7406 42.7852 54.4759 42.7852Z" fill="#EA6A12"/>
<path id="Vector_85" d="M54.4759 48.0977C54.2112 48.0977 53.9967 48.3132 53.9967 48.5792C53.9967 48.8453 54.2112 49.0608 54.4759 49.0608C54.7406 49.0608 54.9551 48.8453 54.9551 48.5792C54.9551 48.3132 54.7406 48.0977 54.4759 48.0977Z" fill="#EA6A12"/>
<path id="Vector_86" d="M54.4759 53.4082C54.2112 53.4082 53.9967 53.6237 53.9967 53.8898C53.9967 54.1559 54.2112 54.3714 54.4759 54.3714C54.7406 54.3714 54.9551 54.1559 54.9551 53.8898C54.9551 53.6237 54.7406 53.4082 54.4759 53.4082Z" fill="#EA6A12"/>
<path id="Vector_87" d="M54.4759 58.7188C54.2112 58.7188 53.9967 58.9343 53.9967 59.2003C53.9967 59.4664 54.2112 59.6819 54.4759 59.6819C54.7406 59.6819 54.9551 59.4664 54.9551 59.2003C54.9551 58.9343 54.7406 58.7188 54.4759 58.7188Z" fill="#EA6A12"/>
<path id="Vector_88" d="M54.4759 64.0293C54.2112 64.0293 53.9967 64.2448 53.9967 64.5109C53.9967 64.777 54.2112 64.9925 54.4759 64.9925C54.7406 64.9925 54.9551 64.777 54.9551 64.5109C54.9551 64.2448 54.7406 64.0293 54.4759 64.0293Z" fill="#EA6A12"/>
<path id="Vector_89" d="M54.4759 69.3398C54.2112 69.3398 53.9967 69.5554 53.9967 69.8214C53.9967 70.0875 54.2112 70.303 54.4759 70.303C54.7406 70.303 54.9551 70.0875 54.9551 69.8214C54.9551 69.5554 54.7406 69.3398 54.4759 69.3398Z" fill="#EA6A12"/>
<path id="Vector_90" d="M49.2586 5.61133C48.9939 5.61133 48.7795 5.82684 48.7795 6.0929C48.7795 6.35897 48.9939 6.57448 49.2586 6.57448C49.5234 6.57448 49.7378 6.35897 49.7378 6.0929C49.7378 5.82684 49.5234 5.61133 49.2586 5.61133Z" fill="#EA6A12"/>
<path id="Vector_91" d="M49.2586 10.9238C48.9939 10.9238 48.7795 11.1393 48.7795 11.4054C48.7795 11.6715 48.9939 11.887 49.2586 11.887C49.5234 11.887 49.7378 11.6715 49.7378 11.4054C49.7378 11.1393 49.5234 10.9238 49.2586 10.9238Z" fill="#EA6A12"/>
<path id="Vector_92" d="M49.2586 16.2324C48.9939 16.2324 48.7795 16.4479 48.7795 16.714C48.7795 16.9801 48.9939 17.1956 49.2586 17.1956C49.5234 17.1956 49.7378 16.9801 49.7378 16.714C49.7378 16.4479 49.5234 16.2324 49.2586 16.2324Z" fill="#EA6A12"/>
<path id="Vector_93" d="M49.2586 21.5449C48.9939 21.5449 48.7795 21.7604 48.7795 22.0265C48.7795 22.2926 48.9939 22.5081 49.2586 22.5081C49.5234 22.5081 49.7378 22.2926 49.7378 22.0265C49.7378 21.7604 49.5234 21.5449 49.2586 21.5449Z" fill="#EA6A12"/>
<path id="Vector_94" d="M49.2586 26.8555C48.9939 26.8555 48.7795 27.071 48.7795 27.3371C48.7795 27.6031 48.9939 27.8186 49.2586 27.8186C49.5234 27.8186 49.7378 27.6031 49.7378 27.3371C49.7378 27.071 49.5234 26.8555 49.2586 26.8555Z" fill="#EA6A12"/>
<path id="Vector_95" d="M49.2586 32.1641C48.9939 32.1641 48.7795 32.3796 48.7795 32.6457C48.7795 32.9117 48.9939 33.1272 49.2586 33.1272C49.5234 33.1272 49.7378 32.9117 49.7378 32.6457C49.7378 32.3796 49.5234 32.1641 49.2586 32.1641Z" fill="#EA6A12"/>
<path id="Vector_96" d="M49.2586 37.4766C48.9939 37.4766 48.7795 37.6921 48.7795 37.9582C48.7795 38.2242 48.9939 38.4397 49.2586 38.4397C49.5234 38.4397 49.7378 38.2242 49.7378 37.9582C49.7378 37.6921 49.5234 37.4766 49.2586 37.4766Z" fill="#EA6A12"/>
<path id="Vector_97" d="M49.2586 42.7852C48.9939 42.7852 48.7795 43.0007 48.7795 43.2667C48.7795 43.5328 48.9939 43.7483 49.2586 43.7483C49.5234 43.7483 49.7378 43.5328 49.7378 43.2667C49.7378 43.0007 49.5234 42.7852 49.2586 42.7852Z" fill="#EA6A12"/>
<path id="Vector_98" d="M49.2586 48.0977C48.9939 48.0977 48.7795 48.3132 48.7795 48.5792C48.7795 48.8453 48.9939 49.0608 49.2586 49.0608C49.5234 49.0608 49.7378 48.8453 49.7378 48.5792C49.7378 48.3132 49.5234 48.0977 49.2586 48.0977Z" fill="#EA6A12"/>
<path id="Vector_99" d="M49.2586 53.4082C48.9939 53.4082 48.7795 53.6237 48.7795 53.8898C48.7795 54.1559 48.9939 54.3714 49.2586 54.3714C49.5234 54.3714 49.7378 54.1559 49.7378 53.8898C49.7378 53.6237 49.5234 53.4082 49.2586 53.4082Z" fill="#EA6A12"/>
<path id="Vector_100" d="M49.2586 58.7188C48.9939 58.7188 48.7795 58.9343 48.7795 59.2003C48.7795 59.4664 48.9939 59.6819 49.2586 59.6819C49.5234 59.6819 49.7378 59.4664 49.7378 59.2003C49.7378 58.9343 49.5234 58.7188 49.2586 58.7188Z" fill="#EA6A12"/>
<path id="Vector_101" d="M49.2586 64.0293C48.9939 64.0293 48.7795 64.2448 48.7795 64.5109C48.7795 64.777 48.9939 64.9925 49.2586 64.9925C49.5234 64.9925 49.7378 64.777 49.7378 64.5109C49.7378 64.2448 49.5234 64.0293 49.2586 64.0293Z" fill="#EA6A12"/>
<path id="Vector_102" d="M49.2586 69.3398C48.9939 69.3398 48.7795 69.5554 48.7795 69.8214C48.7795 70.0875 48.9939 70.303 49.2586 70.303C49.5234 70.303 49.7378 70.0875 49.7378 69.8214C49.7378 69.5554 49.5234 69.3398 49.2586 69.3398Z" fill="#EA6A12"/>
</g>
<g id="Group_5">
<path id="Vector_103" d="M185.926 67.4316C185.661 67.4316 185.447 67.6472 185.447 67.9132C185.447 68.1793 185.661 68.3948 185.926 68.3948C186.191 68.3948 186.405 68.1793 186.405 67.9132C186.405 67.6472 186.191 67.4316 185.926 67.4316Z" fill="#EA6A12"/>
<path id="Vector_104" d="M185.927 72.7422C185.662 72.7422 185.447 72.9577 185.447 73.2238C185.447 73.4898 185.662 73.7054 185.927 73.7054C186.191 73.7054 186.406 73.4898 186.406 73.2238C186.406 72.9577 186.191 72.7422 185.927 72.7422Z" fill="#EA6A12"/>
<path id="Vector_105" d="M185.927 78.0527C185.662 78.0527 185.447 78.2683 185.447 78.5343C185.447 78.8004 185.662 79.0159 185.927 79.0159C186.191 79.0159 186.406 78.8004 186.406 78.5343C186.406 78.2683 186.191 78.0527 185.927 78.0527Z" fill="#EA6A12"/>
<path id="Vector_106" d="M185.927 83.3633C185.662 83.3633 185.447 83.5788 185.447 83.8449C185.447 84.1109 185.662 84.3265 185.927 84.3265C186.191 84.3265 186.406 84.1109 186.406 83.8449C186.406 83.5788 186.191 83.3633 185.927 83.3633Z" fill="#EA6A12"/>
<path id="Vector_107" d="M185.927 88.6738C185.662 88.6738 185.447 88.8893 185.447 89.1554C185.447 89.4215 185.662 89.637 185.927 89.637C186.191 89.637 186.406 89.4215 186.406 89.1554C186.406 88.8893 186.191 88.6738 185.927 88.6738Z" fill="#EA6A12"/>
<path id="Vector_108" d="M185.927 93.9844C185.662 93.9844 185.447 94.1999 185.447 94.466C185.447 94.732 185.662 94.9476 185.927 94.9476C186.191 94.9476 186.406 94.732 186.406 94.466C186.406 94.1999 186.191 93.9844 185.927 93.9844Z" fill="#EA6A12"/>
<path id="Vector_109" d="M185.927 99.2949C185.662 99.2949 185.447 99.5104 185.447 99.7765C185.447 100.043 185.662 100.258 185.927 100.258C186.191 100.258 186.406 100.043 186.406 99.7765C186.406 99.5104 186.191 99.2949 185.927 99.2949Z" fill="#EA6A12"/>
<path id="Vector_110" d="M185.927 104.605C185.662 104.605 185.447 104.821 185.447 105.087C185.447 105.353 185.662 105.569 185.927 105.569C186.191 105.569 186.406 105.353 186.406 105.087C186.406 104.821 186.191 104.605 185.927 104.605Z" fill="#EA6A12"/>
<path id="Vector_111" d="M185.927 109.918C185.662 109.918 185.447 110.133 185.447 110.4C185.447 110.666 185.662 110.881 185.927 110.881C186.191 110.881 186.406 110.666 186.406 110.4C186.406 110.133 186.191 109.918 185.927 109.918Z" fill="#EA6A12"/>
<path id="Vector_112" d="M185.927 115.227C185.662 115.227 185.447 115.442 185.447 115.708C185.447 115.974 185.662 116.19 185.927 116.19C186.191 116.19 186.406 115.974 186.406 115.708C186.406 115.442 186.191 115.227 185.927 115.227Z" fill="#EA6A12"/>
<path id="Vector_113" d="M185.927 120.539C185.662 120.539 185.447 120.755 185.447 121.021C185.447 121.287 185.662 121.502 185.927 121.502C186.191 121.502 186.406 121.287 186.406 121.021C186.406 120.755 186.191 120.539 185.927 120.539Z" fill="#EA6A12"/>
<path id="Vector_114" d="M185.927 125.848C185.662 125.848 185.447 126.063 185.447 126.329C185.447 126.595 185.662 126.811 185.927 126.811C186.191 126.811 186.406 126.595 186.406 126.329C186.406 126.063 186.191 125.848 185.927 125.848Z" fill="#EA6A12"/>
<path id="Vector_115" d="M185.927 131.16C185.662 131.16 185.447 131.376 185.447 131.642C185.447 131.908 185.662 132.123 185.927 132.123C186.191 132.123 186.406 131.908 186.406 131.642C186.406 131.376 186.191 131.16 185.927 131.16Z" fill="#EA6A12"/>
<path id="Vector_116" d="M180.708 67.4316C180.444 67.4316 180.229 67.6472 180.229 67.9132C180.229 68.1793 180.444 68.3948 180.708 68.3948C180.973 68.3948 181.187 68.1793 181.187 67.9132C181.19 67.6472 180.973 67.4316 180.708 67.4316Z" fill="#EA6A12"/>
<path id="Vector_117" d="M180.708 72.7422C180.444 72.7422 180.229 72.9577 180.229 73.2238C180.229 73.4898 180.444 73.7054 180.708 73.7054C180.973 73.7054 181.187 73.4898 181.187 73.2238C181.19 72.9577 180.973 72.7422 180.708 72.7422Z" fill="#EA6A12"/>
<path id="Vector_118" d="M180.708 78.0527C180.444 78.0527 180.229 78.2682 180.229 78.5343C180.229 78.8004 180.444 79.0159 180.708 79.0159C180.973 79.0159 181.187 78.8004 181.187 78.5343C181.19 78.2682 180.973 78.0527 180.708 78.0527Z" fill="#EA6A12"/>
<path id="Vector_119" d="M180.708 83.3633C180.444 83.3633 180.229 83.5788 180.229 83.8449C180.229 84.1109 180.444 84.3265 180.708 84.3265C180.973 84.3265 181.187 84.1109 181.187 83.8449C181.19 83.5788 180.973 83.3633 180.708 83.3633Z" fill="#EA6A12"/>
<path id="Vector_120" d="M180.708 88.6738C180.444 88.6738 180.229 88.8893 180.229 89.1554C180.229 89.4215 180.444 89.637 180.708 89.637C180.973 89.637 181.188 89.4215 181.188 89.1554C181.188 88.8893 180.973 88.6738 180.708 88.6738Z" fill="#EA6A12"/>
<path id="Vector_121" d="M180.708 93.9844C180.444 93.9844 180.229 94.1999 180.229 94.466C180.229 94.732 180.444 94.9476 180.708 94.9476C180.973 94.9476 181.188 94.732 181.188 94.466C181.188 94.1999 180.973 93.9844 180.708 93.9844Z" fill="#EA6A12"/>
<path id="Vector_122" d="M180.708 99.2949C180.444 99.2949 180.229 99.5104 180.229 99.7765C180.229 100.043 180.444 100.258 180.708 100.258C180.973 100.258 181.187 100.043 181.187 99.7765C181.19 99.5104 180.973 99.2949 180.708 99.2949Z" fill="#EA6A12"/>
<path id="Vector_123" d="M180.708 104.605C180.444 104.605 180.229 104.821 180.229 105.087C180.229 105.353 180.444 105.569 180.708 105.569C180.973 105.569 181.187 105.353 181.187 105.087C181.19 104.821 180.973 104.605 180.708 104.605Z" fill="#EA6A12"/>
<path id="Vector_124" d="M180.708 109.918C180.444 109.918 180.229 110.133 180.229 110.4C180.229 110.666 180.444 110.881 180.708 110.881C180.973 110.881 181.187 110.666 181.187 110.4C181.19 110.133 180.973 109.918 180.708 109.918Z" fill="#EA6A12"/>
<path id="Vector_125" d="M180.708 115.227C180.444 115.227 180.229 115.442 180.229 115.708C180.229 115.974 180.444 116.19 180.708 116.19C180.973 116.19 181.187 115.974 181.187 115.708C181.19 115.442 180.973 115.227 180.708 115.227Z" fill="#EA6A12"/>
<path id="Vector_126" d="M180.708 120.539C180.444 120.539 180.229 120.755 180.229 121.021C180.229 121.287 180.444 121.502 180.708 121.502C180.973 121.502 181.187 121.287 181.187 121.021C181.19 120.755 180.973 120.539 180.708 120.539Z" fill="#EA6A12"/>
<path id="Vector_127" d="M180.708 125.848C180.444 125.848 180.229 126.063 180.229 126.329C180.229 126.595 180.444 126.811 180.708 126.811C180.973 126.811 181.187 126.595 181.187 126.329C181.19 126.063 180.973 125.848 180.708 125.848Z" fill="#EA6A12"/>
<path id="Vector_128" d="M180.708 131.16C180.444 131.16 180.229 131.376 180.229 131.642C180.229 131.908 180.444 132.123 180.708 132.123C180.973 132.123 181.187 131.908 181.187 131.642C181.19 131.376 180.973 131.16 180.708 131.16Z" fill="#EA6A12"/>
<path id="Vector_129" d="M175.491 67.4316C175.226 67.4316 175.011 67.6472 175.011 67.9132C175.011 68.1793 175.226 68.3948 175.491 68.3948C175.755 68.3948 175.97 68.1793 175.97 67.9132C175.97 67.6472 175.755 67.4316 175.491 67.4316Z" fill="#EA6A12"/>
<path id="Vector_130" d="M175.491 72.7422C175.226 72.7422 175.011 72.9577 175.011 73.2238C175.011 73.4898 175.226 73.7054 175.491 73.7054C175.755 73.7054 175.97 73.4898 175.97 73.2238C175.97 72.9577 175.755 72.7422 175.491 72.7422Z" fill="#EA6A12"/>
<path id="Vector_131" d="M175.491 78.0527C175.226 78.0527 175.011 78.2682 175.011 78.5343C175.011 78.8004 175.226 79.0159 175.491 79.0159C175.755 79.0159 175.97 78.8004 175.97 78.5343C175.97 78.2682 175.755 78.0527 175.491 78.0527Z" fill="#EA6A12"/>
<path id="Vector_132" d="M175.491 83.3633C175.226 83.3633 175.011 83.5788 175.011 83.8449C175.011 84.1109 175.226 84.3265 175.491 84.3265C175.755 84.3265 175.97 84.1109 175.97 83.8449C175.97 83.5788 175.755 83.3633 175.491 83.3633Z" fill="#EA6A12"/>
<path id="Vector_133" d="M175.491 88.6738C175.226 88.6738 175.011 88.8893 175.011 89.1554C175.011 89.4215 175.226 89.637 175.491 89.637C175.755 89.637 175.97 89.4215 175.97 89.1554C175.97 88.8893 175.755 88.6738 175.491 88.6738Z" fill="#EA6A12"/>
<path id="Vector_134" d="M175.491 93.9844C175.226 93.9844 175.011 94.1999 175.011 94.466C175.011 94.732 175.226 94.9476 175.491 94.9476C175.755 94.9476 175.97 94.732 175.97 94.466C175.97 94.1999 175.755 93.9844 175.491 93.9844Z" fill="#EA6A12"/>
<path id="Vector_135" d="M175.491 99.2949C175.226 99.2949 175.011 99.5104 175.011 99.7765C175.011 100.043 175.226 100.258 175.491 100.258C175.755 100.258 175.97 100.043 175.97 99.7765C175.97 99.5104 175.755 99.2949 175.491 99.2949Z" fill="#EA6A12"/>
<path id="Vector_136" d="M175.491 104.605C175.226 104.605 175.011 104.821 175.011 105.087C175.011 105.353 175.226 105.569 175.491 105.569C175.755 105.569 175.97 105.353 175.97 105.087C175.97 104.821 175.755 104.605 175.491 104.605Z" fill="#EA6A12"/>
<path id="Vector_137" d="M175.491 109.918C175.226 109.918 175.011 110.133 175.011 110.4C175.011 110.666 175.226 110.881 175.491 110.881C175.755 110.881 175.97 110.666 175.97 110.4C175.97 110.133 175.755 109.918 175.491 109.918Z" fill="#EA6A12"/>
<path id="Vector_138" d="M175.491 115.227C175.226 115.227 175.011 115.442 175.011 115.708C175.011 115.974 175.226 116.19 175.491 116.19C175.755 116.19 175.97 115.974 175.97 115.708C175.97 115.442 175.755 115.227 175.491 115.227Z" fill="#EA6A12"/>
<path id="Vector_139" d="M175.491 120.539C175.226 120.539 175.011 120.755 175.011 121.021C175.011 121.287 175.226 121.502 175.491 121.502C175.755 121.502 175.97 121.287 175.97 121.021C175.97 120.755 175.755 120.539 175.491 120.539Z" fill="#EA6A12"/>
<path id="Vector_140" d="M175.491 125.848C175.226 125.848 175.011 126.063 175.011 126.329C175.011 126.595 175.226 126.811 175.491 126.811C175.755 126.811 175.97 126.595 175.97 126.329C175.97 126.063 175.755 125.848 175.491 125.848Z" fill="#EA6A12"/>
<path id="Vector_141" d="M175.491 131.16C175.226 131.16 175.011 131.376 175.011 131.642C175.011 131.908 175.226 132.123 175.491 132.123C175.755 132.123 175.97 131.908 175.97 131.642C175.97 131.376 175.755 131.16 175.491 131.16Z" fill="#EA6A12"/>
<path id="Vector_142" d="M170.272 67.4316C170.008 67.4316 169.793 67.6472 169.793 67.9132C169.793 68.1793 170.008 68.3948 170.272 68.3948C170.537 68.3948 170.751 68.1793 170.751 67.9132C170.751 67.6472 170.537 67.4316 170.272 67.4316Z" fill="#EA6A12"/>
<path id="Vector_143" d="M170.272 72.7422C170.008 72.7422 169.793 72.9577 169.793 73.2238C169.793 73.4898 170.008 73.7054 170.272 73.7054C170.537 73.7054 170.751 73.4898 170.751 73.2238C170.751 72.9577 170.537 72.7422 170.272 72.7422Z" fill="#EA6A12"/>
<path id="Vector_144" d="M170.272 78.0527C170.008 78.0527 169.793 78.2682 169.793 78.5343C169.793 78.8004 170.008 79.0159 170.272 79.0159C170.537 79.0159 170.751 78.8004 170.751 78.5343C170.751 78.2682 170.537 78.0527 170.272 78.0527Z" fill="#EA6A12"/>
<path id="Vector_145" d="M170.272 83.3633C170.008 83.3633 169.793 83.5788 169.793 83.8449C169.793 84.1109 170.008 84.3265 170.272 84.3265C170.537 84.3265 170.751 84.1109 170.751 83.8449C170.751 83.5788 170.537 83.3633 170.272 83.3633Z" fill="#EA6A12"/>
<path id="Vector_146" d="M170.272 88.6738C170.008 88.6738 169.793 88.8893 169.793 89.1554C169.793 89.4215 170.008 89.637 170.272 89.637C170.537 89.637 170.751 89.4215 170.751 89.1554C170.751 88.8893 170.537 88.6738 170.272 88.6738Z" fill="#EA6A12"/>
<path id="Vector_147" d="M170.272 93.9844C170.008 93.9844 169.793 94.1999 169.793 94.466C169.793 94.732 170.008 94.9476 170.272 94.9476C170.537 94.9476 170.751 94.732 170.751 94.466C170.751 94.1999 170.537 93.9844 170.272 93.9844Z" fill="#EA6A12"/>
<path id="Vector_148" d="M170.272 99.2949C170.008 99.2949 169.793 99.5104 169.793 99.7765C169.793 100.043 170.008 100.258 170.272 100.258C170.537 100.258 170.751 100.043 170.751 99.7765C170.751 99.5104 170.537 99.2949 170.272 99.2949Z" fill="#EA6A12"/>
<path id="Vector_149" d="M170.272 104.605C170.008 104.605 169.793 104.821 169.793 105.087C169.793 105.353 170.008 105.569 170.272 105.569C170.537 105.569 170.751 105.353 170.751 105.087C170.751 104.821 170.537 104.605 170.272 104.605Z" fill="#EA6A12"/>
<path id="Vector_150" d="M170.272 109.918C170.008 109.918 169.793 110.133 169.793 110.4C169.793 110.666 170.008 110.881 170.272 110.881C170.537 110.881 170.751 110.666 170.751 110.4C170.751 110.133 170.537 109.918 170.272 109.918Z" fill="#EA6A12"/>
<path id="Vector_151" d="M170.272 115.227C170.008 115.227 169.793 115.442 169.793 115.708C169.793 115.974 170.008 116.19 170.272 116.19C170.537 116.19 170.751 115.974 170.751 115.708C170.751 115.442 170.537 115.227 170.272 115.227Z" fill="#EA6A12"/>
<path id="Vector_152" d="M170.272 120.539C170.008 120.539 169.793 120.755 169.793 121.021C169.793 121.287 170.008 121.502 170.272 121.502C170.537 121.502 170.751 121.287 170.751 121.021C170.751 120.755 170.537 120.539 170.272 120.539Z" fill="#EA6A12"/>
<path id="Vector_153" d="M170.272 125.848C170.008 125.848 169.793 126.063 169.793 126.329C169.793 126.595 170.008 126.811 170.272 126.811C170.537 126.811 170.751 126.595 170.751 126.329C170.751 126.063 170.537 125.848 170.272 125.848Z" fill="#EA6A12"/>
<path id="Vector_154" d="M170.272 131.16C170.008 131.16 169.793 131.376 169.793 131.642C169.793 131.908 170.008 132.123 170.272 132.123C170.537 132.123 170.751 131.908 170.751 131.642C170.751 131.376 170.537 131.16 170.272 131.16Z" fill="#EA6A12"/>
<path id="Vector_155" d="M165.055 67.4316C164.79 67.4316 164.575 67.6472 164.575 67.9132C164.575 68.1793 164.79 68.3948 165.055 68.3948C165.319 68.3948 165.534 68.1793 165.534 67.9132C165.534 67.6472 165.319 67.4316 165.055 67.4316Z" fill="#EA6A12"/>
<path id="Vector_156" d="M165.055 72.7422C164.79 72.7422 164.575 72.9577 164.575 73.2238C164.575 73.4898 164.79 73.7054 165.055 73.7054C165.319 73.7054 165.534 73.4898 165.534 73.2238C165.534 72.9577 165.319 72.7422 165.055 72.7422Z" fill="#EA6A12"/>
<path id="Vector_157" d="M165.055 78.0527C164.79 78.0527 164.575 78.2682 164.575 78.5343C164.575 78.8004 164.79 79.0159 165.055 79.0159C165.319 79.0159 165.534 78.8004 165.534 78.5343C165.534 78.2682 165.319 78.0527 165.055 78.0527Z" fill="#EA6A12"/>
<path id="Vector_158" d="M164.575 83.8449C164.575 84.1108 164.79 84.3265 165.055 84.3265C165.319 84.3265 165.534 84.1108 165.534 83.8449C165.534 83.5789 165.319 83.3633 165.055 83.3633C164.79 83.3633 164.575 83.5789 164.575 83.8449Z" fill="#EA6A12"/>
<path id="Vector_159" d="M164.575 89.1554C164.575 89.4214 164.79 89.637 165.055 89.637C165.319 89.637 165.534 89.4214 165.534 89.1554C165.534 88.8894 165.319 88.6738 165.055 88.6738C164.79 88.6738 164.575 88.8894 164.575 89.1554Z" fill="#EA6A12"/>
<path id="Vector_160" d="M164.575 94.466C164.575 94.7319 164.79 94.9476 165.055 94.9476C165.319 94.9476 165.534 94.7319 165.534 94.466C165.534 94.2 165.319 93.9844 165.055 93.9844C164.79 93.9844 164.575 94.2 164.575 94.466Z" fill="#EA6A12"/>
<path id="Vector_161" d="M165.055 99.2949C164.79 99.2949 164.575 99.5104 164.575 99.7765C164.575 100.043 164.79 100.258 165.055 100.258C165.319 100.258 165.534 100.043 165.534 99.7765C165.534 99.5104 165.319 99.2949 165.055 99.2949Z" fill="#EA6A12"/>
<path id="Vector_162" d="M165.055 104.605C164.79 104.605 164.575 104.821 164.575 105.087C164.575 105.353 164.79 105.569 165.055 105.569C165.319 105.569 165.534 105.353 165.534 105.087C165.534 104.821 165.319 104.605 165.055 104.605Z" fill="#EA6A12"/>
<path id="Vector_163" d="M165.055 109.918C164.79 109.918 164.575 110.133 164.575 110.4C164.575 110.666 164.79 110.881 165.055 110.881C165.319 110.881 165.534 110.666 165.534 110.4C165.534 110.133 165.319 109.918 165.055 109.918Z" fill="#EA6A12"/>
<path id="Vector_164" d="M165.055 115.227C164.79 115.227 164.575 115.442 164.575 115.708C164.575 115.974 164.79 116.19 165.055 116.19C165.319 116.19 165.534 115.974 165.534 115.708C165.534 115.442 165.319 115.227 165.055 115.227Z" fill="#EA6A12"/>
<path id="Vector_165" d="M165.055 120.539C164.79 120.539 164.575 120.755 164.575 121.021C164.575 121.287 164.79 121.502 165.055 121.502C165.319 121.502 165.534 121.287 165.534 121.021C165.534 120.755 165.319 120.539 165.055 120.539Z" fill="#EA6A12"/>
<path id="Vector_166" d="M165.055 125.848C164.79 125.848 164.575 126.063 164.575 126.329C164.575 126.595 164.79 126.811 165.055 126.811C165.319 126.811 165.534 126.595 165.534 126.329C165.534 126.063 165.319 125.848 165.055 125.848Z" fill="#EA6A12"/>
<path id="Vector_167" d="M165.055 131.16C164.79 131.16 164.575 131.376 164.575 131.642C164.575 131.908 164.79 132.123 165.055 132.123C165.319 132.123 165.534 131.908 165.534 131.642C165.534 131.376 165.319 131.16 165.055 131.16Z" fill="#EA6A12"/>
<path id="Vector_168" d="M159.837 67.4316C159.572 67.4316 159.358 67.6472 159.358 67.9132C159.358 68.1793 159.572 68.3948 159.837 68.3948C160.101 68.3948 160.316 68.1793 160.316 67.9132C160.316 67.6472 160.101 67.4316 159.837 67.4316Z" fill="#EA6A12"/>
<path id="Vector_169" d="M159.837 72.7422C159.572 72.7422 159.358 72.9577 159.358 73.2238C159.358 73.4898 159.572 73.7054 159.837 73.7054C160.101 73.7054 160.316 73.4898 160.316 73.2238C160.316 72.9577 160.101 72.7422 159.837 72.7422Z" fill="#EA6A12"/>
<path id="Vector_170" d="M159.837 78.0527C159.572 78.0527 159.358 78.2682 159.358 78.5343C159.358 78.8004 159.572 79.0159 159.837 79.0159C160.101 79.0159 160.316 78.8004 160.316 78.5343C160.316 78.2682 160.101 78.0527 159.837 78.0527Z" fill="#EA6A12"/>
<path id="Vector_171" d="M159.837 83.3633C159.572 83.3633 159.358 83.5788 159.358 83.8449C159.358 84.1109 159.572 84.3265 159.837 84.3265C160.101 84.3265 160.316 84.1109 160.316 83.8449C160.316 83.5788 160.101 83.3633 159.837 83.3633Z" fill="#EA6A12"/>
<path id="Vector_172" d="M159.837 88.6738C159.572 88.6738 159.358 88.8893 159.358 89.1554C159.358 89.4215 159.572 89.637 159.837 89.637C160.101 89.637 160.316 89.4215 160.316 89.1554C160.316 88.8893 160.101 88.6738 159.837 88.6738Z" fill="#EA6A12"/>
<path id="Vector_173" d="M159.837 93.9844C159.572 93.9844 159.358 94.1999 159.358 94.466C159.358 94.732 159.572 94.9476 159.837 94.9476C160.101 94.9476 160.316 94.732 160.316 94.466C160.316 94.1999 160.101 93.9844 159.837 93.9844Z" fill="#EA6A12"/>
<path id="Vector_174" d="M159.837 99.2949C159.572 99.2949 159.358 99.5104 159.358 99.7765C159.358 100.043 159.572 100.258 159.837 100.258C160.101 100.258 160.316 100.043 160.316 99.7765C160.316 99.5104 160.101 99.2949 159.837 99.2949Z" fill="#EA6A12"/>
<path id="Vector_175" d="M159.837 104.605C159.572 104.605 159.358 104.821 159.358 105.087C159.358 105.353 159.572 105.569 159.837 105.569C160.101 105.569 160.316 105.353 160.316 105.087C160.316 104.821 160.101 104.605 159.837 104.605Z" fill="#EA6A12"/>
<path id="Vector_176" d="M159.837 109.918C159.572 109.918 159.358 110.133 159.358 110.4C159.358 110.666 159.572 110.881 159.837 110.881C160.101 110.881 160.316 110.666 160.316 110.4C160.316 110.133 160.101 109.918 159.837 109.918Z" fill="#EA6A12"/>
<path id="Vector_177" d="M159.837 115.227C159.572 115.227 159.358 115.442 159.358 115.708C159.358 115.974 159.572 116.19 159.837 116.19C160.101 116.19 160.316 115.974 160.316 115.708C160.316 115.442 160.101 115.227 159.837 115.227Z" fill="#EA6A12"/>
<path id="Vector_178" d="M159.837 120.539C159.572 120.539 159.358 120.755 159.358 121.021C159.358 121.287 159.572 121.502 159.837 121.502C160.101 121.502 160.316 121.287 160.316 121.021C160.316 120.755 160.101 120.539 159.837 120.539Z" fill="#EA6A12"/>
<path id="Vector_179" d="M159.837 125.848C159.572 125.848 159.358 126.063 159.358 126.329C159.358 126.595 159.572 126.811 159.837 126.811C160.101 126.811 160.316 126.595 160.316 126.329C160.316 126.063 160.101 125.848 159.837 125.848Z" fill="#EA6A12"/>
<path id="Vector_180" d="M159.837 131.16C159.572 131.16 159.358 131.376 159.358 131.642C159.358 131.908 159.572 132.123 159.837 132.123C160.101 132.123 160.316 131.908 160.316 131.642C160.316 131.376 160.101 131.16 159.837 131.16Z" fill="#EA6A12"/>
</g>
<g id="Group_6">
<path id="Vector_181" d="M185.926 67.4316C185.661 67.4316 185.447 67.6472 185.447 67.9132C185.447 68.1793 185.661 68.3948 185.926 68.3948C186.191 68.3948 186.405 68.1793 186.405 67.9132C186.405 67.6472 186.191 67.4316 185.926 67.4316Z" fill="#EA6A12"/>
<path id="Vector_182" d="M185.927 72.7422C185.662 72.7422 185.447 72.9577 185.447 73.2238C185.447 73.4898 185.662 73.7054 185.927 73.7054C186.191 73.7054 186.406 73.4898 186.406 73.2238C186.406 72.9577 186.191 72.7422 185.927 72.7422Z" fill="#EA6A12"/>
<path id="Vector_183" d="M185.927 78.0527C185.662 78.0527 185.447 78.2683 185.447 78.5343C185.447 78.8004 185.662 79.0159 185.927 79.0159C186.191 79.0159 186.406 78.8004 186.406 78.5343C186.406 78.2683 186.191 78.0527 185.927 78.0527Z" fill="#EA6A12"/>
<path id="Vector_184" d="M185.927 83.3633C185.662 83.3633 185.447 83.5788 185.447 83.8449C185.447 84.1109 185.662 84.3265 185.927 84.3265C186.191 84.3265 186.406 84.1109 186.406 83.8449C186.406 83.5788 186.191 83.3633 185.927 83.3633Z" fill="#EA6A12"/>
<path id="Vector_185" d="M185.927 88.6738C185.662 88.6738 185.447 88.8893 185.447 89.1554C185.447 89.4215 185.662 89.637 185.927 89.637C186.191 89.637 186.406 89.4215 186.406 89.1554C186.406 88.8893 186.191 88.6738 185.927 88.6738Z" fill="#EA6A12"/>
<path id="Vector_186" d="M185.927 93.9844C185.662 93.9844 185.447 94.1999 185.447 94.466C185.447 94.732 185.662 94.9476 185.927 94.9476C186.191 94.9476 186.406 94.732 186.406 94.466C186.406 94.1999 186.191 93.9844 185.927 93.9844Z" fill="#EA6A12"/>
<path id="Vector_187" d="M185.927 99.2949C185.662 99.2949 185.447 99.5104 185.447 99.7765C185.447 100.043 185.662 100.258 185.927 100.258C186.191 100.258 186.406 100.043 186.406 99.7765C186.406 99.5104 186.191 99.2949 185.927 99.2949Z" fill="#EA6A12"/>
<path id="Vector_188" d="M185.927 104.605C185.662 104.605 185.447 104.821 185.447 105.087C185.447 105.353 185.662 105.569 185.927 105.569C186.191 105.569 186.406 105.353 186.406 105.087C186.406 104.821 186.191 104.605 185.927 104.605Z" fill="#EA6A12"/>
<path id="Vector_189" d="M185.927 109.918C185.662 109.918 185.447 110.133 185.447 110.4C185.447 110.666 185.662 110.881 185.927 110.881C186.191 110.881 186.406 110.666 186.406 110.4C186.406 110.133 186.191 109.918 185.927 109.918Z" fill="#EA6A12"/>
<path id="Vector_190" d="M185.927 115.227C185.662 115.227 185.447 115.442 185.447 115.708C185.447 115.974 185.662 116.19 185.927 116.19C186.191 116.19 186.406 115.974 186.406 115.708C186.406 115.442 186.191 115.227 185.927 115.227Z" fill="#EA6A12"/>
<path id="Vector_191" d="M185.927 120.539C185.662 120.539 185.447 120.755 185.447 121.021C185.447 121.287 185.662 121.502 185.927 121.502C186.191 121.502 186.406 121.287 186.406 121.021C186.406 120.755 186.191 120.539 185.927 120.539Z" fill="#EA6A12"/>
<path id="Vector_192" d="M185.927 125.848C185.662 125.848 185.447 126.063 185.447 126.329C185.447 126.595 185.662 126.811 185.927 126.811C186.191 126.811 186.406 126.595 186.406 126.329C186.406 126.063 186.191 125.848 185.927 125.848Z" fill="#EA6A12"/>
<path id="Vector_193" d="M185.927 131.16C185.662 131.16 185.447 131.376 185.447 131.642C185.447 131.908 185.662 132.123 185.927 132.123C186.191 132.123 186.406 131.908 186.406 131.642C186.406 131.376 186.191 131.16 185.927 131.16Z" fill="#EA6A12"/>
<path id="Vector_194" d="M180.708 67.4316C180.444 67.4316 180.229 67.6472 180.229 67.9132C180.229 68.1793 180.444 68.3948 180.708 68.3948C180.973 68.3948 181.187 68.1793 181.187 67.9132C181.19 67.6472 180.973 67.4316 180.708 67.4316Z" fill="#EA6A12"/>
<path id="Vector_195" d="M180.708 72.7422C180.444 72.7422 180.229 72.9577 180.229 73.2238C180.229 73.4898 180.444 73.7054 180.708 73.7054C180.973 73.7054 181.187 73.4898 181.187 73.2238C181.19 72.9577 180.973 72.7422 180.708 72.7422Z" fill="#EA6A12"/>
<path id="Vector_196" d="M180.708 78.0527C180.444 78.0527 180.229 78.2682 180.229 78.5343C180.229 78.8004 180.444 79.0159 180.708 79.0159C180.973 79.0159 181.187 78.8004 181.187 78.5343C181.19 78.2682 180.973 78.0527 180.708 78.0527Z" fill="#EA6A12"/>
<path id="Vector_197" d="M180.708 83.3633C180.444 83.3633 180.229 83.5788 180.229 83.8449C180.229 84.1109 180.444 84.3265 180.708 84.3265C180.973 84.3265 181.187 84.1109 181.187 83.8449C181.19 83.5788 180.973 83.3633 180.708 83.3633Z" fill="#EA6A12"/>
<path id="Vector_198" d="M180.708 88.6738C180.444 88.6738 180.229 88.8893 180.229 89.1554C180.229 89.4215 180.444 89.637 180.708 89.637C180.973 89.637 181.188 89.4215 181.188 89.1554C181.188 88.8893 180.973 88.6738 180.708 88.6738Z" fill="#EA6A12"/>
<path id="Vector_199" d="M180.708 93.9844C180.444 93.9844 180.229 94.1999 180.229 94.466C180.229 94.732 180.444 94.9476 180.708 94.9476C180.973 94.9476 181.188 94.732 181.188 94.466C181.188 94.1999 180.973 93.9844 180.708 93.9844Z" fill="#EA6A12"/>
<path id="Vector_200" d="M180.708 99.2949C180.444 99.2949 180.229 99.5104 180.229 99.7765C180.229 100.043 180.444 100.258 180.708 100.258C180.973 100.258 181.187 100.043 181.187 99.7765C181.19 99.5104 180.973 99.2949 180.708 99.2949Z" fill="#EA6A12"/>
<path id="Vector_201" d="M180.708 104.605C180.444 104.605 180.229 104.821 180.229 105.087C180.229 105.353 180.444 105.569 180.708 105.569C180.973 105.569 181.187 105.353 181.187 105.087C181.19 104.821 180.973 104.605 180.708 104.605Z" fill="#EA6A12"/>
<path id="Vector_202" d="M180.708 109.918C180.444 109.918 180.229 110.133 180.229 110.4C180.229 110.666 180.444 110.881 180.708 110.881C180.973 110.881 181.187 110.666 181.187 110.4C181.19 110.133 180.973 109.918 180.708 109.918Z" fill="#EA6A12"/>
<path id="Vector_203" d="M180.708 115.227C180.444 115.227 180.229 115.442 180.229 115.708C180.229 115.974 180.444 116.19 180.708 116.19C180.973 116.19 181.187 115.974 181.187 115.708C181.19 115.442 180.973 115.227 180.708 115.227Z" fill="#EA6A12"/>
<path id="Vector_204" d="M180.708 120.539C180.444 120.539 180.229 120.755 180.229 121.021C180.229 121.287 180.444 121.502 180.708 121.502C180.973 121.502 181.187 121.287 181.187 121.021C181.19 120.755 180.973 120.539 180.708 120.539Z" fill="#EA6A12"/>
<path id="Vector_205" d="M180.708 125.848C180.444 125.848 180.229 126.063 180.229 126.329C180.229 126.595 180.444 126.811 180.708 126.811C180.973 126.811 181.187 126.595 181.187 126.329C181.19 126.063 180.973 125.848 180.708 125.848Z" fill="#EA6A12"/>
<path id="Vector_206" d="M180.708 131.16C180.444 131.16 180.229 131.376 180.229 131.642C180.229 131.908 180.444 132.123 180.708 132.123C180.973 132.123 181.187 131.908 181.187 131.642C181.19 131.376 180.973 131.16 180.708 131.16Z" fill="#EA6A12"/>
<path id="Vector_207" d="M175.491 67.4316C175.226 67.4316 175.011 67.6472 175.011 67.9132C175.011 68.1793 175.226 68.3948 175.491 68.3948C175.755 68.3948 175.97 68.1793 175.97 67.9132C175.97 67.6472 175.755 67.4316 175.491 67.4316Z" fill="#EA6A12"/>
<path id="Vector_208" d="M175.491 72.7422C175.226 72.7422 175.011 72.9577 175.011 73.2238C175.011 73.4898 175.226 73.7054 175.491 73.7054C175.755 73.7054 175.97 73.4898 175.97 73.2238C175.97 72.9577 175.755 72.7422 175.491 72.7422Z" fill="#EA6A12"/>
<path id="Vector_209" d="M175.491 78.0527C175.226 78.0527 175.011 78.2682 175.011 78.5343C175.011 78.8004 175.226 79.0159 175.491 79.0159C175.755 79.0159 175.97 78.8004 175.97 78.5343C175.97 78.2682 175.755 78.0527 175.491 78.0527Z" fill="#EA6A12"/>
<path id="Vector_210" d="M175.491 83.3633C175.226 83.3633 175.011 83.5788 175.011 83.8449C175.011 84.1109 175.226 84.3265 175.491 84.3265C175.755 84.3265 175.97 84.1109 175.97 83.8449C175.97 83.5788 175.755 83.3633 175.491 83.3633Z" fill="#EA6A12"/>
<path id="Vector_211" d="M175.491 88.6738C175.226 88.6738 175.011 88.8893 175.011 89.1554C175.011 89.4215 175.226 89.637 175.491 89.637C175.755 89.637 175.97 89.4215 175.97 89.1554C175.97 88.8893 175.755 88.6738 175.491 88.6738Z" fill="#EA6A12"/>
<path id="Vector_212" d="M175.491 93.9844C175.226 93.9844 175.011 94.1999 175.011 94.466C175.011 94.732 175.226 94.9476 175.491 94.9476C175.755 94.9476 175.97 94.732 175.97 94.466C175.97 94.1999 175.755 93.9844 175.491 93.9844Z" fill="#EA6A12"/>
<path id="Vector_213" d="M175.491 99.2949C175.226 99.2949 175.011 99.5104 175.011 99.7765C175.011 100.043 175.226 100.258 175.491 100.258C175.755 100.258 175.97 100.043 175.97 99.7765C175.97 99.5104 175.755 99.2949 175.491 99.2949Z" fill="#EA6A12"/>
<path id="Vector_214" d="M175.491 104.605C175.226 104.605 175.011 104.821 175.011 105.087C175.011 105.353 175.226 105.569 175.491 105.569C175.755 105.569 175.97 105.353 175.97 105.087C175.97 104.821 175.755 104.605 175.491 104.605Z" fill="#EA6A12"/>
<path id="Vector_215" d="M175.491 109.918C175.226 109.918 175.011 110.133 175.011 110.4C175.011 110.666 175.226 110.881 175.491 110.881C175.755 110.881 175.97 110.666 175.97 110.4C175.97 110.133 175.755 109.918 175.491 109.918Z" fill="#EA6A12"/>
<path id="Vector_216" d="M175.491 115.227C175.226 115.227 175.011 115.442 175.011 115.708C175.011 115.974 175.226 116.19 175.491 116.19C175.755 116.19 175.97 115.974 175.97 115.708C175.97 115.442 175.755 115.227 175.491 115.227Z" fill="#EA6A12"/>
<path id="Vector_217" d="M175.491 120.539C175.226 120.539 175.011 120.755 175.011 121.021C175.011 121.287 175.226 121.502 175.491 121.502C175.755 121.502 175.97 121.287 175.97 121.021C175.97 120.755 175.755 120.539 175.491 120.539Z" fill="#EA6A12"/>
<path id="Vector_218" d="M175.491 125.848C175.226 125.848 175.011 126.063 175.011 126.329C175.011 126.595 175.226 126.811 175.491 126.811C175.755 126.811 175.97 126.595 175.97 126.329C175.97 126.063 175.755 125.848 175.491 125.848Z" fill="#EA6A12"/>
<path id="Vector_219" d="M175.491 131.16C175.226 131.16 175.011 131.376 175.011 131.642C175.011 131.908 175.226 132.123 175.491 132.123C175.755 132.123 175.97 131.908 175.97 131.642C175.97 131.376 175.755 131.16 175.491 131.16Z" fill="#EA6A12"/>
<path id="Vector_220" d="M170.272 67.4316C170.008 67.4316 169.793 67.6472 169.793 67.9132C169.793 68.1793 170.008 68.3948 170.272 68.3948C170.537 68.3948 170.751 68.1793 170.751 67.9132C170.751 67.6472 170.537 67.4316 170.272 67.4316Z" fill="#EA6A12"/>
<path id="Vector_221" d="M170.272 72.7422C170.008 72.7422 169.793 72.9577 169.793 73.2238C169.793 73.4898 170.008 73.7054 170.272 73.7054C170.537 73.7054 170.751 73.4898 170.751 73.2238C170.751 72.9577 170.537 72.7422 170.272 72.7422Z" fill="#EA6A12"/>
<path id="Vector_222" d="M170.272 78.0527C170.008 78.0527 169.793 78.2682 169.793 78.5343C169.793 78.8004 170.008 79.0159 170.272 79.0159C170.537 79.0159 170.751 78.8004 170.751 78.5343C170.751 78.2682 170.537 78.0527 170.272 78.0527Z" fill="#EA6A12"/>
<path id="Vector_223" d="M170.272 83.3633C170.008 83.3633 169.793 83.5788 169.793 83.8449C169.793 84.1109 170.008 84.3265 170.272 84.3265C170.537 84.3265 170.751 84.1109 170.751 83.8449C170.751 83.5788 170.537 83.3633 170.272 83.3633Z" fill="#EA6A12"/>
<path id="Vector_224" d="M170.272 88.6738C170.008 88.6738 169.793 88.8893 169.793 89.1554C169.793 89.4215 170.008 89.637 170.272 89.637C170.537 89.637 170.751 89.4215 170.751 89.1554C170.751 88.8893 170.537 88.6738 170.272 88.6738Z" fill="#EA6A12"/>
<path id="Vector_225" d="M170.272 93.9844C170.008 93.9844 169.793 94.1999 169.793 94.466C169.793 94.732 170.008 94.9476 170.272 94.9476C170.537 94.9476 170.751 94.732 170.751 94.466C170.751 94.1999 170.537 93.9844 170.272 93.9844Z" fill="#EA6A12"/>
<path id="Vector_226" d="M170.272 99.2949C170.008 99.2949 169.793 99.5104 169.793 99.7765C169.793 100.043 170.008 100.258 170.272 100.258C170.537 100.258 170.751 100.043 170.751 99.7765C170.751 99.5104 170.537 99.2949 170.272 99.2949Z" fill="#EA6A12"/>
<path id="Vector_227" d="M170.272 104.605C170.008 104.605 169.793 104.821 169.793 105.087C169.793 105.353 170.008 105.569 170.272 105.569C170.537 105.569 170.751 105.353 170.751 105.087C170.751 104.821 170.537 104.605 170.272 104.605Z" fill="#EA6A12"/>
<path id="Vector_228" d="M170.272 109.918C170.008 109.918 169.793 110.133 169.793 110.4C169.793 110.666 170.008 110.881 170.272 110.881C170.537 110.881 170.751 110.666 170.751 110.4C170.751 110.133 170.537 109.918 170.272 109.918Z" fill="#EA6A12"/>
<path id="Vector_229" d="M170.272 115.227C170.008 115.227 169.793 115.442 169.793 115.708C169.793 115.974 170.008 116.19 170.272 116.19C170.537 116.19 170.751 115.974 170.751 115.708C170.751 115.442 170.537 115.227 170.272 115.227Z" fill="#EA6A12"/>
<path id="Vector_230" d="M170.272 120.539C170.008 120.539 169.793 120.755 169.793 121.021C169.793 121.287 170.008 121.502 170.272 121.502C170.537 121.502 170.751 121.287 170.751 121.021C170.751 120.755 170.537 120.539 170.272 120.539Z" fill="#EA6A12"/>
<path id="Vector_231" d="M170.272 125.848C170.008 125.848 169.793 126.063 169.793 126.329C169.793 126.595 170.008 126.811 170.272 126.811C170.537 126.811 170.751 126.595 170.751 126.329C170.751 126.063 170.537 125.848 170.272 125.848Z" fill="#EA6A12"/>
<path id="Vector_232" d="M170.272 131.16C170.008 131.16 169.793 131.376 169.793 131.642C169.793 131.908 170.008 132.123 170.272 132.123C170.537 132.123 170.751 131.908 170.751 131.642C170.751 131.376 170.537 131.16 170.272 131.16Z" fill="#EA6A12"/>
<path id="Vector_233" d="M165.055 67.4316C164.79 67.4316 164.575 67.6472 164.575 67.9132C164.575 68.1793 164.79 68.3948 165.055 68.3948C165.319 68.3948 165.534 68.1793 165.534 67.9132C165.534 67.6472 165.319 67.4316 165.055 67.4316Z" fill="#EA6A12"/>
<path id="Vector_234" d="M165.055 72.7422C164.79 72.7422 164.575 72.9577 164.575 73.2238C164.575 73.4898 164.79 73.7054 165.055 73.7054C165.319 73.7054 165.534 73.4898 165.534 73.2238C165.534 72.9577 165.319 72.7422 165.055 72.7422Z" fill="#EA6A12"/>
<path id="Vector_235" d="M165.055 78.0527C164.79 78.0527 164.575 78.2682 164.575 78.5343C164.575 78.8004 164.79 79.0159 165.055 79.0159C165.319 79.0159 165.534 78.8004 165.534 78.5343C165.534 78.2682 165.319 78.0527 165.055 78.0527Z" fill="#EA6A12"/>
<path id="Vector_236" d="M164.575 83.8449C164.575 84.1108 164.79 84.3265 165.055 84.3265C165.319 84.3265 165.534 84.1108 165.534 83.8449C165.534 83.5789 165.319 83.3633 165.055 83.3633C164.79 83.3633 164.575 83.5789 164.575 83.8449Z" fill="#EA6A12"/>
<path id="Vector_237" d="M164.575 89.1554C164.575 89.4214 164.79 89.637 165.055 89.637C165.319 89.637 165.534 89.4214 165.534 89.1554C165.534 88.8894 165.319 88.6738 165.055 88.6738C164.79 88.6738 164.575 88.8894 164.575 89.1554Z" fill="#EA6A12"/>
<path id="Vector_238" d="M164.575 94.466C164.575 94.7319 164.79 94.9476 165.055 94.9476C165.319 94.9476 165.534 94.7319 165.534 94.466C165.534 94.2 165.319 93.9844 165.055 93.9844C164.79 93.9844 164.575 94.2 164.575 94.466Z" fill="#EA6A12"/>
<path id="Vector_239" d="M165.055 99.2949C164.79 99.2949 164.575 99.5104 164.575 99.7765C164.575 100.043 164.79 100.258 165.055 100.258C165.319 100.258 165.534 100.043 165.534 99.7765C165.534 99.5104 165.319 99.2949 165.055 99.2949Z" fill="#EA6A12"/>
<path id="Vector_240" d="M165.055 104.605C164.79 104.605 164.575 104.821 164.575 105.087C164.575 105.353 164.79 105.569 165.055 105.569C165.319 105.569 165.534 105.353 165.534 105.087C165.534 104.821 165.319 104.605 165.055 104.605Z" fill="#EA6A12"/>
<path id="Vector_241" d="M165.055 109.918C164.79 109.918 164.575 110.133 164.575 110.4C164.575 110.666 164.79 110.881 165.055 110.881C165.319 110.881 165.534 110.666 165.534 110.4C165.534 110.133 165.319 109.918 165.055 109.918Z" fill="#EA6A12"/>
<path id="Vector_242" d="M165.055 115.227C164.79 115.227 164.575 115.442 164.575 115.708C164.575 115.974 164.79 116.19 165.055 116.19C165.319 116.19 165.534 115.974 165.534 115.708C165.534 115.442 165.319 115.227 165.055 115.227Z" fill="#EA6A12"/>
<path id="Vector_243" d="M165.055 120.539C164.79 120.539 164.575 120.755 164.575 121.021C164.575 121.287 164.79 121.502 165.055 121.502C165.319 121.502 165.534 121.287 165.534 121.021C165.534 120.755 165.319 120.539 165.055 120.539Z" fill="#EA6A12"/>
<path id="Vector_244" d="M165.055 125.848C164.79 125.848 164.575 126.063 164.575 126.329C164.575 126.595 164.79 126.811 165.055 126.811C165.319 126.811 165.534 126.595 165.534 126.329C165.534 126.063 165.319 125.848 165.055 125.848Z" fill="#EA6A12"/>
<path id="Vector_245" d="M165.055 131.16C164.79 131.16 164.575 131.376 164.575 131.642C164.575 131.908 164.79 132.123 165.055 132.123C165.319 132.123 165.534 131.908 165.534 131.642C165.534 131.376 165.319 131.16 165.055 131.16Z" fill="#EA6A12"/>
<path id="Vector_246" d="M159.837 67.4316C159.572 67.4316 159.358 67.6472 159.358 67.9132C159.358 68.1793 159.572 68.3948 159.837 68.3948C160.101 68.3948 160.316 68.1793 160.316 67.9132C160.316 67.6472 160.101 67.4316 159.837 67.4316Z" fill="#EA6A12"/>
<path id="Vector_247" d="M159.837 72.7422C159.572 72.7422 159.358 72.9577 159.358 73.2238C159.358 73.4898 159.572 73.7054 159.837 73.7054C160.101 73.7054 160.316 73.4898 160.316 73.2238C160.316 72.9577 160.101 72.7422 159.837 72.7422Z" fill="#EA6A12"/>
<path id="Vector_248" d="M159.837 78.0527C159.572 78.0527 159.358 78.2682 159.358 78.5343C159.358 78.8004 159.572 79.0159 159.837 79.0159C160.101 79.0159 160.316 78.8004 160.316 78.5343C160.316 78.2682 160.101 78.0527 159.837 78.0527Z" fill="#EA6A12"/>
<path id="Vector_249" d="M159.837 83.3633C159.572 83.3633 159.358 83.5788 159.358 83.8449C159.358 84.1109 159.572 84.3265 159.837 84.3265C160.101 84.3265 160.316 84.1109 160.316 83.8449C160.316 83.5788 160.101 83.3633 159.837 83.3633Z" fill="#EA6A12"/>
<path id="Vector_250" d="M159.837 88.6738C159.572 88.6738 159.358 88.8893 159.358 89.1554C159.358 89.4215 159.572 89.637 159.837 89.637C160.101 89.637 160.316 89.4215 160.316 89.1554C160.316 88.8893 160.101 88.6738 159.837 88.6738Z" fill="#EA6A12"/>
<path id="Vector_251" d="M159.837 93.9844C159.572 93.9844 159.358 94.1999 159.358 94.466C159.358 94.732 159.572 94.9476 159.837 94.9476C160.101 94.9476 160.316 94.732 160.316 94.466C160.316 94.1999 160.101 93.9844 159.837 93.9844Z" fill="#EA6A12"/>
<path id="Vector_252" d="M159.837 99.2949C159.572 99.2949 159.358 99.5104 159.358 99.7765C159.358 100.043 159.572 100.258 159.837 100.258C160.101 100.258 160.316 100.043 160.316 99.7765C160.316 99.5104 160.101 99.2949 159.837 99.2949Z" fill="#EA6A12"/>
<path id="Vector_253" d="M159.837 104.605C159.572 104.605 159.358 104.821 159.358 105.087C159.358 105.353 159.572 105.569 159.837 105.569C160.101 105.569 160.316 105.353 160.316 105.087C160.316 104.821 160.101 104.605 159.837 104.605Z" fill="#EA6A12"/>
<path id="Vector_254" d="M159.837 109.918C159.572 109.918 159.358 110.133 159.358 110.4C159.358 110.666 159.572 110.881 159.837 110.881C160.101 110.881 160.316 110.666 160.316 110.4C160.316 110.133 160.101 109.918 159.837 109.918Z" fill="#EA6A12"/>
<path id="Vector_255" d="M159.837 115.227C159.572 115.227 159.358 115.442 159.358 115.708C159.358 115.974 159.572 116.19 159.837 116.19C160.101 116.19 160.316 115.974 160.316 115.708C160.316 115.442 160.101 115.227 159.837 115.227Z" fill="#EA6A12"/>
<path id="Vector_256" d="M159.837 120.539C159.572 120.539 159.358 120.755 159.358 121.021C159.358 121.287 159.572 121.502 159.837 121.502C160.101 121.502 160.316 121.287 160.316 121.021C160.316 120.755 160.101 120.539 159.837 120.539Z" fill="#EA6A12"/>
<path id="Vector_257" d="M159.837 125.848C159.572 125.848 159.358 126.063 159.358 126.329C159.358 126.595 159.572 126.811 159.837 126.811C160.101 126.811 160.316 126.595 160.316 126.329C160.316 126.063 160.101 125.848 159.837 125.848Z" fill="#EA6A12"/>
<path id="Vector_258" d="M159.837 131.16C159.572 131.16 159.358 131.376 159.358 131.642C159.358 131.908 159.572 132.123 159.837 132.123C160.101 132.123 160.316 131.908 160.316 131.642C160.316 131.376 160.101 131.16 159.837 131.16Z" fill="#EA6A12"/>
</g>
<g id="Group 34324">
<path id="Vector_259" d="M163.309 158.937C161.577 158.932 159.845 158.624 158.232 158.014C155.421 156.952 152.182 156.942 149.361 157.987C146.124 159.188 142.418 159.177 139.192 157.957C136.38 156.894 133.142 156.885 130.321 157.93C130.054 158.027 129.691 157.986 129.51 157.836C129.329 157.686 129.408 157.482 129.674 157.381C132.912 156.18 136.617 156.192 139.843 157.412C142.662 158.474 145.893 158.484 148.715 157.439C151.952 156.238 155.657 156.249 158.884 157.469C161.695 158.531 164.934 158.541 167.755 157.496C170.992 156.296 174.698 156.311 177.924 157.527C178.19 157.63 178.266 157.831 178.084 157.983C177.902 158.132 177.545 158.171 177.272 158.072C174.461 157.01 171.223 157 168.401 158.045C166.783 158.645 165.049 158.943 163.309 158.937Z" fill="#EA6A12"/>
<path id="Vector_260" d="M163.327 155.219C161.594 155.213 159.863 154.906 158.25 154.295C155.438 153.233 152.2 153.224 149.379 154.269C146.141 155.469 142.436 155.458 139.21 154.238C136.398 153.176 133.16 153.166 130.338 154.211C130.072 154.309 129.709 154.267 129.528 154.117C129.347 153.967 129.425 153.763 129.692 153.662C132.929 152.462 136.635 152.473 139.861 153.693C142.679 154.755 145.911 154.765 148.732 153.72C151.969 152.519 155.675 152.531 158.901 153.751C161.713 154.813 164.951 154.823 167.772 153.778C171.01 152.577 174.715 152.592 177.941 153.808C178.207 153.911 178.284 154.112 178.102 154.265C177.919 154.413 177.562 154.452 177.29 154.353C174.478 153.291 171.24 153.281 168.419 154.326C166.8 154.927 165.066 155.224 163.327 155.219Z" fill="#EA6A12"/>
<path id="Vector_261" d="M163.344 151.506C161.611 151.5 159.88 151.193 158.267 150.583C155.455 149.521 152.217 149.511 149.396 150.556C146.159 151.753 142.453 151.741 139.227 150.525C136.415 149.463 133.177 149.453 130.356 150.498C130.089 150.596 129.726 150.554 129.545 150.404C129.364 150.254 129.443 150.051 129.709 149.949C132.946 148.749 136.652 148.76 139.878 149.98C142.696 151.042 145.928 151.052 148.749 150.007C151.987 148.806 155.692 148.818 158.918 150.038C161.73 151.1 164.968 151.11 167.79 150.065C171.027 148.864 174.732 148.879 177.959 150.095C178.224 150.198 178.301 150.399 178.119 150.552C177.936 150.701 177.579 150.74 177.307 150.64C174.495 149.578 171.257 149.568 168.436 150.613C166.817 151.214 165.083 151.511 163.344 151.506Z" fill="#EA6A12"/>
<path id="Vector_262" d="M163.36 147.787C161.627 147.781 159.896 147.473 158.283 146.862C155.472 145.799 152.234 145.788 149.412 146.833C146.174 148.032 142.469 148.02 139.243 146.799C136.432 145.736 133.194 145.725 130.372 146.77C130.106 146.867 129.742 146.826 129.561 146.676C129.38 146.526 129.459 146.322 129.726 146.221C132.964 145.021 136.669 145.033 139.895 146.254C142.713 147.317 145.944 147.328 148.766 146.284C152.004 145.084 155.709 145.096 158.935 146.317C161.746 147.38 164.985 147.391 167.806 146.347C171.044 145.147 174.75 145.163 177.975 146.381C178.241 146.483 178.318 146.684 178.135 146.837C177.953 146.986 177.596 147.025 177.324 146.925C174.512 145.862 171.274 145.852 168.452 146.896C166.834 147.496 165.099 147.792 163.36 147.787Z" fill="#EA6A12"/>
</g>
<path id="Vector_263" d="M39.6892 92.7426C35.317 83.7094 24.6602 80.0357 15.8865 84.5373C7.11283 89.0388 3.54474 100.011 7.91694 109.044C12.2891 118.077 22.946 121.751 31.7196 117.25C40.4933 112.748 44.0614 101.776 39.6892 92.7426Z" fill="#FFF3EB"/>
</g>
<g id="Group 33948">
<g id="Group 33947">
<path id="Ellipse 239" d="M165.262 13.3894C175.176 13.3894 183.213 21.4263 183.213 31.3403C183.213 41.2543 175.176 49.2912 165.262 49.2912C155.347 49.2912 147.31 41.2543 147.31 31.3403C147.31 21.4263 155.347 13.3894 165.262 13.3894Z" stroke="#EA6A12" stroke-width="0.56987"/>
</g>
</g>
</g>
</svg>
