<svg width="10" height="10" viewBox="0 0 10 10" fill="none" xmlns="http://www.w3.org/2000/svg">
<path fill-rule="evenodd" clip-rule="evenodd" d="M3.76743 0.0221236C2.80353 0.120701 1.91 0.547312 1.21788 1.23939C0.737502 1.71975 0.412956 2.24371 0.206068 2.87291C-0.0686893 3.70851 -0.0686893 4.57626 0.206068 5.41186C0.413893 6.04395 0.739553 6.56859 1.2219 7.04843C2.17412 7.99566 3.4728 8.42533 4.81202 8.23623C5.50126 8.13892 6.19219 7.85491 6.73431 7.44608C6.79286 7.40194 6.84695 7.36816 6.85451 7.37101C6.86206 7.37386 7.45352 7.95214 8.16886 8.65606C8.9829 9.45711 9.49672 9.94851 9.54233 9.9696C9.73421 10.0583 9.94879 9.9449 9.98864 9.73375C10.0196 9.56958 10.1284 9.68707 7.98954 7.57424L7.32061 6.91345L7.43489 6.78091C7.922 6.21592 8.245 5.50124 8.3669 4.71881C8.41442 4.41379 8.4147 3.85427 8.36749 3.54642C8.22987 2.64891 7.83689 1.88064 7.18177 1.22831C6.2849 0.335267 5.03234 -0.107229 3.76743 0.0221236ZM4.70213 0.675297C5.49193 0.7915 6.18448 1.13526 6.73259 1.68323C7.40505 2.3555 7.75377 3.19524 7.75377 4.14239C7.75377 4.4915 7.72363 4.73223 7.64184 5.03607C7.22743 6.57582 5.82358 7.63999 4.20674 7.63999C3.24429 7.63999 2.35016 7.27364 1.68295 6.60593C1.22973 6.15236 0.92592 5.62875 0.763295 5.02091C0.618848 4.48093 0.618848 3.80384 0.763295 3.26386C1.09057 2.04054 2.06148 1.07649 3.28485 0.7601C3.72959 0.645089 4.27491 0.612457 4.70213 0.675297Z" fill="black"/>
</svg>
