<svg width="17" height="15" viewBox="0 0 17 15" fill="none" xmlns="http://www.w3.org/2000/svg">
<path id="Vector" d="M16.7511 6.91082L9.95106 0.243995C9.83218 0.127484 9.68074 0.0481437 9.51588 0.0160033C9.35102 -0.0161371 9.18014 0.000365801 9.02484 0.0634257C8.86954 0.126486 8.7368 0.233271 8.6434 0.370282C8.55 0.507294 8.50013 0.66838 8.50009 0.833176V3.78741C6.17811 3.99808 4.01989 5.05066 2.44776 6.73917C0.87564 8.42768 0.002781 10.6306 0 12.9168V14.1668C0.000134179 14.3398 0.0551738 14.5085 0.157485 14.6494C0.259796 14.7903 0.404306 14.8966 0.570973 14.9534C0.737639 15.0101 0.9182 15.0147 1.08761 14.9663C1.25702 14.918 1.40689 14.8191 1.51642 14.6835C2.34917 13.7126 3.37093 12.9142 4.522 12.3348C5.67307 11.7555 6.93037 11.4068 8.22044 11.3093C8.26294 11.3043 8.36919 11.2959 8.50009 11.2876V14.1668C8.50013 14.3316 8.55 14.4927 8.6434 14.6297C8.7368 14.7667 8.86954 14.8735 9.02484 14.9366C9.18014 14.9996 9.35102 15.0161 9.51588 14.984C9.68074 14.9519 9.83218 14.8725 9.95106 14.756L16.7511 8.08918C16.9105 7.9329 17 7.72098 17 7.5C17 7.27903 16.9105 7.0671 16.7511 6.91082ZM10.2001 12.1551V10.4167C10.2001 10.1957 10.1106 9.98375 9.95115 9.82747C9.79174 9.67118 9.57554 9.58338 9.3501 9.58338C9.13335 9.58338 8.24849 9.62505 8.02239 9.65422C5.73149 9.86116 3.55084 10.7145 1.74422 12.1109C1.94928 10.2729 2.83864 8.57365 4.24202 7.33846C5.64539 6.10328 7.46417 5.41899 9.3501 5.41662C9.57554 5.41662 9.79174 5.32882 9.95115 5.17253C10.1106 5.01625 10.2001 4.80428 10.2001 4.58326V2.84489L14.9483 7.5L10.2001 12.1551Z" fill="#0067FF" fill-opacity="0.81"/>
</svg>
