<svg width="13" height="13" viewBox="0 0 13 13" fill="none" xmlns="http://www.w3.org/2000/svg">
<path id="Vector" d="M7.14689 10.4479C7.24837 10.5495 7.30537 10.6871 7.30537 10.8307C7.30537 10.9742 7.24837 11.1118 7.14689 11.2134L6.47407 11.8901C5.76253 12.6011 4.79766 13.0003 3.79172 13C2.78578 12.9997 1.82116 12.5998 1.11007 11.8884C0.398988 11.177 -0.000317156 10.2123 1.89011e-07 9.20658C0.000317534 8.20082 0.400232 7.23638 1.11177 6.52542L2.74442 4.89307C3.42786 4.2092 4.34686 3.81232 5.31336 3.78364C6.27985 3.75495 7.22078 4.09663 7.94359 4.73876C7.99692 4.78605 8.04042 4.84337 8.0716 4.90746C8.10277 4.97154 8.12102 5.04114 8.1253 5.11228C8.12957 5.18342 8.11979 5.2547 8.09651 5.32206C8.07323 5.38942 8.03691 5.45154 7.98962 5.50486C7.94233 5.55819 7.885 5.60168 7.8209 5.63285C7.7568 5.66402 7.68718 5.68226 7.61603 5.68654C7.54488 5.69081 7.47358 5.68103 7.40621 5.65775C7.33884 5.63448 7.27671 5.59816 7.22338 5.55088C6.70713 5.09251 6.03524 4.84865 5.34511 4.86915C4.65499 4.88966 3.99877 5.17298 3.51065 5.66119L1.878 7.29152C1.37014 7.79929 1.08482 8.48798 1.08482 9.20608C1.08482 9.92418 1.37014 10.6129 1.878 11.1206C2.38587 11.6284 3.07468 11.9137 3.79292 11.9137C4.51115 11.9137 5.19996 11.6284 5.70783 11.1206L6.38066 10.4479C6.43095 10.3976 6.49067 10.3577 6.55641 10.3304C6.62215 10.3032 6.69261 10.2892 6.76377 10.2892C6.83494 10.2892 6.9054 10.3032 6.97114 10.3304C7.03688 10.3577 7.0966 10.3976 7.14689 10.4479ZM11.8905 1.1086C11.1789 0.398691 10.2146 0 9.20937 0C8.20409 0 7.23986 0.398691 6.52822 1.1086L5.85539 1.78198C5.75387 1.88357 5.69687 2.02133 5.69694 2.16493C5.697 2.30854 5.75412 2.44624 5.85573 2.54774C5.95734 2.64924 6.09512 2.70623 6.23875 2.70617C6.38238 2.7061 6.52011 2.64899 6.62163 2.5474L7.29445 1.8747C7.80232 1.36693 8.49114 1.08166 9.20937 1.08166C9.9276 1.08166 10.6164 1.36693 11.1243 1.8747C11.6321 2.38247 11.9175 3.07116 11.9175 3.78927C11.9175 4.50737 11.6321 5.19606 11.1243 5.70383L9.49163 7.33754C9.00325 7.82546 8.34689 8.10842 7.65677 8.12855C6.96664 8.14868 6.2949 7.90445 5.7789 7.44582C5.67119 7.35033 5.52995 7.30154 5.38625 7.31017C5.24255 7.3188 5.10817 7.38415 5.01267 7.49184C4.91716 7.59953 4.86836 7.74075 4.87699 7.88442C4.88562 8.02809 4.95098 8.16245 5.0587 8.25794C5.78134 8.90024 6.72216 9.24216 7.68866 9.21373C8.65515 9.1853 9.57425 8.78866 10.2579 8.10499L11.8905 6.47263C12.601 5.76107 13 4.79672 13 3.7913C13 2.78587 12.601 1.82152 11.8905 1.10996V1.1086Z" fill="white"/>
</svg>
