<svg width="9" height="9" viewBox="0 0 9 9" fill="none" xmlns="http://www.w3.org/2000/svg">
<path d="M3.43723 1.65536L3.43721 1.65539L3.28966 1.9199C3.28203 1.9336 3.27451 1.94713 3.26708 1.96048C3.1275 2.21144 3.0221 2.40093 2.85366 2.52908L2.85331 2.52934C2.68278 2.6586 2.47461 2.70547 2.20284 2.76666C2.18856 2.76987 2.1741 2.77313 2.15946 2.77644C2.15943 2.77644 2.15941 2.77645 2.15938 2.77646L1.87327 2.84124L1.87318 2.84126C1.31125 2.96827 0.918927 3.05779 0.647924 3.16462C0.381626 3.2696 0.296907 3.3667 0.264452 3.47093L0.0258673 3.39665L0.264524 3.4707C0.231338 3.57765 0.246863 3.71332 0.405235 3.96493C0.565299 4.21923 0.833392 4.53375 1.21604 4.98099L1.21616 4.98113L1.41129 5.20953C1.42112 5.22101 1.43083 5.23234 1.44041 5.24352C1.62643 5.46046 1.76656 5.62389 1.82979 5.8297C1.89334 6.03345 1.87231 6.24915 1.84403 6.53925C1.84259 6.55403 1.84113 6.56902 1.83966 6.5842L1.83964 6.58441L1.80996 6.88838C1.75226 7.48527 1.71218 7.90553 1.72582 8.21064C1.73944 8.51525 1.80455 8.63123 1.88639 8.69332C1.96359 8.75182 2.08014 8.78083 2.35632 8.70166C2.63565 8.62158 3.00358 8.45304 3.52969 8.21088L3.79728 8.08765C3.79732 8.08763 3.79735 8.08761 3.79739 8.0876C3.8108 8.08141 3.82404 8.0753 3.83713 8.06925C4.09158 7.95167 4.28721 7.86127 4.5 7.86127C4.71305 7.86127 4.90883 7.95187 5.16334 8.06965C5.17605 8.07553 5.18891 8.08148 5.20192 8.08749C5.20208 8.08756 5.20224 8.08763 5.2024 8.08771L5.47051 8.21076L5.4708 8.21089C5.99673 8.45308 6.3645 8.6217 6.6438 8.70177C6.9199 8.78092 7.03648 8.75182 7.11394 8.69297L7.1141 8.69284C7.1956 8.63103 7.26066 8.5153 7.27423 8.21062C7.28782 7.90555 7.24774 7.48526 7.19004 6.88838L7.16036 6.58393L7.16035 6.58378C7.1589 6.56881 7.15745 6.55403 7.15603 6.53944C7.12764 6.24853 7.10659 6.03291 7.16995 5.82861L7.17001 5.82842C7.2336 5.62396 7.37308 5.46102 7.55867 5.2442C7.5685 5.23271 7.57847 5.22106 7.58857 5.20925L7.5887 5.20909L7.78392 4.98104C7.78394 4.98101 7.78397 4.98097 7.784 4.98094C8.16661 4.53352 8.43469 4.21891 8.59476 3.9646C8.75319 3.7129 8.76862 3.57741 8.7355 3.47077L8.97425 3.39661M3.43723 1.65536L6.84115 2.77647L7.12718 2.84124C7.68917 2.96849 8.08138 3.058 8.35231 3.16479C8.61848 3.26971 8.70309 3.36669 8.73555 3.47093L8.97425 3.39661M3.43723 1.65536C3.72638 1.13684 3.92993 0.773044 4.11192 0.535404C4.29377 0.297942 4.40681 0.25 4.5 0.25C4.59319 0.25 4.70622 0.297942 4.88808 0.535404C5.07007 0.773044 5.27362 1.13684 5.56277 1.65536L5.56279 1.65539M3.43723 1.65536L5.56279 1.65539M8.97425 3.39661C8.84244 2.97329 8.28971 2.84814 7.18342 2.59764L7.18239 2.59741L7.43911 6.86668L7.43888 6.86432L7.40918 6.55967C7.37678 6.22532 7.36058 6.05792 7.40873 5.90267C7.45673 5.74834 7.56377 5.62308 7.77667 5.37396L7.77862 5.37167L7.97392 5.14352C8.72855 4.26106 9.10564 3.81961 8.97425 3.39661ZM5.56279 1.65539L5.71034 1.9199M5.56279 1.65539L5.71034 1.9199M5.71034 1.9199C5.71035 1.91993 5.71037 1.91996 5.71039 1.91999C5.718 1.93366 5.72551 1.94715 5.73292 1.96047M5.71034 1.9199L5.73292 1.96047M5.73292 1.96047C5.8725 2.21143 5.9779 2.40093 6.14634 2.52908M5.73292 1.96047L6.14634 2.52908M6.14634 2.52908C6.31651 2.65853 6.52533 2.70547 6.79692 2.76652M6.14634 2.52908L6.79692 2.76652M6.79692 2.76652C6.81142 2.76978 6.82611 2.77308 6.84099 2.77644L6.79692 2.76652Z" stroke="black" stroke-width="0.5"/>
</svg>
