<svg width="40" height="40" viewBox="0 0 40 40" fill="none" xmlns="http://www.w3.org/2000/svg">
<path opacity="0.2" d="M14.6963 28.8392C12.9285 34.1425 5.85742 34.1425 5.85742 34.1425C5.85742 34.1425 5.85742 27.0715 11.1607 25.3037L14.6963 28.8392Z" fill="black" fill-opacity="0.75"/>
<g opacity="0.2">
<path d="M28.8388 18.2324V28.3213C28.8388 28.4854 28.8065 28.648 28.7437 28.7996C28.6809 28.9513 28.5888 29.0891 28.4727 29.2051L23.4193 34.2585C23.2593 34.4185 23.0589 34.5321 22.8395 34.5871C22.62 34.6422 22.3897 34.6366 22.1732 34.571C21.9567 34.5055 21.762 34.3824 21.6099 34.2148C21.4578 34.0473 21.3541 33.8417 21.3097 33.6198L20 27.0713L28.8388 18.2324Z" fill="black" fill-opacity="0.75"/>
<path d="M21.3569 27.4821L27.5888 21.2502V28.3213L22.5354 33.3747L21.3569 27.4821Z" stroke="black" stroke-opacity="0.75" stroke-width="2.5"/>
</g>
<g opacity="0.2">
<path d="M21.7682 11.1611H11.6794C11.5152 11.1611 11.3527 11.1935 11.201 11.2563C11.0494 11.3191 10.9116 11.4112 10.7955 11.5272L5.74209 16.5806C5.58211 16.7406 5.46855 16.941 5.41352 17.1605C5.35849 17.3799 5.36405 17.6102 5.42961 17.8268C5.49518 18.0433 5.61828 18.238 5.7858 18.3901C5.95332 18.5421 6.15898 18.6459 6.38083 18.6903L12.9294 20L21.7682 11.1611Z" fill="black" fill-opacity="0.75"/>
<path d="M11.6794 12.4111H18.7504L12.5185 18.643L6.62598 17.4645L11.6794 12.4111Z" stroke="black" stroke-opacity="0.75" stroke-width="2.5"/>
</g>
<path d="M14.6963 28.8392C12.9285 34.1425 5.85742 34.1425 5.85742 34.1425C5.85742 34.1425 5.85742 27.0715 11.1607 25.3037" stroke="black" stroke-opacity="0.75" stroke-width="2.5" stroke-linecap="round" stroke-linejoin="round"/>
<path d="M30.6064 16.4646L19.9998 27.0712L12.9287 20.0002L23.5353 9.39357C27.5516 5.3773 31.5679 5.41648 33.2807 5.67203C33.5444 5.71134 33.7885 5.83433 33.9771 6.02287C34.1656 6.21142 34.2886 6.45554 34.3279 6.71926C34.5835 8.43209 34.6226 12.4484 30.6064 16.4646Z" stroke="black" stroke-opacity="0.75" stroke-width="2.5" stroke-linecap="round" stroke-linejoin="round"/>
<path d="M28.8388 18.2324V28.3213C28.8388 28.4854 28.8065 28.648 28.7437 28.7996C28.6809 28.9513 28.5888 29.0891 28.4727 29.2051L23.4193 34.2585C23.2593 34.4185 23.0589 34.5321 22.8395 34.5871C22.62 34.6422 22.3897 34.6366 22.1732 34.571C21.9567 34.5055 21.762 34.3824 21.6099 34.2148C21.4578 34.0473 21.3541 33.8417 21.3097 33.6198L20 27.0713" stroke="black" stroke-opacity="0.75" stroke-width="2.5" stroke-linecap="round" stroke-linejoin="round"/>
<path d="M21.7682 11.1611H11.6794C11.5152 11.1611 11.3527 11.1935 11.201 11.2563C11.0494 11.3191 10.9116 11.4112 10.7955 11.5272L5.74209 16.5806C5.58211 16.7406 5.46855 16.941 5.41352 17.1605C5.35849 17.3799 5.36405 17.6102 5.42961 17.8268C5.49518 18.0433 5.61828 18.238 5.7858 18.3901C5.95332 18.5421 6.15898 18.6459 6.38083 18.6903L12.9294 20" stroke="black" stroke-opacity="0.75" stroke-width="2.5" stroke-linecap="round" stroke-linejoin="round"/>
</svg>
