<svg width="40" height="40" viewBox="0 0 40 40" fill="none" xmlns="http://www.w3.org/2000/svg">
<path opacity="0.2" d="M5.1731 11.6592C5.05973 11.8515 4.99996 12.0706 5 12.2938V27.7067C5 27.9285 5.05902 28.1463 5.17099 28.3378C5.28296 28.5292 5.44386 28.6874 5.63717 28.7962L19.3872 36.5306C19.5743 36.6358 19.7853 36.6911 20 36.6911L20.0016 36.6911L20.1483 20.0003L5.17313 11.6592L5.1731 11.6592Z" fill="black"/>
<path d="M35 27.7068V12.2939C35 12.0721 34.941 11.8543 34.829 11.6629C34.717 11.4714 34.5561 11.3132 34.3628 11.2045L20.6128 3.4701C20.4257 3.36486 20.2147 3.30957 20 3.30957C19.7853 3.30957 19.5743 3.36486 19.3872 3.4701L5.63717 11.2045C5.44386 11.3132 5.28296 11.4714 5.17099 11.6629C5.05902 11.8543 5 12.0721 5 12.2939V27.7068C5 27.9286 5.05902 28.1464 5.17099 28.3379C5.28296 28.5293 5.44386 28.6876 5.63717 28.7963L19.3872 36.5307C19.5743 36.6359 19.7853 36.6912 20 36.6912C20.2147 36.6912 20.4257 36.6359 20.6128 36.5307L34.3628 28.7963C34.5561 28.6876 34.717 28.5293 34.829 28.3379C34.941 28.1464 35 27.9286 35 27.7068Z" stroke="#EA6A12" stroke-width="2.5" stroke-linecap="round" stroke-linejoin="round"/>
<path d="M27.6597 23.8298V15.7048L12.5 7.34375" stroke="#EA6A12" stroke-width="2.5" stroke-linecap="round" stroke-linejoin="round"/>
<path d="M34.8274 11.6607L20.148 20.0003L5.17285 11.6592" stroke="#EA6A12" stroke-width="2.5" stroke-linecap="round" stroke-linejoin="round"/>
<path d="M20.1486 20L20.002 36.6908" stroke="#EA6A12" stroke-width="2.5" stroke-linecap="round" stroke-linejoin="round"/>
</svg>
