<svg width="28" height="28" viewBox="0 0 28 28" fill="none" xmlns="http://www.w3.org/2000/svg">
<circle cx="14" cy="14" r="14" fill="white"/>
<path d="M8.4 9.33333H10.5L11.9 8H16.1L17.5 9.33333H19.6C19.9713 9.33333 20.3274 9.47381 20.5899 9.72386C20.8525 9.97391 21 10.313 21 10.6667V18.6667C21 19.0203 20.8525 19.3594 20.5899 19.6095C20.3274 19.8595 19.9713 20 19.6 20H8.4C8.0287 20 7.6726 19.8595 7.41005 19.6095C7.1475 19.3594 7 19.0203 7 18.6667V10.6667C7 10.313 7.1475 9.97391 7.41005 9.72386C7.6726 9.47381 8.0287 9.33333 8.4 9.33333ZM14 11.3333C13.0717 11.3333 12.1815 11.6845 11.5251 12.3096C10.8687 12.9348 10.5 13.7826 10.5 14.6667C10.5 15.5507 10.8687 16.3986 11.5251 17.0237C12.1815 17.6488 13.0717 18 14 18C14.9283 18 15.8185 17.6488 16.4749 17.0237C17.1313 16.3986 17.5 15.5507 17.5 14.6667C17.5 13.7826 17.1313 12.9348 16.4749 12.3096C15.8185 11.6845 14.9283 11.3333 14 11.3333ZM14 12.6667C14.557 12.6667 15.0911 12.8774 15.4849 13.2525C15.8788 13.6275 16.1 14.1362 16.1 14.6667C16.1 15.1971 15.8788 15.7058 15.4849 16.0809C15.0911 16.456 14.557 16.6667 14 16.6667C13.443 16.6667 12.9089 16.456 12.5151 16.0809C12.1212 15.7058 11.9 15.1971 11.9 14.6667C11.9 14.1362 12.1212 13.6275 12.5151 13.2525C12.9089 12.8774 13.443 12.6667 14 12.6667Z" fill="#EA6A12"/>
</svg>
