<svg width="32" height="32" viewBox="0 0 32 32" fill="none" xmlns="http://www.w3.org/2000/svg">
<circle cx="16" cy="16" r="16" fill="#EA6A12"/>
<path d="M16.5 19.8215L13.2147 16.5353L13.8712 15.8676L16.0357 18.0321V10H16.9643V18.0321L19.1279 15.8686L19.7853 16.5353L16.5 19.8215ZM11.4996 23C11.0725 23 10.7159 22.857 10.4299 22.571C10.1433 22.2844 10 21.9275 10 21.5004V19.2504H10.9286V21.5004C10.9286 21.6427 10.988 21.7737 11.1069 21.8931C11.2263 22.012 11.3573 22.0714 11.4996 22.0714H21.5004C21.6427 22.0714 21.7737 22.012 21.8931 21.8931C22.012 21.7737 22.0714 21.6427 22.0714 21.5004V19.2504H23V21.5004C23 21.9275 22.857 22.2841 22.571 22.5701C22.2844 22.8567 21.9275 23 21.5004 23H11.4996Z" fill="white"/>
</svg>
